%TF.GenerationSoftware,KiCad,Pcbnew,(5.1.6-0-10_14)*%
%TF.CreationDate,2020-10-11T14:21:30+01:00*%
%TF.ProjectId,ActiveMixerPedalWithDigitalPeakDetector,41637469-7665-44d6-9978-657250656461,rev?*%
%TF.SameCoordinates,Original*%
%TF.FileFunction,Legend,Bot*%
%TF.FilePolarity,Positive*%
%FSLAX46Y46*%
G04 Gerber Fmt 4.6, Leading zero omitted, Abs format (unit mm)*
G04 Created by KiCad (PCBNEW (5.1.6-0-10_14)) date 2020-10-11 14:21:30*
%MOMM*%
%LPD*%
G01*
G04 APERTURE LIST*
%ADD10C,0.150000*%
%TA.AperFunction,Profile*%
%ADD11C,0.050000*%
%TD*%
G04 APERTURE END LIST*
D10*
X55130571Y-137661642D02*
X54521047Y-137661642D01*
X54216285Y-137166404D02*
X53721047Y-137166404D01*
X53987714Y-137471166D01*
X53873428Y-137471166D01*
X53797238Y-137509261D01*
X53759142Y-137547357D01*
X53721047Y-137623547D01*
X53721047Y-137814023D01*
X53759142Y-137890214D01*
X53797238Y-137928309D01*
X53873428Y-137966404D01*
X54102000Y-137966404D01*
X54178190Y-137928309D01*
X54216285Y-137890214D01*
X53492476Y-137166404D02*
X53225809Y-137966404D01*
X52959142Y-137166404D01*
D11*
X148590000Y-140335000D02*
X147955000Y-140970000D01*
X148590000Y-135255000D02*
X148590000Y-140335000D01*
X154051000Y-135255000D02*
X148590000Y-135255000D01*
X154686000Y-134620000D02*
X154051000Y-135255000D01*
X154686000Y-60960000D02*
X154686000Y-134620000D01*
X154051000Y-60325000D02*
X154686000Y-60960000D01*
X148590000Y-60325000D02*
X154051000Y-60325000D01*
X148590000Y-55181500D02*
X148590000Y-60325000D01*
X147955000Y-54546500D02*
X148590000Y-55181500D01*
X48895000Y-54546500D02*
X147955000Y-54546500D01*
X48260000Y-55181500D02*
X48895000Y-54546500D01*
X48260000Y-60325000D02*
X48260000Y-55181500D01*
X42799000Y-60325000D02*
X48260000Y-60325000D01*
X42164000Y-60960000D02*
X42799000Y-60325000D01*
X42164000Y-134683500D02*
X42164000Y-60960000D01*
X42799000Y-135318500D02*
X42164000Y-134683500D01*
X48260000Y-135318500D02*
X42799000Y-135318500D01*
X48260000Y-140335000D02*
X48260000Y-135318500D01*
X48895000Y-140970000D02*
X48260000Y-140335000D01*
X147955000Y-140970000D02*
X48895000Y-140970000D01*
M02*
