%TF.GenerationSoftware,KiCad,Pcbnew,(5.1.6-0-10_14)*%
%TF.CreationDate,2020-10-11T14:21:30+01:00*%
%TF.ProjectId,ActiveMixerPedalWithDigitalPeakDetector,41637469-7665-44d6-9978-657250656461,rev?*%
%TF.SameCoordinates,Original*%
%TF.FileFunction,Copper,L2,Bot*%
%TF.FilePolarity,Positive*%
%FSLAX46Y46*%
G04 Gerber Fmt 4.6, Leading zero omitted, Abs format (unit mm)*
G04 Created by KiCad (PCBNEW (5.1.6-0-10_14)) date 2020-10-11 14:21:30*
%MOMM*%
%LPD*%
G01*
G04 APERTURE LIST*
%TA.AperFunction,Profile*%
%ADD10C,0.050000*%
%TD*%
%TA.AperFunction,ComponentPad*%
%ADD11C,6.000000*%
%TD*%
%TA.AperFunction,ComponentPad*%
%ADD12C,0.800000*%
%TD*%
%TA.AperFunction,NonConductor*%
%ADD13C,0.254000*%
%TD*%
G04 APERTURE END LIST*
D10*
X148590000Y-140335000D02*
X147955000Y-140970000D01*
X148590000Y-135255000D02*
X148590000Y-140335000D01*
X154051000Y-135255000D02*
X148590000Y-135255000D01*
X154686000Y-134620000D02*
X154051000Y-135255000D01*
X154686000Y-60960000D02*
X154686000Y-134620000D01*
X154051000Y-60325000D02*
X154686000Y-60960000D01*
X148590000Y-60325000D02*
X154051000Y-60325000D01*
X148590000Y-55181500D02*
X148590000Y-60325000D01*
X147955000Y-54546500D02*
X148590000Y-55181500D01*
X48895000Y-54546500D02*
X147955000Y-54546500D01*
X48260000Y-55181500D02*
X48895000Y-54546500D01*
X48260000Y-60325000D02*
X48260000Y-55181500D01*
X42799000Y-60325000D02*
X48260000Y-60325000D01*
X42164000Y-60960000D02*
X42799000Y-60325000D01*
X42164000Y-134683500D02*
X42164000Y-60960000D01*
X42799000Y-135318500D02*
X42164000Y-134683500D01*
X48260000Y-135318500D02*
X42799000Y-135318500D01*
X48260000Y-140335000D02*
X48260000Y-135318500D01*
X48895000Y-140970000D02*
X48260000Y-140335000D01*
X147955000Y-140970000D02*
X48895000Y-140970000D01*
D11*
%TO.P,REF\u002A\u002A,1*%
%TO.N,N/C*%
X142240000Y-134620000D03*
D12*
X144490000Y-134620000D03*
X143830990Y-136210990D03*
X142240000Y-136870000D03*
X140649010Y-136210990D03*
X139990000Y-134620000D03*
X140649010Y-133029010D03*
X142240000Y-132370000D03*
X143830990Y-133029010D03*
%TD*%
D11*
%TO.P,REF\u002A\u002A,1*%
%TO.N,N/C*%
X54610000Y-134620000D03*
D12*
X56860000Y-134620000D03*
X56200990Y-136210990D03*
X54610000Y-136870000D03*
X53019010Y-136210990D03*
X52360000Y-134620000D03*
X53019010Y-133029010D03*
X54610000Y-132370000D03*
X56200990Y-133029010D03*
%TD*%
D11*
%TO.P,REF\u002A\u002A,1*%
%TO.N,N/C*%
X142240000Y-60960000D03*
D12*
X144490000Y-60960000D03*
X143830990Y-62550990D03*
X142240000Y-63210000D03*
X140649010Y-62550990D03*
X139990000Y-60960000D03*
X140649010Y-59369010D03*
X142240000Y-58710000D03*
X143830990Y-59369010D03*
%TD*%
%TO.P,REF\u002A\u002A,1*%
%TO.N,N/C*%
X56200990Y-59369010D03*
X54610000Y-58710000D03*
X53019010Y-59369010D03*
X52360000Y-60960000D03*
X53019010Y-62550990D03*
X54610000Y-63210000D03*
X56200990Y-62550990D03*
X56860000Y-60960000D03*
D11*
X54610000Y-60960000D03*
%TD*%
D13*
G36*
X147930000Y-55454881D02*
G01*
X147930001Y-60292571D01*
X147926807Y-60325000D01*
X147939550Y-60454383D01*
X147977290Y-60578793D01*
X148038575Y-60693450D01*
X148121052Y-60793948D01*
X148221550Y-60876425D01*
X148336207Y-60937710D01*
X148460617Y-60975450D01*
X148557581Y-60985000D01*
X148590000Y-60988193D01*
X148622419Y-60985000D01*
X153777620Y-60985000D01*
X154026000Y-61233381D01*
X154026001Y-134346618D01*
X153777620Y-134595000D01*
X148622419Y-134595000D01*
X148590000Y-134591807D01*
X148557581Y-134595000D01*
X148460617Y-134604550D01*
X148336207Y-134642290D01*
X148221550Y-134703575D01*
X148121052Y-134786052D01*
X148038575Y-134886550D01*
X147977290Y-135001207D01*
X147939550Y-135125617D01*
X147926807Y-135255000D01*
X147930000Y-135287419D01*
X147930001Y-140061618D01*
X147681620Y-140310000D01*
X49168381Y-140310000D01*
X48920000Y-140061620D01*
X48920000Y-135350919D01*
X48923193Y-135318500D01*
X48910450Y-135189117D01*
X48872710Y-135064707D01*
X48811425Y-134950050D01*
X48728948Y-134849552D01*
X48628450Y-134767075D01*
X48513793Y-134705790D01*
X48389383Y-134668050D01*
X48292419Y-134658500D01*
X48260000Y-134655307D01*
X48227581Y-134658500D01*
X43072381Y-134658500D01*
X42824000Y-134410120D01*
X42824000Y-134261984D01*
X50975000Y-134261984D01*
X50975000Y-134978016D01*
X51114691Y-135680290D01*
X51388705Y-136341818D01*
X51786511Y-136937177D01*
X52292823Y-137443489D01*
X52888182Y-137841295D01*
X53549710Y-138115309D01*
X54251984Y-138255000D01*
X54968016Y-138255000D01*
X55670290Y-138115309D01*
X56331818Y-137841295D01*
X56927177Y-137443489D01*
X57433489Y-136937177D01*
X57831295Y-136341818D01*
X58105309Y-135680290D01*
X58245000Y-134978016D01*
X58245000Y-134261984D01*
X138605000Y-134261984D01*
X138605000Y-134978016D01*
X138744691Y-135680290D01*
X139018705Y-136341818D01*
X139416511Y-136937177D01*
X139922823Y-137443489D01*
X140518182Y-137841295D01*
X141179710Y-138115309D01*
X141881984Y-138255000D01*
X142598016Y-138255000D01*
X143300290Y-138115309D01*
X143961818Y-137841295D01*
X144557177Y-137443489D01*
X145063489Y-136937177D01*
X145461295Y-136341818D01*
X145735309Y-135680290D01*
X145875000Y-134978016D01*
X145875000Y-134261984D01*
X145735309Y-133559710D01*
X145461295Y-132898182D01*
X145063489Y-132302823D01*
X144557177Y-131796511D01*
X143961818Y-131398705D01*
X143300290Y-131124691D01*
X142598016Y-130985000D01*
X141881984Y-130985000D01*
X141179710Y-131124691D01*
X140518182Y-131398705D01*
X139922823Y-131796511D01*
X139416511Y-132302823D01*
X139018705Y-132898182D01*
X138744691Y-133559710D01*
X138605000Y-134261984D01*
X58245000Y-134261984D01*
X58105309Y-133559710D01*
X57831295Y-132898182D01*
X57433489Y-132302823D01*
X56927177Y-131796511D01*
X56331818Y-131398705D01*
X55670290Y-131124691D01*
X54968016Y-130985000D01*
X54251984Y-130985000D01*
X53549710Y-131124691D01*
X52888182Y-131398705D01*
X52292823Y-131796511D01*
X51786511Y-132302823D01*
X51388705Y-132898182D01*
X51114691Y-133559710D01*
X50975000Y-134261984D01*
X42824000Y-134261984D01*
X42824000Y-61233380D01*
X43072381Y-60985000D01*
X48227581Y-60985000D01*
X48260000Y-60988193D01*
X48292419Y-60985000D01*
X48389383Y-60975450D01*
X48513793Y-60937710D01*
X48628450Y-60876425D01*
X48728948Y-60793948D01*
X48811425Y-60693450D01*
X48860314Y-60601984D01*
X50975000Y-60601984D01*
X50975000Y-61318016D01*
X51114691Y-62020290D01*
X51388705Y-62681818D01*
X51786511Y-63277177D01*
X52292823Y-63783489D01*
X52888182Y-64181295D01*
X53549710Y-64455309D01*
X54251984Y-64595000D01*
X54968016Y-64595000D01*
X55670290Y-64455309D01*
X56331818Y-64181295D01*
X56927177Y-63783489D01*
X57433489Y-63277177D01*
X57831295Y-62681818D01*
X58105309Y-62020290D01*
X58245000Y-61318016D01*
X58245000Y-60601984D01*
X138605000Y-60601984D01*
X138605000Y-61318016D01*
X138744691Y-62020290D01*
X139018705Y-62681818D01*
X139416511Y-63277177D01*
X139922823Y-63783489D01*
X140518182Y-64181295D01*
X141179710Y-64455309D01*
X141881984Y-64595000D01*
X142598016Y-64595000D01*
X143300290Y-64455309D01*
X143961818Y-64181295D01*
X144557177Y-63783489D01*
X145063489Y-63277177D01*
X145461295Y-62681818D01*
X145735309Y-62020290D01*
X145875000Y-61318016D01*
X145875000Y-60601984D01*
X145735309Y-59899710D01*
X145461295Y-59238182D01*
X145063489Y-58642823D01*
X144557177Y-58136511D01*
X143961818Y-57738705D01*
X143300290Y-57464691D01*
X142598016Y-57325000D01*
X141881984Y-57325000D01*
X141179710Y-57464691D01*
X140518182Y-57738705D01*
X139922823Y-58136511D01*
X139416511Y-58642823D01*
X139018705Y-59238182D01*
X138744691Y-59899710D01*
X138605000Y-60601984D01*
X58245000Y-60601984D01*
X58105309Y-59899710D01*
X57831295Y-59238182D01*
X57433489Y-58642823D01*
X56927177Y-58136511D01*
X56331818Y-57738705D01*
X55670290Y-57464691D01*
X54968016Y-57325000D01*
X54251984Y-57325000D01*
X53549710Y-57464691D01*
X52888182Y-57738705D01*
X52292823Y-58136511D01*
X51786511Y-58642823D01*
X51388705Y-59238182D01*
X51114691Y-59899710D01*
X50975000Y-60601984D01*
X48860314Y-60601984D01*
X48872710Y-60578793D01*
X48910450Y-60454383D01*
X48923193Y-60325000D01*
X48920000Y-60292581D01*
X48920000Y-55454880D01*
X49168381Y-55206500D01*
X147681620Y-55206500D01*
X147930000Y-55454881D01*
G37*
X147930000Y-55454881D02*
X147930001Y-60292571D01*
X147926807Y-60325000D01*
X147939550Y-60454383D01*
X147977290Y-60578793D01*
X148038575Y-60693450D01*
X148121052Y-60793948D01*
X148221550Y-60876425D01*
X148336207Y-60937710D01*
X148460617Y-60975450D01*
X148557581Y-60985000D01*
X148590000Y-60988193D01*
X148622419Y-60985000D01*
X153777620Y-60985000D01*
X154026000Y-61233381D01*
X154026001Y-134346618D01*
X153777620Y-134595000D01*
X148622419Y-134595000D01*
X148590000Y-134591807D01*
X148557581Y-134595000D01*
X148460617Y-134604550D01*
X148336207Y-134642290D01*
X148221550Y-134703575D01*
X148121052Y-134786052D01*
X148038575Y-134886550D01*
X147977290Y-135001207D01*
X147939550Y-135125617D01*
X147926807Y-135255000D01*
X147930000Y-135287419D01*
X147930001Y-140061618D01*
X147681620Y-140310000D01*
X49168381Y-140310000D01*
X48920000Y-140061620D01*
X48920000Y-135350919D01*
X48923193Y-135318500D01*
X48910450Y-135189117D01*
X48872710Y-135064707D01*
X48811425Y-134950050D01*
X48728948Y-134849552D01*
X48628450Y-134767075D01*
X48513793Y-134705790D01*
X48389383Y-134668050D01*
X48292419Y-134658500D01*
X48260000Y-134655307D01*
X48227581Y-134658500D01*
X43072381Y-134658500D01*
X42824000Y-134410120D01*
X42824000Y-134261984D01*
X50975000Y-134261984D01*
X50975000Y-134978016D01*
X51114691Y-135680290D01*
X51388705Y-136341818D01*
X51786511Y-136937177D01*
X52292823Y-137443489D01*
X52888182Y-137841295D01*
X53549710Y-138115309D01*
X54251984Y-138255000D01*
X54968016Y-138255000D01*
X55670290Y-138115309D01*
X56331818Y-137841295D01*
X56927177Y-137443489D01*
X57433489Y-136937177D01*
X57831295Y-136341818D01*
X58105309Y-135680290D01*
X58245000Y-134978016D01*
X58245000Y-134261984D01*
X138605000Y-134261984D01*
X138605000Y-134978016D01*
X138744691Y-135680290D01*
X139018705Y-136341818D01*
X139416511Y-136937177D01*
X139922823Y-137443489D01*
X140518182Y-137841295D01*
X141179710Y-138115309D01*
X141881984Y-138255000D01*
X142598016Y-138255000D01*
X143300290Y-138115309D01*
X143961818Y-137841295D01*
X144557177Y-137443489D01*
X145063489Y-136937177D01*
X145461295Y-136341818D01*
X145735309Y-135680290D01*
X145875000Y-134978016D01*
X145875000Y-134261984D01*
X145735309Y-133559710D01*
X145461295Y-132898182D01*
X145063489Y-132302823D01*
X144557177Y-131796511D01*
X143961818Y-131398705D01*
X143300290Y-131124691D01*
X142598016Y-130985000D01*
X141881984Y-130985000D01*
X141179710Y-131124691D01*
X140518182Y-131398705D01*
X139922823Y-131796511D01*
X139416511Y-132302823D01*
X139018705Y-132898182D01*
X138744691Y-133559710D01*
X138605000Y-134261984D01*
X58245000Y-134261984D01*
X58105309Y-133559710D01*
X57831295Y-132898182D01*
X57433489Y-132302823D01*
X56927177Y-131796511D01*
X56331818Y-131398705D01*
X55670290Y-131124691D01*
X54968016Y-130985000D01*
X54251984Y-130985000D01*
X53549710Y-131124691D01*
X52888182Y-131398705D01*
X52292823Y-131796511D01*
X51786511Y-132302823D01*
X51388705Y-132898182D01*
X51114691Y-133559710D01*
X50975000Y-134261984D01*
X42824000Y-134261984D01*
X42824000Y-61233380D01*
X43072381Y-60985000D01*
X48227581Y-60985000D01*
X48260000Y-60988193D01*
X48292419Y-60985000D01*
X48389383Y-60975450D01*
X48513793Y-60937710D01*
X48628450Y-60876425D01*
X48728948Y-60793948D01*
X48811425Y-60693450D01*
X48860314Y-60601984D01*
X50975000Y-60601984D01*
X50975000Y-61318016D01*
X51114691Y-62020290D01*
X51388705Y-62681818D01*
X51786511Y-63277177D01*
X52292823Y-63783489D01*
X52888182Y-64181295D01*
X53549710Y-64455309D01*
X54251984Y-64595000D01*
X54968016Y-64595000D01*
X55670290Y-64455309D01*
X56331818Y-64181295D01*
X56927177Y-63783489D01*
X57433489Y-63277177D01*
X57831295Y-62681818D01*
X58105309Y-62020290D01*
X58245000Y-61318016D01*
X58245000Y-60601984D01*
X138605000Y-60601984D01*
X138605000Y-61318016D01*
X138744691Y-62020290D01*
X139018705Y-62681818D01*
X139416511Y-63277177D01*
X139922823Y-63783489D01*
X140518182Y-64181295D01*
X141179710Y-64455309D01*
X141881984Y-64595000D01*
X142598016Y-64595000D01*
X143300290Y-64455309D01*
X143961818Y-64181295D01*
X144557177Y-63783489D01*
X145063489Y-63277177D01*
X145461295Y-62681818D01*
X145735309Y-62020290D01*
X145875000Y-61318016D01*
X145875000Y-60601984D01*
X145735309Y-59899710D01*
X145461295Y-59238182D01*
X145063489Y-58642823D01*
X144557177Y-58136511D01*
X143961818Y-57738705D01*
X143300290Y-57464691D01*
X142598016Y-57325000D01*
X141881984Y-57325000D01*
X141179710Y-57464691D01*
X140518182Y-57738705D01*
X139922823Y-58136511D01*
X139416511Y-58642823D01*
X139018705Y-59238182D01*
X138744691Y-59899710D01*
X138605000Y-60601984D01*
X58245000Y-60601984D01*
X58105309Y-59899710D01*
X57831295Y-59238182D01*
X57433489Y-58642823D01*
X56927177Y-58136511D01*
X56331818Y-57738705D01*
X55670290Y-57464691D01*
X54968016Y-57325000D01*
X54251984Y-57325000D01*
X53549710Y-57464691D01*
X52888182Y-57738705D01*
X52292823Y-58136511D01*
X51786511Y-58642823D01*
X51388705Y-59238182D01*
X51114691Y-59899710D01*
X50975000Y-60601984D01*
X48860314Y-60601984D01*
X48872710Y-60578793D01*
X48910450Y-60454383D01*
X48923193Y-60325000D01*
X48920000Y-60292581D01*
X48920000Y-55454880D01*
X49168381Y-55206500D01*
X147681620Y-55206500D01*
X147930000Y-55454881D01*
M02*
