M48
; DRILL file {KiCad (5.1.6-0-10_14)} date Sunday, October 11, 2020 at 02:21:33 PM
; FORMAT={-:-/ absolute / inch / decimal}
; #@! TF.CreationDate,2020-10-11T14:21:33+01:00
; #@! TF.GenerationSoftware,Kicad,Pcbnew,(5.1.6-0-10_14)
; #@! TF.FileFunction,Plated,1,2,PTH
FMAT,2
INCH
T1C0.0197
T2C0.1181
%
G90
G05
T1
X5.5114Y-2.4
X5.5374Y-2.3374
X5.5374Y-2.4626
X5.6Y-2.3114
X5.6Y-2.4886
X5.6626Y-2.3374
X5.6626Y-2.4626
X5.6886Y-2.4
X2.0614Y-2.4
X2.0874Y-2.3374
X2.0874Y-2.4626
X2.15Y-2.3114
X2.15Y-2.4886
X2.2126Y-2.3374
X2.2126Y-2.4626
X2.2386Y-2.4
X2.0614Y-5.3
X2.0874Y-5.2374
X2.0874Y-5.3626
X2.15Y-5.2114
X2.15Y-5.3886
X2.2126Y-5.2374
X2.2126Y-5.3626
X2.2386Y-5.3
X5.5114Y-5.3
X5.5374Y-5.2374
X5.5374Y-5.3626
X5.6Y-5.2114
X5.6Y-5.3886
X5.6626Y-5.2374
X5.6626Y-5.3626
X5.6886Y-5.3
T2
X5.6Y-2.4
X2.15Y-2.4
X2.15Y-5.3
X5.6Y-5.3
T0
M30
