%TF.GenerationSoftware,KiCad,Pcbnew,(5.1.6-0-10_14)*%
%TF.CreationDate,2020-10-11T14:21:30+01:00*%
%TF.ProjectId,ActiveMixerPedalWithDigitalPeakDetector,41637469-7665-44d6-9978-657250656461,rev?*%
%TF.SameCoordinates,Original*%
%TF.FileFunction,Copper,L1,Top*%
%TF.FilePolarity,Positive*%
%FSLAX46Y46*%
G04 Gerber Fmt 4.6, Leading zero omitted, Abs format (unit mm)*
G04 Created by KiCad (PCBNEW (5.1.6-0-10_14)) date 2020-10-11 14:21:30*
%MOMM*%
%LPD*%
G01*
G04 APERTURE LIST*
%TA.AperFunction,Profile*%
%ADD10C,0.050000*%
%TD*%
%TA.AperFunction,ComponentPad*%
%ADD11C,6.000000*%
%TD*%
%TA.AperFunction,ComponentPad*%
%ADD12C,0.800000*%
%TD*%
G04 APERTURE END LIST*
D10*
X148590000Y-140335000D02*
X147955000Y-140970000D01*
X148590000Y-135255000D02*
X148590000Y-140335000D01*
X154051000Y-135255000D02*
X148590000Y-135255000D01*
X154686000Y-134620000D02*
X154051000Y-135255000D01*
X154686000Y-60960000D02*
X154686000Y-134620000D01*
X154051000Y-60325000D02*
X154686000Y-60960000D01*
X148590000Y-60325000D02*
X154051000Y-60325000D01*
X148590000Y-55181500D02*
X148590000Y-60325000D01*
X147955000Y-54546500D02*
X148590000Y-55181500D01*
X48895000Y-54546500D02*
X147955000Y-54546500D01*
X48260000Y-55181500D02*
X48895000Y-54546500D01*
X48260000Y-60325000D02*
X48260000Y-55181500D01*
X42799000Y-60325000D02*
X48260000Y-60325000D01*
X42164000Y-60960000D02*
X42799000Y-60325000D01*
X42164000Y-134683500D02*
X42164000Y-60960000D01*
X42799000Y-135318500D02*
X42164000Y-134683500D01*
X48260000Y-135318500D02*
X42799000Y-135318500D01*
X48260000Y-140335000D02*
X48260000Y-135318500D01*
X48895000Y-140970000D02*
X48260000Y-140335000D01*
X147955000Y-140970000D02*
X48895000Y-140970000D01*
D11*
%TO.P,REF\u002A\u002A,1*%
%TO.N,N/C*%
X142240000Y-134620000D03*
D12*
X144490000Y-134620000D03*
X143830990Y-136210990D03*
X142240000Y-136870000D03*
X140649010Y-136210990D03*
X139990000Y-134620000D03*
X140649010Y-133029010D03*
X142240000Y-132370000D03*
X143830990Y-133029010D03*
%TD*%
D11*
%TO.P,REF\u002A\u002A,1*%
%TO.N,N/C*%
X54610000Y-134620000D03*
D12*
X56860000Y-134620000D03*
X56200990Y-136210990D03*
X54610000Y-136870000D03*
X53019010Y-136210990D03*
X52360000Y-134620000D03*
X53019010Y-133029010D03*
X54610000Y-132370000D03*
X56200990Y-133029010D03*
%TD*%
D11*
%TO.P,REF\u002A\u002A,1*%
%TO.N,N/C*%
X142240000Y-60960000D03*
D12*
X144490000Y-60960000D03*
X143830990Y-62550990D03*
X142240000Y-63210000D03*
X140649010Y-62550990D03*
X139990000Y-60960000D03*
X140649010Y-59369010D03*
X142240000Y-58710000D03*
X143830990Y-59369010D03*
%TD*%
%TO.P,REF\u002A\u002A,1*%
%TO.N,N/C*%
X56200990Y-59369010D03*
X54610000Y-58710000D03*
X53019010Y-59369010D03*
X52360000Y-60960000D03*
X53019010Y-62550990D03*
X54610000Y-63210000D03*
X56200990Y-62550990D03*
X56860000Y-60960000D03*
D11*
X54610000Y-60960000D03*
%TD*%
M02*
