<?xml version="1.0" standalone="no"?>
 <!DOCTYPE svg PUBLIC "-//W3C//DTD SVG 1.1//EN" 
 "http://www.w3.org/Graphics/SVG/1.1/DTD/svg11.dtd"> 
<svg
  xmlns:svg="http://www.w3.org/2000/svg"
  xmlns="http://www.w3.org/2000/svg"
  xmlns:xlink="http://www.w3.org/1999/xlink"
  version="1.1"
  width="21.000720cm" height="29.700220cm" viewBox="0 0 82680 116930">
<title>SVG Picture created as ActiveMixerPedalWithDigitalPeakDetector-brd.svg date 2020/10/10 05:41:06 </title>
  <desc>Picture generated by PCBNEW </desc>
<g style="fill:#000000; fill-opacity:1;stroke:#000000; stroke-opacity:1;
stroke-linecap:round; stroke-linejoin:round;"
 transform="translate(0 0) scale(1 1)">
</g>
<g style="fill:#000000; fill-opacity:0.0; 
stroke:#000000; stroke-width:-0.000393701; stroke-opacity:1; 
stroke-linecap:round; stroke-linejoin:round;">
</g>
<g style="fill:#000000; fill-opacity:0.0; 
stroke:#000000; stroke-width:39.3701; stroke-opacity:1; 
stroke-linecap:round; stroke-linejoin:round;">
</g>
<g style="fill:#000000; fill-opacity:0.0; 
stroke:#000000; stroke-width:59.0551; stroke-opacity:1; 
stroke-linecap:round; stroke-linejoin:round;">
<rect x="35435.9" y="99607.2" width="42519.7" height="12598.4" rx="0" />
</g>
<g style="fill:#000000; fill-opacity:0.0; 
stroke:#000000; stroke-width:39.3701; stroke-opacity:1; 
stroke-linecap:round; stroke-linejoin:round;">
</g>
<g style="fill:#000000; fill-opacity:0.0; 
stroke:#000000; stroke-width:59.0551; stroke-opacity:1; 
stroke-linecap:round; stroke-linejoin:round;">
<rect x="3937.01" y="3937.01" width="74806" height="109056" rx="0" />
</g>
<g style="fill:#000000; fill-opacity:0.0; 
stroke:#000000; stroke-width:39.3701; stroke-opacity:1; 
stroke-linecap:round; stroke-linejoin:round;">
</g>
<g style="fill:#000000; fill-opacity:0.0; 
stroke:#000000; stroke-width:59.0551; stroke-opacity:1; 
stroke-linecap:round; stroke-linejoin:round;">
<rect x="4724.41" y="4724.41" width="73231.2" height="107481" rx="0" />
</g>
<g style="fill:#000000; fill-opacity:0.0; 
stroke:#000000; stroke-width:39.3701; stroke-opacity:1; 
stroke-linecap:round; stroke-linejoin:round;">
</g>
<g style="fill:#000000; fill-opacity:0.0; 
stroke:#000000; stroke-width:59.0551; stroke-opacity:1; 
stroke-linecap:round; stroke-linejoin:round;">
<path d="M23622 4724
L23622 3937
" />
</g>
<g style="fill:#000000; fill-opacity:0.0; 
stroke:#000000; stroke-width:39.3701; stroke-opacity:1; 
stroke-linecap:round; stroke-linejoin:round;">
</g>
<g style="fill:#000000; fill-opacity:0.0; 
stroke:#000000; stroke-width:59.0551; stroke-opacity:1; 
stroke-linecap:round; stroke-linejoin:round;">
<path d="M43307 4724
L43307 3937
" />
</g>
<g style="fill:#000000; fill-opacity:0.0; 
stroke:#000000; stroke-width:39.3701; stroke-opacity:1; 
stroke-linecap:round; stroke-linejoin:round;">
</g>
<g style="fill:#000000; fill-opacity:0.0; 
stroke:#000000; stroke-width:59.0551; stroke-opacity:1; 
stroke-linecap:round; stroke-linejoin:round;">
<path d="M62992 4724
L62992 3937
" />
</g>
<g style="fill:#000000; fill-opacity:0.0; 
stroke:#000000; stroke-width:39.3701; stroke-opacity:1; 
stroke-linecap:round; stroke-linejoin:round;">
</g>
<g style="fill:#000000; fill-opacity:0.0; 
stroke:#000000; stroke-width:59.0551; stroke-opacity:1; 
stroke-linecap:round; stroke-linejoin:round;">
<text x="13779.5" y="4586.61"
textLength="487.439" font-size="682.415" lengthAdjust="spacingAndGlyphs"
text-anchor="start" opacity="0">1</text>
<path d="M14199 4562
L13906 4562
" />
<path d="M14052 4562
L14052 4050
L14004 4123
L13955 4172
L13906 4196
" />
</g>
<g style="fill:#000000; fill-opacity:0.0; 
stroke:#000000; stroke-width:39.3701; stroke-opacity:1; 
stroke-linecap:round; stroke-linejoin:round;">
</g>
<g style="fill:#000000; fill-opacity:0.0; 
stroke:#000000; stroke-width:59.0551; stroke-opacity:1; 
stroke-linecap:round; stroke-linejoin:round;">
<text x="33464.6" y="4586.61"
textLength="546.494" font-size="682.415" lengthAdjust="spacingAndGlyphs"
text-anchor="start" opacity="0">2</text>
<path d="M33591 4099
L33615 4074
L33664 4050
L33786 4050
L33835 4074
L33859 4099
L33884 4147
L33884 4196
L33859 4269
L33567 4562
L33884 4562
" />
</g>
<g style="fill:#000000; fill-opacity:0.0; 
stroke:#000000; stroke-width:39.3701; stroke-opacity:1; 
stroke-linecap:round; stroke-linejoin:round;">
</g>
<g style="fill:#000000; fill-opacity:0.0; 
stroke:#000000; stroke-width:59.0551; stroke-opacity:1; 
stroke-linecap:round; stroke-linejoin:round;">
<text x="53149.6" y="4586.61"
textLength="546.494" font-size="682.415" lengthAdjust="spacingAndGlyphs"
text-anchor="start" opacity="0">3</text>
<path d="M53252 4050
L53569 4050
L53398 4245
L53471 4245
L53520 4269
L53544 4294
L53569 4342
L53569 4464
L53544 4513
L53520 4537
L53471 4562
L53325 4562
L53276 4537
L53252 4513
" />
</g>
<g style="fill:#000000; fill-opacity:0.0; 
stroke:#000000; stroke-width:39.3701; stroke-opacity:1; 
stroke-linecap:round; stroke-linejoin:round;">
</g>
<g style="fill:#000000; fill-opacity:0.0; 
stroke:#000000; stroke-width:59.0551; stroke-opacity:1; 
stroke-linecap:round; stroke-linejoin:round;">
<text x="72834.6" y="4586.61"
textLength="546.494" font-size="682.415" lengthAdjust="spacingAndGlyphs"
text-anchor="start" opacity="0">4</text>
<path d="M73205 4221
L73205 4562
" />
<path d="M73083 4026
L72961 4391
L73278 4391
" />
</g>
<g style="fill:#000000; fill-opacity:0.0; 
stroke:#000000; stroke-width:39.3701; stroke-opacity:1; 
stroke-linecap:round; stroke-linejoin:round;">
</g>
<g style="fill:#000000; fill-opacity:0.0; 
stroke:#000000; stroke-width:59.0551; stroke-opacity:1; 
stroke-linecap:round; stroke-linejoin:round;">
<path d="M23622 112205
L23622 112992
" />
</g>
<g style="fill:#000000; fill-opacity:0.0; 
stroke:#000000; stroke-width:39.3701; stroke-opacity:1; 
stroke-linecap:round; stroke-linejoin:round;">
</g>
<g style="fill:#000000; fill-opacity:0.0; 
stroke:#000000; stroke-width:59.0551; stroke-opacity:1; 
stroke-linecap:round; stroke-linejoin:round;">
<path d="M43307 112205
L43307 112992
" />
</g>
<g style="fill:#000000; fill-opacity:0.0; 
stroke:#000000; stroke-width:39.3701; stroke-opacity:1; 
stroke-linecap:round; stroke-linejoin:round;">
</g>
<g style="fill:#000000; fill-opacity:0.0; 
stroke:#000000; stroke-width:59.0551; stroke-opacity:1; 
stroke-linecap:round; stroke-linejoin:round;">
<path d="M62992 112205
L62992 112992
" />
</g>
<g style="fill:#000000; fill-opacity:0.0; 
stroke:#000000; stroke-width:39.3701; stroke-opacity:1; 
stroke-linecap:round; stroke-linejoin:round;">
</g>
<g style="fill:#000000; fill-opacity:0.0; 
stroke:#000000; stroke-width:59.0551; stroke-opacity:1; 
stroke-linecap:round; stroke-linejoin:round;">
<text x="13779.5" y="112855"
textLength="546.494" font-size="682.415" lengthAdjust="spacingAndGlyphs"
text-anchor="start" opacity="0">1</text>
<path d="M14199 112830
L13906 112830
" />
<path d="M14052 112830
L14052 112319
L14004 112392
L13955 112440
L13906 112465
" />
</g>
<g style="fill:#000000; fill-opacity:0.0; 
stroke:#000000; stroke-width:39.3701; stroke-opacity:1; 
stroke-linecap:round; stroke-linejoin:round;">
</g>
<g style="fill:#000000; fill-opacity:0.0; 
stroke:#000000; stroke-width:59.0551; stroke-opacity:1; 
stroke-linecap:round; stroke-linejoin:round;">
<text x="33464.6" y="112855"
textLength="546.494" font-size="682.415" lengthAdjust="spacingAndGlyphs"
text-anchor="start" opacity="0">2</text>
<path d="M33591 112367
L33615 112343
L33664 112319
L33786 112319
L33835 112343
L33859 112367
L33884 112416
L33884 112465
L33859 112538
L33567 112830
L33884 112830
" />
</g>
<g style="fill:#000000; fill-opacity:0.0; 
stroke:#000000; stroke-width:39.3701; stroke-opacity:1; 
stroke-linecap:round; stroke-linejoin:round;">
</g>
<g style="fill:#000000; fill-opacity:0.0; 
stroke:#000000; stroke-width:59.0551; stroke-opacity:1; 
stroke-linecap:round; stroke-linejoin:round;">
<text x="53149.6" y="112855"
textLength="546.494" font-size="682.415" lengthAdjust="spacingAndGlyphs"
text-anchor="start" opacity="0">3</text>
<path d="M53252 112319
L53569 112319
L53398 112513
L53471 112513
L53520 112538
L53544 112562
L53569 112611
L53569 112733
L53544 112782
L53520 112806
L53471 112830
L53325 112830
L53276 112806
L53252 112782
" />
</g>
<g style="fill:#000000; fill-opacity:0.0; 
stroke:#000000; stroke-width:39.3701; stroke-opacity:1; 
stroke-linecap:round; stroke-linejoin:round;">
</g>
<g style="fill:#000000; fill-opacity:0.0; 
stroke:#000000; stroke-width:59.0551; stroke-opacity:1; 
stroke-linecap:round; stroke-linejoin:round;">
<text x="72834.6" y="112855"
textLength="546.494" font-size="682.415" lengthAdjust="spacingAndGlyphs"
text-anchor="start" opacity="0">4</text>
<path d="M73205 112489
L73205 112830
" />
<path d="M73083 112294
L72961 112660
L73278 112660
" />
</g>
<g style="fill:#000000; fill-opacity:0.0; 
stroke:#000000; stroke-width:39.3701; stroke-opacity:1; 
stroke-linecap:round; stroke-linejoin:round;">
</g>
<g style="fill:#000000; fill-opacity:0.0; 
stroke:#000000; stroke-width:59.0551; stroke-opacity:1; 
stroke-linecap:round; stroke-linejoin:round;">
<path d="M3937 23622
L4724 23622
" />
</g>
<g style="fill:#000000; fill-opacity:0.0; 
stroke:#000000; stroke-width:39.3701; stroke-opacity:1; 
stroke-linecap:round; stroke-linejoin:round;">
</g>
<g style="fill:#000000; fill-opacity:0.0; 
stroke:#000000; stroke-width:59.0551; stroke-opacity:1; 
stroke-linecap:round; stroke-linejoin:round;">
<path d="M3937 43307
L4724 43307
" />
</g>
<g style="fill:#000000; fill-opacity:0.0; 
stroke:#000000; stroke-width:39.3701; stroke-opacity:1; 
stroke-linecap:round; stroke-linejoin:round;">
</g>
<g style="fill:#000000; fill-opacity:0.0; 
stroke:#000000; stroke-width:59.0551; stroke-opacity:1; 
stroke-linecap:round; stroke-linejoin:round;">
<path d="M3937 62992
L4724 62992
" />
</g>
<g style="fill:#000000; fill-opacity:0.0; 
stroke:#000000; stroke-width:39.3701; stroke-opacity:1; 
stroke-linecap:round; stroke-linejoin:round;">
</g>
<g style="fill:#000000; fill-opacity:0.0; 
stroke:#000000; stroke-width:59.0551; stroke-opacity:1; 
stroke-linecap:round; stroke-linejoin:round;">
<path d="M3937 82677
L4724 82677
" />
</g>
<g style="fill:#000000; fill-opacity:0.0; 
stroke:#000000; stroke-width:39.3701; stroke-opacity:1; 
stroke-linecap:round; stroke-linejoin:round;">
</g>
<g style="fill:#000000; fill-opacity:0.0; 
stroke:#000000; stroke-width:59.0551; stroke-opacity:1; 
stroke-linecap:round; stroke-linejoin:round;">
<path d="M3937 102362
L4724 102362
" />
</g>
<g style="fill:#000000; fill-opacity:0.0; 
stroke:#000000; stroke-width:39.3701; stroke-opacity:1; 
stroke-linecap:round; stroke-linejoin:round;">
</g>
<g style="fill:#000000; fill-opacity:0.0; 
stroke:#000000; stroke-width:59.0551; stroke-opacity:1; 
stroke-linecap:round; stroke-linejoin:round;">
<text x="4330.71" y="14035.4"
textLength="497.75" font-size="682.415" lengthAdjust="spacingAndGlyphs"
text-anchor="middle" opacity="0">A</text>
<path d="M4208 13864
L4452 13864
" />
<path d="M4160 14011
L4330 13499
L4501 14011
" />
</g>
<g style="fill:#000000; fill-opacity:0.0; 
stroke:#000000; stroke-width:39.3701; stroke-opacity:1; 
stroke-linecap:round; stroke-linejoin:round;">
</g>
<g style="fill:#000000; fill-opacity:0.0; 
stroke:#000000; stroke-width:59.0551; stroke-opacity:1; 
stroke-linecap:round; stroke-linejoin:round;">
<text x="4330.71" y="33720.5"
textLength="570.866" font-size="682.415" lengthAdjust="spacingAndGlyphs"
text-anchor="middle" opacity="0">B</text>
<path d="M4367 33428
L4440 33452
L4464 33476
L4489 33525
L4489 33598
L4464 33647
L4440 33671
L4391 33696
L4196 33696
L4196 33184
L4367 33184
L4416 33208
L4440 33233
L4464 33281
L4464 33330
L4440 33379
L4416 33403
L4367 33428
L4196 33428
" />
</g>
<g style="fill:#000000; fill-opacity:0.0; 
stroke:#000000; stroke-width:39.3701; stroke-opacity:1; 
stroke-linecap:round; stroke-linejoin:round;">
</g>
<g style="fill:#000000; fill-opacity:0.0; 
stroke:#000000; stroke-width:59.0551; stroke-opacity:1; 
stroke-linecap:round; stroke-linejoin:round;">
<text x="4330.71" y="53405.5"
textLength="570.866" font-size="682.415" lengthAdjust="spacingAndGlyphs"
text-anchor="middle" opacity="0">C</text>
<path d="M4489 53332
L4464 53356
L4391 53381
L4342 53381
L4269 53356
L4221 53308
L4196 53259
L4172 53161
L4172 53088
L4196 52991
L4221 52942
L4269 52893
L4342 52869
L4391 52869
L4464 52893
L4489 52918
" />
</g>
<g style="fill:#000000; fill-opacity:0.0; 
stroke:#000000; stroke-width:39.3701; stroke-opacity:1; 
stroke-linecap:round; stroke-linejoin:round;">
</g>
<g style="fill:#000000; fill-opacity:0.0; 
stroke:#000000; stroke-width:59.0551; stroke-opacity:1; 
stroke-linecap:round; stroke-linejoin:round;">
<text x="4330.71" y="73090.6"
textLength="570.866" font-size="682.415" lengthAdjust="spacingAndGlyphs"
text-anchor="middle" opacity="0">D</text>
<path d="M4196 73066
L4196 72554
L4318 72554
L4391 72578
L4440 72627
L4464 72676
L4489 72773
L4489 72846
L4464 72944
L4440 72993
L4391 73041
L4318 73066
L4196 73066
" />
</g>
<g style="fill:#000000; fill-opacity:0.0; 
stroke:#000000; stroke-width:39.3701; stroke-opacity:1; 
stroke-linecap:round; stroke-linejoin:round;">
</g>
<g style="fill:#000000; fill-opacity:0.0; 
stroke:#000000; stroke-width:59.0551; stroke-opacity:1; 
stroke-linecap:round; stroke-linejoin:round;">
<text x="4330.71" y="92775.6"
textLength="522.122" font-size="682.415" lengthAdjust="spacingAndGlyphs"
text-anchor="middle" opacity="0">E</text>
<path d="M4221 92483
L4391 92483
" />
<path d="M4464 92751
L4221 92751
L4221 92239
L4464 92239
" />
</g>
<g style="fill:#000000; fill-opacity:0.0; 
stroke:#000000; stroke-width:39.3701; stroke-opacity:1; 
stroke-linecap:round; stroke-linejoin:round;">
</g>
<g style="fill:#000000; fill-opacity:0.0; 
stroke:#000000; stroke-width:59.0551; stroke-opacity:1; 
stroke-linecap:round; stroke-linejoin:round;">
<text x="4330.71" y="112461"
textLength="497.75" font-size="682.415" lengthAdjust="spacingAndGlyphs"
text-anchor="middle" opacity="0">F</text>
<path d="M4403 112168
L4233 112168
" />
<path d="M4233 112436
L4233 111924
L4476 111924
" />
</g>
<g style="fill:#000000; fill-opacity:0.0; 
stroke:#000000; stroke-width:39.3701; stroke-opacity:1; 
stroke-linecap:round; stroke-linejoin:round;">
</g>
<g style="fill:#000000; fill-opacity:0.0; 
stroke:#000000; stroke-width:59.0551; stroke-opacity:1; 
stroke-linecap:round; stroke-linejoin:round;">
<path d="M78742 23622
L77955 23622
" />
</g>
<g style="fill:#000000; fill-opacity:0.0; 
stroke:#000000; stroke-width:39.3701; stroke-opacity:1; 
stroke-linecap:round; stroke-linejoin:round;">
</g>
<g style="fill:#000000; fill-opacity:0.0; 
stroke:#000000; stroke-width:59.0551; stroke-opacity:1; 
stroke-linecap:round; stroke-linejoin:round;">
<path d="M78742 43307
L77955 43307
" />
</g>
<g style="fill:#000000; fill-opacity:0.0; 
stroke:#000000; stroke-width:39.3701; stroke-opacity:1; 
stroke-linecap:round; stroke-linejoin:round;">
</g>
<g style="fill:#000000; fill-opacity:0.0; 
stroke:#000000; stroke-width:59.0551; stroke-opacity:1; 
stroke-linecap:round; stroke-linejoin:round;">
<path d="M78742 62992
L77955 62992
" />
</g>
<g style="fill:#000000; fill-opacity:0.0; 
stroke:#000000; stroke-width:39.3701; stroke-opacity:1; 
stroke-linecap:round; stroke-linejoin:round;">
</g>
<g style="fill:#000000; fill-opacity:0.0; 
stroke:#000000; stroke-width:59.0551; stroke-opacity:1; 
stroke-linecap:round; stroke-linejoin:round;">
<path d="M78742 82677
L77955 82677
" />
</g>
<g style="fill:#000000; fill-opacity:0.0; 
stroke:#000000; stroke-width:39.3701; stroke-opacity:1; 
stroke-linecap:round; stroke-linejoin:round;">
</g>
<g style="fill:#000000; fill-opacity:0.0; 
stroke:#000000; stroke-width:59.0551; stroke-opacity:1; 
stroke-linecap:round; stroke-linejoin:round;">
<path d="M78742 102362
L77955 102362
" />
</g>
<g style="fill:#000000; fill-opacity:0.0; 
stroke:#000000; stroke-width:39.3701; stroke-opacity:1; 
stroke-linecap:round; stroke-linejoin:round;">
</g>
<g style="fill:#000000; fill-opacity:0.0; 
stroke:#000000; stroke-width:59.0551; stroke-opacity:1; 
stroke-linecap:round; stroke-linejoin:round;">
<text x="78349.3" y="14035.4"
textLength="497.75" font-size="682.415" lengthAdjust="spacingAndGlyphs"
text-anchor="middle" opacity="0">A</text>
<path d="M78227 13864
L78471 13864
" />
<path d="M78178 14011
L78349 13499
L78519 14011
" />
</g>
<g style="fill:#000000; fill-opacity:0.0; 
stroke:#000000; stroke-width:39.3701; stroke-opacity:1; 
stroke-linecap:round; stroke-linejoin:round;">
</g>
<g style="fill:#000000; fill-opacity:0.0; 
stroke:#000000; stroke-width:59.0551; stroke-opacity:1; 
stroke-linecap:round; stroke-linejoin:round;">
<text x="78349.3" y="33720.5"
textLength="570.866" font-size="682.415" lengthAdjust="spacingAndGlyphs"
text-anchor="middle" opacity="0">B</text>
<path d="M78385 33428
L78458 33452
L78483 33476
L78507 33525
L78507 33598
L78483 33647
L78458 33671
L78410 33696
L78215 33696
L78215 33184
L78385 33184
L78434 33208
L78458 33233
L78483 33281
L78483 33330
L78458 33379
L78434 33403
L78385 33428
L78215 33428
" />
</g>
<g style="fill:#000000; fill-opacity:0.0; 
stroke:#000000; stroke-width:39.3701; stroke-opacity:1; 
stroke-linecap:round; stroke-linejoin:round;">
</g>
<g style="fill:#000000; fill-opacity:0.0; 
stroke:#000000; stroke-width:59.0551; stroke-opacity:1; 
stroke-linecap:round; stroke-linejoin:round;">
<text x="78349.3" y="53405.5"
textLength="570.866" font-size="682.415" lengthAdjust="spacingAndGlyphs"
text-anchor="middle" opacity="0">C</text>
<path d="M78507 53332
L78483 53356
L78410 53381
L78361 53381
L78288 53356
L78239 53308
L78215 53259
L78190 53161
L78190 53088
L78215 52991
L78239 52942
L78288 52893
L78361 52869
L78410 52869
L78483 52893
L78507 52918
" />
</g>
<g style="fill:#000000; fill-opacity:0.0; 
stroke:#000000; stroke-width:39.3701; stroke-opacity:1; 
stroke-linecap:round; stroke-linejoin:round;">
</g>
<g style="fill:#000000; fill-opacity:0.0; 
stroke:#000000; stroke-width:59.0551; stroke-opacity:1; 
stroke-linecap:round; stroke-linejoin:round;">
<text x="78349.3" y="73090.6"
textLength="570.866" font-size="682.415" lengthAdjust="spacingAndGlyphs"
text-anchor="middle" opacity="0">D</text>
<path d="M78215 73066
L78215 72554
L78337 72554
L78410 72578
L78458 72627
L78483 72676
L78507 72773
L78507 72846
L78483 72944
L78458 72993
L78410 73041
L78337 73066
L78215 73066
" />
</g>
<g style="fill:#000000; fill-opacity:0.0; 
stroke:#000000; stroke-width:39.3701; stroke-opacity:1; 
stroke-linecap:round; stroke-linejoin:round;">
</g>
<g style="fill:#000000; fill-opacity:0.0; 
stroke:#000000; stroke-width:59.0551; stroke-opacity:1; 
stroke-linecap:round; stroke-linejoin:round;">
<text x="78349.3" y="92775.6"
textLength="522.122" font-size="682.415" lengthAdjust="spacingAndGlyphs"
text-anchor="middle" opacity="0">E</text>
<path d="M78239 92483
L78410 92483
" />
<path d="M78483 92751
L78239 92751
L78239 92239
L78483 92239
" />
</g>
<g style="fill:#000000; fill-opacity:0.0; 
stroke:#000000; stroke-width:39.3701; stroke-opacity:1; 
stroke-linecap:round; stroke-linejoin:round;">
</g>
<g style="fill:#000000; fill-opacity:0.0; 
stroke:#000000; stroke-width:59.0551; stroke-opacity:1; 
stroke-linecap:round; stroke-linejoin:round;">
<text x="78349.3" y="112461"
textLength="497.75" font-size="682.415" lengthAdjust="spacingAndGlyphs"
text-anchor="middle" opacity="0">F</text>
<path d="M78422 112168
L78251 112168
" />
<path d="M78251 112436
L78251 111924
L78495 111924
" />
</g>
<g style="fill:#000000; fill-opacity:0.0; 
stroke:#000000; stroke-width:39.3701; stroke-opacity:1; 
stroke-linecap:round; stroke-linejoin:round;">
</g>
<g style="fill:#000000; fill-opacity:0.0; 
stroke:#000000; stroke-width:59.0551; stroke-opacity:1; 
stroke-linecap:round; stroke-linejoin:round;">
<text x="44491" y="110572"
textLength="2758.72" font-size="787.402" lengthAdjust="spacingAndGlyphs"
text-anchor="start" opacity="0">Date: </text>
<path d="M44661 110543
L44661 109953
L44801 109953
L44886 109981
L44942 110037
L44970 110093
L44998 110206
L44998 110290
L44970 110403
L44942 110459
L44886 110515
L44801 110543
L44661 110543
" />
<path d="M45504 110543
L45504 110234
L45476 110178
L45420 110149
L45307 110149
L45251 110178
" />
<path d="M45504 110515
L45448 110543
L45307 110543
L45251 110515
L45223 110459
L45223 110403
L45251 110346
L45307 110318
L45448 110318
L45504 110290
" />
<path d="M45701 110149
L45926 110149
" />
<path d="M45786 109953
L45786 110459
L45814 110515
L45870 110543
L45926 110543
" />
<path d="M46348 110515
L46292 110543
L46179 110543
L46123 110515
L46095 110459
L46095 110234
L46123 110178
L46179 110149
L46292 110149
L46348 110178
L46376 110234
L46376 110290
L46095 110346
" />
<path d="M46629 110487
L46657 110515
L46629 110543
L46601 110515
L46629 110487
L46629 110543
" />
<path d="M46629 110178
L46657 110206
L46629 110234
L46601 110206
L46629 110178
L46629 110234
" />
</g>
<g style="fill:#000000; fill-opacity:0.0; 
stroke:#000000; stroke-width:39.3701; stroke-opacity:1; 
stroke-linecap:round; stroke-linejoin:round;">
</g>
<g style="fill:#000000; fill-opacity:0.0; 
stroke:#000000; stroke-width:59.0551; stroke-opacity:1; 
stroke-linecap:round; stroke-linejoin:round;">
<path d="M35435 110827
L77955 110827
" />
</g>
<g style="fill:#000000; fill-opacity:0.0; 
stroke:#000000; stroke-width:39.3701; stroke-opacity:1; 
stroke-linecap:round; stroke-linejoin:round;">
</g>
<g style="fill:#000000; fill-opacity:0.0; 
stroke:#000000; stroke-width:59.0551; stroke-opacity:1; 
stroke-linecap:round; stroke-linejoin:round;">
<text x="35829.6" y="111674"
textLength="16960.1" font-size="787.402" lengthAdjust="spacingAndGlyphs"
text-anchor="start" opacity="0">KiCad E.D.A.  kicad (5.1.6-0-10_14)</text>
<path d="M35999 111645
L35999 111055
" />
<path d="M36337 111645
L36084 111308
" />
<path d="M36337 111055
L35999 111392
" />
<path d="M36590 111645
L36590 111252
" />
<path d="M36590 111055
L36562 111083
L36590 111111
L36618 111083
L36590 111055
L36590 111111
" />
<path d="M37208 111589
L37180 111617
L37096 111645
L37040 111645
L36955 111617
L36899 111561
L36871 111505
L36843 111392
L36843 111308
L36871 111196
L36899 111139
L36955 111083
L37040 111055
L37096 111055
L37180 111083
L37208 111111
" />
<path d="M37715 111645
L37715 111336
L37687 111280
L37630 111252
L37518 111252
L37462 111280
" />
<path d="M37715 111617
L37658 111645
L37518 111645
L37462 111617
L37433 111561
L37433 111505
L37462 111449
L37518 111421
L37658 111421
L37715 111392
" />
<path d="M38249 111645
L38249 111055
" />
<path d="M38249 111617
L38193 111645
L38080 111645
L38024 111617
L37996 111589
L37968 111533
L37968 111364
L37996 111308
L38024 111280
L38080 111252
L38193 111252
L38249 111280
" />
<path d="M38980 111336
L39177 111336
" />
<path d="M39261 111645
L38980 111645
L38980 111055
L39261 111055
" />
<path d="M39514 111589
L39543 111617
L39514 111645
L39486 111617
L39514 111589
L39514 111645
" />
<path d="M39796 111645
L39796 111055
L39936 111055
L40021 111083
L40077 111139
L40105 111196
L40133 111308
L40133 111392
L40105 111505
L40077 111561
L40021 111617
L39936 111645
L39796 111645
" />
<path d="M40386 111589
L40414 111617
L40386 111645
L40358 111617
L40386 111589
L40386 111645
" />
<path d="M40639 111477
L40921 111477
" />
<path d="M40583 111645
L40780 111055
L40977 111645
" />
<path d="M41174 111589
L41202 111617
L41174 111645
L41145 111617
L41174 111589
L41174 111645
" />
<path d="M42355 111645
L42355 111055
" />
<path d="M42411 111421
L42580 111645
" />
<path d="M42580 111252
L42355 111477
" />
<path d="M42833 111645
L42833 111252
" />
<path d="M42833 111055
L42805 111083
L42833 111111
L42861 111083
L42833 111055
L42833 111111
" />
<path d="M43367 111617
L43311 111645
L43198 111645
L43142 111617
L43114 111589
L43086 111533
L43086 111364
L43114 111308
L43142 111280
L43198 111252
L43311 111252
L43367 111280
" />
<path d="M43873 111645
L43873 111336
L43845 111280
L43789 111252
L43676 111252
L43620 111280
" />
<path d="M43873 111617
L43817 111645
L43676 111645
L43620 111617
L43592 111561
L43592 111505
L43620 111449
L43676 111421
L43817 111421
L43873 111392
" />
<path d="M44408 111645
L44408 111055
" />
<path d="M44408 111617
L44351 111645
L44239 111645
L44183 111617
L44154 111589
L44126 111533
L44126 111364
L44154 111308
L44183 111280
L44239 111252
L44351 111252
L44408 111280
" />
<path d="M45307 111870
L45279 111842
L45223 111758
L45195 111702
L45167 111617
L45139 111477
L45139 111364
L45167 111224
L45195 111139
L45223 111083
L45279 110999
L45307 110971
" />
<path d="M45814 111055
L45532 111055
L45504 111336
L45532 111308
L45589 111280
L45729 111280
L45786 111308
L45814 111336
L45842 111392
L45842 111533
L45814 111589
L45786 111617
L45729 111645
L45589 111645
L45532 111617
L45504 111589
" />
<path d="M46095 111589
L46123 111617
L46095 111645
L46067 111617
L46095 111589
L46095 111645
" />
<path d="M46685 111645
L46348 111645
" />
<path d="M46517 111645
L46517 111055
L46460 111139
L46404 111196
L46348 111224
" />
<path d="M46938 111589
L46967 111617
L46938 111645
L46910 111617
L46938 111589
L46938 111645
" />
<path d="M47473 111055
L47360 111055
L47304 111083
L47276 111111
L47220 111196
L47192 111308
L47192 111533
L47220 111589
L47248 111617
L47304 111645
L47417 111645
L47473 111617
L47501 111589
L47529 111533
L47529 111392
L47501 111336
L47473 111308
L47417 111280
L47304 111280
L47248 111308
L47220 111336
L47192 111392
" />
<path d="M47782 111421
L48232 111421
" />
<path d="M48626 111055
L48682 111055
L48738 111083
L48766 111111
L48795 111167
L48823 111280
L48823 111421
L48795 111533
L48766 111589
L48738 111617
L48682 111645
L48626 111645
L48570 111617
L48541 111589
L48513 111533
L48485 111421
L48485 111280
L48513 111167
L48541 111111
L48570 111083
L48626 111055
" />
<path d="M49076 111421
L49526 111421
" />
<path d="M50116 111645
L49779 111645
" />
<path d="M49947 111645
L49947 111055
L49891 111139
L49835 111196
L49779 111224
" />
<path d="M50482 111055
L50538 111055
L50594 111083
L50622 111111
L50651 111167
L50679 111280
L50679 111421
L50651 111533
L50622 111589
L50594 111617
L50538 111645
L50482 111645
L50426 111617
L50397 111589
L50369 111533
L50341 111421
L50341 111280
L50369 111167
L50397 111111
L50426 111083
L50482 111055
" />
<path d="M50791 111702
L51241 111702
" />
<path d="M51691 111645
L51354 111645
" />
<path d="M51522 111645
L51522 111055
L51466 111139
L51410 111196
L51354 111224
" />
<path d="M52197 111252
L52197 111645
" />
<path d="M52057 111027
L51916 111449
L52282 111449
" />
<path d="M52450 111870
L52478 111842
L52535 111758
L52563 111702
L52591 111617
L52619 111477
L52619 111364
L52591 111224
L52563 111139
L52535 111083
L52478 110999
L52450 110971
" />
</g>
<g style="fill:#000000; fill-opacity:0.0; 
stroke:#000000; stroke-width:39.3701; stroke-opacity:1; 
stroke-linecap:round; stroke-linejoin:round;">
</g>
<g style="fill:#000000; fill-opacity:0.0; 
stroke:#000000; stroke-width:59.0551; stroke-opacity:1; 
stroke-linecap:round; stroke-linejoin:round;">
<path d="M35435 109646
L77955 109646
" />
</g>
<g style="fill:#000000; fill-opacity:0.0; 
stroke:#000000; stroke-width:39.3701; stroke-opacity:1; 
stroke-linecap:round; stroke-linejoin:round;">
</g>
<g style="fill:#000000; fill-opacity:0.0; 
stroke:#000000; stroke-width:118.11; stroke-opacity:1; 
stroke-linecap:round; stroke-linejoin:round;">
<text x="69294.2" y="110572"
textLength="2336.9" font-size="787.402" lengthAdjust="spacingAndGlyphs"
text-anchor="start" opacity="0">Rev: </text>
<path d="M69849 110543
L69652 110262
" />
<path d="M69511 110543
L69511 109953
L69736 109953
L69792 109981
L69820 110009
L69849 110065
L69849 110149
L69820 110206
L69792 110234
L69736 110262
L69511 110262
" />
<path d="M70327 110515
L70270 110543
L70158 110543
L70102 110515
L70073 110459
L70073 110234
L70102 110178
L70158 110149
L70270 110149
L70327 110178
L70355 110234
L70355 110290
L70073 110346
" />
<path d="M70552 110149
L70692 110543
L70833 110149
" />
<path d="M71058 110487
L71086 110515
L71058 110543
L71030 110515
L71058 110487
L71058 110543
" />
<path d="M71058 110178
L71086 110206
L71058 110234
L71030 110206
L71058 110178
L71058 110234
" />
</g>
<g style="fill:#000000; fill-opacity:0.0; 
stroke:#000000; stroke-width:39.3701; stroke-opacity:1; 
stroke-linecap:round; stroke-linejoin:round;">
</g>
<g style="fill:#000000; fill-opacity:0.0; 
stroke:#000000; stroke-width:59.0551; stroke-opacity:1; 
stroke-linecap:round; stroke-linejoin:round;">
<text x="35829.6" y="110572"
textLength="3781.21" font-size="787.402" lengthAdjust="spacingAndGlyphs"
text-anchor="start" opacity="0">Size: A4</text>
<path d="M35971 110515
L36055 110543
L36196 110543
L36252 110515
L36280 110487
L36309 110431
L36309 110374
L36280 110318
L36252 110290
L36196 110262
L36084 110234
L36027 110206
L35999 110178
L35971 110121
L35971 110065
L35999 110009
L36027 109981
L36084 109953
L36224 109953
L36309 109981
" />
<path d="M36562 110543
L36562 110149
" />
<path d="M36562 109953
L36534 109981
L36562 110009
L36590 109981
L36562 109953
L36562 110009
" />
<path d="M36787 110149
L37096 110149
L36787 110543
L37096 110543
" />
<path d="M37546 110515
L37490 110543
L37377 110543
L37321 110515
L37293 110459
L37293 110234
L37321 110178
L37377 110149
L37490 110149
L37546 110178
L37574 110234
L37574 110290
L37293 110346
" />
<path d="M37827 110487
L37855 110515
L37827 110543
L37799 110515
L37827 110487
L37827 110543
" />
<path d="M37827 110178
L37855 110206
L37827 110234
L37799 110206
L37827 110178
L37827 110234
" />
<path d="M38530 110374
L38811 110374
" />
<path d="M38474 110543
L38671 109953
L38868 110543
" />
<path d="M39318 110149
L39318 110543
" />
<path d="M39177 109924
L39036 110346
L39402 110346
" />
</g>
<g style="fill:#000000; fill-opacity:0.0; 
stroke:#000000; stroke-width:39.3701; stroke-opacity:1; 
stroke-linecap:round; stroke-linejoin:round;">
</g>
<g style="fill:#000000; fill-opacity:0.0; 
stroke:#000000; stroke-width:59.0551; stroke-opacity:1; 
stroke-linecap:round; stroke-linejoin:round;">
<text x="69294.2" y="111674"
textLength="3349.27" font-size="787.402" lengthAdjust="spacingAndGlyphs"
text-anchor="start" opacity="0">Id: 1/1</text>
<path d="M69464 111645
L69464 111055
" />
<path d="M69998 111645
L69998 111055
" />
<path d="M69998 111617
L69942 111645
L69829 111645
L69773 111617
L69745 111589
L69717 111533
L69717 111364
L69745 111308
L69773 111280
L69829 111252
L69942 111252
L69998 111280
" />
<path d="M70279 111589
L70307 111617
L70279 111645
L70251 111617
L70279 111589
L70279 111645
" />
<path d="M70279 111280
L70307 111308
L70279 111336
L70251 111308
L70279 111280
L70279 111336
" />
<path d="M71320 111645
L70982 111645
" />
<path d="M71151 111645
L71151 111055
L71095 111139
L71039 111196
L70982 111224
" />
<path d="M71995 111027
L71489 111786
" />
<path d="M72501 111645
L72163 111645
" />
<path d="M72332 111645
L72332 111055
L72276 111139
L72220 111196
L72163 111224
" />
</g>
<g style="fill:#000000; fill-opacity:0.0; 
stroke:#000000; stroke-width:39.3701; stroke-opacity:1; 
stroke-linecap:round; stroke-linejoin:round;">
</g>
<g style="fill:#000000; fill-opacity:0.0; 
stroke:#000000; stroke-width:59.0551; stroke-opacity:1; 
stroke-linecap:round; stroke-linejoin:round;">
<path d="M35435 108071
L77955 108071
" />
</g>
<g style="fill:#000000; fill-opacity:0.0; 
stroke:#000000; stroke-width:39.3701; stroke-opacity:1; 
stroke-linecap:round; stroke-linejoin:round;">
</g>
<g style="fill:#000000; fill-opacity:0.0; 
stroke:#000000; stroke-width:157.48; stroke-opacity:1; 
stroke-linecap:round; stroke-linejoin:round;">
<text x="35829.6" y="109174"
textLength="3701.14" font-size="1049.87" lengthAdjust="spacingAndGlyphs"
text-anchor="start" opacity="0">Title: </text>
<path d="M36110 108349
L36560 108349
" />
<path d="M36236 109136
L36335 108349
" />
<path d="M36724 109136
L36789 108611
" />
<path d="M36822 108349
L36780 108386
L36813 108424
L36855 108386
L36822 108349
L36813 108424
" />
<path d="M37052 108611
L37352 108611
" />
<path d="M37197 108349
L37113 109024
L37141 109099
L37211 109136
L37286 109136
" />
<path d="M37661 109136
L37591 109099
L37563 109024
L37647 108349
" />
<path d="M38266 109099
L38186 109136
L38036 109136
L37966 109099
L37937 109024
L37975 108724
L38022 108649
L38102 108611
L38251 108611
L38322 108649
L38350 108724
L38341 108799
L37956 108874
" />
<path d="M38645 109061
L38678 109099
L38636 109136
L38603 109099
L38645 109061
L38636 109136
" />
<path d="M38697 108649
L38730 108686
L38687 108724
L38655 108686
L38697 108649
L38687 108724
" />
</g>
<g style="fill:#000000; fill-opacity:0.0; 
stroke:#000000; stroke-width:39.3701; stroke-opacity:1; 
stroke-linecap:round; stroke-linejoin:round;">
</g>
<g style="fill:#000000; fill-opacity:0.0; 
stroke:#000000; stroke-width:59.0551; stroke-opacity:1; 
stroke-linecap:round; stroke-linejoin:round;">
<text x="35829.6" y="107658"
textLength="25036" font-size="787.402" lengthAdjust="spacingAndGlyphs"
text-anchor="start" opacity="0">File: ActiveMixerPedalWithDigitalPeakDetector.kicad_pcb</text>
<path d="M36196 107320
L35999 107320
" />
<path d="M35999 107630
L35999 107039
L36280 107039
" />
<path d="M36505 107630
L36505 107236
" />
<path d="M36505 107039
L36477 107067
L36505 107095
L36534 107067
L36505 107039
L36505 107095
" />
<path d="M36871 107630
L36815 107602
L36787 107545
L36787 107039
" />
<path d="M37321 107602
L37265 107630
L37152 107630
L37096 107602
L37068 107545
L37068 107320
L37096 107264
L37152 107236
L37265 107236
L37321 107264
L37349 107320
L37349 107377
L37068 107433
" />
<path d="M37602 107573
L37630 107602
L37602 107630
L37574 107602
L37602 107573
L37602 107630
" />
<path d="M37602 107264
L37630 107292
L37602 107320
L37574 107292
L37602 107264
L37602 107320
" />
<path d="M38305 107461
L38586 107461
" />
<path d="M38249 107630
L38446 107039
L38643 107630
" />
<path d="M39093 107602
L39036 107630
L38924 107630
L38868 107602
L38840 107573
L38811 107517
L38811 107349
L38840 107292
L38868 107264
L38924 107236
L39036 107236
L39093 107264
" />
<path d="M39261 107236
L39486 107236
" />
<path d="M39346 107039
L39346 107545
L39374 107602
L39430 107630
L39486 107630
" />
<path d="M39683 107630
L39683 107236
" />
<path d="M39683 107039
L39655 107067
L39683 107095
L39711 107067
L39683 107039
L39683 107095
" />
<path d="M39908 107236
L40049 107630
L40189 107236
" />
<path d="M40639 107602
L40583 107630
L40471 107630
L40414 107602
L40386 107545
L40386 107320
L40414 107264
L40471 107236
L40583 107236
L40639 107264
L40667 107320
L40667 107377
L40386 107433
" />
<path d="M40921 107630
L40921 107039
L41117 107461
L41314 107039
L41314 107630
" />
<path d="M41595 107630
L41595 107236
" />
<path d="M41595 107039
L41567 107067
L41595 107095
L41624 107067
L41595 107039
L41595 107095
" />
<path d="M41820 107630
L42130 107236
" />
<path d="M41820 107236
L42130 107630
" />
<path d="M42580 107602
L42523 107630
L42411 107630
L42355 107602
L42327 107545
L42327 107320
L42355 107264
L42411 107236
L42523 107236
L42580 107264
L42608 107320
L42608 107377
L42327 107433
" />
<path d="M42861 107630
L42861 107236
" />
<path d="M42861 107349
L42889 107292
L42917 107264
L42973 107236
L43030 107236
" />
<path d="M43226 107630
L43226 107039
L43451 107039
L43508 107067
L43536 107095
L43564 107152
L43564 107236
L43536 107292
L43508 107320
L43451 107349
L43226 107349
" />
<path d="M44042 107602
L43986 107630
L43873 107630
L43817 107602
L43789 107545
L43789 107320
L43817 107264
L43873 107236
L43986 107236
L44042 107264
L44070 107320
L44070 107377
L43789 107433
" />
<path d="M44576 107630
L44576 107039
" />
<path d="M44576 107602
L44520 107630
L44408 107630
L44351 107602
L44323 107573
L44295 107517
L44295 107349
L44323 107292
L44351 107264
L44408 107236
L44520 107236
L44576 107264
" />
<path d="M45111 107630
L45111 107320
L45082 107264
L45026 107236
L44914 107236
L44858 107264
" />
<path d="M45111 107602
L45054 107630
L44914 107630
L44858 107602
L44829 107545
L44829 107489
L44858 107433
L44914 107405
L45054 107405
L45111 107377
" />
<path d="M45476 107630
L45420 107602
L45392 107545
L45392 107039
" />
<path d="M45645 107039
L45786 107630
L45898 107208
L46010 107630
L46151 107039
" />
<path d="M46376 107630
L46376 107236
" />
<path d="M46376 107039
L46348 107067
L46376 107095
L46404 107067
L46376 107039
L46376 107095
" />
<path d="M46573 107236
L46798 107236
" />
<path d="M46657 107039
L46657 107545
L46685 107602
L46742 107630
L46798 107630
" />
<path d="M46995 107630
L46995 107039
" />
<path d="M47248 107630
L47248 107320
L47220 107264
L47163 107236
L47079 107236
L47023 107264
L46995 107292
" />
<path d="M47529 107630
L47529 107039
L47670 107039
L47754 107067
L47810 107124
L47838 107180
L47867 107292
L47867 107377
L47838 107489
L47810 107545
L47754 107602
L47670 107630
L47529 107630
" />
<path d="M48120 107630
L48120 107236
" />
<path d="M48120 107039
L48091 107067
L48120 107095
L48148 107067
L48120 107039
L48120 107095
" />
<path d="M48654 107236
L48654 107714
L48626 107770
L48598 107798
L48541 107827
L48457 107827
L48401 107798
" />
<path d="M48654 107602
L48598 107630
L48485 107630
L48429 107602
L48401 107573
L48373 107517
L48373 107349
L48401 107292
L48429 107264
L48485 107236
L48598 107236
L48654 107264
" />
<path d="M48935 107630
L48935 107236
" />
<path d="M48935 107039
L48907 107067
L48935 107095
L48963 107067
L48935 107039
L48935 107095
" />
<path d="M49132 107236
L49357 107236
" />
<path d="M49216 107039
L49216 107545
L49244 107602
L49301 107630
L49357 107630
" />
<path d="M49807 107630
L49807 107320
L49779 107264
L49723 107236
L49610 107236
L49554 107264
" />
<path d="M49807 107602
L49751 107630
L49610 107630
L49554 107602
L49526 107545
L49526 107489
L49554 107433
L49610 107405
L49751 107405
L49807 107377
" />
<path d="M50172 107630
L50116 107602
L50088 107545
L50088 107039
" />
<path d="M50397 107630
L50397 107039
L50622 107039
L50679 107067
L50707 107095
L50735 107152
L50735 107236
L50707 107292
L50679 107320
L50622 107349
L50397 107349
" />
<path d="M51213 107602
L51157 107630
L51044 107630
L50988 107602
L50960 107545
L50960 107320
L50988 107264
L51044 107236
L51157 107236
L51213 107264
L51241 107320
L51241 107377
L50960 107433
" />
<path d="M51747 107630
L51747 107320
L51719 107264
L51663 107236
L51550 107236
L51494 107264
" />
<path d="M51747 107602
L51691 107630
L51550 107630
L51494 107602
L51466 107545
L51466 107489
L51494 107433
L51550 107405
L51691 107405
L51747 107377
" />
<path d="M52028 107630
L52028 107039
" />
<path d="M52085 107405
L52253 107630
" />
<path d="M52253 107236
L52028 107461
" />
<path d="M52507 107630
L52507 107039
L52647 107039
L52732 107067
L52788 107124
L52816 107180
L52844 107292
L52844 107377
L52816 107489
L52788 107545
L52732 107602
L52647 107630
L52507 107630
" />
<path d="M53322 107602
L53266 107630
L53153 107630
L53097 107602
L53069 107545
L53069 107320
L53097 107264
L53153 107236
L53266 107236
L53322 107264
L53350 107320
L53350 107377
L53069 107433
" />
<path d="M53519 107236
L53744 107236
" />
<path d="M53603 107039
L53603 107545
L53631 107602
L53688 107630
L53744 107630
" />
<path d="M54166 107602
L54109 107630
L53997 107630
L53941 107602
L53913 107545
L53913 107320
L53941 107264
L53997 107236
L54109 107236
L54166 107264
L54194 107320
L54194 107377
L53913 107433
" />
<path d="M54700 107602
L54644 107630
L54531 107630
L54475 107602
L54447 107573
L54419 107517
L54419 107349
L54447 107292
L54475 107264
L54531 107236
L54644 107236
L54700 107264
" />
<path d="M54869 107236
L55094 107236
" />
<path d="M54953 107039
L54953 107545
L54981 107602
L55037 107630
L55094 107630
" />
<path d="M55375 107630
L55319 107602
L55291 107573
L55262 107517
L55262 107349
L55291 107292
L55319 107264
L55375 107236
L55459 107236
L55516 107264
L55544 107292
L55572 107349
L55572 107517
L55544 107573
L55516 107602
L55459 107630
L55375 107630
" />
<path d="M55825 107630
L55825 107236
" />
<path d="M55825 107349
L55853 107292
L55881 107264
L55937 107236
L55994 107236
" />
<path d="M56190 107573
L56219 107602
L56190 107630
L56162 107602
L56190 107573
L56190 107630
" />
<path d="M56472 107630
L56472 107039
" />
<path d="M56528 107405
L56697 107630
" />
<path d="M56697 107236
L56472 107461
" />
<path d="M56950 107630
L56950 107236
" />
<path d="M56950 107039
L56922 107067
L56950 107095
L56978 107067
L56950 107039
L56950 107095
" />
<path d="M57484 107602
L57428 107630
L57315 107630
L57259 107602
L57231 107573
L57203 107517
L57203 107349
L57231 107292
L57259 107264
L57315 107236
L57428 107236
L57484 107264
" />
<path d="M57990 107630
L57990 107320
L57962 107264
L57906 107236
L57793 107236
L57737 107264
" />
<path d="M57990 107602
L57934 107630
L57793 107630
L57737 107602
L57709 107545
L57709 107489
L57737 107433
L57793 107405
L57934 107405
L57990 107377
" />
<path d="M58525 107630
L58525 107039
" />
<path d="M58525 107602
L58468 107630
L58356 107630
L58300 107602
L58271 107573
L58243 107517
L58243 107349
L58271 107292
L58300 107264
L58356 107236
L58468 107236
L58525 107264
" />
<path d="M58665 107686
L59115 107686
" />
<path d="M59256 107236
L59256 107827
" />
<path d="M59256 107264
L59312 107236
L59424 107236
L59481 107264
L59509 107292
L59537 107349
L59537 107517
L59509 107573
L59481 107602
L59424 107630
L59312 107630
L59256 107602
" />
<path d="M60043 107602
L59987 107630
L59874 107630
L59818 107602
L59790 107573
L59762 107517
L59762 107349
L59790 107292
L59818 107264
L59874 107236
L59987 107236
L60043 107264
" />
<path d="M60296 107630
L60296 107039
" />
<path d="M60296 107264
L60352 107236
L60465 107236
L60521 107264
L60549 107292
L60577 107349
L60577 107517
L60549 107573
L60521 107602
L60465 107630
L60352 107630
L60296 107602
" />
</g>
<g style="fill:#000000; fill-opacity:0.0; 
stroke:#000000; stroke-width:39.3701; stroke-opacity:1; 
stroke-linecap:round; stroke-linejoin:round;">
</g>
<g style="fill:#000000; fill-opacity:0.0; 
stroke:#000000; stroke-width:59.0551; stroke-opacity:1; 
stroke-linecap:round; stroke-linejoin:round;">
<path d="M35435 105709
L77955 105709
" />
</g>
<g style="fill:#000000; fill-opacity:0.0; 
stroke:#000000; stroke-width:39.3701; stroke-opacity:1; 
stroke-linecap:round; stroke-linejoin:round;">
</g>
<g style="fill:#000000; fill-opacity:0.0; 
stroke:#000000; stroke-width:59.0551; stroke-opacity:1; 
stroke-linecap:round; stroke-linejoin:round;">
<text x="35829.6" y="106595"
textLength="3236.78" font-size="787.402" lengthAdjust="spacingAndGlyphs"
text-anchor="start" opacity="0">Sheet: </text>
<path d="M35971 106539
L36055 106567
L36196 106567
L36252 106539
L36280 106510
L36309 106454
L36309 106398
L36280 106342
L36252 106314
L36196 106286
L36084 106257
L36027 106229
L35999 106201
L35971 106145
L35971 106089
L35999 106032
L36027 106004
L36084 105976
L36224 105976
L36309 106004
" />
<path d="M36562 106567
L36562 105976
" />
<path d="M36815 106567
L36815 106257
L36787 106201
L36730 106173
L36646 106173
L36590 106201
L36562 106229
" />
<path d="M37321 106539
L37265 106567
L37152 106567
L37096 106539
L37068 106482
L37068 106257
L37096 106201
L37152 106173
L37265 106173
L37321 106201
L37349 106257
L37349 106314
L37068 106370
" />
<path d="M37827 106539
L37771 106567
L37658 106567
L37602 106539
L37574 106482
L37574 106257
L37602 106201
L37658 106173
L37771 106173
L37827 106201
L37855 106257
L37855 106314
L37574 106370
" />
<path d="M38024 106173
L38249 106173
" />
<path d="M38108 105976
L38108 106482
L38136 106539
L38193 106567
L38249 106567
" />
<path d="M38446 106510
L38474 106539
L38446 106567
L38418 106539
L38446 106510
L38446 106567
" />
<path d="M38446 106201
L38474 106229
L38446 106257
L38418 106229
L38446 106201
L38446 106257
" />
</g>
<g style="fill:#000000; fill-opacity:0.0; 
stroke:#000000; stroke-width:39.3701; stroke-opacity:1; 
stroke-linecap:round; stroke-linejoin:round;">
</g>
<g style="fill:#000000; fill-opacity:0.0; 
stroke:#000000; stroke-width:59.0551; stroke-opacity:1; 
stroke-linecap:round; stroke-linejoin:round;">
<path d="M43309 109646
L43309 110827
" />
</g>
<g style="fill:#000000; fill-opacity:0.0; 
stroke:#000000; stroke-width:39.3701; stroke-opacity:1; 
stroke-linecap:round; stroke-linejoin:round;">
</g>
<g style="fill:#000000; fill-opacity:0.0; 
stroke:#000000; stroke-width:59.0551; stroke-opacity:1; 
stroke-linecap:round; stroke-linejoin:round;">
<path d="M68506 109646
L68506 112205
" />
</g>
<g style="fill:#840084; fill-opacity:0.0; 
stroke:#840084; stroke-width:59.0551; stroke-opacity:1; 
stroke-linecap:round; stroke-linejoin:round;">
<text x="21300" y="54332.5"
textLength="900.825" font-size="419.947" lengthAdjust="spacingAndGlyphs"
text-anchor="middle" opacity="0">-3V</text>
<path d="M21704 54197
L21464 54197
" />
<path d="M21344 54002
L21150 54002
L21255 54122
L21210 54122
L21180 54137
L21165 54152
L21150 54182
L21150 54257
L21165 54287
L21180 54302
L21210 54317
L21300 54317
L21329 54302
L21344 54287
" />
<path d="M21060 54002
L20955 54317
L20850 54002
" />
</g>
<g style="fill:#840084; fill-opacity:0.0; 
stroke:#840084; stroke-width:98.4252; stroke-opacity:1; 
stroke-linecap:round; stroke-linejoin:round;">
<g transform="rotate(-270 59039.8 38850)">
<text x="59039.8" y="39243.7"
textLength="23245.3" font-size="1049.87" lengthAdjust="spacingAndGlyphs"
text-anchor="middle" opacity="0">4-Way Mixer with Digital Peak Detect </text>
</g>
<path d="M59208 49986
L58683 49986
" />
<path d="M59508 50173
L58946 50361
L58946 49873
" />
<path d="M58983 49573
L58983 48973
" />
<path d="M59470 48673
L58683 48486
L59245 48336
L58683 48186
L59470 47998
" />
<path d="M58683 47361
L59096 47361
L59170 47398
L59208 47473
L59208 47623
L59170 47698
" />
<path d="M58721 47361
L58683 47436
L58683 47623
L58721 47698
L58796 47736
L58871 47736
L58946 47698
L58983 47623
L58983 47436
L59021 47361
" />
<path d="M59208 47061
L58683 46873
" />
<path d="M59208 46686
L58683 46873
L58496 46948
L58458 46986
L58421 47061
" />
<path d="M58683 45786
L59470 45786
L58908 45524
L59470 45261
L58683 45261
" />
<path d="M58683 44886
L59208 44886
" />
<path d="M59470 44886
L59433 44924
L59395 44886
L59433 44849
L59470 44886
L59395 44886
" />
<path d="M58683 44586
L59208 44174
" />
<path d="M59208 44586
L58683 44174
" />
<path d="M58721 43574
L58683 43649
L58683 43799
L58721 43874
L58796 43911
L59096 43911
L59170 43874
L59208 43799
L59208 43649
L59170 43574
L59096 43536
L59021 43536
L58946 43911
" />
<path d="M58683 43199
L59208 43199
" />
<path d="M59058 43199
L59133 43161
L59170 43124
L59208 43049
L59208 42974
" />
<path d="M59208 42187
L58683 42037
L59058 41887
L58683 41737
L59208 41587
" />
<path d="M58683 41287
L59208 41287
" />
<path d="M59470 41287
L59433 41324
L59395 41287
L59433 41249
L59470 41287
L59395 41287
" />
<path d="M59208 41024
L59208 40724
" />
<path d="M59470 40912
L58796 40912
L58721 40874
L58683 40799
L58683 40724
" />
<path d="M58683 40462
L59470 40462
" />
<path d="M58683 40124
L59096 40124
L59170 40162
L59208 40237
L59208 40349
L59170 40424
L59133 40462
" />
<path d="M58683 39149
L59470 39149
L59470 38962
L59433 38850
L59358 38775
L59283 38737
L59133 38700
L59021 38700
L58871 38737
L58796 38775
L58721 38850
L58683 38962
L58683 39149
" />
<path d="M58683 38362
L59208 38362
" />
<path d="M59470 38362
L59433 38400
L59395 38362
L59433 38325
L59470 38362
L59395 38362
" />
<path d="M59208 37650
L58571 37650
L58496 37687
L58458 37725
L58421 37800
L58421 37912
L58458 37987
" />
<path d="M58721 37650
L58683 37725
L58683 37875
L58721 37950
L58758 37987
L58833 38025
L59058 38025
L59133 37987
L59170 37950
L59208 37875
L59208 37725
L59170 37650
" />
<path d="M58683 37275
L59208 37275
" />
<path d="M59470 37275
L59433 37312
L59395 37275
L59433 37237
L59470 37275
L59395 37275
" />
<path d="M59208 37012
L59208 36712
" />
<path d="M59470 36900
L58796 36900
L58721 36862
L58683 36787
L58683 36712
" />
<path d="M58683 36112
L59096 36112
L59170 36150
L59208 36225
L59208 36375
L59170 36450
" />
<path d="M58721 36112
L58683 36187
L58683 36375
L58721 36450
L58796 36487
L58871 36487
L58946 36450
L58983 36375
L58983 36187
L59021 36112
" />
<path d="M58683 35625
L58721 35700
L58796 35737
L59470 35737
" />
<path d="M58683 34725
L59470 34725
L59470 34425
L59433 34350
L59395 34313
L59320 34275
L59208 34275
L59133 34313
L59096 34350
L59058 34425
L59058 34725
" />
<path d="M58721 33638
L58683 33713
L58683 33863
L58721 33938
L58796 33975
L59096 33975
L59170 33938
L59208 33863
L59208 33713
L59170 33638
L59096 33600
L59021 33600
L58946 33975
" />
<path d="M58683 32925
L59096 32925
L59170 32963
L59208 33038
L59208 33188
L59170 33263
" />
<path d="M58721 32925
L58683 33000
L58683 33188
L58721 33263
L58796 33300
L58871 33300
L58946 33263
L58983 33188
L58983 33000
L59021 32925
" />
<path d="M58683 32550
L59470 32550
" />
<path d="M58983 32475
L58683 32250
" />
<path d="M59208 32250
L58908 32550
" />
<path d="M58683 31313
L59470 31313
L59470 31125
L59433 31013
L59358 30938
L59283 30900
L59133 30863
L59021 30863
L58871 30900
L58796 30938
L58721 31013
L58683 31125
L58683 31313
" />
<path d="M58721 30226
L58683 30301
L58683 30451
L58721 30526
L58796 30563
L59096 30563
L59170 30526
L59208 30451
L59208 30301
L59170 30226
L59096 30188
L59021 30188
L58946 30563
" />
<path d="M59208 29963
L59208 29663
" />
<path d="M59470 29851
L58796 29851
L58721 29813
L58683 29738
L58683 29663
" />
<path d="M58721 29101
L58683 29176
L58683 29326
L58721 29401
L58796 29438
L59096 29438
L59170 29401
L59208 29326
L59208 29176
L59170 29101
L59096 29063
L59021 29063
L58946 29438
" />
<path d="M58721 28388
L58683 28463
L58683 28613
L58721 28688
L58758 28726
L58833 28763
L59058 28763
L59133 28726
L59170 28688
L59208 28613
L59208 28463
L59170 28388
" />
<path d="M59208 28163
L59208 27863
" />
<path d="M59470 28051
L58796 28051
L58721 28013
L58683 27938
L58683 27863
" />
<g transform="rotate(-270 57760.2 38850)">
<text x="57760.2" y="39243.7"
textLength="6208.76" font-size="1049.87" lengthAdjust="spacingAndGlyphs"
text-anchor="middle" opacity="0">RevA 3920</text>
</g>
<path d="M57404 41380
L57778 41643
" />
<path d="M57404 41830
L58191 41830
L58191 41530
L58153 41455
L58116 41418
L58041 41380
L57928 41380
L57853 41418
L57816 41455
L57778 41530
L57778 41830
" />
<path d="M57441 40743
L57404 40818
L57404 40968
L57441 41043
L57516 41080
L57816 41080
L57891 41043
L57928 40968
L57928 40818
L57891 40743
L57816 40706
L57741 40706
L57666 41080
" />
<path d="M57928 40443
L57404 40256
L57928 40068
" />
<path d="M57629 39806
L57629 39431
" />
<path d="M57404 39881
L58191 39618
L57404 39356
" />
<path d="M58191 38568
L58191 38081
L57891 38343
L57891 38231
L57853 38156
L57816 38118
L57741 38081
L57554 38081
L57479 38118
L57441 38156
L57404 38231
L57404 38456
L57441 38531
L57479 38568
" />
<path d="M57404 37706
L57404 37556
L57441 37481
L57479 37443
L57591 37368
L57741 37331
L58041 37331
L58116 37368
L58153 37406
L58191 37481
L58191 37631
L58153 37706
L58116 37743
L58041 37781
L57853 37781
L57778 37743
L57741 37706
L57703 37631
L57703 37481
L57741 37406
L57778 37368
L57853 37331
" />
<path d="M58116 37031
L58153 36993
L58191 36918
L58191 36731
L58153 36656
L58116 36619
L58041 36581
L57966 36581
L57853 36619
L57404 37068
L57404 36581
" />
<path d="M58191 36094
L58191 36019
L58153 35944
L58116 35906
L58041 35869
L57891 35831
L57703 35831
L57554 35869
L57479 35906
L57441 35944
L57404 36019
L57404 36094
L57441 36169
L57479 36206
L57554 36244
L57703 36281
L57891 36281
L58041 36244
L58116 36206
L58153 36169
L58191 36094
" />
</g>
<g style="fill:#840084; fill-opacity:0.0; 
stroke:#840084; stroke-width:59.0551; stroke-opacity:1; 
stroke-linecap:round; stroke-linejoin:round;">
<text x="20600" y="22660.2"
textLength="1071.9" font-size="419.947" lengthAdjust="spacingAndGlyphs"
text-anchor="middle" opacity="0">9VDC</text>
<path d="M21109 22645
L21049 22645
L21019 22630
L21004 22615
L20974 22570
L20959 22510
L20959 22390
L20974 22360
L20989 22345
L21019 22330
L21079 22330
L21109 22345
L21124 22360
L21139 22390
L21139 22465
L21124 22495
L21109 22510
L21079 22525
L21019 22525
L20989 22510
L20974 22495
L20959 22465
" />
<path d="M20869 22330
L20764 22645
L20659 22330
" />
<path d="M20555 22645
L20555 22330
L20480 22330
L20435 22345
L20405 22375
L20390 22405
L20375 22465
L20375 22510
L20390 22570
L20405 22600
L20435 22630
L20480 22645
L20555 22645
" />
<path d="M20060 22615
L20075 22630
L20120 22645
L20150 22645
L20195 22630
L20225 22600
L20240 22570
L20255 22510
L20255 22465
L20240 22405
L20225 22375
L20195 22345
L20150 22330
L20120 22330
L20075 22345
L20060 22360
" />
<text x="20600" y="23191.7"
textLength="1513.03" font-size="419.947" lengthAdjust="spacingAndGlyphs"
text-anchor="middle" opacity="0">150mA</text>
<path d="M21154 23176
L21334 23176
" />
<path d="M21244 23176
L21244 22861
L21274 22906
L21304 22936
L21334 22951
" />
<path d="M20869 22861
L21019 22861
L21034 23011
L21019 22996
L20989 22981
L20914 22981
L20884 22996
L20869 23011
L20854 23041
L20854 23116
L20869 23146
L20884 23161
L20914 23176
L20989 23176
L21019 23161
L21034 23146
" />
<path d="M20659 22861
L20629 22861
L20600 22876
L20585 22891
L20570 22921
L20555 22981
L20555 23056
L20570 23116
L20585 23146
L20600 23161
L20629 23176
L20659 23176
L20689 23161
L20704 23146
L20719 23116
L20734 23056
L20734 22981
L20719 22921
L20704 22891
L20689 22876
L20659 22861
" />
<path d="M20420 23176
L20420 22966
" />
<path d="M20420 22996
L20405 22981
L20375 22966
L20330 22966
L20300 22981
L20285 23011
L20285 23176
" />
<path d="M20285 23011
L20270 22981
L20240 22966
L20195 22966
L20165 22981
L20150 23011
L20150 23176
" />
<path d="M20015 23086
L19865 23086
" />
<path d="M20045 23176
L19940 22861
L19835 23176
" />
<text x="20600" y="23723.2"
textLength="1678.01" font-size="419.947" lengthAdjust="spacingAndGlyphs"
text-anchor="middle" opacity="0">Center </text>
<path d="M21222 23678
L21237 23693
L21282 23708
L21312 23708
L21357 23693
L21387 23663
L21402 23633
L21417 23573
L21417 23528
L21402 23468
L21387 23438
L21357 23408
L21312 23393
L21282 23393
L21237 23408
L21222 23423
" />
<path d="M20967 23693
L20997 23708
L21057 23708
L21087 23693
L21102 23663
L21102 23543
L21087 23513
L21057 23498
L20997 23498
L20967 23513
L20952 23543
L20952 23573
L21102 23603
" />
<path d="M20817 23498
L20817 23708
" />
<path d="M20817 23528
L20802 23513
L20772 23498
L20727 23498
L20697 23513
L20682 23543
L20682 23708
" />
<path d="M20577 23498
L20457 23498
" />
<path d="M20532 23393
L20532 23663
L20517 23693
L20487 23708
L20457 23708
" />
<path d="M20232 23693
L20262 23708
L20322 23708
L20352 23693
L20367 23663
L20367 23543
L20352 23513
L20322 23498
L20262 23498
L20232 23513
L20217 23543
L20217 23573
L20367 23603
" />
<path d="M20082 23708
L20082 23498
" />
<path d="M20082 23558
L20067 23528
L20052 23513
L20022 23498
L19992 23498
" />
<text x="20600" y="24254.7"
textLength="2082.96" font-size="419.947" lengthAdjust="spacingAndGlyphs"
text-anchor="middle" opacity="0">Negative!</text>
<path d="M21604 24239
L21604 23924
L21424 24239
L21424 23924
" />
<path d="M21154 24224
L21184 24239
L21244 24239
L21274 24224
L21289 24194
L21289 24074
L21274 24044
L21244 24029
L21184 24029
L21154 24044
L21139 24074
L21139 24104
L21289 24134
" />
<path d="M20869 24029
L20869 24284
L20884 24314
L20899 24329
L20929 24344
L20974 24344
L21004 24329
" />
<path d="M20869 24224
L20899 24239
L20959 24239
L20989 24224
L21004 24209
L21019 24179
L21019 24089
L21004 24059
L20989 24044
L20959 24029
L20899 24029
L20869 24044
" />
<path d="M20585 24239
L20585 24074
L20600 24044
L20629 24029
L20689 24029
L20719 24044
" />
<path d="M20585 24224
L20614 24239
L20689 24239
L20719 24224
L20734 24194
L20734 24164
L20719 24134
L20689 24119
L20614 24119
L20585 24104
" />
<path d="M20480 24029
L20360 24029
" />
<path d="M20435 23924
L20435 24194
L20420 24224
L20390 24239
L20360 24239
" />
<path d="M20255 24239
L20255 24029
" />
<path d="M20255 23924
L20270 23939
L20255 23954
L20240 23939
L20255 23924
L20255 23954
" />
<path d="M20135 24029
L20060 24239
L19985 24029
" />
<path d="M19745 24224
L19775 24239
L19835 24239
L19865 24224
L19880 24194
L19880 24074
L19865 24044
L19835 24029
L19775 24029
L19745 24044
L19730 24074
L19730 24104
L19880 24134
" />
<path d="M19595 24209
L19580 24224
L19595 24239
L19610 24224
L19595 24209
L19595 24239
" />
<path d="M19595 24119
L19610 23939
L19595 23924
L19580 23939
L19595 24119
L19595 23924
" />
</g>
<g style="fill:#840084; fill-opacity:0.0; 
stroke:#840084; stroke-width:47.2441; stroke-opacity:1; 
stroke-linecap:round; stroke-linejoin:round;">
<path d="M49897 23479
L50102 23479
" />
<path d="M49897 22920
L50102 22920
" />
<path d="M41797 23479
L42002 23479
" />
<path d="M41797 22920
L42002 22920
" />
<path d="M33697 23479
L33902 23479
" />
<path d="M33697 22920
L33902 22920
" />
<path d="M25597 23479
L25802 23479
" />
<path d="M25597 22920
L25802 22920
" />
<circle cx="50900" cy="25200" r="984.252" /> 
<path d="M50291 24192
L51508 24192
" />
<path d="M50899.8 26377.2 A1177.17 1177.17 0.0 0 0 51508.2 24192.1" />
<path d="M50291.8 24192.1 A1177.17 1177.17 0.0 0 0 50900.2 26377.2" />
<circle cx="42800" cy="25200" r="984.252" /> 
<path d="M42191 24192
L43408 24192
" />
<path d="M42799.8 26377.2 A1177.17 1177.17 0.0 0 0 43408.2 24192.1" />
<path d="M42191.8 24192.1 A1177.17 1177.17 0.0 0 0 42800.2 26377.2" />
<circle cx="34700" cy="25200" r="984.252" /> 
<path d="M34091 24192
L35308 24192
" />
<path d="M34699.8 26377.2 A1177.17 1177.17 0.0 0 0 35308.2 24192.1" />
<path d="M34091.8 24192.1 A1177.17 1177.17 0.0 0 0 34700.2 26377.2" />
<circle cx="26600" cy="25200" r="984.252" /> 
<path d="M25991 24192
L27208 24192
" />
<path d="M26599.8 26377.2 A1177.17 1177.17 0.0 0 0 27208.2 24192.1" />
<path d="M25991.8 24192.1 A1177.17 1177.17 0.0 0 0 26600.2 26377.2" />
<path d="M39379 43052
L39379 42847
" />
<path d="M38820 43052
L38820 42847
" />
<path d="M38529 43052
L38529 42847
" />
<path d="M37970 43052
L37970 42847
" />
<path d="M37679 43052
L37679 42847
" />
<path d="M37120 43052
L37120 42847
" />
<path d="M40229 43052
L40229 42847
" />
<path d="M39670 43052
L39670 42847
" />
<path d="M35170 32870
L34190 32870
" />
<path d="M34190 52640
L35170 52640
" />
<path d="M34190 32870
L34190 52640
" />
<path d="M35170 52640
L35170 32870
" />
<path d="M32940 54630
L32940 30930
" />
<path d="M36440 54630
L32940 54630
" />
<path d="M36440 30930
L36440 54630
" />
<path d="M32940 30930
L36440 30930
" />
<circle cx="34690" cy="53810" r="430.116" /> 
<circle cx="34680" cy="31750" r="430.116" /> 
<path d="M27080 32870
L26100 32870
" />
<path d="M26100 52640
L27080 52640
" />
<path d="M26100 32870
L26100 52640
" />
<path d="M27080 52640
L27080 32870
" />
<path d="M24850 54630
L24850 30930
" />
<path d="M28350 54630
L24850 54630
" />
<path d="M28350 30930
L28350 54630
" />
<path d="M24850 30930
L28350 30930
" />
<circle cx="26600" cy="53810" r="430.116" /> 
<circle cx="26590" cy="31750" r="430.116" /> 
<path d="M43270 32870
L42290 32870
" />
<path d="M42290 52640
L43270 52640
" />
<path d="M42290 32870
L42290 52640
" />
<path d="M43270 52640
L43270 32870
" />
<path d="M41040 54630
L41040 30930
" />
<path d="M44540 54630
L41040 54630
" />
<path d="M44540 30930
L44540 54630
" />
<path d="M41040 30930
L44540 30930
" />
<circle cx="42790" cy="53810" r="430.116" /> 
<circle cx="42780" cy="31750" r="430.116" /> 
<path d="M51380 32870
L50400 32870
" />
<path d="M50400 52640
L51380 52640
" />
<path d="M50400 32870
L50400 52640
" />
<path d="M51380 52640
L51380 32870
" />
<path d="M49150 54630
L49150 30930
" />
<path d="M52650 54630
L49150 54630
" />
<path d="M52650 30930
L52650 54630
" />
<path d="M49150 30930
L52650 30930
" />
<circle cx="50900" cy="53810" r="430.116" /> 
<circle cx="50890" cy="31750" r="430.116" /> 
</g>
<g style="fill:#840084; fill-opacity:0.0; 
stroke:#840084; stroke-width:59.0551; stroke-opacity:1; 
stroke-linecap:round; stroke-linejoin:round;">
<text x="50000" y="24046.5"
textLength="1066.84" font-size="524.934" lengthAdjust="spacingAndGlyphs"
text-anchor="middle" opacity="0">R12</text>
<path d="M50253 24027
L50384 23840
" />
<path d="M50478 24027
L50478 23634
L50328 23634
L50290 23652
L50271 23671
L50253 23708
L50253 23765
L50271 23802
L50290 23821
L50328 23840
L50478 23840
" />
<path d="M49878 24027
L50103 24027
" />
<path d="M49990 24027
L49990 23634
L50028 23690
L50065 23727
L50103 23746
" />
<path d="M49728 23671
L49709 23652
L49671 23634
L49578 23634
L49540 23652
L49521 23671
L49503 23708
L49503 23746
L49521 23802
L49746 24027
L49503 24027
" />
<text x="41900" y="24046.5"
textLength="691.882" font-size="524.934" lengthAdjust="spacingAndGlyphs"
text-anchor="middle" opacity="0">R9</text>
<path d="M41965 24027
L42096 23840
" />
<path d="M42190 24027
L42190 23634
L42040 23634
L42003 23652
L41984 23671
L41965 23708
L41965 23765
L41984 23802
L42003 23821
L42040 23840
L42190 23840
" />
<path d="M41778 24027
L41703 24027
L41665 24008
L41646 23990
L41609 23933
L41590 23858
L41590 23708
L41609 23671
L41628 23652
L41665 23634
L41740 23634
L41778 23652
L41796 23671
L41815 23708
L41815 23802
L41796 23840
L41778 23858
L41740 23877
L41665 23877
L41628 23858
L41609 23840
L41590 23802
" />
<text x="33800" y="24046.5"
textLength="691.882" font-size="524.934" lengthAdjust="spacingAndGlyphs"
text-anchor="middle" opacity="0">R8</text>
<path d="M33865 24027
L33996 23840
" />
<path d="M34090 24027
L34090 23634
L33940 23634
L33903 23652
L33884 23671
L33865 23708
L33865 23765
L33884 23802
L33903 23821
L33940 23840
L34090 23840
" />
<path d="M33640 23802
L33678 23783
L33696 23765
L33715 23727
L33715 23708
L33696 23671
L33678 23652
L33640 23634
L33565 23634
L33528 23652
L33509 23671
L33490 23708
L33490 23727
L33509 23765
L33528 23783
L33565 23802
L33640 23802
L33678 23821
L33696 23840
L33715 23877
L33715 23952
L33696 23990
L33678 24008
L33640 24027
L33565 24027
L33528 24008
L33509 23990
L33490 23952
L33490 23877
L33509 23840
L33528 23821
L33565 23802
" />
<text x="25700" y="24046.5"
textLength="691.882" font-size="524.934" lengthAdjust="spacingAndGlyphs"
text-anchor="middle" opacity="0">R7</text>
<path d="M25765 24027
L25896 23840
" />
<path d="M25990 24027
L25990 23634
L25840 23634
L25803 23652
L25784 23671
L25765 23708
L25765 23765
L25784 23802
L25803 23821
L25840 23840
L25990 23840
" />
<path d="M25634 23634
L25371 23634
L25540 24027
" />
<g transform="rotate(-90 49340.9 25200)">
<text x="49340.9" y="25396.9"
textLength="691.882" font-size="524.934" lengthAdjust="spacingAndGlyphs"
text-anchor="middle" opacity="0">D5</text>
</g>
<path d="M49519 24909
L49125 24909
L49125 25003
L49144 25059
L49181 25096
L49219 25115
L49294 25134
L49350 25134
L49425 25115
L49462 25096
L49500 25059
L49519 25003
L49519 24909
" />
<path d="M49125 25490
L49125 25303
L49312 25284
L49294 25303
L49275 25340
L49275 25434
L49294 25471
L49312 25490
L49350 25509
L49444 25509
L49481 25490
L49500 25471
L49519 25434
L49519 25340
L49500 25303
L49481 25284
" />
<g transform="rotate(-90 41240.9 25200)">
<text x="41240.9" y="25396.9"
textLength="691.882" font-size="524.934" lengthAdjust="spacingAndGlyphs"
text-anchor="middle" opacity="0">D4</text>
</g>
<path d="M41419 24909
L41025 24909
L41025 25003
L41044 25059
L41081 25096
L41119 25115
L41194 25134
L41250 25134
L41325 25115
L41362 25096
L41400 25059
L41419 25003
L41419 24909
" />
<path d="M41156 25471
L41419 25471
" />
<path d="M41006 25378
L41287 25284
L41287 25528
" />
<g transform="rotate(-90 33140.9 25200)">
<text x="33140.9" y="25396.9"
textLength="691.882" font-size="524.934" lengthAdjust="spacingAndGlyphs"
text-anchor="middle" opacity="0">D3</text>
</g>
<path d="M33319 24909
L32925 24909
L32925 25003
L32944 25059
L32981 25096
L33019 25115
L33094 25134
L33150 25134
L33225 25115
L33262 25096
L33300 25059
L33319 25003
L33319 24909
" />
<path d="M32925 25265
L32925 25509
L33075 25378
L33075 25434
L33094 25471
L33112 25490
L33150 25509
L33244 25509
L33281 25490
L33300 25471
L33319 25434
L33319 25321
L33300 25284
L33281 25265
" />
<g transform="rotate(-90 25040.9 25200)">
<text x="25040.9" y="25396.9"
textLength="691.882" font-size="524.934" lengthAdjust="spacingAndGlyphs"
text-anchor="middle" opacity="0">D2</text>
</g>
<path d="M25219 24909
L24825 24909
L24825 25003
L24844 25059
L24881 25096
L24919 25115
L24994 25134
L25050 25134
L25125 25115
L25162 25096
L25200 25059
L25219 25003
L25219 24909
" />
<path d="M24862 25284
L24844 25303
L24825 25340
L24825 25434
L24844 25471
L24862 25490
L24900 25509
L24937 25509
L24994 25490
L25219 25265
L25219 25509
" />
<g transform="rotate(-90 39749.6 42950)">
<text x="39749.6" y="43146.9"
textLength="1066.84" font-size="524.934" lengthAdjust="spacingAndGlyphs"
text-anchor="middle" opacity="0">C30</text>
</g>
<path d="M39890 42696
L39908 42678
L39927 42621
L39927 42584
L39908 42528
L39871 42490
L39833 42471
L39758 42453
L39702 42453
L39627 42471
L39590 42490
L39552 42528
L39534 42584
L39534 42621
L39552 42678
L39571 42696
" />
<path d="M39534 42828
L39534 43071
L39683 42940
L39683 42996
L39702 43034
L39721 43053
L39758 43071
L39852 43071
L39890 43053
L39908 43034
L39927 42996
L39927 42884
L39908 42846
L39890 42828
" />
<path d="M39534 43315
L39534 43353
L39552 43390
L39571 43409
L39608 43428
L39683 43446
L39777 43446
L39852 43428
L39890 43409
L39908 43390
L39927 43353
L39927 43315
L39908 43278
L39890 43259
L39852 43240
L39777 43221
L39683 43221
L39608 43240
L39571 43259
L39552 43278
L39534 43315
" />
<g transform="rotate(-90 38899.6 42950)">
<text x="38899.6" y="43146.9"
textLength="1066.84" font-size="524.934" lengthAdjust="spacingAndGlyphs"
text-anchor="middle" opacity="0">C27</text>
</g>
<path d="M39040 42696
L39058 42678
L39077 42621
L39077 42584
L39058 42528
L39021 42490
L38983 42471
L38908 42453
L38852 42453
L38777 42471
L38740 42490
L38702 42528
L38684 42584
L38684 42621
L38702 42678
L38721 42696
" />
<path d="M38721 42846
L38702 42865
L38684 42903
L38684 42996
L38702 43034
L38721 43053
L38758 43071
L38796 43071
L38852 43053
L39077 42828
L39077 43071
" />
<path d="M38684 43203
L38684 43465
L39077 43296
" />
<g transform="rotate(-90 38049.6 42950)">
<text x="38049.6" y="43146.9"
textLength="1066.84" font-size="524.934" lengthAdjust="spacingAndGlyphs"
text-anchor="middle" opacity="0">C26</text>
</g>
<path d="M38190 42696
L38208 42678
L38227 42621
L38227 42584
L38208 42528
L38171 42490
L38133 42471
L38058 42453
L38002 42453
L37927 42471
L37890 42490
L37852 42528
L37834 42584
L37834 42621
L37852 42678
L37871 42696
" />
<path d="M37871 42846
L37852 42865
L37834 42903
L37834 42996
L37852 43034
L37871 43053
L37908 43071
L37946 43071
L38002 43053
L38227 42828
L38227 43071
" />
<path d="M37834 43409
L37834 43334
L37852 43296
L37871 43278
L37927 43240
L38002 43221
L38152 43221
L38190 43240
L38208 43259
L38227 43296
L38227 43371
L38208 43409
L38190 43428
L38152 43446
L38058 43446
L38021 43428
L38002 43409
L37983 43371
L37983 43296
L38002 43259
L38021 43240
L38058 43221
" />
<g transform="rotate(-90 40599.6 42950)">
<text x="40599.6" y="43146.9"
textLength="1066.84" font-size="524.934" lengthAdjust="spacingAndGlyphs"
text-anchor="middle" opacity="0">C25</text>
</g>
<path d="M40740 42696
L40758 42678
L40777 42621
L40777 42584
L40758 42528
L40721 42490
L40683 42471
L40608 42453
L40552 42453
L40477 42471
L40440 42490
L40402 42528
L40384 42584
L40384 42621
L40402 42678
L40421 42696
" />
<path d="M40421 42846
L40402 42865
L40384 42903
L40384 42996
L40402 43034
L40421 43053
L40458 43071
L40496 43071
L40552 43053
L40777 42828
L40777 43071
" />
<path d="M40384 43428
L40384 43240
L40571 43221
L40552 43240
L40533 43278
L40533 43371
L40552 43409
L40571 43428
L40608 43446
L40702 43446
L40740 43428
L40758 43409
L40777 43371
L40777 43278
L40758 43240
L40740 43221
" />
<text x="35180" y="30366.9"
textLength="1029.34" font-size="524.934" lengthAdjust="spacingAndGlyphs"
text-anchor="middle" opacity="0">RV3</text>
<path d="M35414 30348
L35545 30160
" />
<path d="M35639 30348
L35639 29954
L35489 29954
L35451 29973
L35433 29991
L35414 30029
L35414 30085
L35433 30123
L35451 30141
L35489 30160
L35639 30160
" />
<path d="M35301 29954
L35170 30348
L35039 29954
" />
<path d="M34945 29954
L34701 29954
L34833 30104
L34776 30104
L34739 30123
L34720 30141
L34701 30179
L34701 30273
L34720 30310
L34739 30329
L34776 30348
L34889 30348
L34926 30329
L34945 30310
" />
<text x="27250" y="30426.9"
textLength="1029.34" font-size="524.934" lengthAdjust="spacingAndGlyphs"
text-anchor="middle" opacity="0">RV4</text>
<path d="M27484 30408
L27615 30220
" />
<path d="M27709 30408
L27709 30014
L27559 30014
L27521 30033
L27503 30051
L27484 30089
L27484 30145
L27503 30183
L27521 30201
L27559 30220
L27709 30220
" />
<path d="M27371 30014
L27240 30408
L27109 30014
" />
<path d="M26809 30145
L26809 30408
" />
<path d="M26903 29995
L26996 30276
L26753 30276
" />
<text x="43580" y="30316.9"
textLength="1029.34" font-size="524.934" lengthAdjust="spacingAndGlyphs"
text-anchor="middle" opacity="0">RV2</text>
<path d="M43814 30298
L43945 30110
" />
<path d="M44039 30298
L44039 29904
L43889 29904
L43851 29923
L43833 29941
L43814 29979
L43814 30035
L43833 30073
L43851 30091
L43889 30110
L44039 30110
" />
<path d="M43701 29904
L43570 30298
L43439 29904
" />
<path d="M43326 29941
L43308 29923
L43270 29904
L43176 29904
L43139 29923
L43120 29941
L43101 29979
L43101 30016
L43120 30073
L43345 30298
L43101 30298
" />
<text x="51550" y="30366.9"
textLength="1029.34" font-size="524.934" lengthAdjust="spacingAndGlyphs"
text-anchor="middle" opacity="0">RV1</text>
<path d="M51784 30348
L51915 30160
" />
<path d="M52009 30348
L52009 29954
L51859 29954
L51821 29973
L51803 29991
L51784 30029
L51784 30085
L51803 30123
L51821 30141
L51859 30160
L52009 30160
" />
<path d="M51671 29954
L51540 30348
L51409 29954
" />
<path d="M51071 30348
L51296 30348
" />
<path d="M51184 30348
L51184 29954
L51221 30010
L51259 30048
L51296 30066
" />
<g >
</g>
</g>
<g style="fill:#000000; fill-opacity:0.0; 
stroke:#000000; stroke-width:59.0551; stroke-opacity:1; 
stroke-linecap:round; stroke-linejoin:round;">
</g>
<g style="fill:#C2C2C2; fill-opacity:0.0; 
stroke:#C2C2C2; stroke-width:59.0551; stroke-opacity:1; 
stroke-linecap:round; stroke-linejoin:round;">
</g>
<g style="fill:#C2C2C2; fill-opacity:0.0; 
stroke:#C2C2C2; stroke-width:19.685; stroke-opacity:1; 
stroke-linecap:round; stroke-linejoin:round;">
<circle cx="22200" cy="39500" r="393.701" /> 
<circle cx="46200" cy="30800" r="393.701" /> 
<circle cx="55000" cy="30800" r="393.701" /> 
<circle cx="24400" cy="30800" r="393.701" /> 
<circle cx="30000" cy="30800" r="393.701" /> 
<circle cx="29600" cy="43600" r="393.701" /> 
<circle cx="37000" cy="43600" r="393.701" /> 
<circle cx="45400" cy="43600" r="393.701" /> 
<circle cx="53400" cy="43800" r="393.701" /> 
<circle cx="18000" cy="40000" r="393.701" /> 
<circle cx="22200" cy="40700" r="393.701" /> 
<circle cx="24500" cy="39200" r="393.701" /> 
<circle cx="32500" cy="39250" r="393.701" /> 
<circle cx="40750" cy="39250" r="393.701" /> 
<circle cx="48750" cy="39250" r="393.701" /> 
<path d="M28391 41385
L28391 39889
" />
<path d="M28391 39889
L29808 39889
" />
<path d="M29808 39889
L29808 41385
" />
<path d="M29808 41385
L28391 41385
" />
<path d="M27308 34212
L27308 36087
" />
<path d="M27308 34212
L25891 34212
" />
<path d="M25891 36087
L27308 36087
" />
<path d="M25891 36087
L25891 34212
" />
<path d="M27725 34421
L28474 34421
" />
<path d="M28474 34421
L28474 35878
" />
<path d="M28474 35878
L27725 35878
" />
<path d="M27725 35878
L27725 34421
" />
<path d="M25871 34024
L25871 33275
" />
<path d="M25871 33275
L27328 33275
" />
<path d="M27328 33275
L27328 34024
" />
<path d="M27328 34024
L25871 34024
" />
<path d="M24725 35878
L24725 34421
" />
<path d="M25474 35878
L24725 35878
" />
<path d="M25474 34421
L25474 35878
" />
<path d="M24725 34421
L25474 34421
" />
<path d="M18575 42778
L18575 41321
" />
<path d="M19324 42778
L18575 42778
" />
<path d="M19324 41321
L19324 42778
" />
<path d="M18575 41321
L19324 41321
" />
<path d="M32775 35928
L32775 34471
" />
<path d="M33524 35928
L32775 35928
" />
<path d="M33524 34471
L33524 35928
" />
<path d="M32775 34471
L33524 34471
" />
<path d="M40925 35928
L40925 34471
" />
<path d="M41674 35928
L40925 35928
" />
<path d="M41674 34471
L41674 35928
" />
<path d="M40925 34471
L41674 34471
" />
<path d="M48925 35928
L48925 34471
" />
<path d="M49674 35928
L48925 35928
" />
<path d="M49674 34471
L49674 35928
" />
<path d="M48925 34471
L49674 34471
" />
<path d="M21158 41112
L21158 42987
" />
<path d="M21158 41112
L19741 41112
" />
<path d="M19741 42987
L21158 42987
" />
<path d="M19741 42987
L19741 41112
" />
<path d="M52641 41398
L52641 39901
" />
<path d="M52641 39901
L54058 39901
" />
<path d="M54058 39901
L54058 41398
" />
<path d="M54058 41398
L52641 41398
" />
<path d="M36441 41448
L36441 39951
" />
<path d="M36441 39951
L37858 39951
" />
<path d="M37858 39951
L37858 41448
" />
<path d="M37858 41448
L36441 41448
" />
<path d="M44691 41398
L44691 39901
" />
<path d="M44691 39901
L46108 39901
" />
<path d="M46108 39901
L46108 41398
" />
<path d="M46108 41398
L44691 41398
" />
<path d="M40789 47300
L40789 46000
" />
<path d="M40789 46000
L40226 46000
" />
<path d="M40226 46000
L40226 45823
" />
<path d="M40226 45823
L40049 45823
" />
<path d="M40049 45823
L40049 45260
" />
<path d="M40049 45260
L38750 45260
" />
<path d="M40789 47300
L40789 48599
" />
<path d="M40789 48599
L40226 48599
" />
<path d="M40226 48599
L40226 48776
" />
<path d="M40226 48776
L40049 48776
" />
<path d="M40049 48776
L40049 49339
" />
<path d="M40049 49339
L38750 49339
" />
<path d="M36710 47300
L36710 46000
" />
<path d="M36710 46000
L37273 46000
" />
<path d="M37273 46000
L37273 45823
" />
<path d="M37273 45823
L37450 45823
" />
<path d="M37450 45823
L37450 45260
" />
<path d="M37450 45260
L38750 45260
" />
<path d="M36710 47300
L36710 48599
" />
<path d="M36710 48599
L37273 48599
" />
<path d="M37273 48599
L37273 48776
" />
<path d="M37273 48776
L37450 48776
" />
<path d="M37450 48776
L37450 49339
" />
<path d="M37450 49339
L38750 49339
" />
<path d="M35333 34284
L35333 36158
" />
<path d="M35333 34284
L33916 34284
" />
<path d="M33916 36158
L35333 36158
" />
<path d="M33916 36158
L33916 34284
" />
<path d="M43508 34262
L43508 36137
" />
<path d="M43508 34262
L42091 34262
" />
<path d="M42091 36137
L43508 36137
" />
<path d="M42091 36137
L42091 34262
" />
<path d="M51508 34262
L51508 36137
" />
<path d="M51508 34262
L50091 34262
" />
<path d="M50091 36137
L51508 36137
" />
<path d="M50091 36137
L50091 34262
" />
<path d="M21732 33582
L18267 33582
" />
<path d="M21732 36417
L21732 33582
" />
<path d="M18267 36417
L21732 36417
" />
<path d="M18267 33582
L18267 36417
" />
<path d="M52575 36721
L53324 36721
" />
<path d="M53324 36721
L53324 38178
" />
<path d="M53324 38178
L52575 38178
" />
<path d="M52575 38178
L52575 36721
" />
<path d="M28375 36671
L29124 36671
" />
<path d="M29124 36671
L29124 38128
" />
<path d="M29124 38128
L28375 38128
" />
<path d="M28375 38128
L28375 36671
" />
<path d="M36425 36721
L37174 36721
" />
<path d="M37174 36721
L37174 38178
" />
<path d="M37174 38178
L36425 38178
" />
<path d="M36425 38178
L36425 36721
" />
<path d="M44725 36721
L45474 36721
" />
<path d="M45474 36721
L45474 38178
" />
<path d="M45474 38178
L44725 38178
" />
<path d="M44725 38178
L44725 36721
" />
<path d="M22092 37050
L22092 38349
" />
<path d="M22092 37050
L21107 37050
" />
<path d="M21107 38349
L22092 38349
" />
<path d="M21107 38349
L21107 37050
" />
<path d="M41558 49591
L36145 49591
" />
<path d="M36145 49591
L36145 51008
" />
<path d="M36145 51008
L41558 51008
" />
<path d="M41558 51008
L41558 49591
" />
<path d="M21825 41321
L22574 41321
" />
<path d="M22574 41321
L22574 42778
" />
<path d="M22574 42778
L21825 42778
" />
<path d="M21825 42778
L21825 41321
" />
<path d="M19721 40424
L19721 39675
" />
<path d="M19721 39675
L21178 39675
" />
<path d="M21178 39675
L21178 40424
" />
<path d="M21178 40424
L19721 40424
" />
<path d="M53575 36721
L54324 36721
" />
<path d="M54324 36721
L54324 38178
" />
<path d="M54324 38178
L53575 38178
" />
<path d="M53575 38178
L53575 36721
" />
<path d="M52621 39524
L52621 38775
" />
<path d="M52621 38775
L54078 38775
" />
<path d="M54078 38775
L54078 39524
" />
<path d="M54078 39524
L52621 39524
" />
<path d="M29375 36671
L30124 36671
" />
<path d="M30124 36671
L30124 38128
" />
<path d="M30124 38128
L29375 38128
" />
<path d="M29375 38128
L29375 36671
" />
<path d="M28371 39524
L28371 38775
" />
<path d="M28371 38775
L29828 38775
" />
<path d="M29828 38775
L29828 39524
" />
<path d="M29828 39524
L28371 39524
" />
<path d="M37425 36721
L38174 36721
" />
<path d="M38174 36721
L38174 38178
" />
<path d="M38174 38178
L37425 38178
" />
<path d="M37425 38178
L37425 36721
" />
<path d="M36421 39574
L36421 38825
" />
<path d="M36421 38825
L37878 38825
" />
<path d="M37878 38825
L37878 39574
" />
<path d="M37878 39574
L36421 39574
" />
<path d="M45675 36721
L46424 36721
" />
<path d="M46424 36721
L46424 38178
" />
<path d="M46424 38178
L45675 38178
" />
<path d="M45675 38178
L45675 36721
" />
<path d="M44671 39524
L44671 38775
" />
<path d="M44671 38775
L46128 38775
" />
<path d="M46128 38775
L46128 39524
" />
<path d="M46128 39524
L44671 39524
" />
<path d="M19559 37035
L20440 37035
" />
<path d="M20440 37035
L20440 38964
" />
<path d="M20440 38964
L19559 38964
" />
<path d="M19559 38964
L19559 37035
" />
<path d="M20440 32964
L19559 32964
" />
<path d="M19559 32964
L19559 31035
" />
<path d="M19559 31035
L20440 31035
" />
<path d="M20440 31035
L20440 32964
" />
<path d="M35775 34471
L36524 34471
" />
<path d="M36524 34471
L36524 35928
" />
<path d="M36524 35928
L35775 35928
" />
<path d="M35775 35928
L35775 34471
" />
<path d="M33921 34074
L33921 33325
" />
<path d="M33921 33325
L35378 33325
" />
<path d="M35378 33325
L35378 34074
" />
<path d="M35378 34074
L33921 34074
" />
<path d="M43925 34471
L44674 34471
" />
<path d="M44674 34471
L44674 35928
" />
<path d="M44674 35928
L43925 35928
" />
<path d="M43925 35928
L43925 34471
" />
<path d="M42071 34074
L42071 33325
" />
<path d="M42071 33325
L43528 33325
" />
<path d="M43528 33325
L43528 34074
" />
<path d="M43528 34074
L42071 34074
" />
<path d="M51925 34471
L52674 34471
" />
<path d="M52674 34471
L52674 35928
" />
<path d="M52674 35928
L51925 35928
" />
<path d="M51925 35928
L51925 34471
" />
<path d="M50121 34074
L50121 33325
" />
<path d="M50121 33325
L51578 33325
" />
<path d="M51578 33325
L51578 34074
" />
<path d="M51578 34074
L50121 34074
" />
<path d="M52424 43678
L51675 43678
" />
<path d="M51675 43678
L51675 42221
" />
<path d="M51675 42221
L52424 42221
" />
<path d="M52424 42221
L52424 43678
" />
<path d="M18774 45528
L18025 45528
" />
<path d="M18025 45528
L18025 44071
" />
<path d="M18025 44071
L18774 44071
" />
<path d="M18774 44071
L18774 45528
" />
<path d="M22221 44074
L22221 43325
" />
<path d="M22221 43325
L23678 43325
" />
<path d="M23678 43325
L23678 44074
" />
<path d="M23678 44074
L22221 44074
" />
<path d="M21906 45512
L21906 43387
" />
<path d="M21906 43387
L18993 43387
" />
<path d="M18993 43387
L18993 45512
" />
<path d="M18993 45512
L21906 45512
" />
<path d="M27162 38693
L25037 38693
" />
<path d="M25037 38693
L25037 41606
" />
<path d="M25037 41606
L27162 41606
" />
<path d="M27162 41606
L27162 38693
" />
<path d="M35212 38743
L33087 38743
" />
<path d="M33087 38743
L33087 41656
" />
<path d="M33087 41656
L35212 41656
" />
<path d="M35212 41656
L35212 38743
" />
<path d="M43362 38743
L41237 38743
" />
<path d="M41237 38743
L41237 41656
" />
<path d="M41237 41656
L43362 41656
" />
<path d="M43362 41656
L43362 38743
" />
<path d="M51362 38743
L49237 38743
" />
<path d="M49237 38743
L49237 41656
" />
<path d="M49237 41656
L51362 41656
" />
<path d="M51362 41656
L51362 38743
" />
<path d="M22221 45074
L22221 44325
" />
<path d="M22221 44325
L23678 44325
" />
<path d="M23678 44325
L23678 45074
" />
<path d="M23678 45074
L22221 45074
" />
<path d="M28224 38128
L27475 38128
" />
<path d="M27475 38128
L27475 36671
" />
<path d="M27475 36671
L28224 36671
" />
<path d="M28224 36671
L28224 38128
" />
<path d="M26475 36671
L27224 36671
" />
<path d="M27224 36671
L27224 38128
" />
<path d="M27224 38128
L26475 38128
" />
<path d="M26475 38128
L26475 36671
" />
<path d="M36274 38178
L35525 38178
" />
<path d="M35525 38178
L35525 36721
" />
<path d="M35525 36721
L36274 36721
" />
<path d="M36274 36721
L36274 38178
" />
<path d="M34525 36721
L35274 36721
" />
<path d="M35274 36721
L35274 38178
" />
<path d="M35274 38178
L34525 38178
" />
<path d="M34525 38178
L34525 36721
" />
<path d="M44424 38178
L43675 38178
" />
<path d="M43675 38178
L43675 36721
" />
<path d="M43675 36721
L44424 36721
" />
<path d="M44424 36721
L44424 38178
" />
<path d="M42675 36721
L43424 36721
" />
<path d="M43424 36721
L43424 38178
" />
<path d="M43424 38178
L42675 38178
" />
<path d="M42675 38178
L42675 36721
" />
<path d="M52424 38178
L51675 38178
" />
<path d="M51675 38178
L51675 36721
" />
<path d="M51675 36721
L52424 36721
" />
<path d="M52424 36721
L52424 38178
" />
<path d="M50675 36721
L51424 36721
" />
<path d="M51424 36721
L51424 38178
" />
<path d="M51424 38178
L50675 38178
" />
<path d="M50675 38178
L50675 36721
" />
<path d="M28224 43628
L27475 43628
" />
<path d="M27475 43628
L27475 42171
" />
<path d="M27475 42171
L28224 42171
" />
<path d="M28224 42171
L28224 43628
" />
<path d="M36274 43678
L35525 43678
" />
<path d="M35525 43678
L35525 42221
" />
<path d="M35525 42221
L36274 42221
" />
<path d="M36274 42221
L36274 43678
" />
<path d="M44424 43678
L43675 43678
" />
<path d="M43675 43678
L43675 42221
" />
<path d="M43675 42221
L44424 42221
" />
<path d="M44424 42221
L44424 43678
" />
<path d="M20797 32866
L20797 31133
" />
<path d="M20797 31133
L21702 31133
" />
<path d="M21702 31133
L21702 32866
" />
<path d="M20797 32866
L21702 32866
" />
<path d="M26224 43628
L25475 43628
" />
<path d="M25475 43628
L25475 42171
" />
<path d="M25475 42171
L26224 42171
" />
<path d="M26224 42171
L26224 43628
" />
<path d="M26475 42171
L27224 42171
" />
<path d="M27224 42171
L27224 43628
" />
<path d="M27224 43628
L26475 43628
" />
<path d="M26475 43628
L26475 42171
" />
<path d="M25724 38128
L24975 38128
" />
<path d="M24975 38128
L24975 36671
" />
<path d="M24975 36671
L25724 36671
" />
<path d="M25724 36671
L25724 38128
" />
<path d="M34274 43678
L33525 43678
" />
<path d="M33525 43678
L33525 42221
" />
<path d="M33525 42221
L34274 42221
" />
<path d="M34274 42221
L34274 43678
" />
<path d="M34525 42221
L35274 42221
" />
<path d="M35274 42221
L35274 43678
" />
<path d="M35274 43678
L34525 43678
" />
<path d="M34525 43678
L34525 42221
" />
<path d="M33774 38178
L33025 38178
" />
<path d="M33025 38178
L33025 36721
" />
<path d="M33025 36721
L33774 36721
" />
<path d="M33774 36721
L33774 38178
" />
<path d="M42424 43678
L41675 43678
" />
<path d="M41675 43678
L41675 42221
" />
<path d="M41675 42221
L42424 42221
" />
<path d="M42424 42221
L42424 43678
" />
<path d="M42675 42221
L43424 42221
" />
<path d="M43424 42221
L43424 43678
" />
<path d="M43424 43678
L42675 43678
" />
<path d="M42675 43678
L42675 42221
" />
<path d="M41924 38178
L41175 38178
" />
<path d="M41175 38178
L41175 36721
" />
<path d="M41175 36721
L41924 36721
" />
<path d="M41924 36721
L41924 38178
" />
<path d="M50424 43678
L49675 43678
" />
<path d="M49675 43678
L49675 42221
" />
<path d="M49675 42221
L50424 42221
" />
<path d="M50424 42221
L50424 43678
" />
<path d="M50675 42221
L51424 42221
" />
<path d="M51424 42221
L51424 43678
" />
<path d="M51424 43678
L50675 43678
" />
<path d="M50675 43678
L50675 42221
" />
<path d="M49924 38178
L49175 38178
" />
<path d="M49175 38178
L49175 36721
" />
<path d="M49175 36721
L49924 36721
" />
<path d="M49924 36721
L49924 38178
" />
<path d="M18309 37035
L19190 37035
" />
<path d="M19190 37035
L19190 38964
" />
<path d="M19190 38964
L18309 38964
" />
<path d="M18309 38964
L18309 37035
" />
<path d="M19190 32964
L18309 32964
" />
<path d="M18309 32964
L18309 31035
" />
<path d="M18309 31035
L19190 31035
" />
<path d="M19190 31035
L19190 32964
" />
<path d="M21143 25778
L21143 25679
" />
<path d="M21143 25679
L15238 25679
" />
<path d="M21143 25778
L21143 26762
" />
<path d="M21143 26762
L21537 26762
" />
<path d="M21537 26762
L21537 28337
" />
<path d="M21537 28337
L21143 28337
" />
<path d="M21143 28337
L21143 29420
" />
<path d="M21143 29420
L20356 29420
" />
<path d="M20356 29420
L20356 30207
" />
<path d="M20356 30207
L18781 30207
" />
<path d="M18781 30207
L18781 29420
" />
<path d="M18781 29420
L15238 29420
" />
<path d="M15238 29420
L15238 25679
" />
<g >
</g>
<g >
</g>
<g >
</g>
<g >
</g>
<g >
</g>
<g >
</g>
<g >
</g>
<g >
</g>
<g >
</g>
<g >
</g>
<g >
</g>
<g >
</g>
<g >
</g>
<g >
</g>
<g >
</g>
<g >
</g>
<g >
</g>
<g >
</g>
<g >
</g>
<g >
</g>
<g >
</g>
<g >
</g>
<g >
</g>
<g >
</g>
<g >
</g>
<g >
</g>
<g >
</g>
<g >
</g>
<g >
</g>
<g >
</g>
<g >
</g>
<g >
</g>
<g >
</g>
<g >
</g>
<g >
</g>
<g >
</g>
<g >
</g>
<g >
</g>
<g >
</g>
<g >
</g>
<g >
</g>
<g >
</g>
<g >
</g>
<g >
</g>
<g >
</g>
<g >
</g>
<g >
</g>
<g >
</g>
<g >
</g>
<g >
</g>
<g >
</g>
<g >
</g>
<g >
</g>
<g >
</g>
<g >
</g>
<g >
</g>
<g >
</g>
<g >
</g>
<g >
</g>
<g >
</g>
<g >
</g>
<g >
</g>
<g >
</g>
<g >
</g>
<g >
</g>
<g >
</g>
<g >
</g>
<g >
</g>
<g >
</g>
<g >
</g>
<g >
</g>
<g >
</g>
<g >
</g>
<g >
</g>
<g >
</g>
<g >
</g>
<g >
</g>
<g >
</g>
<g >
</g>
<g >
</g>
<g >
</g>
<g >
</g>
<g >
</g>
<g >
</g>
<g >
</g>
<g >
</g>
<g >
</g>
<g >
</g>
<g >
</g>
<g >
</g>
<g >
</g>
<g >
</g>
<g >
</g>
<g >
</g>
<g >
</g>
<g >
</g>
<g >
</g>
<g >
</g>
<g >
</g>
<g >
</g>
<g >
</g>
<g >
</g>
<g >
</g>
<g >
</g>
<g >
</g>
<g >
</g>
<g >
</g>
<g >
</g>
<g >
</g>
<g >
</g>
<g >
</g>
<g >
</g>
<g >
</g>
<g >
</g>
<g >
</g>
<g >
</g>
</g>
<g style="fill:#000000; fill-opacity:0.0; 
stroke:#000000; stroke-width:19.685; stroke-opacity:1; 
stroke-linecap:round; stroke-linejoin:round;">
</g>
<g style="fill:#C2C2C2; fill-opacity:0.0; 
stroke:#C2C2C2; stroke-width:19.685; stroke-opacity:1; 
stroke-linecap:round; stroke-linejoin:round;">
</g>
<g style="fill:#C2C2C2; fill-opacity:0.0; 
stroke:#C2C2C2; stroke-width:59.0551; stroke-opacity:1; 
stroke-linecap:round; stroke-linejoin:round;">
<text x="54700" y="25346.9"
textLength="1014.15" font-size="524.934" lengthAdjust="spacingAndGlyphs"
text-anchor="middle" opacity="0">6.2</text>
<path d="M54493 24934
L54418 24934
L54381 24953
L54362 24971
L54325 25028
L54306 25103
L54306 25253
L54325 25290
L54343 25309
L54381 25328
L54456 25328
L54493 25309
L54512 25290
L54531 25253
L54531 25159
L54512 25121
L54493 25103
L54456 25084
L54381 25084
L54343 25103
L54325 25121
L54306 25159
" />
<path d="M54700 25290
L54718 25309
L54700 25328
L54681 25309
L54700 25290
L54700 25328
" />
<path d="M54868 24971
L54887 24953
L54924 24934
L55018 24934
L55056 24953
L55074 24971
L55093 25009
L55093 25046
L55074 25103
L54849 25328
L55093 25328
" />
<text x="46625" y="25471.9"
textLength="1014.15" font-size="524.934" lengthAdjust="spacingAndGlyphs"
text-anchor="middle" opacity="0">6.2</text>
<path d="M46418 25059
L46343 25059
L46306 25078
L46287 25096
L46250 25153
L46231 25228
L46231 25378
L46250 25415
L46268 25434
L46306 25453
L46381 25453
L46418 25434
L46437 25415
L46456 25378
L46456 25284
L46437 25246
L46418 25228
L46381 25209
L46306 25209
L46268 25228
L46250 25246
L46231 25284
" />
<path d="M46625 25415
L46643 25434
L46625 25453
L46606 25434
L46625 25415
L46625 25453
" />
<path d="M46793 25096
L46812 25078
L46849 25059
L46943 25059
L46981 25078
L46999 25096
L47018 25134
L47018 25171
L46999 25228
L46774 25453
L47018 25453
" />
<text x="38650" y="25396.9"
textLength="1014.15" font-size="524.934" lengthAdjust="spacingAndGlyphs"
text-anchor="middle" opacity="0">6.2</text>
<path d="M38443 24984
L38368 24984
L38331 25003
L38312 25021
L38275 25078
L38256 25153
L38256 25303
L38275 25340
L38293 25359
L38331 25378
L38406 25378
L38443 25359
L38462 25340
L38481 25303
L38481 25209
L38462 25171
L38443 25153
L38406 25134
L38331 25134
L38293 25153
L38275 25171
L38256 25209
" />
<path d="M38650 25340
L38668 25359
L38650 25378
L38631 25359
L38650 25340
L38650 25378
" />
<path d="M38818 25021
L38837 25003
L38874 24984
L38968 24984
L39006 25003
L39024 25021
L39043 25059
L39043 25096
L39024 25153
L38799 25378
L39043 25378
" />
<text x="30650" y="25396.9"
textLength="1014.15" font-size="524.934" lengthAdjust="spacingAndGlyphs"
text-anchor="middle" opacity="0">6.2</text>
<path d="M30443 24984
L30368 24984
L30331 25003
L30312 25021
L30275 25078
L30256 25153
L30256 25303
L30275 25340
L30293 25359
L30331 25378
L30406 25378
L30443 25359
L30462 25340
L30481 25303
L30481 25209
L30462 25171
L30443 25153
L30406 25134
L30331 25134
L30293 25153
L30275 25171
L30256 25209
" />
<path d="M30650 25340
L30668 25359
L30650 25378
L30631 25359
L30650 25340
L30650 25378
" />
<path d="M30818 25021
L30837 25003
L30874 24984
L30968 24984
L31006 25003
L31024 25021
L31043 25059
L31043 25096
L31024 25153
L30799 25378
L31043 25378
" />
<path d="M54300 26425
L53600 26425
" />
<path d="M54300 23950
L53600 23950
" />
<path d="M53950 23950
L53950 26425
" />
<path d="M46300 26425
L45600 26425
" />
<path d="M46300 23950
L45600 23950
" />
<path d="M45950 23950
L45950 26425
" />
<path d="M38300 26425
L37600 26425
" />
<path d="M38300 23950
L37600 23950
" />
<path d="M37950 23950
L37950 26425
" />
<path d="M-29475 18475
L-30175 18475
" />
<path d="M-29475 16000
L-30175 16000
" />
<path d="M-29825 16000
L-29825 18475
" />
<path d="M30225 23975
L29525 23975
" />
<path d="M29875 23975
L29875 26450
" />
<path d="M30225 26450
L29525 26450
" />
<path d="M8325 50350
L9025 50350
" />
<path d="M8675 50350
L8675 45950
" />
<path d="M8325 45950
L9025 45950
" />
<text x="7425" y="48346.9"
textLength="1389.11" font-size="524.934" lengthAdjust="spacingAndGlyphs"
text-anchor="middle" opacity="0">11.2</text>
<path d="M7068 48328
L6843 48328
" />
<path d="M6956 48328
L6956 47934
L6918 47990
L6881 48028
L6843 48046
" />
<path d="M7443 48328
L7218 48328
" />
<path d="M7331 48328
L7331 47934
L7293 47990
L7256 48028
L7218 48046
" />
<path d="M7612 48290
L7631 48309
L7612 48328
L7593 48309
L7612 48290
L7612 48328
" />
<path d="M7781 47971
L7799 47953
L7837 47934
L7931 47934
L7968 47953
L7987 47971
L8006 48009
L8006 48046
L7987 48103
L7762 48328
L8006 48328
" />
<text x="50950" y="14196.9"
textLength="1389.11" font-size="524.934" lengthAdjust="spacingAndGlyphs"
text-anchor="middle" opacity="0">11.2</text>
<path d="M50593 14178
L50368 14178
" />
<path d="M50481 14178
L50481 13784
L50443 13840
L50406 13878
L50368 13896
" />
<path d="M50968 14178
L50743 14178
" />
<path d="M50856 14178
L50856 13784
L50818 13840
L50781 13878
L50743 13896
" />
<path d="M51137 14140
L51156 14159
L51137 14178
L51118 14159
L51137 14140
L51137 14178
" />
<path d="M51306 13821
L51324 13803
L51362 13784
L51456 13784
L51493 13803
L51512 13821
L51531 13859
L51531 13896
L51512 13953
L51287 14178
L51531 14178
" />
<text x="42800" y="14196.9"
textLength="1389.11" font-size="524.934" lengthAdjust="spacingAndGlyphs"
text-anchor="middle" opacity="0">11.2</text>
<path d="M42443 14178
L42218 14178
" />
<path d="M42331 14178
L42331 13784
L42293 13840
L42256 13878
L42218 13896
" />
<path d="M42818 14178
L42593 14178
" />
<path d="M42706 14178
L42706 13784
L42668 13840
L42631 13878
L42593 13896
" />
<path d="M42987 14140
L43006 14159
L42987 14178
L42968 14159
L42987 14140
L42987 14178
" />
<path d="M43156 13821
L43174 13803
L43212 13784
L43306 13784
L43343 13803
L43362 13821
L43381 13859
L43381 13896
L43362 13953
L43137 14178
L43381 14178
" />
<text x="34800" y="14196.9"
textLength="1389.11" font-size="524.934" lengthAdjust="spacingAndGlyphs"
text-anchor="middle" opacity="0">11.2</text>
<path d="M34443 14178
L34218 14178
" />
<path d="M34331 14178
L34331 13784
L34293 13840
L34256 13878
L34218 13896
" />
<path d="M34818 14178
L34593 14178
" />
<path d="M34706 14178
L34706 13784
L34668 13840
L34631 13878
L34593 13896
" />
<path d="M34987 14140
L35006 14159
L34987 14178
L34968 14159
L34987 14140
L34987 14178
" />
<path d="M35156 13821
L35174 13803
L35212 13784
L35306 13784
L35343 13803
L35362 13821
L35381 13859
L35381 13896
L35362 13953
L35137 14178
L35381 14178
" />
<text x="26450" y="14196.9"
textLength="1389.11" font-size="524.934" lengthAdjust="spacingAndGlyphs"
text-anchor="middle" opacity="0">11.2</text>
<path d="M26093 14178
L25868 14178
" />
<path d="M25981 14178
L25981 13784
L25943 13840
L25906 13878
L25868 13896
" />
<path d="M26468 14178
L26243 14178
" />
<path d="M26356 14178
L26356 13784
L26318 13840
L26281 13878
L26243 13896
" />
<path d="M26637 14140
L26656 14159
L26637 14178
L26618 14159
L26637 14140
L26637 14178
" />
<path d="M26806 13821
L26824 13803
L26862 13784
L26956 13784
L26993 13803
L27012 13821
L27031 13859
L27031 13896
L27012 13953
L26787 14178
L27031 14178
" />
<path d="M24400 14600
L24400 15300
" />
<path d="M24400 14950
L28800 14950
" />
<path d="M28800 14600
L28800 15300
" />
<path d="M32500 14600
L32500 15300
" />
<path d="M32500 14950
L36900 14950
" />
<path d="M36900 14600
L36900 15300
" />
<path d="M40600 14600
L40600 15300
" />
<path d="M40600 14950
L45000 14950
" />
<path d="M45000 14600
L45000 15300
" />
<path d="M53100 14600
L53100 15300
" />
<path d="M48700 14600
L48700 15300
" />
<path d="M48700 14950
L53100 14950
" />
<circle cx="50900" cy="25200" r="1220.66" /> 
<circle cx="42800" cy="25200" r="1220.66" /> 
<circle cx="34700" cy="25200" r="1220.66" /> 
<circle cx="26600" cy="25200" r="1220.66" /> 
</g>
<g style="fill:#C2C2C2; fill-opacity:0.0; 
stroke:#C2C2C2; stroke-width:47.2441; stroke-opacity:1; 
stroke-linecap:round; stroke-linejoin:round;">
<path d="M58250 55525
L58500 55275
" />
<path d="M60900 53000
L60650 53250
" />
<path d="M60650 23725
L60900 23975
" />
<path d="M58500 21750
L58250 21500
" />
<path d="M16600 24000
L16850 23750
" />
<path d="M19000 21750
L19250 21500
" />
<path d="M19000 55275
L19250 55525
" />
<path d="M16600 53000
L16850 53250
" />
<path d="M58500 23725
L58500 21750
" />
<path d="M60650 23725
L58500 23725
" />
<path d="M58500 53250
L60650 53250
" />
<path d="M58500 55275
L58500 53250
" />
<path d="M19000 53250
L19000 55275
" />
<path d="M16850 53250
L19000 53250
" />
<path d="M19000 23750
L19000 21750
" />
<path d="M16850 23750
L19000 23750
" />
<path d="M19250 55525
L58250 55525
" />
<path d="M60900 23975
L60900 53000
" />
<path d="M16600 24000
L16600 53000
" />
<path d="M19250 21500
L58250 21500
" />
</g>
<g style="fill:#C2C2C2; fill-opacity:0.0; 
stroke:#C2C2C2; stroke-width:59.0551; stroke-opacity:1; 
stroke-linecap:round; stroke-linejoin:round;">
<path d="M24400 18050
L28800 18050
" />
<path d="M24400 18050
L24400 30050
" />
<path d="M28800 18050
L28800 30050
" />
<path d="M26600 21550
L26600 30050
" />
<path d="M32500 18050
L36900 18050
" />
<path d="M32500 18050
L32500 30050
" />
<path d="M36900 18050
L36900 30050
" />
<path d="M34700 21550
L34700 30050
" />
<path d="M40600 18050
L45000 18050
" />
<path d="M40600 18050
L40600 30050
" />
<path d="M45000 18050
L45000 30050
" />
<path d="M42800 21550
L42800 30050
" />
<path d="M48700 18050
L53100 18050
" />
<path d="M48700 18050
L48700 30050
" />
<path d="M53100 18050
L53100 30050
" />
<path d="M50900 21550
L50900 30050
" />
<path d="M13250 50350
L13250 45950
" />
<path d="M13250 50350
L25250 50350
" />
<path d="M13250 45950
L25250 45950
" />
<path d="M16750 48150
L25250 48150
" />
<g >
</g>
<g >
</g>
<g >
</g>
<g >
</g>
<g >
</g>
<g >
</g>
<g >
</g>
<g >
</g>
<g >
</g>
<g >
</g>
<g >
</g>
<g >
</g>
<g >
</g>
<g >
</g>
<g >
</g>
<g >
</g>
<g >
</g>
<g >
</g>
<g >
</g>
<g >
</g>
<g >
</g>
<g >
</g>
<g >
</g>
<g >
</g>
<g >
</g>
<g >
</g>
<g >
</g>
<g >
</g>
<g >
</g>
<g >
</g>
<g >
</g>
<g >
</g>
<g >
</g>
<g >
</g>
<g >
</g>
<g >
</g>
<g >
</g>
<g >
</g>
<g >
</g>
<g >
</g>
<g >
</g>
<g >
</g>
<g >
</g>
<g >
</g>
<g >
</g>
<g >
</g>
<g >
</g>
<g >
</g>
<g >
</g>
<g >
</g>
<g >
</g>
<g >
</g>
<g >
</g>
<g >
</g>
<g >
</g>
<g >
</g>
<g >
</g>
<g >
</g>
<g >
</g>
<g >
</g>
<g >
</g>
<g >
</g>
<g >
</g>
<g >
</g>
<g >
</g>
<g >
</g>
<g >
</g>
<g >
</g>
<g >
</g>
<g >
</g>
<g >
</g>
<g >
</g>
<g >
</g>
<g >
</g>
<g >
</g>
<g >
</g>
<g >
</g>
<g >
</g>
<g >
</g>
<g >
</g>
<g >
</g>
<g >
</g>
<g >
</g>
<g >
</g>
<g >
</g>
<g >
</g>
<g >
</g>
<g >
</g>
<g >
</g>
<g >
</g>
<g >
</g>
<g >
</g>
<g >
</g>
<g >
</g>
<g >
</g>
<g >
</g>
<g >
</g>
<g >
</g>
<g >
</g>
<g >
</g>
<g >
</g>
<g >
</g>
<g >
</g>
<g >
</g>
<g >
</g>
<g >
</g>
<g >
</g>
<g >
</g>
<g >
</g>
<g >
</g>
<g >
</g>
<g >
</g>
<g >
</g>
<g >
</g>
<g >
</g>
<g >
</g>
</g>
<g style="fill:#000000; fill-opacity:0.0; 
stroke:#000000; stroke-width:59.0551; stroke-opacity:1; 
stroke-linecap:round; stroke-linejoin:round;">
</g>
<g style="fill:#C2C200; fill-opacity:0.0; 
stroke:#C2C200; stroke-width:59.0551; stroke-opacity:1; 
stroke-linecap:round; stroke-linejoin:round;">
</g>
<g style="fill:#C2C200; fill-opacity:0.0; 
stroke:#C2C200; stroke-width:19.685; stroke-opacity:1; 
stroke-linecap:round; stroke-linejoin:round;">
<path d="M58500 55250
L58250 55500
" />
<path d="M58500 53250
L58500 55250
" />
<path d="M60650 53250
L58500 53250
" />
<path d="M60900 53000
L60650 53250
" />
<path d="M60900 24000
L60900 53000
" />
<path d="M60650 23750
L60900 24000
" />
<path d="M58500 23750
L60650 23750
" />
<path d="M58500 21725
L58500 23750
" />
<path d="M58250 21475
L58500 21725
" />
<path d="M19250 21475
L58250 21475
" />
<path d="M19000 21725
L19250 21475
" />
<path d="M19000 23750
L19000 21725
" />
<path d="M16850 23750
L19000 23750
" />
<path d="M16600 24000
L16850 23750
" />
<path d="M16600 53025
L16600 24000
" />
<path d="M16850 53275
L16600 53025
" />
<path d="M19000 53275
L16850 53275
" />
<path d="M19000 55250
L19000 53275
" />
<path d="M19250 55500
L19000 55250
" />
<path d="M58250 55500
L19250 55500
" />
<g >
</g>
<g >
</g>
<g >
</g>
<g >
</g>
<g >
</g>
<g >
</g>
<g >
</g>
<g >
</g>
<g >
</g>
<g >
</g>
<g >
</g>
<g >
</g>
<g >
</g>
<g >
</g>
<g >
</g>
<g >
</g>
<g >
</g>
<g >
</g>
<g >
</g>
<g >
</g>
<g >
</g>
<g >
</g>
<g >
</g>
<g >
</g>
<g >
</g>
<g >
</g>
<g >
</g>
<g >
</g>
<g >
</g>
<g >
</g>
<g >
</g>
<g >
</g>
<g >
</g>
<g >
</g>
<g >
</g>
<g >
</g>
<g >
</g>
<g >
</g>
<g >
</g>
<g >
</g>
<g >
</g>
<g >
</g>
<g >
</g>
<g >
</g>
<g >
</g>
<g >
</g>
<g >
</g>
<g >
</g>
<g >
</g>
<g >
</g>
<g >
</g>
<g >
</g>
<g >
</g>
<g >
</g>
<g >
</g>
<g >
</g>
<g >
</g>
<g >
</g>
<g >
</g>
<g >
</g>
<g >
</g>
<g >
</g>
<g >
</g>
<g >
</g>
<g >
</g>
<g >
</g>
<g >
</g>
<g >
</g>
<g >
</g>
<g >
</g>
<g >
</g>
<g >
</g>
<g >
</g>
<g >
</g>
<g >
</g>
<g >
</g>
<g >
</g>
<g >
</g>
<g >
</g>
<g >
</g>
<g >
</g>
<g >
</g>
<g >
</g>
<g >
</g>
<g >
</g>
<g >
</g>
<g >
</g>
<g >
</g>
<g >
</g>
<g >
</g>
<g >
</g>
<g >
</g>
<g >
</g>
<g >
</g>
<g >
</g>
<g >
</g>
<g >
</g>
<g >
</g>
<g >
</g>
<g >
</g>
<g >
</g>
<g >
</g>
<g >
</g>
<g >
</g>
<g >
</g>
<g >
</g>
<g >
</g>
<g >
</g>
<g >
</g>
<g >
</g>
<g >
</g>
<g >
</g>
<g >
</g>
<g >
</g>
<g >
</g>
<g >
</g>
</g> 
</svg>
