<?xml version="1.0" standalone="no"?>
 <!DOCTYPE svg PUBLIC "-//W3C//DTD SVG 1.1//EN" 
 "http://www.w3.org/Graphics/SVG/1.1/DTD/svg11.dtd"> 
<svg
  xmlns:svg="http://www.w3.org/2000/svg"
  xmlns="http://www.w3.org/2000/svg"
  xmlns:xlink="http://www.w3.org/1999/xlink"
  version="1.1"
  width="29.700220cm" height="21.000720cm" viewBox="0 0 116930 82680">
<title>SVG Picture created as OutputStage-OutputStage.svg date 2020/09/23 23:47:11 </title>
  <desc>Picture generated by Eeschema-SVG </desc>
<g style="fill:#000000; fill-opacity:1;stroke:#000000; stroke-opacity:1;
stroke-linecap:round; stroke-linejoin:round;"
 transform="translate(0 0) scale(1 1)">
</g>
<g style="fill:#000000; fill-opacity:0.0; 
stroke:#000000; stroke-width:-10; stroke-opacity:1; 
stroke-linecap:round; stroke-linejoin:round;">
</g>
<g style="fill:#840000; fill-opacity:0.0; 
stroke:#840000; stroke-width:-10; stroke-opacity:1; 
stroke-linecap:round; stroke-linejoin:round;">
</g>
<g style="fill:#840000; fill-opacity:0.0; 
stroke:#840000; stroke-width:100; stroke-opacity:1; 
stroke-linecap:round; stroke-linejoin:round;">
</g>
<g style="fill:#840000; fill-opacity:0.0; 
stroke:#840000; stroke-width:60; stroke-opacity:1; 
stroke-linecap:round; stroke-linejoin:round;">
<rect x="69690" y="65360" width="42520" height="12600" rx="0" />
</g>
<g style="fill:#840000; fill-opacity:0.0; 
stroke:#840000; stroke-width:100; stroke-opacity:1; 
stroke-linecap:round; stroke-linejoin:round;">
</g>
<g style="fill:#840000; fill-opacity:0.0; 
stroke:#840000; stroke-width:60; stroke-opacity:1; 
stroke-linecap:round; stroke-linejoin:round;">
<rect x="3940" y="3940" width="109050" height="74800" rx="0" />
</g>
<g style="fill:#840000; fill-opacity:0.0; 
stroke:#840000; stroke-width:100; stroke-opacity:1; 
stroke-linecap:round; stroke-linejoin:round;">
</g>
<g style="fill:#840000; fill-opacity:0.0; 
stroke:#840000; stroke-width:60; stroke-opacity:1; 
stroke-linecap:round; stroke-linejoin:round;">
<rect x="4720" y="4720" width="107490" height="73240" rx="0" />
</g>
<g style="fill:#840000; fill-opacity:0.0; 
stroke:#840000; stroke-width:100; stroke-opacity:1; 
stroke-linecap:round; stroke-linejoin:round;">
</g>
<g style="fill:#840000; fill-opacity:0.0; 
stroke:#840000; stroke-width:60; stroke-opacity:1; 
stroke-linecap:round; stroke-linejoin:round;">
<path d="M23620 4720
L23620 3940
" />
</g>
<g style="fill:#840000; fill-opacity:0.0; 
stroke:#840000; stroke-width:100; stroke-opacity:1; 
stroke-linecap:round; stroke-linejoin:round;">
</g>
<g style="fill:#840000; fill-opacity:0.0; 
stroke:#840000; stroke-width:60; stroke-opacity:1; 
stroke-linecap:round; stroke-linejoin:round;">
<path d="M43310 4720
L43310 3940
" />
</g>
<g style="fill:#840000; fill-opacity:0.0; 
stroke:#840000; stroke-width:100; stroke-opacity:1; 
stroke-linecap:round; stroke-linejoin:round;">
</g>
<g style="fill:#840000; fill-opacity:0.0; 
stroke:#840000; stroke-width:60; stroke-opacity:1; 
stroke-linecap:round; stroke-linejoin:round;">
<path d="M62990 4720
L62990 3940
" />
</g>
<g style="fill:#840000; fill-opacity:0.0; 
stroke:#840000; stroke-width:100; stroke-opacity:1; 
stroke-linecap:round; stroke-linejoin:round;">
</g>
<g style="fill:#840000; fill-opacity:0.0; 
stroke:#840000; stroke-width:60; stroke-opacity:1; 
stroke-linecap:round; stroke-linejoin:round;">
<path d="M82680 4720
L82680 3940
" />
</g>
<g style="fill:#840000; fill-opacity:0.0; 
stroke:#840000; stroke-width:100; stroke-opacity:1; 
stroke-linecap:round; stroke-linejoin:round;">
</g>
<g style="fill:#840000; fill-opacity:0.0; 
stroke:#840000; stroke-width:60; stroke-opacity:1; 
stroke-linecap:round; stroke-linejoin:round;">
<path d="M102360 4720
L102360 3940
" />
</g>
<g style="fill:#840000; fill-opacity:0.0; 
stroke:#840000; stroke-width:100; stroke-opacity:1; 
stroke-linecap:round; stroke-linejoin:round;">
</g>
<g style="fill:#840000; fill-opacity:0.0; 
stroke:#840000; stroke-width:60; stroke-opacity:1; 
stroke-linecap:round; stroke-linejoin:round;">
<text x="13780" y="4580"
textLength="550" font-size="680" lengthAdjust="spacingAndGlyphs"
text-anchor="start" opacity="0">1</text>
<path d="M14190 4560
L13900 4560
" />
<path d="M14050 4560
L14050 4050
L14000 4120
L13950 4170
L13900 4190
" />
</g>
<g style="fill:#840000; fill-opacity:0.0; 
stroke:#840000; stroke-width:100; stroke-opacity:1; 
stroke-linecap:round; stroke-linejoin:round;">
</g>
<g style="fill:#840000; fill-opacity:0.0; 
stroke:#840000; stroke-width:60; stroke-opacity:1; 
stroke-linecap:round; stroke-linejoin:round;">
<text x="33460" y="4580"
textLength="550" font-size="680" lengthAdjust="spacingAndGlyphs"
text-anchor="start" opacity="0">2</text>
<path d="M33580 4090
L33610 4070
L33660 4050
L33780 4050
L33830 4070
L33850 4090
L33870 4140
L33870 4190
L33850 4260
L33560 4560
L33870 4560
" />
</g>
<g style="fill:#840000; fill-opacity:0.0; 
stroke:#840000; stroke-width:100; stroke-opacity:1; 
stroke-linecap:round; stroke-linejoin:round;">
</g>
<g style="fill:#840000; fill-opacity:0.0; 
stroke:#840000; stroke-width:60; stroke-opacity:1; 
stroke-linecap:round; stroke-linejoin:round;">
<text x="53150" y="4580"
textLength="550" font-size="680" lengthAdjust="spacingAndGlyphs"
text-anchor="start" opacity="0">3</text>
<path d="M53250 4050
L53560 4050
L53390 4240
L53470 4240
L53520 4260
L53540 4290
L53560 4340
L53560 4460
L53540 4510
L53520 4530
L53470 4560
L53320 4560
L53270 4530
L53250 4510
" />
</g>
<g style="fill:#840000; fill-opacity:0.0; 
stroke:#840000; stroke-width:100; stroke-opacity:1; 
stroke-linecap:round; stroke-linejoin:round;">
</g>
<g style="fill:#840000; fill-opacity:0.0; 
stroke:#840000; stroke-width:60; stroke-opacity:1; 
stroke-linecap:round; stroke-linejoin:round;">
<text x="72830" y="4580"
textLength="550" font-size="680" lengthAdjust="spacingAndGlyphs"
text-anchor="start" opacity="0">4</text>
<path d="M73200 4220
L73200 4560
" />
<path d="M73070 4020
L72950 4390
L73270 4390
" />
</g>
<g style="fill:#840000; fill-opacity:0.0; 
stroke:#840000; stroke-width:100; stroke-opacity:1; 
stroke-linecap:round; stroke-linejoin:round;">
</g>
<g style="fill:#840000; fill-opacity:0.0; 
stroke:#840000; stroke-width:60; stroke-opacity:1; 
stroke-linecap:round; stroke-linejoin:round;">
<text x="92520" y="4580"
textLength="550" font-size="680" lengthAdjust="spacingAndGlyphs"
text-anchor="start" opacity="0">5</text>
<path d="M92910 4050
L92670 4050
L92640 4290
L92670 4260
L92720 4240
L92840 4240
L92890 4260
L92910 4290
L92930 4340
L92930 4460
L92910 4510
L92890 4530
L92840 4560
L92720 4560
L92670 4530
L92640 4510
" />
</g>
<g style="fill:#840000; fill-opacity:0.0; 
stroke:#840000; stroke-width:100; stroke-opacity:1; 
stroke-linecap:round; stroke-linejoin:round;">
</g>
<g style="fill:#840000; fill-opacity:0.0; 
stroke:#840000; stroke-width:60; stroke-opacity:1; 
stroke-linecap:round; stroke-linejoin:round;">
<text x="112200" y="4580"
textLength="550" font-size="680" lengthAdjust="spacingAndGlyphs"
text-anchor="start" opacity="0">6</text>
<path d="M112570 4050
L112470 4050
L112420 4070
L112400 4090
L112350 4170
L112320 4260
L112320 4460
L112350 4510
L112370 4530
L112420 4560
L112520 4560
L112570 4530
L112590 4510
L112610 4460
L112610 4340
L112590 4290
L112570 4260
L112520 4240
L112420 4240
L112370 4260
L112350 4290
L112320 4340
" />
</g>
<g style="fill:#840000; fill-opacity:0.0; 
stroke:#840000; stroke-width:100; stroke-opacity:1; 
stroke-linecap:round; stroke-linejoin:round;">
</g>
<g style="fill:#840000; fill-opacity:0.0; 
stroke:#840000; stroke-width:60; stroke-opacity:1; 
stroke-linecap:round; stroke-linejoin:round;">
<path d="M23620 77960
L23620 78740
" />
</g>
<g style="fill:#840000; fill-opacity:0.0; 
stroke:#840000; stroke-width:100; stroke-opacity:1; 
stroke-linecap:round; stroke-linejoin:round;">
</g>
<g style="fill:#840000; fill-opacity:0.0; 
stroke:#840000; stroke-width:60; stroke-opacity:1; 
stroke-linecap:round; stroke-linejoin:round;">
<path d="M43310 77960
L43310 78740
" />
</g>
<g style="fill:#840000; fill-opacity:0.0; 
stroke:#840000; stroke-width:100; stroke-opacity:1; 
stroke-linecap:round; stroke-linejoin:round;">
</g>
<g style="fill:#840000; fill-opacity:0.0; 
stroke:#840000; stroke-width:60; stroke-opacity:1; 
stroke-linecap:round; stroke-linejoin:round;">
<path d="M62990 77960
L62990 78740
" />
</g>
<g style="fill:#840000; fill-opacity:0.0; 
stroke:#840000; stroke-width:100; stroke-opacity:1; 
stroke-linecap:round; stroke-linejoin:round;">
</g>
<g style="fill:#840000; fill-opacity:0.0; 
stroke:#840000; stroke-width:60; stroke-opacity:1; 
stroke-linecap:round; stroke-linejoin:round;">
<path d="M82680 77960
L82680 78740
" />
</g>
<g style="fill:#840000; fill-opacity:0.0; 
stroke:#840000; stroke-width:100; stroke-opacity:1; 
stroke-linecap:round; stroke-linejoin:round;">
</g>
<g style="fill:#840000; fill-opacity:0.0; 
stroke:#840000; stroke-width:60; stroke-opacity:1; 
stroke-linecap:round; stroke-linejoin:round;">
<path d="M102360 77960
L102360 78740
" />
</g>
<g style="fill:#840000; fill-opacity:0.0; 
stroke:#840000; stroke-width:100; stroke-opacity:1; 
stroke-linecap:round; stroke-linejoin:round;">
</g>
<g style="fill:#840000; fill-opacity:0.0; 
stroke:#840000; stroke-width:60; stroke-opacity:1; 
stroke-linecap:round; stroke-linejoin:round;">
<text x="13780" y="78600"
textLength="550" font-size="680" lengthAdjust="spacingAndGlyphs"
text-anchor="start" opacity="0">1</text>
<path d="M14190 78580
L13900 78580
" />
<path d="M14050 78580
L14050 78070
L14000 78140
L13950 78190
L13900 78210
" />
</g>
<g style="fill:#840000; fill-opacity:0.0; 
stroke:#840000; stroke-width:100; stroke-opacity:1; 
stroke-linecap:round; stroke-linejoin:round;">
</g>
<g style="fill:#840000; fill-opacity:0.0; 
stroke:#840000; stroke-width:60; stroke-opacity:1; 
stroke-linecap:round; stroke-linejoin:round;">
<text x="33460" y="78600"
textLength="550" font-size="680" lengthAdjust="spacingAndGlyphs"
text-anchor="start" opacity="0">2</text>
<path d="M33580 78110
L33610 78090
L33660 78070
L33780 78070
L33830 78090
L33850 78110
L33870 78160
L33870 78210
L33850 78280
L33560 78580
L33870 78580
" />
</g>
<g style="fill:#840000; fill-opacity:0.0; 
stroke:#840000; stroke-width:100; stroke-opacity:1; 
stroke-linecap:round; stroke-linejoin:round;">
</g>
<g style="fill:#840000; fill-opacity:0.0; 
stroke:#840000; stroke-width:60; stroke-opacity:1; 
stroke-linecap:round; stroke-linejoin:round;">
<text x="53150" y="78600"
textLength="550" font-size="680" lengthAdjust="spacingAndGlyphs"
text-anchor="start" opacity="0">3</text>
<path d="M53250 78070
L53560 78070
L53390 78260
L53470 78260
L53520 78280
L53540 78310
L53560 78360
L53560 78480
L53540 78530
L53520 78550
L53470 78580
L53320 78580
L53270 78550
L53250 78530
" />
</g>
<g style="fill:#840000; fill-opacity:0.0; 
stroke:#840000; stroke-width:100; stroke-opacity:1; 
stroke-linecap:round; stroke-linejoin:round;">
</g>
<g style="fill:#840000; fill-opacity:0.0; 
stroke:#840000; stroke-width:60; stroke-opacity:1; 
stroke-linecap:round; stroke-linejoin:round;">
<text x="72830" y="78600"
textLength="550" font-size="680" lengthAdjust="spacingAndGlyphs"
text-anchor="start" opacity="0">4</text>
<path d="M73200 78240
L73200 78580
" />
<path d="M73070 78040
L72950 78410
L73270 78410
" />
</g>
<g style="fill:#840000; fill-opacity:0.0; 
stroke:#840000; stroke-width:100; stroke-opacity:1; 
stroke-linecap:round; stroke-linejoin:round;">
</g>
<g style="fill:#840000; fill-opacity:0.0; 
stroke:#840000; stroke-width:60; stroke-opacity:1; 
stroke-linecap:round; stroke-linejoin:round;">
<text x="92520" y="78600"
textLength="550" font-size="680" lengthAdjust="spacingAndGlyphs"
text-anchor="start" opacity="0">5</text>
<path d="M92910 78070
L92670 78070
L92640 78310
L92670 78280
L92720 78260
L92840 78260
L92890 78280
L92910 78310
L92930 78360
L92930 78480
L92910 78530
L92890 78550
L92840 78580
L92720 78580
L92670 78550
L92640 78530
" />
</g>
<g style="fill:#840000; fill-opacity:0.0; 
stroke:#840000; stroke-width:100; stroke-opacity:1; 
stroke-linecap:round; stroke-linejoin:round;">
</g>
<g style="fill:#840000; fill-opacity:0.0; 
stroke:#840000; stroke-width:60; stroke-opacity:1; 
stroke-linecap:round; stroke-linejoin:round;">
<text x="112200" y="78600"
textLength="550" font-size="680" lengthAdjust="spacingAndGlyphs"
text-anchor="start" opacity="0">6</text>
<path d="M112570 78070
L112470 78070
L112420 78090
L112400 78110
L112350 78190
L112320 78280
L112320 78480
L112350 78530
L112370 78550
L112420 78580
L112520 78580
L112570 78550
L112590 78530
L112610 78480
L112610 78360
L112590 78310
L112570 78280
L112520 78260
L112420 78260
L112370 78280
L112350 78310
L112320 78360
" />
</g>
<g style="fill:#840000; fill-opacity:0.0; 
stroke:#840000; stroke-width:100; stroke-opacity:1; 
stroke-linecap:round; stroke-linejoin:round;">
</g>
<g style="fill:#840000; fill-opacity:0.0; 
stroke:#840000; stroke-width:60; stroke-opacity:1; 
stroke-linecap:round; stroke-linejoin:round;">
<path d="M3940 23620
L4720 23620
" />
</g>
<g style="fill:#840000; fill-opacity:0.0; 
stroke:#840000; stroke-width:100; stroke-opacity:1; 
stroke-linecap:round; stroke-linejoin:round;">
</g>
<g style="fill:#840000; fill-opacity:0.0; 
stroke:#840000; stroke-width:60; stroke-opacity:1; 
stroke-linecap:round; stroke-linejoin:round;">
<path d="M3940 43310
L4720 43310
" />
</g>
<g style="fill:#840000; fill-opacity:0.0; 
stroke:#840000; stroke-width:100; stroke-opacity:1; 
stroke-linecap:round; stroke-linejoin:round;">
</g>
<g style="fill:#840000; fill-opacity:0.0; 
stroke:#840000; stroke-width:60; stroke-opacity:1; 
stroke-linecap:round; stroke-linejoin:round;">
<path d="M3940 62990
L4720 62990
" />
</g>
<g style="fill:#840000; fill-opacity:0.0; 
stroke:#840000; stroke-width:100; stroke-opacity:1; 
stroke-linecap:round; stroke-linejoin:round;">
</g>
<g style="fill:#840000; fill-opacity:0.0; 
stroke:#840000; stroke-width:60; stroke-opacity:1; 
stroke-linecap:round; stroke-linejoin:round;">
<text x="4330" y="14030"
textLength="500" font-size="680" lengthAdjust="spacingAndGlyphs"
text-anchor="middle" opacity="0">A</text>
<path d="M4200 13860
L4450 13860
" />
<path d="M4160 14010
L4330 13500
L4500 14010
" />
</g>
<g style="fill:#840000; fill-opacity:0.0; 
stroke:#840000; stroke-width:100; stroke-opacity:1; 
stroke-linecap:round; stroke-linejoin:round;">
</g>
<g style="fill:#840000; fill-opacity:0.0; 
stroke:#840000; stroke-width:60; stroke-opacity:1; 
stroke-linecap:round; stroke-linejoin:round;">
<text x="4330" y="33710"
textLength="570" font-size="680" lengthAdjust="spacingAndGlyphs"
text-anchor="middle" opacity="0">B</text>
<path d="M4360 33420
L4430 33440
L4460 33470
L4480 33520
L4480 33590
L4460 33640
L4430 33660
L4390 33690
L4190 33690
L4190 33180
L4360 33180
L4410 33200
L4430 33220
L4460 33270
L4460 33320
L4430 33370
L4410 33390
L4360 33420
L4190 33420
" />
</g>
<g style="fill:#840000; fill-opacity:0.0; 
stroke:#840000; stroke-width:100; stroke-opacity:1; 
stroke-linecap:round; stroke-linejoin:round;">
</g>
<g style="fill:#840000; fill-opacity:0.0; 
stroke:#840000; stroke-width:60; stroke-opacity:1; 
stroke-linecap:round; stroke-linejoin:round;">
<text x="4330" y="53400"
textLength="570" font-size="680" lengthAdjust="spacingAndGlyphs"
text-anchor="middle" opacity="0">C</text>
<path d="M4480 53330
L4460 53350
L4390 53380
L4340 53380
L4260 53350
L4220 53300
L4190 53250
L4170 53160
L4170 53080
L4190 52990
L4220 52940
L4260 52890
L4340 52870
L4390 52870
L4460 52890
L4480 52910
" />
</g>
<g style="fill:#840000; fill-opacity:0.0; 
stroke:#840000; stroke-width:100; stroke-opacity:1; 
stroke-linecap:round; stroke-linejoin:round;">
</g>
<g style="fill:#840000; fill-opacity:0.0; 
stroke:#840000; stroke-width:60; stroke-opacity:1; 
stroke-linecap:round; stroke-linejoin:round;">
<text x="4330" y="73080"
textLength="570" font-size="680" lengthAdjust="spacingAndGlyphs"
text-anchor="middle" opacity="0">D</text>
<path d="M4190 73060
L4190 72550
L4310 72550
L4390 72570
L4430 72620
L4460 72670
L4480 72760
L4480 72840
L4460 72930
L4430 72980
L4390 73030
L4310 73060
L4190 73060
" />
</g>
<g style="fill:#840000; fill-opacity:0.0; 
stroke:#840000; stroke-width:100; stroke-opacity:1; 
stroke-linecap:round; stroke-linejoin:round;">
</g>
<g style="fill:#840000; fill-opacity:0.0; 
stroke:#840000; stroke-width:60; stroke-opacity:1; 
stroke-linecap:round; stroke-linejoin:round;">
<path d="M112990 23620
L112210 23620
" />
</g>
<g style="fill:#840000; fill-opacity:0.0; 
stroke:#840000; stroke-width:100; stroke-opacity:1; 
stroke-linecap:round; stroke-linejoin:round;">
</g>
<g style="fill:#840000; fill-opacity:0.0; 
stroke:#840000; stroke-width:60; stroke-opacity:1; 
stroke-linecap:round; stroke-linejoin:round;">
<path d="M112990 43310
L112210 43310
" />
</g>
<g style="fill:#840000; fill-opacity:0.0; 
stroke:#840000; stroke-width:100; stroke-opacity:1; 
stroke-linecap:round; stroke-linejoin:round;">
</g>
<g style="fill:#840000; fill-opacity:0.0; 
stroke:#840000; stroke-width:60; stroke-opacity:1; 
stroke-linecap:round; stroke-linejoin:round;">
<path d="M112990 62990
L112210 62990
" />
</g>
<g style="fill:#840000; fill-opacity:0.0; 
stroke:#840000; stroke-width:100; stroke-opacity:1; 
stroke-linecap:round; stroke-linejoin:round;">
</g>
<g style="fill:#840000; fill-opacity:0.0; 
stroke:#840000; stroke-width:60; stroke-opacity:1; 
stroke-linecap:round; stroke-linejoin:round;">
<text x="112600" y="14030"
textLength="500" font-size="680" lengthAdjust="spacingAndGlyphs"
text-anchor="middle" opacity="0">A</text>
<path d="M112470 13860
L112720 13860
" />
<path d="M112430 14010
L112600 13500
L112770 14010
" />
</g>
<g style="fill:#840000; fill-opacity:0.0; 
stroke:#840000; stroke-width:100; stroke-opacity:1; 
stroke-linecap:round; stroke-linejoin:round;">
</g>
<g style="fill:#840000; fill-opacity:0.0; 
stroke:#840000; stroke-width:60; stroke-opacity:1; 
stroke-linecap:round; stroke-linejoin:round;">
<text x="112600" y="33710"
textLength="570" font-size="680" lengthAdjust="spacingAndGlyphs"
text-anchor="middle" opacity="0">B</text>
<path d="M112630 33420
L112700 33440
L112730 33470
L112750 33520
L112750 33590
L112730 33640
L112700 33660
L112660 33690
L112460 33690
L112460 33180
L112630 33180
L112680 33200
L112700 33220
L112730 33270
L112730 33320
L112700 33370
L112680 33390
L112630 33420
L112460 33420
" />
</g>
<g style="fill:#840000; fill-opacity:0.0; 
stroke:#840000; stroke-width:100; stroke-opacity:1; 
stroke-linecap:round; stroke-linejoin:round;">
</g>
<g style="fill:#840000; fill-opacity:0.0; 
stroke:#840000; stroke-width:60; stroke-opacity:1; 
stroke-linecap:round; stroke-linejoin:round;">
<text x="112600" y="53400"
textLength="570" font-size="680" lengthAdjust="spacingAndGlyphs"
text-anchor="middle" opacity="0">C</text>
<path d="M112750 53330
L112730 53350
L112660 53380
L112610 53380
L112530 53350
L112490 53300
L112460 53250
L112440 53160
L112440 53080
L112460 52990
L112490 52940
L112530 52890
L112610 52870
L112660 52870
L112730 52890
L112750 52910
" />
</g>
<g style="fill:#840000; fill-opacity:0.0; 
stroke:#840000; stroke-width:100; stroke-opacity:1; 
stroke-linecap:round; stroke-linejoin:round;">
</g>
<g style="fill:#840000; fill-opacity:0.0; 
stroke:#840000; stroke-width:60; stroke-opacity:1; 
stroke-linecap:round; stroke-linejoin:round;">
<text x="112600" y="73080"
textLength="570" font-size="680" lengthAdjust="spacingAndGlyphs"
text-anchor="middle" opacity="0">D</text>
<path d="M112460 73060
L112460 72550
L112580 72550
L112660 72570
L112700 72620
L112730 72670
L112750 72760
L112750 72840
L112730 72930
L112700 72980
L112660 73030
L112580 73060
L112460 73060
" />
</g>
<g style="fill:#840000; fill-opacity:0.0; 
stroke:#840000; stroke-width:100; stroke-opacity:1; 
stroke-linecap:round; stroke-linejoin:round;">
</g>
<g style="fill:#840000; fill-opacity:0.0; 
stroke:#840000; stroke-width:60; stroke-opacity:1; 
stroke-linecap:round; stroke-linejoin:round;">
<text x="78740" y="76320"
textLength="2760" font-size="780" lengthAdjust="spacingAndGlyphs"
text-anchor="start" opacity="0">Date: </text>
<path d="M78910 76290
L78910 75700
L79050 75700
L79130 75730
L79190 75790
L79210 75840
L79240 75950
L79240 76040
L79210 76150
L79190 76210
L79130 76260
L79050 76290
L78910 76290
" />
<path d="M79750 76290
L79750 75980
L79720 75930
L79660 75900
L79550 75900
L79500 75930
" />
<path d="M79750 76260
L79690 76290
L79550 76290
L79500 76260
L79470 76210
L79470 76150
L79500 76100
L79550 76070
L79690 76070
L79750 76040
" />
<path d="M79950 75900
L80170 75900
" />
<path d="M80030 75700
L80030 76210
L80060 76260
L80110 76290
L80170 76290
" />
<path d="M80590 76260
L80540 76290
L80420 76290
L80370 76260
L80340 76210
L80340 75980
L80370 75930
L80420 75900
L80540 75900
L80590 75930
L80620 75980
L80620 76040
L80340 76100
" />
<path d="M80870 76240
L80900 76260
L80870 76290
L80840 76260
L80870 76240
L80870 76290
" />
<path d="M80870 75930
L80900 75950
L80870 75980
L80840 75950
L80870 75930
L80870 75980
" />
</g>
<g style="fill:#840000; fill-opacity:0.0; 
stroke:#840000; stroke-width:100; stroke-opacity:1; 
stroke-linecap:round; stroke-linejoin:round;">
</g>
<g style="fill:#840000; fill-opacity:0.0; 
stroke:#840000; stroke-width:60; stroke-opacity:1; 
stroke-linecap:round; stroke-linejoin:round;">
<path d="M69690 76580
L112210 76580
" />
</g>
<g style="fill:#840000; fill-opacity:0.0; 
stroke:#840000; stroke-width:100; stroke-opacity:1; 
stroke-linecap:round; stroke-linejoin:round;">
</g>
<g style="fill:#840000; fill-opacity:0.0; 
stroke:#840000; stroke-width:60; stroke-opacity:1; 
stroke-linecap:round; stroke-linejoin:round;">
<text x="70080" y="77420"
textLength="23240" font-size="780" lengthAdjust="spacingAndGlyphs"
text-anchor="start" opacity="0">KiCad E.D.A.  kicad 5.1.6-c6e7f7d~87~ubuntu18.04.1</text>
<path d="M70250 77390
L70250 76800
" />
<path d="M70580 77390
L70330 77050
" />
<path d="M70580 76800
L70250 77140
" />
<path d="M70840 77390
L70840 77000
" />
<path d="M70840 76800
L70810 76830
L70840 76860
L70860 76830
L70840 76800
L70840 76860
" />
<path d="M71450 77340
L71430 77360
L71340 77390
L71290 77390
L71200 77360
L71140 77310
L71120 77250
L71090 77140
L71090 77050
L71120 76940
L71140 76890
L71200 76830
L71290 76800
L71340 76800
L71430 76830
L71450 76860
" />
<path d="M71960 77390
L71960 77080
L71930 77030
L71880 77000
L71760 77000
L71710 77030
" />
<path d="M71960 77360
L71900 77390
L71760 77390
L71710 77360
L71680 77310
L71680 77250
L71710 77200
L71760 77170
L71900 77170
L71960 77140
" />
<path d="M72490 77390
L72490 76800
" />
<path d="M72490 77360
L72440 77390
L72320 77390
L72270 77360
L72240 77340
L72210 77280
L72210 77110
L72240 77050
L72270 77030
L72320 77000
L72440 77000
L72490 77030
" />
<path d="M73220 77080
L73420 77080
" />
<path d="M73500 77390
L73220 77390
L73220 76800
L73500 76800
" />
<path d="M73760 77340
L73790 77360
L73760 77390
L73730 77360
L73760 77340
L73760 77390
" />
<path d="M74040 77390
L74040 76800
L74180 76800
L74260 76830
L74320 76890
L74350 76940
L74380 77050
L74380 77140
L74350 77250
L74320 77310
L74260 77360
L74180 77390
L74040 77390
" />
<path d="M74630 77340
L74660 77360
L74630 77390
L74600 77360
L74630 77340
L74630 77390
" />
<path d="M74880 77220
L75160 77220
" />
<path d="M74830 77390
L75020 76800
L75220 77390
" />
<path d="M75420 77340
L75440 77360
L75420 77390
L75390 77360
L75420 77340
L75420 77390
" />
<path d="M76600 77390
L76600 76800
" />
<path d="M76650 77170
L76820 77390
" />
<path d="M76820 77000
L76600 77220
" />
<path d="M77070 77390
L77070 77000
" />
<path d="M77070 76800
L77040 76830
L77070 76860
L77100 76830
L77070 76800
L77070 76860
" />
<path d="M77610 77360
L77550 77390
L77440 77390
L77380 77360
L77350 77340
L77330 77280
L77330 77110
L77350 77050
L77380 77030
L77440 77000
L77550 77000
L77610 77030
" />
<path d="M78110 77390
L78110 77080
L78080 77030
L78030 77000
L77920 77000
L77860 77030
" />
<path d="M78110 77360
L78060 77390
L77920 77390
L77860 77360
L77830 77310
L77830 77250
L77860 77200
L77920 77170
L78060 77170
L78110 77140
" />
<path d="M78650 77390
L78650 76800
" />
<path d="M78650 77360
L78590 77390
L78480 77390
L78420 77360
L78390 77340
L78370 77280
L78370 77110
L78390 77050
L78420 77030
L78480 77000
L78590 77000
L78650 77030
" />
<path d="M79660 76800
L79380 76800
L79350 77080
L79380 77050
L79430 77030
L79570 77030
L79630 77050
L79660 77080
L79690 77140
L79690 77280
L79660 77340
L79630 77360
L79570 77390
L79430 77390
L79380 77360
L79350 77340
" />
<path d="M79940 77340
L79970 77360
L79940 77390
L79910 77360
L79940 77340
L79940 77390
" />
<path d="M80530 77390
L80190 77390
" />
<path d="M80360 77390
L80360 76800
L80300 76890
L80250 76940
L80190 76970
" />
<path d="M80780 77340
L80810 77360
L80780 77390
L80750 77360
L80780 77340
L80780 77390
" />
<path d="M81320 76800
L81200 76800
L81150 76830
L81120 76860
L81060 76940
L81030 77050
L81030 77280
L81060 77340
L81090 77360
L81150 77390
L81260 77390
L81320 77360
L81340 77340
L81370 77280
L81370 77140
L81340 77080
L81320 77050
L81260 77030
L81150 77030
L81090 77050
L81060 77080
L81030 77140
" />
<path d="M81620 77170
L82070 77170
" />
<path d="M82610 77360
L82550 77390
L82440 77390
L82380 77360
L82350 77340
L82330 77280
L82330 77110
L82350 77050
L82380 77030
L82440 77000
L82550 77000
L82610 77030
" />
<path d="M83110 76800
L83000 76800
L82940 76830
L82920 76860
L82860 76940
L82830 77050
L82830 77280
L82860 77340
L82890 77360
L82940 77390
L83060 77390
L83110 77360
L83140 77340
L83170 77280
L83170 77140
L83140 77080
L83110 77050
L83060 77030
L82940 77030
L82890 77050
L82860 77080
L82830 77140
" />
<path d="M83650 77360
L83590 77390
L83480 77390
L83420 77360
L83390 77310
L83390 77080
L83420 77030
L83480 77000
L83590 77000
L83650 77030
L83680 77080
L83680 77140
L83390 77200
" />
<path d="M83870 76800
L84270 76800
L84010 77390
" />
<path d="M84410 77000
L84630 77000
" />
<path d="M84490 77390
L84490 76890
L84520 76830
L84570 76800
L84630 76800
" />
<path d="M84770 76800
L85160 76800
L84910 77390
" />
<path d="M85640 77390
L85640 76800
" />
<path d="M85640 77360
L85590 77390
L85470 77390
L85420 77360
L85390 77340
L85360 77280
L85360 77110
L85390 77050
L85420 77030
L85470 77000
L85590 77000
L85640 77030
" />
<path d="M85780 76640
L86340 76640
" />
<path d="M86010 77050
L85950 77030
L85920 77000
L85890 76940
L85890 76910
L85920 76860
L85950 76830
L86010 76800
L86120 76800
L86180 76830
L86200 76860
L86230 76910
L86230 76940
L86200 77000
L86180 77030
L86120 77050
L86010 77050
L85950 77080
L85920 77110
L85890 77170
L85890 77280
L85920 77340
L85950 77360
L86010 77390
L86120 77390
L86180 77360
L86200 77340
L86230 77280
L86230 77170
L86200 77110
L86180 77080
L86120 77050
" />
<path d="M86340 76640
L86910 76640
" />
<path d="M86430 76800
L86820 76800
L86570 77390
" />
<path d="M87300 77000
L87300 77390
" />
<path d="M87050 77000
L87050 77310
L87070 77360
L87130 77390
L87220 77390
L87270 77360
L87300 77340
" />
<path d="M87580 77390
L87580 76800
" />
<path d="M87580 77030
L87640 77000
L87750 77000
L87810 77030
L87830 77050
L87860 77110
L87860 77280
L87830 77340
L87810 77360
L87750 77390
L87640 77390
L87580 77360
" />
<path d="M88370 77000
L88370 77390
" />
<path d="M88110 77000
L88110 77310
L88140 77360
L88200 77390
L88280 77390
L88340 77360
L88370 77340
" />
<path d="M88650 77000
L88650 77390
" />
<path d="M88650 77050
L88680 77030
L88730 77000
L88820 77000
L88870 77030
L88900 77080
L88900 77390
" />
<path d="M89100 77000
L89320 77000
" />
<path d="M89180 76800
L89180 77310
L89210 77360
L89270 77390
L89320 77390
" />
<path d="M89770 77000
L89770 77390
" />
<path d="M89520 77000
L89520 77310
L89550 77360
L89600 77390
L89690 77390
L89740 77360
L89770 77340
" />
<path d="M90360 77390
L90020 77390
" />
<path d="M90190 77390
L90190 76800
L90140 76890
L90080 76940
L90020 76970
" />
<path d="M90700 77050
L90640 77030
L90610 77000
L90590 76940
L90590 76910
L90610 76860
L90640 76830
L90700 76800
L90810 76800
L90870 76830
L90900 76860
L90920 76910
L90920 76940
L90900 77000
L90870 77030
L90810 77050
L90700 77050
L90640 77080
L90610 77110
L90590 77170
L90590 77280
L90610 77340
L90640 77360
L90700 77390
L90810 77390
L90870 77360
L90900 77340
L90920 77280
L90920 77170
L90900 77110
L90870 77080
L90810 77050
" />
<path d="M91180 77340
L91200 77360
L91180 77390
L91150 77360
L91180 77340
L91180 77390
" />
<path d="M91570 76800
L91630 76800
L91680 76830
L91710 76860
L91740 76910
L91770 77030
L91770 77170
L91740 77280
L91710 77340
L91680 77360
L91630 77390
L91570 77390
L91510 77360
L91490 77340
L91460 77280
L91430 77170
L91430 77030
L91460 76910
L91490 76860
L91510 76830
L91570 76800
" />
<path d="M92270 77000
L92270 77390
" />
<path d="M92130 76770
L91990 77200
L92360 77200
" />
<path d="M92580 77340
L92610 77360
L92580 77390
L92550 77360
L92580 77340
L92580 77390
" />
<path d="M93170 77390
L92830 77390
" />
<path d="M93000 77390
L93000 76800
L92950 76890
L92890 76940
L92830 76970
" />
</g>
<g style="fill:#840000; fill-opacity:0.0; 
stroke:#840000; stroke-width:100; stroke-opacity:1; 
stroke-linecap:round; stroke-linejoin:round;">
</g>
<g style="fill:#840000; fill-opacity:0.0; 
stroke:#840000; stroke-width:60; stroke-opacity:1; 
stroke-linecap:round; stroke-linejoin:round;">
<path d="M69690 75400
L112210 75400
" />
</g>
<g style="fill:#840000; fill-opacity:0.0; 
stroke:#840000; stroke-width:100; stroke-opacity:1; 
stroke-linecap:round; stroke-linejoin:round;">
</g>
<g style="fill:#840000; fill-opacity:0.0; 
stroke:#840000; stroke-width:120; stroke-opacity:1; 
stroke-linecap:round; stroke-linejoin:round;">
<text x="103540" y="76320"
textLength="2840" font-size="780" lengthAdjust="spacingAndGlyphs"
text-anchor="start" opacity="0">Rev: A</text>
<path d="M104090 76290
L103890 76010
" />
<path d="M103750 76290
L103750 75700
L103980 75700
L104030 75730
L104060 75760
L104090 75810
L104090 75900
L104060 75950
L104030 75980
L103980 76010
L103750 76010
" />
<path d="M104570 76260
L104510 76290
L104400 76290
L104340 76260
L104320 76210
L104320 75980
L104340 75930
L104400 75900
L104510 75900
L104570 75930
L104600 75980
L104600 76040
L104320 76100
" />
<path d="M104790 75900
L104930 76290
L105070 75900
" />
<path d="M105300 76240
L105330 76260
L105300 76290
L105270 76260
L105300 76240
L105300 76290
" />
<path d="M105300 75930
L105330 75950
L105300 75980
L105270 75950
L105300 75930
L105300 75980
" />
<path d="M106000 76120
L106280 76120
" />
<path d="M105940 76290
L106140 75700
L106340 76290
" />
</g>
<g style="fill:#840000; fill-opacity:0.0; 
stroke:#840000; stroke-width:100; stroke-opacity:1; 
stroke-linecap:round; stroke-linejoin:round;">
</g>
<g style="fill:#840000; fill-opacity:0.0; 
stroke:#840000; stroke-width:60; stroke-opacity:1; 
stroke-linecap:round; stroke-linejoin:round;">
<text x="70080" y="76320"
textLength="3780" font-size="780" lengthAdjust="spacingAndGlyphs"
text-anchor="start" opacity="0">Size: A4</text>
<path d="M70220 76260
L70300 76290
L70440 76290
L70500 76260
L70530 76240
L70550 76180
L70550 76120
L70530 76070
L70500 76040
L70440 76010
L70330 75980
L70270 75950
L70250 75930
L70220 75870
L70220 75810
L70250 75760
L70270 75730
L70330 75700
L70470 75700
L70550 75730
" />
<path d="M70810 76290
L70810 75900
" />
<path d="M70810 75700
L70780 75730
L70810 75760
L70840 75730
L70810 75700
L70810 75760
" />
<path d="M71030 75900
L71340 75900
L71030 76290
L71340 76290
" />
<path d="M71790 76260
L71730 76290
L71620 76290
L71570 76260
L71540 76210
L71540 75980
L71570 75930
L71620 75900
L71730 75900
L71790 75930
L71820 75980
L71820 76040
L71540 76100
" />
<path d="M72070 76240
L72100 76260
L72070 76290
L72040 76260
L72070 76240
L72070 76290
" />
<path d="M72070 75930
L72100 75950
L72070 75980
L72040 75950
L72070 75930
L72070 75980
" />
<path d="M72770 76120
L73060 76120
" />
<path d="M72720 76290
L72910 75700
L73110 76290
" />
<path d="M73560 75900
L73560 76290
" />
<path d="M73420 75670
L73280 76100
L73650 76100
" />
</g>
<g style="fill:#840000; fill-opacity:0.0; 
stroke:#840000; stroke-width:100; stroke-opacity:1; 
stroke-linecap:round; stroke-linejoin:round;">
</g>
<g style="fill:#840000; fill-opacity:0.0; 
stroke:#840000; stroke-width:60; stroke-opacity:1; 
stroke-linecap:round; stroke-linejoin:round;">
<text x="103540" y="77420"
textLength="3910" font-size="780" lengthAdjust="spacingAndGlyphs"
text-anchor="start" opacity="0">Id: 2/17</text>
<path d="M103710 77390
L103710 76800
" />
<path d="M104240 77390
L104240 76800
" />
<path d="M104240 77360
L104180 77390
L104070 77390
L104010 77360
L103990 77340
L103960 77280
L103960 77110
L103990 77050
L104010 77030
L104070 77000
L104180 77000
L104240 77030
" />
<path d="M104520 77340
L104550 77360
L104520 77390
L104490 77360
L104520 77340
L104520 77390
" />
<path d="M104520 77030
L104550 77050
L104520 77080
L104490 77050
L104520 77030
L104520 77080
" />
<path d="M105220 76860
L105250 76830
L105310 76800
L105450 76800
L105500 76830
L105530 76860
L105560 76910
L105560 76970
L105530 77050
L105190 77390
L105560 77390
" />
<path d="M106230 76770
L105730 77530
" />
<path d="M106740 77390
L106400 77390
" />
<path d="M106570 77390
L106570 76800
L106520 76890
L106460 76940
L106400 76970
" />
<path d="M106940 76800
L107330 76800
L107080 77390
" />
</g>
<g style="fill:#840000; fill-opacity:0.0; 
stroke:#840000; stroke-width:100; stroke-opacity:1; 
stroke-linecap:round; stroke-linejoin:round;">
</g>
<g style="fill:#840000; fill-opacity:0.0; 
stroke:#840000; stroke-width:60; stroke-opacity:1; 
stroke-linecap:round; stroke-linejoin:round;">
<path d="M69690 73820
L112210 73820
" />
</g>
<g style="fill:#840000; fill-opacity:0.0; 
stroke:#840000; stroke-width:100; stroke-opacity:1; 
stroke-linecap:round; stroke-linejoin:round;">
</g>
<g style="fill:#840000; fill-opacity:0.0; 
stroke:#840000; stroke-width:160; stroke-opacity:1; 
stroke-linecap:round; stroke-linejoin:round;">
<text x="70080" y="74920"
textLength="3710" font-size="1050" lengthAdjust="spacingAndGlyphs"
text-anchor="start" opacity="0">Title: </text>
<path d="M70360 74090
L70810 74090
" />
<path d="M70480 74880
L70580 74090
" />
<path d="M70970 74880
L71040 74360
" />
<path d="M71070 74090
L71030 74130
L71060 74170
L71110 74130
L71070 74090
L71060 74170
" />
<path d="M71300 74360
L71600 74360
" />
<path d="M71450 74090
L71360 74770
L71390 74840
L71460 74880
L71540 74880
" />
<path d="M71910 74880
L71840 74840
L71820 74770
L71900 74090
" />
<path d="M72520 74840
L72440 74880
L72290 74880
L72220 74840
L72190 74770
L72230 74470
L72280 74390
L72360 74360
L72510 74360
L72580 74390
L72610 74470
L72600 74540
L72210 74620
" />
<path d="M72900 74810
L72930 74840
L72890 74880
L72860 74840
L72900 74810
L72890 74880
" />
<path d="M72950 74390
L72990 74430
L72940 74470
L72910 74430
L72950 74390
L72940 74470
" />
</g>
<g style="fill:#840000; fill-opacity:0.0; 
stroke:#840000; stroke-width:100; stroke-opacity:1; 
stroke-linecap:round; stroke-linejoin:round;">
</g>
<g style="fill:#840000; fill-opacity:0.0; 
stroke:#840000; stroke-width:60; stroke-opacity:1; 
stroke-linecap:round; stroke-linejoin:round;">
<text x="70080" y="73400"
textLength="9700" font-size="780" lengthAdjust="spacingAndGlyphs"
text-anchor="start" opacity="0">File: OutputStage.sch</text>
<path d="M70440 73060
L70250 73060
" />
<path d="M70250 73370
L70250 72780
L70530 72780
" />
<path d="M70750 73370
L70750 72980
" />
<path d="M70750 72780
L70720 72810
L70750 72840
L70780 72810
L70750 72780
L70750 72840
" />
<path d="M71120 73370
L71060 73340
L71030 73290
L71030 72780
" />
<path d="M71570 73340
L71510 73370
L71400 73370
L71340 73340
L71310 73290
L71310 73060
L71340 73010
L71400 72980
L71510 72980
L71570 73010
L71590 73060
L71590 73120
L71310 73180
" />
<path d="M71850 73320
L71880 73340
L71850 73370
L71820 73340
L71850 73320
L71850 73370
" />
<path d="M71850 73010
L71880 73030
L71850 73060
L71820 73030
L71850 73010
L71850 73060
" />
<path d="M72690 72780
L72800 72780
L72860 72810
L72910 72870
L72940 72980
L72940 73180
L72910 73290
L72860 73340
L72800 73370
L72690 73370
L72630 73340
L72580 73290
L72550 73180
L72550 72980
L72580 72870
L72630 72810
L72690 72780
" />
<path d="M73450 72980
L73450 73370
" />
<path d="M73200 72980
L73200 73290
L73220 73340
L73280 73370
L73360 73370
L73420 73340
L73450 73320
" />
<path d="M73650 72980
L73870 72980
" />
<path d="M73730 72780
L73730 73290
L73760 73340
L73810 73370
L73870 73370
" />
<path d="M74070 72980
L74070 73570
" />
<path d="M74070 73010
L74120 72980
L74240 72980
L74290 73010
L74320 73030
L74350 73090
L74350 73260
L74320 73320
L74290 73340
L74240 73370
L74120 73370
L74070 73340
" />
<path d="M74850 72980
L74850 73370
" />
<path d="M74600 72980
L74600 73290
L74630 73340
L74680 73370
L74770 73370
L74830 73340
L74850 73320
" />
<path d="M75050 72980
L75270 72980
" />
<path d="M75130 72780
L75130 73290
L75160 73340
L75220 73370
L75270 73370
" />
<path d="M75440 73340
L75530 73370
L75670 73370
L75720 73340
L75750 73320
L75780 73260
L75780 73200
L75750 73150
L75720 73120
L75670 73090
L75560 73060
L75500 73030
L75470 73010
L75440 72950
L75440 72890
L75470 72840
L75500 72810
L75560 72780
L75700 72780
L75780 72810
" />
<path d="M75950 72980
L76170 72980
" />
<path d="M76030 72780
L76030 73290
L76060 73340
L76120 73370
L76170 73370
" />
<path d="M76620 73370
L76620 73060
L76600 73010
L76540 72980
L76430 72980
L76370 73010
" />
<path d="M76620 73340
L76570 73370
L76430 73370
L76370 73340
L76340 73290
L76340 73230
L76370 73180
L76430 73150
L76570 73150
L76620 73120
" />
<path d="M77160 72980
L77160 73460
L77130 73510
L77100 73540
L77040 73570
L76960 73570
L76900 73540
" />
<path d="M77160 73340
L77100 73370
L76990 73370
L76930 73340
L76900 73320
L76880 73260
L76880 73090
L76900 73030
L76930 73010
L76990 72980
L77100 72980
L77160 73010
" />
<path d="M77660 73340
L77610 73370
L77490 73370
L77440 73340
L77410 73290
L77410 73060
L77440 73010
L77490 72980
L77610 72980
L77660 73010
L77690 73060
L77690 73120
L77410 73180
" />
<path d="M77940 73320
L77970 73340
L77940 73370
L77920 73340
L77940 73320
L77940 73370
" />
<path d="M78200 73340
L78250 73370
L78370 73370
L78420 73340
L78450 73290
L78450 73260
L78420 73200
L78370 73180
L78280 73180
L78220 73150
L78200 73090
L78200 73060
L78220 73010
L78280 72980
L78370 72980
L78420 73010
" />
<path d="M78960 73340
L78900 73370
L78790 73370
L78730 73340
L78700 73320
L78670 73260
L78670 73090
L78700 73030
L78730 73010
L78790 72980
L78900 72980
L78960 73010
" />
<path d="M79210 73370
L79210 72780
" />
<path d="M79460 73370
L79460 73060
L79430 73010
L79380 72980
L79290 72980
L79240 73010
L79210 73030
" />
</g>
<g style="fill:#840000; fill-opacity:0.0; 
stroke:#840000; stroke-width:100; stroke-opacity:1; 
stroke-linecap:round; stroke-linejoin:round;">
</g>
<g style="fill:#840000; fill-opacity:0.0; 
stroke:#840000; stroke-width:60; stroke-opacity:1; 
stroke-linecap:round; stroke-linejoin:round;">
<path d="M69690 71460
L112210 71460
" />
</g>
<g style="fill:#840000; fill-opacity:0.0; 
stroke:#840000; stroke-width:100; stroke-opacity:1; 
stroke-linecap:round; stroke-linejoin:round;">
</g>
<g style="fill:#840000; fill-opacity:0.0; 
stroke:#840000; stroke-width:60; stroke-opacity:1; 
stroke-linecap:round; stroke-linejoin:round;">
<text x="70080" y="72340"
textLength="9840" font-size="780" lengthAdjust="spacingAndGlyphs"
text-anchor="start" opacity="0">Sheet: /OutputStage/</text>
<path d="M70220 72280
L70300 72310
L70440 72310
L70500 72280
L70530 72260
L70550 72200
L70550 72140
L70530 72090
L70500 72060
L70440 72030
L70330 72000
L70270 71970
L70250 71950
L70220 71890
L70220 71830
L70250 71780
L70270 71750
L70330 71720
L70470 71720
L70550 71750
" />
<path d="M70810 72310
L70810 71720
" />
<path d="M71060 72310
L71060 72000
L71030 71950
L70980 71920
L70890 71920
L70840 71950
L70810 71970
" />
<path d="M71570 72280
L71510 72310
L71400 72310
L71340 72280
L71310 72230
L71310 72000
L71340 71950
L71400 71920
L71510 71920
L71570 71950
L71590 72000
L71590 72060
L71310 72120
" />
<path d="M72070 72280
L72020 72310
L71900 72310
L71850 72280
L71820 72230
L71820 72000
L71850 71950
L71900 71920
L72020 71920
L72070 71950
L72100 72000
L72100 72060
L71820 72120
" />
<path d="M72270 71920
L72490 71920
" />
<path d="M72350 71720
L72350 72230
L72380 72280
L72440 72310
L72490 72310
" />
<path d="M72690 72260
L72720 72280
L72690 72310
L72660 72280
L72690 72260
L72690 72310
" />
<path d="M72690 71950
L72720 71970
L72690 72000
L72660 71970
L72690 71950
L72690 72000
" />
<path d="M73840 71690
L73340 72450
" />
<path d="M74150 71720
L74260 71720
L74320 71750
L74380 71810
L74400 71920
L74400 72120
L74380 72230
L74320 72280
L74260 72310
L74150 72310
L74090 72280
L74040 72230
L74010 72120
L74010 71920
L74040 71810
L74090 71750
L74150 71720
" />
<path d="M74910 71920
L74910 72310
" />
<path d="M74660 71920
L74660 72230
L74680 72280
L74740 72310
L74830 72310
L74880 72280
L74910 72260
" />
<path d="M75110 71920
L75330 71920
" />
<path d="M75190 71720
L75190 72230
L75220 72280
L75270 72310
L75330 72310
" />
<path d="M75530 71920
L75530 72510
" />
<path d="M75530 71950
L75580 71920
L75700 71920
L75750 71950
L75780 71970
L75810 72030
L75810 72200
L75780 72260
L75750 72280
L75700 72310
L75580 72310
L75530 72280
" />
<path d="M76310 71920
L76310 72310
" />
<path d="M76060 71920
L76060 72230
L76090 72280
L76150 72310
L76230 72310
L76290 72280
L76310 72260
" />
<path d="M76510 71920
L76740 71920
" />
<path d="M76600 71720
L76600 72230
L76620 72280
L76680 72310
L76740 72310
" />
<path d="M76900 72280
L76990 72310
L77130 72310
L77190 72280
L77210 72260
L77240 72200
L77240 72140
L77210 72090
L77190 72060
L77130 72030
L77020 72000
L76960 71970
L76930 71950
L76900 71890
L76900 71830
L76930 71780
L76960 71750
L77020 71720
L77160 71720
L77240 71750
" />
<path d="M77410 71920
L77630 71920
" />
<path d="M77490 71720
L77490 72230
L77520 72280
L77580 72310
L77630 72310
" />
<path d="M78080 72310
L78080 72000
L78060 71950
L78000 71920
L77890 71920
L77830 71950
" />
<path d="M78080 72280
L78030 72310
L77890 72310
L77830 72280
L77800 72230
L77800 72170
L77830 72120
L77890 72090
L78030 72090
L78080 72060
" />
<path d="M78620 71920
L78620 72400
L78590 72450
L78560 72480
L78510 72510
L78420 72510
L78370 72480
" />
<path d="M78620 72280
L78560 72310
L78450 72310
L78390 72280
L78370 72260
L78340 72200
L78340 72030
L78370 71970
L78390 71950
L78450 71920
L78560 71920
L78620 71950
" />
<path d="M79120 72280
L79070 72310
L78960 72310
L78900 72280
L78870 72230
L78870 72000
L78900 71950
L78960 71920
L79070 71920
L79120 71950
L79150 72000
L79150 72060
L78870 72120
" />
<path d="M79830 71690
L79320 72450
" />
</g>
<g style="fill:#840000; fill-opacity:0.0; 
stroke:#840000; stroke-width:100; stroke-opacity:1; 
stroke-linecap:round; stroke-linejoin:round;">
</g>
<g style="fill:#840000; fill-opacity:0.0; 
stroke:#840000; stroke-width:60; stroke-opacity:1; 
stroke-linecap:round; stroke-linejoin:round;">
<path d="M77560 75400
L77560 76580
" />
</g>
<g style="fill:#840000; fill-opacity:0.0; 
stroke:#840000; stroke-width:100; stroke-opacity:1; 
stroke-linecap:round; stroke-linejoin:round;">
</g>
<g style="fill:#840000; fill-opacity:0.0; 
stroke:#840000; stroke-width:60; stroke-opacity:1; 
stroke-linecap:round; stroke-linejoin:round;">
<path d="M102760 75400
L102760 77960
" />
</g>
<g style="fill:#840000; fill-opacity:0.0; 
stroke:#840000; stroke-width:0; stroke-opacity:1; 
stroke-linecap:round; stroke-linejoin:round;">
<g >
</g>
<g style="fill:#840000; fill-opacity:0.0; 
stroke:#840000; stroke-width:60; stroke-opacity:1; 
stroke-linecap:round; stroke-linejoin:round;">
<path style="fill:#840000; fill-opacity:0.0; 
stroke:#840000; stroke-width:60; stroke-opacity:1; 
stroke-linecap:round; stroke-linejoin:round;fill:none"
d="M 47750,30250
47750,30750
48250,30750
47750,31250
47250,30750
47750,30750
" /> 
</g>
<g style="fill:#008484; fill-opacity:0.0; 
stroke:#008484; stroke-width:60; stroke-opacity:1; 
stroke-linecap:round; stroke-linejoin:round;">
<text x="47800" y="32250"
textLength="2060" font-size="660" lengthAdjust="spacingAndGlyphs"
text-anchor="middle" opacity="0">GNDS</text>
<path d="M47180 31750
L47130 31720
L47060 31720
L46990 31750
L46940 31790
L46910 31840
L46890 31940
L46890 32010
L46910 32100
L46940 32150
L46990 32200
L47060 32220
L47100 32220
L47180 32200
L47200 32170
L47200 32010
L47100 32010
" />
<path d="M47410 32220
L47410 31720
L47700 32220
L47700 31720
" />
<path d="M47940 32220
L47940 31720
L48060 31720
L48130 31750
L48180 31790
L48200 31840
L48220 31940
L48220 32010
L48200 32100
L48180 32150
L48130 32200
L48060 32220
L47940 32220
" />
<path d="M48410 32200
L48490 32220
L48600 32220
L48650 32200
L48680 32170
L48700 32130
L48700 32080
L48680 32030
L48650 32010
L48600 31980
L48510 31960
L48460 31940
L48440 31910
L48410 31860
L48410 31820
L48440 31770
L48460 31750
L48510 31720
L48630 31720
L48700 31750
" />
</g>
</g>
<g style="fill:#008484; fill-opacity:0.0; 
stroke:#008484; stroke-width:0; stroke-opacity:1; 
stroke-linecap:round; stroke-linejoin:round;">
<g >
</g>
<g style="fill:#840000; fill-opacity:0.0; 
stroke:#840000; stroke-width:0; stroke-opacity:1; 
stroke-linecap:round; stroke-linejoin:round;">
</g>
<g style="fill:#840000; fill-opacity:0.0; 
stroke:#840000; stroke-width:60; stroke-opacity:1; 
stroke-linecap:round; stroke-linejoin:round;">
<path style="fill:#840000; fill-opacity:0.0; 
stroke:#840000; stroke-width:60; stroke-opacity:1; 
stroke-linecap:round; stroke-linejoin:round;fill:none"
d="M 20950,56750
21250,56250
" /> 
<path style="fill:#840000; fill-opacity:0.0; 
stroke:#840000; stroke-width:60; stroke-opacity:1; 
stroke-linecap:round; stroke-linejoin:round;fill:none"
d="M 21250,57250
21250,56250
" /> 
<path style="fill:#840000; fill-opacity:0.0; 
stroke:#840000; stroke-width:60; stroke-opacity:1; 
stroke-linecap:round; stroke-linejoin:round;fill:none"
d="M 21250,56250
21550,56750
" /> 
</g>
<g style="fill:#008484; fill-opacity:0.0; 
stroke:#008484; stroke-width:60; stroke-opacity:1; 
stroke-linecap:round; stroke-linejoin:round;">
<text x="21400" y="55790"
textLength="2300" font-size="660" lengthAdjust="spacingAndGlyphs"
text-anchor="middle" opacity="0">+3.3V</text>
<path d="M20400 55570
L20780 55570
" />
<path d="M20590 55760
L20590 55380
" />
<path d="M20970 55260
L21280 55260
L21110 55450
L21180 55450
L21230 55480
L21250 55500
L21280 55550
L21280 55670
L21250 55710
L21230 55740
L21180 55760
L21040 55760
L20990 55740
L20970 55710
" />
<path d="M21490 55710
L21510 55740
L21490 55760
L21470 55740
L21490 55710
L21490 55760
" />
<path d="M21680 55260
L21990 55260
L21820 55450
L21900 55450
L21940 55480
L21970 55500
L21990 55550
L21990 55670
L21970 55710
L21940 55740
L21900 55760
L21750 55760
L21700 55740
L21680 55710
" />
<path d="M22130 55260
L22300 55760
L22470 55260
" />
</g>
</g>
<g style="fill:#008484; fill-opacity:0.0; 
stroke:#008484; stroke-width:0; stroke-opacity:1; 
stroke-linecap:round; stroke-linejoin:round;">
<g >
</g>
<g style="fill:#840000; fill-opacity:0.0; 
stroke:#840000; stroke-width:0; stroke-opacity:1; 
stroke-linecap:round; stroke-linejoin:round;">
</g>
<g style="fill:#840000; fill-opacity:0.0; 
stroke:#840000; stroke-width:60; stroke-opacity:1; 
stroke-linecap:round; stroke-linejoin:round;">
<path d="M21250 62750
L21250 64250
" />
</g>
<g style="fill:#008484; fill-opacity:0.0; 
stroke:#008484; stroke-width:60; stroke-opacity:1; 
stroke-linecap:round; stroke-linejoin:round;">
<g transform="rotate(-90 21250 62700)">
<text x="21250" y="62950"
textLength="1110" font-size="660" lengthAdjust="spacingAndGlyphs"
text-anchor="start" opacity="0">V-</text>
</g>
<path d="M20970 62620
L21470 62450
L20970 62280
" />
<path d="M21280 62120
L21280 61740
" />
</g>
<g style="fill:#840000; fill-opacity:0.0; 
stroke:#840000; stroke-width:60; stroke-opacity:1; 
stroke-linecap:round; stroke-linejoin:round;">
<g transform="rotate(-90 21150 63500)">
<text x="21150" y="63500"
textLength="540" font-size="660" lengthAdjust="spacingAndGlyphs"
text-anchor="middle" opacity="0">4</text>
</g>
<path d="M20790 63400
L21120 63400
" />
<path d="M20600 63520
L20950 63640
L20950 63330
" />
<path d="M21250 59750
L21250 58250
" />
</g>
<g style="fill:#008484; fill-opacity:0.0; 
stroke:#008484; stroke-width:60; stroke-opacity:1; 
stroke-linecap:round; stroke-linejoin:round;">
<g transform="rotate(-90 21250 59800)">
<text x="21250" y="60050"
textLength="1110" font-size="660" lengthAdjust="spacingAndGlyphs"
text-anchor="end" opacity="0">V+</text>
</g>
<path d="M20970 60830
L21470 60660
L20970 60490
" />
<path d="M21280 60330
L21280 59940
" />
<path d="M21470 60130
L21090 60130
" />
</g>
<g style="fill:#840000; fill-opacity:0.0; 
stroke:#840000; stroke-width:60; stroke-opacity:1; 
stroke-linecap:round; stroke-linejoin:round;">
<g transform="rotate(-90 21150 59000)">
<text x="21150" y="59000"
textLength="540" font-size="660" lengthAdjust="spacingAndGlyphs"
text-anchor="middle" opacity="0">8</text>
</g>
<path d="M20840 59040
L20810 59090
L20790 59110
L20740 59140
L20720 59140
L20670 59110
L20650 59090
L20620 59040
L20620 58950
L20650 58900
L20670 58880
L20720 58850
L20740 58850
L20790 58880
L20810 58900
L20840 58950
L20840 59040
L20860 59090
L20880 59110
L20930 59140
L21030 59140
L21070 59110
L21100 59090
L21120 59040
L21120 58950
L21100 58900
L21070 58880
L21030 58850
L20930 58850
L20880 58880
L20860 58900
L20840 58950
" />
</g>
<g style="fill:#008484; fill-opacity:0.0; 
stroke:#008484; stroke-width:60; stroke-opacity:1; 
stroke-linecap:round; stroke-linejoin:round;">
<text x="22610" y="61060"
textLength="1560" font-size="660" lengthAdjust="spacingAndGlyphs"
text-anchor="middle" opacity="0">U9C</text>
<path d="M21970 60530
L21970 60940
L22000 60980
L22020 61010
L22070 61030
L22160 61030
L22210 61010
L22240 60980
L22260 60940
L22260 60530
" />
<path d="M22520 61030
L22620 61030
L22660 61010
L22690 60980
L22740 60910
L22760 60820
L22760 60630
L22740 60580
L22710 60560
L22660 60530
L22570 60530
L22520 60560
L22500 60580
L22470 60630
L22470 60750
L22500 60790
L22520 60820
L22570 60840
L22660 60840
L22710 60820
L22740 60790
L22760 60750
" />
<path d="M23260 60980
L23240 61010
L23160 61030
L23120 61030
L23050 61010
L23000 60960
L22970 60910
L22950 60820
L22950 60750
L22970 60650
L23000 60600
L23050 60560
L23120 60530
L23160 60530
L23240 60560
L23260 60580
" />
<text x="22960" y="61970"
textLength="2270" font-size="660" lengthAdjust="spacingAndGlyphs"
text-anchor="middle" opacity="0">TL072</text>
<path d="M21900 61440
L22180 61440
" />
<path d="M22040 61940
L22040 61440
" />
<path d="M22590 61940
L22350 61940
L22350 61440
" />
<path d="M22850 61440
L22900 61440
L22940 61470
L22970 61490
L22990 61540
L23010 61630
L23010 61750
L22990 61850
L22970 61890
L22940 61920
L22900 61940
L22850 61940
L22800 61920
L22780 61890
L22750 61850
L22730 61750
L22730 61630
L22750 61540
L22780 61490
L22800 61470
L22850 61440
" />
<path d="M23180 61440
L23510 61440
L23300 61940
" />
<path d="M23680 61490
L23710 61470
L23750 61440
L23870 61440
L23920 61470
L23940 61490
L23970 61540
L23970 61580
L23940 61660
L23660 61940
L23970 61940
" />
</g>
</g>
<g style="fill:#008484; fill-opacity:0.0; 
stroke:#008484; stroke-width:0; stroke-opacity:1; 
stroke-linecap:round; stroke-linejoin:round;">
<g >
</g>
<g style="fill:#840000; fill-opacity:0.0; 
stroke:#840000; stroke-width:0; stroke-opacity:1; 
stroke-linecap:round; stroke-linejoin:round;">
</g>
<g style="fill:#FFFFC2; fill-opacity:0.0; 
stroke:#FFFFC2; stroke-width:0; stroke-opacity:1; 
stroke-linecap:round; stroke-linejoin:round;">
</g>
<g style="fill:#FFFFC2; fill-opacity:0.6; 
stroke:#FFFFC2; stroke-width:0; stroke-opacity:1; 
stroke-linecap:round; stroke-linejoin:round;">
<path style="fill:#FFFFC2; fill-opacity:0.6; 
stroke:#FFFFC2; stroke-width:0; stroke-opacity:1; 
stroke-linecap:round; stroke-linejoin:round;fill-rule:evenodd;"
d="M 55500,62500
59500,64500
55500,66500
Z" /> 
</g>
<g style="fill:#840000; fill-opacity:0.6; 
stroke:#840000; stroke-width:0; stroke-opacity:1; 
stroke-linecap:round; stroke-linejoin:round;">
</g>
<g style="fill:#840000; fill-opacity:0.0; 
stroke:#840000; stroke-width:100; stroke-opacity:1; 
stroke-linecap:round; stroke-linejoin:round;">
<path style="fill:#840000; fill-opacity:0.0; 
stroke:#840000; stroke-width:100; stroke-opacity:1; 
stroke-linecap:round; stroke-linejoin:round;fill:none"
d="M 55500,62500
59500,64500
55500,66500
Z" /> 
<path style="fill:#840000; fill-opacity:0.0; 
stroke:#840000; stroke-width:100; stroke-opacity:1; 
stroke-linecap:round; stroke-linejoin:round;fill:none"
d="M 55500,62500
59500,64500
55500,66500
Z" /> 
</g>
<g style="fill:#840000; fill-opacity:0.0; 
stroke:#840000; stroke-width:60; stroke-opacity:1; 
stroke-linecap:round; stroke-linejoin:round;">
<path d="M55500 63500
L54500 63500
" />
</g>
<g style="fill:#008484; fill-opacity:0.0; 
stroke:#008484; stroke-width:60; stroke-opacity:1; 
stroke-linecap:round; stroke-linejoin:round;">
<text x="55550" y="63750"
textLength="680" font-size="660" lengthAdjust="spacingAndGlyphs"
text-anchor="start" opacity="0">+</text>
<path d="M55690 63530
L56080 63530
" />
<path d="M55880 63720
L55880 63340
" />
</g>
<g style="fill:#840000; fill-opacity:0.0; 
stroke:#840000; stroke-width:60; stroke-opacity:1; 
stroke-linecap:round; stroke-linejoin:round;">
<text x="55000" y="63400"
textLength="540" font-size="660" lengthAdjust="spacingAndGlyphs"
text-anchor="middle" opacity="0">5</text>
<path d="M55110 62870
L54880 62870
L54850 63110
L54880 63090
L54920 63060
L55040 63060
L55090 63090
L55110 63110
L55140 63160
L55140 63280
L55110 63320
L55090 63350
L55040 63370
L54920 63370
L54880 63350
L54850 63320
" />
<path d="M55500 65500
L54500 65500
" />
</g>
<g style="fill:#008484; fill-opacity:0.0; 
stroke:#008484; stroke-width:60; stroke-opacity:1; 
stroke-linecap:round; stroke-linejoin:round;">
<text x="55550" y="65750"
textLength="680" font-size="660" lengthAdjust="spacingAndGlyphs"
text-anchor="start" opacity="0">-</text>
<path d="M55690 65530
L56080 65530
" />
</g>
<g style="fill:#840000; fill-opacity:0.0; 
stroke:#840000; stroke-width:60; stroke-opacity:1; 
stroke-linecap:round; stroke-linejoin:round;">
<text x="55000" y="65400"
textLength="540" font-size="660" lengthAdjust="spacingAndGlyphs"
text-anchor="middle" opacity="0">6</text>
<path d="M55090 64870
L55000 64870
L54950 64900
L54920 64920
L54880 64990
L54850 65090
L54850 65280
L54880 65320
L54900 65350
L54950 65370
L55040 65370
L55090 65350
L55110 65320
L55140 65280
L55140 65160
L55110 65110
L55090 65090
L55040 65060
L54950 65060
L54900 65090
L54880 65110
L54850 65160
" />
<path d="M59500 64500
L60500 64500
" />
<text x="60000" y="64400"
textLength="540" font-size="660" lengthAdjust="spacingAndGlyphs"
text-anchor="middle" opacity="0">7</text>
<path d="M59830 63870
L60160 63870
L59950 64370
" />
</g>
<g style="fill:#008484; fill-opacity:0.0; 
stroke:#008484; stroke-width:60; stroke-opacity:1; 
stroke-linecap:round; stroke-linejoin:round;">
<text x="57500" y="61100"
textLength="1560" font-size="660" lengthAdjust="spacingAndGlyphs"
text-anchor="middle" opacity="0">U9B</text>
<path d="M56860 60570
L56860 60980
L56890 61020
L56910 61050
L56960 61070
L57050 61070
L57100 61050
L57130 61020
L57150 60980
L57150 60570
" />
<path d="M57410 61070
L57510 61070
L57550 61050
L57580 61020
L57630 60950
L57650 60860
L57650 60670
L57630 60620
L57600 60600
L57550 60570
L57460 60570
L57410 60600
L57390 60620
L57360 60670
L57360 60790
L57390 60830
L57410 60860
L57460 60880
L57550 60880
L57600 60860
L57630 60830
L57650 60790
" />
<path d="M58030 60810
L58100 60830
L58130 60860
L58150 60900
L58150 60980
L58130 61020
L58100 61050
L58050 61070
L57860 61070
L57860 60570
L58030 60570
L58080 60600
L58100 60620
L58130 60670
L58130 60710
L58100 60760
L58080 60790
L58030 60810
L57860 60810
" />
<text x="57500" y="62010"
textLength="2270" font-size="660" lengthAdjust="spacingAndGlyphs"
text-anchor="middle" opacity="0">TL072</text>
<path d="M56440 61480
L56720 61480
" />
<path d="M56580 61980
L56580 61480
" />
<path d="M57130 61980
L56890 61980
L56890 61480
" />
<path d="M57390 61480
L57440 61480
L57480 61510
L57510 61530
L57530 61580
L57550 61670
L57550 61790
L57530 61890
L57510 61930
L57480 61960
L57440 61980
L57390 61980
L57340 61960
L57320 61930
L57290 61890
L57270 61790
L57270 61670
L57290 61580
L57320 61530
L57340 61510
L57390 61480
" />
<path d="M57720 61480
L58050 61480
L57840 61980
" />
<path d="M58220 61530
L58250 61510
L58290 61480
L58410 61480
L58460 61510
L58480 61530
L58510 61580
L58510 61620
L58480 61700
L58200 61980
L58510 61980
" />
</g>
</g>
<g style="fill:#008484; fill-opacity:0.0; 
stroke:#008484; stroke-width:0; stroke-opacity:1; 
stroke-linecap:round; stroke-linejoin:round;">
<g >
</g>
<g style="fill:#840000; fill-opacity:0.0; 
stroke:#840000; stroke-width:0; stroke-opacity:1; 
stroke-linecap:round; stroke-linejoin:round;">
</g>
<g style="fill:#FFFFC2; fill-opacity:0.0; 
stroke:#FFFFC2; stroke-width:0; stroke-opacity:1; 
stroke-linecap:round; stroke-linejoin:round;">
</g>
<g style="fill:#FFFFC2; fill-opacity:0.6; 
stroke:#FFFFC2; stroke-width:0; stroke-opacity:1; 
stroke-linecap:round; stroke-linejoin:round;">
<path style="fill:#FFFFC2; fill-opacity:0.6; 
stroke:#FFFFC2; stroke-width:0; stroke-opacity:1; 
stroke-linecap:round; stroke-linejoin:round;fill-rule:evenodd;"
d="M 51500,28500
55500,26500
51500,24500
Z" /> 
</g>
<g style="fill:#840000; fill-opacity:0.6; 
stroke:#840000; stroke-width:0; stroke-opacity:1; 
stroke-linecap:round; stroke-linejoin:round;">
</g>
<g style="fill:#840000; fill-opacity:0.0; 
stroke:#840000; stroke-width:100; stroke-opacity:1; 
stroke-linecap:round; stroke-linejoin:round;">
<path style="fill:#840000; fill-opacity:0.0; 
stroke:#840000; stroke-width:100; stroke-opacity:1; 
stroke-linecap:round; stroke-linejoin:round;fill:none"
d="M 51500,28500
55500,26500
51500,24500
Z" /> 
<path style="fill:#840000; fill-opacity:0.0; 
stroke:#840000; stroke-width:100; stroke-opacity:1; 
stroke-linecap:round; stroke-linejoin:round;fill:none"
d="M 51500,28500
55500,26500
51500,24500
Z" /> 
</g>
<g style="fill:#840000; fill-opacity:0.0; 
stroke:#840000; stroke-width:60; stroke-opacity:1; 
stroke-linecap:round; stroke-linejoin:round;">
<path d="M55500 26500
L56500 26500
" />
<text x="56000" y="26400"
textLength="540" font-size="660" lengthAdjust="spacingAndGlyphs"
text-anchor="middle" opacity="0">1</text>
<path d="M56140 26370
L55850 26370
" />
<path d="M56000 26370
L56000 25870
L55950 25940
L55900 25990
L55850 26010
" />
<path d="M51500 25500
L50500 25500
" />
</g>
<g style="fill:#008484; fill-opacity:0.0; 
stroke:#008484; stroke-width:60; stroke-opacity:1; 
stroke-linecap:round; stroke-linejoin:round;">
<text x="51550" y="25750"
textLength="680" font-size="660" lengthAdjust="spacingAndGlyphs"
text-anchor="start" opacity="0">-</text>
<path d="M51690 25530
L52080 25530
" />
</g>
<g style="fill:#840000; fill-opacity:0.0; 
stroke:#840000; stroke-width:60; stroke-opacity:1; 
stroke-linecap:round; stroke-linejoin:round;">
<text x="51000" y="25400"
textLength="540" font-size="660" lengthAdjust="spacingAndGlyphs"
text-anchor="middle" opacity="0">2</text>
<path d="M50850 24920
L50880 24900
L50920 24870
L51040 24870
L51090 24900
L51110 24920
L51140 24970
L51140 25010
L51110 25090
L50830 25370
L51140 25370
" />
<path d="M51500 27500
L50500 27500
" />
</g>
<g style="fill:#008484; fill-opacity:0.0; 
stroke:#008484; stroke-width:60; stroke-opacity:1; 
stroke-linecap:round; stroke-linejoin:round;">
<text x="51550" y="27750"
textLength="680" font-size="660" lengthAdjust="spacingAndGlyphs"
text-anchor="start" opacity="0">+</text>
<path d="M51690 27530
L52080 27530
" />
<path d="M51880 27720
L51880 27340
" />
</g>
<g style="fill:#840000; fill-opacity:0.0; 
stroke:#840000; stroke-width:60; stroke-opacity:1; 
stroke-linecap:round; stroke-linejoin:round;">
<text x="51000" y="27400"
textLength="540" font-size="660" lengthAdjust="spacingAndGlyphs"
text-anchor="middle" opacity="0">3</text>
<path d="M50830 26870
L51140 26870
L50970 27060
L51040 27060
L51090 27090
L51110 27110
L51140 27160
L51140 27280
L51110 27320
L51090 27350
L51040 27370
L50900 27370
L50850 27350
L50830 27320
" />
</g>
<g style="fill:#008484; fill-opacity:0.0; 
stroke:#008484; stroke-width:60; stroke-opacity:1; 
stroke-linecap:round; stroke-linejoin:round;">
<text x="53500" y="23050"
textLength="1490" font-size="660" lengthAdjust="spacingAndGlyphs"
text-anchor="middle" opacity="0">U9A</text>
<path d="M52900 22520
L52900 22930
L52920 22970
L52950 23000
L53000 23020
L53090 23020
L53140 23000
L53160 22970
L53190 22930
L53190 22520
" />
<path d="M53450 23020
L53540 23020
L53590 23000
L53610 22970
L53660 22900
L53690 22810
L53690 22620
L53660 22570
L53640 22550
L53590 22520
L53500 22520
L53450 22550
L53420 22570
L53400 22620
L53400 22740
L53420 22780
L53450 22810
L53500 22830
L53590 22830
L53640 22810
L53660 22780
L53690 22740
" />
<path d="M53880 22880
L54110 22880
" />
<path d="M53830 23020
L54000 22520
L54160 23020
" />
<text x="53500" y="23960"
textLength="2270" font-size="660" lengthAdjust="spacingAndGlyphs"
text-anchor="middle" opacity="0">TL072</text>
<path d="M52440 23430
L52720 23430
" />
<path d="M52580 23930
L52580 23430
" />
<path d="M53130 23930
L52890 23930
L52890 23430
" />
<path d="M53390 23430
L53440 23430
L53480 23460
L53510 23480
L53530 23530
L53550 23620
L53550 23740
L53530 23840
L53510 23880
L53480 23910
L53440 23930
L53390 23930
L53340 23910
L53320 23880
L53290 23840
L53270 23740
L53270 23620
L53290 23530
L53320 23480
L53340 23460
L53390 23430
" />
<path d="M53720 23430
L54050 23430
L53840 23930
" />
<path d="M54220 23480
L54250 23460
L54290 23430
L54410 23430
L54460 23460
L54480 23480
L54510 23530
L54510 23570
L54480 23650
L54200 23930
L54510 23930
" />
</g>
</g>
<g style="fill:#008484; fill-opacity:0.0; 
stroke:#008484; stroke-width:0; stroke-opacity:1; 
stroke-linecap:round; stroke-linejoin:round;">
<g >
</g>
<g style="fill:#840000; fill-opacity:0.0; 
stroke:#840000; stroke-width:0; stroke-opacity:1; 
stroke-linecap:round; stroke-linejoin:round;">
</g>
<g style="fill:#840000; fill-opacity:0.0; 
stroke:#840000; stroke-width:200; stroke-opacity:1; 
stroke-linecap:round; stroke-linejoin:round;">
<path style="fill:#840000; fill-opacity:0.0; 
stroke:#840000; stroke-width:200; stroke-opacity:1; 
stroke-linecap:round; stroke-linejoin:round;fill:none"
d="M 26950,67550
28550,67550
" /> 
<path style="fill:#840000; fill-opacity:0.0; 
stroke:#840000; stroke-width:200; stroke-opacity:1; 
stroke-linecap:round; stroke-linejoin:round;fill:none"
d="M 26950,66950
28550,66950
" /> 
</g>
<g style="fill:#840000; fill-opacity:0.0; 
stroke:#840000; stroke-width:60; stroke-opacity:1; 
stroke-linecap:round; stroke-linejoin:round;">
<path d="M27750 66850
L27750 65750
" />
<path d="M27750 67650
L27750 68750
" />
</g>
<g style="fill:#008484; fill-opacity:0.0; 
stroke:#008484; stroke-width:60; stroke-opacity:1; 
stroke-linecap:round; stroke-linejoin:round;">
<text x="29650" y="67060"
textLength="1510" font-size="660" lengthAdjust="spacingAndGlyphs"
text-anchor="middle" opacity="0">C28</text>
<path d="M29320 66980
L29300 67010
L29230 67030
L29180 67030
L29110 67010
L29060 66960
L29040 66910
L29010 66820
L29010 66750
L29040 66650
L29060 66600
L29110 66560
L29180 66530
L29230 66530
L29300 66560
L29320 66580
" />
<path d="M29510 66580
L29540 66560
L29590 66530
L29700 66530
L29750 66560
L29780 66580
L29800 66630
L29800 66670
L29780 66750
L29490 67030
L29800 67030
" />
<path d="M30090 66750
L30040 66720
L30010 66700
L29990 66650
L29990 66630
L30010 66580
L30040 66560
L30090 66530
L30180 66530
L30230 66560
L30250 66580
L30280 66630
L30280 66650
L30250 66700
L30230 66720
L30180 66750
L30090 66750
L30040 66770
L30010 66790
L29990 66840
L29990 66940
L30010 66980
L30040 67010
L30090 67030
L30180 67030
L30230 67010
L30250 66980
L30280 66940
L30280 66840
L30250 66790
L30230 66770
L30180 66750
" />
<text x="30080" y="67970"
textLength="2370" font-size="660" lengthAdjust="spacingAndGlyphs"
text-anchor="middle" opacity="0">100nF</text>
<path d="M29300 67940
L29020 67940
" />
<path d="M29160 67940
L29160 67440
L29110 67510
L29060 67560
L29020 67580
" />
<path d="M29610 67440
L29660 67440
L29710 67470
L29730 67490
L29750 67540
L29780 67630
L29780 67750
L29750 67850
L29730 67890
L29710 67920
L29660 67940
L29610 67940
L29560 67920
L29540 67890
L29520 67850
L29490 67750
L29490 67630
L29520 67540
L29540 67490
L29560 67470
L29610 67440
" />
<path d="M30090 67440
L30130 67440
L30180 67470
L30210 67490
L30230 67540
L30250 67630
L30250 67750
L30230 67850
L30210 67890
L30180 67920
L30130 67940
L30090 67940
L30040 67920
L30020 67890
L29990 67850
L29970 67750
L29970 67630
L29990 67540
L30020 67490
L30040 67470
L30090 67440
" />
<path d="M30470 67610
L30470 67940
" />
<path d="M30470 67660
L30490 67630
L30540 67610
L30610 67610
L30660 67630
L30680 67680
L30680 67940
" />
<path d="M31090 67680
L30920 67680
" />
<path d="M30920 67940
L30920 67440
L31160 67440
" />
</g>
</g>
<g style="fill:#008484; fill-opacity:0.0; 
stroke:#008484; stroke-width:0; stroke-opacity:1; 
stroke-linecap:round; stroke-linejoin:round;">
<g >
</g>
<g style="fill:#840000; fill-opacity:0.0; 
stroke:#840000; stroke-width:0; stroke-opacity:1; 
stroke-linecap:round; stroke-linejoin:round;">
</g>
<g style="fill:#840000; fill-opacity:0.0; 
stroke:#840000; stroke-width:200; stroke-opacity:1; 
stroke-linecap:round; stroke-linejoin:round;">
<path style="fill:#840000; fill-opacity:0.0; 
stroke:#840000; stroke-width:200; stroke-opacity:1; 
stroke-linecap:round; stroke-linejoin:round;fill:none"
d="M 31950,67800
33550,67800
" /> 
<path style="fill:#840000; fill-opacity:0.0; 
stroke:#840000; stroke-width:200; stroke-opacity:1; 
stroke-linecap:round; stroke-linejoin:round;fill:none"
d="M 31950,67200
33550,67200
" /> 
</g>
<g style="fill:#840000; fill-opacity:0.0; 
stroke:#840000; stroke-width:60; stroke-opacity:1; 
stroke-linecap:round; stroke-linejoin:round;">
<path d="M32750 67100
L32750 66000
" />
<path d="M32750 67900
L32750 69000
" />
</g>
<g style="fill:#008484; fill-opacity:0.0; 
stroke:#008484; stroke-width:60; stroke-opacity:1; 
stroke-linecap:round; stroke-linejoin:round;">
<text x="34650" y="67310"
textLength="1510" font-size="660" lengthAdjust="spacingAndGlyphs"
text-anchor="middle" opacity="0">C29</text>
<path d="M34320 67230
L34300 67260
L34230 67280
L34180 67280
L34110 67260
L34060 67210
L34040 67160
L34010 67070
L34010 67000
L34040 66900
L34060 66850
L34110 66810
L34180 66780
L34230 66780
L34300 66810
L34320 66830
" />
<path d="M34510 66830
L34540 66810
L34590 66780
L34700 66780
L34750 66810
L34780 66830
L34800 66880
L34800 66920
L34780 67000
L34490 67280
L34800 67280
" />
<path d="M35040 67280
L35130 67280
L35180 67260
L35200 67230
L35250 67160
L35280 67070
L35280 66880
L35250 66830
L35230 66810
L35180 66780
L35090 66780
L35040 66810
L35010 66830
L34990 66880
L34990 67000
L35010 67040
L35040 67070
L35090 67090
L35180 67090
L35230 67070
L35250 67040
L35280 67000
" />
<text x="35080" y="68220"
textLength="2370" font-size="660" lengthAdjust="spacingAndGlyphs"
text-anchor="middle" opacity="0">100nF</text>
<path d="M34300 68190
L34020 68190
" />
<path d="M34160 68190
L34160 67690
L34110 67760
L34060 67810
L34020 67830
" />
<path d="M34610 67690
L34660 67690
L34710 67720
L34730 67740
L34750 67790
L34780 67880
L34780 68000
L34750 68100
L34730 68140
L34710 68170
L34660 68190
L34610 68190
L34560 68170
L34540 68140
L34520 68100
L34490 68000
L34490 67880
L34520 67790
L34540 67740
L34560 67720
L34610 67690
" />
<path d="M35090 67690
L35130 67690
L35180 67720
L35210 67740
L35230 67790
L35250 67880
L35250 68000
L35230 68100
L35210 68140
L35180 68170
L35130 68190
L35090 68190
L35040 68170
L35020 68140
L34990 68100
L34970 68000
L34970 67880
L34990 67790
L35020 67740
L35040 67720
L35090 67690
" />
<path d="M35470 67860
L35470 68190
" />
<path d="M35470 67910
L35490 67880
L35540 67860
L35610 67860
L35660 67880
L35680 67930
L35680 68190
" />
<path d="M36090 67930
L35920 67930
" />
<path d="M35920 68190
L35920 67690
L36160 67690
" />
</g>
</g>
<g style="fill:#008484; fill-opacity:0.0; 
stroke:#008484; stroke-width:0; stroke-opacity:1; 
stroke-linecap:round; stroke-linejoin:round;">
<g >
</g>
<g style="fill:#840000; fill-opacity:0.0; 
stroke:#840000; stroke-width:0; stroke-opacity:1; 
stroke-linecap:round; stroke-linejoin:round;">
</g>
<g style="fill:#840000; fill-opacity:0.0; 
stroke:#840000; stroke-width:100; stroke-opacity:1; 
stroke-linecap:round; stroke-linejoin:round;">
<rect x="51500" y="36350" width="2000" height="800" rx="0" />
</g>
<g style="fill:#840000; fill-opacity:0.0; 
stroke:#840000; stroke-width:60; stroke-opacity:1; 
stroke-linecap:round; stroke-linejoin:round;">
<path d="M51500 36750
L51000 36750
" />
<path d="M53500 36750
L54000 36750
" />
</g>
<g style="fill:#008484; fill-opacity:0.0; 
stroke:#008484; stroke-width:60; stroke-opacity:1; 
stroke-linecap:round; stroke-linejoin:round;">
<text x="52490" y="34950"
textLength="1510" font-size="660" lengthAdjust="spacingAndGlyphs"
text-anchor="middle" opacity="0">R30</text>
<path d="M52160 34920
L52000 34680
" />
<path d="M51880 34920
L51880 34420
L52070 34420
L52120 34450
L52140 34470
L52160 34520
L52160 34590
L52140 34640
L52120 34660
L52070 34680
L51880 34680
" />
<path d="M52330 34420
L52640 34420
L52470 34610
L52540 34610
L52590 34640
L52620 34660
L52640 34710
L52640 34830
L52620 34870
L52590 34900
L52540 34920
L52400 34920
L52350 34900
L52330 34870
" />
<path d="M52950 34420
L53000 34420
L53040 34450
L53070 34470
L53090 34520
L53120 34610
L53120 34730
L53090 34830
L53070 34870
L53040 34900
L53000 34920
L52950 34920
L52900 34900
L52880 34870
L52850 34830
L52830 34730
L52830 34610
L52850 34520
L52880 34470
L52900 34450
L52950 34420
" />
<text x="52490" y="35860"
textLength="1510" font-size="660" lengthAdjust="spacingAndGlyphs"
text-anchor="middle" opacity="0">10K</text>
<path d="M52140 35830
L51850 35830
" />
<path d="M52000 35830
L52000 35330
L51950 35400
L51900 35450
L51850 35470
" />
<path d="M52450 35330
L52500 35330
L52540 35360
L52570 35380
L52590 35430
L52620 35520
L52620 35640
L52590 35740
L52570 35780
L52540 35810
L52500 35830
L52450 35830
L52400 35810
L52380 35780
L52350 35740
L52330 35640
L52330 35520
L52350 35430
L52380 35380
L52400 35360
L52450 35330
" />
<path d="M52830 35830
L52830 35330
" />
<path d="M53120 35830
L52900 35550
" />
<path d="M53120 35330
L52830 35620
" />
</g>
</g>
<g style="fill:#008484; fill-opacity:0.0; 
stroke:#008484; stroke-width:0; stroke-opacity:1; 
stroke-linecap:round; stroke-linejoin:round;">
<g >
</g>
<g style="fill:#840000; fill-opacity:0.0; 
stroke:#840000; stroke-width:0; stroke-opacity:1; 
stroke-linecap:round; stroke-linejoin:round;">
</g>
<g style="fill:#840000; fill-opacity:0.0; 
stroke:#840000; stroke-width:60; stroke-opacity:1; 
stroke-linecap:round; stroke-linejoin:round;">
<path style="fill:#840000; fill-opacity:0.0; 
stroke:#840000; stroke-width:60; stroke-opacity:1; 
stroke-linecap:round; stroke-linejoin:round;fill:none"
d="M 27750,71500
27750,72000
28250,72000
27750,72500
27250,72000
27750,72000
" /> 
</g>
<g style="fill:#008484; fill-opacity:0.0; 
stroke:#008484; stroke-width:60; stroke-opacity:1; 
stroke-linecap:round; stroke-linejoin:round;">
<text x="27800" y="73500"
textLength="2060" font-size="660" lengthAdjust="spacingAndGlyphs"
text-anchor="middle" opacity="0">GNDS</text>
<path d="M27180 73000
L27130 72970
L27060 72970
L26990 73000
L26940 73040
L26910 73090
L26890 73190
L26890 73260
L26910 73350
L26940 73400
L26990 73450
L27060 73470
L27100 73470
L27180 73450
L27200 73420
L27200 73260
L27100 73260
" />
<path d="M27410 73470
L27410 72970
L27700 73470
L27700 72970
" />
<path d="M27940 73470
L27940 72970
L28060 72970
L28130 73000
L28180 73040
L28200 73090
L28220 73190
L28220 73260
L28200 73350
L28180 73400
L28130 73450
L28060 73470
L27940 73470
" />
<path d="M28410 73450
L28490 73470
L28600 73470
L28650 73450
L28680 73420
L28700 73380
L28700 73330
L28680 73280
L28650 73260
L28600 73230
L28510 73210
L28460 73190
L28440 73160
L28410 73110
L28410 73070
L28440 73020
L28460 73000
L28510 72970
L28630 72970
L28700 73000
" />
</g>
</g>
<g style="fill:#008484; fill-opacity:0.0; 
stroke:#008484; stroke-width:0; stroke-opacity:1; 
stroke-linecap:round; stroke-linejoin:round;">
<g >
</g>
<g style="fill:#840000; fill-opacity:0.0; 
stroke:#840000; stroke-width:0; stroke-opacity:1; 
stroke-linecap:round; stroke-linejoin:round;">
</g>
<g style="fill:#840000; fill-opacity:0.0; 
stroke:#840000; stroke-width:60; stroke-opacity:1; 
stroke-linecap:round; stroke-linejoin:round;">
<path style="fill:#840000; fill-opacity:0.0; 
stroke:#840000; stroke-width:60; stroke-opacity:1; 
stroke-linecap:round; stroke-linejoin:round;fill:none"
d="M 32750,71500
32750,72000
33250,72000
32750,72500
32250,72000
32750,72000
" /> 
</g>
<g style="fill:#008484; fill-opacity:0.0; 
stroke:#008484; stroke-width:60; stroke-opacity:1; 
stroke-linecap:round; stroke-linejoin:round;">
<text x="32800" y="73500"
textLength="2060" font-size="660" lengthAdjust="spacingAndGlyphs"
text-anchor="middle" opacity="0">GNDS</text>
<path d="M32180 73000
L32130 72970
L32060 72970
L31990 73000
L31940 73040
L31910 73090
L31890 73190
L31890 73260
L31910 73350
L31940 73400
L31990 73450
L32060 73470
L32100 73470
L32180 73450
L32200 73420
L32200 73260
L32100 73260
" />
<path d="M32410 73470
L32410 72970
L32700 73470
L32700 72970
" />
<path d="M32940 73470
L32940 72970
L33060 72970
L33130 73000
L33180 73040
L33200 73090
L33220 73190
L33220 73260
L33200 73350
L33180 73400
L33130 73450
L33060 73470
L32940 73470
" />
<path d="M33410 73450
L33490 73470
L33600 73470
L33650 73450
L33680 73420
L33700 73380
L33700 73330
L33680 73280
L33650 73260
L33600 73230
L33510 73210
L33460 73190
L33440 73160
L33410 73110
L33410 73070
L33440 73020
L33460 73000
L33510 72970
L33630 72970
L33700 73000
" />
</g>
</g>
<g style="fill:#008484; fill-opacity:0.0; 
stroke:#008484; stroke-width:60; stroke-opacity:1; 
stroke-linecap:round; stroke-linejoin:round;">
</g>
<g style="fill:#008400; fill-opacity:0.0; 
stroke:#008400; stroke-width:60; stroke-opacity:1; 
stroke-linecap:round; stroke-linejoin:round;">
<path d="M32750 57750
L21250 57750
" />
<path d="M32750 66000
L32750 57750
" />
<path d="M27750 64750
L21250 64750
" />
<path d="M27750 65750
L27750 64750
" />
<path d="M32750 69000
L32750 71500
" />
<path d="M27750 68750
L27750 71500
" />
<path d="M21250 57750
L21250 58250
" />
<path d="M41750 26500
L41750 36750
" />
<path d="M21250 64750
L21250 67000
" />
<path d="M21250 64250
L21250 64750
" />
<path d="M61750 26500
L56500 26500
" />
<path d="M21250 57250
L21250 57750
" />
<path d="M89750 26500
L61750 26500
" />
<path d="M50500 27500
L47750 27500
" />
<path d="M47750 27500
L47750 30250
" />
<path d="M54000 36750
L61750 36750
" />
<path d="M61750 36750
L61750 26500
" />
<path d="M51000 36750
L41750 36750
" />
<path d="M41750 26500
L21000 26500
" />
<path d="M50500 25500
L41750 25500
" />
<path d="M41750 25500
L41750 26500
" />
</g>
<g style="fill:#848400; fill-opacity:0.0; 
stroke:#848400; stroke-width:60; stroke-opacity:1; 
stroke-linecap:round; stroke-linejoin:round;">
<text x="20400" y="26750"
textLength="5180" font-size="660" lengthAdjust="spacingAndGlyphs"
text-anchor="end" opacity="0">SIGNAL_INPUT</text>
<path d="M15340 26700
L15410 26720
L15530 26720
L15580 26700
L15600 26670
L15630 26630
L15630 26580
L15600 26530
L15580 26510
L15530 26480
L15440 26460
L15390 26440
L15370 26410
L15340 26360
L15340 26320
L15370 26270
L15390 26250
L15440 26220
L15560 26220
L15630 26250
" />
<path d="M15840 26720
L15840 26220
" />
<path d="M16340 26250
L16290 26220
L16220 26220
L16150 26250
L16100 26290
L16080 26340
L16060 26440
L16060 26510
L16080 26600
L16100 26650
L16150 26700
L16220 26720
L16270 26720
L16340 26700
L16370 26670
L16370 26510
L16270 26510
" />
<path d="M16580 26720
L16580 26220
L16870 26720
L16870 26220
" />
<path d="M17080 26580
L17320 26580
" />
<path d="M17030 26720
L17200 26220
L17370 26720
" />
<path d="M17770 26720
L17530 26720
L17530 26220
" />
<path d="M17820 26770
L18200 26770
" />
<path d="M18320 26720
L18320 26220
" />
<path d="M18560 26720
L18560 26220
L18840 26720
L18840 26220
" />
<path d="M19080 26720
L19080 26220
L19270 26220
L19320 26250
L19340 26270
L19370 26320
L19370 26390
L19340 26440
L19320 26460
L19270 26480
L19080 26480
" />
<path d="M19580 26220
L19580 26630
L19600 26670
L19630 26700
L19670 26720
L19770 26720
L19820 26700
L19840 26670
L19870 26630
L19870 26220
" />
<path d="M20030 26220
L20320 26220
" />
<path d="M20170 26720
L20170 26220
" />
</g>
<g style="fill:#848400; fill-opacity:0.0; 
stroke:#848400; stroke-width:100; stroke-opacity:1; 
stroke-linecap:round; stroke-linejoin:round;">
<path style="fill:#848400; fill-opacity:0.0; 
stroke:#848400; stroke-width:100; stroke-opacity:1; 
stroke-linecap:round; stroke-linejoin:round;fill:none"
d="M 21000,26500
20750,26250
20500,26250
20500,26750
20750,26750
Z" /> 
</g>
<g style="fill:#848400; fill-opacity:0.0; 
stroke:#848400; stroke-width:60; stroke-opacity:1; 
stroke-linecap:round; stroke-linejoin:round;">
<text x="90350" y="26750"
textLength="5850" font-size="660" lengthAdjust="spacingAndGlyphs"
text-anchor="start" opacity="0">SIGNAL_OUTPUT</text>
<path d="M90470 26700
L90540 26720
L90660 26720
L90710 26700
L90730 26670
L90760 26630
L90760 26580
L90730 26530
L90710 26510
L90660 26480
L90570 26460
L90520 26440
L90490 26410
L90470 26360
L90470 26320
L90490 26270
L90520 26250
L90570 26220
L90680 26220
L90760 26250
" />
<path d="M90970 26720
L90970 26220
" />
<path d="M91470 26250
L91420 26220
L91350 26220
L91280 26250
L91230 26290
L91210 26340
L91180 26440
L91180 26510
L91210 26600
L91230 26650
L91280 26700
L91350 26720
L91400 26720
L91470 26700
L91490 26670
L91490 26510
L91400 26510
" />
<path d="M91710 26720
L91710 26220
L91990 26720
L91990 26220
" />
<path d="M92210 26580
L92450 26580
" />
<path d="M92160 26720
L92330 26220
L92490 26720
" />
<path d="M92900 26720
L92660 26720
L92660 26220
" />
<path d="M92950 26770
L93330 26770
" />
<path d="M93540 26220
L93640 26220
L93680 26250
L93730 26290
L93760 26390
L93760 26550
L93730 26650
L93680 26700
L93640 26720
L93540 26720
L93490 26700
L93450 26650
L93420 26550
L93420 26390
L93450 26290
L93490 26250
L93540 26220
" />
<path d="M93970 26220
L93970 26630
L93990 26670
L94020 26700
L94070 26720
L94160 26720
L94210 26700
L94230 26670
L94260 26630
L94260 26220
" />
<path d="M94420 26220
L94710 26220
" />
<path d="M94570 26720
L94570 26220
" />
<path d="M94880 26720
L94880 26220
L95070 26220
L95110 26250
L95140 26270
L95160 26320
L95160 26390
L95140 26440
L95110 26460
L95070 26480
L94880 26480
" />
<path d="M95380 26220
L95380 26630
L95400 26670
L95420 26700
L95470 26720
L95570 26720
L95610 26700
L95640 26670
L95660 26630
L95660 26220
" />
<path d="M95830 26220
L96110 26220
" />
<path d="M95970 26720
L95970 26220
" />
</g>
<g style="fill:#848400; fill-opacity:0.0; 
stroke:#848400; stroke-width:100; stroke-opacity:1; 
stroke-linecap:round; stroke-linejoin:round;">
<path style="fill:#848400; fill-opacity:0.0; 
stroke:#848400; stroke-width:100; stroke-opacity:1; 
stroke-linecap:round; stroke-linejoin:round;fill:none"
d="M 89750,26500
90000,26750
90250,26750
90250,26250
90000,26250
Z" /> 
</g>
<g style="fill:#848400; fill-opacity:0.0; 
stroke:#848400; stroke-width:60; stroke-opacity:1; 
stroke-linecap:round; stroke-linejoin:round;">
<g transform="rotate(-90 21250 67600)">
<text x="21250" y="67850"
textLength="3200" font-size="660" lengthAdjust="spacingAndGlyphs"
text-anchor="end" opacity="0">NEG3VIN</text>
</g>
<path d="M21470 70650
L20970 70650
L21470 70360
L20970 70360
" />
<path d="M21210 70130
L21210 69960
" />
<path d="M21470 69890
L21470 70130
L20970 70130
L20970 69890
" />
<path d="M21000 69410
L20970 69460
L20970 69530
L21000 69600
L21040 69650
L21090 69670
L21190 69700
L21260 69700
L21350 69670
L21400 69650
L21450 69600
L21470 69530
L21470 69480
L21450 69410
L21420 69390
L21260 69390
L21260 69480
" />
<path d="M20970 69220
L20970 68910
L21160 69080
L21160 69010
L21190 68960
L21210 68930
L21260 68910
L21380 68910
L21420 68930
L21450 68960
L21470 69010
L21470 69150
L21450 69200
L21420 69220
" />
<path d="M20970 68770
L21470 68600
L20970 68430
" />
<path d="M21470 68270
L20970 68270
" />
<path d="M21470 68030
L20970 68030
L21470 67740
L20970 67740
" />
</g>
<g style="fill:#848400; fill-opacity:0.0; 
stroke:#848400; stroke-width:100; stroke-opacity:1; 
stroke-linecap:round; stroke-linejoin:round;">
<path style="fill:#848400; fill-opacity:0.0; 
stroke:#848400; stroke-width:100; stroke-opacity:1; 
stroke-linecap:round; stroke-linejoin:round;fill:none"
d="M 21250,67000
21500,67250
21500,67500
21000,67500
21000,67250
Z" /> 
</g>
<g style="fill:#848400; fill-opacity:0.0; 
stroke:#848400; stroke-width:0; stroke-opacity:1; 
stroke-linecap:round; stroke-linejoin:round;">
</g>
<g style="fill:#008400; fill-opacity:0.0; 
stroke:#008400; stroke-width:0; stroke-opacity:1; 
stroke-linecap:round; stroke-linejoin:round;">
</g>
<g style="fill:#008400; fill-opacity:1.0; 
stroke:#008400; stroke-width:100; stroke-opacity:1; 
stroke-linecap:round; stroke-linejoin:round;">
<circle cx="21250" cy="64750" r="200" /> 
</g>
<g style="fill:#008400; fill-opacity:1.0; 
stroke:#008400; stroke-width:0; stroke-opacity:1; 
stroke-linecap:round; stroke-linejoin:round;">
</g>
<g style="fill:#008400; fill-opacity:1.0; 
stroke:#008400; stroke-width:100; stroke-opacity:1; 
stroke-linecap:round; stroke-linejoin:round;">
<circle cx="61750" cy="26500" r="200" /> 
</g>
<g style="fill:#008400; fill-opacity:1.0; 
stroke:#008400; stroke-width:0; stroke-opacity:1; 
stroke-linecap:round; stroke-linejoin:round;">
</g>
<g style="fill:#008400; fill-opacity:1.0; 
stroke:#008400; stroke-width:100; stroke-opacity:1; 
stroke-linecap:round; stroke-linejoin:round;">
<circle cx="21250" cy="57750" r="200" /> 
</g>
<g style="fill:#008400; fill-opacity:1.0; 
stroke:#008400; stroke-width:0; stroke-opacity:1; 
stroke-linecap:round; stroke-linejoin:round;">
</g>
<g style="fill:#008400; fill-opacity:1.0; 
stroke:#008400; stroke-width:100; stroke-opacity:1; 
stroke-linecap:round; stroke-linejoin:round;">
<circle cx="41750" cy="26500" r="200" /> 
</g>
<g style="fill:#008400; fill-opacity:1.0; 
stroke:#008400; stroke-width:60; stroke-opacity:1; 
stroke-linecap:round; stroke-linejoin:round;">
</g>
<g style="fill:#000084; fill-opacity:1.0; 
stroke:#000084; stroke-width:60; stroke-opacity:1; 
stroke-linecap:round; stroke-linejoin:round;">
</g>
<g style="fill:#000084; fill-opacity:0.0; 
stroke:#000084; stroke-width:60; stroke-opacity:1; 
stroke-linecap:round; stroke-linejoin:round;">
<path d="M54260 65260
L54740 65740
" />
<path d="M54740 65260
L54260 65740
" />
<path d="M54260 63260
L54740 63740
" />
<path d="M54740 63260
L54260 63740
" />
<path d="M60260 64260
L60740 64740
" />
<path d="M60740 64260
L60260 64740
" />
</g> 
</svg>
