%TF.GenerationSoftware,KiCad,Pcbnew,5.1.6-c6e7f7d~87~ubuntu18.04.1*%
%TF.CreationDate,2020-10-25T00:47:44+01:00*%
%TF.ProjectId,ActiveMixerPedalWithDigitalPeakDetector,41637469-7665-44d6-9978-657250656461,rev?*%
%TF.SameCoordinates,Original*%
%TF.FileFunction,Copper,L1,Top*%
%TF.FilePolarity,Positive*%
%FSLAX46Y46*%
G04 Gerber Fmt 4.6, Leading zero omitted, Abs format (unit mm)*
G04 Created by KiCad (PCBNEW 5.1.6-c6e7f7d~87~ubuntu18.04.1) date 2020-10-25 00:47:44*
%MOMM*%
%LPD*%
G01*
G04 APERTURE LIST*
%TA.AperFunction,Profile*%
%ADD10C,0.050000*%
%TD*%
%TA.AperFunction,Profile*%
%ADD11C,0.150000*%
%TD*%
%TA.AperFunction,ComponentPad*%
%ADD12C,6.000000*%
%TD*%
%TA.AperFunction,NonConductor*%
%ADD13C,0.254000*%
%TD*%
G04 APERTURE END LIST*
D10*
X127812800Y-83185000D02*
X130733800Y-83185000D01*
X130733800Y-133985000D02*
X127812800Y-133985000D01*
X130733800Y-83185000D02*
X130733800Y-133985000D01*
X127812800Y-133985000D02*
X127812800Y-83185000D01*
X66090800Y-83185000D02*
X69011800Y-83185000D01*
X69011800Y-133985000D02*
X66090800Y-133985000D01*
X69011800Y-83185000D02*
X69011800Y-133985000D01*
X66090800Y-133985000D02*
X66090800Y-83185000D01*
X86614000Y-83185000D02*
X89535000Y-83185000D01*
X89535000Y-133985000D02*
X86614000Y-133985000D01*
X89535000Y-83185000D02*
X89535000Y-133985000D01*
X86614000Y-133985000D02*
X86614000Y-83185000D01*
X107188000Y-133985000D02*
X107188000Y-83185000D01*
X110109000Y-133985000D02*
X107188000Y-133985000D01*
X110109000Y-83185000D02*
X110109000Y-133985000D01*
X107188000Y-83185000D02*
X110109000Y-83185000D01*
D11*
X132386465Y-64008000D02*
G75*
G03*
X132386465Y-64008000I-3100465J0D01*
G01*
X111812465Y-64008000D02*
G75*
G03*
X111812465Y-64008000I-3100465J0D01*
G01*
X91238465Y-64008000D02*
G75*
G03*
X91238465Y-64008000I-3100465J0D01*
G01*
X70664465Y-64008000D02*
G75*
G03*
X70664465Y-64008000I-3100465J0D01*
G01*
D10*
X148590000Y-140335000D02*
X147955000Y-140970000D01*
X148590000Y-135255000D02*
X148590000Y-140335000D01*
X154051000Y-135255000D02*
X148590000Y-135255000D01*
X154686000Y-134620000D02*
X154051000Y-135255000D01*
X154686000Y-60960000D02*
X154686000Y-134620000D01*
X154051000Y-60325000D02*
X154686000Y-60960000D01*
X148590000Y-60325000D02*
X154051000Y-60325000D01*
X148590000Y-55181500D02*
X148590000Y-60325000D01*
X147955000Y-54546500D02*
X148590000Y-55181500D01*
X48895000Y-54546500D02*
X147955000Y-54546500D01*
X48260000Y-55181500D02*
X48895000Y-54546500D01*
X48260000Y-60325000D02*
X48260000Y-55181500D01*
X42799000Y-60325000D02*
X48260000Y-60325000D01*
X42164000Y-60960000D02*
X42799000Y-60325000D01*
X42164000Y-134683500D02*
X42164000Y-60960000D01*
X42799000Y-135318500D02*
X42164000Y-134683500D01*
X48260000Y-135318500D02*
X42799000Y-135318500D01*
X48260000Y-140335000D02*
X48260000Y-135318500D01*
X48895000Y-140970000D02*
X48260000Y-140335000D01*
X147955000Y-140970000D02*
X48895000Y-140970000D01*
D12*
%TO.P,REF\u002A\u002A,1*%
%TO.N,N/C*%
X54610000Y-134620000D03*
%TD*%
%TO.P,REF\u002A\u002A,1*%
%TO.N,N/C*%
X142240000Y-134620000D03*
%TD*%
%TO.P,REF\u002A\u002A,1*%
%TO.N,N/C*%
X142240000Y-60960000D03*
%TD*%
%TO.P,REF\u002A\u002A,1*%
%TO.N,N/C*%
X54610000Y-60960000D03*
%TD*%
D13*
G36*
X147930000Y-55454881D02*
G01*
X147930001Y-60292571D01*
X147926807Y-60325000D01*
X147939550Y-60454383D01*
X147977290Y-60578793D01*
X148038575Y-60693450D01*
X148121052Y-60793948D01*
X148221550Y-60876425D01*
X148336207Y-60937710D01*
X148460617Y-60975450D01*
X148557581Y-60985000D01*
X148590000Y-60988193D01*
X148622419Y-60985000D01*
X153777620Y-60985000D01*
X154026000Y-61233381D01*
X154026001Y-134346618D01*
X153777620Y-134595000D01*
X148622419Y-134595000D01*
X148590000Y-134591807D01*
X148460617Y-134604550D01*
X148336207Y-134642290D01*
X148221550Y-134703575D01*
X148121052Y-134786052D01*
X148038575Y-134886550D01*
X147977290Y-135001207D01*
X147939550Y-135125617D01*
X147926807Y-135255000D01*
X147930000Y-135287419D01*
X147930001Y-140061618D01*
X147681620Y-140310000D01*
X49168381Y-140310000D01*
X48920000Y-140061620D01*
X48920000Y-135350919D01*
X48923193Y-135318500D01*
X48910450Y-135189117D01*
X48872710Y-135064707D01*
X48811425Y-134950050D01*
X48728948Y-134849552D01*
X48628450Y-134767075D01*
X48513793Y-134705790D01*
X48389383Y-134668050D01*
X48292419Y-134658500D01*
X48260000Y-134655307D01*
X48227581Y-134658500D01*
X43072381Y-134658500D01*
X42824000Y-134410120D01*
X42824000Y-134261984D01*
X50975000Y-134261984D01*
X50975000Y-134978016D01*
X51114691Y-135680290D01*
X51388705Y-136341818D01*
X51786511Y-136937177D01*
X52292823Y-137443489D01*
X52888182Y-137841295D01*
X53549710Y-138115309D01*
X54251984Y-138255000D01*
X54968016Y-138255000D01*
X55670290Y-138115309D01*
X56331818Y-137841295D01*
X56927177Y-137443489D01*
X57433489Y-136937177D01*
X57831295Y-136341818D01*
X58105309Y-135680290D01*
X58245000Y-134978016D01*
X58245000Y-134261984D01*
X58105309Y-133559710D01*
X57831295Y-132898182D01*
X57433489Y-132302823D01*
X56927177Y-131796511D01*
X56331818Y-131398705D01*
X55670290Y-131124691D01*
X54968016Y-130985000D01*
X54251984Y-130985000D01*
X53549710Y-131124691D01*
X52888182Y-131398705D01*
X52292823Y-131796511D01*
X51786511Y-132302823D01*
X51388705Y-132898182D01*
X51114691Y-133559710D01*
X50975000Y-134261984D01*
X42824000Y-134261984D01*
X42824000Y-83185000D01*
X65427607Y-83185000D01*
X65430801Y-83217430D01*
X65430800Y-133952581D01*
X65427607Y-133985000D01*
X65440350Y-134114383D01*
X65478090Y-134238793D01*
X65539375Y-134353450D01*
X65601959Y-134429708D01*
X65621852Y-134453948D01*
X65722350Y-134536425D01*
X65837007Y-134597710D01*
X65961417Y-134635450D01*
X66090800Y-134648193D01*
X66123219Y-134645000D01*
X68979381Y-134645000D01*
X69011800Y-134648193D01*
X69044219Y-134645000D01*
X69071735Y-134642290D01*
X69141183Y-134635450D01*
X69265593Y-134597710D01*
X69380250Y-134536425D01*
X69480748Y-134453948D01*
X69563225Y-134353450D01*
X69624510Y-134238793D01*
X69662250Y-134114383D01*
X69671800Y-134017419D01*
X69671800Y-134017418D01*
X69674993Y-133985000D01*
X69671800Y-133952581D01*
X69671800Y-83217419D01*
X69674993Y-83185000D01*
X85950807Y-83185000D01*
X85954001Y-83217430D01*
X85954000Y-133952581D01*
X85950807Y-133985000D01*
X85963550Y-134114383D01*
X86001290Y-134238793D01*
X86062575Y-134353450D01*
X86125159Y-134429708D01*
X86145052Y-134453948D01*
X86245550Y-134536425D01*
X86360207Y-134597710D01*
X86484617Y-134635450D01*
X86614000Y-134648193D01*
X86646419Y-134645000D01*
X89502581Y-134645000D01*
X89535000Y-134648193D01*
X89567419Y-134645000D01*
X89594935Y-134642290D01*
X89664383Y-134635450D01*
X89788793Y-134597710D01*
X89903450Y-134536425D01*
X90003948Y-134453948D01*
X90086425Y-134353450D01*
X90147710Y-134238793D01*
X90185450Y-134114383D01*
X90195000Y-134017419D01*
X90195000Y-134017418D01*
X90198193Y-133985000D01*
X90195000Y-133952581D01*
X90195000Y-83217419D01*
X90198193Y-83185000D01*
X106524807Y-83185000D01*
X106528001Y-83217430D01*
X106528000Y-133952581D01*
X106524807Y-133985000D01*
X106537550Y-134114383D01*
X106575290Y-134238793D01*
X106636575Y-134353450D01*
X106699159Y-134429708D01*
X106719052Y-134453948D01*
X106819550Y-134536425D01*
X106934207Y-134597710D01*
X107058617Y-134635450D01*
X107188000Y-134648193D01*
X107220419Y-134645000D01*
X110076581Y-134645000D01*
X110109000Y-134648193D01*
X110141419Y-134645000D01*
X110168935Y-134642290D01*
X110238383Y-134635450D01*
X110362793Y-134597710D01*
X110477450Y-134536425D01*
X110577948Y-134453948D01*
X110660425Y-134353450D01*
X110721710Y-134238793D01*
X110759450Y-134114383D01*
X110769000Y-134017419D01*
X110769000Y-134017418D01*
X110772193Y-133985000D01*
X110769000Y-133952581D01*
X110769000Y-83217419D01*
X110772193Y-83185000D01*
X127149607Y-83185000D01*
X127152801Y-83217430D01*
X127152800Y-133952581D01*
X127149607Y-133985000D01*
X127162350Y-134114383D01*
X127200090Y-134238793D01*
X127261375Y-134353450D01*
X127323959Y-134429708D01*
X127343852Y-134453948D01*
X127444350Y-134536425D01*
X127559007Y-134597710D01*
X127683417Y-134635450D01*
X127812800Y-134648193D01*
X127845219Y-134645000D01*
X130701381Y-134645000D01*
X130733800Y-134648193D01*
X130766219Y-134645000D01*
X130793735Y-134642290D01*
X130863183Y-134635450D01*
X130987593Y-134597710D01*
X131102250Y-134536425D01*
X131202748Y-134453948D01*
X131285225Y-134353450D01*
X131334114Y-134261984D01*
X138605000Y-134261984D01*
X138605000Y-134978016D01*
X138744691Y-135680290D01*
X139018705Y-136341818D01*
X139416511Y-136937177D01*
X139922823Y-137443489D01*
X140518182Y-137841295D01*
X141179710Y-138115309D01*
X141881984Y-138255000D01*
X142598016Y-138255000D01*
X143300290Y-138115309D01*
X143961818Y-137841295D01*
X144557177Y-137443489D01*
X145063489Y-136937177D01*
X145461295Y-136341818D01*
X145735309Y-135680290D01*
X145875000Y-134978016D01*
X145875000Y-134261984D01*
X145735309Y-133559710D01*
X145461295Y-132898182D01*
X145063489Y-132302823D01*
X144557177Y-131796511D01*
X143961818Y-131398705D01*
X143300290Y-131124691D01*
X142598016Y-130985000D01*
X141881984Y-130985000D01*
X141179710Y-131124691D01*
X140518182Y-131398705D01*
X139922823Y-131796511D01*
X139416511Y-132302823D01*
X139018705Y-132898182D01*
X138744691Y-133559710D01*
X138605000Y-134261984D01*
X131334114Y-134261984D01*
X131346510Y-134238793D01*
X131384250Y-134114383D01*
X131393800Y-134017419D01*
X131393800Y-134017418D01*
X131396993Y-133985000D01*
X131393800Y-133952581D01*
X131393800Y-83217419D01*
X131396993Y-83185000D01*
X131384250Y-83055617D01*
X131346510Y-82931207D01*
X131285225Y-82816550D01*
X131202748Y-82716052D01*
X131102250Y-82633575D01*
X130987593Y-82572290D01*
X130863183Y-82534550D01*
X130766219Y-82525000D01*
X130733800Y-82521807D01*
X130701381Y-82525000D01*
X127845219Y-82525000D01*
X127812800Y-82521807D01*
X127780381Y-82525000D01*
X127683417Y-82534550D01*
X127559007Y-82572290D01*
X127444350Y-82633575D01*
X127343852Y-82716052D01*
X127261375Y-82816550D01*
X127200090Y-82931207D01*
X127162350Y-83055617D01*
X127149607Y-83185000D01*
X110772193Y-83185000D01*
X110759450Y-83055617D01*
X110721710Y-82931207D01*
X110660425Y-82816550D01*
X110577948Y-82716052D01*
X110477450Y-82633575D01*
X110362793Y-82572290D01*
X110238383Y-82534550D01*
X110141419Y-82525000D01*
X110109000Y-82521807D01*
X110076581Y-82525000D01*
X107220419Y-82525000D01*
X107188000Y-82521807D01*
X107155581Y-82525000D01*
X107058617Y-82534550D01*
X106934207Y-82572290D01*
X106819550Y-82633575D01*
X106719052Y-82716052D01*
X106636575Y-82816550D01*
X106575290Y-82931207D01*
X106537550Y-83055617D01*
X106524807Y-83185000D01*
X90198193Y-83185000D01*
X90185450Y-83055617D01*
X90147710Y-82931207D01*
X90086425Y-82816550D01*
X90003948Y-82716052D01*
X89903450Y-82633575D01*
X89788793Y-82572290D01*
X89664383Y-82534550D01*
X89567419Y-82525000D01*
X89535000Y-82521807D01*
X89502581Y-82525000D01*
X86646419Y-82525000D01*
X86614000Y-82521807D01*
X86581581Y-82525000D01*
X86484617Y-82534550D01*
X86360207Y-82572290D01*
X86245550Y-82633575D01*
X86145052Y-82716052D01*
X86062575Y-82816550D01*
X86001290Y-82931207D01*
X85963550Y-83055617D01*
X85950807Y-83185000D01*
X69674993Y-83185000D01*
X69662250Y-83055617D01*
X69624510Y-82931207D01*
X69563225Y-82816550D01*
X69480748Y-82716052D01*
X69380250Y-82633575D01*
X69265593Y-82572290D01*
X69141183Y-82534550D01*
X69044219Y-82525000D01*
X69011800Y-82521807D01*
X68979381Y-82525000D01*
X66123219Y-82525000D01*
X66090800Y-82521807D01*
X66058381Y-82525000D01*
X65961417Y-82534550D01*
X65837007Y-82572290D01*
X65722350Y-82633575D01*
X65621852Y-82716052D01*
X65539375Y-82816550D01*
X65478090Y-82931207D01*
X65440350Y-83055617D01*
X65427607Y-83185000D01*
X42824000Y-83185000D01*
X42824000Y-61233380D01*
X43072381Y-60985000D01*
X48227581Y-60985000D01*
X48260000Y-60988193D01*
X48292419Y-60985000D01*
X48389383Y-60975450D01*
X48513793Y-60937710D01*
X48628450Y-60876425D01*
X48728948Y-60793948D01*
X48811425Y-60693450D01*
X48860314Y-60601984D01*
X50975000Y-60601984D01*
X50975000Y-61318016D01*
X51114691Y-62020290D01*
X51388705Y-62681818D01*
X51786511Y-63277177D01*
X52292823Y-63783489D01*
X52888182Y-64181295D01*
X53549710Y-64455309D01*
X54251984Y-64595000D01*
X54968016Y-64595000D01*
X55670290Y-64455309D01*
X56331818Y-64181295D01*
X56927177Y-63783489D01*
X57078117Y-63632549D01*
X63751980Y-63632549D01*
X63751980Y-64383451D01*
X63898474Y-65119925D01*
X64185831Y-65813669D01*
X64603011Y-66438021D01*
X65133979Y-66968989D01*
X65758331Y-67386169D01*
X66452075Y-67673526D01*
X67188549Y-67820020D01*
X67939451Y-67820020D01*
X68675925Y-67673526D01*
X69369669Y-67386169D01*
X69994021Y-66968989D01*
X70524989Y-66438021D01*
X70942169Y-65813669D01*
X71229526Y-65119925D01*
X71376020Y-64383451D01*
X71376020Y-63632549D01*
X84325980Y-63632549D01*
X84325980Y-64383451D01*
X84472474Y-65119925D01*
X84759831Y-65813669D01*
X85177011Y-66438021D01*
X85707979Y-66968989D01*
X86332331Y-67386169D01*
X87026075Y-67673526D01*
X87762549Y-67820020D01*
X88513451Y-67820020D01*
X89249925Y-67673526D01*
X89943669Y-67386169D01*
X90568021Y-66968989D01*
X91098989Y-66438021D01*
X91516169Y-65813669D01*
X91803526Y-65119925D01*
X91950020Y-64383451D01*
X91950020Y-63632549D01*
X104899980Y-63632549D01*
X104899980Y-64383451D01*
X105046474Y-65119925D01*
X105333831Y-65813669D01*
X105751011Y-66438021D01*
X106281979Y-66968989D01*
X106906331Y-67386169D01*
X107600075Y-67673526D01*
X108336549Y-67820020D01*
X109087451Y-67820020D01*
X109823925Y-67673526D01*
X110517669Y-67386169D01*
X111142021Y-66968989D01*
X111672989Y-66438021D01*
X112090169Y-65813669D01*
X112377526Y-65119925D01*
X112524020Y-64383451D01*
X112524020Y-63632549D01*
X125473980Y-63632549D01*
X125473980Y-64383451D01*
X125620474Y-65119925D01*
X125907831Y-65813669D01*
X126325011Y-66438021D01*
X126855979Y-66968989D01*
X127480331Y-67386169D01*
X128174075Y-67673526D01*
X128910549Y-67820020D01*
X129661451Y-67820020D01*
X130397925Y-67673526D01*
X131091669Y-67386169D01*
X131716021Y-66968989D01*
X132246989Y-66438021D01*
X132664169Y-65813669D01*
X132951526Y-65119925D01*
X133098020Y-64383451D01*
X133098020Y-63632549D01*
X132951526Y-62896075D01*
X132664169Y-62202331D01*
X132246989Y-61577979D01*
X131716021Y-61047011D01*
X131091669Y-60629831D01*
X131024441Y-60601984D01*
X138605000Y-60601984D01*
X138605000Y-61318016D01*
X138744691Y-62020290D01*
X139018705Y-62681818D01*
X139416511Y-63277177D01*
X139922823Y-63783489D01*
X140518182Y-64181295D01*
X141179710Y-64455309D01*
X141881984Y-64595000D01*
X142598016Y-64595000D01*
X143300290Y-64455309D01*
X143961818Y-64181295D01*
X144557177Y-63783489D01*
X145063489Y-63277177D01*
X145461295Y-62681818D01*
X145735309Y-62020290D01*
X145875000Y-61318016D01*
X145875000Y-60601984D01*
X145735309Y-59899710D01*
X145461295Y-59238182D01*
X145063489Y-58642823D01*
X144557177Y-58136511D01*
X143961818Y-57738705D01*
X143300290Y-57464691D01*
X142598016Y-57325000D01*
X141881984Y-57325000D01*
X141179710Y-57464691D01*
X140518182Y-57738705D01*
X139922823Y-58136511D01*
X139416511Y-58642823D01*
X139018705Y-59238182D01*
X138744691Y-59899710D01*
X138605000Y-60601984D01*
X131024441Y-60601984D01*
X130397925Y-60342474D01*
X129661451Y-60195980D01*
X128910549Y-60195980D01*
X128174075Y-60342474D01*
X127480331Y-60629831D01*
X126855979Y-61047011D01*
X126325011Y-61577979D01*
X125907831Y-62202331D01*
X125620474Y-62896075D01*
X125473980Y-63632549D01*
X112524020Y-63632549D01*
X112377526Y-62896075D01*
X112090169Y-62202331D01*
X111672989Y-61577979D01*
X111142021Y-61047011D01*
X110517669Y-60629831D01*
X109823925Y-60342474D01*
X109087451Y-60195980D01*
X108336549Y-60195980D01*
X107600075Y-60342474D01*
X106906331Y-60629831D01*
X106281979Y-61047011D01*
X105751011Y-61577979D01*
X105333831Y-62202331D01*
X105046474Y-62896075D01*
X104899980Y-63632549D01*
X91950020Y-63632549D01*
X91803526Y-62896075D01*
X91516169Y-62202331D01*
X91098989Y-61577979D01*
X90568021Y-61047011D01*
X89943669Y-60629831D01*
X89249925Y-60342474D01*
X88513451Y-60195980D01*
X87762549Y-60195980D01*
X87026075Y-60342474D01*
X86332331Y-60629831D01*
X85707979Y-61047011D01*
X85177011Y-61577979D01*
X84759831Y-62202331D01*
X84472474Y-62896075D01*
X84325980Y-63632549D01*
X71376020Y-63632549D01*
X71229526Y-62896075D01*
X70942169Y-62202331D01*
X70524989Y-61577979D01*
X69994021Y-61047011D01*
X69369669Y-60629831D01*
X68675925Y-60342474D01*
X67939451Y-60195980D01*
X67188549Y-60195980D01*
X66452075Y-60342474D01*
X65758331Y-60629831D01*
X65133979Y-61047011D01*
X64603011Y-61577979D01*
X64185831Y-62202331D01*
X63898474Y-62896075D01*
X63751980Y-63632549D01*
X57078117Y-63632549D01*
X57433489Y-63277177D01*
X57831295Y-62681818D01*
X58105309Y-62020290D01*
X58245000Y-61318016D01*
X58245000Y-60601984D01*
X58105309Y-59899710D01*
X57831295Y-59238182D01*
X57433489Y-58642823D01*
X56927177Y-58136511D01*
X56331818Y-57738705D01*
X55670290Y-57464691D01*
X54968016Y-57325000D01*
X54251984Y-57325000D01*
X53549710Y-57464691D01*
X52888182Y-57738705D01*
X52292823Y-58136511D01*
X51786511Y-58642823D01*
X51388705Y-59238182D01*
X51114691Y-59899710D01*
X50975000Y-60601984D01*
X48860314Y-60601984D01*
X48872710Y-60578793D01*
X48910450Y-60454383D01*
X48923193Y-60325000D01*
X48920000Y-60292581D01*
X48920000Y-55454880D01*
X49168381Y-55206500D01*
X147681620Y-55206500D01*
X147930000Y-55454881D01*
G37*
X147930000Y-55454881D02*
X147930001Y-60292571D01*
X147926807Y-60325000D01*
X147939550Y-60454383D01*
X147977290Y-60578793D01*
X148038575Y-60693450D01*
X148121052Y-60793948D01*
X148221550Y-60876425D01*
X148336207Y-60937710D01*
X148460617Y-60975450D01*
X148557581Y-60985000D01*
X148590000Y-60988193D01*
X148622419Y-60985000D01*
X153777620Y-60985000D01*
X154026000Y-61233381D01*
X154026001Y-134346618D01*
X153777620Y-134595000D01*
X148622419Y-134595000D01*
X148590000Y-134591807D01*
X148460617Y-134604550D01*
X148336207Y-134642290D01*
X148221550Y-134703575D01*
X148121052Y-134786052D01*
X148038575Y-134886550D01*
X147977290Y-135001207D01*
X147939550Y-135125617D01*
X147926807Y-135255000D01*
X147930000Y-135287419D01*
X147930001Y-140061618D01*
X147681620Y-140310000D01*
X49168381Y-140310000D01*
X48920000Y-140061620D01*
X48920000Y-135350919D01*
X48923193Y-135318500D01*
X48910450Y-135189117D01*
X48872710Y-135064707D01*
X48811425Y-134950050D01*
X48728948Y-134849552D01*
X48628450Y-134767075D01*
X48513793Y-134705790D01*
X48389383Y-134668050D01*
X48292419Y-134658500D01*
X48260000Y-134655307D01*
X48227581Y-134658500D01*
X43072381Y-134658500D01*
X42824000Y-134410120D01*
X42824000Y-134261984D01*
X50975000Y-134261984D01*
X50975000Y-134978016D01*
X51114691Y-135680290D01*
X51388705Y-136341818D01*
X51786511Y-136937177D01*
X52292823Y-137443489D01*
X52888182Y-137841295D01*
X53549710Y-138115309D01*
X54251984Y-138255000D01*
X54968016Y-138255000D01*
X55670290Y-138115309D01*
X56331818Y-137841295D01*
X56927177Y-137443489D01*
X57433489Y-136937177D01*
X57831295Y-136341818D01*
X58105309Y-135680290D01*
X58245000Y-134978016D01*
X58245000Y-134261984D01*
X58105309Y-133559710D01*
X57831295Y-132898182D01*
X57433489Y-132302823D01*
X56927177Y-131796511D01*
X56331818Y-131398705D01*
X55670290Y-131124691D01*
X54968016Y-130985000D01*
X54251984Y-130985000D01*
X53549710Y-131124691D01*
X52888182Y-131398705D01*
X52292823Y-131796511D01*
X51786511Y-132302823D01*
X51388705Y-132898182D01*
X51114691Y-133559710D01*
X50975000Y-134261984D01*
X42824000Y-134261984D01*
X42824000Y-83185000D01*
X65427607Y-83185000D01*
X65430801Y-83217430D01*
X65430800Y-133952581D01*
X65427607Y-133985000D01*
X65440350Y-134114383D01*
X65478090Y-134238793D01*
X65539375Y-134353450D01*
X65601959Y-134429708D01*
X65621852Y-134453948D01*
X65722350Y-134536425D01*
X65837007Y-134597710D01*
X65961417Y-134635450D01*
X66090800Y-134648193D01*
X66123219Y-134645000D01*
X68979381Y-134645000D01*
X69011800Y-134648193D01*
X69044219Y-134645000D01*
X69071735Y-134642290D01*
X69141183Y-134635450D01*
X69265593Y-134597710D01*
X69380250Y-134536425D01*
X69480748Y-134453948D01*
X69563225Y-134353450D01*
X69624510Y-134238793D01*
X69662250Y-134114383D01*
X69671800Y-134017419D01*
X69671800Y-134017418D01*
X69674993Y-133985000D01*
X69671800Y-133952581D01*
X69671800Y-83217419D01*
X69674993Y-83185000D01*
X85950807Y-83185000D01*
X85954001Y-83217430D01*
X85954000Y-133952581D01*
X85950807Y-133985000D01*
X85963550Y-134114383D01*
X86001290Y-134238793D01*
X86062575Y-134353450D01*
X86125159Y-134429708D01*
X86145052Y-134453948D01*
X86245550Y-134536425D01*
X86360207Y-134597710D01*
X86484617Y-134635450D01*
X86614000Y-134648193D01*
X86646419Y-134645000D01*
X89502581Y-134645000D01*
X89535000Y-134648193D01*
X89567419Y-134645000D01*
X89594935Y-134642290D01*
X89664383Y-134635450D01*
X89788793Y-134597710D01*
X89903450Y-134536425D01*
X90003948Y-134453948D01*
X90086425Y-134353450D01*
X90147710Y-134238793D01*
X90185450Y-134114383D01*
X90195000Y-134017419D01*
X90195000Y-134017418D01*
X90198193Y-133985000D01*
X90195000Y-133952581D01*
X90195000Y-83217419D01*
X90198193Y-83185000D01*
X106524807Y-83185000D01*
X106528001Y-83217430D01*
X106528000Y-133952581D01*
X106524807Y-133985000D01*
X106537550Y-134114383D01*
X106575290Y-134238793D01*
X106636575Y-134353450D01*
X106699159Y-134429708D01*
X106719052Y-134453948D01*
X106819550Y-134536425D01*
X106934207Y-134597710D01*
X107058617Y-134635450D01*
X107188000Y-134648193D01*
X107220419Y-134645000D01*
X110076581Y-134645000D01*
X110109000Y-134648193D01*
X110141419Y-134645000D01*
X110168935Y-134642290D01*
X110238383Y-134635450D01*
X110362793Y-134597710D01*
X110477450Y-134536425D01*
X110577948Y-134453948D01*
X110660425Y-134353450D01*
X110721710Y-134238793D01*
X110759450Y-134114383D01*
X110769000Y-134017419D01*
X110769000Y-134017418D01*
X110772193Y-133985000D01*
X110769000Y-133952581D01*
X110769000Y-83217419D01*
X110772193Y-83185000D01*
X127149607Y-83185000D01*
X127152801Y-83217430D01*
X127152800Y-133952581D01*
X127149607Y-133985000D01*
X127162350Y-134114383D01*
X127200090Y-134238793D01*
X127261375Y-134353450D01*
X127323959Y-134429708D01*
X127343852Y-134453948D01*
X127444350Y-134536425D01*
X127559007Y-134597710D01*
X127683417Y-134635450D01*
X127812800Y-134648193D01*
X127845219Y-134645000D01*
X130701381Y-134645000D01*
X130733800Y-134648193D01*
X130766219Y-134645000D01*
X130793735Y-134642290D01*
X130863183Y-134635450D01*
X130987593Y-134597710D01*
X131102250Y-134536425D01*
X131202748Y-134453948D01*
X131285225Y-134353450D01*
X131334114Y-134261984D01*
X138605000Y-134261984D01*
X138605000Y-134978016D01*
X138744691Y-135680290D01*
X139018705Y-136341818D01*
X139416511Y-136937177D01*
X139922823Y-137443489D01*
X140518182Y-137841295D01*
X141179710Y-138115309D01*
X141881984Y-138255000D01*
X142598016Y-138255000D01*
X143300290Y-138115309D01*
X143961818Y-137841295D01*
X144557177Y-137443489D01*
X145063489Y-136937177D01*
X145461295Y-136341818D01*
X145735309Y-135680290D01*
X145875000Y-134978016D01*
X145875000Y-134261984D01*
X145735309Y-133559710D01*
X145461295Y-132898182D01*
X145063489Y-132302823D01*
X144557177Y-131796511D01*
X143961818Y-131398705D01*
X143300290Y-131124691D01*
X142598016Y-130985000D01*
X141881984Y-130985000D01*
X141179710Y-131124691D01*
X140518182Y-131398705D01*
X139922823Y-131796511D01*
X139416511Y-132302823D01*
X139018705Y-132898182D01*
X138744691Y-133559710D01*
X138605000Y-134261984D01*
X131334114Y-134261984D01*
X131346510Y-134238793D01*
X131384250Y-134114383D01*
X131393800Y-134017419D01*
X131393800Y-134017418D01*
X131396993Y-133985000D01*
X131393800Y-133952581D01*
X131393800Y-83217419D01*
X131396993Y-83185000D01*
X131384250Y-83055617D01*
X131346510Y-82931207D01*
X131285225Y-82816550D01*
X131202748Y-82716052D01*
X131102250Y-82633575D01*
X130987593Y-82572290D01*
X130863183Y-82534550D01*
X130766219Y-82525000D01*
X130733800Y-82521807D01*
X130701381Y-82525000D01*
X127845219Y-82525000D01*
X127812800Y-82521807D01*
X127780381Y-82525000D01*
X127683417Y-82534550D01*
X127559007Y-82572290D01*
X127444350Y-82633575D01*
X127343852Y-82716052D01*
X127261375Y-82816550D01*
X127200090Y-82931207D01*
X127162350Y-83055617D01*
X127149607Y-83185000D01*
X110772193Y-83185000D01*
X110759450Y-83055617D01*
X110721710Y-82931207D01*
X110660425Y-82816550D01*
X110577948Y-82716052D01*
X110477450Y-82633575D01*
X110362793Y-82572290D01*
X110238383Y-82534550D01*
X110141419Y-82525000D01*
X110109000Y-82521807D01*
X110076581Y-82525000D01*
X107220419Y-82525000D01*
X107188000Y-82521807D01*
X107155581Y-82525000D01*
X107058617Y-82534550D01*
X106934207Y-82572290D01*
X106819550Y-82633575D01*
X106719052Y-82716052D01*
X106636575Y-82816550D01*
X106575290Y-82931207D01*
X106537550Y-83055617D01*
X106524807Y-83185000D01*
X90198193Y-83185000D01*
X90185450Y-83055617D01*
X90147710Y-82931207D01*
X90086425Y-82816550D01*
X90003948Y-82716052D01*
X89903450Y-82633575D01*
X89788793Y-82572290D01*
X89664383Y-82534550D01*
X89567419Y-82525000D01*
X89535000Y-82521807D01*
X89502581Y-82525000D01*
X86646419Y-82525000D01*
X86614000Y-82521807D01*
X86581581Y-82525000D01*
X86484617Y-82534550D01*
X86360207Y-82572290D01*
X86245550Y-82633575D01*
X86145052Y-82716052D01*
X86062575Y-82816550D01*
X86001290Y-82931207D01*
X85963550Y-83055617D01*
X85950807Y-83185000D01*
X69674993Y-83185000D01*
X69662250Y-83055617D01*
X69624510Y-82931207D01*
X69563225Y-82816550D01*
X69480748Y-82716052D01*
X69380250Y-82633575D01*
X69265593Y-82572290D01*
X69141183Y-82534550D01*
X69044219Y-82525000D01*
X69011800Y-82521807D01*
X68979381Y-82525000D01*
X66123219Y-82525000D01*
X66090800Y-82521807D01*
X66058381Y-82525000D01*
X65961417Y-82534550D01*
X65837007Y-82572290D01*
X65722350Y-82633575D01*
X65621852Y-82716052D01*
X65539375Y-82816550D01*
X65478090Y-82931207D01*
X65440350Y-83055617D01*
X65427607Y-83185000D01*
X42824000Y-83185000D01*
X42824000Y-61233380D01*
X43072381Y-60985000D01*
X48227581Y-60985000D01*
X48260000Y-60988193D01*
X48292419Y-60985000D01*
X48389383Y-60975450D01*
X48513793Y-60937710D01*
X48628450Y-60876425D01*
X48728948Y-60793948D01*
X48811425Y-60693450D01*
X48860314Y-60601984D01*
X50975000Y-60601984D01*
X50975000Y-61318016D01*
X51114691Y-62020290D01*
X51388705Y-62681818D01*
X51786511Y-63277177D01*
X52292823Y-63783489D01*
X52888182Y-64181295D01*
X53549710Y-64455309D01*
X54251984Y-64595000D01*
X54968016Y-64595000D01*
X55670290Y-64455309D01*
X56331818Y-64181295D01*
X56927177Y-63783489D01*
X57078117Y-63632549D01*
X63751980Y-63632549D01*
X63751980Y-64383451D01*
X63898474Y-65119925D01*
X64185831Y-65813669D01*
X64603011Y-66438021D01*
X65133979Y-66968989D01*
X65758331Y-67386169D01*
X66452075Y-67673526D01*
X67188549Y-67820020D01*
X67939451Y-67820020D01*
X68675925Y-67673526D01*
X69369669Y-67386169D01*
X69994021Y-66968989D01*
X70524989Y-66438021D01*
X70942169Y-65813669D01*
X71229526Y-65119925D01*
X71376020Y-64383451D01*
X71376020Y-63632549D01*
X84325980Y-63632549D01*
X84325980Y-64383451D01*
X84472474Y-65119925D01*
X84759831Y-65813669D01*
X85177011Y-66438021D01*
X85707979Y-66968989D01*
X86332331Y-67386169D01*
X87026075Y-67673526D01*
X87762549Y-67820020D01*
X88513451Y-67820020D01*
X89249925Y-67673526D01*
X89943669Y-67386169D01*
X90568021Y-66968989D01*
X91098989Y-66438021D01*
X91516169Y-65813669D01*
X91803526Y-65119925D01*
X91950020Y-64383451D01*
X91950020Y-63632549D01*
X104899980Y-63632549D01*
X104899980Y-64383451D01*
X105046474Y-65119925D01*
X105333831Y-65813669D01*
X105751011Y-66438021D01*
X106281979Y-66968989D01*
X106906331Y-67386169D01*
X107600075Y-67673526D01*
X108336549Y-67820020D01*
X109087451Y-67820020D01*
X109823925Y-67673526D01*
X110517669Y-67386169D01*
X111142021Y-66968989D01*
X111672989Y-66438021D01*
X112090169Y-65813669D01*
X112377526Y-65119925D01*
X112524020Y-64383451D01*
X112524020Y-63632549D01*
X125473980Y-63632549D01*
X125473980Y-64383451D01*
X125620474Y-65119925D01*
X125907831Y-65813669D01*
X126325011Y-66438021D01*
X126855979Y-66968989D01*
X127480331Y-67386169D01*
X128174075Y-67673526D01*
X128910549Y-67820020D01*
X129661451Y-67820020D01*
X130397925Y-67673526D01*
X131091669Y-67386169D01*
X131716021Y-66968989D01*
X132246989Y-66438021D01*
X132664169Y-65813669D01*
X132951526Y-65119925D01*
X133098020Y-64383451D01*
X133098020Y-63632549D01*
X132951526Y-62896075D01*
X132664169Y-62202331D01*
X132246989Y-61577979D01*
X131716021Y-61047011D01*
X131091669Y-60629831D01*
X131024441Y-60601984D01*
X138605000Y-60601984D01*
X138605000Y-61318016D01*
X138744691Y-62020290D01*
X139018705Y-62681818D01*
X139416511Y-63277177D01*
X139922823Y-63783489D01*
X140518182Y-64181295D01*
X141179710Y-64455309D01*
X141881984Y-64595000D01*
X142598016Y-64595000D01*
X143300290Y-64455309D01*
X143961818Y-64181295D01*
X144557177Y-63783489D01*
X145063489Y-63277177D01*
X145461295Y-62681818D01*
X145735309Y-62020290D01*
X145875000Y-61318016D01*
X145875000Y-60601984D01*
X145735309Y-59899710D01*
X145461295Y-59238182D01*
X145063489Y-58642823D01*
X144557177Y-58136511D01*
X143961818Y-57738705D01*
X143300290Y-57464691D01*
X142598016Y-57325000D01*
X141881984Y-57325000D01*
X141179710Y-57464691D01*
X140518182Y-57738705D01*
X139922823Y-58136511D01*
X139416511Y-58642823D01*
X139018705Y-59238182D01*
X138744691Y-59899710D01*
X138605000Y-60601984D01*
X131024441Y-60601984D01*
X130397925Y-60342474D01*
X129661451Y-60195980D01*
X128910549Y-60195980D01*
X128174075Y-60342474D01*
X127480331Y-60629831D01*
X126855979Y-61047011D01*
X126325011Y-61577979D01*
X125907831Y-62202331D01*
X125620474Y-62896075D01*
X125473980Y-63632549D01*
X112524020Y-63632549D01*
X112377526Y-62896075D01*
X112090169Y-62202331D01*
X111672989Y-61577979D01*
X111142021Y-61047011D01*
X110517669Y-60629831D01*
X109823925Y-60342474D01*
X109087451Y-60195980D01*
X108336549Y-60195980D01*
X107600075Y-60342474D01*
X106906331Y-60629831D01*
X106281979Y-61047011D01*
X105751011Y-61577979D01*
X105333831Y-62202331D01*
X105046474Y-62896075D01*
X104899980Y-63632549D01*
X91950020Y-63632549D01*
X91803526Y-62896075D01*
X91516169Y-62202331D01*
X91098989Y-61577979D01*
X90568021Y-61047011D01*
X89943669Y-60629831D01*
X89249925Y-60342474D01*
X88513451Y-60195980D01*
X87762549Y-60195980D01*
X87026075Y-60342474D01*
X86332331Y-60629831D01*
X85707979Y-61047011D01*
X85177011Y-61577979D01*
X84759831Y-62202331D01*
X84472474Y-62896075D01*
X84325980Y-63632549D01*
X71376020Y-63632549D01*
X71229526Y-62896075D01*
X70942169Y-62202331D01*
X70524989Y-61577979D01*
X69994021Y-61047011D01*
X69369669Y-60629831D01*
X68675925Y-60342474D01*
X67939451Y-60195980D01*
X67188549Y-60195980D01*
X66452075Y-60342474D01*
X65758331Y-60629831D01*
X65133979Y-61047011D01*
X64603011Y-61577979D01*
X64185831Y-62202331D01*
X63898474Y-62896075D01*
X63751980Y-63632549D01*
X57078117Y-63632549D01*
X57433489Y-63277177D01*
X57831295Y-62681818D01*
X58105309Y-62020290D01*
X58245000Y-61318016D01*
X58245000Y-60601984D01*
X58105309Y-59899710D01*
X57831295Y-59238182D01*
X57433489Y-58642823D01*
X56927177Y-58136511D01*
X56331818Y-57738705D01*
X55670290Y-57464691D01*
X54968016Y-57325000D01*
X54251984Y-57325000D01*
X53549710Y-57464691D01*
X52888182Y-57738705D01*
X52292823Y-58136511D01*
X51786511Y-58642823D01*
X51388705Y-59238182D01*
X51114691Y-59899710D01*
X50975000Y-60601984D01*
X48860314Y-60601984D01*
X48872710Y-60578793D01*
X48910450Y-60454383D01*
X48923193Y-60325000D01*
X48920000Y-60292581D01*
X48920000Y-55454880D01*
X49168381Y-55206500D01*
X147681620Y-55206500D01*
X147930000Y-55454881D01*
M02*
