M48
; DRILL file {KiCad (5.1.6-0-10_14)} date Friday, September 25, 2020 at 11:35:32 AM
; FORMAT={-:-/ absolute / inch / decimal}
; #@! TF.CreationDate,2020-09-25T11:35:32+01:00
; #@! TF.GenerationSoftware,Kicad,Pcbnew,(5.1.6-0-10_14)
; #@! TF.FileFunction,Plated,1,2,PTH
FMAT,2
INCH
T1C0.0079
T2C0.0354
T3C0.0394
T4C0.0472
T5C0.0787
%
G90
G05
T1
X1.775Y-3.5
X1.84Y-4.38
X1.895Y-4.305
X2.0Y-3.375
X2.0Y-3.45
X2.0Y-3.55
X2.0Y-3.625
X2.1Y-3.375
X2.1Y-3.45
X2.1Y-3.55
X2.1Y-3.625
X2.2Y-3.375
X2.2Y-3.45
X2.2Y-3.55
X2.2Y-3.625
X2.2Y-4.42
X2.22Y-4.305
X2.3Y-3.375
X2.3Y-3.45
X2.3Y-3.55
X2.3Y-3.625
X2.3Y-3.95
X2.32Y-3.78
X2.3354Y-4.3104
X2.4504Y-3.4746
X2.46Y-4.47
X2.51Y-3.615
X2.535Y-3.64
X2.535Y-4.19
X2.54Y-4.47
X2.685Y-4.372
X2.7276Y-4.1124
X2.81Y-3.59
X2.825Y-3.915
X2.91Y-4.165
X2.9504Y-3.9604
X2.975Y-3.825
X3.0Y-4.47
X3.09Y-4.58
X3.09Y-4.66
X3.14Y-4.66
X3.14Y-4.58
X3.19Y-4.58
X3.19Y-4.73
X3.25Y-4.47
X3.2504Y-3.4796
X3.315Y-3.605
X3.34Y-3.665
X3.34Y-4.175
X3.49Y-4.375
X3.5376Y-4.1174
X3.615Y-3.605
X3.63Y-3.92
X3.6502Y-4.8402
X3.7056Y-4.8944
X3.715Y-4.155
X3.725Y-4.55
X3.7554Y-3.9654
X3.78Y-3.83
X3.98Y-4.83
X3.9852Y-4.48
X4.0654Y-3.4796
X4.0948Y-4.6198
X4.105Y-4.83
X4.13Y-3.6
X4.145Y-4.39
X4.145Y-4.48
X4.155Y-3.665
X4.155Y-4.175
X4.18Y-4.55
X4.21Y-4.71
X4.21Y-4.81
X4.305Y-4.375
X4.3476Y-4.1174
X4.405Y-4.49
X4.405Y-4.385
X4.43Y-3.6
X4.45Y-3.915
X4.54Y-4.15
X4.5804Y-3.96
X4.605Y-3.83
X4.7Y-4.42
X4.7Y-4.52
X4.8704Y-3.4796
X4.93Y-3.62
X4.9446Y-4.4154
X4.945Y-4.52
X4.945Y-4.74
X4.945Y-4.81
X4.955Y-3.645
X4.955Y-4.195
X5.105Y-4.375
X5.1524Y-4.1174
X5.2Y-4.49
X5.205Y-4.375
X5.23Y-3.62
X5.245Y-3.915
X5.335Y-4.145
X5.3754Y-3.9654
X5.395Y-3.8243
T2
X2.66Y-2.47
X2.66Y-2.57
X5.09Y-2.47
X5.09Y-2.57
X3.47Y-2.47
X3.47Y-2.57
X4.28Y-2.47
X4.28Y-2.57
T3
X3.685Y-5.03
X3.785Y-5.03
X3.885Y-5.03
X3.985Y-5.03
X4.085Y-5.03
T4
X3.4Y-3.127
X3.4Y-5.43
X3.538Y-3.127
X2.591Y-3.127
X2.591Y-5.43
X2.729Y-3.127
X4.21Y-3.127
X4.21Y-5.43
X4.348Y-3.127
X5.021Y-3.127
X5.021Y-5.43
X5.159Y-3.127
T5
X1.8425Y-4.65
X1.8425Y-5.1
X2.3425Y-4.65
X2.3425Y-5.1
X4.114Y-3.337
X4.114Y-5.219
X4.443Y-3.29
X4.444Y-5.267
X2.375Y-2.3225
X2.375Y-2.8225
X2.825Y-2.3225
X2.825Y-2.8225
X4.925Y-3.337
X4.925Y-5.219
X5.254Y-3.29
X5.255Y-5.267
X3.995Y-2.3225
X3.995Y-2.8225
X4.445Y-2.3225
X4.445Y-2.8225
X4.805Y-2.3225
X4.805Y-2.8225
X5.255Y-2.3225
X5.255Y-2.8225
X3.304Y-3.337
X3.304Y-5.219
X3.633Y-3.29
X3.634Y-5.267
X3.185Y-2.3225
X3.185Y-2.8225
X3.635Y-2.3225
X3.635Y-2.8225
X2.495Y-3.337
X2.495Y-5.219
X2.824Y-3.29
X2.825Y-5.267
T3
G00X1.8388Y-2.7156
M15
G01X1.8388Y-2.7944
M16
G05
G00X1.9175Y-2.94
M15
G01X1.9963Y-2.94
M16
G05
G00X2.075Y-2.7156
M15
G01X2.075Y-2.7944
M16
G05
T0
M30
