%TF.GenerationSoftware,KiCad,Pcbnew,(5.1.6-0-10_14)*%
%TF.CreationDate,2020-09-25T11:35:30+01:00*%
%TF.ProjectId,DigitalMixerPedal,44696769-7461-46c4-9d69-786572506564,rev?*%
%TF.SameCoordinates,Original*%
%TF.FileFunction,Profile,NP*%
%FSLAX46Y46*%
G04 Gerber Fmt 4.6, Leading zero omitted, Abs format (unit mm)*
G04 Created by KiCad (PCBNEW (5.1.6-0-10_14)) date 2020-09-25 11:35:30*
%MOMM*%
%LPD*%
G01*
G04 APERTURE LIST*
%TA.AperFunction,Profile*%
%ADD10C,0.050000*%
%TD*%
G04 APERTURE END LIST*
D10*
X148590000Y-140335000D02*
X147955000Y-140970000D01*
X148590000Y-135255000D02*
X148590000Y-140335000D01*
X154051000Y-135255000D02*
X148590000Y-135255000D01*
X154686000Y-134620000D02*
X154051000Y-135255000D01*
X154686000Y-60960000D02*
X154686000Y-134620000D01*
X154051000Y-60325000D02*
X154686000Y-60960000D01*
X148590000Y-60325000D02*
X154051000Y-60325000D01*
X148590000Y-55181500D02*
X148590000Y-60325000D01*
X147955000Y-54546500D02*
X148590000Y-55181500D01*
X48895000Y-54546500D02*
X147955000Y-54546500D01*
X48260000Y-55181500D02*
X48895000Y-54546500D01*
X48260000Y-60325000D02*
X48260000Y-55181500D01*
X42799000Y-60325000D02*
X48260000Y-60325000D01*
X42164000Y-60960000D02*
X42799000Y-60325000D01*
X42164000Y-134683500D02*
X42164000Y-60960000D01*
X42799000Y-135318500D02*
X42164000Y-134683500D01*
X48260000Y-135318500D02*
X42799000Y-135318500D01*
X48260000Y-140335000D02*
X48260000Y-135318500D01*
X48895000Y-140970000D02*
X48260000Y-140335000D01*
X147955000Y-140970000D02*
X48895000Y-140970000D01*
M02*
