%TF.GenerationSoftware,KiCad,Pcbnew,(5.1.6-0-10_14)*%
%TF.CreationDate,2020-09-25T11:35:30+01:00*%
%TF.ProjectId,DigitalMixerPedal,44696769-7461-46c4-9d69-786572506564,rev?*%
%TF.SameCoordinates,Original*%
%TF.FileFunction,Soldermask,Bot*%
%TF.FilePolarity,Negative*%
%FSLAX46Y46*%
G04 Gerber Fmt 4.6, Leading zero omitted, Abs format (unit mm)*
G04 Created by KiCad (PCBNEW (5.1.6-0-10_14)) date 2020-09-25 11:35:30*
%MOMM*%
%LPD*%
G01*
G04 APERTURE LIST*
%TA.AperFunction,Profile*%
%ADD10C,0.050000*%
%TD*%
%ADD11O,1.800000X1.800000*%
%ADD12R,1.800000X1.800000*%
%ADD13C,1.900000*%
%ADD14R,1.900000X1.900000*%
%ADD15C,2.600000*%
%ADD16C,3.600000*%
%ADD17C,3.100000*%
%ADD18C,2.100000*%
%ADD19R,3.600000X3.600000*%
%ADD20C,0.254000*%
G04 APERTURE END LIST*
D10*
X148590000Y-140335000D02*
X147955000Y-140970000D01*
X148590000Y-135255000D02*
X148590000Y-140335000D01*
X154051000Y-135255000D02*
X148590000Y-135255000D01*
X154686000Y-134620000D02*
X154051000Y-135255000D01*
X154686000Y-60960000D02*
X154686000Y-134620000D01*
X154051000Y-60325000D02*
X154686000Y-60960000D01*
X148590000Y-60325000D02*
X154051000Y-60325000D01*
X148590000Y-55181500D02*
X148590000Y-60325000D01*
X147955000Y-54546500D02*
X148590000Y-55181500D01*
X48895000Y-54546500D02*
X147955000Y-54546500D01*
X48260000Y-55181500D02*
X48895000Y-54546500D01*
X48260000Y-60325000D02*
X48260000Y-55181500D01*
X42799000Y-60325000D02*
X48260000Y-60325000D01*
X42164000Y-60960000D02*
X42799000Y-60325000D01*
X42164000Y-134683500D02*
X42164000Y-60960000D01*
X42799000Y-135318500D02*
X42164000Y-134683500D01*
X48260000Y-135318500D02*
X42799000Y-135318500D01*
X48260000Y-140335000D02*
X48260000Y-135318500D01*
X48895000Y-140970000D02*
X48260000Y-140335000D01*
X147955000Y-140970000D02*
X48895000Y-140970000D01*
%TO.C,R12*%
G36*
G01*
X127400000Y-59406262D02*
X127400000Y-58449738D01*
G75*
G02*
X127671738Y-58178000I271738J0D01*
G01*
X128378262Y-58178000D01*
G75*
G02*
X128650000Y-58449738I0J-271738D01*
G01*
X128650000Y-59406262D01*
G75*
G02*
X128378262Y-59678000I-271738J0D01*
G01*
X127671738Y-59678000D01*
G75*
G02*
X127400000Y-59406262I0J271738D01*
G01*
G37*
G36*
G01*
X125350000Y-59406262D02*
X125350000Y-58449738D01*
G75*
G02*
X125621738Y-58178000I271738J0D01*
G01*
X126328262Y-58178000D01*
G75*
G02*
X126600000Y-58449738I0J-271738D01*
G01*
X126600000Y-59406262D01*
G75*
G02*
X126328262Y-59678000I-271738J0D01*
G01*
X125621738Y-59678000D01*
G75*
G02*
X125350000Y-59406262I0J271738D01*
G01*
G37*
%TD*%
%TO.C,R9*%
G36*
G01*
X106826000Y-59406262D02*
X106826000Y-58449738D01*
G75*
G02*
X107097738Y-58178000I271738J0D01*
G01*
X107804262Y-58178000D01*
G75*
G02*
X108076000Y-58449738I0J-271738D01*
G01*
X108076000Y-59406262D01*
G75*
G02*
X107804262Y-59678000I-271738J0D01*
G01*
X107097738Y-59678000D01*
G75*
G02*
X106826000Y-59406262I0J271738D01*
G01*
G37*
G36*
G01*
X104776000Y-59406262D02*
X104776000Y-58449738D01*
G75*
G02*
X105047738Y-58178000I271738J0D01*
G01*
X105754262Y-58178000D01*
G75*
G02*
X106026000Y-58449738I0J-271738D01*
G01*
X106026000Y-59406262D01*
G75*
G02*
X105754262Y-59678000I-271738J0D01*
G01*
X105047738Y-59678000D01*
G75*
G02*
X104776000Y-59406262I0J271738D01*
G01*
G37*
%TD*%
%TO.C,R8*%
G36*
G01*
X86252000Y-59406262D02*
X86252000Y-58449738D01*
G75*
G02*
X86523738Y-58178000I271738J0D01*
G01*
X87230262Y-58178000D01*
G75*
G02*
X87502000Y-58449738I0J-271738D01*
G01*
X87502000Y-59406262D01*
G75*
G02*
X87230262Y-59678000I-271738J0D01*
G01*
X86523738Y-59678000D01*
G75*
G02*
X86252000Y-59406262I0J271738D01*
G01*
G37*
G36*
G01*
X84202000Y-59406262D02*
X84202000Y-58449738D01*
G75*
G02*
X84473738Y-58178000I271738J0D01*
G01*
X85180262Y-58178000D01*
G75*
G02*
X85452000Y-58449738I0J-271738D01*
G01*
X85452000Y-59406262D01*
G75*
G02*
X85180262Y-59678000I-271738J0D01*
G01*
X84473738Y-59678000D01*
G75*
G02*
X84202000Y-59406262I0J271738D01*
G01*
G37*
%TD*%
%TO.C,R7*%
G36*
G01*
X65678000Y-59406262D02*
X65678000Y-58449738D01*
G75*
G02*
X65949738Y-58178000I271738J0D01*
G01*
X66656262Y-58178000D01*
G75*
G02*
X66928000Y-58449738I0J-271738D01*
G01*
X66928000Y-59406262D01*
G75*
G02*
X66656262Y-59678000I-271738J0D01*
G01*
X65949738Y-59678000D01*
G75*
G02*
X65678000Y-59406262I0J271738D01*
G01*
G37*
G36*
G01*
X63628000Y-59406262D02*
X63628000Y-58449738D01*
G75*
G02*
X63899738Y-58178000I271738J0D01*
G01*
X64606262Y-58178000D01*
G75*
G02*
X64878000Y-58449738I0J-271738D01*
G01*
X64878000Y-59406262D01*
G75*
G02*
X64606262Y-59678000I-271738J0D01*
G01*
X63899738Y-59678000D01*
G75*
G02*
X63628000Y-59406262I0J271738D01*
G01*
G37*
%TD*%
D11*
%TO.C,J7*%
X93599000Y-127762000D03*
X96139000Y-127762000D03*
X98679000Y-127762000D03*
X101219000Y-127762000D03*
D12*
X103759000Y-127762000D03*
%TD*%
D13*
%TO.C,D5*%
X129286000Y-65278000D03*
D14*
X129286000Y-62738000D03*
%TD*%
D13*
%TO.C,D4*%
X108712000Y-65278000D03*
D14*
X108712000Y-62738000D03*
%TD*%
D13*
%TO.C,D3*%
X88138000Y-65278000D03*
D14*
X88138000Y-62738000D03*
%TD*%
D13*
%TO.C,D2*%
X67564000Y-65278000D03*
D14*
X67564000Y-62738000D03*
%TD*%
%TO.C,C30*%
G36*
G01*
X99792262Y-108693000D02*
X98835738Y-108693000D01*
G75*
G02*
X98564000Y-108421262I0J271738D01*
G01*
X98564000Y-107714738D01*
G75*
G02*
X98835738Y-107443000I271738J0D01*
G01*
X99792262Y-107443000D01*
G75*
G02*
X100064000Y-107714738I0J-271738D01*
G01*
X100064000Y-108421262D01*
G75*
G02*
X99792262Y-108693000I-271738J0D01*
G01*
G37*
G36*
G01*
X99792262Y-110743000D02*
X98835738Y-110743000D01*
G75*
G02*
X98564000Y-110471262I0J271738D01*
G01*
X98564000Y-109764738D01*
G75*
G02*
X98835738Y-109493000I271738J0D01*
G01*
X99792262Y-109493000D01*
G75*
G02*
X100064000Y-109764738I0J-271738D01*
G01*
X100064000Y-110471262D01*
G75*
G02*
X99792262Y-110743000I-271738J0D01*
G01*
G37*
%TD*%
%TO.C,C27*%
G36*
G01*
X97633262Y-108693000D02*
X96676738Y-108693000D01*
G75*
G02*
X96405000Y-108421262I0J271738D01*
G01*
X96405000Y-107714738D01*
G75*
G02*
X96676738Y-107443000I271738J0D01*
G01*
X97633262Y-107443000D01*
G75*
G02*
X97905000Y-107714738I0J-271738D01*
G01*
X97905000Y-108421262D01*
G75*
G02*
X97633262Y-108693000I-271738J0D01*
G01*
G37*
G36*
G01*
X97633262Y-110743000D02*
X96676738Y-110743000D01*
G75*
G02*
X96405000Y-110471262I0J271738D01*
G01*
X96405000Y-109764738D01*
G75*
G02*
X96676738Y-109493000I271738J0D01*
G01*
X97633262Y-109493000D01*
G75*
G02*
X97905000Y-109764738I0J-271738D01*
G01*
X97905000Y-110471262D01*
G75*
G02*
X97633262Y-110743000I-271738J0D01*
G01*
G37*
%TD*%
%TO.C,C26*%
G36*
G01*
X95474262Y-108693000D02*
X94517738Y-108693000D01*
G75*
G02*
X94246000Y-108421262I0J271738D01*
G01*
X94246000Y-107714738D01*
G75*
G02*
X94517738Y-107443000I271738J0D01*
G01*
X95474262Y-107443000D01*
G75*
G02*
X95746000Y-107714738I0J-271738D01*
G01*
X95746000Y-108421262D01*
G75*
G02*
X95474262Y-108693000I-271738J0D01*
G01*
G37*
G36*
G01*
X95474262Y-110743000D02*
X94517738Y-110743000D01*
G75*
G02*
X94246000Y-110471262I0J271738D01*
G01*
X94246000Y-109764738D01*
G75*
G02*
X94517738Y-109493000I271738J0D01*
G01*
X95474262Y-109493000D01*
G75*
G02*
X95746000Y-109764738I0J-271738D01*
G01*
X95746000Y-110471262D01*
G75*
G02*
X95474262Y-110743000I-271738J0D01*
G01*
G37*
%TD*%
%TO.C,C25*%
G36*
G01*
X101951262Y-108693000D02*
X100994738Y-108693000D01*
G75*
G02*
X100723000Y-108421262I0J271738D01*
G01*
X100723000Y-107714738D01*
G75*
G02*
X100994738Y-107443000I271738J0D01*
G01*
X101951262Y-107443000D01*
G75*
G02*
X102223000Y-107714738I0J-271738D01*
G01*
X102223000Y-108421262D01*
G75*
G02*
X101951262Y-108693000I-271738J0D01*
G01*
G37*
G36*
G01*
X101951262Y-110743000D02*
X100994738Y-110743000D01*
G75*
G02*
X100723000Y-110471262I0J271738D01*
G01*
X100723000Y-109764738D01*
G75*
G02*
X100994738Y-109493000I271738J0D01*
G01*
X101951262Y-109493000D01*
G75*
G02*
X102223000Y-109764738I0J-271738D01*
G01*
X102223000Y-110471262D01*
G75*
G02*
X101951262Y-110743000I-271738J0D01*
G01*
G37*
%TD*%
D15*
%TO.C,RV3*%
X86360000Y-79425800D03*
X89865200Y-79425800D03*
X86360000Y-137922000D03*
D16*
X83921600Y-84759800D03*
X92278200Y-83566000D03*
X83921600Y-132562600D03*
X92303600Y-133781800D03*
%TD*%
D15*
%TO.C,RV4*%
X65811400Y-79425800D03*
X69316600Y-79425800D03*
X65811400Y-137922000D03*
D16*
X63373000Y-84759800D03*
X71729600Y-83566000D03*
X63373000Y-132562600D03*
X71755000Y-133781800D03*
%TD*%
D15*
%TO.C,RV2*%
X106934000Y-79425800D03*
X110439200Y-79425800D03*
X106934000Y-137922000D03*
D16*
X104495600Y-84759800D03*
X112852200Y-83566000D03*
X104495600Y-132562600D03*
X112877600Y-133781800D03*
%TD*%
D15*
%TO.C,RV1*%
X127533400Y-79425800D03*
X131038600Y-79425800D03*
X127533400Y-137922000D03*
D16*
X125095000Y-84759800D03*
X133451600Y-83566000D03*
X125095000Y-132562600D03*
X133477000Y-133781800D03*
%TD*%
D17*
%TO.C,J4*%
X60325000Y-71691500D03*
X71755000Y-71691500D03*
X71755000Y-58991500D03*
X60325000Y-58991500D03*
X62484000Y-68516500D03*
D18*
X60325000Y-62166500D03*
X71755000Y-62166500D03*
%TD*%
D17*
%TO.C,J3*%
X80899000Y-71691500D03*
X92329000Y-71691500D03*
X92329000Y-58991500D03*
X80899000Y-58991500D03*
X83058000Y-68516500D03*
D18*
X80899000Y-62166500D03*
X92329000Y-62166500D03*
%TD*%
D17*
%TO.C,J2*%
X101473000Y-71691500D03*
X112903000Y-71691500D03*
X112903000Y-58991500D03*
X101473000Y-58991500D03*
X103632000Y-68516500D03*
D18*
X101473000Y-62166500D03*
X112903000Y-62166500D03*
%TD*%
D17*
%TO.C,J1*%
X122047000Y-71691500D03*
X133477000Y-71691500D03*
X133477000Y-58991500D03*
X122047000Y-58991500D03*
X124206000Y-68516500D03*
D18*
X122047000Y-62166500D03*
X133477000Y-62166500D03*
%TD*%
D17*
%TO.C,J6*%
X59499500Y-129540000D03*
X59499500Y-118110000D03*
X46799500Y-118110000D03*
X46799500Y-129540000D03*
X56324500Y-127381000D03*
D18*
X49974500Y-129540000D03*
X49974500Y-118110000D03*
%TD*%
%TO.C,J5*%
G36*
G01*
X47905000Y-75577000D02*
X47905000Y-73777000D01*
G75*
G02*
X48805000Y-72877000I900000J0D01*
G01*
X50605000Y-72877000D01*
G75*
G02*
X51505000Y-73777000I0J-900000D01*
G01*
X51505000Y-75577000D01*
G75*
G02*
X50605000Y-76477000I-900000J0D01*
G01*
X48805000Y-76477000D01*
G75*
G02*
X47905000Y-75577000I0J900000D01*
G01*
G37*
G36*
G01*
X45155000Y-71002000D02*
X45155000Y-68952000D01*
G75*
G02*
X45930000Y-68177000I775000J0D01*
G01*
X47480000Y-68177000D01*
G75*
G02*
X48255000Y-68952000I0J-775000D01*
G01*
X48255000Y-71002000D01*
G75*
G02*
X47480000Y-71777000I-775000J0D01*
G01*
X45930000Y-71777000D01*
G75*
G02*
X45155000Y-71002000I0J775000D01*
G01*
G37*
D19*
X52705000Y-69977000D03*
%TD*%
D20*
G36*
X59563000Y-93218000D02*
G01*
X49657000Y-93218000D01*
X49657000Y-84582000D01*
X59563000Y-84582000D01*
X59563000Y-93218000D01*
G37*
X59563000Y-93218000D02*
X49657000Y-93218000D01*
X49657000Y-84582000D01*
X59563000Y-84582000D01*
X59563000Y-93218000D01*
M02*
