%TF.GenerationSoftware,KiCad,Pcbnew,(5.1.6-0-10_14)*%
%TF.CreationDate,2020-09-25T11:35:30+01:00*%
%TF.ProjectId,DigitalMixerPedal,44696769-7461-46c4-9d69-786572506564,rev?*%
%TF.SameCoordinates,Original*%
%TF.FileFunction,Copper,L2,Bot*%
%TF.FilePolarity,Positive*%
%FSLAX46Y46*%
G04 Gerber Fmt 4.6, Leading zero omitted, Abs format (unit mm)*
G04 Created by KiCad (PCBNEW (5.1.6-0-10_14)) date 2020-09-25 11:35:30*
%MOMM*%
%LPD*%
G01*
G04 APERTURE LIST*
%TA.AperFunction,Profile*%
%ADD10C,0.050000*%
%TD*%
%TA.AperFunction,ComponentPad*%
%ADD11O,1.700000X1.700000*%
%TD*%
%TA.AperFunction,ComponentPad*%
%ADD12R,1.700000X1.700000*%
%TD*%
%TA.AperFunction,ComponentPad*%
%ADD13C,1.800000*%
%TD*%
%TA.AperFunction,ComponentPad*%
%ADD14R,1.800000X1.800000*%
%TD*%
%TA.AperFunction,ComponentPad*%
%ADD15C,2.500000*%
%TD*%
%TA.AperFunction,ComponentPad*%
%ADD16C,3.500000*%
%TD*%
%TA.AperFunction,ComponentPad*%
%ADD17C,3.000000*%
%TD*%
%TA.AperFunction,ComponentPad*%
%ADD18R,3.500000X3.500000*%
%TD*%
%TA.AperFunction,ViaPad*%
%ADD19C,0.450000*%
%TD*%
%TA.AperFunction,Conductor*%
%ADD20C,0.500000*%
%TD*%
%TA.AperFunction,Conductor*%
%ADD21C,0.400000*%
%TD*%
%TA.AperFunction,Conductor*%
%ADD22C,0.254000*%
%TD*%
G04 APERTURE END LIST*
D10*
X148590000Y-140335000D02*
X147955000Y-140970000D01*
X148590000Y-135255000D02*
X148590000Y-140335000D01*
X154051000Y-135255000D02*
X148590000Y-135255000D01*
X154686000Y-134620000D02*
X154051000Y-135255000D01*
X154686000Y-60960000D02*
X154686000Y-134620000D01*
X154051000Y-60325000D02*
X154686000Y-60960000D01*
X148590000Y-60325000D02*
X154051000Y-60325000D01*
X148590000Y-55181500D02*
X148590000Y-60325000D01*
X147955000Y-54546500D02*
X148590000Y-55181500D01*
X48895000Y-54546500D02*
X147955000Y-54546500D01*
X48260000Y-55181500D02*
X48895000Y-54546500D01*
X48260000Y-60325000D02*
X48260000Y-55181500D01*
X42799000Y-60325000D02*
X48260000Y-60325000D01*
X42164000Y-60960000D02*
X42799000Y-60325000D01*
X42164000Y-134683500D02*
X42164000Y-60960000D01*
X42799000Y-135318500D02*
X42164000Y-134683500D01*
X48260000Y-135318500D02*
X42799000Y-135318500D01*
X48260000Y-140335000D02*
X48260000Y-135318500D01*
X48895000Y-140970000D02*
X48260000Y-140335000D01*
X147955000Y-140970000D02*
X48895000Y-140970000D01*
%TO.P,R12,2*%
%TO.N,Net-(D5-Pad1)*%
%TA.AperFunction,SMDPad,CuDef*%
G36*
G01*
X127450000Y-59378001D02*
X127450000Y-58477999D01*
G75*
G02*
X127699999Y-58228000I249999J0D01*
G01*
X128350001Y-58228000D01*
G75*
G02*
X128600000Y-58477999I0J-249999D01*
G01*
X128600000Y-59378001D01*
G75*
G02*
X128350001Y-59628000I-249999J0D01*
G01*
X127699999Y-59628000D01*
G75*
G02*
X127450000Y-59378001I0J249999D01*
G01*
G37*
%TD.AperFunction*%
%TO.P,R12,1*%
%TO.N,GNDS*%
%TA.AperFunction,SMDPad,CuDef*%
G36*
G01*
X125400000Y-59378001D02*
X125400000Y-58477999D01*
G75*
G02*
X125649999Y-58228000I249999J0D01*
G01*
X126300001Y-58228000D01*
G75*
G02*
X126550000Y-58477999I0J-249999D01*
G01*
X126550000Y-59378001D01*
G75*
G02*
X126300001Y-59628000I-249999J0D01*
G01*
X125649999Y-59628000D01*
G75*
G02*
X125400000Y-59378001I0J249999D01*
G01*
G37*
%TD.AperFunction*%
%TD*%
%TO.P,R9,2*%
%TO.N,Net-(D4-Pad1)*%
%TA.AperFunction,SMDPad,CuDef*%
G36*
G01*
X106876000Y-59378001D02*
X106876000Y-58477999D01*
G75*
G02*
X107125999Y-58228000I249999J0D01*
G01*
X107776001Y-58228000D01*
G75*
G02*
X108026000Y-58477999I0J-249999D01*
G01*
X108026000Y-59378001D01*
G75*
G02*
X107776001Y-59628000I-249999J0D01*
G01*
X107125999Y-59628000D01*
G75*
G02*
X106876000Y-59378001I0J249999D01*
G01*
G37*
%TD.AperFunction*%
%TO.P,R9,1*%
%TO.N,GNDS*%
%TA.AperFunction,SMDPad,CuDef*%
G36*
G01*
X104826000Y-59378001D02*
X104826000Y-58477999D01*
G75*
G02*
X105075999Y-58228000I249999J0D01*
G01*
X105726001Y-58228000D01*
G75*
G02*
X105976000Y-58477999I0J-249999D01*
G01*
X105976000Y-59378001D01*
G75*
G02*
X105726001Y-59628000I-249999J0D01*
G01*
X105075999Y-59628000D01*
G75*
G02*
X104826000Y-59378001I0J249999D01*
G01*
G37*
%TD.AperFunction*%
%TD*%
%TO.P,R8,2*%
%TO.N,Net-(D3-Pad1)*%
%TA.AperFunction,SMDPad,CuDef*%
G36*
G01*
X86302000Y-59378001D02*
X86302000Y-58477999D01*
G75*
G02*
X86551999Y-58228000I249999J0D01*
G01*
X87202001Y-58228000D01*
G75*
G02*
X87452000Y-58477999I0J-249999D01*
G01*
X87452000Y-59378001D01*
G75*
G02*
X87202001Y-59628000I-249999J0D01*
G01*
X86551999Y-59628000D01*
G75*
G02*
X86302000Y-59378001I0J249999D01*
G01*
G37*
%TD.AperFunction*%
%TO.P,R8,1*%
%TO.N,GNDS*%
%TA.AperFunction,SMDPad,CuDef*%
G36*
G01*
X84252000Y-59378001D02*
X84252000Y-58477999D01*
G75*
G02*
X84501999Y-58228000I249999J0D01*
G01*
X85152001Y-58228000D01*
G75*
G02*
X85402000Y-58477999I0J-249999D01*
G01*
X85402000Y-59378001D01*
G75*
G02*
X85152001Y-59628000I-249999J0D01*
G01*
X84501999Y-59628000D01*
G75*
G02*
X84252000Y-59378001I0J249999D01*
G01*
G37*
%TD.AperFunction*%
%TD*%
%TO.P,R7,2*%
%TO.N,Net-(D2-Pad1)*%
%TA.AperFunction,SMDPad,CuDef*%
G36*
G01*
X65728000Y-59378001D02*
X65728000Y-58477999D01*
G75*
G02*
X65977999Y-58228000I249999J0D01*
G01*
X66628001Y-58228000D01*
G75*
G02*
X66878000Y-58477999I0J-249999D01*
G01*
X66878000Y-59378001D01*
G75*
G02*
X66628001Y-59628000I-249999J0D01*
G01*
X65977999Y-59628000D01*
G75*
G02*
X65728000Y-59378001I0J249999D01*
G01*
G37*
%TD.AperFunction*%
%TO.P,R7,1*%
%TO.N,GNDS*%
%TA.AperFunction,SMDPad,CuDef*%
G36*
G01*
X63678000Y-59378001D02*
X63678000Y-58477999D01*
G75*
G02*
X63927999Y-58228000I249999J0D01*
G01*
X64578001Y-58228000D01*
G75*
G02*
X64828000Y-58477999I0J-249999D01*
G01*
X64828000Y-59378001D01*
G75*
G02*
X64578001Y-59628000I-249999J0D01*
G01*
X63927999Y-59628000D01*
G75*
G02*
X63678000Y-59378001I0J249999D01*
G01*
G37*
%TD.AperFunction*%
%TD*%
D11*
%TO.P,J7,5*%
%TO.N,/PeakDetectorMCU/NRST*%
X93599000Y-127762000D03*
%TO.P,J7,4*%
%TO.N,/PeakDetectorMCU/SYS_SWDIO*%
X96139000Y-127762000D03*
%TO.P,J7,3*%
%TO.N,GNDS*%
X98679000Y-127762000D03*
%TO.P,J7,2*%
%TO.N,/PeakDetectorMCU/SYS_SWCLK*%
X101219000Y-127762000D03*
D12*
%TO.P,J7,1*%
%TO.N,+3V3*%
X103759000Y-127762000D03*
%TD*%
D13*
%TO.P,D5,2*%
%TO.N,/PeakDetectorMCU/PEAK_OUT_PWM1*%
X129286000Y-65278000D03*
D14*
%TO.P,D5,1*%
%TO.N,Net-(D5-Pad1)*%
X129286000Y-62738000D03*
%TD*%
D13*
%TO.P,D4,2*%
%TO.N,/PeakDetectorMCU/PEAK_OUT_PWM2*%
X108712000Y-65278000D03*
D14*
%TO.P,D4,1*%
%TO.N,Net-(D4-Pad1)*%
X108712000Y-62738000D03*
%TD*%
D13*
%TO.P,D3,2*%
%TO.N,/PeakDetectorMCU/PEAK_OUT_PWM3*%
X88138000Y-65278000D03*
D14*
%TO.P,D3,1*%
%TO.N,Net-(D3-Pad1)*%
X88138000Y-62738000D03*
%TD*%
D13*
%TO.P,D2,2*%
%TO.N,/PeakDetectorMCU/PEAK_OUT_PWM4*%
X67564000Y-65278000D03*
D14*
%TO.P,D2,1*%
%TO.N,Net-(D2-Pad1)*%
X67564000Y-62738000D03*
%TD*%
%TO.P,C30,2*%
%TO.N,GNDS*%
%TA.AperFunction,SMDPad,CuDef*%
G36*
G01*
X99764001Y-108643000D02*
X98863999Y-108643000D01*
G75*
G02*
X98614000Y-108393001I0J249999D01*
G01*
X98614000Y-107742999D01*
G75*
G02*
X98863999Y-107493000I249999J0D01*
G01*
X99764001Y-107493000D01*
G75*
G02*
X100014000Y-107742999I0J-249999D01*
G01*
X100014000Y-108393001D01*
G75*
G02*
X99764001Y-108643000I-249999J0D01*
G01*
G37*
%TD.AperFunction*%
%TO.P,C30,1*%
%TO.N,+3V3*%
%TA.AperFunction,SMDPad,CuDef*%
G36*
G01*
X99764001Y-110693000D02*
X98863999Y-110693000D01*
G75*
G02*
X98614000Y-110443001I0J249999D01*
G01*
X98614000Y-109792999D01*
G75*
G02*
X98863999Y-109543000I249999J0D01*
G01*
X99764001Y-109543000D01*
G75*
G02*
X100014000Y-109792999I0J-249999D01*
G01*
X100014000Y-110443001D01*
G75*
G02*
X99764001Y-110693000I-249999J0D01*
G01*
G37*
%TD.AperFunction*%
%TD*%
%TO.P,C27,2*%
%TO.N,GNDS*%
%TA.AperFunction,SMDPad,CuDef*%
G36*
G01*
X97605001Y-108643000D02*
X96704999Y-108643000D01*
G75*
G02*
X96455000Y-108393001I0J249999D01*
G01*
X96455000Y-107742999D01*
G75*
G02*
X96704999Y-107493000I249999J0D01*
G01*
X97605001Y-107493000D01*
G75*
G02*
X97855000Y-107742999I0J-249999D01*
G01*
X97855000Y-108393001D01*
G75*
G02*
X97605001Y-108643000I-249999J0D01*
G01*
G37*
%TD.AperFunction*%
%TO.P,C27,1*%
%TO.N,+3V3*%
%TA.AperFunction,SMDPad,CuDef*%
G36*
G01*
X97605001Y-110693000D02*
X96704999Y-110693000D01*
G75*
G02*
X96455000Y-110443001I0J249999D01*
G01*
X96455000Y-109792999D01*
G75*
G02*
X96704999Y-109543000I249999J0D01*
G01*
X97605001Y-109543000D01*
G75*
G02*
X97855000Y-109792999I0J-249999D01*
G01*
X97855000Y-110443001D01*
G75*
G02*
X97605001Y-110693000I-249999J0D01*
G01*
G37*
%TD.AperFunction*%
%TD*%
%TO.P,C26,2*%
%TO.N,GNDS*%
%TA.AperFunction,SMDPad,CuDef*%
G36*
G01*
X95446001Y-108643000D02*
X94545999Y-108643000D01*
G75*
G02*
X94296000Y-108393001I0J249999D01*
G01*
X94296000Y-107742999D01*
G75*
G02*
X94545999Y-107493000I249999J0D01*
G01*
X95446001Y-107493000D01*
G75*
G02*
X95696000Y-107742999I0J-249999D01*
G01*
X95696000Y-108393001D01*
G75*
G02*
X95446001Y-108643000I-249999J0D01*
G01*
G37*
%TD.AperFunction*%
%TO.P,C26,1*%
%TO.N,+3V3*%
%TA.AperFunction,SMDPad,CuDef*%
G36*
G01*
X95446001Y-110693000D02*
X94545999Y-110693000D01*
G75*
G02*
X94296000Y-110443001I0J249999D01*
G01*
X94296000Y-109792999D01*
G75*
G02*
X94545999Y-109543000I249999J0D01*
G01*
X95446001Y-109543000D01*
G75*
G02*
X95696000Y-109792999I0J-249999D01*
G01*
X95696000Y-110443001D01*
G75*
G02*
X95446001Y-110693000I-249999J0D01*
G01*
G37*
%TD.AperFunction*%
%TD*%
%TO.P,C25,2*%
%TO.N,GNDS*%
%TA.AperFunction,SMDPad,CuDef*%
G36*
G01*
X101923001Y-108643000D02*
X101022999Y-108643000D01*
G75*
G02*
X100773000Y-108393001I0J249999D01*
G01*
X100773000Y-107742999D01*
G75*
G02*
X101022999Y-107493000I249999J0D01*
G01*
X101923001Y-107493000D01*
G75*
G02*
X102173000Y-107742999I0J-249999D01*
G01*
X102173000Y-108393001D01*
G75*
G02*
X101923001Y-108643000I-249999J0D01*
G01*
G37*
%TD.AperFunction*%
%TO.P,C25,1*%
%TO.N,+3V3*%
%TA.AperFunction,SMDPad,CuDef*%
G36*
G01*
X101923001Y-110693000D02*
X101022999Y-110693000D01*
G75*
G02*
X100773000Y-110443001I0J249999D01*
G01*
X100773000Y-109792999D01*
G75*
G02*
X101022999Y-109543000I249999J0D01*
G01*
X101923001Y-109543000D01*
G75*
G02*
X102173000Y-109792999I0J-249999D01*
G01*
X102173000Y-110443001D01*
G75*
G02*
X101923001Y-110693000I-249999J0D01*
G01*
G37*
%TD.AperFunction*%
%TD*%
D15*
%TO.P,RV3,1*%
%TO.N,Net-(R16-Pad2)*%
X86360000Y-79425800D03*
%TO.P,RV3,2*%
X89865200Y-79425800D03*
%TO.P,RV3,3*%
%TO.N,Net-(C18-Pad2)*%
X86360000Y-137922000D03*
D16*
%TO.P,RV3,*%
%TO.N,*%
X83921600Y-84759800D03*
X92278200Y-83566000D03*
X83921600Y-132562600D03*
X92303600Y-133781800D03*
%TD*%
D15*
%TO.P,RV4,1*%
%TO.N,Net-(R21-Pad2)*%
X65811400Y-79425800D03*
%TO.P,RV4,2*%
X69316600Y-79425800D03*
%TO.P,RV4,3*%
%TO.N,Net-(C24-Pad2)*%
X65811400Y-137922000D03*
D16*
%TO.P,RV4,*%
%TO.N,*%
X63373000Y-84759800D03*
X71729600Y-83566000D03*
X63373000Y-132562600D03*
X71755000Y-133781800D03*
%TD*%
D15*
%TO.P,RV2,1*%
%TO.N,Net-(R11-Pad2)*%
X106934000Y-79425800D03*
%TO.P,RV2,2*%
X110439200Y-79425800D03*
%TO.P,RV2,3*%
%TO.N,Net-(C12-Pad2)*%
X106934000Y-137922000D03*
D16*
%TO.P,RV2,*%
%TO.N,*%
X104495600Y-84759800D03*
X112852200Y-83566000D03*
X104495600Y-132562600D03*
X112877600Y-133781800D03*
%TD*%
D15*
%TO.P,RV1,1*%
%TO.N,Net-(R6-Pad2)*%
X127533400Y-79425800D03*
%TO.P,RV1,2*%
X131038600Y-79425800D03*
%TO.P,RV1,3*%
%TO.N,Net-(C6-Pad2)*%
X127533400Y-137922000D03*
D16*
%TO.P,RV1,*%
%TO.N,*%
X125095000Y-84759800D03*
X133451600Y-83566000D03*
X125095000Y-132562600D03*
X133477000Y-133781800D03*
%TD*%
D17*
%TO.P,J4,1*%
%TO.N,/InputBuffer4/SIGNAL_INPUT*%
X60325000Y-71691500D03*
%TO.P,J4,2*%
%TO.N,GNDS*%
X71755000Y-71691500D03*
%TO.P,J4,3*%
X71755000Y-58991500D03*
%TO.P,J4,4*%
X60325000Y-58991500D03*
%TD*%
%TO.P,J3,1*%
%TO.N,/InputBuffer3/SIGNAL_INPUT*%
X80899000Y-71691500D03*
%TO.P,J3,2*%
%TO.N,GNDS*%
X92329000Y-71691500D03*
%TO.P,J3,3*%
X92329000Y-58991500D03*
%TO.P,J3,4*%
X80899000Y-58991500D03*
%TD*%
%TO.P,J2,1*%
%TO.N,/InputBuffer2/SIGNAL_INPUT*%
X101473000Y-71691500D03*
%TO.P,J2,2*%
%TO.N,GNDS*%
X112903000Y-71691500D03*
%TO.P,J2,3*%
X112903000Y-58991500D03*
%TO.P,J2,4*%
X101473000Y-58991500D03*
%TD*%
%TO.P,J1,1*%
%TO.N,/InputBuffer1/SIGNAL_INPUT*%
X122047000Y-71691500D03*
%TO.P,J1,2*%
%TO.N,GNDS*%
X133477000Y-71691500D03*
%TO.P,J1,3*%
X133477000Y-58991500D03*
%TO.P,J1,4*%
X122047000Y-58991500D03*
%TD*%
%TO.P,J6,1*%
%TO.N,/OutputStage/SIGNAL_OUTPUT*%
X59499500Y-129540000D03*
%TO.P,J6,2*%
%TO.N,GNDS*%
X59499500Y-118110000D03*
%TO.P,J6,3*%
X46799500Y-118110000D03*
%TO.P,J6,4*%
X46799500Y-129540000D03*
%TD*%
%TO.P,J5,3*%
%TO.N,N/C*%
%TA.AperFunction,ComponentPad*%
G36*
G01*
X47955000Y-75552000D02*
X47955000Y-73802000D01*
G75*
G02*
X48830000Y-72927000I875000J0D01*
G01*
X50580000Y-72927000D01*
G75*
G02*
X51455000Y-73802000I0J-875000D01*
G01*
X51455000Y-75552000D01*
G75*
G02*
X50580000Y-76427000I-875000J0D01*
G01*
X48830000Y-76427000D01*
G75*
G02*
X47955000Y-75552000I0J875000D01*
G01*
G37*
%TD.AperFunction*%
%TO.P,J5,2*%
%TO.N,/PowerSupply/+9V_IN*%
%TA.AperFunction,ComponentPad*%
G36*
G01*
X45205000Y-70977000D02*
X45205000Y-68977000D01*
G75*
G02*
X45955000Y-68227000I750000J0D01*
G01*
X47455000Y-68227000D01*
G75*
G02*
X48205000Y-68977000I0J-750000D01*
G01*
X48205000Y-70977000D01*
G75*
G02*
X47455000Y-71727000I-750000J0D01*
G01*
X45955000Y-71727000D01*
G75*
G02*
X45205000Y-70977000I0J750000D01*
G01*
G37*
%TD.AperFunction*%
D18*
%TO.P,J5,1*%
%TO.N,GNDS*%
X52705000Y-69977000D03*
%TD*%
D19*
%TO.N,GNDS*%
X53340000Y-90170000D03*
X53340000Y-87630000D03*
X45085000Y-88900000D03*
X50800000Y-85725000D03*
X58420000Y-85725000D03*
X53340000Y-85725000D03*
X55880000Y-85725000D03*
X50800000Y-92075000D03*
X53340000Y-92075000D03*
X55880000Y-92075000D03*
X58420000Y-92075000D03*
X50800000Y-87630000D03*
X55880000Y-87630000D03*
X58420000Y-87630000D03*
X58420000Y-90170000D03*
X55880000Y-90170000D03*
X50800000Y-90170000D03*
X125222000Y-91948000D03*
X132842000Y-91948000D03*
X64389000Y-106426000D03*
X64389000Y-92456000D03*
X63754000Y-91821000D03*
X125857000Y-106553000D03*
X125857000Y-92583000D03*
X73914000Y-105791000D03*
X71374000Y-91186000D03*
X84201000Y-91567000D03*
X84836000Y-93091000D03*
X91821000Y-91567000D03*
X94361000Y-105537000D03*
X95386000Y-100720000D03*
X84836000Y-106045000D03*
X88646000Y-111125000D03*
X116341000Y-100584000D03*
X115316000Y-105410000D03*
X112522000Y-91440000D03*
X105537000Y-93091000D03*
X104902000Y-91440000D03*
X105537000Y-106044996D03*
X109347000Y-111125000D03*
X135509000Y-105283000D03*
X137033000Y-97135990D03*
X116967000Y-97281998D03*
X96012000Y-97282000D03*
X75565000Y-97155000D03*
X136534000Y-100720000D03*
X74939000Y-100593000D03*
X104007000Y-117342000D03*
X92716000Y-122942000D03*
X56388000Y-109347000D03*
X48133000Y-109347000D03*
X55880000Y-112268000D03*
X46736000Y-111252000D03*
X59318000Y-109483000D03*
X58420000Y-100330000D03*
X129667000Y-111125000D03*
X68199000Y-111048800D03*
%TO.N,/OutputStage/SIGNAL_INPUT*%
X62484000Y-113538000D03*
X76200000Y-113538000D03*
X82550000Y-113538000D03*
X106171996Y-115570000D03*
X132080028Y-114046000D03*
X111887004Y-111379008D03*
X111887000Y-114046000D03*
X94615000Y-115570000D03*
X64516000Y-113538000D03*
X132207000Y-111125000D03*
%TO.N,+3V3*%
X94123000Y-124317000D03*
X62239000Y-88256000D03*
X82559000Y-88383000D03*
X103260000Y-88383000D03*
X123707000Y-88383000D03*
X133223000Y-99441000D03*
X130872000Y-104583000D03*
X110428000Y-104583000D03*
X113030000Y-99441000D03*
X92202000Y-99568000D03*
X89854000Y-104583000D03*
X69280000Y-104456000D03*
X71755000Y-99441000D03*
X101225000Y-113792000D03*
X58928000Y-96012008D03*
%TO.N,Net-(C6-Pad2)*%
X125603000Y-120396000D03*
X125594000Y-112150000D03*
X125603000Y-114808000D03*
X125603000Y-122174000D03*
%TO.N,Net-(C12-Pad2)*%
X105283000Y-111506000D03*
X105283000Y-113792000D03*
X106934000Y-122174000D03*
X106934000Y-119634000D03*
%TO.N,Net-(C18-Pad2)*%
X81026000Y-116332000D03*
X81026000Y-120142000D03*
%TO.N,/PeakDetectorMCU/PEAK_OUT_PWM4*%
X78486000Y-116332000D03*
X78486000Y-118363996D03*
%TO.N,/PeakDetectorMCU/PEAK_OUT_PWM3*%
X79756000Y-116332002D03*
X79755996Y-118364000D03*
%TO.N,/PeakDetectorMCU/PEAK_OUT_PWM2*%
X119380000Y-112267998D03*
X119380000Y-114808000D03*
%TO.N,/PeakDetectorMCU/NRST*%
X101092000Y-122682000D03*
X104267000Y-122682004D03*
%TD*%
D20*
%TO.N,GNDS*%
X59499500Y-118681500D02*
X59499500Y-120015000D01*
D21*
%TO.N,/OutputStage/SIGNAL_INPUT*%
X76200000Y-113538000D02*
X82550000Y-113538000D01*
X111887004Y-111379008D02*
X111887004Y-114046000D01*
X111887004Y-114046000D02*
X111887000Y-114046000D01*
X106171996Y-115570000D02*
X94615000Y-115570000D01*
X62484000Y-113538000D02*
X64516000Y-113538000D01*
X132207000Y-113919028D02*
X132207000Y-111125000D01*
X132080028Y-114046000D02*
X132207000Y-113919028D01*
%TO.N,+3V3*%
X94123000Y-124317000D02*
X101965000Y-124317000D01*
X103759000Y-126111000D02*
X103759000Y-127762000D01*
X101965000Y-124317000D02*
X103759000Y-126111000D01*
X69986000Y-97672000D02*
X71755000Y-99441000D01*
X69986000Y-88256000D02*
X69986000Y-97672000D01*
X62239000Y-88256000D02*
X69986000Y-88256000D01*
X71755000Y-101981000D02*
X69280000Y-104456000D01*
X71755000Y-99441000D02*
X71755000Y-101981000D01*
X90542000Y-97908000D02*
X92202000Y-99568000D01*
X90542000Y-88383000D02*
X90542000Y-97908000D01*
X82559000Y-88383000D02*
X90542000Y-88383000D01*
X90542000Y-88383000D02*
X103260000Y-88383000D01*
X92202000Y-102235000D02*
X89854000Y-104583000D01*
X92202000Y-99568000D02*
X92202000Y-102235000D01*
X110227000Y-88383000D02*
X110227000Y-96638000D01*
X110227000Y-96638000D02*
X113030000Y-99441000D01*
X103260000Y-88383000D02*
X110227000Y-88383000D01*
X110227000Y-88383000D02*
X123707000Y-88383000D01*
X113030000Y-101981000D02*
X110428000Y-104583000D01*
X113030000Y-99441000D02*
X113030000Y-101981000D01*
X123707000Y-88383000D02*
X126356000Y-88383000D01*
X133223000Y-95250000D02*
X133223000Y-99441000D01*
X126356000Y-88383000D02*
X133223000Y-95250000D01*
X133223000Y-102232000D02*
X130872000Y-104583000D01*
X133223000Y-99441000D02*
X133223000Y-102232000D01*
X92592000Y-110118000D02*
X94996000Y-110118000D01*
X89854000Y-107380000D02*
X92592000Y-110118000D01*
X89854000Y-104583000D02*
X89854000Y-107380000D01*
X101225000Y-113473802D02*
X101225000Y-113792000D01*
X101225000Y-110118000D02*
X101225000Y-113473802D01*
X95241000Y-110118000D02*
X101225000Y-110118000D01*
X95123000Y-110236000D02*
X95241000Y-110118000D01*
X82550000Y-88392000D02*
X82559000Y-88383000D01*
X70122000Y-88392000D02*
X82550000Y-88392000D01*
X69986000Y-88256000D02*
X70122000Y-88392000D01*
X62239000Y-92701008D02*
X58928000Y-96012008D01*
X62239000Y-88256000D02*
X62239000Y-92701008D01*
%TO.N,Net-(C6-Pad2)*%
X125594000Y-114799000D02*
X125603000Y-114808000D01*
X125594000Y-112150000D02*
X125594000Y-114799000D01*
X125603000Y-120396000D02*
X125603000Y-122174000D01*
%TO.N,Net-(C12-Pad2)*%
X105283000Y-111506000D02*
X105283000Y-113792000D01*
X106934000Y-122174000D02*
X106934000Y-119634000D01*
%TO.N,Net-(C18-Pad2)*%
X81026000Y-116332000D02*
X81026000Y-116650198D01*
X81026000Y-116650198D02*
X81026000Y-120142000D01*
%TO.N,/PeakDetectorMCU/PEAK_OUT_PWM4*%
X78486000Y-116332000D02*
X78486000Y-118363996D01*
%TO.N,Net-(D2-Pad1)*%
X67564000Y-61214000D02*
X67564000Y-62738000D01*
X66303000Y-59953000D02*
X67564000Y-61214000D01*
X66303000Y-58928000D02*
X66303000Y-59953000D01*
%TO.N,/PeakDetectorMCU/PEAK_OUT_PWM3*%
X79756000Y-116332002D02*
X79756000Y-118363996D01*
X79756000Y-118363996D02*
X79755996Y-118364000D01*
%TO.N,Net-(D3-Pad1)*%
X86877000Y-59953000D02*
X86877000Y-58928000D01*
X88138000Y-61214000D02*
X86877000Y-59953000D01*
X88138000Y-62738000D02*
X88138000Y-61214000D01*
%TO.N,/PeakDetectorMCU/PEAK_OUT_PWM2*%
X119380000Y-112267998D02*
X119380000Y-114808000D01*
%TO.N,Net-(D4-Pad1)*%
X107451000Y-59953000D02*
X107451000Y-58928000D01*
X108712000Y-61214000D02*
X107451000Y-59953000D01*
X108712000Y-62738000D02*
X108712000Y-61214000D01*
%TO.N,Net-(D5-Pad1)*%
X129286000Y-61214000D02*
X129286000Y-62738000D01*
X128025000Y-59953000D02*
X129286000Y-61214000D01*
X128025000Y-58928000D02*
X128025000Y-59953000D01*
%TO.N,/PeakDetectorMCU/NRST*%
X104266996Y-122682000D02*
X104267000Y-122682004D01*
X101092000Y-122682000D02*
X104266996Y-122682000D01*
%TD*%
D22*
%TO.N,GNDS*%
G36*
X147930000Y-55454881D02*
G01*
X147930001Y-60292571D01*
X147926807Y-60325000D01*
X147939550Y-60454383D01*
X147977290Y-60578793D01*
X148038575Y-60693450D01*
X148121052Y-60793948D01*
X148221550Y-60876425D01*
X148336207Y-60937710D01*
X148460617Y-60975450D01*
X148557581Y-60985000D01*
X148590000Y-60988193D01*
X148622419Y-60985000D01*
X153777620Y-60985000D01*
X154026000Y-61233381D01*
X154026001Y-134346618D01*
X153777620Y-134595000D01*
X148622419Y-134595000D01*
X148590000Y-134591807D01*
X148557581Y-134595000D01*
X148460617Y-134604550D01*
X148336207Y-134642290D01*
X148221550Y-134703575D01*
X148121052Y-134786052D01*
X148038575Y-134886550D01*
X147977290Y-135001207D01*
X147939550Y-135125617D01*
X147926807Y-135255000D01*
X147930000Y-135287419D01*
X147930001Y-140061618D01*
X147681620Y-140310000D01*
X49168381Y-140310000D01*
X48920000Y-140061620D01*
X48920000Y-137736344D01*
X63926400Y-137736344D01*
X63926400Y-138107656D01*
X63998839Y-138471834D01*
X64140934Y-138814882D01*
X64347225Y-139123618D01*
X64609782Y-139386175D01*
X64918518Y-139592466D01*
X65261566Y-139734561D01*
X65625744Y-139807000D01*
X65997056Y-139807000D01*
X66361234Y-139734561D01*
X66704282Y-139592466D01*
X67013018Y-139386175D01*
X67275575Y-139123618D01*
X67481866Y-138814882D01*
X67623961Y-138471834D01*
X67696400Y-138107656D01*
X67696400Y-137736344D01*
X84475000Y-137736344D01*
X84475000Y-138107656D01*
X84547439Y-138471834D01*
X84689534Y-138814882D01*
X84895825Y-139123618D01*
X85158382Y-139386175D01*
X85467118Y-139592466D01*
X85810166Y-139734561D01*
X86174344Y-139807000D01*
X86545656Y-139807000D01*
X86909834Y-139734561D01*
X87252882Y-139592466D01*
X87561618Y-139386175D01*
X87824175Y-139123618D01*
X88030466Y-138814882D01*
X88172561Y-138471834D01*
X88245000Y-138107656D01*
X88245000Y-137736344D01*
X105049000Y-137736344D01*
X105049000Y-138107656D01*
X105121439Y-138471834D01*
X105263534Y-138814882D01*
X105469825Y-139123618D01*
X105732382Y-139386175D01*
X106041118Y-139592466D01*
X106384166Y-139734561D01*
X106748344Y-139807000D01*
X107119656Y-139807000D01*
X107483834Y-139734561D01*
X107826882Y-139592466D01*
X108135618Y-139386175D01*
X108398175Y-139123618D01*
X108604466Y-138814882D01*
X108746561Y-138471834D01*
X108819000Y-138107656D01*
X108819000Y-137736344D01*
X125648400Y-137736344D01*
X125648400Y-138107656D01*
X125720839Y-138471834D01*
X125862934Y-138814882D01*
X126069225Y-139123618D01*
X126331782Y-139386175D01*
X126640518Y-139592466D01*
X126983566Y-139734561D01*
X127347744Y-139807000D01*
X127719056Y-139807000D01*
X128083234Y-139734561D01*
X128426282Y-139592466D01*
X128735018Y-139386175D01*
X128997575Y-139123618D01*
X129203866Y-138814882D01*
X129345961Y-138471834D01*
X129418400Y-138107656D01*
X129418400Y-137736344D01*
X129345961Y-137372166D01*
X129203866Y-137029118D01*
X128997575Y-136720382D01*
X128735018Y-136457825D01*
X128426282Y-136251534D01*
X128083234Y-136109439D01*
X127719056Y-136037000D01*
X127347744Y-136037000D01*
X126983566Y-136109439D01*
X126640518Y-136251534D01*
X126331782Y-136457825D01*
X126069225Y-136720382D01*
X125862934Y-137029118D01*
X125720839Y-137372166D01*
X125648400Y-137736344D01*
X108819000Y-137736344D01*
X108746561Y-137372166D01*
X108604466Y-137029118D01*
X108398175Y-136720382D01*
X108135618Y-136457825D01*
X107826882Y-136251534D01*
X107483834Y-136109439D01*
X107119656Y-136037000D01*
X106748344Y-136037000D01*
X106384166Y-136109439D01*
X106041118Y-136251534D01*
X105732382Y-136457825D01*
X105469825Y-136720382D01*
X105263534Y-137029118D01*
X105121439Y-137372166D01*
X105049000Y-137736344D01*
X88245000Y-137736344D01*
X88172561Y-137372166D01*
X88030466Y-137029118D01*
X87824175Y-136720382D01*
X87561618Y-136457825D01*
X87252882Y-136251534D01*
X86909834Y-136109439D01*
X86545656Y-136037000D01*
X86174344Y-136037000D01*
X85810166Y-136109439D01*
X85467118Y-136251534D01*
X85158382Y-136457825D01*
X84895825Y-136720382D01*
X84689534Y-137029118D01*
X84547439Y-137372166D01*
X84475000Y-137736344D01*
X67696400Y-137736344D01*
X67623961Y-137372166D01*
X67481866Y-137029118D01*
X67275575Y-136720382D01*
X67013018Y-136457825D01*
X66704282Y-136251534D01*
X66361234Y-136109439D01*
X65997056Y-136037000D01*
X65625744Y-136037000D01*
X65261566Y-136109439D01*
X64918518Y-136251534D01*
X64609782Y-136457825D01*
X64347225Y-136720382D01*
X64140934Y-137029118D01*
X63998839Y-137372166D01*
X63926400Y-137736344D01*
X48920000Y-137736344D01*
X48920000Y-135350919D01*
X48923193Y-135318500D01*
X48910450Y-135189117D01*
X48872710Y-135064707D01*
X48811425Y-134950050D01*
X48728948Y-134849552D01*
X48628450Y-134767075D01*
X48513793Y-134705790D01*
X48389383Y-134668050D01*
X48292419Y-134658500D01*
X48260000Y-134655307D01*
X48227581Y-134658500D01*
X43072381Y-134658500D01*
X42824000Y-134410120D01*
X42824000Y-132327698D01*
X60988000Y-132327698D01*
X60988000Y-132797502D01*
X61079654Y-133258279D01*
X61259440Y-133692321D01*
X61520450Y-134082949D01*
X61852651Y-134415150D01*
X62243279Y-134676160D01*
X62677321Y-134855946D01*
X63138098Y-134947600D01*
X63607902Y-134947600D01*
X64068679Y-134855946D01*
X64502721Y-134676160D01*
X64893349Y-134415150D01*
X65225550Y-134082949D01*
X65486560Y-133692321D01*
X65546796Y-133546898D01*
X69370000Y-133546898D01*
X69370000Y-134016702D01*
X69461654Y-134477479D01*
X69641440Y-134911521D01*
X69902450Y-135302149D01*
X70234651Y-135634350D01*
X70625279Y-135895360D01*
X71059321Y-136075146D01*
X71520098Y-136166800D01*
X71989902Y-136166800D01*
X72450679Y-136075146D01*
X72884721Y-135895360D01*
X73275349Y-135634350D01*
X73607550Y-135302149D01*
X73868560Y-134911521D01*
X74048346Y-134477479D01*
X74140000Y-134016702D01*
X74140000Y-133546898D01*
X74048346Y-133086121D01*
X73868560Y-132652079D01*
X73651815Y-132327698D01*
X81536600Y-132327698D01*
X81536600Y-132797502D01*
X81628254Y-133258279D01*
X81808040Y-133692321D01*
X82069050Y-134082949D01*
X82401251Y-134415150D01*
X82791879Y-134676160D01*
X83225921Y-134855946D01*
X83686698Y-134947600D01*
X84156502Y-134947600D01*
X84617279Y-134855946D01*
X85051321Y-134676160D01*
X85441949Y-134415150D01*
X85774150Y-134082949D01*
X86035160Y-133692321D01*
X86095396Y-133546898D01*
X89918600Y-133546898D01*
X89918600Y-134016702D01*
X90010254Y-134477479D01*
X90190040Y-134911521D01*
X90451050Y-135302149D01*
X90783251Y-135634350D01*
X91173879Y-135895360D01*
X91607921Y-136075146D01*
X92068698Y-136166800D01*
X92538502Y-136166800D01*
X92999279Y-136075146D01*
X93433321Y-135895360D01*
X93823949Y-135634350D01*
X94156150Y-135302149D01*
X94417160Y-134911521D01*
X94596946Y-134477479D01*
X94688600Y-134016702D01*
X94688600Y-133546898D01*
X94596946Y-133086121D01*
X94417160Y-132652079D01*
X94200415Y-132327698D01*
X102110600Y-132327698D01*
X102110600Y-132797502D01*
X102202254Y-133258279D01*
X102382040Y-133692321D01*
X102643050Y-134082949D01*
X102975251Y-134415150D01*
X103365879Y-134676160D01*
X103799921Y-134855946D01*
X104260698Y-134947600D01*
X104730502Y-134947600D01*
X105191279Y-134855946D01*
X105625321Y-134676160D01*
X106015949Y-134415150D01*
X106348150Y-134082949D01*
X106609160Y-133692321D01*
X106669396Y-133546898D01*
X110492600Y-133546898D01*
X110492600Y-134016702D01*
X110584254Y-134477479D01*
X110764040Y-134911521D01*
X111025050Y-135302149D01*
X111357251Y-135634350D01*
X111747879Y-135895360D01*
X112181921Y-136075146D01*
X112642698Y-136166800D01*
X113112502Y-136166800D01*
X113573279Y-136075146D01*
X114007321Y-135895360D01*
X114397949Y-135634350D01*
X114730150Y-135302149D01*
X114991160Y-134911521D01*
X115170946Y-134477479D01*
X115262600Y-134016702D01*
X115262600Y-133546898D01*
X115170946Y-133086121D01*
X114991160Y-132652079D01*
X114774415Y-132327698D01*
X122710000Y-132327698D01*
X122710000Y-132797502D01*
X122801654Y-133258279D01*
X122981440Y-133692321D01*
X123242450Y-134082949D01*
X123574651Y-134415150D01*
X123965279Y-134676160D01*
X124399321Y-134855946D01*
X124860098Y-134947600D01*
X125329902Y-134947600D01*
X125790679Y-134855946D01*
X126224721Y-134676160D01*
X126615349Y-134415150D01*
X126947550Y-134082949D01*
X127208560Y-133692321D01*
X127268796Y-133546898D01*
X131092000Y-133546898D01*
X131092000Y-134016702D01*
X131183654Y-134477479D01*
X131363440Y-134911521D01*
X131624450Y-135302149D01*
X131956651Y-135634350D01*
X132347279Y-135895360D01*
X132781321Y-136075146D01*
X133242098Y-136166800D01*
X133711902Y-136166800D01*
X134172679Y-136075146D01*
X134606721Y-135895360D01*
X134997349Y-135634350D01*
X135329550Y-135302149D01*
X135590560Y-134911521D01*
X135770346Y-134477479D01*
X135862000Y-134016702D01*
X135862000Y-133546898D01*
X135770346Y-133086121D01*
X135590560Y-132652079D01*
X135329550Y-132261451D01*
X134997349Y-131929250D01*
X134606721Y-131668240D01*
X134172679Y-131488454D01*
X133711902Y-131396800D01*
X133242098Y-131396800D01*
X132781321Y-131488454D01*
X132347279Y-131668240D01*
X131956651Y-131929250D01*
X131624450Y-132261451D01*
X131363440Y-132652079D01*
X131183654Y-133086121D01*
X131092000Y-133546898D01*
X127268796Y-133546898D01*
X127388346Y-133258279D01*
X127480000Y-132797502D01*
X127480000Y-132327698D01*
X127388346Y-131866921D01*
X127208560Y-131432879D01*
X126947550Y-131042251D01*
X126615349Y-130710050D01*
X126224721Y-130449040D01*
X125790679Y-130269254D01*
X125329902Y-130177600D01*
X124860098Y-130177600D01*
X124399321Y-130269254D01*
X123965279Y-130449040D01*
X123574651Y-130710050D01*
X123242450Y-131042251D01*
X122981440Y-131432879D01*
X122801654Y-131866921D01*
X122710000Y-132327698D01*
X114774415Y-132327698D01*
X114730150Y-132261451D01*
X114397949Y-131929250D01*
X114007321Y-131668240D01*
X113573279Y-131488454D01*
X113112502Y-131396800D01*
X112642698Y-131396800D01*
X112181921Y-131488454D01*
X111747879Y-131668240D01*
X111357251Y-131929250D01*
X111025050Y-132261451D01*
X110764040Y-132652079D01*
X110584254Y-133086121D01*
X110492600Y-133546898D01*
X106669396Y-133546898D01*
X106788946Y-133258279D01*
X106880600Y-132797502D01*
X106880600Y-132327698D01*
X106788946Y-131866921D01*
X106609160Y-131432879D01*
X106348150Y-131042251D01*
X106015949Y-130710050D01*
X105625321Y-130449040D01*
X105191279Y-130269254D01*
X104730502Y-130177600D01*
X104260698Y-130177600D01*
X103799921Y-130269254D01*
X103365879Y-130449040D01*
X102975251Y-130710050D01*
X102643050Y-131042251D01*
X102382040Y-131432879D01*
X102202254Y-131866921D01*
X102110600Y-132327698D01*
X94200415Y-132327698D01*
X94156150Y-132261451D01*
X93823949Y-131929250D01*
X93433321Y-131668240D01*
X92999279Y-131488454D01*
X92538502Y-131396800D01*
X92068698Y-131396800D01*
X91607921Y-131488454D01*
X91173879Y-131668240D01*
X90783251Y-131929250D01*
X90451050Y-132261451D01*
X90190040Y-132652079D01*
X90010254Y-133086121D01*
X89918600Y-133546898D01*
X86095396Y-133546898D01*
X86214946Y-133258279D01*
X86306600Y-132797502D01*
X86306600Y-132327698D01*
X86214946Y-131866921D01*
X86035160Y-131432879D01*
X85774150Y-131042251D01*
X85441949Y-130710050D01*
X85051321Y-130449040D01*
X84617279Y-130269254D01*
X84156502Y-130177600D01*
X83686698Y-130177600D01*
X83225921Y-130269254D01*
X82791879Y-130449040D01*
X82401251Y-130710050D01*
X82069050Y-131042251D01*
X81808040Y-131432879D01*
X81628254Y-131866921D01*
X81536600Y-132327698D01*
X73651815Y-132327698D01*
X73607550Y-132261451D01*
X73275349Y-131929250D01*
X72884721Y-131668240D01*
X72450679Y-131488454D01*
X71989902Y-131396800D01*
X71520098Y-131396800D01*
X71059321Y-131488454D01*
X70625279Y-131668240D01*
X70234651Y-131929250D01*
X69902450Y-132261451D01*
X69641440Y-132652079D01*
X69461654Y-133086121D01*
X69370000Y-133546898D01*
X65546796Y-133546898D01*
X65666346Y-133258279D01*
X65758000Y-132797502D01*
X65758000Y-132327698D01*
X65666346Y-131866921D01*
X65486560Y-131432879D01*
X65225550Y-131042251D01*
X64893349Y-130710050D01*
X64502721Y-130449040D01*
X64068679Y-130269254D01*
X63607902Y-130177600D01*
X63138098Y-130177600D01*
X62677321Y-130269254D01*
X62243279Y-130449040D01*
X61852651Y-130710050D01*
X61520450Y-131042251D01*
X61259440Y-131432879D01*
X61079654Y-131866921D01*
X60988000Y-132327698D01*
X42824000Y-132327698D01*
X42824000Y-129378967D01*
X48339500Y-129378967D01*
X48339500Y-129701033D01*
X48402332Y-130016912D01*
X48525582Y-130314463D01*
X48704513Y-130582252D01*
X48932248Y-130809987D01*
X49200037Y-130988918D01*
X49497588Y-131112168D01*
X49813467Y-131175000D01*
X50135533Y-131175000D01*
X50451412Y-131112168D01*
X50748963Y-130988918D01*
X51016752Y-130809987D01*
X51244487Y-130582252D01*
X51423418Y-130314463D01*
X51546668Y-130016912D01*
X51609500Y-129701033D01*
X51609500Y-129378967D01*
X51546668Y-129063088D01*
X51423418Y-128765537D01*
X51244487Y-128497748D01*
X51016752Y-128270013D01*
X50748963Y-128091082D01*
X50451412Y-127967832D01*
X50135533Y-127905000D01*
X49813467Y-127905000D01*
X49497588Y-127967832D01*
X49200037Y-128091082D01*
X48932248Y-128270013D01*
X48704513Y-128497748D01*
X48525582Y-128765537D01*
X48402332Y-129063088D01*
X48339500Y-129378967D01*
X42824000Y-129378967D01*
X42824000Y-127170721D01*
X54189500Y-127170721D01*
X54189500Y-127591279D01*
X54271547Y-128003756D01*
X54432488Y-128392302D01*
X54666137Y-128741983D01*
X54963517Y-129039363D01*
X55313198Y-129273012D01*
X55701744Y-129433953D01*
X56114221Y-129516000D01*
X56534779Y-129516000D01*
X56947256Y-129433953D01*
X57335802Y-129273012D01*
X57381908Y-129242205D01*
X57364500Y-129329721D01*
X57364500Y-129750279D01*
X57446547Y-130162756D01*
X57607488Y-130551302D01*
X57841137Y-130900983D01*
X58138517Y-131198363D01*
X58488198Y-131432012D01*
X58876744Y-131592953D01*
X59289221Y-131675000D01*
X59709779Y-131675000D01*
X60122256Y-131592953D01*
X60510802Y-131432012D01*
X60860483Y-131198363D01*
X61157863Y-130900983D01*
X61391512Y-130551302D01*
X61552453Y-130162756D01*
X61634500Y-129750279D01*
X61634500Y-129329721D01*
X61552453Y-128917244D01*
X61391512Y-128528698D01*
X61157863Y-128179017D01*
X60860483Y-127881637D01*
X60510802Y-127647988D01*
X60432949Y-127615740D01*
X92114000Y-127615740D01*
X92114000Y-127908260D01*
X92171068Y-128195158D01*
X92283010Y-128465411D01*
X92445525Y-128708632D01*
X92652368Y-128915475D01*
X92895589Y-129077990D01*
X93165842Y-129189932D01*
X93452740Y-129247000D01*
X93745260Y-129247000D01*
X94032158Y-129189932D01*
X94302411Y-129077990D01*
X94545632Y-128915475D01*
X94752475Y-128708632D01*
X94869000Y-128534240D01*
X94985525Y-128708632D01*
X95192368Y-128915475D01*
X95435589Y-129077990D01*
X95705842Y-129189932D01*
X95992740Y-129247000D01*
X96285260Y-129247000D01*
X96572158Y-129189932D01*
X96842411Y-129077990D01*
X97085632Y-128915475D01*
X97292475Y-128708632D01*
X97454990Y-128465411D01*
X97566932Y-128195158D01*
X97624000Y-127908260D01*
X97624000Y-127615740D01*
X97566932Y-127328842D01*
X97454990Y-127058589D01*
X97292475Y-126815368D01*
X97085632Y-126608525D01*
X96842411Y-126446010D01*
X96572158Y-126334068D01*
X96285260Y-126277000D01*
X95992740Y-126277000D01*
X95705842Y-126334068D01*
X95435589Y-126446010D01*
X95192368Y-126608525D01*
X94985525Y-126815368D01*
X94869000Y-126989760D01*
X94752475Y-126815368D01*
X94545632Y-126608525D01*
X94302411Y-126446010D01*
X94032158Y-126334068D01*
X93745260Y-126277000D01*
X93452740Y-126277000D01*
X93165842Y-126334068D01*
X92895589Y-126446010D01*
X92652368Y-126608525D01*
X92445525Y-126815368D01*
X92283010Y-127058589D01*
X92171068Y-127328842D01*
X92114000Y-127615740D01*
X60432949Y-127615740D01*
X60122256Y-127487047D01*
X59709779Y-127405000D01*
X59289221Y-127405000D01*
X58876744Y-127487047D01*
X58488198Y-127647988D01*
X58442092Y-127678795D01*
X58459500Y-127591279D01*
X58459500Y-127170721D01*
X58377453Y-126758244D01*
X58216512Y-126369698D01*
X57982863Y-126020017D01*
X57685483Y-125722637D01*
X57335802Y-125488988D01*
X56947256Y-125328047D01*
X56534779Y-125246000D01*
X56114221Y-125246000D01*
X55701744Y-125328047D01*
X55313198Y-125488988D01*
X54963517Y-125722637D01*
X54666137Y-126020017D01*
X54432488Y-126369698D01*
X54271547Y-126758244D01*
X54189500Y-127170721D01*
X42824000Y-127170721D01*
X42824000Y-124232297D01*
X93263000Y-124232297D01*
X93263000Y-124401703D01*
X93296049Y-124567853D01*
X93360878Y-124724363D01*
X93454995Y-124865218D01*
X93574782Y-124985005D01*
X93715637Y-125079122D01*
X93872147Y-125143951D01*
X94038297Y-125177000D01*
X94207703Y-125177000D01*
X94333388Y-125152000D01*
X101619133Y-125152000D01*
X102760581Y-126293449D01*
X102664820Y-126322498D01*
X102554506Y-126381463D01*
X102457815Y-126460815D01*
X102378463Y-126557506D01*
X102319498Y-126667820D01*
X102297487Y-126740380D01*
X102165632Y-126608525D01*
X101922411Y-126446010D01*
X101652158Y-126334068D01*
X101365260Y-126277000D01*
X101072740Y-126277000D01*
X100785842Y-126334068D01*
X100515589Y-126446010D01*
X100272368Y-126608525D01*
X100065525Y-126815368D01*
X99903010Y-127058589D01*
X99791068Y-127328842D01*
X99734000Y-127615740D01*
X99734000Y-127908260D01*
X99791068Y-128195158D01*
X99903010Y-128465411D01*
X100065525Y-128708632D01*
X100272368Y-128915475D01*
X100515589Y-129077990D01*
X100785842Y-129189932D01*
X101072740Y-129247000D01*
X101365260Y-129247000D01*
X101652158Y-129189932D01*
X101922411Y-129077990D01*
X102165632Y-128915475D01*
X102297487Y-128783620D01*
X102319498Y-128856180D01*
X102378463Y-128966494D01*
X102457815Y-129063185D01*
X102554506Y-129142537D01*
X102664820Y-129201502D01*
X102784518Y-129237812D01*
X102909000Y-129250072D01*
X104609000Y-129250072D01*
X104733482Y-129237812D01*
X104853180Y-129201502D01*
X104963494Y-129142537D01*
X105060185Y-129063185D01*
X105139537Y-128966494D01*
X105198502Y-128856180D01*
X105234812Y-128736482D01*
X105247072Y-128612000D01*
X105247072Y-126912000D01*
X105234812Y-126787518D01*
X105198502Y-126667820D01*
X105139537Y-126557506D01*
X105060185Y-126460815D01*
X104963494Y-126381463D01*
X104853180Y-126322498D01*
X104733482Y-126286188D01*
X104609000Y-126273928D01*
X104594000Y-126273928D01*
X104594000Y-126152018D01*
X104598040Y-126110999D01*
X104581918Y-125947311D01*
X104534172Y-125789913D01*
X104456636Y-125644854D01*
X104352291Y-125517709D01*
X104320428Y-125491560D01*
X102584446Y-123755579D01*
X102558291Y-123723709D01*
X102431146Y-123619364D01*
X102286087Y-123541828D01*
X102204240Y-123517000D01*
X104056592Y-123517000D01*
X104182297Y-123542004D01*
X104351703Y-123542004D01*
X104517853Y-123508955D01*
X104674363Y-123444126D01*
X104815218Y-123350009D01*
X104935005Y-123230222D01*
X105029122Y-123089367D01*
X105093951Y-122932857D01*
X105127000Y-122766707D01*
X105127000Y-122597301D01*
X105093951Y-122431151D01*
X105029122Y-122274641D01*
X104935005Y-122133786D01*
X104815218Y-122013999D01*
X104674363Y-121919882D01*
X104517853Y-121855053D01*
X104351703Y-121822004D01*
X104182297Y-121822004D01*
X104056633Y-121847000D01*
X101302388Y-121847000D01*
X101176703Y-121822000D01*
X101007297Y-121822000D01*
X100841147Y-121855049D01*
X100684637Y-121919878D01*
X100543782Y-122013995D01*
X100423995Y-122133782D01*
X100329878Y-122274637D01*
X100265049Y-122431147D01*
X100232000Y-122597297D01*
X100232000Y-122766703D01*
X100265049Y-122932853D01*
X100329878Y-123089363D01*
X100423995Y-123230218D01*
X100543782Y-123350005D01*
X100684637Y-123444122D01*
X100776082Y-123482000D01*
X94333388Y-123482000D01*
X94207703Y-123457000D01*
X94038297Y-123457000D01*
X93872147Y-123490049D01*
X93715637Y-123554878D01*
X93574782Y-123648995D01*
X93454995Y-123768782D01*
X93360878Y-123909637D01*
X93296049Y-124066147D01*
X93263000Y-124232297D01*
X42824000Y-124232297D01*
X42824000Y-117948967D01*
X48339500Y-117948967D01*
X48339500Y-118271033D01*
X48402332Y-118586912D01*
X48525582Y-118884463D01*
X48704513Y-119152252D01*
X48932248Y-119379987D01*
X49200037Y-119558918D01*
X49497588Y-119682168D01*
X49813467Y-119745000D01*
X50135533Y-119745000D01*
X50451412Y-119682168D01*
X50748963Y-119558918D01*
X51016752Y-119379987D01*
X51244487Y-119152252D01*
X51423418Y-118884463D01*
X51546668Y-118586912D01*
X51609500Y-118271033D01*
X51609500Y-117948967D01*
X51546668Y-117633088D01*
X51423418Y-117335537D01*
X51244487Y-117067748D01*
X51016752Y-116840013D01*
X50748963Y-116661082D01*
X50451412Y-116537832D01*
X50135533Y-116475000D01*
X49813467Y-116475000D01*
X49497588Y-116537832D01*
X49200037Y-116661082D01*
X48932248Y-116840013D01*
X48704513Y-117067748D01*
X48525582Y-117335537D01*
X48402332Y-117633088D01*
X48339500Y-117948967D01*
X42824000Y-117948967D01*
X42824000Y-116247297D01*
X77626000Y-116247297D01*
X77626000Y-116416703D01*
X77651000Y-116542388D01*
X77651001Y-118153604D01*
X77626000Y-118279293D01*
X77626000Y-118448699D01*
X77659049Y-118614849D01*
X77723878Y-118771359D01*
X77817995Y-118912214D01*
X77937782Y-119032001D01*
X78078637Y-119126118D01*
X78235147Y-119190947D01*
X78401297Y-119223996D01*
X78570703Y-119223996D01*
X78736853Y-119190947D01*
X78893363Y-119126118D01*
X79034218Y-119032001D01*
X79120996Y-118945223D01*
X79207778Y-119032005D01*
X79348633Y-119126122D01*
X79505143Y-119190951D01*
X79671293Y-119224000D01*
X79840699Y-119224000D01*
X80006849Y-119190951D01*
X80163359Y-119126122D01*
X80191001Y-119107652D01*
X80191001Y-119931608D01*
X80166000Y-120057297D01*
X80166000Y-120226703D01*
X80199049Y-120392853D01*
X80263878Y-120549363D01*
X80357995Y-120690218D01*
X80477782Y-120810005D01*
X80618637Y-120904122D01*
X80775147Y-120968951D01*
X80941297Y-121002000D01*
X81110703Y-121002000D01*
X81276853Y-120968951D01*
X81433363Y-120904122D01*
X81574218Y-120810005D01*
X81694005Y-120690218D01*
X81788122Y-120549363D01*
X81852951Y-120392853D01*
X81886000Y-120226703D01*
X81886000Y-120057297D01*
X81861000Y-119931612D01*
X81861000Y-119549297D01*
X106074000Y-119549297D01*
X106074000Y-119718703D01*
X106099001Y-119844392D01*
X106099000Y-121963612D01*
X106074000Y-122089297D01*
X106074000Y-122258703D01*
X106107049Y-122424853D01*
X106171878Y-122581363D01*
X106265995Y-122722218D01*
X106385782Y-122842005D01*
X106526637Y-122936122D01*
X106683147Y-123000951D01*
X106849297Y-123034000D01*
X107018703Y-123034000D01*
X107184853Y-123000951D01*
X107341363Y-122936122D01*
X107482218Y-122842005D01*
X107602005Y-122722218D01*
X107696122Y-122581363D01*
X107760951Y-122424853D01*
X107794000Y-122258703D01*
X107794000Y-122089297D01*
X107769000Y-121963612D01*
X107769000Y-120311297D01*
X124743000Y-120311297D01*
X124743000Y-120480703D01*
X124768000Y-120606388D01*
X124768001Y-121963608D01*
X124743000Y-122089297D01*
X124743000Y-122258703D01*
X124776049Y-122424853D01*
X124840878Y-122581363D01*
X124934995Y-122722218D01*
X125054782Y-122842005D01*
X125195637Y-122936122D01*
X125352147Y-123000951D01*
X125518297Y-123034000D01*
X125687703Y-123034000D01*
X125853853Y-123000951D01*
X126010363Y-122936122D01*
X126151218Y-122842005D01*
X126271005Y-122722218D01*
X126365122Y-122581363D01*
X126429951Y-122424853D01*
X126463000Y-122258703D01*
X126463000Y-122089297D01*
X126438000Y-121963612D01*
X126438000Y-120606388D01*
X126463000Y-120480703D01*
X126463000Y-120311297D01*
X126429951Y-120145147D01*
X126365122Y-119988637D01*
X126271005Y-119847782D01*
X126151218Y-119727995D01*
X126010363Y-119633878D01*
X125853853Y-119569049D01*
X125687703Y-119536000D01*
X125518297Y-119536000D01*
X125352147Y-119569049D01*
X125195637Y-119633878D01*
X125054782Y-119727995D01*
X124934995Y-119847782D01*
X124840878Y-119988637D01*
X124776049Y-120145147D01*
X124743000Y-120311297D01*
X107769000Y-120311297D01*
X107769000Y-119844388D01*
X107794000Y-119718703D01*
X107794000Y-119549297D01*
X107760951Y-119383147D01*
X107696122Y-119226637D01*
X107602005Y-119085782D01*
X107482218Y-118965995D01*
X107341363Y-118871878D01*
X107184853Y-118807049D01*
X107018703Y-118774000D01*
X106849297Y-118774000D01*
X106683147Y-118807049D01*
X106526637Y-118871878D01*
X106385782Y-118965995D01*
X106265995Y-119085782D01*
X106171878Y-119226637D01*
X106107049Y-119383147D01*
X106074000Y-119549297D01*
X81861000Y-119549297D01*
X81861000Y-116542388D01*
X81886000Y-116416703D01*
X81886000Y-116247297D01*
X81852951Y-116081147D01*
X81788122Y-115924637D01*
X81694005Y-115783782D01*
X81574218Y-115663995D01*
X81433363Y-115569878D01*
X81276853Y-115505049D01*
X81177553Y-115485297D01*
X93755000Y-115485297D01*
X93755000Y-115654703D01*
X93788049Y-115820853D01*
X93852878Y-115977363D01*
X93946995Y-116118218D01*
X94066782Y-116238005D01*
X94207637Y-116332122D01*
X94364147Y-116396951D01*
X94530297Y-116430000D01*
X94699703Y-116430000D01*
X94825388Y-116405000D01*
X105961608Y-116405000D01*
X106087293Y-116430000D01*
X106256699Y-116430000D01*
X106422849Y-116396951D01*
X106579359Y-116332122D01*
X106720214Y-116238005D01*
X106840001Y-116118218D01*
X106934118Y-115977363D01*
X106998947Y-115820853D01*
X107031996Y-115654703D01*
X107031996Y-115485297D01*
X106998947Y-115319147D01*
X106934118Y-115162637D01*
X106840001Y-115021782D01*
X106720214Y-114901995D01*
X106579359Y-114807878D01*
X106422849Y-114743049D01*
X106256699Y-114710000D01*
X106087293Y-114710000D01*
X105961608Y-114735000D01*
X94825388Y-114735000D01*
X94699703Y-114710000D01*
X94530297Y-114710000D01*
X94364147Y-114743049D01*
X94207637Y-114807878D01*
X94066782Y-114901995D01*
X93946995Y-115021782D01*
X93852878Y-115162637D01*
X93788049Y-115319147D01*
X93755000Y-115485297D01*
X81177553Y-115485297D01*
X81110703Y-115472000D01*
X80941297Y-115472000D01*
X80775147Y-115505049D01*
X80618637Y-115569878D01*
X80477782Y-115663995D01*
X80390999Y-115750778D01*
X80304218Y-115663997D01*
X80163363Y-115569880D01*
X80006853Y-115505051D01*
X79840703Y-115472002D01*
X79671297Y-115472002D01*
X79505147Y-115505051D01*
X79348637Y-115569880D01*
X79207782Y-115663997D01*
X79121001Y-115750778D01*
X79034218Y-115663995D01*
X78893363Y-115569878D01*
X78736853Y-115505049D01*
X78570703Y-115472000D01*
X78401297Y-115472000D01*
X78235147Y-115505049D01*
X78078637Y-115569878D01*
X77937782Y-115663995D01*
X77817995Y-115783782D01*
X77723878Y-115924637D01*
X77659049Y-116081147D01*
X77626000Y-116247297D01*
X42824000Y-116247297D01*
X42824000Y-113453297D01*
X61624000Y-113453297D01*
X61624000Y-113622703D01*
X61657049Y-113788853D01*
X61721878Y-113945363D01*
X61815995Y-114086218D01*
X61935782Y-114206005D01*
X62076637Y-114300122D01*
X62233147Y-114364951D01*
X62399297Y-114398000D01*
X62568703Y-114398000D01*
X62694388Y-114373000D01*
X64305612Y-114373000D01*
X64431297Y-114398000D01*
X64600703Y-114398000D01*
X64766853Y-114364951D01*
X64923363Y-114300122D01*
X65064218Y-114206005D01*
X65184005Y-114086218D01*
X65278122Y-113945363D01*
X65342951Y-113788853D01*
X65376000Y-113622703D01*
X65376000Y-113453297D01*
X75340000Y-113453297D01*
X75340000Y-113622703D01*
X75373049Y-113788853D01*
X75437878Y-113945363D01*
X75531995Y-114086218D01*
X75651782Y-114206005D01*
X75792637Y-114300122D01*
X75949147Y-114364951D01*
X76115297Y-114398000D01*
X76284703Y-114398000D01*
X76410388Y-114373000D01*
X82339612Y-114373000D01*
X82465297Y-114398000D01*
X82634703Y-114398000D01*
X82800853Y-114364951D01*
X82957363Y-114300122D01*
X83098218Y-114206005D01*
X83218005Y-114086218D01*
X83312122Y-113945363D01*
X83376951Y-113788853D01*
X83410000Y-113622703D01*
X83410000Y-113453297D01*
X83376951Y-113287147D01*
X83312122Y-113130637D01*
X83218005Y-112989782D01*
X83098218Y-112869995D01*
X82957363Y-112775878D01*
X82800853Y-112711049D01*
X82634703Y-112678000D01*
X82465297Y-112678000D01*
X82339612Y-112703000D01*
X76410388Y-112703000D01*
X76284703Y-112678000D01*
X76115297Y-112678000D01*
X75949147Y-112711049D01*
X75792637Y-112775878D01*
X75651782Y-112869995D01*
X75531995Y-112989782D01*
X75437878Y-113130637D01*
X75373049Y-113287147D01*
X75340000Y-113453297D01*
X65376000Y-113453297D01*
X65342951Y-113287147D01*
X65278122Y-113130637D01*
X65184005Y-112989782D01*
X65064218Y-112869995D01*
X64923363Y-112775878D01*
X64766853Y-112711049D01*
X64600703Y-112678000D01*
X64431297Y-112678000D01*
X64305612Y-112703000D01*
X62694388Y-112703000D01*
X62568703Y-112678000D01*
X62399297Y-112678000D01*
X62233147Y-112711049D01*
X62076637Y-112775878D01*
X61935782Y-112869995D01*
X61815995Y-112989782D01*
X61721878Y-113130637D01*
X61657049Y-113287147D01*
X61624000Y-113453297D01*
X42824000Y-113453297D01*
X42824000Y-95927305D01*
X58068000Y-95927305D01*
X58068000Y-96096711D01*
X58101049Y-96262861D01*
X58165878Y-96419371D01*
X58259995Y-96560226D01*
X58379782Y-96680013D01*
X58520637Y-96774130D01*
X58677147Y-96838959D01*
X58843297Y-96872008D01*
X59012703Y-96872008D01*
X59178853Y-96838959D01*
X59335363Y-96774130D01*
X59476218Y-96680013D01*
X59596005Y-96560226D01*
X59667202Y-96453673D01*
X62800427Y-93320449D01*
X62832291Y-93294299D01*
X62936636Y-93167154D01*
X63014172Y-93022095D01*
X63061918Y-92864697D01*
X63074000Y-92742027D01*
X63078040Y-92701009D01*
X63074000Y-92659990D01*
X63074000Y-89091000D01*
X69151000Y-89091000D01*
X69151001Y-97630971D01*
X69146960Y-97672000D01*
X69163082Y-97835688D01*
X69210828Y-97993086D01*
X69288364Y-98138145D01*
X69288365Y-98138146D01*
X69392710Y-98265291D01*
X69424574Y-98291441D01*
X70920000Y-99786869D01*
X70920001Y-101635130D01*
X68838334Y-103716798D01*
X68731782Y-103787995D01*
X68611995Y-103907782D01*
X68517878Y-104048637D01*
X68453049Y-104205147D01*
X68420000Y-104371297D01*
X68420000Y-104540703D01*
X68453049Y-104706853D01*
X68517878Y-104863363D01*
X68611995Y-105004218D01*
X68731782Y-105124005D01*
X68872637Y-105218122D01*
X69029147Y-105282951D01*
X69195297Y-105316000D01*
X69364703Y-105316000D01*
X69530853Y-105282951D01*
X69687363Y-105218122D01*
X69828218Y-105124005D01*
X69948005Y-105004218D01*
X70019202Y-104897666D01*
X72316432Y-102600437D01*
X72348291Y-102574291D01*
X72452636Y-102447146D01*
X72530172Y-102302087D01*
X72577918Y-102144689D01*
X72590000Y-102022019D01*
X72590000Y-102022018D01*
X72594040Y-101981000D01*
X72590000Y-101939982D01*
X72590000Y-99651388D01*
X72615000Y-99525703D01*
X72615000Y-99356297D01*
X72581951Y-99190147D01*
X72517122Y-99033637D01*
X72423005Y-98892782D01*
X72303218Y-98772995D01*
X72196671Y-98701802D01*
X70821000Y-97326133D01*
X70821000Y-89227000D01*
X82393859Y-89227000D01*
X82474297Y-89243000D01*
X82643703Y-89243000D01*
X82769388Y-89218000D01*
X89707000Y-89218000D01*
X89707001Y-97866971D01*
X89702960Y-97908000D01*
X89719082Y-98071688D01*
X89766828Y-98229086D01*
X89841954Y-98369636D01*
X89844365Y-98374146D01*
X89948710Y-98501291D01*
X89980574Y-98527441D01*
X91367000Y-99913869D01*
X91367001Y-101889131D01*
X89412335Y-103843798D01*
X89305782Y-103914995D01*
X89185995Y-104034782D01*
X89091878Y-104175637D01*
X89027049Y-104332147D01*
X88994000Y-104498297D01*
X88994000Y-104667703D01*
X89019000Y-104793388D01*
X89019001Y-107338972D01*
X89014960Y-107380000D01*
X89031082Y-107543688D01*
X89078828Y-107701086D01*
X89078829Y-107701087D01*
X89156365Y-107846146D01*
X89260710Y-107973291D01*
X89292574Y-107999441D01*
X91972563Y-110679432D01*
X91998709Y-110711291D01*
X92030568Y-110737437D01*
X92030570Y-110737439D01*
X92111569Y-110803913D01*
X92125854Y-110815636D01*
X92270913Y-110893172D01*
X92428311Y-110940918D01*
X92550981Y-110953000D01*
X92550982Y-110953000D01*
X92592000Y-110957040D01*
X92633018Y-110953000D01*
X93821229Y-110953000D01*
X93918038Y-111070962D01*
X94052613Y-111181405D01*
X94206149Y-111263472D01*
X94372745Y-111314008D01*
X94545999Y-111331072D01*
X95446001Y-111331072D01*
X95619255Y-111314008D01*
X95785851Y-111263472D01*
X95939387Y-111181405D01*
X96073962Y-111070962D01*
X96075500Y-111069088D01*
X96077038Y-111070962D01*
X96211613Y-111181405D01*
X96365149Y-111263472D01*
X96531745Y-111314008D01*
X96704999Y-111331072D01*
X97605001Y-111331072D01*
X97778255Y-111314008D01*
X97944851Y-111263472D01*
X98098387Y-111181405D01*
X98232962Y-111070962D01*
X98234500Y-111069088D01*
X98236038Y-111070962D01*
X98370613Y-111181405D01*
X98524149Y-111263472D01*
X98690745Y-111314008D01*
X98863999Y-111331072D01*
X99764001Y-111331072D01*
X99937255Y-111314008D01*
X100103851Y-111263472D01*
X100257387Y-111181405D01*
X100390000Y-111072572D01*
X100390001Y-113432774D01*
X100390000Y-113432784D01*
X100390000Y-113581612D01*
X100365000Y-113707297D01*
X100365000Y-113876703D01*
X100398049Y-114042853D01*
X100462878Y-114199363D01*
X100556995Y-114340218D01*
X100676782Y-114460005D01*
X100817637Y-114554122D01*
X100974147Y-114618951D01*
X101140297Y-114652000D01*
X101309703Y-114652000D01*
X101475853Y-114618951D01*
X101632363Y-114554122D01*
X101773218Y-114460005D01*
X101893005Y-114340218D01*
X101987122Y-114199363D01*
X102051951Y-114042853D01*
X102085000Y-113876703D01*
X102085000Y-113707297D01*
X102060000Y-113581612D01*
X102060000Y-111421297D01*
X104423000Y-111421297D01*
X104423000Y-111590703D01*
X104448000Y-111716388D01*
X104448001Y-113581608D01*
X104423000Y-113707297D01*
X104423000Y-113876703D01*
X104456049Y-114042853D01*
X104520878Y-114199363D01*
X104614995Y-114340218D01*
X104734782Y-114460005D01*
X104875637Y-114554122D01*
X105032147Y-114618951D01*
X105198297Y-114652000D01*
X105367703Y-114652000D01*
X105533853Y-114618951D01*
X105690363Y-114554122D01*
X105831218Y-114460005D01*
X105951005Y-114340218D01*
X106045122Y-114199363D01*
X106109951Y-114042853D01*
X106126173Y-113961297D01*
X111027000Y-113961297D01*
X111027000Y-114130703D01*
X111060049Y-114296853D01*
X111124878Y-114453363D01*
X111218995Y-114594218D01*
X111338782Y-114714005D01*
X111479637Y-114808122D01*
X111636147Y-114872951D01*
X111802297Y-114906000D01*
X111971703Y-114906000D01*
X112137853Y-114872951D01*
X112294363Y-114808122D01*
X112435218Y-114714005D01*
X112555005Y-114594218D01*
X112649122Y-114453363D01*
X112713951Y-114296853D01*
X112747000Y-114130703D01*
X112747000Y-113961297D01*
X112722004Y-113835633D01*
X112722004Y-112183295D01*
X118520000Y-112183295D01*
X118520000Y-112352701D01*
X118545000Y-112478386D01*
X118545001Y-114597608D01*
X118520000Y-114723297D01*
X118520000Y-114892703D01*
X118553049Y-115058853D01*
X118617878Y-115215363D01*
X118711995Y-115356218D01*
X118831782Y-115476005D01*
X118972637Y-115570122D01*
X119129147Y-115634951D01*
X119295297Y-115668000D01*
X119464703Y-115668000D01*
X119630853Y-115634951D01*
X119787363Y-115570122D01*
X119928218Y-115476005D01*
X120048005Y-115356218D01*
X120142122Y-115215363D01*
X120206951Y-115058853D01*
X120240000Y-114892703D01*
X120240000Y-114723297D01*
X120215000Y-114597612D01*
X120215000Y-112478386D01*
X120240000Y-112352701D01*
X120240000Y-112183295D01*
X120216529Y-112065297D01*
X124734000Y-112065297D01*
X124734000Y-112234703D01*
X124759000Y-112360388D01*
X124759001Y-114642854D01*
X124743000Y-114723297D01*
X124743000Y-114892703D01*
X124776049Y-115058853D01*
X124840878Y-115215363D01*
X124934995Y-115356218D01*
X125054782Y-115476005D01*
X125195637Y-115570122D01*
X125352147Y-115634951D01*
X125518297Y-115668000D01*
X125687703Y-115668000D01*
X125853853Y-115634951D01*
X126010363Y-115570122D01*
X126151218Y-115476005D01*
X126271005Y-115356218D01*
X126365122Y-115215363D01*
X126429951Y-115058853D01*
X126463000Y-114892703D01*
X126463000Y-114723297D01*
X126429951Y-114557147D01*
X126429000Y-114554851D01*
X126429000Y-113961297D01*
X131220028Y-113961297D01*
X131220028Y-114130703D01*
X131253077Y-114296853D01*
X131317906Y-114453363D01*
X131412023Y-114594218D01*
X131531810Y-114714005D01*
X131672665Y-114808122D01*
X131829175Y-114872951D01*
X131995325Y-114906000D01*
X132164731Y-114906000D01*
X132330881Y-114872951D01*
X132487391Y-114808122D01*
X132628246Y-114714005D01*
X132748033Y-114594218D01*
X132813560Y-114496151D01*
X132904636Y-114385174D01*
X132982172Y-114240115D01*
X133029918Y-114082717D01*
X133042000Y-113960047D01*
X133042000Y-113960046D01*
X133046040Y-113919028D01*
X133042000Y-113878010D01*
X133042000Y-111335388D01*
X133067000Y-111209703D01*
X133067000Y-111040297D01*
X133033951Y-110874147D01*
X132969122Y-110717637D01*
X132875005Y-110576782D01*
X132755218Y-110456995D01*
X132614363Y-110362878D01*
X132457853Y-110298049D01*
X132291703Y-110265000D01*
X132122297Y-110265000D01*
X131956147Y-110298049D01*
X131799637Y-110362878D01*
X131658782Y-110456995D01*
X131538995Y-110576782D01*
X131444878Y-110717637D01*
X131380049Y-110874147D01*
X131347000Y-111040297D01*
X131347000Y-111209703D01*
X131372001Y-111335392D01*
X131372000Y-113557680D01*
X131317906Y-113638637D01*
X131253077Y-113795147D01*
X131220028Y-113961297D01*
X126429000Y-113961297D01*
X126429000Y-112360388D01*
X126454000Y-112234703D01*
X126454000Y-112065297D01*
X126420951Y-111899147D01*
X126356122Y-111742637D01*
X126262005Y-111601782D01*
X126142218Y-111481995D01*
X126001363Y-111387878D01*
X125844853Y-111323049D01*
X125678703Y-111290000D01*
X125509297Y-111290000D01*
X125343147Y-111323049D01*
X125186637Y-111387878D01*
X125045782Y-111481995D01*
X124925995Y-111601782D01*
X124831878Y-111742637D01*
X124767049Y-111899147D01*
X124734000Y-112065297D01*
X120216529Y-112065297D01*
X120206951Y-112017145D01*
X120142122Y-111860635D01*
X120048005Y-111719780D01*
X119928218Y-111599993D01*
X119787363Y-111505876D01*
X119630853Y-111441047D01*
X119464703Y-111407998D01*
X119295297Y-111407998D01*
X119129147Y-111441047D01*
X118972637Y-111505876D01*
X118831782Y-111599993D01*
X118711995Y-111719780D01*
X118617878Y-111860635D01*
X118553049Y-112017145D01*
X118520000Y-112183295D01*
X112722004Y-112183295D01*
X112722004Y-111589396D01*
X112747004Y-111463711D01*
X112747004Y-111294305D01*
X112713955Y-111128155D01*
X112649126Y-110971645D01*
X112555009Y-110830790D01*
X112435222Y-110711003D01*
X112294367Y-110616886D01*
X112137857Y-110552057D01*
X111971707Y-110519008D01*
X111802301Y-110519008D01*
X111636151Y-110552057D01*
X111479641Y-110616886D01*
X111338786Y-110711003D01*
X111218999Y-110830790D01*
X111124882Y-110971645D01*
X111060053Y-111128155D01*
X111027004Y-111294305D01*
X111027004Y-111463711D01*
X111052004Y-111589396D01*
X111052005Y-113835588D01*
X111027000Y-113961297D01*
X106126173Y-113961297D01*
X106143000Y-113876703D01*
X106143000Y-113707297D01*
X106118000Y-113581612D01*
X106118000Y-111716388D01*
X106143000Y-111590703D01*
X106143000Y-111421297D01*
X106109951Y-111255147D01*
X106045122Y-111098637D01*
X105951005Y-110957782D01*
X105831218Y-110837995D01*
X105690363Y-110743878D01*
X105533853Y-110679049D01*
X105367703Y-110646000D01*
X105198297Y-110646000D01*
X105032147Y-110679049D01*
X104875637Y-110743878D01*
X104734782Y-110837995D01*
X104614995Y-110957782D01*
X104520878Y-111098637D01*
X104456049Y-111255147D01*
X104423000Y-111421297D01*
X102060000Y-111421297D01*
X102060000Y-111317579D01*
X102096255Y-111314008D01*
X102262851Y-111263472D01*
X102416387Y-111181405D01*
X102550962Y-111070962D01*
X102661405Y-110936387D01*
X102743472Y-110782851D01*
X102794008Y-110616255D01*
X102811072Y-110443001D01*
X102811072Y-109792999D01*
X102794008Y-109619745D01*
X102743472Y-109453149D01*
X102661405Y-109299613D01*
X102550962Y-109165038D01*
X102416387Y-109054595D01*
X102262851Y-108972528D01*
X102096255Y-108921992D01*
X101923001Y-108904928D01*
X101022999Y-108904928D01*
X100849745Y-108921992D01*
X100683149Y-108972528D01*
X100529613Y-109054595D01*
X100395038Y-109165038D01*
X100393500Y-109166912D01*
X100391962Y-109165038D01*
X100257387Y-109054595D01*
X100103851Y-108972528D01*
X99937255Y-108921992D01*
X99764001Y-108904928D01*
X98863999Y-108904928D01*
X98690745Y-108921992D01*
X98524149Y-108972528D01*
X98370613Y-109054595D01*
X98236038Y-109165038D01*
X98234500Y-109166912D01*
X98232962Y-109165038D01*
X98098387Y-109054595D01*
X97944851Y-108972528D01*
X97778255Y-108921992D01*
X97605001Y-108904928D01*
X96704999Y-108904928D01*
X96531745Y-108921992D01*
X96365149Y-108972528D01*
X96211613Y-109054595D01*
X96077038Y-109165038D01*
X96075500Y-109166912D01*
X96073962Y-109165038D01*
X95939387Y-109054595D01*
X95785851Y-108972528D01*
X95619255Y-108921992D01*
X95446001Y-108904928D01*
X94545999Y-108904928D01*
X94372745Y-108921992D01*
X94206149Y-108972528D01*
X94052613Y-109054595D01*
X93918038Y-109165038D01*
X93821229Y-109283000D01*
X92937869Y-109283000D01*
X90689000Y-107034133D01*
X90689000Y-104928867D01*
X92763427Y-102854441D01*
X92795291Y-102828291D01*
X92899636Y-102701146D01*
X92977172Y-102556087D01*
X93024918Y-102398689D01*
X93037000Y-102276019D01*
X93037000Y-102276009D01*
X93041039Y-102235001D01*
X93037000Y-102193993D01*
X93037000Y-99778388D01*
X93062000Y-99652703D01*
X93062000Y-99483297D01*
X93028951Y-99317147D01*
X92964122Y-99160637D01*
X92870005Y-99019782D01*
X92750218Y-98899995D01*
X92643671Y-98828802D01*
X91377000Y-97562133D01*
X91377000Y-89218000D01*
X103049612Y-89218000D01*
X103175297Y-89243000D01*
X103344703Y-89243000D01*
X103470388Y-89218000D01*
X109392000Y-89218000D01*
X109392001Y-96596971D01*
X109387960Y-96638000D01*
X109404082Y-96801688D01*
X109451828Y-96959086D01*
X109515769Y-97078710D01*
X109529365Y-97104146D01*
X109633710Y-97231291D01*
X109665574Y-97257441D01*
X112195000Y-99786869D01*
X112195001Y-101635130D01*
X109986334Y-103843798D01*
X109879782Y-103914995D01*
X109759995Y-104034782D01*
X109665878Y-104175637D01*
X109601049Y-104332147D01*
X109568000Y-104498297D01*
X109568000Y-104667703D01*
X109601049Y-104833853D01*
X109665878Y-104990363D01*
X109759995Y-105131218D01*
X109879782Y-105251005D01*
X110020637Y-105345122D01*
X110177147Y-105409951D01*
X110343297Y-105443000D01*
X110512703Y-105443000D01*
X110678853Y-105409951D01*
X110835363Y-105345122D01*
X110976218Y-105251005D01*
X111096005Y-105131218D01*
X111167202Y-105024666D01*
X113591432Y-102600437D01*
X113623291Y-102574291D01*
X113727636Y-102447146D01*
X113805172Y-102302087D01*
X113852918Y-102144689D01*
X113865000Y-102022019D01*
X113865000Y-102022018D01*
X113869040Y-101981000D01*
X113865000Y-101939982D01*
X113865000Y-99651388D01*
X113890000Y-99525703D01*
X113890000Y-99356297D01*
X113856951Y-99190147D01*
X113792122Y-99033637D01*
X113698005Y-98892782D01*
X113578218Y-98772995D01*
X113471671Y-98701802D01*
X111062000Y-96292133D01*
X111062000Y-89218000D01*
X123496612Y-89218000D01*
X123622297Y-89243000D01*
X123791703Y-89243000D01*
X123917388Y-89218000D01*
X126010133Y-89218000D01*
X132388000Y-95595869D01*
X132388001Y-99230608D01*
X132363000Y-99356297D01*
X132363000Y-99525703D01*
X132388000Y-99651388D01*
X132388001Y-101886131D01*
X130430335Y-103843798D01*
X130323782Y-103914995D01*
X130203995Y-104034782D01*
X130109878Y-104175637D01*
X130045049Y-104332147D01*
X130012000Y-104498297D01*
X130012000Y-104667703D01*
X130045049Y-104833853D01*
X130109878Y-104990363D01*
X130203995Y-105131218D01*
X130323782Y-105251005D01*
X130464637Y-105345122D01*
X130621147Y-105409951D01*
X130787297Y-105443000D01*
X130956703Y-105443000D01*
X131122853Y-105409951D01*
X131279363Y-105345122D01*
X131420218Y-105251005D01*
X131540005Y-105131218D01*
X131611202Y-105024665D01*
X133784427Y-102851441D01*
X133816291Y-102825291D01*
X133920636Y-102698146D01*
X133998172Y-102553087D01*
X134045918Y-102395689D01*
X134058000Y-102273019D01*
X134062040Y-102232001D01*
X134058000Y-102190982D01*
X134058000Y-99651388D01*
X134083000Y-99525703D01*
X134083000Y-99356297D01*
X134058000Y-99230612D01*
X134058000Y-95291018D01*
X134062040Y-95250000D01*
X134045918Y-95086312D01*
X133998172Y-94928913D01*
X133920636Y-94783854D01*
X133816291Y-94656709D01*
X133784433Y-94630564D01*
X126975446Y-87821579D01*
X126949291Y-87789709D01*
X126822146Y-87685364D01*
X126677087Y-87607828D01*
X126519689Y-87560082D01*
X126397019Y-87548000D01*
X126397018Y-87548000D01*
X126356000Y-87543960D01*
X126314982Y-87548000D01*
X123917388Y-87548000D01*
X123791703Y-87523000D01*
X123622297Y-87523000D01*
X123496612Y-87548000D01*
X110268018Y-87548000D01*
X110227000Y-87543960D01*
X110185981Y-87548000D01*
X103470388Y-87548000D01*
X103344703Y-87523000D01*
X103175297Y-87523000D01*
X103049612Y-87548000D01*
X90583018Y-87548000D01*
X90542000Y-87543960D01*
X90500981Y-87548000D01*
X82769388Y-87548000D01*
X82643703Y-87523000D01*
X82474297Y-87523000D01*
X82308147Y-87556049D01*
X82305851Y-87557000D01*
X70449594Y-87557000D01*
X70307087Y-87480828D01*
X70149689Y-87433082D01*
X70027019Y-87421000D01*
X70027018Y-87421000D01*
X69986000Y-87416960D01*
X69944981Y-87421000D01*
X62449388Y-87421000D01*
X62323703Y-87396000D01*
X62154297Y-87396000D01*
X61988147Y-87429049D01*
X61831637Y-87493878D01*
X61690782Y-87587995D01*
X61570995Y-87707782D01*
X61476878Y-87848637D01*
X61412049Y-88005147D01*
X61379000Y-88171297D01*
X61379000Y-88340703D01*
X61404000Y-88466388D01*
X61404001Y-92355139D01*
X58486335Y-95272806D01*
X58379782Y-95344003D01*
X58259995Y-95463790D01*
X58165878Y-95604645D01*
X58101049Y-95761155D01*
X58068000Y-95927305D01*
X42824000Y-95927305D01*
X42824000Y-84524898D01*
X60988000Y-84524898D01*
X60988000Y-84994702D01*
X61079654Y-85455479D01*
X61259440Y-85889521D01*
X61520450Y-86280149D01*
X61852651Y-86612350D01*
X62243279Y-86873360D01*
X62677321Y-87053146D01*
X63138098Y-87144800D01*
X63607902Y-87144800D01*
X64068679Y-87053146D01*
X64502721Y-86873360D01*
X64893349Y-86612350D01*
X65225550Y-86280149D01*
X65486560Y-85889521D01*
X65666346Y-85455479D01*
X65758000Y-84994702D01*
X65758000Y-84524898D01*
X65666346Y-84064121D01*
X65486560Y-83630079D01*
X65286787Y-83331098D01*
X69344600Y-83331098D01*
X69344600Y-83800902D01*
X69436254Y-84261679D01*
X69616040Y-84695721D01*
X69877050Y-85086349D01*
X70209251Y-85418550D01*
X70599879Y-85679560D01*
X71033921Y-85859346D01*
X71494698Y-85951000D01*
X71964502Y-85951000D01*
X72425279Y-85859346D01*
X72859321Y-85679560D01*
X73249949Y-85418550D01*
X73582150Y-85086349D01*
X73843160Y-84695721D01*
X73913917Y-84524898D01*
X81536600Y-84524898D01*
X81536600Y-84994702D01*
X81628254Y-85455479D01*
X81808040Y-85889521D01*
X82069050Y-86280149D01*
X82401251Y-86612350D01*
X82791879Y-86873360D01*
X83225921Y-87053146D01*
X83686698Y-87144800D01*
X84156502Y-87144800D01*
X84617279Y-87053146D01*
X85051321Y-86873360D01*
X85441949Y-86612350D01*
X85774150Y-86280149D01*
X86035160Y-85889521D01*
X86214946Y-85455479D01*
X86306600Y-84994702D01*
X86306600Y-84524898D01*
X86214946Y-84064121D01*
X86035160Y-83630079D01*
X85835387Y-83331098D01*
X89893200Y-83331098D01*
X89893200Y-83800902D01*
X89984854Y-84261679D01*
X90164640Y-84695721D01*
X90425650Y-85086349D01*
X90757851Y-85418550D01*
X91148479Y-85679560D01*
X91582521Y-85859346D01*
X92043298Y-85951000D01*
X92513102Y-85951000D01*
X92973879Y-85859346D01*
X93407921Y-85679560D01*
X93798549Y-85418550D01*
X94130750Y-85086349D01*
X94391760Y-84695721D01*
X94462517Y-84524898D01*
X102110600Y-84524898D01*
X102110600Y-84994702D01*
X102202254Y-85455479D01*
X102382040Y-85889521D01*
X102643050Y-86280149D01*
X102975251Y-86612350D01*
X103365879Y-86873360D01*
X103799921Y-87053146D01*
X104260698Y-87144800D01*
X104730502Y-87144800D01*
X105191279Y-87053146D01*
X105625321Y-86873360D01*
X106015949Y-86612350D01*
X106348150Y-86280149D01*
X106609160Y-85889521D01*
X106788946Y-85455479D01*
X106880600Y-84994702D01*
X106880600Y-84524898D01*
X106788946Y-84064121D01*
X106609160Y-83630079D01*
X106409387Y-83331098D01*
X110467200Y-83331098D01*
X110467200Y-83800902D01*
X110558854Y-84261679D01*
X110738640Y-84695721D01*
X110999650Y-85086349D01*
X111331851Y-85418550D01*
X111722479Y-85679560D01*
X112156521Y-85859346D01*
X112617298Y-85951000D01*
X113087102Y-85951000D01*
X113547879Y-85859346D01*
X113981921Y-85679560D01*
X114372549Y-85418550D01*
X114704750Y-85086349D01*
X114965760Y-84695721D01*
X115036517Y-84524898D01*
X122710000Y-84524898D01*
X122710000Y-84994702D01*
X122801654Y-85455479D01*
X122981440Y-85889521D01*
X123242450Y-86280149D01*
X123574651Y-86612350D01*
X123965279Y-86873360D01*
X124399321Y-87053146D01*
X124860098Y-87144800D01*
X125329902Y-87144800D01*
X125790679Y-87053146D01*
X126224721Y-86873360D01*
X126615349Y-86612350D01*
X126947550Y-86280149D01*
X127208560Y-85889521D01*
X127388346Y-85455479D01*
X127480000Y-84994702D01*
X127480000Y-84524898D01*
X127388346Y-84064121D01*
X127208560Y-83630079D01*
X127008787Y-83331098D01*
X131066600Y-83331098D01*
X131066600Y-83800902D01*
X131158254Y-84261679D01*
X131338040Y-84695721D01*
X131599050Y-85086349D01*
X131931251Y-85418550D01*
X132321879Y-85679560D01*
X132755921Y-85859346D01*
X133216698Y-85951000D01*
X133686502Y-85951000D01*
X134147279Y-85859346D01*
X134581321Y-85679560D01*
X134971949Y-85418550D01*
X135304150Y-85086349D01*
X135565160Y-84695721D01*
X135744946Y-84261679D01*
X135836600Y-83800902D01*
X135836600Y-83331098D01*
X135744946Y-82870321D01*
X135565160Y-82436279D01*
X135304150Y-82045651D01*
X134971949Y-81713450D01*
X134581321Y-81452440D01*
X134147279Y-81272654D01*
X133686502Y-81181000D01*
X133216698Y-81181000D01*
X132755921Y-81272654D01*
X132321879Y-81452440D01*
X131931251Y-81713450D01*
X131599050Y-82045651D01*
X131338040Y-82436279D01*
X131158254Y-82870321D01*
X131066600Y-83331098D01*
X127008787Y-83331098D01*
X126947550Y-83239451D01*
X126615349Y-82907250D01*
X126224721Y-82646240D01*
X125790679Y-82466454D01*
X125329902Y-82374800D01*
X124860098Y-82374800D01*
X124399321Y-82466454D01*
X123965279Y-82646240D01*
X123574651Y-82907250D01*
X123242450Y-83239451D01*
X122981440Y-83630079D01*
X122801654Y-84064121D01*
X122710000Y-84524898D01*
X115036517Y-84524898D01*
X115145546Y-84261679D01*
X115237200Y-83800902D01*
X115237200Y-83331098D01*
X115145546Y-82870321D01*
X114965760Y-82436279D01*
X114704750Y-82045651D01*
X114372549Y-81713450D01*
X113981921Y-81452440D01*
X113547879Y-81272654D01*
X113087102Y-81181000D01*
X112617298Y-81181000D01*
X112156521Y-81272654D01*
X111722479Y-81452440D01*
X111331851Y-81713450D01*
X110999650Y-82045651D01*
X110738640Y-82436279D01*
X110558854Y-82870321D01*
X110467200Y-83331098D01*
X106409387Y-83331098D01*
X106348150Y-83239451D01*
X106015949Y-82907250D01*
X105625321Y-82646240D01*
X105191279Y-82466454D01*
X104730502Y-82374800D01*
X104260698Y-82374800D01*
X103799921Y-82466454D01*
X103365879Y-82646240D01*
X102975251Y-82907250D01*
X102643050Y-83239451D01*
X102382040Y-83630079D01*
X102202254Y-84064121D01*
X102110600Y-84524898D01*
X94462517Y-84524898D01*
X94571546Y-84261679D01*
X94663200Y-83800902D01*
X94663200Y-83331098D01*
X94571546Y-82870321D01*
X94391760Y-82436279D01*
X94130750Y-82045651D01*
X93798549Y-81713450D01*
X93407921Y-81452440D01*
X92973879Y-81272654D01*
X92513102Y-81181000D01*
X92043298Y-81181000D01*
X91582521Y-81272654D01*
X91148479Y-81452440D01*
X90757851Y-81713450D01*
X90425650Y-82045651D01*
X90164640Y-82436279D01*
X89984854Y-82870321D01*
X89893200Y-83331098D01*
X85835387Y-83331098D01*
X85774150Y-83239451D01*
X85441949Y-82907250D01*
X85051321Y-82646240D01*
X84617279Y-82466454D01*
X84156502Y-82374800D01*
X83686698Y-82374800D01*
X83225921Y-82466454D01*
X82791879Y-82646240D01*
X82401251Y-82907250D01*
X82069050Y-83239451D01*
X81808040Y-83630079D01*
X81628254Y-84064121D01*
X81536600Y-84524898D01*
X73913917Y-84524898D01*
X74022946Y-84261679D01*
X74114600Y-83800902D01*
X74114600Y-83331098D01*
X74022946Y-82870321D01*
X73843160Y-82436279D01*
X73582150Y-82045651D01*
X73249949Y-81713450D01*
X72859321Y-81452440D01*
X72425279Y-81272654D01*
X71964502Y-81181000D01*
X71494698Y-81181000D01*
X71033921Y-81272654D01*
X70599879Y-81452440D01*
X70209251Y-81713450D01*
X69877050Y-82045651D01*
X69616040Y-82436279D01*
X69436254Y-82870321D01*
X69344600Y-83331098D01*
X65286787Y-83331098D01*
X65225550Y-83239451D01*
X64893349Y-82907250D01*
X64502721Y-82646240D01*
X64068679Y-82466454D01*
X63607902Y-82374800D01*
X63138098Y-82374800D01*
X62677321Y-82466454D01*
X62243279Y-82646240D01*
X61852651Y-82907250D01*
X61520450Y-83239451D01*
X61259440Y-83630079D01*
X61079654Y-84064121D01*
X60988000Y-84524898D01*
X42824000Y-84524898D01*
X42824000Y-79240144D01*
X63926400Y-79240144D01*
X63926400Y-79611456D01*
X63998839Y-79975634D01*
X64140934Y-80318682D01*
X64347225Y-80627418D01*
X64609782Y-80889975D01*
X64918518Y-81096266D01*
X65261566Y-81238361D01*
X65625744Y-81310800D01*
X65997056Y-81310800D01*
X66361234Y-81238361D01*
X66704282Y-81096266D01*
X67013018Y-80889975D01*
X67275575Y-80627418D01*
X67481866Y-80318682D01*
X67564000Y-80120393D01*
X67646134Y-80318682D01*
X67852425Y-80627418D01*
X68114982Y-80889975D01*
X68423718Y-81096266D01*
X68766766Y-81238361D01*
X69130944Y-81310800D01*
X69502256Y-81310800D01*
X69866434Y-81238361D01*
X70209482Y-81096266D01*
X70518218Y-80889975D01*
X70780775Y-80627418D01*
X70987066Y-80318682D01*
X71129161Y-79975634D01*
X71201600Y-79611456D01*
X71201600Y-79240144D01*
X84475000Y-79240144D01*
X84475000Y-79611456D01*
X84547439Y-79975634D01*
X84689534Y-80318682D01*
X84895825Y-80627418D01*
X85158382Y-80889975D01*
X85467118Y-81096266D01*
X85810166Y-81238361D01*
X86174344Y-81310800D01*
X86545656Y-81310800D01*
X86909834Y-81238361D01*
X87252882Y-81096266D01*
X87561618Y-80889975D01*
X87824175Y-80627418D01*
X88030466Y-80318682D01*
X88112600Y-80120393D01*
X88194734Y-80318682D01*
X88401025Y-80627418D01*
X88663582Y-80889975D01*
X88972318Y-81096266D01*
X89315366Y-81238361D01*
X89679544Y-81310800D01*
X90050856Y-81310800D01*
X90415034Y-81238361D01*
X90758082Y-81096266D01*
X91066818Y-80889975D01*
X91329375Y-80627418D01*
X91535666Y-80318682D01*
X91677761Y-79975634D01*
X91750200Y-79611456D01*
X91750200Y-79240144D01*
X105049000Y-79240144D01*
X105049000Y-79611456D01*
X105121439Y-79975634D01*
X105263534Y-80318682D01*
X105469825Y-80627418D01*
X105732382Y-80889975D01*
X106041118Y-81096266D01*
X106384166Y-81238361D01*
X106748344Y-81310800D01*
X107119656Y-81310800D01*
X107483834Y-81238361D01*
X107826882Y-81096266D01*
X108135618Y-80889975D01*
X108398175Y-80627418D01*
X108604466Y-80318682D01*
X108686600Y-80120393D01*
X108768734Y-80318682D01*
X108975025Y-80627418D01*
X109237582Y-80889975D01*
X109546318Y-81096266D01*
X109889366Y-81238361D01*
X110253544Y-81310800D01*
X110624856Y-81310800D01*
X110989034Y-81238361D01*
X111332082Y-81096266D01*
X111640818Y-80889975D01*
X111903375Y-80627418D01*
X112109666Y-80318682D01*
X112251761Y-79975634D01*
X112324200Y-79611456D01*
X112324200Y-79240144D01*
X125648400Y-79240144D01*
X125648400Y-79611456D01*
X125720839Y-79975634D01*
X125862934Y-80318682D01*
X126069225Y-80627418D01*
X126331782Y-80889975D01*
X126640518Y-81096266D01*
X126983566Y-81238361D01*
X127347744Y-81310800D01*
X127719056Y-81310800D01*
X128083234Y-81238361D01*
X128426282Y-81096266D01*
X128735018Y-80889975D01*
X128997575Y-80627418D01*
X129203866Y-80318682D01*
X129286000Y-80120393D01*
X129368134Y-80318682D01*
X129574425Y-80627418D01*
X129836982Y-80889975D01*
X130145718Y-81096266D01*
X130488766Y-81238361D01*
X130852944Y-81310800D01*
X131224256Y-81310800D01*
X131588434Y-81238361D01*
X131931482Y-81096266D01*
X132240218Y-80889975D01*
X132502775Y-80627418D01*
X132709066Y-80318682D01*
X132851161Y-79975634D01*
X132923600Y-79611456D01*
X132923600Y-79240144D01*
X132851161Y-78875966D01*
X132709066Y-78532918D01*
X132502775Y-78224182D01*
X132240218Y-77961625D01*
X131931482Y-77755334D01*
X131588434Y-77613239D01*
X131224256Y-77540800D01*
X130852944Y-77540800D01*
X130488766Y-77613239D01*
X130145718Y-77755334D01*
X129836982Y-77961625D01*
X129574425Y-78224182D01*
X129368134Y-78532918D01*
X129286000Y-78731207D01*
X129203866Y-78532918D01*
X128997575Y-78224182D01*
X128735018Y-77961625D01*
X128426282Y-77755334D01*
X128083234Y-77613239D01*
X127719056Y-77540800D01*
X127347744Y-77540800D01*
X126983566Y-77613239D01*
X126640518Y-77755334D01*
X126331782Y-77961625D01*
X126069225Y-78224182D01*
X125862934Y-78532918D01*
X125720839Y-78875966D01*
X125648400Y-79240144D01*
X112324200Y-79240144D01*
X112251761Y-78875966D01*
X112109666Y-78532918D01*
X111903375Y-78224182D01*
X111640818Y-77961625D01*
X111332082Y-77755334D01*
X110989034Y-77613239D01*
X110624856Y-77540800D01*
X110253544Y-77540800D01*
X109889366Y-77613239D01*
X109546318Y-77755334D01*
X109237582Y-77961625D01*
X108975025Y-78224182D01*
X108768734Y-78532918D01*
X108686600Y-78731207D01*
X108604466Y-78532918D01*
X108398175Y-78224182D01*
X108135618Y-77961625D01*
X107826882Y-77755334D01*
X107483834Y-77613239D01*
X107119656Y-77540800D01*
X106748344Y-77540800D01*
X106384166Y-77613239D01*
X106041118Y-77755334D01*
X105732382Y-77961625D01*
X105469825Y-78224182D01*
X105263534Y-78532918D01*
X105121439Y-78875966D01*
X105049000Y-79240144D01*
X91750200Y-79240144D01*
X91677761Y-78875966D01*
X91535666Y-78532918D01*
X91329375Y-78224182D01*
X91066818Y-77961625D01*
X90758082Y-77755334D01*
X90415034Y-77613239D01*
X90050856Y-77540800D01*
X89679544Y-77540800D01*
X89315366Y-77613239D01*
X88972318Y-77755334D01*
X88663582Y-77961625D01*
X88401025Y-78224182D01*
X88194734Y-78532918D01*
X88112600Y-78731207D01*
X88030466Y-78532918D01*
X87824175Y-78224182D01*
X87561618Y-77961625D01*
X87252882Y-77755334D01*
X86909834Y-77613239D01*
X86545656Y-77540800D01*
X86174344Y-77540800D01*
X85810166Y-77613239D01*
X85467118Y-77755334D01*
X85158382Y-77961625D01*
X84895825Y-78224182D01*
X84689534Y-78532918D01*
X84547439Y-78875966D01*
X84475000Y-79240144D01*
X71201600Y-79240144D01*
X71129161Y-78875966D01*
X70987066Y-78532918D01*
X70780775Y-78224182D01*
X70518218Y-77961625D01*
X70209482Y-77755334D01*
X69866434Y-77613239D01*
X69502256Y-77540800D01*
X69130944Y-77540800D01*
X68766766Y-77613239D01*
X68423718Y-77755334D01*
X68114982Y-77961625D01*
X67852425Y-78224182D01*
X67646134Y-78532918D01*
X67564000Y-78731207D01*
X67481866Y-78532918D01*
X67275575Y-78224182D01*
X67013018Y-77961625D01*
X66704282Y-77755334D01*
X66361234Y-77613239D01*
X65997056Y-77540800D01*
X65625744Y-77540800D01*
X65261566Y-77613239D01*
X64918518Y-77755334D01*
X64609782Y-77961625D01*
X64347225Y-78224182D01*
X64140934Y-78532918D01*
X63998839Y-78875966D01*
X63926400Y-79240144D01*
X42824000Y-79240144D01*
X42824000Y-73802000D01*
X47316928Y-73802000D01*
X47316928Y-75552000D01*
X47346001Y-75847186D01*
X47432104Y-76131028D01*
X47571927Y-76392618D01*
X47760097Y-76621903D01*
X47989382Y-76810073D01*
X48250972Y-76949896D01*
X48534814Y-77035999D01*
X48830000Y-77065072D01*
X50580000Y-77065072D01*
X50875186Y-77035999D01*
X51159028Y-76949896D01*
X51420618Y-76810073D01*
X51649903Y-76621903D01*
X51838073Y-76392618D01*
X51977896Y-76131028D01*
X52063999Y-75847186D01*
X52093072Y-75552000D01*
X52093072Y-73802000D01*
X52063999Y-73506814D01*
X51977896Y-73222972D01*
X51838073Y-72961382D01*
X51649903Y-72732097D01*
X51420618Y-72543927D01*
X51159028Y-72404104D01*
X50875186Y-72318001D01*
X50580000Y-72288928D01*
X48830000Y-72288928D01*
X48534814Y-72318001D01*
X48250972Y-72404104D01*
X47989382Y-72543927D01*
X47760097Y-72732097D01*
X47571927Y-72961382D01*
X47432104Y-73222972D01*
X47346001Y-73506814D01*
X47316928Y-73802000D01*
X42824000Y-73802000D01*
X42824000Y-68977000D01*
X44566928Y-68977000D01*
X44566928Y-70977000D01*
X44593599Y-71247799D01*
X44672589Y-71508192D01*
X44800860Y-71748171D01*
X44973485Y-71958515D01*
X45183829Y-72131140D01*
X45423808Y-72259411D01*
X45684201Y-72338401D01*
X45955000Y-72365072D01*
X47455000Y-72365072D01*
X47725799Y-72338401D01*
X47986192Y-72259411D01*
X48226171Y-72131140D01*
X48436515Y-71958515D01*
X48609140Y-71748171D01*
X48737411Y-71508192D01*
X48745592Y-71481221D01*
X58190000Y-71481221D01*
X58190000Y-71901779D01*
X58272047Y-72314256D01*
X58432988Y-72702802D01*
X58666637Y-73052483D01*
X58964017Y-73349863D01*
X59313698Y-73583512D01*
X59702244Y-73744453D01*
X60114721Y-73826500D01*
X60535279Y-73826500D01*
X60947756Y-73744453D01*
X61336302Y-73583512D01*
X61685983Y-73349863D01*
X61983363Y-73052483D01*
X62217012Y-72702802D01*
X62377953Y-72314256D01*
X62460000Y-71901779D01*
X62460000Y-71481221D01*
X78764000Y-71481221D01*
X78764000Y-71901779D01*
X78846047Y-72314256D01*
X79006988Y-72702802D01*
X79240637Y-73052483D01*
X79538017Y-73349863D01*
X79887698Y-73583512D01*
X80276244Y-73744453D01*
X80688721Y-73826500D01*
X81109279Y-73826500D01*
X81521756Y-73744453D01*
X81910302Y-73583512D01*
X82259983Y-73349863D01*
X82557363Y-73052483D01*
X82791012Y-72702802D01*
X82951953Y-72314256D01*
X83034000Y-71901779D01*
X83034000Y-71481221D01*
X99338000Y-71481221D01*
X99338000Y-71901779D01*
X99420047Y-72314256D01*
X99580988Y-72702802D01*
X99814637Y-73052483D01*
X100112017Y-73349863D01*
X100461698Y-73583512D01*
X100850244Y-73744453D01*
X101262721Y-73826500D01*
X101683279Y-73826500D01*
X102095756Y-73744453D01*
X102484302Y-73583512D01*
X102833983Y-73349863D01*
X103131363Y-73052483D01*
X103365012Y-72702802D01*
X103525953Y-72314256D01*
X103608000Y-71901779D01*
X103608000Y-71481221D01*
X119912000Y-71481221D01*
X119912000Y-71901779D01*
X119994047Y-72314256D01*
X120154988Y-72702802D01*
X120388637Y-73052483D01*
X120686017Y-73349863D01*
X121035698Y-73583512D01*
X121424244Y-73744453D01*
X121836721Y-73826500D01*
X122257279Y-73826500D01*
X122669756Y-73744453D01*
X123058302Y-73583512D01*
X123407983Y-73349863D01*
X123705363Y-73052483D01*
X123939012Y-72702802D01*
X124099953Y-72314256D01*
X124182000Y-71901779D01*
X124182000Y-71481221D01*
X124099953Y-71068744D01*
X123939012Y-70680198D01*
X123908205Y-70634092D01*
X123995721Y-70651500D01*
X124416279Y-70651500D01*
X124828756Y-70569453D01*
X125217302Y-70408512D01*
X125566983Y-70174863D01*
X125864363Y-69877483D01*
X126098012Y-69527802D01*
X126258953Y-69139256D01*
X126341000Y-68726779D01*
X126341000Y-68306221D01*
X126258953Y-67893744D01*
X126098012Y-67505198D01*
X125864363Y-67155517D01*
X125566983Y-66858137D01*
X125217302Y-66624488D01*
X124828756Y-66463547D01*
X124416279Y-66381500D01*
X123995721Y-66381500D01*
X123583244Y-66463547D01*
X123194698Y-66624488D01*
X122845017Y-66858137D01*
X122547637Y-67155517D01*
X122313988Y-67505198D01*
X122153047Y-67893744D01*
X122071000Y-68306221D01*
X122071000Y-68726779D01*
X122153047Y-69139256D01*
X122313988Y-69527802D01*
X122344795Y-69573908D01*
X122257279Y-69556500D01*
X121836721Y-69556500D01*
X121424244Y-69638547D01*
X121035698Y-69799488D01*
X120686017Y-70033137D01*
X120388637Y-70330517D01*
X120154988Y-70680198D01*
X119994047Y-71068744D01*
X119912000Y-71481221D01*
X103608000Y-71481221D01*
X103525953Y-71068744D01*
X103365012Y-70680198D01*
X103334205Y-70634092D01*
X103421721Y-70651500D01*
X103842279Y-70651500D01*
X104254756Y-70569453D01*
X104643302Y-70408512D01*
X104992983Y-70174863D01*
X105290363Y-69877483D01*
X105524012Y-69527802D01*
X105684953Y-69139256D01*
X105767000Y-68726779D01*
X105767000Y-68306221D01*
X105684953Y-67893744D01*
X105524012Y-67505198D01*
X105290363Y-67155517D01*
X104992983Y-66858137D01*
X104643302Y-66624488D01*
X104254756Y-66463547D01*
X103842279Y-66381500D01*
X103421721Y-66381500D01*
X103009244Y-66463547D01*
X102620698Y-66624488D01*
X102271017Y-66858137D01*
X101973637Y-67155517D01*
X101739988Y-67505198D01*
X101579047Y-67893744D01*
X101497000Y-68306221D01*
X101497000Y-68726779D01*
X101579047Y-69139256D01*
X101739988Y-69527802D01*
X101770795Y-69573908D01*
X101683279Y-69556500D01*
X101262721Y-69556500D01*
X100850244Y-69638547D01*
X100461698Y-69799488D01*
X100112017Y-70033137D01*
X99814637Y-70330517D01*
X99580988Y-70680198D01*
X99420047Y-71068744D01*
X99338000Y-71481221D01*
X83034000Y-71481221D01*
X82951953Y-71068744D01*
X82791012Y-70680198D01*
X82760205Y-70634092D01*
X82847721Y-70651500D01*
X83268279Y-70651500D01*
X83680756Y-70569453D01*
X84069302Y-70408512D01*
X84418983Y-70174863D01*
X84716363Y-69877483D01*
X84950012Y-69527802D01*
X85110953Y-69139256D01*
X85193000Y-68726779D01*
X85193000Y-68306221D01*
X85110953Y-67893744D01*
X84950012Y-67505198D01*
X84716363Y-67155517D01*
X84418983Y-66858137D01*
X84069302Y-66624488D01*
X83680756Y-66463547D01*
X83268279Y-66381500D01*
X82847721Y-66381500D01*
X82435244Y-66463547D01*
X82046698Y-66624488D01*
X81697017Y-66858137D01*
X81399637Y-67155517D01*
X81165988Y-67505198D01*
X81005047Y-67893744D01*
X80923000Y-68306221D01*
X80923000Y-68726779D01*
X81005047Y-69139256D01*
X81165988Y-69527802D01*
X81196795Y-69573908D01*
X81109279Y-69556500D01*
X80688721Y-69556500D01*
X80276244Y-69638547D01*
X79887698Y-69799488D01*
X79538017Y-70033137D01*
X79240637Y-70330517D01*
X79006988Y-70680198D01*
X78846047Y-71068744D01*
X78764000Y-71481221D01*
X62460000Y-71481221D01*
X62377953Y-71068744D01*
X62217012Y-70680198D01*
X62186205Y-70634092D01*
X62273721Y-70651500D01*
X62694279Y-70651500D01*
X63106756Y-70569453D01*
X63495302Y-70408512D01*
X63844983Y-70174863D01*
X64142363Y-69877483D01*
X64376012Y-69527802D01*
X64536953Y-69139256D01*
X64619000Y-68726779D01*
X64619000Y-68306221D01*
X64536953Y-67893744D01*
X64376012Y-67505198D01*
X64142363Y-67155517D01*
X63844983Y-66858137D01*
X63495302Y-66624488D01*
X63106756Y-66463547D01*
X62694279Y-66381500D01*
X62273721Y-66381500D01*
X61861244Y-66463547D01*
X61472698Y-66624488D01*
X61123017Y-66858137D01*
X60825637Y-67155517D01*
X60591988Y-67505198D01*
X60431047Y-67893744D01*
X60349000Y-68306221D01*
X60349000Y-68726779D01*
X60431047Y-69139256D01*
X60591988Y-69527802D01*
X60622795Y-69573908D01*
X60535279Y-69556500D01*
X60114721Y-69556500D01*
X59702244Y-69638547D01*
X59313698Y-69799488D01*
X58964017Y-70033137D01*
X58666637Y-70330517D01*
X58432988Y-70680198D01*
X58272047Y-71068744D01*
X58190000Y-71481221D01*
X48745592Y-71481221D01*
X48816401Y-71247799D01*
X48843072Y-70977000D01*
X48843072Y-68977000D01*
X48816401Y-68706201D01*
X48737411Y-68445808D01*
X48609140Y-68205829D01*
X48436515Y-67995485D01*
X48226171Y-67822860D01*
X47986192Y-67694589D01*
X47725799Y-67615599D01*
X47455000Y-67588928D01*
X45955000Y-67588928D01*
X45684201Y-67615599D01*
X45423808Y-67694589D01*
X45183829Y-67822860D01*
X44973485Y-67995485D01*
X44800860Y-68205829D01*
X44672589Y-68445808D01*
X44593599Y-68706201D01*
X44566928Y-68977000D01*
X42824000Y-68977000D01*
X42824000Y-62005467D01*
X58690000Y-62005467D01*
X58690000Y-62327533D01*
X58752832Y-62643412D01*
X58876082Y-62940963D01*
X59055013Y-63208752D01*
X59282748Y-63436487D01*
X59550537Y-63615418D01*
X59848088Y-63738668D01*
X60163967Y-63801500D01*
X60486033Y-63801500D01*
X60801912Y-63738668D01*
X61099463Y-63615418D01*
X61367252Y-63436487D01*
X61594987Y-63208752D01*
X61773918Y-62940963D01*
X61897168Y-62643412D01*
X61960000Y-62327533D01*
X61960000Y-62005467D01*
X61897168Y-61689588D01*
X61773918Y-61392037D01*
X61594987Y-61124248D01*
X61367252Y-60896513D01*
X61099463Y-60717582D01*
X60801912Y-60594332D01*
X60486033Y-60531500D01*
X60163967Y-60531500D01*
X59848088Y-60594332D01*
X59550537Y-60717582D01*
X59282748Y-60896513D01*
X59055013Y-61124248D01*
X58876082Y-61392037D01*
X58752832Y-61689588D01*
X58690000Y-62005467D01*
X42824000Y-62005467D01*
X42824000Y-61233380D01*
X43072381Y-60985000D01*
X48227581Y-60985000D01*
X48260000Y-60988193D01*
X48292419Y-60985000D01*
X48389383Y-60975450D01*
X48513793Y-60937710D01*
X48628450Y-60876425D01*
X48728948Y-60793948D01*
X48811425Y-60693450D01*
X48872710Y-60578793D01*
X48910450Y-60454383D01*
X48923193Y-60325000D01*
X48920000Y-60292581D01*
X48920000Y-58477999D01*
X65089928Y-58477999D01*
X65089928Y-59378001D01*
X65106992Y-59551255D01*
X65157528Y-59717851D01*
X65239595Y-59871387D01*
X65350038Y-60005962D01*
X65479653Y-60112335D01*
X65480082Y-60116688D01*
X65527828Y-60274086D01*
X65605364Y-60419145D01*
X65605365Y-60419146D01*
X65709710Y-60546291D01*
X65741574Y-60572441D01*
X66418393Y-61249261D01*
X66309506Y-61307463D01*
X66212815Y-61386815D01*
X66133463Y-61483506D01*
X66074498Y-61593820D01*
X66038188Y-61713518D01*
X66025928Y-61838000D01*
X66025928Y-63638000D01*
X66038188Y-63762482D01*
X66074498Y-63882180D01*
X66133463Y-63992494D01*
X66212815Y-64089185D01*
X66309506Y-64168537D01*
X66419820Y-64227502D01*
X66438127Y-64233056D01*
X66371688Y-64299495D01*
X66203701Y-64550905D01*
X66087989Y-64830257D01*
X66029000Y-65126816D01*
X66029000Y-65429184D01*
X66087989Y-65725743D01*
X66203701Y-66005095D01*
X66371688Y-66256505D01*
X66585495Y-66470312D01*
X66836905Y-66638299D01*
X67116257Y-66754011D01*
X67412816Y-66813000D01*
X67715184Y-66813000D01*
X68011743Y-66754011D01*
X68291095Y-66638299D01*
X68542505Y-66470312D01*
X68756312Y-66256505D01*
X68924299Y-66005095D01*
X69040011Y-65725743D01*
X69099000Y-65429184D01*
X69099000Y-65126816D01*
X69040011Y-64830257D01*
X68924299Y-64550905D01*
X68756312Y-64299495D01*
X68689873Y-64233056D01*
X68708180Y-64227502D01*
X68818494Y-64168537D01*
X68915185Y-64089185D01*
X68994537Y-63992494D01*
X69053502Y-63882180D01*
X69089812Y-63762482D01*
X69102072Y-63638000D01*
X69102072Y-62005467D01*
X70120000Y-62005467D01*
X70120000Y-62327533D01*
X70182832Y-62643412D01*
X70306082Y-62940963D01*
X70485013Y-63208752D01*
X70712748Y-63436487D01*
X70980537Y-63615418D01*
X71278088Y-63738668D01*
X71593967Y-63801500D01*
X71916033Y-63801500D01*
X72231912Y-63738668D01*
X72529463Y-63615418D01*
X72797252Y-63436487D01*
X73024987Y-63208752D01*
X73203918Y-62940963D01*
X73327168Y-62643412D01*
X73390000Y-62327533D01*
X73390000Y-62005467D01*
X79264000Y-62005467D01*
X79264000Y-62327533D01*
X79326832Y-62643412D01*
X79450082Y-62940963D01*
X79629013Y-63208752D01*
X79856748Y-63436487D01*
X80124537Y-63615418D01*
X80422088Y-63738668D01*
X80737967Y-63801500D01*
X81060033Y-63801500D01*
X81375912Y-63738668D01*
X81673463Y-63615418D01*
X81941252Y-63436487D01*
X82168987Y-63208752D01*
X82347918Y-62940963D01*
X82471168Y-62643412D01*
X82534000Y-62327533D01*
X82534000Y-62005467D01*
X82471168Y-61689588D01*
X82347918Y-61392037D01*
X82168987Y-61124248D01*
X81941252Y-60896513D01*
X81673463Y-60717582D01*
X81375912Y-60594332D01*
X81060033Y-60531500D01*
X80737967Y-60531500D01*
X80422088Y-60594332D01*
X80124537Y-60717582D01*
X79856748Y-60896513D01*
X79629013Y-61124248D01*
X79450082Y-61392037D01*
X79326832Y-61689588D01*
X79264000Y-62005467D01*
X73390000Y-62005467D01*
X73327168Y-61689588D01*
X73203918Y-61392037D01*
X73024987Y-61124248D01*
X72797252Y-60896513D01*
X72529463Y-60717582D01*
X72231912Y-60594332D01*
X71916033Y-60531500D01*
X71593967Y-60531500D01*
X71278088Y-60594332D01*
X70980537Y-60717582D01*
X70712748Y-60896513D01*
X70485013Y-61124248D01*
X70306082Y-61392037D01*
X70182832Y-61689588D01*
X70120000Y-62005467D01*
X69102072Y-62005467D01*
X69102072Y-61838000D01*
X69089812Y-61713518D01*
X69053502Y-61593820D01*
X68994537Y-61483506D01*
X68915185Y-61386815D01*
X68818494Y-61307463D01*
X68708180Y-61248498D01*
X68588482Y-61212188D01*
X68464000Y-61199928D01*
X68401653Y-61199928D01*
X68399000Y-61172991D01*
X68399000Y-61172981D01*
X68386918Y-61050311D01*
X68339172Y-60892913D01*
X68261636Y-60747854D01*
X68157291Y-60620709D01*
X68125428Y-60594560D01*
X67378892Y-59848025D01*
X67448472Y-59717851D01*
X67499008Y-59551255D01*
X67516072Y-59378001D01*
X67516072Y-58477999D01*
X85663928Y-58477999D01*
X85663928Y-59378001D01*
X85680992Y-59551255D01*
X85731528Y-59717851D01*
X85813595Y-59871387D01*
X85924038Y-60005962D01*
X86053653Y-60112335D01*
X86054082Y-60116688D01*
X86101828Y-60274086D01*
X86179364Y-60419145D01*
X86283709Y-60546291D01*
X86315579Y-60572446D01*
X86992393Y-61249261D01*
X86883506Y-61307463D01*
X86786815Y-61386815D01*
X86707463Y-61483506D01*
X86648498Y-61593820D01*
X86612188Y-61713518D01*
X86599928Y-61838000D01*
X86599928Y-63638000D01*
X86612188Y-63762482D01*
X86648498Y-63882180D01*
X86707463Y-63992494D01*
X86786815Y-64089185D01*
X86883506Y-64168537D01*
X86993820Y-64227502D01*
X87012127Y-64233056D01*
X86945688Y-64299495D01*
X86777701Y-64550905D01*
X86661989Y-64830257D01*
X86603000Y-65126816D01*
X86603000Y-65429184D01*
X86661989Y-65725743D01*
X86777701Y-66005095D01*
X86945688Y-66256505D01*
X87159495Y-66470312D01*
X87410905Y-66638299D01*
X87690257Y-66754011D01*
X87986816Y-66813000D01*
X88289184Y-66813000D01*
X88585743Y-66754011D01*
X88865095Y-66638299D01*
X89116505Y-66470312D01*
X89330312Y-66256505D01*
X89498299Y-66005095D01*
X89614011Y-65725743D01*
X89673000Y-65429184D01*
X89673000Y-65126816D01*
X89614011Y-64830257D01*
X89498299Y-64550905D01*
X89330312Y-64299495D01*
X89263873Y-64233056D01*
X89282180Y-64227502D01*
X89392494Y-64168537D01*
X89489185Y-64089185D01*
X89568537Y-63992494D01*
X89627502Y-63882180D01*
X89663812Y-63762482D01*
X89676072Y-63638000D01*
X89676072Y-62005467D01*
X90694000Y-62005467D01*
X90694000Y-62327533D01*
X90756832Y-62643412D01*
X90880082Y-62940963D01*
X91059013Y-63208752D01*
X91286748Y-63436487D01*
X91554537Y-63615418D01*
X91852088Y-63738668D01*
X92167967Y-63801500D01*
X92490033Y-63801500D01*
X92805912Y-63738668D01*
X93103463Y-63615418D01*
X93371252Y-63436487D01*
X93598987Y-63208752D01*
X93777918Y-62940963D01*
X93901168Y-62643412D01*
X93964000Y-62327533D01*
X93964000Y-62005467D01*
X99838000Y-62005467D01*
X99838000Y-62327533D01*
X99900832Y-62643412D01*
X100024082Y-62940963D01*
X100203013Y-63208752D01*
X100430748Y-63436487D01*
X100698537Y-63615418D01*
X100996088Y-63738668D01*
X101311967Y-63801500D01*
X101634033Y-63801500D01*
X101949912Y-63738668D01*
X102247463Y-63615418D01*
X102515252Y-63436487D01*
X102742987Y-63208752D01*
X102921918Y-62940963D01*
X103045168Y-62643412D01*
X103108000Y-62327533D01*
X103108000Y-62005467D01*
X103045168Y-61689588D01*
X102921918Y-61392037D01*
X102742987Y-61124248D01*
X102515252Y-60896513D01*
X102247463Y-60717582D01*
X101949912Y-60594332D01*
X101634033Y-60531500D01*
X101311967Y-60531500D01*
X100996088Y-60594332D01*
X100698537Y-60717582D01*
X100430748Y-60896513D01*
X100203013Y-61124248D01*
X100024082Y-61392037D01*
X99900832Y-61689588D01*
X99838000Y-62005467D01*
X93964000Y-62005467D01*
X93901168Y-61689588D01*
X93777918Y-61392037D01*
X93598987Y-61124248D01*
X93371252Y-60896513D01*
X93103463Y-60717582D01*
X92805912Y-60594332D01*
X92490033Y-60531500D01*
X92167967Y-60531500D01*
X91852088Y-60594332D01*
X91554537Y-60717582D01*
X91286748Y-60896513D01*
X91059013Y-61124248D01*
X90880082Y-61392037D01*
X90756832Y-61689588D01*
X90694000Y-62005467D01*
X89676072Y-62005467D01*
X89676072Y-61838000D01*
X89663812Y-61713518D01*
X89627502Y-61593820D01*
X89568537Y-61483506D01*
X89489185Y-61386815D01*
X89392494Y-61307463D01*
X89282180Y-61248498D01*
X89162482Y-61212188D01*
X89038000Y-61199928D01*
X88975653Y-61199928D01*
X88973000Y-61172991D01*
X88973000Y-61172981D01*
X88960918Y-61050311D01*
X88913172Y-60892913D01*
X88835636Y-60747854D01*
X88731291Y-60620709D01*
X88699426Y-60594558D01*
X87952892Y-59848025D01*
X88022472Y-59717851D01*
X88073008Y-59551255D01*
X88090072Y-59378001D01*
X88090072Y-58477999D01*
X106237928Y-58477999D01*
X106237928Y-59378001D01*
X106254992Y-59551255D01*
X106305528Y-59717851D01*
X106387595Y-59871387D01*
X106498038Y-60005962D01*
X106627653Y-60112335D01*
X106628082Y-60116688D01*
X106675828Y-60274086D01*
X106753364Y-60419145D01*
X106857709Y-60546291D01*
X106889579Y-60572446D01*
X107566393Y-61249261D01*
X107457506Y-61307463D01*
X107360815Y-61386815D01*
X107281463Y-61483506D01*
X107222498Y-61593820D01*
X107186188Y-61713518D01*
X107173928Y-61838000D01*
X107173928Y-63638000D01*
X107186188Y-63762482D01*
X107222498Y-63882180D01*
X107281463Y-63992494D01*
X107360815Y-64089185D01*
X107457506Y-64168537D01*
X107567820Y-64227502D01*
X107586127Y-64233056D01*
X107519688Y-64299495D01*
X107351701Y-64550905D01*
X107235989Y-64830257D01*
X107177000Y-65126816D01*
X107177000Y-65429184D01*
X107235989Y-65725743D01*
X107351701Y-66005095D01*
X107519688Y-66256505D01*
X107733495Y-66470312D01*
X107984905Y-66638299D01*
X108264257Y-66754011D01*
X108560816Y-66813000D01*
X108863184Y-66813000D01*
X109159743Y-66754011D01*
X109439095Y-66638299D01*
X109690505Y-66470312D01*
X109904312Y-66256505D01*
X110072299Y-66005095D01*
X110188011Y-65725743D01*
X110247000Y-65429184D01*
X110247000Y-65126816D01*
X110188011Y-64830257D01*
X110072299Y-64550905D01*
X109904312Y-64299495D01*
X109837873Y-64233056D01*
X109856180Y-64227502D01*
X109966494Y-64168537D01*
X110063185Y-64089185D01*
X110142537Y-63992494D01*
X110201502Y-63882180D01*
X110237812Y-63762482D01*
X110250072Y-63638000D01*
X110250072Y-62005467D01*
X111268000Y-62005467D01*
X111268000Y-62327533D01*
X111330832Y-62643412D01*
X111454082Y-62940963D01*
X111633013Y-63208752D01*
X111860748Y-63436487D01*
X112128537Y-63615418D01*
X112426088Y-63738668D01*
X112741967Y-63801500D01*
X113064033Y-63801500D01*
X113379912Y-63738668D01*
X113677463Y-63615418D01*
X113945252Y-63436487D01*
X114172987Y-63208752D01*
X114351918Y-62940963D01*
X114475168Y-62643412D01*
X114538000Y-62327533D01*
X114538000Y-62005467D01*
X120412000Y-62005467D01*
X120412000Y-62327533D01*
X120474832Y-62643412D01*
X120598082Y-62940963D01*
X120777013Y-63208752D01*
X121004748Y-63436487D01*
X121272537Y-63615418D01*
X121570088Y-63738668D01*
X121885967Y-63801500D01*
X122208033Y-63801500D01*
X122523912Y-63738668D01*
X122821463Y-63615418D01*
X123089252Y-63436487D01*
X123316987Y-63208752D01*
X123495918Y-62940963D01*
X123619168Y-62643412D01*
X123682000Y-62327533D01*
X123682000Y-62005467D01*
X123619168Y-61689588D01*
X123495918Y-61392037D01*
X123316987Y-61124248D01*
X123089252Y-60896513D01*
X122821463Y-60717582D01*
X122523912Y-60594332D01*
X122208033Y-60531500D01*
X121885967Y-60531500D01*
X121570088Y-60594332D01*
X121272537Y-60717582D01*
X121004748Y-60896513D01*
X120777013Y-61124248D01*
X120598082Y-61392037D01*
X120474832Y-61689588D01*
X120412000Y-62005467D01*
X114538000Y-62005467D01*
X114475168Y-61689588D01*
X114351918Y-61392037D01*
X114172987Y-61124248D01*
X113945252Y-60896513D01*
X113677463Y-60717582D01*
X113379912Y-60594332D01*
X113064033Y-60531500D01*
X112741967Y-60531500D01*
X112426088Y-60594332D01*
X112128537Y-60717582D01*
X111860748Y-60896513D01*
X111633013Y-61124248D01*
X111454082Y-61392037D01*
X111330832Y-61689588D01*
X111268000Y-62005467D01*
X110250072Y-62005467D01*
X110250072Y-61838000D01*
X110237812Y-61713518D01*
X110201502Y-61593820D01*
X110142537Y-61483506D01*
X110063185Y-61386815D01*
X109966494Y-61307463D01*
X109856180Y-61248498D01*
X109736482Y-61212188D01*
X109612000Y-61199928D01*
X109549653Y-61199928D01*
X109547000Y-61172991D01*
X109547000Y-61172981D01*
X109534918Y-61050311D01*
X109487172Y-60892913D01*
X109409636Y-60747854D01*
X109305291Y-60620709D01*
X109273426Y-60594558D01*
X108526892Y-59848025D01*
X108596472Y-59717851D01*
X108647008Y-59551255D01*
X108664072Y-59378001D01*
X108664072Y-58477999D01*
X126811928Y-58477999D01*
X126811928Y-59378001D01*
X126828992Y-59551255D01*
X126879528Y-59717851D01*
X126961595Y-59871387D01*
X127072038Y-60005962D01*
X127201653Y-60112335D01*
X127202082Y-60116688D01*
X127249828Y-60274086D01*
X127327364Y-60419145D01*
X127327365Y-60419146D01*
X127431710Y-60546291D01*
X127463574Y-60572441D01*
X128140393Y-61249261D01*
X128031506Y-61307463D01*
X127934815Y-61386815D01*
X127855463Y-61483506D01*
X127796498Y-61593820D01*
X127760188Y-61713518D01*
X127747928Y-61838000D01*
X127747928Y-63638000D01*
X127760188Y-63762482D01*
X127796498Y-63882180D01*
X127855463Y-63992494D01*
X127934815Y-64089185D01*
X128031506Y-64168537D01*
X128141820Y-64227502D01*
X128160127Y-64233056D01*
X128093688Y-64299495D01*
X127925701Y-64550905D01*
X127809989Y-64830257D01*
X127751000Y-65126816D01*
X127751000Y-65429184D01*
X127809989Y-65725743D01*
X127925701Y-66005095D01*
X128093688Y-66256505D01*
X128307495Y-66470312D01*
X128558905Y-66638299D01*
X128838257Y-66754011D01*
X129134816Y-66813000D01*
X129437184Y-66813000D01*
X129733743Y-66754011D01*
X130013095Y-66638299D01*
X130264505Y-66470312D01*
X130478312Y-66256505D01*
X130646299Y-66005095D01*
X130762011Y-65725743D01*
X130821000Y-65429184D01*
X130821000Y-65126816D01*
X130762011Y-64830257D01*
X130646299Y-64550905D01*
X130478312Y-64299495D01*
X130411873Y-64233056D01*
X130430180Y-64227502D01*
X130540494Y-64168537D01*
X130637185Y-64089185D01*
X130716537Y-63992494D01*
X130775502Y-63882180D01*
X130811812Y-63762482D01*
X130824072Y-63638000D01*
X130824072Y-62005467D01*
X131842000Y-62005467D01*
X131842000Y-62327533D01*
X131904832Y-62643412D01*
X132028082Y-62940963D01*
X132207013Y-63208752D01*
X132434748Y-63436487D01*
X132702537Y-63615418D01*
X133000088Y-63738668D01*
X133315967Y-63801500D01*
X133638033Y-63801500D01*
X133953912Y-63738668D01*
X134251463Y-63615418D01*
X134519252Y-63436487D01*
X134746987Y-63208752D01*
X134925918Y-62940963D01*
X135049168Y-62643412D01*
X135112000Y-62327533D01*
X135112000Y-62005467D01*
X135049168Y-61689588D01*
X134925918Y-61392037D01*
X134746987Y-61124248D01*
X134519252Y-60896513D01*
X134251463Y-60717582D01*
X133953912Y-60594332D01*
X133638033Y-60531500D01*
X133315967Y-60531500D01*
X133000088Y-60594332D01*
X132702537Y-60717582D01*
X132434748Y-60896513D01*
X132207013Y-61124248D01*
X132028082Y-61392037D01*
X131904832Y-61689588D01*
X131842000Y-62005467D01*
X130824072Y-62005467D01*
X130824072Y-61838000D01*
X130811812Y-61713518D01*
X130775502Y-61593820D01*
X130716537Y-61483506D01*
X130637185Y-61386815D01*
X130540494Y-61307463D01*
X130430180Y-61248498D01*
X130310482Y-61212188D01*
X130186000Y-61199928D01*
X130123653Y-61199928D01*
X130121000Y-61172991D01*
X130121000Y-61172981D01*
X130108918Y-61050311D01*
X130061172Y-60892913D01*
X129983636Y-60747854D01*
X129879291Y-60620709D01*
X129847428Y-60594560D01*
X129100892Y-59848025D01*
X129170472Y-59717851D01*
X129221008Y-59551255D01*
X129238072Y-59378001D01*
X129238072Y-58477999D01*
X129221008Y-58304745D01*
X129170472Y-58138149D01*
X129088405Y-57984613D01*
X128977962Y-57850038D01*
X128843387Y-57739595D01*
X128689851Y-57657528D01*
X128523255Y-57606992D01*
X128350001Y-57589928D01*
X127699999Y-57589928D01*
X127526745Y-57606992D01*
X127360149Y-57657528D01*
X127206613Y-57739595D01*
X127072038Y-57850038D01*
X126961595Y-57984613D01*
X126879528Y-58138149D01*
X126828992Y-58304745D01*
X126811928Y-58477999D01*
X108664072Y-58477999D01*
X108647008Y-58304745D01*
X108596472Y-58138149D01*
X108514405Y-57984613D01*
X108403962Y-57850038D01*
X108269387Y-57739595D01*
X108115851Y-57657528D01*
X107949255Y-57606992D01*
X107776001Y-57589928D01*
X107125999Y-57589928D01*
X106952745Y-57606992D01*
X106786149Y-57657528D01*
X106632613Y-57739595D01*
X106498038Y-57850038D01*
X106387595Y-57984613D01*
X106305528Y-58138149D01*
X106254992Y-58304745D01*
X106237928Y-58477999D01*
X88090072Y-58477999D01*
X88073008Y-58304745D01*
X88022472Y-58138149D01*
X87940405Y-57984613D01*
X87829962Y-57850038D01*
X87695387Y-57739595D01*
X87541851Y-57657528D01*
X87375255Y-57606992D01*
X87202001Y-57589928D01*
X86551999Y-57589928D01*
X86378745Y-57606992D01*
X86212149Y-57657528D01*
X86058613Y-57739595D01*
X85924038Y-57850038D01*
X85813595Y-57984613D01*
X85731528Y-58138149D01*
X85680992Y-58304745D01*
X85663928Y-58477999D01*
X67516072Y-58477999D01*
X67499008Y-58304745D01*
X67448472Y-58138149D01*
X67366405Y-57984613D01*
X67255962Y-57850038D01*
X67121387Y-57739595D01*
X66967851Y-57657528D01*
X66801255Y-57606992D01*
X66628001Y-57589928D01*
X65977999Y-57589928D01*
X65804745Y-57606992D01*
X65638149Y-57657528D01*
X65484613Y-57739595D01*
X65350038Y-57850038D01*
X65239595Y-57984613D01*
X65157528Y-58138149D01*
X65106992Y-58304745D01*
X65089928Y-58477999D01*
X48920000Y-58477999D01*
X48920000Y-55454880D01*
X49168381Y-55206500D01*
X147681620Y-55206500D01*
X147930000Y-55454881D01*
G37*
X147930000Y-55454881D02*
X147930001Y-60292571D01*
X147926807Y-60325000D01*
X147939550Y-60454383D01*
X147977290Y-60578793D01*
X148038575Y-60693450D01*
X148121052Y-60793948D01*
X148221550Y-60876425D01*
X148336207Y-60937710D01*
X148460617Y-60975450D01*
X148557581Y-60985000D01*
X148590000Y-60988193D01*
X148622419Y-60985000D01*
X153777620Y-60985000D01*
X154026000Y-61233381D01*
X154026001Y-134346618D01*
X153777620Y-134595000D01*
X148622419Y-134595000D01*
X148590000Y-134591807D01*
X148557581Y-134595000D01*
X148460617Y-134604550D01*
X148336207Y-134642290D01*
X148221550Y-134703575D01*
X148121052Y-134786052D01*
X148038575Y-134886550D01*
X147977290Y-135001207D01*
X147939550Y-135125617D01*
X147926807Y-135255000D01*
X147930000Y-135287419D01*
X147930001Y-140061618D01*
X147681620Y-140310000D01*
X49168381Y-140310000D01*
X48920000Y-140061620D01*
X48920000Y-137736344D01*
X63926400Y-137736344D01*
X63926400Y-138107656D01*
X63998839Y-138471834D01*
X64140934Y-138814882D01*
X64347225Y-139123618D01*
X64609782Y-139386175D01*
X64918518Y-139592466D01*
X65261566Y-139734561D01*
X65625744Y-139807000D01*
X65997056Y-139807000D01*
X66361234Y-139734561D01*
X66704282Y-139592466D01*
X67013018Y-139386175D01*
X67275575Y-139123618D01*
X67481866Y-138814882D01*
X67623961Y-138471834D01*
X67696400Y-138107656D01*
X67696400Y-137736344D01*
X84475000Y-137736344D01*
X84475000Y-138107656D01*
X84547439Y-138471834D01*
X84689534Y-138814882D01*
X84895825Y-139123618D01*
X85158382Y-139386175D01*
X85467118Y-139592466D01*
X85810166Y-139734561D01*
X86174344Y-139807000D01*
X86545656Y-139807000D01*
X86909834Y-139734561D01*
X87252882Y-139592466D01*
X87561618Y-139386175D01*
X87824175Y-139123618D01*
X88030466Y-138814882D01*
X88172561Y-138471834D01*
X88245000Y-138107656D01*
X88245000Y-137736344D01*
X105049000Y-137736344D01*
X105049000Y-138107656D01*
X105121439Y-138471834D01*
X105263534Y-138814882D01*
X105469825Y-139123618D01*
X105732382Y-139386175D01*
X106041118Y-139592466D01*
X106384166Y-139734561D01*
X106748344Y-139807000D01*
X107119656Y-139807000D01*
X107483834Y-139734561D01*
X107826882Y-139592466D01*
X108135618Y-139386175D01*
X108398175Y-139123618D01*
X108604466Y-138814882D01*
X108746561Y-138471834D01*
X108819000Y-138107656D01*
X108819000Y-137736344D01*
X125648400Y-137736344D01*
X125648400Y-138107656D01*
X125720839Y-138471834D01*
X125862934Y-138814882D01*
X126069225Y-139123618D01*
X126331782Y-139386175D01*
X126640518Y-139592466D01*
X126983566Y-139734561D01*
X127347744Y-139807000D01*
X127719056Y-139807000D01*
X128083234Y-139734561D01*
X128426282Y-139592466D01*
X128735018Y-139386175D01*
X128997575Y-139123618D01*
X129203866Y-138814882D01*
X129345961Y-138471834D01*
X129418400Y-138107656D01*
X129418400Y-137736344D01*
X129345961Y-137372166D01*
X129203866Y-137029118D01*
X128997575Y-136720382D01*
X128735018Y-136457825D01*
X128426282Y-136251534D01*
X128083234Y-136109439D01*
X127719056Y-136037000D01*
X127347744Y-136037000D01*
X126983566Y-136109439D01*
X126640518Y-136251534D01*
X126331782Y-136457825D01*
X126069225Y-136720382D01*
X125862934Y-137029118D01*
X125720839Y-137372166D01*
X125648400Y-137736344D01*
X108819000Y-137736344D01*
X108746561Y-137372166D01*
X108604466Y-137029118D01*
X108398175Y-136720382D01*
X108135618Y-136457825D01*
X107826882Y-136251534D01*
X107483834Y-136109439D01*
X107119656Y-136037000D01*
X106748344Y-136037000D01*
X106384166Y-136109439D01*
X106041118Y-136251534D01*
X105732382Y-136457825D01*
X105469825Y-136720382D01*
X105263534Y-137029118D01*
X105121439Y-137372166D01*
X105049000Y-137736344D01*
X88245000Y-137736344D01*
X88172561Y-137372166D01*
X88030466Y-137029118D01*
X87824175Y-136720382D01*
X87561618Y-136457825D01*
X87252882Y-136251534D01*
X86909834Y-136109439D01*
X86545656Y-136037000D01*
X86174344Y-136037000D01*
X85810166Y-136109439D01*
X85467118Y-136251534D01*
X85158382Y-136457825D01*
X84895825Y-136720382D01*
X84689534Y-137029118D01*
X84547439Y-137372166D01*
X84475000Y-137736344D01*
X67696400Y-137736344D01*
X67623961Y-137372166D01*
X67481866Y-137029118D01*
X67275575Y-136720382D01*
X67013018Y-136457825D01*
X66704282Y-136251534D01*
X66361234Y-136109439D01*
X65997056Y-136037000D01*
X65625744Y-136037000D01*
X65261566Y-136109439D01*
X64918518Y-136251534D01*
X64609782Y-136457825D01*
X64347225Y-136720382D01*
X64140934Y-137029118D01*
X63998839Y-137372166D01*
X63926400Y-137736344D01*
X48920000Y-137736344D01*
X48920000Y-135350919D01*
X48923193Y-135318500D01*
X48910450Y-135189117D01*
X48872710Y-135064707D01*
X48811425Y-134950050D01*
X48728948Y-134849552D01*
X48628450Y-134767075D01*
X48513793Y-134705790D01*
X48389383Y-134668050D01*
X48292419Y-134658500D01*
X48260000Y-134655307D01*
X48227581Y-134658500D01*
X43072381Y-134658500D01*
X42824000Y-134410120D01*
X42824000Y-132327698D01*
X60988000Y-132327698D01*
X60988000Y-132797502D01*
X61079654Y-133258279D01*
X61259440Y-133692321D01*
X61520450Y-134082949D01*
X61852651Y-134415150D01*
X62243279Y-134676160D01*
X62677321Y-134855946D01*
X63138098Y-134947600D01*
X63607902Y-134947600D01*
X64068679Y-134855946D01*
X64502721Y-134676160D01*
X64893349Y-134415150D01*
X65225550Y-134082949D01*
X65486560Y-133692321D01*
X65546796Y-133546898D01*
X69370000Y-133546898D01*
X69370000Y-134016702D01*
X69461654Y-134477479D01*
X69641440Y-134911521D01*
X69902450Y-135302149D01*
X70234651Y-135634350D01*
X70625279Y-135895360D01*
X71059321Y-136075146D01*
X71520098Y-136166800D01*
X71989902Y-136166800D01*
X72450679Y-136075146D01*
X72884721Y-135895360D01*
X73275349Y-135634350D01*
X73607550Y-135302149D01*
X73868560Y-134911521D01*
X74048346Y-134477479D01*
X74140000Y-134016702D01*
X74140000Y-133546898D01*
X74048346Y-133086121D01*
X73868560Y-132652079D01*
X73651815Y-132327698D01*
X81536600Y-132327698D01*
X81536600Y-132797502D01*
X81628254Y-133258279D01*
X81808040Y-133692321D01*
X82069050Y-134082949D01*
X82401251Y-134415150D01*
X82791879Y-134676160D01*
X83225921Y-134855946D01*
X83686698Y-134947600D01*
X84156502Y-134947600D01*
X84617279Y-134855946D01*
X85051321Y-134676160D01*
X85441949Y-134415150D01*
X85774150Y-134082949D01*
X86035160Y-133692321D01*
X86095396Y-133546898D01*
X89918600Y-133546898D01*
X89918600Y-134016702D01*
X90010254Y-134477479D01*
X90190040Y-134911521D01*
X90451050Y-135302149D01*
X90783251Y-135634350D01*
X91173879Y-135895360D01*
X91607921Y-136075146D01*
X92068698Y-136166800D01*
X92538502Y-136166800D01*
X92999279Y-136075146D01*
X93433321Y-135895360D01*
X93823949Y-135634350D01*
X94156150Y-135302149D01*
X94417160Y-134911521D01*
X94596946Y-134477479D01*
X94688600Y-134016702D01*
X94688600Y-133546898D01*
X94596946Y-133086121D01*
X94417160Y-132652079D01*
X94200415Y-132327698D01*
X102110600Y-132327698D01*
X102110600Y-132797502D01*
X102202254Y-133258279D01*
X102382040Y-133692321D01*
X102643050Y-134082949D01*
X102975251Y-134415150D01*
X103365879Y-134676160D01*
X103799921Y-134855946D01*
X104260698Y-134947600D01*
X104730502Y-134947600D01*
X105191279Y-134855946D01*
X105625321Y-134676160D01*
X106015949Y-134415150D01*
X106348150Y-134082949D01*
X106609160Y-133692321D01*
X106669396Y-133546898D01*
X110492600Y-133546898D01*
X110492600Y-134016702D01*
X110584254Y-134477479D01*
X110764040Y-134911521D01*
X111025050Y-135302149D01*
X111357251Y-135634350D01*
X111747879Y-135895360D01*
X112181921Y-136075146D01*
X112642698Y-136166800D01*
X113112502Y-136166800D01*
X113573279Y-136075146D01*
X114007321Y-135895360D01*
X114397949Y-135634350D01*
X114730150Y-135302149D01*
X114991160Y-134911521D01*
X115170946Y-134477479D01*
X115262600Y-134016702D01*
X115262600Y-133546898D01*
X115170946Y-133086121D01*
X114991160Y-132652079D01*
X114774415Y-132327698D01*
X122710000Y-132327698D01*
X122710000Y-132797502D01*
X122801654Y-133258279D01*
X122981440Y-133692321D01*
X123242450Y-134082949D01*
X123574651Y-134415150D01*
X123965279Y-134676160D01*
X124399321Y-134855946D01*
X124860098Y-134947600D01*
X125329902Y-134947600D01*
X125790679Y-134855946D01*
X126224721Y-134676160D01*
X126615349Y-134415150D01*
X126947550Y-134082949D01*
X127208560Y-133692321D01*
X127268796Y-133546898D01*
X131092000Y-133546898D01*
X131092000Y-134016702D01*
X131183654Y-134477479D01*
X131363440Y-134911521D01*
X131624450Y-135302149D01*
X131956651Y-135634350D01*
X132347279Y-135895360D01*
X132781321Y-136075146D01*
X133242098Y-136166800D01*
X133711902Y-136166800D01*
X134172679Y-136075146D01*
X134606721Y-135895360D01*
X134997349Y-135634350D01*
X135329550Y-135302149D01*
X135590560Y-134911521D01*
X135770346Y-134477479D01*
X135862000Y-134016702D01*
X135862000Y-133546898D01*
X135770346Y-133086121D01*
X135590560Y-132652079D01*
X135329550Y-132261451D01*
X134997349Y-131929250D01*
X134606721Y-131668240D01*
X134172679Y-131488454D01*
X133711902Y-131396800D01*
X133242098Y-131396800D01*
X132781321Y-131488454D01*
X132347279Y-131668240D01*
X131956651Y-131929250D01*
X131624450Y-132261451D01*
X131363440Y-132652079D01*
X131183654Y-133086121D01*
X131092000Y-133546898D01*
X127268796Y-133546898D01*
X127388346Y-133258279D01*
X127480000Y-132797502D01*
X127480000Y-132327698D01*
X127388346Y-131866921D01*
X127208560Y-131432879D01*
X126947550Y-131042251D01*
X126615349Y-130710050D01*
X126224721Y-130449040D01*
X125790679Y-130269254D01*
X125329902Y-130177600D01*
X124860098Y-130177600D01*
X124399321Y-130269254D01*
X123965279Y-130449040D01*
X123574651Y-130710050D01*
X123242450Y-131042251D01*
X122981440Y-131432879D01*
X122801654Y-131866921D01*
X122710000Y-132327698D01*
X114774415Y-132327698D01*
X114730150Y-132261451D01*
X114397949Y-131929250D01*
X114007321Y-131668240D01*
X113573279Y-131488454D01*
X113112502Y-131396800D01*
X112642698Y-131396800D01*
X112181921Y-131488454D01*
X111747879Y-131668240D01*
X111357251Y-131929250D01*
X111025050Y-132261451D01*
X110764040Y-132652079D01*
X110584254Y-133086121D01*
X110492600Y-133546898D01*
X106669396Y-133546898D01*
X106788946Y-133258279D01*
X106880600Y-132797502D01*
X106880600Y-132327698D01*
X106788946Y-131866921D01*
X106609160Y-131432879D01*
X106348150Y-131042251D01*
X106015949Y-130710050D01*
X105625321Y-130449040D01*
X105191279Y-130269254D01*
X104730502Y-130177600D01*
X104260698Y-130177600D01*
X103799921Y-130269254D01*
X103365879Y-130449040D01*
X102975251Y-130710050D01*
X102643050Y-131042251D01*
X102382040Y-131432879D01*
X102202254Y-131866921D01*
X102110600Y-132327698D01*
X94200415Y-132327698D01*
X94156150Y-132261451D01*
X93823949Y-131929250D01*
X93433321Y-131668240D01*
X92999279Y-131488454D01*
X92538502Y-131396800D01*
X92068698Y-131396800D01*
X91607921Y-131488454D01*
X91173879Y-131668240D01*
X90783251Y-131929250D01*
X90451050Y-132261451D01*
X90190040Y-132652079D01*
X90010254Y-133086121D01*
X89918600Y-133546898D01*
X86095396Y-133546898D01*
X86214946Y-133258279D01*
X86306600Y-132797502D01*
X86306600Y-132327698D01*
X86214946Y-131866921D01*
X86035160Y-131432879D01*
X85774150Y-131042251D01*
X85441949Y-130710050D01*
X85051321Y-130449040D01*
X84617279Y-130269254D01*
X84156502Y-130177600D01*
X83686698Y-130177600D01*
X83225921Y-130269254D01*
X82791879Y-130449040D01*
X82401251Y-130710050D01*
X82069050Y-131042251D01*
X81808040Y-131432879D01*
X81628254Y-131866921D01*
X81536600Y-132327698D01*
X73651815Y-132327698D01*
X73607550Y-132261451D01*
X73275349Y-131929250D01*
X72884721Y-131668240D01*
X72450679Y-131488454D01*
X71989902Y-131396800D01*
X71520098Y-131396800D01*
X71059321Y-131488454D01*
X70625279Y-131668240D01*
X70234651Y-131929250D01*
X69902450Y-132261451D01*
X69641440Y-132652079D01*
X69461654Y-133086121D01*
X69370000Y-133546898D01*
X65546796Y-133546898D01*
X65666346Y-133258279D01*
X65758000Y-132797502D01*
X65758000Y-132327698D01*
X65666346Y-131866921D01*
X65486560Y-131432879D01*
X65225550Y-131042251D01*
X64893349Y-130710050D01*
X64502721Y-130449040D01*
X64068679Y-130269254D01*
X63607902Y-130177600D01*
X63138098Y-130177600D01*
X62677321Y-130269254D01*
X62243279Y-130449040D01*
X61852651Y-130710050D01*
X61520450Y-131042251D01*
X61259440Y-131432879D01*
X61079654Y-131866921D01*
X60988000Y-132327698D01*
X42824000Y-132327698D01*
X42824000Y-129378967D01*
X48339500Y-129378967D01*
X48339500Y-129701033D01*
X48402332Y-130016912D01*
X48525582Y-130314463D01*
X48704513Y-130582252D01*
X48932248Y-130809987D01*
X49200037Y-130988918D01*
X49497588Y-131112168D01*
X49813467Y-131175000D01*
X50135533Y-131175000D01*
X50451412Y-131112168D01*
X50748963Y-130988918D01*
X51016752Y-130809987D01*
X51244487Y-130582252D01*
X51423418Y-130314463D01*
X51546668Y-130016912D01*
X51609500Y-129701033D01*
X51609500Y-129378967D01*
X51546668Y-129063088D01*
X51423418Y-128765537D01*
X51244487Y-128497748D01*
X51016752Y-128270013D01*
X50748963Y-128091082D01*
X50451412Y-127967832D01*
X50135533Y-127905000D01*
X49813467Y-127905000D01*
X49497588Y-127967832D01*
X49200037Y-128091082D01*
X48932248Y-128270013D01*
X48704513Y-128497748D01*
X48525582Y-128765537D01*
X48402332Y-129063088D01*
X48339500Y-129378967D01*
X42824000Y-129378967D01*
X42824000Y-127170721D01*
X54189500Y-127170721D01*
X54189500Y-127591279D01*
X54271547Y-128003756D01*
X54432488Y-128392302D01*
X54666137Y-128741983D01*
X54963517Y-129039363D01*
X55313198Y-129273012D01*
X55701744Y-129433953D01*
X56114221Y-129516000D01*
X56534779Y-129516000D01*
X56947256Y-129433953D01*
X57335802Y-129273012D01*
X57381908Y-129242205D01*
X57364500Y-129329721D01*
X57364500Y-129750279D01*
X57446547Y-130162756D01*
X57607488Y-130551302D01*
X57841137Y-130900983D01*
X58138517Y-131198363D01*
X58488198Y-131432012D01*
X58876744Y-131592953D01*
X59289221Y-131675000D01*
X59709779Y-131675000D01*
X60122256Y-131592953D01*
X60510802Y-131432012D01*
X60860483Y-131198363D01*
X61157863Y-130900983D01*
X61391512Y-130551302D01*
X61552453Y-130162756D01*
X61634500Y-129750279D01*
X61634500Y-129329721D01*
X61552453Y-128917244D01*
X61391512Y-128528698D01*
X61157863Y-128179017D01*
X60860483Y-127881637D01*
X60510802Y-127647988D01*
X60432949Y-127615740D01*
X92114000Y-127615740D01*
X92114000Y-127908260D01*
X92171068Y-128195158D01*
X92283010Y-128465411D01*
X92445525Y-128708632D01*
X92652368Y-128915475D01*
X92895589Y-129077990D01*
X93165842Y-129189932D01*
X93452740Y-129247000D01*
X93745260Y-129247000D01*
X94032158Y-129189932D01*
X94302411Y-129077990D01*
X94545632Y-128915475D01*
X94752475Y-128708632D01*
X94869000Y-128534240D01*
X94985525Y-128708632D01*
X95192368Y-128915475D01*
X95435589Y-129077990D01*
X95705842Y-129189932D01*
X95992740Y-129247000D01*
X96285260Y-129247000D01*
X96572158Y-129189932D01*
X96842411Y-129077990D01*
X97085632Y-128915475D01*
X97292475Y-128708632D01*
X97454990Y-128465411D01*
X97566932Y-128195158D01*
X97624000Y-127908260D01*
X97624000Y-127615740D01*
X97566932Y-127328842D01*
X97454990Y-127058589D01*
X97292475Y-126815368D01*
X97085632Y-126608525D01*
X96842411Y-126446010D01*
X96572158Y-126334068D01*
X96285260Y-126277000D01*
X95992740Y-126277000D01*
X95705842Y-126334068D01*
X95435589Y-126446010D01*
X95192368Y-126608525D01*
X94985525Y-126815368D01*
X94869000Y-126989760D01*
X94752475Y-126815368D01*
X94545632Y-126608525D01*
X94302411Y-126446010D01*
X94032158Y-126334068D01*
X93745260Y-126277000D01*
X93452740Y-126277000D01*
X93165842Y-126334068D01*
X92895589Y-126446010D01*
X92652368Y-126608525D01*
X92445525Y-126815368D01*
X92283010Y-127058589D01*
X92171068Y-127328842D01*
X92114000Y-127615740D01*
X60432949Y-127615740D01*
X60122256Y-127487047D01*
X59709779Y-127405000D01*
X59289221Y-127405000D01*
X58876744Y-127487047D01*
X58488198Y-127647988D01*
X58442092Y-127678795D01*
X58459500Y-127591279D01*
X58459500Y-127170721D01*
X58377453Y-126758244D01*
X58216512Y-126369698D01*
X57982863Y-126020017D01*
X57685483Y-125722637D01*
X57335802Y-125488988D01*
X56947256Y-125328047D01*
X56534779Y-125246000D01*
X56114221Y-125246000D01*
X55701744Y-125328047D01*
X55313198Y-125488988D01*
X54963517Y-125722637D01*
X54666137Y-126020017D01*
X54432488Y-126369698D01*
X54271547Y-126758244D01*
X54189500Y-127170721D01*
X42824000Y-127170721D01*
X42824000Y-124232297D01*
X93263000Y-124232297D01*
X93263000Y-124401703D01*
X93296049Y-124567853D01*
X93360878Y-124724363D01*
X93454995Y-124865218D01*
X93574782Y-124985005D01*
X93715637Y-125079122D01*
X93872147Y-125143951D01*
X94038297Y-125177000D01*
X94207703Y-125177000D01*
X94333388Y-125152000D01*
X101619133Y-125152000D01*
X102760581Y-126293449D01*
X102664820Y-126322498D01*
X102554506Y-126381463D01*
X102457815Y-126460815D01*
X102378463Y-126557506D01*
X102319498Y-126667820D01*
X102297487Y-126740380D01*
X102165632Y-126608525D01*
X101922411Y-126446010D01*
X101652158Y-126334068D01*
X101365260Y-126277000D01*
X101072740Y-126277000D01*
X100785842Y-126334068D01*
X100515589Y-126446010D01*
X100272368Y-126608525D01*
X100065525Y-126815368D01*
X99903010Y-127058589D01*
X99791068Y-127328842D01*
X99734000Y-127615740D01*
X99734000Y-127908260D01*
X99791068Y-128195158D01*
X99903010Y-128465411D01*
X100065525Y-128708632D01*
X100272368Y-128915475D01*
X100515589Y-129077990D01*
X100785842Y-129189932D01*
X101072740Y-129247000D01*
X101365260Y-129247000D01*
X101652158Y-129189932D01*
X101922411Y-129077990D01*
X102165632Y-128915475D01*
X102297487Y-128783620D01*
X102319498Y-128856180D01*
X102378463Y-128966494D01*
X102457815Y-129063185D01*
X102554506Y-129142537D01*
X102664820Y-129201502D01*
X102784518Y-129237812D01*
X102909000Y-129250072D01*
X104609000Y-129250072D01*
X104733482Y-129237812D01*
X104853180Y-129201502D01*
X104963494Y-129142537D01*
X105060185Y-129063185D01*
X105139537Y-128966494D01*
X105198502Y-128856180D01*
X105234812Y-128736482D01*
X105247072Y-128612000D01*
X105247072Y-126912000D01*
X105234812Y-126787518D01*
X105198502Y-126667820D01*
X105139537Y-126557506D01*
X105060185Y-126460815D01*
X104963494Y-126381463D01*
X104853180Y-126322498D01*
X104733482Y-126286188D01*
X104609000Y-126273928D01*
X104594000Y-126273928D01*
X104594000Y-126152018D01*
X104598040Y-126110999D01*
X104581918Y-125947311D01*
X104534172Y-125789913D01*
X104456636Y-125644854D01*
X104352291Y-125517709D01*
X104320428Y-125491560D01*
X102584446Y-123755579D01*
X102558291Y-123723709D01*
X102431146Y-123619364D01*
X102286087Y-123541828D01*
X102204240Y-123517000D01*
X104056592Y-123517000D01*
X104182297Y-123542004D01*
X104351703Y-123542004D01*
X104517853Y-123508955D01*
X104674363Y-123444126D01*
X104815218Y-123350009D01*
X104935005Y-123230222D01*
X105029122Y-123089367D01*
X105093951Y-122932857D01*
X105127000Y-122766707D01*
X105127000Y-122597301D01*
X105093951Y-122431151D01*
X105029122Y-122274641D01*
X104935005Y-122133786D01*
X104815218Y-122013999D01*
X104674363Y-121919882D01*
X104517853Y-121855053D01*
X104351703Y-121822004D01*
X104182297Y-121822004D01*
X104056633Y-121847000D01*
X101302388Y-121847000D01*
X101176703Y-121822000D01*
X101007297Y-121822000D01*
X100841147Y-121855049D01*
X100684637Y-121919878D01*
X100543782Y-122013995D01*
X100423995Y-122133782D01*
X100329878Y-122274637D01*
X100265049Y-122431147D01*
X100232000Y-122597297D01*
X100232000Y-122766703D01*
X100265049Y-122932853D01*
X100329878Y-123089363D01*
X100423995Y-123230218D01*
X100543782Y-123350005D01*
X100684637Y-123444122D01*
X100776082Y-123482000D01*
X94333388Y-123482000D01*
X94207703Y-123457000D01*
X94038297Y-123457000D01*
X93872147Y-123490049D01*
X93715637Y-123554878D01*
X93574782Y-123648995D01*
X93454995Y-123768782D01*
X93360878Y-123909637D01*
X93296049Y-124066147D01*
X93263000Y-124232297D01*
X42824000Y-124232297D01*
X42824000Y-117948967D01*
X48339500Y-117948967D01*
X48339500Y-118271033D01*
X48402332Y-118586912D01*
X48525582Y-118884463D01*
X48704513Y-119152252D01*
X48932248Y-119379987D01*
X49200037Y-119558918D01*
X49497588Y-119682168D01*
X49813467Y-119745000D01*
X50135533Y-119745000D01*
X50451412Y-119682168D01*
X50748963Y-119558918D01*
X51016752Y-119379987D01*
X51244487Y-119152252D01*
X51423418Y-118884463D01*
X51546668Y-118586912D01*
X51609500Y-118271033D01*
X51609500Y-117948967D01*
X51546668Y-117633088D01*
X51423418Y-117335537D01*
X51244487Y-117067748D01*
X51016752Y-116840013D01*
X50748963Y-116661082D01*
X50451412Y-116537832D01*
X50135533Y-116475000D01*
X49813467Y-116475000D01*
X49497588Y-116537832D01*
X49200037Y-116661082D01*
X48932248Y-116840013D01*
X48704513Y-117067748D01*
X48525582Y-117335537D01*
X48402332Y-117633088D01*
X48339500Y-117948967D01*
X42824000Y-117948967D01*
X42824000Y-116247297D01*
X77626000Y-116247297D01*
X77626000Y-116416703D01*
X77651000Y-116542388D01*
X77651001Y-118153604D01*
X77626000Y-118279293D01*
X77626000Y-118448699D01*
X77659049Y-118614849D01*
X77723878Y-118771359D01*
X77817995Y-118912214D01*
X77937782Y-119032001D01*
X78078637Y-119126118D01*
X78235147Y-119190947D01*
X78401297Y-119223996D01*
X78570703Y-119223996D01*
X78736853Y-119190947D01*
X78893363Y-119126118D01*
X79034218Y-119032001D01*
X79120996Y-118945223D01*
X79207778Y-119032005D01*
X79348633Y-119126122D01*
X79505143Y-119190951D01*
X79671293Y-119224000D01*
X79840699Y-119224000D01*
X80006849Y-119190951D01*
X80163359Y-119126122D01*
X80191001Y-119107652D01*
X80191001Y-119931608D01*
X80166000Y-120057297D01*
X80166000Y-120226703D01*
X80199049Y-120392853D01*
X80263878Y-120549363D01*
X80357995Y-120690218D01*
X80477782Y-120810005D01*
X80618637Y-120904122D01*
X80775147Y-120968951D01*
X80941297Y-121002000D01*
X81110703Y-121002000D01*
X81276853Y-120968951D01*
X81433363Y-120904122D01*
X81574218Y-120810005D01*
X81694005Y-120690218D01*
X81788122Y-120549363D01*
X81852951Y-120392853D01*
X81886000Y-120226703D01*
X81886000Y-120057297D01*
X81861000Y-119931612D01*
X81861000Y-119549297D01*
X106074000Y-119549297D01*
X106074000Y-119718703D01*
X106099001Y-119844392D01*
X106099000Y-121963612D01*
X106074000Y-122089297D01*
X106074000Y-122258703D01*
X106107049Y-122424853D01*
X106171878Y-122581363D01*
X106265995Y-122722218D01*
X106385782Y-122842005D01*
X106526637Y-122936122D01*
X106683147Y-123000951D01*
X106849297Y-123034000D01*
X107018703Y-123034000D01*
X107184853Y-123000951D01*
X107341363Y-122936122D01*
X107482218Y-122842005D01*
X107602005Y-122722218D01*
X107696122Y-122581363D01*
X107760951Y-122424853D01*
X107794000Y-122258703D01*
X107794000Y-122089297D01*
X107769000Y-121963612D01*
X107769000Y-120311297D01*
X124743000Y-120311297D01*
X124743000Y-120480703D01*
X124768000Y-120606388D01*
X124768001Y-121963608D01*
X124743000Y-122089297D01*
X124743000Y-122258703D01*
X124776049Y-122424853D01*
X124840878Y-122581363D01*
X124934995Y-122722218D01*
X125054782Y-122842005D01*
X125195637Y-122936122D01*
X125352147Y-123000951D01*
X125518297Y-123034000D01*
X125687703Y-123034000D01*
X125853853Y-123000951D01*
X126010363Y-122936122D01*
X126151218Y-122842005D01*
X126271005Y-122722218D01*
X126365122Y-122581363D01*
X126429951Y-122424853D01*
X126463000Y-122258703D01*
X126463000Y-122089297D01*
X126438000Y-121963612D01*
X126438000Y-120606388D01*
X126463000Y-120480703D01*
X126463000Y-120311297D01*
X126429951Y-120145147D01*
X126365122Y-119988637D01*
X126271005Y-119847782D01*
X126151218Y-119727995D01*
X126010363Y-119633878D01*
X125853853Y-119569049D01*
X125687703Y-119536000D01*
X125518297Y-119536000D01*
X125352147Y-119569049D01*
X125195637Y-119633878D01*
X125054782Y-119727995D01*
X124934995Y-119847782D01*
X124840878Y-119988637D01*
X124776049Y-120145147D01*
X124743000Y-120311297D01*
X107769000Y-120311297D01*
X107769000Y-119844388D01*
X107794000Y-119718703D01*
X107794000Y-119549297D01*
X107760951Y-119383147D01*
X107696122Y-119226637D01*
X107602005Y-119085782D01*
X107482218Y-118965995D01*
X107341363Y-118871878D01*
X107184853Y-118807049D01*
X107018703Y-118774000D01*
X106849297Y-118774000D01*
X106683147Y-118807049D01*
X106526637Y-118871878D01*
X106385782Y-118965995D01*
X106265995Y-119085782D01*
X106171878Y-119226637D01*
X106107049Y-119383147D01*
X106074000Y-119549297D01*
X81861000Y-119549297D01*
X81861000Y-116542388D01*
X81886000Y-116416703D01*
X81886000Y-116247297D01*
X81852951Y-116081147D01*
X81788122Y-115924637D01*
X81694005Y-115783782D01*
X81574218Y-115663995D01*
X81433363Y-115569878D01*
X81276853Y-115505049D01*
X81177553Y-115485297D01*
X93755000Y-115485297D01*
X93755000Y-115654703D01*
X93788049Y-115820853D01*
X93852878Y-115977363D01*
X93946995Y-116118218D01*
X94066782Y-116238005D01*
X94207637Y-116332122D01*
X94364147Y-116396951D01*
X94530297Y-116430000D01*
X94699703Y-116430000D01*
X94825388Y-116405000D01*
X105961608Y-116405000D01*
X106087293Y-116430000D01*
X106256699Y-116430000D01*
X106422849Y-116396951D01*
X106579359Y-116332122D01*
X106720214Y-116238005D01*
X106840001Y-116118218D01*
X106934118Y-115977363D01*
X106998947Y-115820853D01*
X107031996Y-115654703D01*
X107031996Y-115485297D01*
X106998947Y-115319147D01*
X106934118Y-115162637D01*
X106840001Y-115021782D01*
X106720214Y-114901995D01*
X106579359Y-114807878D01*
X106422849Y-114743049D01*
X106256699Y-114710000D01*
X106087293Y-114710000D01*
X105961608Y-114735000D01*
X94825388Y-114735000D01*
X94699703Y-114710000D01*
X94530297Y-114710000D01*
X94364147Y-114743049D01*
X94207637Y-114807878D01*
X94066782Y-114901995D01*
X93946995Y-115021782D01*
X93852878Y-115162637D01*
X93788049Y-115319147D01*
X93755000Y-115485297D01*
X81177553Y-115485297D01*
X81110703Y-115472000D01*
X80941297Y-115472000D01*
X80775147Y-115505049D01*
X80618637Y-115569878D01*
X80477782Y-115663995D01*
X80390999Y-115750778D01*
X80304218Y-115663997D01*
X80163363Y-115569880D01*
X80006853Y-115505051D01*
X79840703Y-115472002D01*
X79671297Y-115472002D01*
X79505147Y-115505051D01*
X79348637Y-115569880D01*
X79207782Y-115663997D01*
X79121001Y-115750778D01*
X79034218Y-115663995D01*
X78893363Y-115569878D01*
X78736853Y-115505049D01*
X78570703Y-115472000D01*
X78401297Y-115472000D01*
X78235147Y-115505049D01*
X78078637Y-115569878D01*
X77937782Y-115663995D01*
X77817995Y-115783782D01*
X77723878Y-115924637D01*
X77659049Y-116081147D01*
X77626000Y-116247297D01*
X42824000Y-116247297D01*
X42824000Y-113453297D01*
X61624000Y-113453297D01*
X61624000Y-113622703D01*
X61657049Y-113788853D01*
X61721878Y-113945363D01*
X61815995Y-114086218D01*
X61935782Y-114206005D01*
X62076637Y-114300122D01*
X62233147Y-114364951D01*
X62399297Y-114398000D01*
X62568703Y-114398000D01*
X62694388Y-114373000D01*
X64305612Y-114373000D01*
X64431297Y-114398000D01*
X64600703Y-114398000D01*
X64766853Y-114364951D01*
X64923363Y-114300122D01*
X65064218Y-114206005D01*
X65184005Y-114086218D01*
X65278122Y-113945363D01*
X65342951Y-113788853D01*
X65376000Y-113622703D01*
X65376000Y-113453297D01*
X75340000Y-113453297D01*
X75340000Y-113622703D01*
X75373049Y-113788853D01*
X75437878Y-113945363D01*
X75531995Y-114086218D01*
X75651782Y-114206005D01*
X75792637Y-114300122D01*
X75949147Y-114364951D01*
X76115297Y-114398000D01*
X76284703Y-114398000D01*
X76410388Y-114373000D01*
X82339612Y-114373000D01*
X82465297Y-114398000D01*
X82634703Y-114398000D01*
X82800853Y-114364951D01*
X82957363Y-114300122D01*
X83098218Y-114206005D01*
X83218005Y-114086218D01*
X83312122Y-113945363D01*
X83376951Y-113788853D01*
X83410000Y-113622703D01*
X83410000Y-113453297D01*
X83376951Y-113287147D01*
X83312122Y-113130637D01*
X83218005Y-112989782D01*
X83098218Y-112869995D01*
X82957363Y-112775878D01*
X82800853Y-112711049D01*
X82634703Y-112678000D01*
X82465297Y-112678000D01*
X82339612Y-112703000D01*
X76410388Y-112703000D01*
X76284703Y-112678000D01*
X76115297Y-112678000D01*
X75949147Y-112711049D01*
X75792637Y-112775878D01*
X75651782Y-112869995D01*
X75531995Y-112989782D01*
X75437878Y-113130637D01*
X75373049Y-113287147D01*
X75340000Y-113453297D01*
X65376000Y-113453297D01*
X65342951Y-113287147D01*
X65278122Y-113130637D01*
X65184005Y-112989782D01*
X65064218Y-112869995D01*
X64923363Y-112775878D01*
X64766853Y-112711049D01*
X64600703Y-112678000D01*
X64431297Y-112678000D01*
X64305612Y-112703000D01*
X62694388Y-112703000D01*
X62568703Y-112678000D01*
X62399297Y-112678000D01*
X62233147Y-112711049D01*
X62076637Y-112775878D01*
X61935782Y-112869995D01*
X61815995Y-112989782D01*
X61721878Y-113130637D01*
X61657049Y-113287147D01*
X61624000Y-113453297D01*
X42824000Y-113453297D01*
X42824000Y-95927305D01*
X58068000Y-95927305D01*
X58068000Y-96096711D01*
X58101049Y-96262861D01*
X58165878Y-96419371D01*
X58259995Y-96560226D01*
X58379782Y-96680013D01*
X58520637Y-96774130D01*
X58677147Y-96838959D01*
X58843297Y-96872008D01*
X59012703Y-96872008D01*
X59178853Y-96838959D01*
X59335363Y-96774130D01*
X59476218Y-96680013D01*
X59596005Y-96560226D01*
X59667202Y-96453673D01*
X62800427Y-93320449D01*
X62832291Y-93294299D01*
X62936636Y-93167154D01*
X63014172Y-93022095D01*
X63061918Y-92864697D01*
X63074000Y-92742027D01*
X63078040Y-92701009D01*
X63074000Y-92659990D01*
X63074000Y-89091000D01*
X69151000Y-89091000D01*
X69151001Y-97630971D01*
X69146960Y-97672000D01*
X69163082Y-97835688D01*
X69210828Y-97993086D01*
X69288364Y-98138145D01*
X69288365Y-98138146D01*
X69392710Y-98265291D01*
X69424574Y-98291441D01*
X70920000Y-99786869D01*
X70920001Y-101635130D01*
X68838334Y-103716798D01*
X68731782Y-103787995D01*
X68611995Y-103907782D01*
X68517878Y-104048637D01*
X68453049Y-104205147D01*
X68420000Y-104371297D01*
X68420000Y-104540703D01*
X68453049Y-104706853D01*
X68517878Y-104863363D01*
X68611995Y-105004218D01*
X68731782Y-105124005D01*
X68872637Y-105218122D01*
X69029147Y-105282951D01*
X69195297Y-105316000D01*
X69364703Y-105316000D01*
X69530853Y-105282951D01*
X69687363Y-105218122D01*
X69828218Y-105124005D01*
X69948005Y-105004218D01*
X70019202Y-104897666D01*
X72316432Y-102600437D01*
X72348291Y-102574291D01*
X72452636Y-102447146D01*
X72530172Y-102302087D01*
X72577918Y-102144689D01*
X72590000Y-102022019D01*
X72590000Y-102022018D01*
X72594040Y-101981000D01*
X72590000Y-101939982D01*
X72590000Y-99651388D01*
X72615000Y-99525703D01*
X72615000Y-99356297D01*
X72581951Y-99190147D01*
X72517122Y-99033637D01*
X72423005Y-98892782D01*
X72303218Y-98772995D01*
X72196671Y-98701802D01*
X70821000Y-97326133D01*
X70821000Y-89227000D01*
X82393859Y-89227000D01*
X82474297Y-89243000D01*
X82643703Y-89243000D01*
X82769388Y-89218000D01*
X89707000Y-89218000D01*
X89707001Y-97866971D01*
X89702960Y-97908000D01*
X89719082Y-98071688D01*
X89766828Y-98229086D01*
X89841954Y-98369636D01*
X89844365Y-98374146D01*
X89948710Y-98501291D01*
X89980574Y-98527441D01*
X91367000Y-99913869D01*
X91367001Y-101889131D01*
X89412335Y-103843798D01*
X89305782Y-103914995D01*
X89185995Y-104034782D01*
X89091878Y-104175637D01*
X89027049Y-104332147D01*
X88994000Y-104498297D01*
X88994000Y-104667703D01*
X89019000Y-104793388D01*
X89019001Y-107338972D01*
X89014960Y-107380000D01*
X89031082Y-107543688D01*
X89078828Y-107701086D01*
X89078829Y-107701087D01*
X89156365Y-107846146D01*
X89260710Y-107973291D01*
X89292574Y-107999441D01*
X91972563Y-110679432D01*
X91998709Y-110711291D01*
X92030568Y-110737437D01*
X92030570Y-110737439D01*
X92111569Y-110803913D01*
X92125854Y-110815636D01*
X92270913Y-110893172D01*
X92428311Y-110940918D01*
X92550981Y-110953000D01*
X92550982Y-110953000D01*
X92592000Y-110957040D01*
X92633018Y-110953000D01*
X93821229Y-110953000D01*
X93918038Y-111070962D01*
X94052613Y-111181405D01*
X94206149Y-111263472D01*
X94372745Y-111314008D01*
X94545999Y-111331072D01*
X95446001Y-111331072D01*
X95619255Y-111314008D01*
X95785851Y-111263472D01*
X95939387Y-111181405D01*
X96073962Y-111070962D01*
X96075500Y-111069088D01*
X96077038Y-111070962D01*
X96211613Y-111181405D01*
X96365149Y-111263472D01*
X96531745Y-111314008D01*
X96704999Y-111331072D01*
X97605001Y-111331072D01*
X97778255Y-111314008D01*
X97944851Y-111263472D01*
X98098387Y-111181405D01*
X98232962Y-111070962D01*
X98234500Y-111069088D01*
X98236038Y-111070962D01*
X98370613Y-111181405D01*
X98524149Y-111263472D01*
X98690745Y-111314008D01*
X98863999Y-111331072D01*
X99764001Y-111331072D01*
X99937255Y-111314008D01*
X100103851Y-111263472D01*
X100257387Y-111181405D01*
X100390000Y-111072572D01*
X100390001Y-113432774D01*
X100390000Y-113432784D01*
X100390000Y-113581612D01*
X100365000Y-113707297D01*
X100365000Y-113876703D01*
X100398049Y-114042853D01*
X100462878Y-114199363D01*
X100556995Y-114340218D01*
X100676782Y-114460005D01*
X100817637Y-114554122D01*
X100974147Y-114618951D01*
X101140297Y-114652000D01*
X101309703Y-114652000D01*
X101475853Y-114618951D01*
X101632363Y-114554122D01*
X101773218Y-114460005D01*
X101893005Y-114340218D01*
X101987122Y-114199363D01*
X102051951Y-114042853D01*
X102085000Y-113876703D01*
X102085000Y-113707297D01*
X102060000Y-113581612D01*
X102060000Y-111421297D01*
X104423000Y-111421297D01*
X104423000Y-111590703D01*
X104448000Y-111716388D01*
X104448001Y-113581608D01*
X104423000Y-113707297D01*
X104423000Y-113876703D01*
X104456049Y-114042853D01*
X104520878Y-114199363D01*
X104614995Y-114340218D01*
X104734782Y-114460005D01*
X104875637Y-114554122D01*
X105032147Y-114618951D01*
X105198297Y-114652000D01*
X105367703Y-114652000D01*
X105533853Y-114618951D01*
X105690363Y-114554122D01*
X105831218Y-114460005D01*
X105951005Y-114340218D01*
X106045122Y-114199363D01*
X106109951Y-114042853D01*
X106126173Y-113961297D01*
X111027000Y-113961297D01*
X111027000Y-114130703D01*
X111060049Y-114296853D01*
X111124878Y-114453363D01*
X111218995Y-114594218D01*
X111338782Y-114714005D01*
X111479637Y-114808122D01*
X111636147Y-114872951D01*
X111802297Y-114906000D01*
X111971703Y-114906000D01*
X112137853Y-114872951D01*
X112294363Y-114808122D01*
X112435218Y-114714005D01*
X112555005Y-114594218D01*
X112649122Y-114453363D01*
X112713951Y-114296853D01*
X112747000Y-114130703D01*
X112747000Y-113961297D01*
X112722004Y-113835633D01*
X112722004Y-112183295D01*
X118520000Y-112183295D01*
X118520000Y-112352701D01*
X118545000Y-112478386D01*
X118545001Y-114597608D01*
X118520000Y-114723297D01*
X118520000Y-114892703D01*
X118553049Y-115058853D01*
X118617878Y-115215363D01*
X118711995Y-115356218D01*
X118831782Y-115476005D01*
X118972637Y-115570122D01*
X119129147Y-115634951D01*
X119295297Y-115668000D01*
X119464703Y-115668000D01*
X119630853Y-115634951D01*
X119787363Y-115570122D01*
X119928218Y-115476005D01*
X120048005Y-115356218D01*
X120142122Y-115215363D01*
X120206951Y-115058853D01*
X120240000Y-114892703D01*
X120240000Y-114723297D01*
X120215000Y-114597612D01*
X120215000Y-112478386D01*
X120240000Y-112352701D01*
X120240000Y-112183295D01*
X120216529Y-112065297D01*
X124734000Y-112065297D01*
X124734000Y-112234703D01*
X124759000Y-112360388D01*
X124759001Y-114642854D01*
X124743000Y-114723297D01*
X124743000Y-114892703D01*
X124776049Y-115058853D01*
X124840878Y-115215363D01*
X124934995Y-115356218D01*
X125054782Y-115476005D01*
X125195637Y-115570122D01*
X125352147Y-115634951D01*
X125518297Y-115668000D01*
X125687703Y-115668000D01*
X125853853Y-115634951D01*
X126010363Y-115570122D01*
X126151218Y-115476005D01*
X126271005Y-115356218D01*
X126365122Y-115215363D01*
X126429951Y-115058853D01*
X126463000Y-114892703D01*
X126463000Y-114723297D01*
X126429951Y-114557147D01*
X126429000Y-114554851D01*
X126429000Y-113961297D01*
X131220028Y-113961297D01*
X131220028Y-114130703D01*
X131253077Y-114296853D01*
X131317906Y-114453363D01*
X131412023Y-114594218D01*
X131531810Y-114714005D01*
X131672665Y-114808122D01*
X131829175Y-114872951D01*
X131995325Y-114906000D01*
X132164731Y-114906000D01*
X132330881Y-114872951D01*
X132487391Y-114808122D01*
X132628246Y-114714005D01*
X132748033Y-114594218D01*
X132813560Y-114496151D01*
X132904636Y-114385174D01*
X132982172Y-114240115D01*
X133029918Y-114082717D01*
X133042000Y-113960047D01*
X133042000Y-113960046D01*
X133046040Y-113919028D01*
X133042000Y-113878010D01*
X133042000Y-111335388D01*
X133067000Y-111209703D01*
X133067000Y-111040297D01*
X133033951Y-110874147D01*
X132969122Y-110717637D01*
X132875005Y-110576782D01*
X132755218Y-110456995D01*
X132614363Y-110362878D01*
X132457853Y-110298049D01*
X132291703Y-110265000D01*
X132122297Y-110265000D01*
X131956147Y-110298049D01*
X131799637Y-110362878D01*
X131658782Y-110456995D01*
X131538995Y-110576782D01*
X131444878Y-110717637D01*
X131380049Y-110874147D01*
X131347000Y-111040297D01*
X131347000Y-111209703D01*
X131372001Y-111335392D01*
X131372000Y-113557680D01*
X131317906Y-113638637D01*
X131253077Y-113795147D01*
X131220028Y-113961297D01*
X126429000Y-113961297D01*
X126429000Y-112360388D01*
X126454000Y-112234703D01*
X126454000Y-112065297D01*
X126420951Y-111899147D01*
X126356122Y-111742637D01*
X126262005Y-111601782D01*
X126142218Y-111481995D01*
X126001363Y-111387878D01*
X125844853Y-111323049D01*
X125678703Y-111290000D01*
X125509297Y-111290000D01*
X125343147Y-111323049D01*
X125186637Y-111387878D01*
X125045782Y-111481995D01*
X124925995Y-111601782D01*
X124831878Y-111742637D01*
X124767049Y-111899147D01*
X124734000Y-112065297D01*
X120216529Y-112065297D01*
X120206951Y-112017145D01*
X120142122Y-111860635D01*
X120048005Y-111719780D01*
X119928218Y-111599993D01*
X119787363Y-111505876D01*
X119630853Y-111441047D01*
X119464703Y-111407998D01*
X119295297Y-111407998D01*
X119129147Y-111441047D01*
X118972637Y-111505876D01*
X118831782Y-111599993D01*
X118711995Y-111719780D01*
X118617878Y-111860635D01*
X118553049Y-112017145D01*
X118520000Y-112183295D01*
X112722004Y-112183295D01*
X112722004Y-111589396D01*
X112747004Y-111463711D01*
X112747004Y-111294305D01*
X112713955Y-111128155D01*
X112649126Y-110971645D01*
X112555009Y-110830790D01*
X112435222Y-110711003D01*
X112294367Y-110616886D01*
X112137857Y-110552057D01*
X111971707Y-110519008D01*
X111802301Y-110519008D01*
X111636151Y-110552057D01*
X111479641Y-110616886D01*
X111338786Y-110711003D01*
X111218999Y-110830790D01*
X111124882Y-110971645D01*
X111060053Y-111128155D01*
X111027004Y-111294305D01*
X111027004Y-111463711D01*
X111052004Y-111589396D01*
X111052005Y-113835588D01*
X111027000Y-113961297D01*
X106126173Y-113961297D01*
X106143000Y-113876703D01*
X106143000Y-113707297D01*
X106118000Y-113581612D01*
X106118000Y-111716388D01*
X106143000Y-111590703D01*
X106143000Y-111421297D01*
X106109951Y-111255147D01*
X106045122Y-111098637D01*
X105951005Y-110957782D01*
X105831218Y-110837995D01*
X105690363Y-110743878D01*
X105533853Y-110679049D01*
X105367703Y-110646000D01*
X105198297Y-110646000D01*
X105032147Y-110679049D01*
X104875637Y-110743878D01*
X104734782Y-110837995D01*
X104614995Y-110957782D01*
X104520878Y-111098637D01*
X104456049Y-111255147D01*
X104423000Y-111421297D01*
X102060000Y-111421297D01*
X102060000Y-111317579D01*
X102096255Y-111314008D01*
X102262851Y-111263472D01*
X102416387Y-111181405D01*
X102550962Y-111070962D01*
X102661405Y-110936387D01*
X102743472Y-110782851D01*
X102794008Y-110616255D01*
X102811072Y-110443001D01*
X102811072Y-109792999D01*
X102794008Y-109619745D01*
X102743472Y-109453149D01*
X102661405Y-109299613D01*
X102550962Y-109165038D01*
X102416387Y-109054595D01*
X102262851Y-108972528D01*
X102096255Y-108921992D01*
X101923001Y-108904928D01*
X101022999Y-108904928D01*
X100849745Y-108921992D01*
X100683149Y-108972528D01*
X100529613Y-109054595D01*
X100395038Y-109165038D01*
X100393500Y-109166912D01*
X100391962Y-109165038D01*
X100257387Y-109054595D01*
X100103851Y-108972528D01*
X99937255Y-108921992D01*
X99764001Y-108904928D01*
X98863999Y-108904928D01*
X98690745Y-108921992D01*
X98524149Y-108972528D01*
X98370613Y-109054595D01*
X98236038Y-109165038D01*
X98234500Y-109166912D01*
X98232962Y-109165038D01*
X98098387Y-109054595D01*
X97944851Y-108972528D01*
X97778255Y-108921992D01*
X97605001Y-108904928D01*
X96704999Y-108904928D01*
X96531745Y-108921992D01*
X96365149Y-108972528D01*
X96211613Y-109054595D01*
X96077038Y-109165038D01*
X96075500Y-109166912D01*
X96073962Y-109165038D01*
X95939387Y-109054595D01*
X95785851Y-108972528D01*
X95619255Y-108921992D01*
X95446001Y-108904928D01*
X94545999Y-108904928D01*
X94372745Y-108921992D01*
X94206149Y-108972528D01*
X94052613Y-109054595D01*
X93918038Y-109165038D01*
X93821229Y-109283000D01*
X92937869Y-109283000D01*
X90689000Y-107034133D01*
X90689000Y-104928867D01*
X92763427Y-102854441D01*
X92795291Y-102828291D01*
X92899636Y-102701146D01*
X92977172Y-102556087D01*
X93024918Y-102398689D01*
X93037000Y-102276019D01*
X93037000Y-102276009D01*
X93041039Y-102235001D01*
X93037000Y-102193993D01*
X93037000Y-99778388D01*
X93062000Y-99652703D01*
X93062000Y-99483297D01*
X93028951Y-99317147D01*
X92964122Y-99160637D01*
X92870005Y-99019782D01*
X92750218Y-98899995D01*
X92643671Y-98828802D01*
X91377000Y-97562133D01*
X91377000Y-89218000D01*
X103049612Y-89218000D01*
X103175297Y-89243000D01*
X103344703Y-89243000D01*
X103470388Y-89218000D01*
X109392000Y-89218000D01*
X109392001Y-96596971D01*
X109387960Y-96638000D01*
X109404082Y-96801688D01*
X109451828Y-96959086D01*
X109515769Y-97078710D01*
X109529365Y-97104146D01*
X109633710Y-97231291D01*
X109665574Y-97257441D01*
X112195000Y-99786869D01*
X112195001Y-101635130D01*
X109986334Y-103843798D01*
X109879782Y-103914995D01*
X109759995Y-104034782D01*
X109665878Y-104175637D01*
X109601049Y-104332147D01*
X109568000Y-104498297D01*
X109568000Y-104667703D01*
X109601049Y-104833853D01*
X109665878Y-104990363D01*
X109759995Y-105131218D01*
X109879782Y-105251005D01*
X110020637Y-105345122D01*
X110177147Y-105409951D01*
X110343297Y-105443000D01*
X110512703Y-105443000D01*
X110678853Y-105409951D01*
X110835363Y-105345122D01*
X110976218Y-105251005D01*
X111096005Y-105131218D01*
X111167202Y-105024666D01*
X113591432Y-102600437D01*
X113623291Y-102574291D01*
X113727636Y-102447146D01*
X113805172Y-102302087D01*
X113852918Y-102144689D01*
X113865000Y-102022019D01*
X113865000Y-102022018D01*
X113869040Y-101981000D01*
X113865000Y-101939982D01*
X113865000Y-99651388D01*
X113890000Y-99525703D01*
X113890000Y-99356297D01*
X113856951Y-99190147D01*
X113792122Y-99033637D01*
X113698005Y-98892782D01*
X113578218Y-98772995D01*
X113471671Y-98701802D01*
X111062000Y-96292133D01*
X111062000Y-89218000D01*
X123496612Y-89218000D01*
X123622297Y-89243000D01*
X123791703Y-89243000D01*
X123917388Y-89218000D01*
X126010133Y-89218000D01*
X132388000Y-95595869D01*
X132388001Y-99230608D01*
X132363000Y-99356297D01*
X132363000Y-99525703D01*
X132388000Y-99651388D01*
X132388001Y-101886131D01*
X130430335Y-103843798D01*
X130323782Y-103914995D01*
X130203995Y-104034782D01*
X130109878Y-104175637D01*
X130045049Y-104332147D01*
X130012000Y-104498297D01*
X130012000Y-104667703D01*
X130045049Y-104833853D01*
X130109878Y-104990363D01*
X130203995Y-105131218D01*
X130323782Y-105251005D01*
X130464637Y-105345122D01*
X130621147Y-105409951D01*
X130787297Y-105443000D01*
X130956703Y-105443000D01*
X131122853Y-105409951D01*
X131279363Y-105345122D01*
X131420218Y-105251005D01*
X131540005Y-105131218D01*
X131611202Y-105024665D01*
X133784427Y-102851441D01*
X133816291Y-102825291D01*
X133920636Y-102698146D01*
X133998172Y-102553087D01*
X134045918Y-102395689D01*
X134058000Y-102273019D01*
X134062040Y-102232001D01*
X134058000Y-102190982D01*
X134058000Y-99651388D01*
X134083000Y-99525703D01*
X134083000Y-99356297D01*
X134058000Y-99230612D01*
X134058000Y-95291018D01*
X134062040Y-95250000D01*
X134045918Y-95086312D01*
X133998172Y-94928913D01*
X133920636Y-94783854D01*
X133816291Y-94656709D01*
X133784433Y-94630564D01*
X126975446Y-87821579D01*
X126949291Y-87789709D01*
X126822146Y-87685364D01*
X126677087Y-87607828D01*
X126519689Y-87560082D01*
X126397019Y-87548000D01*
X126397018Y-87548000D01*
X126356000Y-87543960D01*
X126314982Y-87548000D01*
X123917388Y-87548000D01*
X123791703Y-87523000D01*
X123622297Y-87523000D01*
X123496612Y-87548000D01*
X110268018Y-87548000D01*
X110227000Y-87543960D01*
X110185981Y-87548000D01*
X103470388Y-87548000D01*
X103344703Y-87523000D01*
X103175297Y-87523000D01*
X103049612Y-87548000D01*
X90583018Y-87548000D01*
X90542000Y-87543960D01*
X90500981Y-87548000D01*
X82769388Y-87548000D01*
X82643703Y-87523000D01*
X82474297Y-87523000D01*
X82308147Y-87556049D01*
X82305851Y-87557000D01*
X70449594Y-87557000D01*
X70307087Y-87480828D01*
X70149689Y-87433082D01*
X70027019Y-87421000D01*
X70027018Y-87421000D01*
X69986000Y-87416960D01*
X69944981Y-87421000D01*
X62449388Y-87421000D01*
X62323703Y-87396000D01*
X62154297Y-87396000D01*
X61988147Y-87429049D01*
X61831637Y-87493878D01*
X61690782Y-87587995D01*
X61570995Y-87707782D01*
X61476878Y-87848637D01*
X61412049Y-88005147D01*
X61379000Y-88171297D01*
X61379000Y-88340703D01*
X61404000Y-88466388D01*
X61404001Y-92355139D01*
X58486335Y-95272806D01*
X58379782Y-95344003D01*
X58259995Y-95463790D01*
X58165878Y-95604645D01*
X58101049Y-95761155D01*
X58068000Y-95927305D01*
X42824000Y-95927305D01*
X42824000Y-84524898D01*
X60988000Y-84524898D01*
X60988000Y-84994702D01*
X61079654Y-85455479D01*
X61259440Y-85889521D01*
X61520450Y-86280149D01*
X61852651Y-86612350D01*
X62243279Y-86873360D01*
X62677321Y-87053146D01*
X63138098Y-87144800D01*
X63607902Y-87144800D01*
X64068679Y-87053146D01*
X64502721Y-86873360D01*
X64893349Y-86612350D01*
X65225550Y-86280149D01*
X65486560Y-85889521D01*
X65666346Y-85455479D01*
X65758000Y-84994702D01*
X65758000Y-84524898D01*
X65666346Y-84064121D01*
X65486560Y-83630079D01*
X65286787Y-83331098D01*
X69344600Y-83331098D01*
X69344600Y-83800902D01*
X69436254Y-84261679D01*
X69616040Y-84695721D01*
X69877050Y-85086349D01*
X70209251Y-85418550D01*
X70599879Y-85679560D01*
X71033921Y-85859346D01*
X71494698Y-85951000D01*
X71964502Y-85951000D01*
X72425279Y-85859346D01*
X72859321Y-85679560D01*
X73249949Y-85418550D01*
X73582150Y-85086349D01*
X73843160Y-84695721D01*
X73913917Y-84524898D01*
X81536600Y-84524898D01*
X81536600Y-84994702D01*
X81628254Y-85455479D01*
X81808040Y-85889521D01*
X82069050Y-86280149D01*
X82401251Y-86612350D01*
X82791879Y-86873360D01*
X83225921Y-87053146D01*
X83686698Y-87144800D01*
X84156502Y-87144800D01*
X84617279Y-87053146D01*
X85051321Y-86873360D01*
X85441949Y-86612350D01*
X85774150Y-86280149D01*
X86035160Y-85889521D01*
X86214946Y-85455479D01*
X86306600Y-84994702D01*
X86306600Y-84524898D01*
X86214946Y-84064121D01*
X86035160Y-83630079D01*
X85835387Y-83331098D01*
X89893200Y-83331098D01*
X89893200Y-83800902D01*
X89984854Y-84261679D01*
X90164640Y-84695721D01*
X90425650Y-85086349D01*
X90757851Y-85418550D01*
X91148479Y-85679560D01*
X91582521Y-85859346D01*
X92043298Y-85951000D01*
X92513102Y-85951000D01*
X92973879Y-85859346D01*
X93407921Y-85679560D01*
X93798549Y-85418550D01*
X94130750Y-85086349D01*
X94391760Y-84695721D01*
X94462517Y-84524898D01*
X102110600Y-84524898D01*
X102110600Y-84994702D01*
X102202254Y-85455479D01*
X102382040Y-85889521D01*
X102643050Y-86280149D01*
X102975251Y-86612350D01*
X103365879Y-86873360D01*
X103799921Y-87053146D01*
X104260698Y-87144800D01*
X104730502Y-87144800D01*
X105191279Y-87053146D01*
X105625321Y-86873360D01*
X106015949Y-86612350D01*
X106348150Y-86280149D01*
X106609160Y-85889521D01*
X106788946Y-85455479D01*
X106880600Y-84994702D01*
X106880600Y-84524898D01*
X106788946Y-84064121D01*
X106609160Y-83630079D01*
X106409387Y-83331098D01*
X110467200Y-83331098D01*
X110467200Y-83800902D01*
X110558854Y-84261679D01*
X110738640Y-84695721D01*
X110999650Y-85086349D01*
X111331851Y-85418550D01*
X111722479Y-85679560D01*
X112156521Y-85859346D01*
X112617298Y-85951000D01*
X113087102Y-85951000D01*
X113547879Y-85859346D01*
X113981921Y-85679560D01*
X114372549Y-85418550D01*
X114704750Y-85086349D01*
X114965760Y-84695721D01*
X115036517Y-84524898D01*
X122710000Y-84524898D01*
X122710000Y-84994702D01*
X122801654Y-85455479D01*
X122981440Y-85889521D01*
X123242450Y-86280149D01*
X123574651Y-86612350D01*
X123965279Y-86873360D01*
X124399321Y-87053146D01*
X124860098Y-87144800D01*
X125329902Y-87144800D01*
X125790679Y-87053146D01*
X126224721Y-86873360D01*
X126615349Y-86612350D01*
X126947550Y-86280149D01*
X127208560Y-85889521D01*
X127388346Y-85455479D01*
X127480000Y-84994702D01*
X127480000Y-84524898D01*
X127388346Y-84064121D01*
X127208560Y-83630079D01*
X127008787Y-83331098D01*
X131066600Y-83331098D01*
X131066600Y-83800902D01*
X131158254Y-84261679D01*
X131338040Y-84695721D01*
X131599050Y-85086349D01*
X131931251Y-85418550D01*
X132321879Y-85679560D01*
X132755921Y-85859346D01*
X133216698Y-85951000D01*
X133686502Y-85951000D01*
X134147279Y-85859346D01*
X134581321Y-85679560D01*
X134971949Y-85418550D01*
X135304150Y-85086349D01*
X135565160Y-84695721D01*
X135744946Y-84261679D01*
X135836600Y-83800902D01*
X135836600Y-83331098D01*
X135744946Y-82870321D01*
X135565160Y-82436279D01*
X135304150Y-82045651D01*
X134971949Y-81713450D01*
X134581321Y-81452440D01*
X134147279Y-81272654D01*
X133686502Y-81181000D01*
X133216698Y-81181000D01*
X132755921Y-81272654D01*
X132321879Y-81452440D01*
X131931251Y-81713450D01*
X131599050Y-82045651D01*
X131338040Y-82436279D01*
X131158254Y-82870321D01*
X131066600Y-83331098D01*
X127008787Y-83331098D01*
X126947550Y-83239451D01*
X126615349Y-82907250D01*
X126224721Y-82646240D01*
X125790679Y-82466454D01*
X125329902Y-82374800D01*
X124860098Y-82374800D01*
X124399321Y-82466454D01*
X123965279Y-82646240D01*
X123574651Y-82907250D01*
X123242450Y-83239451D01*
X122981440Y-83630079D01*
X122801654Y-84064121D01*
X122710000Y-84524898D01*
X115036517Y-84524898D01*
X115145546Y-84261679D01*
X115237200Y-83800902D01*
X115237200Y-83331098D01*
X115145546Y-82870321D01*
X114965760Y-82436279D01*
X114704750Y-82045651D01*
X114372549Y-81713450D01*
X113981921Y-81452440D01*
X113547879Y-81272654D01*
X113087102Y-81181000D01*
X112617298Y-81181000D01*
X112156521Y-81272654D01*
X111722479Y-81452440D01*
X111331851Y-81713450D01*
X110999650Y-82045651D01*
X110738640Y-82436279D01*
X110558854Y-82870321D01*
X110467200Y-83331098D01*
X106409387Y-83331098D01*
X106348150Y-83239451D01*
X106015949Y-82907250D01*
X105625321Y-82646240D01*
X105191279Y-82466454D01*
X104730502Y-82374800D01*
X104260698Y-82374800D01*
X103799921Y-82466454D01*
X103365879Y-82646240D01*
X102975251Y-82907250D01*
X102643050Y-83239451D01*
X102382040Y-83630079D01*
X102202254Y-84064121D01*
X102110600Y-84524898D01*
X94462517Y-84524898D01*
X94571546Y-84261679D01*
X94663200Y-83800902D01*
X94663200Y-83331098D01*
X94571546Y-82870321D01*
X94391760Y-82436279D01*
X94130750Y-82045651D01*
X93798549Y-81713450D01*
X93407921Y-81452440D01*
X92973879Y-81272654D01*
X92513102Y-81181000D01*
X92043298Y-81181000D01*
X91582521Y-81272654D01*
X91148479Y-81452440D01*
X90757851Y-81713450D01*
X90425650Y-82045651D01*
X90164640Y-82436279D01*
X89984854Y-82870321D01*
X89893200Y-83331098D01*
X85835387Y-83331098D01*
X85774150Y-83239451D01*
X85441949Y-82907250D01*
X85051321Y-82646240D01*
X84617279Y-82466454D01*
X84156502Y-82374800D01*
X83686698Y-82374800D01*
X83225921Y-82466454D01*
X82791879Y-82646240D01*
X82401251Y-82907250D01*
X82069050Y-83239451D01*
X81808040Y-83630079D01*
X81628254Y-84064121D01*
X81536600Y-84524898D01*
X73913917Y-84524898D01*
X74022946Y-84261679D01*
X74114600Y-83800902D01*
X74114600Y-83331098D01*
X74022946Y-82870321D01*
X73843160Y-82436279D01*
X73582150Y-82045651D01*
X73249949Y-81713450D01*
X72859321Y-81452440D01*
X72425279Y-81272654D01*
X71964502Y-81181000D01*
X71494698Y-81181000D01*
X71033921Y-81272654D01*
X70599879Y-81452440D01*
X70209251Y-81713450D01*
X69877050Y-82045651D01*
X69616040Y-82436279D01*
X69436254Y-82870321D01*
X69344600Y-83331098D01*
X65286787Y-83331098D01*
X65225550Y-83239451D01*
X64893349Y-82907250D01*
X64502721Y-82646240D01*
X64068679Y-82466454D01*
X63607902Y-82374800D01*
X63138098Y-82374800D01*
X62677321Y-82466454D01*
X62243279Y-82646240D01*
X61852651Y-82907250D01*
X61520450Y-83239451D01*
X61259440Y-83630079D01*
X61079654Y-84064121D01*
X60988000Y-84524898D01*
X42824000Y-84524898D01*
X42824000Y-79240144D01*
X63926400Y-79240144D01*
X63926400Y-79611456D01*
X63998839Y-79975634D01*
X64140934Y-80318682D01*
X64347225Y-80627418D01*
X64609782Y-80889975D01*
X64918518Y-81096266D01*
X65261566Y-81238361D01*
X65625744Y-81310800D01*
X65997056Y-81310800D01*
X66361234Y-81238361D01*
X66704282Y-81096266D01*
X67013018Y-80889975D01*
X67275575Y-80627418D01*
X67481866Y-80318682D01*
X67564000Y-80120393D01*
X67646134Y-80318682D01*
X67852425Y-80627418D01*
X68114982Y-80889975D01*
X68423718Y-81096266D01*
X68766766Y-81238361D01*
X69130944Y-81310800D01*
X69502256Y-81310800D01*
X69866434Y-81238361D01*
X70209482Y-81096266D01*
X70518218Y-80889975D01*
X70780775Y-80627418D01*
X70987066Y-80318682D01*
X71129161Y-79975634D01*
X71201600Y-79611456D01*
X71201600Y-79240144D01*
X84475000Y-79240144D01*
X84475000Y-79611456D01*
X84547439Y-79975634D01*
X84689534Y-80318682D01*
X84895825Y-80627418D01*
X85158382Y-80889975D01*
X85467118Y-81096266D01*
X85810166Y-81238361D01*
X86174344Y-81310800D01*
X86545656Y-81310800D01*
X86909834Y-81238361D01*
X87252882Y-81096266D01*
X87561618Y-80889975D01*
X87824175Y-80627418D01*
X88030466Y-80318682D01*
X88112600Y-80120393D01*
X88194734Y-80318682D01*
X88401025Y-80627418D01*
X88663582Y-80889975D01*
X88972318Y-81096266D01*
X89315366Y-81238361D01*
X89679544Y-81310800D01*
X90050856Y-81310800D01*
X90415034Y-81238361D01*
X90758082Y-81096266D01*
X91066818Y-80889975D01*
X91329375Y-80627418D01*
X91535666Y-80318682D01*
X91677761Y-79975634D01*
X91750200Y-79611456D01*
X91750200Y-79240144D01*
X105049000Y-79240144D01*
X105049000Y-79611456D01*
X105121439Y-79975634D01*
X105263534Y-80318682D01*
X105469825Y-80627418D01*
X105732382Y-80889975D01*
X106041118Y-81096266D01*
X106384166Y-81238361D01*
X106748344Y-81310800D01*
X107119656Y-81310800D01*
X107483834Y-81238361D01*
X107826882Y-81096266D01*
X108135618Y-80889975D01*
X108398175Y-80627418D01*
X108604466Y-80318682D01*
X108686600Y-80120393D01*
X108768734Y-80318682D01*
X108975025Y-80627418D01*
X109237582Y-80889975D01*
X109546318Y-81096266D01*
X109889366Y-81238361D01*
X110253544Y-81310800D01*
X110624856Y-81310800D01*
X110989034Y-81238361D01*
X111332082Y-81096266D01*
X111640818Y-80889975D01*
X111903375Y-80627418D01*
X112109666Y-80318682D01*
X112251761Y-79975634D01*
X112324200Y-79611456D01*
X112324200Y-79240144D01*
X125648400Y-79240144D01*
X125648400Y-79611456D01*
X125720839Y-79975634D01*
X125862934Y-80318682D01*
X126069225Y-80627418D01*
X126331782Y-80889975D01*
X126640518Y-81096266D01*
X126983566Y-81238361D01*
X127347744Y-81310800D01*
X127719056Y-81310800D01*
X128083234Y-81238361D01*
X128426282Y-81096266D01*
X128735018Y-80889975D01*
X128997575Y-80627418D01*
X129203866Y-80318682D01*
X129286000Y-80120393D01*
X129368134Y-80318682D01*
X129574425Y-80627418D01*
X129836982Y-80889975D01*
X130145718Y-81096266D01*
X130488766Y-81238361D01*
X130852944Y-81310800D01*
X131224256Y-81310800D01*
X131588434Y-81238361D01*
X131931482Y-81096266D01*
X132240218Y-80889975D01*
X132502775Y-80627418D01*
X132709066Y-80318682D01*
X132851161Y-79975634D01*
X132923600Y-79611456D01*
X132923600Y-79240144D01*
X132851161Y-78875966D01*
X132709066Y-78532918D01*
X132502775Y-78224182D01*
X132240218Y-77961625D01*
X131931482Y-77755334D01*
X131588434Y-77613239D01*
X131224256Y-77540800D01*
X130852944Y-77540800D01*
X130488766Y-77613239D01*
X130145718Y-77755334D01*
X129836982Y-77961625D01*
X129574425Y-78224182D01*
X129368134Y-78532918D01*
X129286000Y-78731207D01*
X129203866Y-78532918D01*
X128997575Y-78224182D01*
X128735018Y-77961625D01*
X128426282Y-77755334D01*
X128083234Y-77613239D01*
X127719056Y-77540800D01*
X127347744Y-77540800D01*
X126983566Y-77613239D01*
X126640518Y-77755334D01*
X126331782Y-77961625D01*
X126069225Y-78224182D01*
X125862934Y-78532918D01*
X125720839Y-78875966D01*
X125648400Y-79240144D01*
X112324200Y-79240144D01*
X112251761Y-78875966D01*
X112109666Y-78532918D01*
X111903375Y-78224182D01*
X111640818Y-77961625D01*
X111332082Y-77755334D01*
X110989034Y-77613239D01*
X110624856Y-77540800D01*
X110253544Y-77540800D01*
X109889366Y-77613239D01*
X109546318Y-77755334D01*
X109237582Y-77961625D01*
X108975025Y-78224182D01*
X108768734Y-78532918D01*
X108686600Y-78731207D01*
X108604466Y-78532918D01*
X108398175Y-78224182D01*
X108135618Y-77961625D01*
X107826882Y-77755334D01*
X107483834Y-77613239D01*
X107119656Y-77540800D01*
X106748344Y-77540800D01*
X106384166Y-77613239D01*
X106041118Y-77755334D01*
X105732382Y-77961625D01*
X105469825Y-78224182D01*
X105263534Y-78532918D01*
X105121439Y-78875966D01*
X105049000Y-79240144D01*
X91750200Y-79240144D01*
X91677761Y-78875966D01*
X91535666Y-78532918D01*
X91329375Y-78224182D01*
X91066818Y-77961625D01*
X90758082Y-77755334D01*
X90415034Y-77613239D01*
X90050856Y-77540800D01*
X89679544Y-77540800D01*
X89315366Y-77613239D01*
X88972318Y-77755334D01*
X88663582Y-77961625D01*
X88401025Y-78224182D01*
X88194734Y-78532918D01*
X88112600Y-78731207D01*
X88030466Y-78532918D01*
X87824175Y-78224182D01*
X87561618Y-77961625D01*
X87252882Y-77755334D01*
X86909834Y-77613239D01*
X86545656Y-77540800D01*
X86174344Y-77540800D01*
X85810166Y-77613239D01*
X85467118Y-77755334D01*
X85158382Y-77961625D01*
X84895825Y-78224182D01*
X84689534Y-78532918D01*
X84547439Y-78875966D01*
X84475000Y-79240144D01*
X71201600Y-79240144D01*
X71129161Y-78875966D01*
X70987066Y-78532918D01*
X70780775Y-78224182D01*
X70518218Y-77961625D01*
X70209482Y-77755334D01*
X69866434Y-77613239D01*
X69502256Y-77540800D01*
X69130944Y-77540800D01*
X68766766Y-77613239D01*
X68423718Y-77755334D01*
X68114982Y-77961625D01*
X67852425Y-78224182D01*
X67646134Y-78532918D01*
X67564000Y-78731207D01*
X67481866Y-78532918D01*
X67275575Y-78224182D01*
X67013018Y-77961625D01*
X66704282Y-77755334D01*
X66361234Y-77613239D01*
X65997056Y-77540800D01*
X65625744Y-77540800D01*
X65261566Y-77613239D01*
X64918518Y-77755334D01*
X64609782Y-77961625D01*
X64347225Y-78224182D01*
X64140934Y-78532918D01*
X63998839Y-78875966D01*
X63926400Y-79240144D01*
X42824000Y-79240144D01*
X42824000Y-73802000D01*
X47316928Y-73802000D01*
X47316928Y-75552000D01*
X47346001Y-75847186D01*
X47432104Y-76131028D01*
X47571927Y-76392618D01*
X47760097Y-76621903D01*
X47989382Y-76810073D01*
X48250972Y-76949896D01*
X48534814Y-77035999D01*
X48830000Y-77065072D01*
X50580000Y-77065072D01*
X50875186Y-77035999D01*
X51159028Y-76949896D01*
X51420618Y-76810073D01*
X51649903Y-76621903D01*
X51838073Y-76392618D01*
X51977896Y-76131028D01*
X52063999Y-75847186D01*
X52093072Y-75552000D01*
X52093072Y-73802000D01*
X52063999Y-73506814D01*
X51977896Y-73222972D01*
X51838073Y-72961382D01*
X51649903Y-72732097D01*
X51420618Y-72543927D01*
X51159028Y-72404104D01*
X50875186Y-72318001D01*
X50580000Y-72288928D01*
X48830000Y-72288928D01*
X48534814Y-72318001D01*
X48250972Y-72404104D01*
X47989382Y-72543927D01*
X47760097Y-72732097D01*
X47571927Y-72961382D01*
X47432104Y-73222972D01*
X47346001Y-73506814D01*
X47316928Y-73802000D01*
X42824000Y-73802000D01*
X42824000Y-68977000D01*
X44566928Y-68977000D01*
X44566928Y-70977000D01*
X44593599Y-71247799D01*
X44672589Y-71508192D01*
X44800860Y-71748171D01*
X44973485Y-71958515D01*
X45183829Y-72131140D01*
X45423808Y-72259411D01*
X45684201Y-72338401D01*
X45955000Y-72365072D01*
X47455000Y-72365072D01*
X47725799Y-72338401D01*
X47986192Y-72259411D01*
X48226171Y-72131140D01*
X48436515Y-71958515D01*
X48609140Y-71748171D01*
X48737411Y-71508192D01*
X48745592Y-71481221D01*
X58190000Y-71481221D01*
X58190000Y-71901779D01*
X58272047Y-72314256D01*
X58432988Y-72702802D01*
X58666637Y-73052483D01*
X58964017Y-73349863D01*
X59313698Y-73583512D01*
X59702244Y-73744453D01*
X60114721Y-73826500D01*
X60535279Y-73826500D01*
X60947756Y-73744453D01*
X61336302Y-73583512D01*
X61685983Y-73349863D01*
X61983363Y-73052483D01*
X62217012Y-72702802D01*
X62377953Y-72314256D01*
X62460000Y-71901779D01*
X62460000Y-71481221D01*
X78764000Y-71481221D01*
X78764000Y-71901779D01*
X78846047Y-72314256D01*
X79006988Y-72702802D01*
X79240637Y-73052483D01*
X79538017Y-73349863D01*
X79887698Y-73583512D01*
X80276244Y-73744453D01*
X80688721Y-73826500D01*
X81109279Y-73826500D01*
X81521756Y-73744453D01*
X81910302Y-73583512D01*
X82259983Y-73349863D01*
X82557363Y-73052483D01*
X82791012Y-72702802D01*
X82951953Y-72314256D01*
X83034000Y-71901779D01*
X83034000Y-71481221D01*
X99338000Y-71481221D01*
X99338000Y-71901779D01*
X99420047Y-72314256D01*
X99580988Y-72702802D01*
X99814637Y-73052483D01*
X100112017Y-73349863D01*
X100461698Y-73583512D01*
X100850244Y-73744453D01*
X101262721Y-73826500D01*
X101683279Y-73826500D01*
X102095756Y-73744453D01*
X102484302Y-73583512D01*
X102833983Y-73349863D01*
X103131363Y-73052483D01*
X103365012Y-72702802D01*
X103525953Y-72314256D01*
X103608000Y-71901779D01*
X103608000Y-71481221D01*
X119912000Y-71481221D01*
X119912000Y-71901779D01*
X119994047Y-72314256D01*
X120154988Y-72702802D01*
X120388637Y-73052483D01*
X120686017Y-73349863D01*
X121035698Y-73583512D01*
X121424244Y-73744453D01*
X121836721Y-73826500D01*
X122257279Y-73826500D01*
X122669756Y-73744453D01*
X123058302Y-73583512D01*
X123407983Y-73349863D01*
X123705363Y-73052483D01*
X123939012Y-72702802D01*
X124099953Y-72314256D01*
X124182000Y-71901779D01*
X124182000Y-71481221D01*
X124099953Y-71068744D01*
X123939012Y-70680198D01*
X123908205Y-70634092D01*
X123995721Y-70651500D01*
X124416279Y-70651500D01*
X124828756Y-70569453D01*
X125217302Y-70408512D01*
X125566983Y-70174863D01*
X125864363Y-69877483D01*
X126098012Y-69527802D01*
X126258953Y-69139256D01*
X126341000Y-68726779D01*
X126341000Y-68306221D01*
X126258953Y-67893744D01*
X126098012Y-67505198D01*
X125864363Y-67155517D01*
X125566983Y-66858137D01*
X125217302Y-66624488D01*
X124828756Y-66463547D01*
X124416279Y-66381500D01*
X123995721Y-66381500D01*
X123583244Y-66463547D01*
X123194698Y-66624488D01*
X122845017Y-66858137D01*
X122547637Y-67155517D01*
X122313988Y-67505198D01*
X122153047Y-67893744D01*
X122071000Y-68306221D01*
X122071000Y-68726779D01*
X122153047Y-69139256D01*
X122313988Y-69527802D01*
X122344795Y-69573908D01*
X122257279Y-69556500D01*
X121836721Y-69556500D01*
X121424244Y-69638547D01*
X121035698Y-69799488D01*
X120686017Y-70033137D01*
X120388637Y-70330517D01*
X120154988Y-70680198D01*
X119994047Y-71068744D01*
X119912000Y-71481221D01*
X103608000Y-71481221D01*
X103525953Y-71068744D01*
X103365012Y-70680198D01*
X103334205Y-70634092D01*
X103421721Y-70651500D01*
X103842279Y-70651500D01*
X104254756Y-70569453D01*
X104643302Y-70408512D01*
X104992983Y-70174863D01*
X105290363Y-69877483D01*
X105524012Y-69527802D01*
X105684953Y-69139256D01*
X105767000Y-68726779D01*
X105767000Y-68306221D01*
X105684953Y-67893744D01*
X105524012Y-67505198D01*
X105290363Y-67155517D01*
X104992983Y-66858137D01*
X104643302Y-66624488D01*
X104254756Y-66463547D01*
X103842279Y-66381500D01*
X103421721Y-66381500D01*
X103009244Y-66463547D01*
X102620698Y-66624488D01*
X102271017Y-66858137D01*
X101973637Y-67155517D01*
X101739988Y-67505198D01*
X101579047Y-67893744D01*
X101497000Y-68306221D01*
X101497000Y-68726779D01*
X101579047Y-69139256D01*
X101739988Y-69527802D01*
X101770795Y-69573908D01*
X101683279Y-69556500D01*
X101262721Y-69556500D01*
X100850244Y-69638547D01*
X100461698Y-69799488D01*
X100112017Y-70033137D01*
X99814637Y-70330517D01*
X99580988Y-70680198D01*
X99420047Y-71068744D01*
X99338000Y-71481221D01*
X83034000Y-71481221D01*
X82951953Y-71068744D01*
X82791012Y-70680198D01*
X82760205Y-70634092D01*
X82847721Y-70651500D01*
X83268279Y-70651500D01*
X83680756Y-70569453D01*
X84069302Y-70408512D01*
X84418983Y-70174863D01*
X84716363Y-69877483D01*
X84950012Y-69527802D01*
X85110953Y-69139256D01*
X85193000Y-68726779D01*
X85193000Y-68306221D01*
X85110953Y-67893744D01*
X84950012Y-67505198D01*
X84716363Y-67155517D01*
X84418983Y-66858137D01*
X84069302Y-66624488D01*
X83680756Y-66463547D01*
X83268279Y-66381500D01*
X82847721Y-66381500D01*
X82435244Y-66463547D01*
X82046698Y-66624488D01*
X81697017Y-66858137D01*
X81399637Y-67155517D01*
X81165988Y-67505198D01*
X81005047Y-67893744D01*
X80923000Y-68306221D01*
X80923000Y-68726779D01*
X81005047Y-69139256D01*
X81165988Y-69527802D01*
X81196795Y-69573908D01*
X81109279Y-69556500D01*
X80688721Y-69556500D01*
X80276244Y-69638547D01*
X79887698Y-69799488D01*
X79538017Y-70033137D01*
X79240637Y-70330517D01*
X79006988Y-70680198D01*
X78846047Y-71068744D01*
X78764000Y-71481221D01*
X62460000Y-71481221D01*
X62377953Y-71068744D01*
X62217012Y-70680198D01*
X62186205Y-70634092D01*
X62273721Y-70651500D01*
X62694279Y-70651500D01*
X63106756Y-70569453D01*
X63495302Y-70408512D01*
X63844983Y-70174863D01*
X64142363Y-69877483D01*
X64376012Y-69527802D01*
X64536953Y-69139256D01*
X64619000Y-68726779D01*
X64619000Y-68306221D01*
X64536953Y-67893744D01*
X64376012Y-67505198D01*
X64142363Y-67155517D01*
X63844983Y-66858137D01*
X63495302Y-66624488D01*
X63106756Y-66463547D01*
X62694279Y-66381500D01*
X62273721Y-66381500D01*
X61861244Y-66463547D01*
X61472698Y-66624488D01*
X61123017Y-66858137D01*
X60825637Y-67155517D01*
X60591988Y-67505198D01*
X60431047Y-67893744D01*
X60349000Y-68306221D01*
X60349000Y-68726779D01*
X60431047Y-69139256D01*
X60591988Y-69527802D01*
X60622795Y-69573908D01*
X60535279Y-69556500D01*
X60114721Y-69556500D01*
X59702244Y-69638547D01*
X59313698Y-69799488D01*
X58964017Y-70033137D01*
X58666637Y-70330517D01*
X58432988Y-70680198D01*
X58272047Y-71068744D01*
X58190000Y-71481221D01*
X48745592Y-71481221D01*
X48816401Y-71247799D01*
X48843072Y-70977000D01*
X48843072Y-68977000D01*
X48816401Y-68706201D01*
X48737411Y-68445808D01*
X48609140Y-68205829D01*
X48436515Y-67995485D01*
X48226171Y-67822860D01*
X47986192Y-67694589D01*
X47725799Y-67615599D01*
X47455000Y-67588928D01*
X45955000Y-67588928D01*
X45684201Y-67615599D01*
X45423808Y-67694589D01*
X45183829Y-67822860D01*
X44973485Y-67995485D01*
X44800860Y-68205829D01*
X44672589Y-68445808D01*
X44593599Y-68706201D01*
X44566928Y-68977000D01*
X42824000Y-68977000D01*
X42824000Y-62005467D01*
X58690000Y-62005467D01*
X58690000Y-62327533D01*
X58752832Y-62643412D01*
X58876082Y-62940963D01*
X59055013Y-63208752D01*
X59282748Y-63436487D01*
X59550537Y-63615418D01*
X59848088Y-63738668D01*
X60163967Y-63801500D01*
X60486033Y-63801500D01*
X60801912Y-63738668D01*
X61099463Y-63615418D01*
X61367252Y-63436487D01*
X61594987Y-63208752D01*
X61773918Y-62940963D01*
X61897168Y-62643412D01*
X61960000Y-62327533D01*
X61960000Y-62005467D01*
X61897168Y-61689588D01*
X61773918Y-61392037D01*
X61594987Y-61124248D01*
X61367252Y-60896513D01*
X61099463Y-60717582D01*
X60801912Y-60594332D01*
X60486033Y-60531500D01*
X60163967Y-60531500D01*
X59848088Y-60594332D01*
X59550537Y-60717582D01*
X59282748Y-60896513D01*
X59055013Y-61124248D01*
X58876082Y-61392037D01*
X58752832Y-61689588D01*
X58690000Y-62005467D01*
X42824000Y-62005467D01*
X42824000Y-61233380D01*
X43072381Y-60985000D01*
X48227581Y-60985000D01*
X48260000Y-60988193D01*
X48292419Y-60985000D01*
X48389383Y-60975450D01*
X48513793Y-60937710D01*
X48628450Y-60876425D01*
X48728948Y-60793948D01*
X48811425Y-60693450D01*
X48872710Y-60578793D01*
X48910450Y-60454383D01*
X48923193Y-60325000D01*
X48920000Y-60292581D01*
X48920000Y-58477999D01*
X65089928Y-58477999D01*
X65089928Y-59378001D01*
X65106992Y-59551255D01*
X65157528Y-59717851D01*
X65239595Y-59871387D01*
X65350038Y-60005962D01*
X65479653Y-60112335D01*
X65480082Y-60116688D01*
X65527828Y-60274086D01*
X65605364Y-60419145D01*
X65605365Y-60419146D01*
X65709710Y-60546291D01*
X65741574Y-60572441D01*
X66418393Y-61249261D01*
X66309506Y-61307463D01*
X66212815Y-61386815D01*
X66133463Y-61483506D01*
X66074498Y-61593820D01*
X66038188Y-61713518D01*
X66025928Y-61838000D01*
X66025928Y-63638000D01*
X66038188Y-63762482D01*
X66074498Y-63882180D01*
X66133463Y-63992494D01*
X66212815Y-64089185D01*
X66309506Y-64168537D01*
X66419820Y-64227502D01*
X66438127Y-64233056D01*
X66371688Y-64299495D01*
X66203701Y-64550905D01*
X66087989Y-64830257D01*
X66029000Y-65126816D01*
X66029000Y-65429184D01*
X66087989Y-65725743D01*
X66203701Y-66005095D01*
X66371688Y-66256505D01*
X66585495Y-66470312D01*
X66836905Y-66638299D01*
X67116257Y-66754011D01*
X67412816Y-66813000D01*
X67715184Y-66813000D01*
X68011743Y-66754011D01*
X68291095Y-66638299D01*
X68542505Y-66470312D01*
X68756312Y-66256505D01*
X68924299Y-66005095D01*
X69040011Y-65725743D01*
X69099000Y-65429184D01*
X69099000Y-65126816D01*
X69040011Y-64830257D01*
X68924299Y-64550905D01*
X68756312Y-64299495D01*
X68689873Y-64233056D01*
X68708180Y-64227502D01*
X68818494Y-64168537D01*
X68915185Y-64089185D01*
X68994537Y-63992494D01*
X69053502Y-63882180D01*
X69089812Y-63762482D01*
X69102072Y-63638000D01*
X69102072Y-62005467D01*
X70120000Y-62005467D01*
X70120000Y-62327533D01*
X70182832Y-62643412D01*
X70306082Y-62940963D01*
X70485013Y-63208752D01*
X70712748Y-63436487D01*
X70980537Y-63615418D01*
X71278088Y-63738668D01*
X71593967Y-63801500D01*
X71916033Y-63801500D01*
X72231912Y-63738668D01*
X72529463Y-63615418D01*
X72797252Y-63436487D01*
X73024987Y-63208752D01*
X73203918Y-62940963D01*
X73327168Y-62643412D01*
X73390000Y-62327533D01*
X73390000Y-62005467D01*
X79264000Y-62005467D01*
X79264000Y-62327533D01*
X79326832Y-62643412D01*
X79450082Y-62940963D01*
X79629013Y-63208752D01*
X79856748Y-63436487D01*
X80124537Y-63615418D01*
X80422088Y-63738668D01*
X80737967Y-63801500D01*
X81060033Y-63801500D01*
X81375912Y-63738668D01*
X81673463Y-63615418D01*
X81941252Y-63436487D01*
X82168987Y-63208752D01*
X82347918Y-62940963D01*
X82471168Y-62643412D01*
X82534000Y-62327533D01*
X82534000Y-62005467D01*
X82471168Y-61689588D01*
X82347918Y-61392037D01*
X82168987Y-61124248D01*
X81941252Y-60896513D01*
X81673463Y-60717582D01*
X81375912Y-60594332D01*
X81060033Y-60531500D01*
X80737967Y-60531500D01*
X80422088Y-60594332D01*
X80124537Y-60717582D01*
X79856748Y-60896513D01*
X79629013Y-61124248D01*
X79450082Y-61392037D01*
X79326832Y-61689588D01*
X79264000Y-62005467D01*
X73390000Y-62005467D01*
X73327168Y-61689588D01*
X73203918Y-61392037D01*
X73024987Y-61124248D01*
X72797252Y-60896513D01*
X72529463Y-60717582D01*
X72231912Y-60594332D01*
X71916033Y-60531500D01*
X71593967Y-60531500D01*
X71278088Y-60594332D01*
X70980537Y-60717582D01*
X70712748Y-60896513D01*
X70485013Y-61124248D01*
X70306082Y-61392037D01*
X70182832Y-61689588D01*
X70120000Y-62005467D01*
X69102072Y-62005467D01*
X69102072Y-61838000D01*
X69089812Y-61713518D01*
X69053502Y-61593820D01*
X68994537Y-61483506D01*
X68915185Y-61386815D01*
X68818494Y-61307463D01*
X68708180Y-61248498D01*
X68588482Y-61212188D01*
X68464000Y-61199928D01*
X68401653Y-61199928D01*
X68399000Y-61172991D01*
X68399000Y-61172981D01*
X68386918Y-61050311D01*
X68339172Y-60892913D01*
X68261636Y-60747854D01*
X68157291Y-60620709D01*
X68125428Y-60594560D01*
X67378892Y-59848025D01*
X67448472Y-59717851D01*
X67499008Y-59551255D01*
X67516072Y-59378001D01*
X67516072Y-58477999D01*
X85663928Y-58477999D01*
X85663928Y-59378001D01*
X85680992Y-59551255D01*
X85731528Y-59717851D01*
X85813595Y-59871387D01*
X85924038Y-60005962D01*
X86053653Y-60112335D01*
X86054082Y-60116688D01*
X86101828Y-60274086D01*
X86179364Y-60419145D01*
X86283709Y-60546291D01*
X86315579Y-60572446D01*
X86992393Y-61249261D01*
X86883506Y-61307463D01*
X86786815Y-61386815D01*
X86707463Y-61483506D01*
X86648498Y-61593820D01*
X86612188Y-61713518D01*
X86599928Y-61838000D01*
X86599928Y-63638000D01*
X86612188Y-63762482D01*
X86648498Y-63882180D01*
X86707463Y-63992494D01*
X86786815Y-64089185D01*
X86883506Y-64168537D01*
X86993820Y-64227502D01*
X87012127Y-64233056D01*
X86945688Y-64299495D01*
X86777701Y-64550905D01*
X86661989Y-64830257D01*
X86603000Y-65126816D01*
X86603000Y-65429184D01*
X86661989Y-65725743D01*
X86777701Y-66005095D01*
X86945688Y-66256505D01*
X87159495Y-66470312D01*
X87410905Y-66638299D01*
X87690257Y-66754011D01*
X87986816Y-66813000D01*
X88289184Y-66813000D01*
X88585743Y-66754011D01*
X88865095Y-66638299D01*
X89116505Y-66470312D01*
X89330312Y-66256505D01*
X89498299Y-66005095D01*
X89614011Y-65725743D01*
X89673000Y-65429184D01*
X89673000Y-65126816D01*
X89614011Y-64830257D01*
X89498299Y-64550905D01*
X89330312Y-64299495D01*
X89263873Y-64233056D01*
X89282180Y-64227502D01*
X89392494Y-64168537D01*
X89489185Y-64089185D01*
X89568537Y-63992494D01*
X89627502Y-63882180D01*
X89663812Y-63762482D01*
X89676072Y-63638000D01*
X89676072Y-62005467D01*
X90694000Y-62005467D01*
X90694000Y-62327533D01*
X90756832Y-62643412D01*
X90880082Y-62940963D01*
X91059013Y-63208752D01*
X91286748Y-63436487D01*
X91554537Y-63615418D01*
X91852088Y-63738668D01*
X92167967Y-63801500D01*
X92490033Y-63801500D01*
X92805912Y-63738668D01*
X93103463Y-63615418D01*
X93371252Y-63436487D01*
X93598987Y-63208752D01*
X93777918Y-62940963D01*
X93901168Y-62643412D01*
X93964000Y-62327533D01*
X93964000Y-62005467D01*
X99838000Y-62005467D01*
X99838000Y-62327533D01*
X99900832Y-62643412D01*
X100024082Y-62940963D01*
X100203013Y-63208752D01*
X100430748Y-63436487D01*
X100698537Y-63615418D01*
X100996088Y-63738668D01*
X101311967Y-63801500D01*
X101634033Y-63801500D01*
X101949912Y-63738668D01*
X102247463Y-63615418D01*
X102515252Y-63436487D01*
X102742987Y-63208752D01*
X102921918Y-62940963D01*
X103045168Y-62643412D01*
X103108000Y-62327533D01*
X103108000Y-62005467D01*
X103045168Y-61689588D01*
X102921918Y-61392037D01*
X102742987Y-61124248D01*
X102515252Y-60896513D01*
X102247463Y-60717582D01*
X101949912Y-60594332D01*
X101634033Y-60531500D01*
X101311967Y-60531500D01*
X100996088Y-60594332D01*
X100698537Y-60717582D01*
X100430748Y-60896513D01*
X100203013Y-61124248D01*
X100024082Y-61392037D01*
X99900832Y-61689588D01*
X99838000Y-62005467D01*
X93964000Y-62005467D01*
X93901168Y-61689588D01*
X93777918Y-61392037D01*
X93598987Y-61124248D01*
X93371252Y-60896513D01*
X93103463Y-60717582D01*
X92805912Y-60594332D01*
X92490033Y-60531500D01*
X92167967Y-60531500D01*
X91852088Y-60594332D01*
X91554537Y-60717582D01*
X91286748Y-60896513D01*
X91059013Y-61124248D01*
X90880082Y-61392037D01*
X90756832Y-61689588D01*
X90694000Y-62005467D01*
X89676072Y-62005467D01*
X89676072Y-61838000D01*
X89663812Y-61713518D01*
X89627502Y-61593820D01*
X89568537Y-61483506D01*
X89489185Y-61386815D01*
X89392494Y-61307463D01*
X89282180Y-61248498D01*
X89162482Y-61212188D01*
X89038000Y-61199928D01*
X88975653Y-61199928D01*
X88973000Y-61172991D01*
X88973000Y-61172981D01*
X88960918Y-61050311D01*
X88913172Y-60892913D01*
X88835636Y-60747854D01*
X88731291Y-60620709D01*
X88699426Y-60594558D01*
X87952892Y-59848025D01*
X88022472Y-59717851D01*
X88073008Y-59551255D01*
X88090072Y-59378001D01*
X88090072Y-58477999D01*
X106237928Y-58477999D01*
X106237928Y-59378001D01*
X106254992Y-59551255D01*
X106305528Y-59717851D01*
X106387595Y-59871387D01*
X106498038Y-60005962D01*
X106627653Y-60112335D01*
X106628082Y-60116688D01*
X106675828Y-60274086D01*
X106753364Y-60419145D01*
X106857709Y-60546291D01*
X106889579Y-60572446D01*
X107566393Y-61249261D01*
X107457506Y-61307463D01*
X107360815Y-61386815D01*
X107281463Y-61483506D01*
X107222498Y-61593820D01*
X107186188Y-61713518D01*
X107173928Y-61838000D01*
X107173928Y-63638000D01*
X107186188Y-63762482D01*
X107222498Y-63882180D01*
X107281463Y-63992494D01*
X107360815Y-64089185D01*
X107457506Y-64168537D01*
X107567820Y-64227502D01*
X107586127Y-64233056D01*
X107519688Y-64299495D01*
X107351701Y-64550905D01*
X107235989Y-64830257D01*
X107177000Y-65126816D01*
X107177000Y-65429184D01*
X107235989Y-65725743D01*
X107351701Y-66005095D01*
X107519688Y-66256505D01*
X107733495Y-66470312D01*
X107984905Y-66638299D01*
X108264257Y-66754011D01*
X108560816Y-66813000D01*
X108863184Y-66813000D01*
X109159743Y-66754011D01*
X109439095Y-66638299D01*
X109690505Y-66470312D01*
X109904312Y-66256505D01*
X110072299Y-66005095D01*
X110188011Y-65725743D01*
X110247000Y-65429184D01*
X110247000Y-65126816D01*
X110188011Y-64830257D01*
X110072299Y-64550905D01*
X109904312Y-64299495D01*
X109837873Y-64233056D01*
X109856180Y-64227502D01*
X109966494Y-64168537D01*
X110063185Y-64089185D01*
X110142537Y-63992494D01*
X110201502Y-63882180D01*
X110237812Y-63762482D01*
X110250072Y-63638000D01*
X110250072Y-62005467D01*
X111268000Y-62005467D01*
X111268000Y-62327533D01*
X111330832Y-62643412D01*
X111454082Y-62940963D01*
X111633013Y-63208752D01*
X111860748Y-63436487D01*
X112128537Y-63615418D01*
X112426088Y-63738668D01*
X112741967Y-63801500D01*
X113064033Y-63801500D01*
X113379912Y-63738668D01*
X113677463Y-63615418D01*
X113945252Y-63436487D01*
X114172987Y-63208752D01*
X114351918Y-62940963D01*
X114475168Y-62643412D01*
X114538000Y-62327533D01*
X114538000Y-62005467D01*
X120412000Y-62005467D01*
X120412000Y-62327533D01*
X120474832Y-62643412D01*
X120598082Y-62940963D01*
X120777013Y-63208752D01*
X121004748Y-63436487D01*
X121272537Y-63615418D01*
X121570088Y-63738668D01*
X121885967Y-63801500D01*
X122208033Y-63801500D01*
X122523912Y-63738668D01*
X122821463Y-63615418D01*
X123089252Y-63436487D01*
X123316987Y-63208752D01*
X123495918Y-62940963D01*
X123619168Y-62643412D01*
X123682000Y-62327533D01*
X123682000Y-62005467D01*
X123619168Y-61689588D01*
X123495918Y-61392037D01*
X123316987Y-61124248D01*
X123089252Y-60896513D01*
X122821463Y-60717582D01*
X122523912Y-60594332D01*
X122208033Y-60531500D01*
X121885967Y-60531500D01*
X121570088Y-60594332D01*
X121272537Y-60717582D01*
X121004748Y-60896513D01*
X120777013Y-61124248D01*
X120598082Y-61392037D01*
X120474832Y-61689588D01*
X120412000Y-62005467D01*
X114538000Y-62005467D01*
X114475168Y-61689588D01*
X114351918Y-61392037D01*
X114172987Y-61124248D01*
X113945252Y-60896513D01*
X113677463Y-60717582D01*
X113379912Y-60594332D01*
X113064033Y-60531500D01*
X112741967Y-60531500D01*
X112426088Y-60594332D01*
X112128537Y-60717582D01*
X111860748Y-60896513D01*
X111633013Y-61124248D01*
X111454082Y-61392037D01*
X111330832Y-61689588D01*
X111268000Y-62005467D01*
X110250072Y-62005467D01*
X110250072Y-61838000D01*
X110237812Y-61713518D01*
X110201502Y-61593820D01*
X110142537Y-61483506D01*
X110063185Y-61386815D01*
X109966494Y-61307463D01*
X109856180Y-61248498D01*
X109736482Y-61212188D01*
X109612000Y-61199928D01*
X109549653Y-61199928D01*
X109547000Y-61172991D01*
X109547000Y-61172981D01*
X109534918Y-61050311D01*
X109487172Y-60892913D01*
X109409636Y-60747854D01*
X109305291Y-60620709D01*
X109273426Y-60594558D01*
X108526892Y-59848025D01*
X108596472Y-59717851D01*
X108647008Y-59551255D01*
X108664072Y-59378001D01*
X108664072Y-58477999D01*
X126811928Y-58477999D01*
X126811928Y-59378001D01*
X126828992Y-59551255D01*
X126879528Y-59717851D01*
X126961595Y-59871387D01*
X127072038Y-60005962D01*
X127201653Y-60112335D01*
X127202082Y-60116688D01*
X127249828Y-60274086D01*
X127327364Y-60419145D01*
X127327365Y-60419146D01*
X127431710Y-60546291D01*
X127463574Y-60572441D01*
X128140393Y-61249261D01*
X128031506Y-61307463D01*
X127934815Y-61386815D01*
X127855463Y-61483506D01*
X127796498Y-61593820D01*
X127760188Y-61713518D01*
X127747928Y-61838000D01*
X127747928Y-63638000D01*
X127760188Y-63762482D01*
X127796498Y-63882180D01*
X127855463Y-63992494D01*
X127934815Y-64089185D01*
X128031506Y-64168537D01*
X128141820Y-64227502D01*
X128160127Y-64233056D01*
X128093688Y-64299495D01*
X127925701Y-64550905D01*
X127809989Y-64830257D01*
X127751000Y-65126816D01*
X127751000Y-65429184D01*
X127809989Y-65725743D01*
X127925701Y-66005095D01*
X128093688Y-66256505D01*
X128307495Y-66470312D01*
X128558905Y-66638299D01*
X128838257Y-66754011D01*
X129134816Y-66813000D01*
X129437184Y-66813000D01*
X129733743Y-66754011D01*
X130013095Y-66638299D01*
X130264505Y-66470312D01*
X130478312Y-66256505D01*
X130646299Y-66005095D01*
X130762011Y-65725743D01*
X130821000Y-65429184D01*
X130821000Y-65126816D01*
X130762011Y-64830257D01*
X130646299Y-64550905D01*
X130478312Y-64299495D01*
X130411873Y-64233056D01*
X130430180Y-64227502D01*
X130540494Y-64168537D01*
X130637185Y-64089185D01*
X130716537Y-63992494D01*
X130775502Y-63882180D01*
X130811812Y-63762482D01*
X130824072Y-63638000D01*
X130824072Y-62005467D01*
X131842000Y-62005467D01*
X131842000Y-62327533D01*
X131904832Y-62643412D01*
X132028082Y-62940963D01*
X132207013Y-63208752D01*
X132434748Y-63436487D01*
X132702537Y-63615418D01*
X133000088Y-63738668D01*
X133315967Y-63801500D01*
X133638033Y-63801500D01*
X133953912Y-63738668D01*
X134251463Y-63615418D01*
X134519252Y-63436487D01*
X134746987Y-63208752D01*
X134925918Y-62940963D01*
X135049168Y-62643412D01*
X135112000Y-62327533D01*
X135112000Y-62005467D01*
X135049168Y-61689588D01*
X134925918Y-61392037D01*
X134746987Y-61124248D01*
X134519252Y-60896513D01*
X134251463Y-60717582D01*
X133953912Y-60594332D01*
X133638033Y-60531500D01*
X133315967Y-60531500D01*
X133000088Y-60594332D01*
X132702537Y-60717582D01*
X132434748Y-60896513D01*
X132207013Y-61124248D01*
X132028082Y-61392037D01*
X131904832Y-61689588D01*
X131842000Y-62005467D01*
X130824072Y-62005467D01*
X130824072Y-61838000D01*
X130811812Y-61713518D01*
X130775502Y-61593820D01*
X130716537Y-61483506D01*
X130637185Y-61386815D01*
X130540494Y-61307463D01*
X130430180Y-61248498D01*
X130310482Y-61212188D01*
X130186000Y-61199928D01*
X130123653Y-61199928D01*
X130121000Y-61172991D01*
X130121000Y-61172981D01*
X130108918Y-61050311D01*
X130061172Y-60892913D01*
X129983636Y-60747854D01*
X129879291Y-60620709D01*
X129847428Y-60594560D01*
X129100892Y-59848025D01*
X129170472Y-59717851D01*
X129221008Y-59551255D01*
X129238072Y-59378001D01*
X129238072Y-58477999D01*
X129221008Y-58304745D01*
X129170472Y-58138149D01*
X129088405Y-57984613D01*
X128977962Y-57850038D01*
X128843387Y-57739595D01*
X128689851Y-57657528D01*
X128523255Y-57606992D01*
X128350001Y-57589928D01*
X127699999Y-57589928D01*
X127526745Y-57606992D01*
X127360149Y-57657528D01*
X127206613Y-57739595D01*
X127072038Y-57850038D01*
X126961595Y-57984613D01*
X126879528Y-58138149D01*
X126828992Y-58304745D01*
X126811928Y-58477999D01*
X108664072Y-58477999D01*
X108647008Y-58304745D01*
X108596472Y-58138149D01*
X108514405Y-57984613D01*
X108403962Y-57850038D01*
X108269387Y-57739595D01*
X108115851Y-57657528D01*
X107949255Y-57606992D01*
X107776001Y-57589928D01*
X107125999Y-57589928D01*
X106952745Y-57606992D01*
X106786149Y-57657528D01*
X106632613Y-57739595D01*
X106498038Y-57850038D01*
X106387595Y-57984613D01*
X106305528Y-58138149D01*
X106254992Y-58304745D01*
X106237928Y-58477999D01*
X88090072Y-58477999D01*
X88073008Y-58304745D01*
X88022472Y-58138149D01*
X87940405Y-57984613D01*
X87829962Y-57850038D01*
X87695387Y-57739595D01*
X87541851Y-57657528D01*
X87375255Y-57606992D01*
X87202001Y-57589928D01*
X86551999Y-57589928D01*
X86378745Y-57606992D01*
X86212149Y-57657528D01*
X86058613Y-57739595D01*
X85924038Y-57850038D01*
X85813595Y-57984613D01*
X85731528Y-58138149D01*
X85680992Y-58304745D01*
X85663928Y-58477999D01*
X67516072Y-58477999D01*
X67499008Y-58304745D01*
X67448472Y-58138149D01*
X67366405Y-57984613D01*
X67255962Y-57850038D01*
X67121387Y-57739595D01*
X66967851Y-57657528D01*
X66801255Y-57606992D01*
X66628001Y-57589928D01*
X65977999Y-57589928D01*
X65804745Y-57606992D01*
X65638149Y-57657528D01*
X65484613Y-57739595D01*
X65350038Y-57850038D01*
X65239595Y-57984613D01*
X65157528Y-58138149D01*
X65106992Y-58304745D01*
X65089928Y-58477999D01*
X48920000Y-58477999D01*
X48920000Y-55454880D01*
X49168381Y-55206500D01*
X147681620Y-55206500D01*
X147930000Y-55454881D01*
%TD*%
M02*
