%TF.GenerationSoftware,KiCad,Pcbnew,(5.1.6-0-10_14)*%
%TF.CreationDate,2020-09-25T11:35:30+01:00*%
%TF.ProjectId,DigitalMixerPedal,44696769-7461-46c4-9d69-786572506564,rev?*%
%TF.SameCoordinates,Original*%
%TF.FileFunction,Soldermask,Top*%
%TF.FilePolarity,Negative*%
%FSLAX46Y46*%
G04 Gerber Fmt 4.6, Leading zero omitted, Abs format (unit mm)*
G04 Created by KiCad (PCBNEW (5.1.6-0-10_14)) date 2020-09-25 11:35:30*
%MOMM*%
%LPD*%
G01*
G04 APERTURE LIST*
%TA.AperFunction,Profile*%
%ADD10C,0.050000*%
%TD*%
%ADD11C,1.100000*%
%ADD12R,0.750000X1.160000*%
%ADD13R,0.750000X1.660000*%
%ADD14R,2.100000X1.600000*%
%ADD15R,2.100000X3.900000*%
%ADD16R,1.600000X1.100000*%
%ADD17O,1.800000X1.800000*%
%ADD18R,1.800000X1.800000*%
%ADD19C,1.900000*%
%ADD20R,1.900000X1.900000*%
%ADD21C,2.600000*%
%ADD22C,3.600000*%
%ADD23R,1.200000X1.200000*%
%ADD24C,3.100000*%
%ADD25C,2.100000*%
%ADD26R,3.600000X3.600000*%
%ADD27C,0.254000*%
G04 APERTURE END LIST*
D10*
X148590000Y-140335000D02*
X147955000Y-140970000D01*
X148590000Y-135255000D02*
X148590000Y-140335000D01*
X154051000Y-135255000D02*
X148590000Y-135255000D01*
X154686000Y-134620000D02*
X154051000Y-135255000D01*
X154686000Y-60960000D02*
X154686000Y-134620000D01*
X154051000Y-60325000D02*
X154686000Y-60960000D01*
X148590000Y-60325000D02*
X154051000Y-60325000D01*
X148590000Y-55181500D02*
X148590000Y-60325000D01*
X147955000Y-54546500D02*
X148590000Y-55181500D01*
X48895000Y-54546500D02*
X147955000Y-54546500D01*
X48260000Y-55181500D02*
X48895000Y-54546500D01*
X48260000Y-60325000D02*
X48260000Y-55181500D01*
X42799000Y-60325000D02*
X48260000Y-60325000D01*
X42164000Y-60960000D02*
X42799000Y-60325000D01*
X42164000Y-134683500D02*
X42164000Y-60960000D01*
X42799000Y-135318500D02*
X42164000Y-134683500D01*
X48260000Y-135318500D02*
X42799000Y-135318500D01*
X48260000Y-140335000D02*
X48260000Y-135318500D01*
X48895000Y-140970000D02*
X48260000Y-140335000D01*
X147955000Y-140970000D02*
X48895000Y-140970000D01*
D11*
%TO.C,TP15*%
X56388000Y-100330000D03*
%TD*%
%TO.C,TP14*%
X117348000Y-78232000D03*
%TD*%
%TO.C,TP13*%
X139700000Y-78232000D03*
%TD*%
%TO.C,TP12*%
X61976000Y-78232000D03*
%TD*%
%TO.C,TP11*%
X76200000Y-78232000D03*
%TD*%
%TO.C,TP9*%
X75184000Y-110744000D03*
%TD*%
%TO.C,TP7*%
X93980000Y-110744000D03*
%TD*%
%TO.C,TP5*%
X115316000Y-110744000D03*
%TD*%
%TO.C,TP3*%
X135636000Y-111252000D03*
%TD*%
%TO.C,TP1*%
X45720000Y-101600000D03*
%TD*%
%TO.C,TP10*%
X56388000Y-103378000D03*
%TD*%
%TO.C,TP8*%
X62230000Y-99568000D03*
%TD*%
%TO.C,TP6*%
X82550000Y-99695000D03*
%TD*%
%TO.C,TP4*%
X103505000Y-99695000D03*
%TD*%
%TO.C,TP2*%
X123825000Y-99695000D03*
%TD*%
D12*
%TO.C,U14*%
X72964000Y-102119000D03*
X74864000Y-102119000D03*
X74864000Y-104319000D03*
X73914000Y-104319000D03*
X72964000Y-104319000D03*
%TD*%
D13*
%TO.C,U10*%
X68514000Y-90631000D03*
X66614000Y-90631000D03*
X66614000Y-87931000D03*
X67564000Y-87931000D03*
X68514000Y-87931000D03*
%TD*%
%TO.C,C19*%
G36*
G01*
X70895738Y-89681000D02*
X71852262Y-89681000D01*
G75*
G02*
X72124000Y-89952738I0J-271738D01*
G01*
X72124000Y-90659262D01*
G75*
G02*
X71852262Y-90931000I-271738J0D01*
G01*
X70895738Y-90931000D01*
G75*
G02*
X70624000Y-90659262I0J271738D01*
G01*
X70624000Y-89952738D01*
G75*
G02*
X70895738Y-89681000I271738J0D01*
G01*
G37*
G36*
G01*
X70895738Y-87631000D02*
X71852262Y-87631000D01*
G75*
G02*
X72124000Y-87902738I0J-271738D01*
G01*
X72124000Y-88609262D01*
G75*
G02*
X71852262Y-88881000I-271738J0D01*
G01*
X70895738Y-88881000D01*
G75*
G02*
X70624000Y-88609262I0J271738D01*
G01*
X70624000Y-87902738D01*
G75*
G02*
X70895738Y-87631000I271738J0D01*
G01*
G37*
%TD*%
%TO.C,C15*%
G36*
G01*
X67964000Y-85949262D02*
X67964000Y-84992738D01*
G75*
G02*
X68235738Y-84721000I271738J0D01*
G01*
X68942262Y-84721000D01*
G75*
G02*
X69214000Y-84992738I0J-271738D01*
G01*
X69214000Y-85949262D01*
G75*
G02*
X68942262Y-86221000I-271738J0D01*
G01*
X68235738Y-86221000D01*
G75*
G02*
X67964000Y-85949262I0J271738D01*
G01*
G37*
G36*
G01*
X65914000Y-85949262D02*
X65914000Y-84992738D01*
G75*
G02*
X66185738Y-84721000I271738J0D01*
G01*
X66892262Y-84721000D01*
G75*
G02*
X67164000Y-84992738I0J-271738D01*
G01*
X67164000Y-85949262D01*
G75*
G02*
X66892262Y-86221000I-271738J0D01*
G01*
X66185738Y-86221000D01*
G75*
G02*
X65914000Y-85949262I0J271738D01*
G01*
G37*
%TD*%
%TO.C,C44*%
G36*
G01*
X63275738Y-89681000D02*
X64232262Y-89681000D01*
G75*
G02*
X64504000Y-89952738I0J-271738D01*
G01*
X64504000Y-90659262D01*
G75*
G02*
X64232262Y-90931000I-271738J0D01*
G01*
X63275738Y-90931000D01*
G75*
G02*
X63004000Y-90659262I0J271738D01*
G01*
X63004000Y-89952738D01*
G75*
G02*
X63275738Y-89681000I271738J0D01*
G01*
G37*
G36*
G01*
X63275738Y-87631000D02*
X64232262Y-87631000D01*
G75*
G02*
X64504000Y-87902738I0J-271738D01*
G01*
X64504000Y-88609262D01*
G75*
G02*
X64232262Y-88881000I-271738J0D01*
G01*
X63275738Y-88881000D01*
G75*
G02*
X63004000Y-88609262I0J271738D01*
G01*
X63004000Y-87902738D01*
G75*
G02*
X63275738Y-87631000I271738J0D01*
G01*
G37*
%TD*%
%TO.C,C45*%
G36*
G01*
X47654738Y-107207000D02*
X48611262Y-107207000D01*
G75*
G02*
X48883000Y-107478738I0J-271738D01*
G01*
X48883000Y-108185262D01*
G75*
G02*
X48611262Y-108457000I-271738J0D01*
G01*
X47654738Y-108457000D01*
G75*
G02*
X47383000Y-108185262I0J271738D01*
G01*
X47383000Y-107478738D01*
G75*
G02*
X47654738Y-107207000I271738J0D01*
G01*
G37*
G36*
G01*
X47654738Y-105157000D02*
X48611262Y-105157000D01*
G75*
G02*
X48883000Y-105428738I0J-271738D01*
G01*
X48883000Y-106135262D01*
G75*
G02*
X48611262Y-106407000I-271738J0D01*
G01*
X47654738Y-106407000D01*
G75*
G02*
X47383000Y-106135262I0J271738D01*
G01*
X47383000Y-105428738D01*
G75*
G02*
X47654738Y-105157000I271738J0D01*
G01*
G37*
%TD*%
%TO.C,C43*%
G36*
G01*
X83722738Y-89808000D02*
X84679262Y-89808000D01*
G75*
G02*
X84951000Y-90079738I0J-271738D01*
G01*
X84951000Y-90786262D01*
G75*
G02*
X84679262Y-91058000I-271738J0D01*
G01*
X83722738Y-91058000D01*
G75*
G02*
X83451000Y-90786262I0J271738D01*
G01*
X83451000Y-90079738D01*
G75*
G02*
X83722738Y-89808000I271738J0D01*
G01*
G37*
G36*
G01*
X83722738Y-87758000D02*
X84679262Y-87758000D01*
G75*
G02*
X84951000Y-88029738I0J-271738D01*
G01*
X84951000Y-88736262D01*
G75*
G02*
X84679262Y-89008000I-271738J0D01*
G01*
X83722738Y-89008000D01*
G75*
G02*
X83451000Y-88736262I0J271738D01*
G01*
X83451000Y-88029738D01*
G75*
G02*
X83722738Y-87758000I271738J0D01*
G01*
G37*
%TD*%
%TO.C,C42*%
G36*
G01*
X104423738Y-89808000D02*
X105380262Y-89808000D01*
G75*
G02*
X105652000Y-90079738I0J-271738D01*
G01*
X105652000Y-90786262D01*
G75*
G02*
X105380262Y-91058000I-271738J0D01*
G01*
X104423738Y-91058000D01*
G75*
G02*
X104152000Y-90786262I0J271738D01*
G01*
X104152000Y-90079738D01*
G75*
G02*
X104423738Y-89808000I271738J0D01*
G01*
G37*
G36*
G01*
X104423738Y-87758000D02*
X105380262Y-87758000D01*
G75*
G02*
X105652000Y-88029738I0J-271738D01*
G01*
X105652000Y-88736262D01*
G75*
G02*
X105380262Y-89008000I-271738J0D01*
G01*
X104423738Y-89008000D01*
G75*
G02*
X104152000Y-88736262I0J271738D01*
G01*
X104152000Y-88029738D01*
G75*
G02*
X104423738Y-87758000I271738J0D01*
G01*
G37*
%TD*%
%TO.C,C41*%
G36*
G01*
X124743738Y-89808000D02*
X125700262Y-89808000D01*
G75*
G02*
X125972000Y-90079738I0J-271738D01*
G01*
X125972000Y-90786262D01*
G75*
G02*
X125700262Y-91058000I-271738J0D01*
G01*
X124743738Y-91058000D01*
G75*
G02*
X124472000Y-90786262I0J271738D01*
G01*
X124472000Y-90079738D01*
G75*
G02*
X124743738Y-89808000I271738J0D01*
G01*
G37*
G36*
G01*
X124743738Y-87758000D02*
X125700262Y-87758000D01*
G75*
G02*
X125972000Y-88029738I0J-271738D01*
G01*
X125972000Y-88736262D01*
G75*
G02*
X125700262Y-89008000I-271738J0D01*
G01*
X124743738Y-89008000D01*
G75*
G02*
X124472000Y-88736262I0J271738D01*
G01*
X124472000Y-88029738D01*
G75*
G02*
X124743738Y-87758000I271738J0D01*
G01*
G37*
%TD*%
%TO.C,U16*%
X52893000Y-108157000D03*
X50993000Y-108157000D03*
X50993000Y-105457000D03*
X51943000Y-105457000D03*
X52893000Y-105457000D03*
%TD*%
D12*
%TO.C,U15*%
X134559000Y-102151000D03*
X136459000Y-102151000D03*
X136459000Y-104351000D03*
X135509000Y-104351000D03*
X134559000Y-104351000D03*
%TD*%
%TO.C,U13*%
X93411000Y-102278000D03*
X95311000Y-102278000D03*
X95311000Y-104478000D03*
X94361000Y-104478000D03*
X93411000Y-104478000D03*
%TD*%
%TO.C,U12*%
X114366000Y-102151000D03*
X116266000Y-102151000D03*
X116266000Y-104351000D03*
X115316000Y-104351000D03*
X114366000Y-104351000D03*
%TD*%
%TO.C,U11*%
G36*
G01*
X101950000Y-117042000D02*
X103250000Y-117042000D01*
G75*
G02*
X103400000Y-117192000I0J-150000D01*
G01*
X103400000Y-117492000D01*
G75*
G02*
X103250000Y-117642000I-150000J0D01*
G01*
X101950000Y-117642000D01*
G75*
G02*
X101800000Y-117492000I0J150000D01*
G01*
X101800000Y-117192000D01*
G75*
G02*
X101950000Y-117042000I150000J0D01*
G01*
G37*
G36*
G01*
X101950000Y-117842000D02*
X103250000Y-117842000D01*
G75*
G02*
X103400000Y-117992000I0J-150000D01*
G01*
X103400000Y-118292000D01*
G75*
G02*
X103250000Y-118442000I-150000J0D01*
G01*
X101950000Y-118442000D01*
G75*
G02*
X101800000Y-118292000I0J150000D01*
G01*
X101800000Y-117992000D01*
G75*
G02*
X101950000Y-117842000I150000J0D01*
G01*
G37*
G36*
G01*
X101950000Y-118642000D02*
X103250000Y-118642000D01*
G75*
G02*
X103400000Y-118792000I0J-150000D01*
G01*
X103400000Y-119092000D01*
G75*
G02*
X103250000Y-119242000I-150000J0D01*
G01*
X101950000Y-119242000D01*
G75*
G02*
X101800000Y-119092000I0J150000D01*
G01*
X101800000Y-118792000D01*
G75*
G02*
X101950000Y-118642000I150000J0D01*
G01*
G37*
G36*
G01*
X101950000Y-119442000D02*
X103250000Y-119442000D01*
G75*
G02*
X103400000Y-119592000I0J-150000D01*
G01*
X103400000Y-119892000D01*
G75*
G02*
X103250000Y-120042000I-150000J0D01*
G01*
X101950000Y-120042000D01*
G75*
G02*
X101800000Y-119892000I0J150000D01*
G01*
X101800000Y-119592000D01*
G75*
G02*
X101950000Y-119442000I150000J0D01*
G01*
G37*
G36*
G01*
X101950000Y-120242000D02*
X103250000Y-120242000D01*
G75*
G02*
X103400000Y-120392000I0J-150000D01*
G01*
X103400000Y-120692000D01*
G75*
G02*
X103250000Y-120842000I-150000J0D01*
G01*
X101950000Y-120842000D01*
G75*
G02*
X101800000Y-120692000I0J150000D01*
G01*
X101800000Y-120392000D01*
G75*
G02*
X101950000Y-120242000I150000J0D01*
G01*
G37*
G36*
G01*
X101950000Y-121042000D02*
X103250000Y-121042000D01*
G75*
G02*
X103400000Y-121192000I0J-150000D01*
G01*
X103400000Y-121492000D01*
G75*
G02*
X103250000Y-121642000I-150000J0D01*
G01*
X101950000Y-121642000D01*
G75*
G02*
X101800000Y-121492000I0J150000D01*
G01*
X101800000Y-121192000D01*
G75*
G02*
X101950000Y-121042000I150000J0D01*
G01*
G37*
G36*
G01*
X101950000Y-121842000D02*
X103250000Y-121842000D01*
G75*
G02*
X103400000Y-121992000I0J-150000D01*
G01*
X103400000Y-122292000D01*
G75*
G02*
X103250000Y-122442000I-150000J0D01*
G01*
X101950000Y-122442000D01*
G75*
G02*
X101800000Y-122292000I0J150000D01*
G01*
X101800000Y-121992000D01*
G75*
G02*
X101950000Y-121842000I150000J0D01*
G01*
G37*
G36*
G01*
X101950000Y-122642000D02*
X103250000Y-122642000D01*
G75*
G02*
X103400000Y-122792000I0J-150000D01*
G01*
X103400000Y-123092000D01*
G75*
G02*
X103250000Y-123242000I-150000J0D01*
G01*
X101950000Y-123242000D01*
G75*
G02*
X101800000Y-123092000I0J150000D01*
G01*
X101800000Y-122792000D01*
G75*
G02*
X101950000Y-122642000I150000J0D01*
G01*
G37*
G36*
G01*
X101075000Y-123517000D02*
X101375000Y-123517000D01*
G75*
G02*
X101525000Y-123667000I0J-150000D01*
G01*
X101525000Y-124967000D01*
G75*
G02*
X101375000Y-125117000I-150000J0D01*
G01*
X101075000Y-125117000D01*
G75*
G02*
X100925000Y-124967000I0J150000D01*
G01*
X100925000Y-123667000D01*
G75*
G02*
X101075000Y-123517000I150000J0D01*
G01*
G37*
G36*
G01*
X100275000Y-123517000D02*
X100575000Y-123517000D01*
G75*
G02*
X100725000Y-123667000I0J-150000D01*
G01*
X100725000Y-124967000D01*
G75*
G02*
X100575000Y-125117000I-150000J0D01*
G01*
X100275000Y-125117000D01*
G75*
G02*
X100125000Y-124967000I0J150000D01*
G01*
X100125000Y-123667000D01*
G75*
G02*
X100275000Y-123517000I150000J0D01*
G01*
G37*
G36*
G01*
X99475000Y-123517000D02*
X99775000Y-123517000D01*
G75*
G02*
X99925000Y-123667000I0J-150000D01*
G01*
X99925000Y-124967000D01*
G75*
G02*
X99775000Y-125117000I-150000J0D01*
G01*
X99475000Y-125117000D01*
G75*
G02*
X99325000Y-124967000I0J150000D01*
G01*
X99325000Y-123667000D01*
G75*
G02*
X99475000Y-123517000I150000J0D01*
G01*
G37*
G36*
G01*
X98675000Y-123517000D02*
X98975000Y-123517000D01*
G75*
G02*
X99125000Y-123667000I0J-150000D01*
G01*
X99125000Y-124967000D01*
G75*
G02*
X98975000Y-125117000I-150000J0D01*
G01*
X98675000Y-125117000D01*
G75*
G02*
X98525000Y-124967000I0J150000D01*
G01*
X98525000Y-123667000D01*
G75*
G02*
X98675000Y-123517000I150000J0D01*
G01*
G37*
G36*
G01*
X97875000Y-123517000D02*
X98175000Y-123517000D01*
G75*
G02*
X98325000Y-123667000I0J-150000D01*
G01*
X98325000Y-124967000D01*
G75*
G02*
X98175000Y-125117000I-150000J0D01*
G01*
X97875000Y-125117000D01*
G75*
G02*
X97725000Y-124967000I0J150000D01*
G01*
X97725000Y-123667000D01*
G75*
G02*
X97875000Y-123517000I150000J0D01*
G01*
G37*
G36*
G01*
X97075000Y-123517000D02*
X97375000Y-123517000D01*
G75*
G02*
X97525000Y-123667000I0J-150000D01*
G01*
X97525000Y-124967000D01*
G75*
G02*
X97375000Y-125117000I-150000J0D01*
G01*
X97075000Y-125117000D01*
G75*
G02*
X96925000Y-124967000I0J150000D01*
G01*
X96925000Y-123667000D01*
G75*
G02*
X97075000Y-123517000I150000J0D01*
G01*
G37*
G36*
G01*
X96275000Y-123517000D02*
X96575000Y-123517000D01*
G75*
G02*
X96725000Y-123667000I0J-150000D01*
G01*
X96725000Y-124967000D01*
G75*
G02*
X96575000Y-125117000I-150000J0D01*
G01*
X96275000Y-125117000D01*
G75*
G02*
X96125000Y-124967000I0J150000D01*
G01*
X96125000Y-123667000D01*
G75*
G02*
X96275000Y-123517000I150000J0D01*
G01*
G37*
G36*
G01*
X95475000Y-123517000D02*
X95775000Y-123517000D01*
G75*
G02*
X95925000Y-123667000I0J-150000D01*
G01*
X95925000Y-124967000D01*
G75*
G02*
X95775000Y-125117000I-150000J0D01*
G01*
X95475000Y-125117000D01*
G75*
G02*
X95325000Y-124967000I0J150000D01*
G01*
X95325000Y-123667000D01*
G75*
G02*
X95475000Y-123517000I150000J0D01*
G01*
G37*
G36*
G01*
X93600000Y-122642000D02*
X94900000Y-122642000D01*
G75*
G02*
X95050000Y-122792000I0J-150000D01*
G01*
X95050000Y-123092000D01*
G75*
G02*
X94900000Y-123242000I-150000J0D01*
G01*
X93600000Y-123242000D01*
G75*
G02*
X93450000Y-123092000I0J150000D01*
G01*
X93450000Y-122792000D01*
G75*
G02*
X93600000Y-122642000I150000J0D01*
G01*
G37*
G36*
G01*
X93600000Y-121842000D02*
X94900000Y-121842000D01*
G75*
G02*
X95050000Y-121992000I0J-150000D01*
G01*
X95050000Y-122292000D01*
G75*
G02*
X94900000Y-122442000I-150000J0D01*
G01*
X93600000Y-122442000D01*
G75*
G02*
X93450000Y-122292000I0J150000D01*
G01*
X93450000Y-121992000D01*
G75*
G02*
X93600000Y-121842000I150000J0D01*
G01*
G37*
G36*
G01*
X93600000Y-121042000D02*
X94900000Y-121042000D01*
G75*
G02*
X95050000Y-121192000I0J-150000D01*
G01*
X95050000Y-121492000D01*
G75*
G02*
X94900000Y-121642000I-150000J0D01*
G01*
X93600000Y-121642000D01*
G75*
G02*
X93450000Y-121492000I0J150000D01*
G01*
X93450000Y-121192000D01*
G75*
G02*
X93600000Y-121042000I150000J0D01*
G01*
G37*
G36*
G01*
X93600000Y-120242000D02*
X94900000Y-120242000D01*
G75*
G02*
X95050000Y-120392000I0J-150000D01*
G01*
X95050000Y-120692000D01*
G75*
G02*
X94900000Y-120842000I-150000J0D01*
G01*
X93600000Y-120842000D01*
G75*
G02*
X93450000Y-120692000I0J150000D01*
G01*
X93450000Y-120392000D01*
G75*
G02*
X93600000Y-120242000I150000J0D01*
G01*
G37*
G36*
G01*
X93600000Y-119442000D02*
X94900000Y-119442000D01*
G75*
G02*
X95050000Y-119592000I0J-150000D01*
G01*
X95050000Y-119892000D01*
G75*
G02*
X94900000Y-120042000I-150000J0D01*
G01*
X93600000Y-120042000D01*
G75*
G02*
X93450000Y-119892000I0J150000D01*
G01*
X93450000Y-119592000D01*
G75*
G02*
X93600000Y-119442000I150000J0D01*
G01*
G37*
G36*
G01*
X93600000Y-118642000D02*
X94900000Y-118642000D01*
G75*
G02*
X95050000Y-118792000I0J-150000D01*
G01*
X95050000Y-119092000D01*
G75*
G02*
X94900000Y-119242000I-150000J0D01*
G01*
X93600000Y-119242000D01*
G75*
G02*
X93450000Y-119092000I0J150000D01*
G01*
X93450000Y-118792000D01*
G75*
G02*
X93600000Y-118642000I150000J0D01*
G01*
G37*
G36*
G01*
X93600000Y-117842000D02*
X94900000Y-117842000D01*
G75*
G02*
X95050000Y-117992000I0J-150000D01*
G01*
X95050000Y-118292000D01*
G75*
G02*
X94900000Y-118442000I-150000J0D01*
G01*
X93600000Y-118442000D01*
G75*
G02*
X93450000Y-118292000I0J150000D01*
G01*
X93450000Y-117992000D01*
G75*
G02*
X93600000Y-117842000I150000J0D01*
G01*
G37*
G36*
G01*
X93600000Y-117042000D02*
X94900000Y-117042000D01*
G75*
G02*
X95050000Y-117192000I0J-150000D01*
G01*
X95050000Y-117492000D01*
G75*
G02*
X94900000Y-117642000I-150000J0D01*
G01*
X93600000Y-117642000D01*
G75*
G02*
X93450000Y-117492000I0J150000D01*
G01*
X93450000Y-117192000D01*
G75*
G02*
X93600000Y-117042000I150000J0D01*
G01*
G37*
G36*
G01*
X95475000Y-115167000D02*
X95775000Y-115167000D01*
G75*
G02*
X95925000Y-115317000I0J-150000D01*
G01*
X95925000Y-116617000D01*
G75*
G02*
X95775000Y-116767000I-150000J0D01*
G01*
X95475000Y-116767000D01*
G75*
G02*
X95325000Y-116617000I0J150000D01*
G01*
X95325000Y-115317000D01*
G75*
G02*
X95475000Y-115167000I150000J0D01*
G01*
G37*
G36*
G01*
X96275000Y-115167000D02*
X96575000Y-115167000D01*
G75*
G02*
X96725000Y-115317000I0J-150000D01*
G01*
X96725000Y-116617000D01*
G75*
G02*
X96575000Y-116767000I-150000J0D01*
G01*
X96275000Y-116767000D01*
G75*
G02*
X96125000Y-116617000I0J150000D01*
G01*
X96125000Y-115317000D01*
G75*
G02*
X96275000Y-115167000I150000J0D01*
G01*
G37*
G36*
G01*
X97075000Y-115167000D02*
X97375000Y-115167000D01*
G75*
G02*
X97525000Y-115317000I0J-150000D01*
G01*
X97525000Y-116617000D01*
G75*
G02*
X97375000Y-116767000I-150000J0D01*
G01*
X97075000Y-116767000D01*
G75*
G02*
X96925000Y-116617000I0J150000D01*
G01*
X96925000Y-115317000D01*
G75*
G02*
X97075000Y-115167000I150000J0D01*
G01*
G37*
G36*
G01*
X97875000Y-115167000D02*
X98175000Y-115167000D01*
G75*
G02*
X98325000Y-115317000I0J-150000D01*
G01*
X98325000Y-116617000D01*
G75*
G02*
X98175000Y-116767000I-150000J0D01*
G01*
X97875000Y-116767000D01*
G75*
G02*
X97725000Y-116617000I0J150000D01*
G01*
X97725000Y-115317000D01*
G75*
G02*
X97875000Y-115167000I150000J0D01*
G01*
G37*
G36*
G01*
X98675000Y-115167000D02*
X98975000Y-115167000D01*
G75*
G02*
X99125000Y-115317000I0J-150000D01*
G01*
X99125000Y-116617000D01*
G75*
G02*
X98975000Y-116767000I-150000J0D01*
G01*
X98675000Y-116767000D01*
G75*
G02*
X98525000Y-116617000I0J150000D01*
G01*
X98525000Y-115317000D01*
G75*
G02*
X98675000Y-115167000I150000J0D01*
G01*
G37*
G36*
G01*
X99475000Y-115167000D02*
X99775000Y-115167000D01*
G75*
G02*
X99925000Y-115317000I0J-150000D01*
G01*
X99925000Y-116617000D01*
G75*
G02*
X99775000Y-116767000I-150000J0D01*
G01*
X99475000Y-116767000D01*
G75*
G02*
X99325000Y-116617000I0J150000D01*
G01*
X99325000Y-115317000D01*
G75*
G02*
X99475000Y-115167000I150000J0D01*
G01*
G37*
G36*
G01*
X100275000Y-115167000D02*
X100575000Y-115167000D01*
G75*
G02*
X100725000Y-115317000I0J-150000D01*
G01*
X100725000Y-116617000D01*
G75*
G02*
X100575000Y-116767000I-150000J0D01*
G01*
X100275000Y-116767000D01*
G75*
G02*
X100125000Y-116617000I0J150000D01*
G01*
X100125000Y-115317000D01*
G75*
G02*
X100275000Y-115167000I150000J0D01*
G01*
G37*
G36*
G01*
X101075000Y-115167000D02*
X101375000Y-115167000D01*
G75*
G02*
X101525000Y-115317000I0J-150000D01*
G01*
X101525000Y-116617000D01*
G75*
G02*
X101375000Y-116767000I-150000J0D01*
G01*
X101075000Y-116767000D01*
G75*
G02*
X100925000Y-116617000I0J150000D01*
G01*
X100925000Y-115317000D01*
G75*
G02*
X101075000Y-115167000I150000J0D01*
G01*
G37*
%TD*%
D13*
%TO.C,U8*%
X88897000Y-90812000D03*
X86997000Y-90812000D03*
X86997000Y-88112000D03*
X87947000Y-88112000D03*
X88897000Y-88112000D03*
%TD*%
%TO.C,U6*%
X109662000Y-90758000D03*
X107762000Y-90758000D03*
X107762000Y-88058000D03*
X108712000Y-88058000D03*
X109662000Y-88058000D03*
%TD*%
%TO.C,U4*%
X129982000Y-90758000D03*
X128082000Y-90758000D03*
X128082000Y-88058000D03*
X129032000Y-88058000D03*
X129982000Y-88058000D03*
%TD*%
D14*
%TO.C,U2*%
X47650000Y-86600000D03*
X47650000Y-91200000D03*
X47650000Y-88900000D03*
D15*
X53950000Y-88900000D03*
%TD*%
%TO.C,R18*%
G36*
G01*
X134014738Y-95523000D02*
X134971262Y-95523000D01*
G75*
G02*
X135243000Y-95794738I0J-271738D01*
G01*
X135243000Y-96501262D01*
G75*
G02*
X134971262Y-96773000I-271738J0D01*
G01*
X134014738Y-96773000D01*
G75*
G02*
X133743000Y-96501262I0J271738D01*
G01*
X133743000Y-95794738D01*
G75*
G02*
X134014738Y-95523000I271738J0D01*
G01*
G37*
G36*
G01*
X134014738Y-93473000D02*
X134971262Y-93473000D01*
G75*
G02*
X135243000Y-93744738I0J-271738D01*
G01*
X135243000Y-94451262D01*
G75*
G02*
X134971262Y-94723000I-271738J0D01*
G01*
X134014738Y-94723000D01*
G75*
G02*
X133743000Y-94451262I0J271738D01*
G01*
X133743000Y-93744738D01*
G75*
G02*
X134014738Y-93473000I271738J0D01*
G01*
G37*
%TD*%
%TO.C,R17*%
G36*
G01*
X72546738Y-95396000D02*
X73503262Y-95396000D01*
G75*
G02*
X73775000Y-95667738I0J-271738D01*
G01*
X73775000Y-96374262D01*
G75*
G02*
X73503262Y-96646000I-271738J0D01*
G01*
X72546738Y-96646000D01*
G75*
G02*
X72275000Y-96374262I0J271738D01*
G01*
X72275000Y-95667738D01*
G75*
G02*
X72546738Y-95396000I271738J0D01*
G01*
G37*
G36*
G01*
X72546738Y-93346000D02*
X73503262Y-93346000D01*
G75*
G02*
X73775000Y-93617738I0J-271738D01*
G01*
X73775000Y-94324262D01*
G75*
G02*
X73503262Y-94596000I-271738J0D01*
G01*
X72546738Y-94596000D01*
G75*
G02*
X72275000Y-94324262I0J271738D01*
G01*
X72275000Y-93617738D01*
G75*
G02*
X72546738Y-93346000I271738J0D01*
G01*
G37*
%TD*%
%TO.C,R14*%
G36*
G01*
X92993738Y-95523000D02*
X93950262Y-95523000D01*
G75*
G02*
X94222000Y-95794738I0J-271738D01*
G01*
X94222000Y-96501262D01*
G75*
G02*
X93950262Y-96773000I-271738J0D01*
G01*
X92993738Y-96773000D01*
G75*
G02*
X92722000Y-96501262I0J271738D01*
G01*
X92722000Y-95794738D01*
G75*
G02*
X92993738Y-95523000I271738J0D01*
G01*
G37*
G36*
G01*
X92993738Y-93473000D02*
X93950262Y-93473000D01*
G75*
G02*
X94222000Y-93744738I0J-271738D01*
G01*
X94222000Y-94451262D01*
G75*
G02*
X93950262Y-94723000I-271738J0D01*
G01*
X92993738Y-94723000D01*
G75*
G02*
X92722000Y-94451262I0J271738D01*
G01*
X92722000Y-93744738D01*
G75*
G02*
X92993738Y-93473000I271738J0D01*
G01*
G37*
%TD*%
%TO.C,R13*%
G36*
G01*
X114075738Y-95523000D02*
X115032262Y-95523000D01*
G75*
G02*
X115304000Y-95794738I0J-271738D01*
G01*
X115304000Y-96501262D01*
G75*
G02*
X115032262Y-96773000I-271738J0D01*
G01*
X114075738Y-96773000D01*
G75*
G02*
X113804000Y-96501262I0J271738D01*
G01*
X113804000Y-95794738D01*
G75*
G02*
X114075738Y-95523000I271738J0D01*
G01*
G37*
G36*
G01*
X114075738Y-93473000D02*
X115032262Y-93473000D01*
G75*
G02*
X115304000Y-93744738I0J-271738D01*
G01*
X115304000Y-94451262D01*
G75*
G02*
X115032262Y-94723000I-271738J0D01*
G01*
X114075738Y-94723000D01*
G75*
G02*
X113804000Y-94451262I0J271738D01*
G01*
X113804000Y-93744738D01*
G75*
G02*
X114075738Y-93473000I271738J0D01*
G01*
G37*
%TD*%
D16*
%TO.C,JP1*%
X54864000Y-95108000D03*
X54864000Y-96408000D03*
%TD*%
D17*
%TO.C,J7*%
X93599000Y-127762000D03*
X96139000Y-127762000D03*
X98679000Y-127762000D03*
X101219000Y-127762000D03*
D18*
X103759000Y-127762000D03*
%TD*%
D19*
%TO.C,D5*%
X129286000Y-65278000D03*
D20*
X129286000Y-62738000D03*
%TD*%
D19*
%TO.C,D4*%
X108712000Y-65278000D03*
D20*
X108712000Y-62738000D03*
%TD*%
D19*
%TO.C,D3*%
X88138000Y-65278000D03*
D20*
X88138000Y-62738000D03*
%TD*%
D19*
%TO.C,D2*%
X67564000Y-65278000D03*
D20*
X67564000Y-62738000D03*
%TD*%
%TO.C,C40*%
G36*
G01*
X55909738Y-107207000D02*
X56866262Y-107207000D01*
G75*
G02*
X57138000Y-107478738I0J-271738D01*
G01*
X57138000Y-108185262D01*
G75*
G02*
X56866262Y-108457000I-271738J0D01*
G01*
X55909738Y-108457000D01*
G75*
G02*
X55638000Y-108185262I0J271738D01*
G01*
X55638000Y-107478738D01*
G75*
G02*
X55909738Y-107207000I271738J0D01*
G01*
G37*
G36*
G01*
X55909738Y-105157000D02*
X56866262Y-105157000D01*
G75*
G02*
X57138000Y-105428738I0J-271738D01*
G01*
X57138000Y-106135262D01*
G75*
G02*
X56866262Y-106407000I-271738J0D01*
G01*
X55909738Y-106407000D01*
G75*
G02*
X55638000Y-106135262I0J271738D01*
G01*
X55638000Y-105428738D01*
G75*
G02*
X55909738Y-105157000I271738J0D01*
G01*
G37*
%TD*%
%TO.C,C39*%
G36*
G01*
X52343000Y-102205262D02*
X52343000Y-101248738D01*
G75*
G02*
X52614738Y-100977000I271738J0D01*
G01*
X53321262Y-100977000D01*
G75*
G02*
X53593000Y-101248738I0J-271738D01*
G01*
X53593000Y-102205262D01*
G75*
G02*
X53321262Y-102477000I-271738J0D01*
G01*
X52614738Y-102477000D01*
G75*
G02*
X52343000Y-102205262I0J271738D01*
G01*
G37*
G36*
G01*
X50293000Y-102205262D02*
X50293000Y-101248738D01*
G75*
G02*
X50564738Y-100977000I271738J0D01*
G01*
X51271262Y-100977000D01*
G75*
G02*
X51543000Y-101248738I0J-271738D01*
G01*
X51543000Y-102205262D01*
G75*
G02*
X51271262Y-102477000I-271738J0D01*
G01*
X50564738Y-102477000D01*
G75*
G02*
X50293000Y-102205262I0J271738D01*
G01*
G37*
%TD*%
%TO.C,C38*%
G36*
G01*
X136554738Y-95523000D02*
X137511262Y-95523000D01*
G75*
G02*
X137783000Y-95794738I0J-271738D01*
G01*
X137783000Y-96501262D01*
G75*
G02*
X137511262Y-96773000I-271738J0D01*
G01*
X136554738Y-96773000D01*
G75*
G02*
X136283000Y-96501262I0J271738D01*
G01*
X136283000Y-95794738D01*
G75*
G02*
X136554738Y-95523000I271738J0D01*
G01*
G37*
G36*
G01*
X136554738Y-93473000D02*
X137511262Y-93473000D01*
G75*
G02*
X137783000Y-93744738I0J-271738D01*
G01*
X137783000Y-94451262D01*
G75*
G02*
X137511262Y-94723000I-271738J0D01*
G01*
X136554738Y-94723000D01*
G75*
G02*
X136283000Y-94451262I0J271738D01*
G01*
X136283000Y-93744738D01*
G75*
G02*
X136554738Y-93473000I271738J0D01*
G01*
G37*
%TD*%
%TO.C,C37*%
G36*
G01*
X135909000Y-99919262D02*
X135909000Y-98962738D01*
G75*
G02*
X136180738Y-98691000I271738J0D01*
G01*
X136887262Y-98691000D01*
G75*
G02*
X137159000Y-98962738I0J-271738D01*
G01*
X137159000Y-99919262D01*
G75*
G02*
X136887262Y-100191000I-271738J0D01*
G01*
X136180738Y-100191000D01*
G75*
G02*
X135909000Y-99919262I0J271738D01*
G01*
G37*
G36*
G01*
X133859000Y-99919262D02*
X133859000Y-98962738D01*
G75*
G02*
X134130738Y-98691000I271738J0D01*
G01*
X134837262Y-98691000D01*
G75*
G02*
X135109000Y-98962738I0J-271738D01*
G01*
X135109000Y-99919262D01*
G75*
G02*
X134837262Y-100191000I-271738J0D01*
G01*
X134130738Y-100191000D01*
G75*
G02*
X133859000Y-99919262I0J271738D01*
G01*
G37*
%TD*%
%TO.C,C36*%
G36*
G01*
X75086738Y-95396000D02*
X76043262Y-95396000D01*
G75*
G02*
X76315000Y-95667738I0J-271738D01*
G01*
X76315000Y-96374262D01*
G75*
G02*
X76043262Y-96646000I-271738J0D01*
G01*
X75086738Y-96646000D01*
G75*
G02*
X74815000Y-96374262I0J271738D01*
G01*
X74815000Y-95667738D01*
G75*
G02*
X75086738Y-95396000I271738J0D01*
G01*
G37*
G36*
G01*
X75086738Y-93346000D02*
X76043262Y-93346000D01*
G75*
G02*
X76315000Y-93617738I0J-271738D01*
G01*
X76315000Y-94324262D01*
G75*
G02*
X76043262Y-94596000I-271738J0D01*
G01*
X75086738Y-94596000D01*
G75*
G02*
X74815000Y-94324262I0J271738D01*
G01*
X74815000Y-93617738D01*
G75*
G02*
X75086738Y-93346000I271738J0D01*
G01*
G37*
%TD*%
%TO.C,C35*%
G36*
G01*
X74314000Y-99919262D02*
X74314000Y-98962738D01*
G75*
G02*
X74585738Y-98691000I271738J0D01*
G01*
X75292262Y-98691000D01*
G75*
G02*
X75564000Y-98962738I0J-271738D01*
G01*
X75564000Y-99919262D01*
G75*
G02*
X75292262Y-100191000I-271738J0D01*
G01*
X74585738Y-100191000D01*
G75*
G02*
X74314000Y-99919262I0J271738D01*
G01*
G37*
G36*
G01*
X72264000Y-99919262D02*
X72264000Y-98962738D01*
G75*
G02*
X72535738Y-98691000I271738J0D01*
G01*
X73242262Y-98691000D01*
G75*
G02*
X73514000Y-98962738I0J-271738D01*
G01*
X73514000Y-99919262D01*
G75*
G02*
X73242262Y-100191000I-271738J0D01*
G01*
X72535738Y-100191000D01*
G75*
G02*
X72264000Y-99919262I0J271738D01*
G01*
G37*
%TD*%
%TO.C,C34*%
G36*
G01*
X95533738Y-95523000D02*
X96490262Y-95523000D01*
G75*
G02*
X96762000Y-95794738I0J-271738D01*
G01*
X96762000Y-96501262D01*
G75*
G02*
X96490262Y-96773000I-271738J0D01*
G01*
X95533738Y-96773000D01*
G75*
G02*
X95262000Y-96501262I0J271738D01*
G01*
X95262000Y-95794738D01*
G75*
G02*
X95533738Y-95523000I271738J0D01*
G01*
G37*
G36*
G01*
X95533738Y-93473000D02*
X96490262Y-93473000D01*
G75*
G02*
X96762000Y-93744738I0J-271738D01*
G01*
X96762000Y-94451262D01*
G75*
G02*
X96490262Y-94723000I-271738J0D01*
G01*
X95533738Y-94723000D01*
G75*
G02*
X95262000Y-94451262I0J271738D01*
G01*
X95262000Y-93744738D01*
G75*
G02*
X95533738Y-93473000I271738J0D01*
G01*
G37*
%TD*%
%TO.C,C33*%
G36*
G01*
X94761000Y-100046262D02*
X94761000Y-99089738D01*
G75*
G02*
X95032738Y-98818000I271738J0D01*
G01*
X95739262Y-98818000D01*
G75*
G02*
X96011000Y-99089738I0J-271738D01*
G01*
X96011000Y-100046262D01*
G75*
G02*
X95739262Y-100318000I-271738J0D01*
G01*
X95032738Y-100318000D01*
G75*
G02*
X94761000Y-100046262I0J271738D01*
G01*
G37*
G36*
G01*
X92711000Y-100046262D02*
X92711000Y-99089738D01*
G75*
G02*
X92982738Y-98818000I271738J0D01*
G01*
X93689262Y-98818000D01*
G75*
G02*
X93961000Y-99089738I0J-271738D01*
G01*
X93961000Y-100046262D01*
G75*
G02*
X93689262Y-100318000I-271738J0D01*
G01*
X92982738Y-100318000D01*
G75*
G02*
X92711000Y-100046262I0J271738D01*
G01*
G37*
%TD*%
%TO.C,C32*%
G36*
G01*
X116488738Y-95523000D02*
X117445262Y-95523000D01*
G75*
G02*
X117717000Y-95794738I0J-271738D01*
G01*
X117717000Y-96501262D01*
G75*
G02*
X117445262Y-96773000I-271738J0D01*
G01*
X116488738Y-96773000D01*
G75*
G02*
X116217000Y-96501262I0J271738D01*
G01*
X116217000Y-95794738D01*
G75*
G02*
X116488738Y-95523000I271738J0D01*
G01*
G37*
G36*
G01*
X116488738Y-93473000D02*
X117445262Y-93473000D01*
G75*
G02*
X117717000Y-93744738I0J-271738D01*
G01*
X117717000Y-94451262D01*
G75*
G02*
X117445262Y-94723000I-271738J0D01*
G01*
X116488738Y-94723000D01*
G75*
G02*
X116217000Y-94451262I0J271738D01*
G01*
X116217000Y-93744738D01*
G75*
G02*
X116488738Y-93473000I271738J0D01*
G01*
G37*
%TD*%
%TO.C,C31*%
G36*
G01*
X115716000Y-99919262D02*
X115716000Y-98962738D01*
G75*
G02*
X115987738Y-98691000I271738J0D01*
G01*
X116694262Y-98691000D01*
G75*
G02*
X116966000Y-98962738I0J-271738D01*
G01*
X116966000Y-99919262D01*
G75*
G02*
X116694262Y-100191000I-271738J0D01*
G01*
X115987738Y-100191000D01*
G75*
G02*
X115716000Y-99919262I0J271738D01*
G01*
G37*
G36*
G01*
X113666000Y-99919262D02*
X113666000Y-98962738D01*
G75*
G02*
X113937738Y-98691000I271738J0D01*
G01*
X114644262Y-98691000D01*
G75*
G02*
X114916000Y-98962738I0J-271738D01*
G01*
X114916000Y-99919262D01*
G75*
G02*
X114644262Y-100191000I-271738J0D01*
G01*
X113937738Y-100191000D01*
G75*
G02*
X113666000Y-99919262I0J271738D01*
G01*
G37*
%TD*%
%TO.C,C21*%
G36*
G01*
X50142544Y-97245000D02*
X51457456Y-97245000D01*
G75*
G02*
X51725000Y-97512544I0J-267544D01*
G01*
X51725000Y-98502456D01*
G75*
G02*
X51457456Y-98770000I-267544J0D01*
G01*
X50142544Y-98770000D01*
G75*
G02*
X49875000Y-98502456I0J267544D01*
G01*
X49875000Y-97512544D01*
G75*
G02*
X50142544Y-97245000I267544J0D01*
G01*
G37*
G36*
G01*
X50142544Y-94270000D02*
X51457456Y-94270000D01*
G75*
G02*
X51725000Y-94537544I0J-267544D01*
G01*
X51725000Y-95527456D01*
G75*
G02*
X51457456Y-95795000I-267544J0D01*
G01*
X50142544Y-95795000D01*
G75*
G02*
X49875000Y-95527456I0J267544D01*
G01*
X49875000Y-94537544D01*
G75*
G02*
X50142544Y-94270000I267544J0D01*
G01*
G37*
%TD*%
%TO.C,C20*%
G36*
G01*
X51457456Y-80555000D02*
X50142544Y-80555000D01*
G75*
G02*
X49875000Y-80287456I0J267544D01*
G01*
X49875000Y-79297544D01*
G75*
G02*
X50142544Y-79030000I267544J0D01*
G01*
X51457456Y-79030000D01*
G75*
G02*
X51725000Y-79297544I0J-267544D01*
G01*
X51725000Y-80287456D01*
G75*
G02*
X51457456Y-80555000I-267544J0D01*
G01*
G37*
G36*
G01*
X51457456Y-83530000D02*
X50142544Y-83530000D01*
G75*
G02*
X49875000Y-83262456I0J267544D01*
G01*
X49875000Y-82272544D01*
G75*
G02*
X50142544Y-82005000I267544J0D01*
G01*
X51457456Y-82005000D01*
G75*
G02*
X51725000Y-82272544I0J-267544D01*
G01*
X51725000Y-83262456D01*
G75*
G02*
X51457456Y-83530000I-267544J0D01*
G01*
G37*
%TD*%
%TO.C,C14*%
G36*
G01*
X91342738Y-89808000D02*
X92299262Y-89808000D01*
G75*
G02*
X92571000Y-90079738I0J-271738D01*
G01*
X92571000Y-90786262D01*
G75*
G02*
X92299262Y-91058000I-271738J0D01*
G01*
X91342738Y-91058000D01*
G75*
G02*
X91071000Y-90786262I0J271738D01*
G01*
X91071000Y-90079738D01*
G75*
G02*
X91342738Y-89808000I271738J0D01*
G01*
G37*
G36*
G01*
X91342738Y-87758000D02*
X92299262Y-87758000D01*
G75*
G02*
X92571000Y-88029738I0J-271738D01*
G01*
X92571000Y-88736262D01*
G75*
G02*
X92299262Y-89008000I-271738J0D01*
G01*
X91342738Y-89008000D01*
G75*
G02*
X91071000Y-88736262I0J271738D01*
G01*
X91071000Y-88029738D01*
G75*
G02*
X91342738Y-87758000I271738J0D01*
G01*
G37*
%TD*%
%TO.C,C13*%
G36*
G01*
X88411000Y-86076262D02*
X88411000Y-85119738D01*
G75*
G02*
X88682738Y-84848000I271738J0D01*
G01*
X89389262Y-84848000D01*
G75*
G02*
X89661000Y-85119738I0J-271738D01*
G01*
X89661000Y-86076262D01*
G75*
G02*
X89389262Y-86348000I-271738J0D01*
G01*
X88682738Y-86348000D01*
G75*
G02*
X88411000Y-86076262I0J271738D01*
G01*
G37*
G36*
G01*
X86361000Y-86076262D02*
X86361000Y-85119738D01*
G75*
G02*
X86632738Y-84848000I271738J0D01*
G01*
X87339262Y-84848000D01*
G75*
G02*
X87611000Y-85119738I0J-271738D01*
G01*
X87611000Y-86076262D01*
G75*
G02*
X87339262Y-86348000I-271738J0D01*
G01*
X86632738Y-86348000D01*
G75*
G02*
X86361000Y-86076262I0J271738D01*
G01*
G37*
%TD*%
%TO.C,C9*%
G36*
G01*
X112043738Y-89808000D02*
X113000262Y-89808000D01*
G75*
G02*
X113272000Y-90079738I0J-271738D01*
G01*
X113272000Y-90786262D01*
G75*
G02*
X113000262Y-91058000I-271738J0D01*
G01*
X112043738Y-91058000D01*
G75*
G02*
X111772000Y-90786262I0J271738D01*
G01*
X111772000Y-90079738D01*
G75*
G02*
X112043738Y-89808000I271738J0D01*
G01*
G37*
G36*
G01*
X112043738Y-87758000D02*
X113000262Y-87758000D01*
G75*
G02*
X113272000Y-88029738I0J-271738D01*
G01*
X113272000Y-88736262D01*
G75*
G02*
X113000262Y-89008000I-271738J0D01*
G01*
X112043738Y-89008000D01*
G75*
G02*
X111772000Y-88736262I0J271738D01*
G01*
X111772000Y-88029738D01*
G75*
G02*
X112043738Y-87758000I271738J0D01*
G01*
G37*
%TD*%
%TO.C,C8*%
G36*
G01*
X109112000Y-86076262D02*
X109112000Y-85119738D01*
G75*
G02*
X109383738Y-84848000I271738J0D01*
G01*
X110090262Y-84848000D01*
G75*
G02*
X110362000Y-85119738I0J-271738D01*
G01*
X110362000Y-86076262D01*
G75*
G02*
X110090262Y-86348000I-271738J0D01*
G01*
X109383738Y-86348000D01*
G75*
G02*
X109112000Y-86076262I0J271738D01*
G01*
G37*
G36*
G01*
X107062000Y-86076262D02*
X107062000Y-85119738D01*
G75*
G02*
X107333738Y-84848000I271738J0D01*
G01*
X108040262Y-84848000D01*
G75*
G02*
X108312000Y-85119738I0J-271738D01*
G01*
X108312000Y-86076262D01*
G75*
G02*
X108040262Y-86348000I-271738J0D01*
G01*
X107333738Y-86348000D01*
G75*
G02*
X107062000Y-86076262I0J271738D01*
G01*
G37*
%TD*%
%TO.C,C7*%
G36*
G01*
X132363738Y-89808000D02*
X133320262Y-89808000D01*
G75*
G02*
X133592000Y-90079738I0J-271738D01*
G01*
X133592000Y-90786262D01*
G75*
G02*
X133320262Y-91058000I-271738J0D01*
G01*
X132363738Y-91058000D01*
G75*
G02*
X132092000Y-90786262I0J271738D01*
G01*
X132092000Y-90079738D01*
G75*
G02*
X132363738Y-89808000I271738J0D01*
G01*
G37*
G36*
G01*
X132363738Y-87758000D02*
X133320262Y-87758000D01*
G75*
G02*
X133592000Y-88029738I0J-271738D01*
G01*
X133592000Y-88736262D01*
G75*
G02*
X133320262Y-89008000I-271738J0D01*
G01*
X132363738Y-89008000D01*
G75*
G02*
X132092000Y-88736262I0J271738D01*
G01*
X132092000Y-88029738D01*
G75*
G02*
X132363738Y-87758000I271738J0D01*
G01*
G37*
%TD*%
%TO.C,C3*%
G36*
G01*
X129559000Y-86076262D02*
X129559000Y-85119738D01*
G75*
G02*
X129830738Y-84848000I271738J0D01*
G01*
X130537262Y-84848000D01*
G75*
G02*
X130809000Y-85119738I0J-271738D01*
G01*
X130809000Y-86076262D01*
G75*
G02*
X130537262Y-86348000I-271738J0D01*
G01*
X129830738Y-86348000D01*
G75*
G02*
X129559000Y-86076262I0J271738D01*
G01*
G37*
G36*
G01*
X127509000Y-86076262D02*
X127509000Y-85119738D01*
G75*
G02*
X127780738Y-84848000I271738J0D01*
G01*
X128487262Y-84848000D01*
G75*
G02*
X128759000Y-85119738I0J-271738D01*
G01*
X128759000Y-86076262D01*
G75*
G02*
X128487262Y-86348000I-271738J0D01*
G01*
X127780738Y-86348000D01*
G75*
G02*
X127509000Y-86076262I0J271738D01*
G01*
G37*
%TD*%
%TO.C,R1*%
G36*
G01*
X132685262Y-108693000D02*
X131728738Y-108693000D01*
G75*
G02*
X131457000Y-108421262I0J271738D01*
G01*
X131457000Y-107714738D01*
G75*
G02*
X131728738Y-107443000I271738J0D01*
G01*
X132685262Y-107443000D01*
G75*
G02*
X132957000Y-107714738I0J-271738D01*
G01*
X132957000Y-108421262D01*
G75*
G02*
X132685262Y-108693000I-271738J0D01*
G01*
G37*
G36*
G01*
X132685262Y-110743000D02*
X131728738Y-110743000D01*
G75*
G02*
X131457000Y-110471262I0J271738D01*
G01*
X131457000Y-109764738D01*
G75*
G02*
X131728738Y-109493000I271738J0D01*
G01*
X132685262Y-109493000D01*
G75*
G02*
X132957000Y-109764738I0J-271738D01*
G01*
X132957000Y-110471262D01*
G75*
G02*
X132685262Y-110743000I-271738J0D01*
G01*
G37*
%TD*%
D21*
%TO.C,RV3*%
X86360000Y-79425800D03*
X89865200Y-79425800D03*
X86360000Y-137922000D03*
D22*
X83921600Y-84759800D03*
X92278200Y-83566000D03*
X83921600Y-132562600D03*
X92303600Y-133781800D03*
%TD*%
D21*
%TO.C,RV4*%
X65811400Y-79425800D03*
X69316600Y-79425800D03*
X65811400Y-137922000D03*
D22*
X63373000Y-84759800D03*
X71729600Y-83566000D03*
X63373000Y-132562600D03*
X71755000Y-133781800D03*
%TD*%
D21*
%TO.C,RV2*%
X106934000Y-79425800D03*
X110439200Y-79425800D03*
X106934000Y-137922000D03*
D22*
X104495600Y-84759800D03*
X112852200Y-83566000D03*
X104495600Y-132562600D03*
X112877600Y-133781800D03*
%TD*%
D21*
%TO.C,RV1*%
X127533400Y-79425800D03*
X131038600Y-79425800D03*
X127533400Y-137922000D03*
D22*
X125095000Y-84759800D03*
X133451600Y-83566000D03*
X125095000Y-132562600D03*
X133477000Y-133781800D03*
%TD*%
%TO.C,C29*%
G36*
G01*
X47214262Y-113392000D02*
X46257738Y-113392000D01*
G75*
G02*
X45986000Y-113120262I0J271738D01*
G01*
X45986000Y-112413738D01*
G75*
G02*
X46257738Y-112142000I271738J0D01*
G01*
X47214262Y-112142000D01*
G75*
G02*
X47486000Y-112413738I0J-271738D01*
G01*
X47486000Y-113120262D01*
G75*
G02*
X47214262Y-113392000I-271738J0D01*
G01*
G37*
G36*
G01*
X47214262Y-115442000D02*
X46257738Y-115442000D01*
G75*
G02*
X45986000Y-115170262I0J271738D01*
G01*
X45986000Y-114463738D01*
G75*
G02*
X46257738Y-114192000I271738J0D01*
G01*
X47214262Y-114192000D01*
G75*
G02*
X47486000Y-114463738I0J-271738D01*
G01*
X47486000Y-115170262D01*
G75*
G02*
X47214262Y-115442000I-271738J0D01*
G01*
G37*
%TD*%
%TO.C,C28*%
G36*
G01*
X58693000Y-111476262D02*
X58693000Y-110519738D01*
G75*
G02*
X58964738Y-110248000I271738J0D01*
G01*
X59671262Y-110248000D01*
G75*
G02*
X59943000Y-110519738I0J-271738D01*
G01*
X59943000Y-111476262D01*
G75*
G02*
X59671262Y-111748000I-271738J0D01*
G01*
X58964738Y-111748000D01*
G75*
G02*
X58693000Y-111476262I0J271738D01*
G01*
G37*
G36*
G01*
X56643000Y-111476262D02*
X56643000Y-110519738D01*
G75*
G02*
X56914738Y-110248000I271738J0D01*
G01*
X57621262Y-110248000D01*
G75*
G02*
X57893000Y-110519738I0J-271738D01*
G01*
X57893000Y-111476262D01*
G75*
G02*
X57621262Y-111748000I-271738J0D01*
G01*
X56914738Y-111748000D01*
G75*
G02*
X56643000Y-111476262I0J271738D01*
G01*
G37*
%TD*%
%TO.C,U9*%
G36*
G01*
X50493000Y-114633000D02*
X50493000Y-114983000D01*
G75*
G02*
X50318000Y-115158000I-175000J0D01*
G01*
X48618000Y-115158000D01*
G75*
G02*
X48443000Y-114983000I0J175000D01*
G01*
X48443000Y-114633000D01*
G75*
G02*
X48618000Y-114458000I175000J0D01*
G01*
X50318000Y-114458000D01*
G75*
G02*
X50493000Y-114633000I0J-175000D01*
G01*
G37*
G36*
G01*
X50493000Y-113363000D02*
X50493000Y-113713000D01*
G75*
G02*
X50318000Y-113888000I-175000J0D01*
G01*
X48618000Y-113888000D01*
G75*
G02*
X48443000Y-113713000I0J175000D01*
G01*
X48443000Y-113363000D01*
G75*
G02*
X48618000Y-113188000I175000J0D01*
G01*
X50318000Y-113188000D01*
G75*
G02*
X50493000Y-113363000I0J-175000D01*
G01*
G37*
G36*
G01*
X50493000Y-112093000D02*
X50493000Y-112443000D01*
G75*
G02*
X50318000Y-112618000I-175000J0D01*
G01*
X48618000Y-112618000D01*
G75*
G02*
X48443000Y-112443000I0J175000D01*
G01*
X48443000Y-112093000D01*
G75*
G02*
X48618000Y-111918000I175000J0D01*
G01*
X50318000Y-111918000D01*
G75*
G02*
X50493000Y-112093000I0J-175000D01*
G01*
G37*
G36*
G01*
X50493000Y-110823000D02*
X50493000Y-111173000D01*
G75*
G02*
X50318000Y-111348000I-175000J0D01*
G01*
X48618000Y-111348000D01*
G75*
G02*
X48443000Y-111173000I0J175000D01*
G01*
X48443000Y-110823000D01*
G75*
G02*
X48618000Y-110648000I175000J0D01*
G01*
X50318000Y-110648000D01*
G75*
G02*
X50493000Y-110823000I0J-175000D01*
G01*
G37*
G36*
G01*
X55443000Y-110823000D02*
X55443000Y-111173000D01*
G75*
G02*
X55268000Y-111348000I-175000J0D01*
G01*
X53568000Y-111348000D01*
G75*
G02*
X53393000Y-111173000I0J175000D01*
G01*
X53393000Y-110823000D01*
G75*
G02*
X53568000Y-110648000I175000J0D01*
G01*
X55268000Y-110648000D01*
G75*
G02*
X55443000Y-110823000I0J-175000D01*
G01*
G37*
G36*
G01*
X55443000Y-112093000D02*
X55443000Y-112443000D01*
G75*
G02*
X55268000Y-112618000I-175000J0D01*
G01*
X53568000Y-112618000D01*
G75*
G02*
X53393000Y-112443000I0J175000D01*
G01*
X53393000Y-112093000D01*
G75*
G02*
X53568000Y-111918000I175000J0D01*
G01*
X55268000Y-111918000D01*
G75*
G02*
X55443000Y-112093000I0J-175000D01*
G01*
G37*
G36*
G01*
X55443000Y-113363000D02*
X55443000Y-113713000D01*
G75*
G02*
X55268000Y-113888000I-175000J0D01*
G01*
X53568000Y-113888000D01*
G75*
G02*
X53393000Y-113713000I0J175000D01*
G01*
X53393000Y-113363000D01*
G75*
G02*
X53568000Y-113188000I175000J0D01*
G01*
X55268000Y-113188000D01*
G75*
G02*
X55443000Y-113363000I0J-175000D01*
G01*
G37*
G36*
G01*
X55443000Y-114633000D02*
X55443000Y-114983000D01*
G75*
G02*
X55268000Y-115158000I-175000J0D01*
G01*
X53568000Y-115158000D01*
G75*
G02*
X53393000Y-114983000I0J175000D01*
G01*
X53393000Y-114633000D01*
G75*
G02*
X53568000Y-114458000I175000J0D01*
G01*
X55268000Y-114458000D01*
G75*
G02*
X55443000Y-114633000I0J-175000D01*
G01*
G37*
%TD*%
%TO.C,U7*%
G36*
G01*
X68024000Y-103431000D02*
X68374000Y-103431000D01*
G75*
G02*
X68549000Y-103606000I0J-175000D01*
G01*
X68549000Y-105306000D01*
G75*
G02*
X68374000Y-105481000I-175000J0D01*
G01*
X68024000Y-105481000D01*
G75*
G02*
X67849000Y-105306000I0J175000D01*
G01*
X67849000Y-103606000D01*
G75*
G02*
X68024000Y-103431000I175000J0D01*
G01*
G37*
G36*
G01*
X66754000Y-103431000D02*
X67104000Y-103431000D01*
G75*
G02*
X67279000Y-103606000I0J-175000D01*
G01*
X67279000Y-105306000D01*
G75*
G02*
X67104000Y-105481000I-175000J0D01*
G01*
X66754000Y-105481000D01*
G75*
G02*
X66579000Y-105306000I0J175000D01*
G01*
X66579000Y-103606000D01*
G75*
G02*
X66754000Y-103431000I175000J0D01*
G01*
G37*
G36*
G01*
X65484000Y-103431000D02*
X65834000Y-103431000D01*
G75*
G02*
X66009000Y-103606000I0J-175000D01*
G01*
X66009000Y-105306000D01*
G75*
G02*
X65834000Y-105481000I-175000J0D01*
G01*
X65484000Y-105481000D01*
G75*
G02*
X65309000Y-105306000I0J175000D01*
G01*
X65309000Y-103606000D01*
G75*
G02*
X65484000Y-103431000I175000J0D01*
G01*
G37*
G36*
G01*
X64214000Y-103431000D02*
X64564000Y-103431000D01*
G75*
G02*
X64739000Y-103606000I0J-175000D01*
G01*
X64739000Y-105306000D01*
G75*
G02*
X64564000Y-105481000I-175000J0D01*
G01*
X64214000Y-105481000D01*
G75*
G02*
X64039000Y-105306000I0J175000D01*
G01*
X64039000Y-103606000D01*
G75*
G02*
X64214000Y-103431000I175000J0D01*
G01*
G37*
G36*
G01*
X64214000Y-98481000D02*
X64564000Y-98481000D01*
G75*
G02*
X64739000Y-98656000I0J-175000D01*
G01*
X64739000Y-100356000D01*
G75*
G02*
X64564000Y-100531000I-175000J0D01*
G01*
X64214000Y-100531000D01*
G75*
G02*
X64039000Y-100356000I0J175000D01*
G01*
X64039000Y-98656000D01*
G75*
G02*
X64214000Y-98481000I175000J0D01*
G01*
G37*
G36*
G01*
X65484000Y-98481000D02*
X65834000Y-98481000D01*
G75*
G02*
X66009000Y-98656000I0J-175000D01*
G01*
X66009000Y-100356000D01*
G75*
G02*
X65834000Y-100531000I-175000J0D01*
G01*
X65484000Y-100531000D01*
G75*
G02*
X65309000Y-100356000I0J175000D01*
G01*
X65309000Y-98656000D01*
G75*
G02*
X65484000Y-98481000I175000J0D01*
G01*
G37*
G36*
G01*
X66754000Y-98481000D02*
X67104000Y-98481000D01*
G75*
G02*
X67279000Y-98656000I0J-175000D01*
G01*
X67279000Y-100356000D01*
G75*
G02*
X67104000Y-100531000I-175000J0D01*
G01*
X66754000Y-100531000D01*
G75*
G02*
X66579000Y-100356000I0J175000D01*
G01*
X66579000Y-98656000D01*
G75*
G02*
X66754000Y-98481000I175000J0D01*
G01*
G37*
G36*
G01*
X68024000Y-98481000D02*
X68374000Y-98481000D01*
G75*
G02*
X68549000Y-98656000I0J-175000D01*
G01*
X68549000Y-100356000D01*
G75*
G02*
X68374000Y-100531000I-175000J0D01*
G01*
X68024000Y-100531000D01*
G75*
G02*
X67849000Y-100356000I0J175000D01*
G01*
X67849000Y-98656000D01*
G75*
G02*
X68024000Y-98481000I175000J0D01*
G01*
G37*
%TD*%
%TO.C,U5*%
G36*
G01*
X88471000Y-103558000D02*
X88821000Y-103558000D01*
G75*
G02*
X88996000Y-103733000I0J-175000D01*
G01*
X88996000Y-105433000D01*
G75*
G02*
X88821000Y-105608000I-175000J0D01*
G01*
X88471000Y-105608000D01*
G75*
G02*
X88296000Y-105433000I0J175000D01*
G01*
X88296000Y-103733000D01*
G75*
G02*
X88471000Y-103558000I175000J0D01*
G01*
G37*
G36*
G01*
X87201000Y-103558000D02*
X87551000Y-103558000D01*
G75*
G02*
X87726000Y-103733000I0J-175000D01*
G01*
X87726000Y-105433000D01*
G75*
G02*
X87551000Y-105608000I-175000J0D01*
G01*
X87201000Y-105608000D01*
G75*
G02*
X87026000Y-105433000I0J175000D01*
G01*
X87026000Y-103733000D01*
G75*
G02*
X87201000Y-103558000I175000J0D01*
G01*
G37*
G36*
G01*
X85931000Y-103558000D02*
X86281000Y-103558000D01*
G75*
G02*
X86456000Y-103733000I0J-175000D01*
G01*
X86456000Y-105433000D01*
G75*
G02*
X86281000Y-105608000I-175000J0D01*
G01*
X85931000Y-105608000D01*
G75*
G02*
X85756000Y-105433000I0J175000D01*
G01*
X85756000Y-103733000D01*
G75*
G02*
X85931000Y-103558000I175000J0D01*
G01*
G37*
G36*
G01*
X84661000Y-103558000D02*
X85011000Y-103558000D01*
G75*
G02*
X85186000Y-103733000I0J-175000D01*
G01*
X85186000Y-105433000D01*
G75*
G02*
X85011000Y-105608000I-175000J0D01*
G01*
X84661000Y-105608000D01*
G75*
G02*
X84486000Y-105433000I0J175000D01*
G01*
X84486000Y-103733000D01*
G75*
G02*
X84661000Y-103558000I175000J0D01*
G01*
G37*
G36*
G01*
X84661000Y-98608000D02*
X85011000Y-98608000D01*
G75*
G02*
X85186000Y-98783000I0J-175000D01*
G01*
X85186000Y-100483000D01*
G75*
G02*
X85011000Y-100658000I-175000J0D01*
G01*
X84661000Y-100658000D01*
G75*
G02*
X84486000Y-100483000I0J175000D01*
G01*
X84486000Y-98783000D01*
G75*
G02*
X84661000Y-98608000I175000J0D01*
G01*
G37*
G36*
G01*
X85931000Y-98608000D02*
X86281000Y-98608000D01*
G75*
G02*
X86456000Y-98783000I0J-175000D01*
G01*
X86456000Y-100483000D01*
G75*
G02*
X86281000Y-100658000I-175000J0D01*
G01*
X85931000Y-100658000D01*
G75*
G02*
X85756000Y-100483000I0J175000D01*
G01*
X85756000Y-98783000D01*
G75*
G02*
X85931000Y-98608000I175000J0D01*
G01*
G37*
G36*
G01*
X87201000Y-98608000D02*
X87551000Y-98608000D01*
G75*
G02*
X87726000Y-98783000I0J-175000D01*
G01*
X87726000Y-100483000D01*
G75*
G02*
X87551000Y-100658000I-175000J0D01*
G01*
X87201000Y-100658000D01*
G75*
G02*
X87026000Y-100483000I0J175000D01*
G01*
X87026000Y-98783000D01*
G75*
G02*
X87201000Y-98608000I175000J0D01*
G01*
G37*
G36*
G01*
X88471000Y-98608000D02*
X88821000Y-98608000D01*
G75*
G02*
X88996000Y-98783000I0J-175000D01*
G01*
X88996000Y-100483000D01*
G75*
G02*
X88821000Y-100658000I-175000J0D01*
G01*
X88471000Y-100658000D01*
G75*
G02*
X88296000Y-100483000I0J175000D01*
G01*
X88296000Y-98783000D01*
G75*
G02*
X88471000Y-98608000I175000J0D01*
G01*
G37*
%TD*%
%TO.C,U3*%
G36*
G01*
X109172000Y-103558000D02*
X109522000Y-103558000D01*
G75*
G02*
X109697000Y-103733000I0J-175000D01*
G01*
X109697000Y-105433000D01*
G75*
G02*
X109522000Y-105608000I-175000J0D01*
G01*
X109172000Y-105608000D01*
G75*
G02*
X108997000Y-105433000I0J175000D01*
G01*
X108997000Y-103733000D01*
G75*
G02*
X109172000Y-103558000I175000J0D01*
G01*
G37*
G36*
G01*
X107902000Y-103558000D02*
X108252000Y-103558000D01*
G75*
G02*
X108427000Y-103733000I0J-175000D01*
G01*
X108427000Y-105433000D01*
G75*
G02*
X108252000Y-105608000I-175000J0D01*
G01*
X107902000Y-105608000D01*
G75*
G02*
X107727000Y-105433000I0J175000D01*
G01*
X107727000Y-103733000D01*
G75*
G02*
X107902000Y-103558000I175000J0D01*
G01*
G37*
G36*
G01*
X106632000Y-103558000D02*
X106982000Y-103558000D01*
G75*
G02*
X107157000Y-103733000I0J-175000D01*
G01*
X107157000Y-105433000D01*
G75*
G02*
X106982000Y-105608000I-175000J0D01*
G01*
X106632000Y-105608000D01*
G75*
G02*
X106457000Y-105433000I0J175000D01*
G01*
X106457000Y-103733000D01*
G75*
G02*
X106632000Y-103558000I175000J0D01*
G01*
G37*
G36*
G01*
X105362000Y-103558000D02*
X105712000Y-103558000D01*
G75*
G02*
X105887000Y-103733000I0J-175000D01*
G01*
X105887000Y-105433000D01*
G75*
G02*
X105712000Y-105608000I-175000J0D01*
G01*
X105362000Y-105608000D01*
G75*
G02*
X105187000Y-105433000I0J175000D01*
G01*
X105187000Y-103733000D01*
G75*
G02*
X105362000Y-103558000I175000J0D01*
G01*
G37*
G36*
G01*
X105362000Y-98608000D02*
X105712000Y-98608000D01*
G75*
G02*
X105887000Y-98783000I0J-175000D01*
G01*
X105887000Y-100483000D01*
G75*
G02*
X105712000Y-100658000I-175000J0D01*
G01*
X105362000Y-100658000D01*
G75*
G02*
X105187000Y-100483000I0J175000D01*
G01*
X105187000Y-98783000D01*
G75*
G02*
X105362000Y-98608000I175000J0D01*
G01*
G37*
G36*
G01*
X106632000Y-98608000D02*
X106982000Y-98608000D01*
G75*
G02*
X107157000Y-98783000I0J-175000D01*
G01*
X107157000Y-100483000D01*
G75*
G02*
X106982000Y-100658000I-175000J0D01*
G01*
X106632000Y-100658000D01*
G75*
G02*
X106457000Y-100483000I0J175000D01*
G01*
X106457000Y-98783000D01*
G75*
G02*
X106632000Y-98608000I175000J0D01*
G01*
G37*
G36*
G01*
X107902000Y-98608000D02*
X108252000Y-98608000D01*
G75*
G02*
X108427000Y-98783000I0J-175000D01*
G01*
X108427000Y-100483000D01*
G75*
G02*
X108252000Y-100658000I-175000J0D01*
G01*
X107902000Y-100658000D01*
G75*
G02*
X107727000Y-100483000I0J175000D01*
G01*
X107727000Y-98783000D01*
G75*
G02*
X107902000Y-98608000I175000J0D01*
G01*
G37*
G36*
G01*
X109172000Y-98608000D02*
X109522000Y-98608000D01*
G75*
G02*
X109697000Y-98783000I0J-175000D01*
G01*
X109697000Y-100483000D01*
G75*
G02*
X109522000Y-100658000I-175000J0D01*
G01*
X109172000Y-100658000D01*
G75*
G02*
X108997000Y-100483000I0J175000D01*
G01*
X108997000Y-98783000D01*
G75*
G02*
X109172000Y-98608000I175000J0D01*
G01*
G37*
%TD*%
%TO.C,U1*%
G36*
G01*
X129492000Y-103558000D02*
X129842000Y-103558000D01*
G75*
G02*
X130017000Y-103733000I0J-175000D01*
G01*
X130017000Y-105433000D01*
G75*
G02*
X129842000Y-105608000I-175000J0D01*
G01*
X129492000Y-105608000D01*
G75*
G02*
X129317000Y-105433000I0J175000D01*
G01*
X129317000Y-103733000D01*
G75*
G02*
X129492000Y-103558000I175000J0D01*
G01*
G37*
G36*
G01*
X128222000Y-103558000D02*
X128572000Y-103558000D01*
G75*
G02*
X128747000Y-103733000I0J-175000D01*
G01*
X128747000Y-105433000D01*
G75*
G02*
X128572000Y-105608000I-175000J0D01*
G01*
X128222000Y-105608000D01*
G75*
G02*
X128047000Y-105433000I0J175000D01*
G01*
X128047000Y-103733000D01*
G75*
G02*
X128222000Y-103558000I175000J0D01*
G01*
G37*
G36*
G01*
X126952000Y-103558000D02*
X127302000Y-103558000D01*
G75*
G02*
X127477000Y-103733000I0J-175000D01*
G01*
X127477000Y-105433000D01*
G75*
G02*
X127302000Y-105608000I-175000J0D01*
G01*
X126952000Y-105608000D01*
G75*
G02*
X126777000Y-105433000I0J175000D01*
G01*
X126777000Y-103733000D01*
G75*
G02*
X126952000Y-103558000I175000J0D01*
G01*
G37*
G36*
G01*
X125682000Y-103558000D02*
X126032000Y-103558000D01*
G75*
G02*
X126207000Y-103733000I0J-175000D01*
G01*
X126207000Y-105433000D01*
G75*
G02*
X126032000Y-105608000I-175000J0D01*
G01*
X125682000Y-105608000D01*
G75*
G02*
X125507000Y-105433000I0J175000D01*
G01*
X125507000Y-103733000D01*
G75*
G02*
X125682000Y-103558000I175000J0D01*
G01*
G37*
G36*
G01*
X125682000Y-98608000D02*
X126032000Y-98608000D01*
G75*
G02*
X126207000Y-98783000I0J-175000D01*
G01*
X126207000Y-100483000D01*
G75*
G02*
X126032000Y-100658000I-175000J0D01*
G01*
X125682000Y-100658000D01*
G75*
G02*
X125507000Y-100483000I0J175000D01*
G01*
X125507000Y-98783000D01*
G75*
G02*
X125682000Y-98608000I175000J0D01*
G01*
G37*
G36*
G01*
X126952000Y-98608000D02*
X127302000Y-98608000D01*
G75*
G02*
X127477000Y-98783000I0J-175000D01*
G01*
X127477000Y-100483000D01*
G75*
G02*
X127302000Y-100658000I-175000J0D01*
G01*
X126952000Y-100658000D01*
G75*
G02*
X126777000Y-100483000I0J175000D01*
G01*
X126777000Y-98783000D01*
G75*
G02*
X126952000Y-98608000I175000J0D01*
G01*
G37*
G36*
G01*
X128222000Y-98608000D02*
X128572000Y-98608000D01*
G75*
G02*
X128747000Y-98783000I0J-175000D01*
G01*
X128747000Y-100483000D01*
G75*
G02*
X128572000Y-100658000I-175000J0D01*
G01*
X128222000Y-100658000D01*
G75*
G02*
X128047000Y-100483000I0J175000D01*
G01*
X128047000Y-98783000D01*
G75*
G02*
X128222000Y-98608000I175000J0D01*
G01*
G37*
G36*
G01*
X129492000Y-98608000D02*
X129842000Y-98608000D01*
G75*
G02*
X130017000Y-98783000I0J-175000D01*
G01*
X130017000Y-100483000D01*
G75*
G02*
X129842000Y-100658000I-175000J0D01*
G01*
X129492000Y-100658000D01*
G75*
G02*
X129317000Y-100483000I0J175000D01*
G01*
X129317000Y-98783000D01*
G75*
G02*
X129492000Y-98608000I175000J0D01*
G01*
G37*
%TD*%
%TO.C,R30*%
G36*
G01*
X58693000Y-114016262D02*
X58693000Y-113059738D01*
G75*
G02*
X58964738Y-112788000I271738J0D01*
G01*
X59671262Y-112788000D01*
G75*
G02*
X59943000Y-113059738I0J-271738D01*
G01*
X59943000Y-114016262D01*
G75*
G02*
X59671262Y-114288000I-271738J0D01*
G01*
X58964738Y-114288000D01*
G75*
G02*
X58693000Y-114016262I0J271738D01*
G01*
G37*
G36*
G01*
X56643000Y-114016262D02*
X56643000Y-113059738D01*
G75*
G02*
X56914738Y-112788000I271738J0D01*
G01*
X57621262Y-112788000D01*
G75*
G02*
X57893000Y-113059738I0J-271738D01*
G01*
X57893000Y-114016262D01*
G75*
G02*
X57621262Y-114288000I-271738J0D01*
G01*
X56914738Y-114288000D01*
G75*
G02*
X56643000Y-114016262I0J271738D01*
G01*
G37*
%TD*%
%TO.C,R21*%
G36*
G01*
X71217262Y-94596000D02*
X70260738Y-94596000D01*
G75*
G02*
X69989000Y-94324262I0J271738D01*
G01*
X69989000Y-93617738D01*
G75*
G02*
X70260738Y-93346000I271738J0D01*
G01*
X71217262Y-93346000D01*
G75*
G02*
X71489000Y-93617738I0J-271738D01*
G01*
X71489000Y-94324262D01*
G75*
G02*
X71217262Y-94596000I-271738J0D01*
G01*
G37*
G36*
G01*
X71217262Y-96646000D02*
X70260738Y-96646000D01*
G75*
G02*
X69989000Y-96374262I0J271738D01*
G01*
X69989000Y-95667738D01*
G75*
G02*
X70260738Y-95396000I271738J0D01*
G01*
X71217262Y-95396000D01*
G75*
G02*
X71489000Y-95667738I0J-271738D01*
G01*
X71489000Y-96374262D01*
G75*
G02*
X71217262Y-96646000I-271738J0D01*
G01*
G37*
%TD*%
%TO.C,R20*%
G36*
G01*
X67720738Y-95396000D02*
X68677262Y-95396000D01*
G75*
G02*
X68949000Y-95667738I0J-271738D01*
G01*
X68949000Y-96374262D01*
G75*
G02*
X68677262Y-96646000I-271738J0D01*
G01*
X67720738Y-96646000D01*
G75*
G02*
X67449000Y-96374262I0J271738D01*
G01*
X67449000Y-95667738D01*
G75*
G02*
X67720738Y-95396000I271738J0D01*
G01*
G37*
G36*
G01*
X67720738Y-93346000D02*
X68677262Y-93346000D01*
G75*
G02*
X68949000Y-93617738I0J-271738D01*
G01*
X68949000Y-94324262D01*
G75*
G02*
X68677262Y-94596000I-271738J0D01*
G01*
X67720738Y-94596000D01*
G75*
G02*
X67449000Y-94324262I0J271738D01*
G01*
X67449000Y-93617738D01*
G75*
G02*
X67720738Y-93346000I271738J0D01*
G01*
G37*
%TD*%
%TO.C,R16*%
G36*
G01*
X91664262Y-94723000D02*
X90707738Y-94723000D01*
G75*
G02*
X90436000Y-94451262I0J271738D01*
G01*
X90436000Y-93744738D01*
G75*
G02*
X90707738Y-93473000I271738J0D01*
G01*
X91664262Y-93473000D01*
G75*
G02*
X91936000Y-93744738I0J-271738D01*
G01*
X91936000Y-94451262D01*
G75*
G02*
X91664262Y-94723000I-271738J0D01*
G01*
G37*
G36*
G01*
X91664262Y-96773000D02*
X90707738Y-96773000D01*
G75*
G02*
X90436000Y-96501262I0J271738D01*
G01*
X90436000Y-95794738D01*
G75*
G02*
X90707738Y-95523000I271738J0D01*
G01*
X91664262Y-95523000D01*
G75*
G02*
X91936000Y-95794738I0J-271738D01*
G01*
X91936000Y-96501262D01*
G75*
G02*
X91664262Y-96773000I-271738J0D01*
G01*
G37*
%TD*%
%TO.C,R15*%
G36*
G01*
X88167738Y-95523000D02*
X89124262Y-95523000D01*
G75*
G02*
X89396000Y-95794738I0J-271738D01*
G01*
X89396000Y-96501262D01*
G75*
G02*
X89124262Y-96773000I-271738J0D01*
G01*
X88167738Y-96773000D01*
G75*
G02*
X87896000Y-96501262I0J271738D01*
G01*
X87896000Y-95794738D01*
G75*
G02*
X88167738Y-95523000I271738J0D01*
G01*
G37*
G36*
G01*
X88167738Y-93473000D02*
X89124262Y-93473000D01*
G75*
G02*
X89396000Y-93744738I0J-271738D01*
G01*
X89396000Y-94451262D01*
G75*
G02*
X89124262Y-94723000I-271738J0D01*
G01*
X88167738Y-94723000D01*
G75*
G02*
X87896000Y-94451262I0J271738D01*
G01*
X87896000Y-93744738D01*
G75*
G02*
X88167738Y-93473000I271738J0D01*
G01*
G37*
%TD*%
%TO.C,R11*%
G36*
G01*
X112365262Y-94723000D02*
X111408738Y-94723000D01*
G75*
G02*
X111137000Y-94451262I0J271738D01*
G01*
X111137000Y-93744738D01*
G75*
G02*
X111408738Y-93473000I271738J0D01*
G01*
X112365262Y-93473000D01*
G75*
G02*
X112637000Y-93744738I0J-271738D01*
G01*
X112637000Y-94451262D01*
G75*
G02*
X112365262Y-94723000I-271738J0D01*
G01*
G37*
G36*
G01*
X112365262Y-96773000D02*
X111408738Y-96773000D01*
G75*
G02*
X111137000Y-96501262I0J271738D01*
G01*
X111137000Y-95794738D01*
G75*
G02*
X111408738Y-95523000I271738J0D01*
G01*
X112365262Y-95523000D01*
G75*
G02*
X112637000Y-95794738I0J-271738D01*
G01*
X112637000Y-96501262D01*
G75*
G02*
X112365262Y-96773000I-271738J0D01*
G01*
G37*
%TD*%
%TO.C,R10*%
G36*
G01*
X108868738Y-95523000D02*
X109825262Y-95523000D01*
G75*
G02*
X110097000Y-95794738I0J-271738D01*
G01*
X110097000Y-96501262D01*
G75*
G02*
X109825262Y-96773000I-271738J0D01*
G01*
X108868738Y-96773000D01*
G75*
G02*
X108597000Y-96501262I0J271738D01*
G01*
X108597000Y-95794738D01*
G75*
G02*
X108868738Y-95523000I271738J0D01*
G01*
G37*
G36*
G01*
X108868738Y-93473000D02*
X109825262Y-93473000D01*
G75*
G02*
X110097000Y-93744738I0J-271738D01*
G01*
X110097000Y-94451262D01*
G75*
G02*
X109825262Y-94723000I-271738J0D01*
G01*
X108868738Y-94723000D01*
G75*
G02*
X108597000Y-94451262I0J271738D01*
G01*
X108597000Y-93744738D01*
G75*
G02*
X108868738Y-93473000I271738J0D01*
G01*
G37*
%TD*%
%TO.C,R6*%
G36*
G01*
X132685262Y-94723000D02*
X131728738Y-94723000D01*
G75*
G02*
X131457000Y-94451262I0J271738D01*
G01*
X131457000Y-93744738D01*
G75*
G02*
X131728738Y-93473000I271738J0D01*
G01*
X132685262Y-93473000D01*
G75*
G02*
X132957000Y-93744738I0J-271738D01*
G01*
X132957000Y-94451262D01*
G75*
G02*
X132685262Y-94723000I-271738J0D01*
G01*
G37*
G36*
G01*
X132685262Y-96773000D02*
X131728738Y-96773000D01*
G75*
G02*
X131457000Y-96501262I0J271738D01*
G01*
X131457000Y-95794738D01*
G75*
G02*
X131728738Y-95523000I271738J0D01*
G01*
X132685262Y-95523000D01*
G75*
G02*
X132957000Y-95794738I0J-271738D01*
G01*
X132957000Y-96501262D01*
G75*
G02*
X132685262Y-96773000I-271738J0D01*
G01*
G37*
%TD*%
%TO.C,R5*%
G36*
G01*
X129188738Y-95523000D02*
X130145262Y-95523000D01*
G75*
G02*
X130417000Y-95794738I0J-271738D01*
G01*
X130417000Y-96501262D01*
G75*
G02*
X130145262Y-96773000I-271738J0D01*
G01*
X129188738Y-96773000D01*
G75*
G02*
X128917000Y-96501262I0J271738D01*
G01*
X128917000Y-95794738D01*
G75*
G02*
X129188738Y-95523000I271738J0D01*
G01*
G37*
G36*
G01*
X129188738Y-93473000D02*
X130145262Y-93473000D01*
G75*
G02*
X130417000Y-93744738I0J-271738D01*
G01*
X130417000Y-94451262D01*
G75*
G02*
X130145262Y-94723000I-271738J0D01*
G01*
X129188738Y-94723000D01*
G75*
G02*
X128917000Y-94451262I0J271738D01*
G01*
X128917000Y-93744738D01*
G75*
G02*
X129188738Y-93473000I271738J0D01*
G01*
G37*
%TD*%
%TO.C,R4*%
G36*
G01*
X71217262Y-108566000D02*
X70260738Y-108566000D01*
G75*
G02*
X69989000Y-108294262I0J271738D01*
G01*
X69989000Y-107587738D01*
G75*
G02*
X70260738Y-107316000I271738J0D01*
G01*
X71217262Y-107316000D01*
G75*
G02*
X71489000Y-107587738I0J-271738D01*
G01*
X71489000Y-108294262D01*
G75*
G02*
X71217262Y-108566000I-271738J0D01*
G01*
G37*
G36*
G01*
X71217262Y-110616000D02*
X70260738Y-110616000D01*
G75*
G02*
X69989000Y-110344262I0J271738D01*
G01*
X69989000Y-109637738D01*
G75*
G02*
X70260738Y-109366000I271738J0D01*
G01*
X71217262Y-109366000D01*
G75*
G02*
X71489000Y-109637738I0J-271738D01*
G01*
X71489000Y-110344262D01*
G75*
G02*
X71217262Y-110616000I-271738J0D01*
G01*
G37*
%TD*%
%TO.C,R3*%
G36*
G01*
X91664262Y-108693000D02*
X90707738Y-108693000D01*
G75*
G02*
X90436000Y-108421262I0J271738D01*
G01*
X90436000Y-107714738D01*
G75*
G02*
X90707738Y-107443000I271738J0D01*
G01*
X91664262Y-107443000D01*
G75*
G02*
X91936000Y-107714738I0J-271738D01*
G01*
X91936000Y-108421262D01*
G75*
G02*
X91664262Y-108693000I-271738J0D01*
G01*
G37*
G36*
G01*
X91664262Y-110743000D02*
X90707738Y-110743000D01*
G75*
G02*
X90436000Y-110471262I0J271738D01*
G01*
X90436000Y-109764738D01*
G75*
G02*
X90707738Y-109493000I271738J0D01*
G01*
X91664262Y-109493000D01*
G75*
G02*
X91936000Y-109764738I0J-271738D01*
G01*
X91936000Y-110471262D01*
G75*
G02*
X91664262Y-110743000I-271738J0D01*
G01*
G37*
%TD*%
%TO.C,R2*%
G36*
G01*
X112365262Y-108693000D02*
X111408738Y-108693000D01*
G75*
G02*
X111137000Y-108421262I0J271738D01*
G01*
X111137000Y-107714738D01*
G75*
G02*
X111408738Y-107443000I271738J0D01*
G01*
X112365262Y-107443000D01*
G75*
G02*
X112637000Y-107714738I0J-271738D01*
G01*
X112637000Y-108421262D01*
G75*
G02*
X112365262Y-108693000I-271738J0D01*
G01*
G37*
G36*
G01*
X112365262Y-110743000D02*
X111408738Y-110743000D01*
G75*
G02*
X111137000Y-110471262I0J271738D01*
G01*
X111137000Y-109764738D01*
G75*
G02*
X111408738Y-109493000I271738J0D01*
G01*
X112365262Y-109493000D01*
G75*
G02*
X112637000Y-109764738I0J-271738D01*
G01*
X112637000Y-110471262D01*
G75*
G02*
X112365262Y-110743000I-271738J0D01*
G01*
G37*
%TD*%
D23*
%TO.C,D1*%
X53975000Y-79880000D03*
X53975000Y-82680000D03*
%TD*%
%TO.C,C24*%
G36*
G01*
X66137262Y-108566000D02*
X65180738Y-108566000D01*
G75*
G02*
X64909000Y-108294262I0J271738D01*
G01*
X64909000Y-107587738D01*
G75*
G02*
X65180738Y-107316000I271738J0D01*
G01*
X66137262Y-107316000D01*
G75*
G02*
X66409000Y-107587738I0J-271738D01*
G01*
X66409000Y-108294262D01*
G75*
G02*
X66137262Y-108566000I-271738J0D01*
G01*
G37*
G36*
G01*
X66137262Y-110616000D02*
X65180738Y-110616000D01*
G75*
G02*
X64909000Y-110344262I0J271738D01*
G01*
X64909000Y-109637738D01*
G75*
G02*
X65180738Y-109366000I271738J0D01*
G01*
X66137262Y-109366000D01*
G75*
G02*
X66409000Y-109637738I0J-271738D01*
G01*
X66409000Y-110344262D01*
G75*
G02*
X66137262Y-110616000I-271738J0D01*
G01*
G37*
%TD*%
%TO.C,C23*%
G36*
G01*
X67720738Y-109366000D02*
X68677262Y-109366000D01*
G75*
G02*
X68949000Y-109637738I0J-271738D01*
G01*
X68949000Y-110344262D01*
G75*
G02*
X68677262Y-110616000I-271738J0D01*
G01*
X67720738Y-110616000D01*
G75*
G02*
X67449000Y-110344262I0J271738D01*
G01*
X67449000Y-109637738D01*
G75*
G02*
X67720738Y-109366000I271738J0D01*
G01*
G37*
G36*
G01*
X67720738Y-107316000D02*
X68677262Y-107316000D01*
G75*
G02*
X68949000Y-107587738I0J-271738D01*
G01*
X68949000Y-108294262D01*
G75*
G02*
X68677262Y-108566000I-271738J0D01*
G01*
X67720738Y-108566000D01*
G75*
G02*
X67449000Y-108294262I0J271738D01*
G01*
X67449000Y-107587738D01*
G75*
G02*
X67720738Y-107316000I271738J0D01*
G01*
G37*
%TD*%
%TO.C,C22*%
G36*
G01*
X64867262Y-94596000D02*
X63910738Y-94596000D01*
G75*
G02*
X63639000Y-94324262I0J271738D01*
G01*
X63639000Y-93617738D01*
G75*
G02*
X63910738Y-93346000I271738J0D01*
G01*
X64867262Y-93346000D01*
G75*
G02*
X65139000Y-93617738I0J-271738D01*
G01*
X65139000Y-94324262D01*
G75*
G02*
X64867262Y-94596000I-271738J0D01*
G01*
G37*
G36*
G01*
X64867262Y-96646000D02*
X63910738Y-96646000D01*
G75*
G02*
X63639000Y-96374262I0J271738D01*
G01*
X63639000Y-95667738D01*
G75*
G02*
X63910738Y-95396000I271738J0D01*
G01*
X64867262Y-95396000D01*
G75*
G02*
X65139000Y-95667738I0J-271738D01*
G01*
X65139000Y-96374262D01*
G75*
G02*
X64867262Y-96646000I-271738J0D01*
G01*
G37*
%TD*%
%TO.C,C18*%
G36*
G01*
X86584262Y-108693000D02*
X85627738Y-108693000D01*
G75*
G02*
X85356000Y-108421262I0J271738D01*
G01*
X85356000Y-107714738D01*
G75*
G02*
X85627738Y-107443000I271738J0D01*
G01*
X86584262Y-107443000D01*
G75*
G02*
X86856000Y-107714738I0J-271738D01*
G01*
X86856000Y-108421262D01*
G75*
G02*
X86584262Y-108693000I-271738J0D01*
G01*
G37*
G36*
G01*
X86584262Y-110743000D02*
X85627738Y-110743000D01*
G75*
G02*
X85356000Y-110471262I0J271738D01*
G01*
X85356000Y-109764738D01*
G75*
G02*
X85627738Y-109493000I271738J0D01*
G01*
X86584262Y-109493000D01*
G75*
G02*
X86856000Y-109764738I0J-271738D01*
G01*
X86856000Y-110471262D01*
G75*
G02*
X86584262Y-110743000I-271738J0D01*
G01*
G37*
%TD*%
%TO.C,C17*%
G36*
G01*
X88167738Y-109493000D02*
X89124262Y-109493000D01*
G75*
G02*
X89396000Y-109764738I0J-271738D01*
G01*
X89396000Y-110471262D01*
G75*
G02*
X89124262Y-110743000I-271738J0D01*
G01*
X88167738Y-110743000D01*
G75*
G02*
X87896000Y-110471262I0J271738D01*
G01*
X87896000Y-109764738D01*
G75*
G02*
X88167738Y-109493000I271738J0D01*
G01*
G37*
G36*
G01*
X88167738Y-107443000D02*
X89124262Y-107443000D01*
G75*
G02*
X89396000Y-107714738I0J-271738D01*
G01*
X89396000Y-108421262D01*
G75*
G02*
X89124262Y-108693000I-271738J0D01*
G01*
X88167738Y-108693000D01*
G75*
G02*
X87896000Y-108421262I0J271738D01*
G01*
X87896000Y-107714738D01*
G75*
G02*
X88167738Y-107443000I271738J0D01*
G01*
G37*
%TD*%
%TO.C,C16*%
G36*
G01*
X85314262Y-94723000D02*
X84357738Y-94723000D01*
G75*
G02*
X84086000Y-94451262I0J271738D01*
G01*
X84086000Y-93744738D01*
G75*
G02*
X84357738Y-93473000I271738J0D01*
G01*
X85314262Y-93473000D01*
G75*
G02*
X85586000Y-93744738I0J-271738D01*
G01*
X85586000Y-94451262D01*
G75*
G02*
X85314262Y-94723000I-271738J0D01*
G01*
G37*
G36*
G01*
X85314262Y-96773000D02*
X84357738Y-96773000D01*
G75*
G02*
X84086000Y-96501262I0J271738D01*
G01*
X84086000Y-95794738D01*
G75*
G02*
X84357738Y-95523000I271738J0D01*
G01*
X85314262Y-95523000D01*
G75*
G02*
X85586000Y-95794738I0J-271738D01*
G01*
X85586000Y-96501262D01*
G75*
G02*
X85314262Y-96773000I-271738J0D01*
G01*
G37*
%TD*%
%TO.C,C12*%
G36*
G01*
X107285262Y-108693000D02*
X106328738Y-108693000D01*
G75*
G02*
X106057000Y-108421262I0J271738D01*
G01*
X106057000Y-107714738D01*
G75*
G02*
X106328738Y-107443000I271738J0D01*
G01*
X107285262Y-107443000D01*
G75*
G02*
X107557000Y-107714738I0J-271738D01*
G01*
X107557000Y-108421262D01*
G75*
G02*
X107285262Y-108693000I-271738J0D01*
G01*
G37*
G36*
G01*
X107285262Y-110743000D02*
X106328738Y-110743000D01*
G75*
G02*
X106057000Y-110471262I0J271738D01*
G01*
X106057000Y-109764738D01*
G75*
G02*
X106328738Y-109493000I271738J0D01*
G01*
X107285262Y-109493000D01*
G75*
G02*
X107557000Y-109764738I0J-271738D01*
G01*
X107557000Y-110471262D01*
G75*
G02*
X107285262Y-110743000I-271738J0D01*
G01*
G37*
%TD*%
%TO.C,C11*%
G36*
G01*
X108868738Y-109493000D02*
X109825262Y-109493000D01*
G75*
G02*
X110097000Y-109764738I0J-271738D01*
G01*
X110097000Y-110471262D01*
G75*
G02*
X109825262Y-110743000I-271738J0D01*
G01*
X108868738Y-110743000D01*
G75*
G02*
X108597000Y-110471262I0J271738D01*
G01*
X108597000Y-109764738D01*
G75*
G02*
X108868738Y-109493000I271738J0D01*
G01*
G37*
G36*
G01*
X108868738Y-107443000D02*
X109825262Y-107443000D01*
G75*
G02*
X110097000Y-107714738I0J-271738D01*
G01*
X110097000Y-108421262D01*
G75*
G02*
X109825262Y-108693000I-271738J0D01*
G01*
X108868738Y-108693000D01*
G75*
G02*
X108597000Y-108421262I0J271738D01*
G01*
X108597000Y-107714738D01*
G75*
G02*
X108868738Y-107443000I271738J0D01*
G01*
G37*
%TD*%
%TO.C,C10*%
G36*
G01*
X106015262Y-94723000D02*
X105058738Y-94723000D01*
G75*
G02*
X104787000Y-94451262I0J271738D01*
G01*
X104787000Y-93744738D01*
G75*
G02*
X105058738Y-93473000I271738J0D01*
G01*
X106015262Y-93473000D01*
G75*
G02*
X106287000Y-93744738I0J-271738D01*
G01*
X106287000Y-94451262D01*
G75*
G02*
X106015262Y-94723000I-271738J0D01*
G01*
G37*
G36*
G01*
X106015262Y-96773000D02*
X105058738Y-96773000D01*
G75*
G02*
X104787000Y-96501262I0J271738D01*
G01*
X104787000Y-95794738D01*
G75*
G02*
X105058738Y-95523000I271738J0D01*
G01*
X106015262Y-95523000D01*
G75*
G02*
X106287000Y-95794738I0J-271738D01*
G01*
X106287000Y-96501262D01*
G75*
G02*
X106015262Y-96773000I-271738J0D01*
G01*
G37*
%TD*%
%TO.C,C6*%
G36*
G01*
X127605262Y-108693000D02*
X126648738Y-108693000D01*
G75*
G02*
X126377000Y-108421262I0J271738D01*
G01*
X126377000Y-107714738D01*
G75*
G02*
X126648738Y-107443000I271738J0D01*
G01*
X127605262Y-107443000D01*
G75*
G02*
X127877000Y-107714738I0J-271738D01*
G01*
X127877000Y-108421262D01*
G75*
G02*
X127605262Y-108693000I-271738J0D01*
G01*
G37*
G36*
G01*
X127605262Y-110743000D02*
X126648738Y-110743000D01*
G75*
G02*
X126377000Y-110471262I0J271738D01*
G01*
X126377000Y-109764738D01*
G75*
G02*
X126648738Y-109493000I271738J0D01*
G01*
X127605262Y-109493000D01*
G75*
G02*
X127877000Y-109764738I0J-271738D01*
G01*
X127877000Y-110471262D01*
G75*
G02*
X127605262Y-110743000I-271738J0D01*
G01*
G37*
%TD*%
%TO.C,C5*%
G36*
G01*
X129188738Y-109493000D02*
X130145262Y-109493000D01*
G75*
G02*
X130417000Y-109764738I0J-271738D01*
G01*
X130417000Y-110471262D01*
G75*
G02*
X130145262Y-110743000I-271738J0D01*
G01*
X129188738Y-110743000D01*
G75*
G02*
X128917000Y-110471262I0J271738D01*
G01*
X128917000Y-109764738D01*
G75*
G02*
X129188738Y-109493000I271738J0D01*
G01*
G37*
G36*
G01*
X129188738Y-107443000D02*
X130145262Y-107443000D01*
G75*
G02*
X130417000Y-107714738I0J-271738D01*
G01*
X130417000Y-108421262D01*
G75*
G02*
X130145262Y-108693000I-271738J0D01*
G01*
X129188738Y-108693000D01*
G75*
G02*
X128917000Y-108421262I0J271738D01*
G01*
X128917000Y-107714738D01*
G75*
G02*
X129188738Y-107443000I271738J0D01*
G01*
G37*
%TD*%
%TO.C,C4*%
G36*
G01*
X126335262Y-94723000D02*
X125378738Y-94723000D01*
G75*
G02*
X125107000Y-94451262I0J271738D01*
G01*
X125107000Y-93744738D01*
G75*
G02*
X125378738Y-93473000I271738J0D01*
G01*
X126335262Y-93473000D01*
G75*
G02*
X126607000Y-93744738I0J-271738D01*
G01*
X126607000Y-94451262D01*
G75*
G02*
X126335262Y-94723000I-271738J0D01*
G01*
G37*
G36*
G01*
X126335262Y-96773000D02*
X125378738Y-96773000D01*
G75*
G02*
X125107000Y-96501262I0J271738D01*
G01*
X125107000Y-95794738D01*
G75*
G02*
X125378738Y-95523000I271738J0D01*
G01*
X126335262Y-95523000D01*
G75*
G02*
X126607000Y-95794738I0J-271738D01*
G01*
X126607000Y-96501262D01*
G75*
G02*
X126335262Y-96773000I-271738J0D01*
G01*
G37*
%TD*%
%TO.C,C2*%
G36*
G01*
X46967544Y-97245000D02*
X48282456Y-97245000D01*
G75*
G02*
X48550000Y-97512544I0J-267544D01*
G01*
X48550000Y-98502456D01*
G75*
G02*
X48282456Y-98770000I-267544J0D01*
G01*
X46967544Y-98770000D01*
G75*
G02*
X46700000Y-98502456I0J267544D01*
G01*
X46700000Y-97512544D01*
G75*
G02*
X46967544Y-97245000I267544J0D01*
G01*
G37*
G36*
G01*
X46967544Y-94270000D02*
X48282456Y-94270000D01*
G75*
G02*
X48550000Y-94537544I0J-267544D01*
G01*
X48550000Y-95527456D01*
G75*
G02*
X48282456Y-95795000I-267544J0D01*
G01*
X46967544Y-95795000D01*
G75*
G02*
X46700000Y-95527456I0J267544D01*
G01*
X46700000Y-94537544D01*
G75*
G02*
X46967544Y-94270000I267544J0D01*
G01*
G37*
%TD*%
%TO.C,C1*%
G36*
G01*
X48282456Y-80555000D02*
X46967544Y-80555000D01*
G75*
G02*
X46700000Y-80287456I0J267544D01*
G01*
X46700000Y-79297544D01*
G75*
G02*
X46967544Y-79030000I267544J0D01*
G01*
X48282456Y-79030000D01*
G75*
G02*
X48550000Y-79297544I0J-267544D01*
G01*
X48550000Y-80287456D01*
G75*
G02*
X48282456Y-80555000I-267544J0D01*
G01*
G37*
G36*
G01*
X48282456Y-83530000D02*
X46967544Y-83530000D01*
G75*
G02*
X46700000Y-83262456I0J267544D01*
G01*
X46700000Y-82272544D01*
G75*
G02*
X46967544Y-82005000I267544J0D01*
G01*
X48282456Y-82005000D01*
G75*
G02*
X48550000Y-82272544I0J-267544D01*
G01*
X48550000Y-83262456D01*
G75*
G02*
X48282456Y-83530000I-267544J0D01*
G01*
G37*
%TD*%
D24*
%TO.C,J4*%
X60325000Y-71691500D03*
X71755000Y-71691500D03*
X71755000Y-58991500D03*
X60325000Y-58991500D03*
X62484000Y-68516500D03*
D25*
X60325000Y-62166500D03*
X71755000Y-62166500D03*
%TD*%
D24*
%TO.C,J3*%
X80899000Y-71691500D03*
X92329000Y-71691500D03*
X92329000Y-58991500D03*
X80899000Y-58991500D03*
X83058000Y-68516500D03*
D25*
X80899000Y-62166500D03*
X92329000Y-62166500D03*
%TD*%
D24*
%TO.C,J2*%
X101473000Y-71691500D03*
X112903000Y-71691500D03*
X112903000Y-58991500D03*
X101473000Y-58991500D03*
X103632000Y-68516500D03*
D25*
X101473000Y-62166500D03*
X112903000Y-62166500D03*
%TD*%
D24*
%TO.C,J1*%
X122047000Y-71691500D03*
X133477000Y-71691500D03*
X133477000Y-58991500D03*
X122047000Y-58991500D03*
X124206000Y-68516500D03*
D25*
X122047000Y-62166500D03*
X133477000Y-62166500D03*
%TD*%
D24*
%TO.C,J6*%
X59499500Y-129540000D03*
X59499500Y-118110000D03*
X46799500Y-118110000D03*
X46799500Y-129540000D03*
X56324500Y-127381000D03*
D25*
X49974500Y-129540000D03*
X49974500Y-118110000D03*
%TD*%
%TO.C,J5*%
G36*
G01*
X47905000Y-75577000D02*
X47905000Y-73777000D01*
G75*
G02*
X48805000Y-72877000I900000J0D01*
G01*
X50605000Y-72877000D01*
G75*
G02*
X51505000Y-73777000I0J-900000D01*
G01*
X51505000Y-75577000D01*
G75*
G02*
X50605000Y-76477000I-900000J0D01*
G01*
X48805000Y-76477000D01*
G75*
G02*
X47905000Y-75577000I0J900000D01*
G01*
G37*
G36*
G01*
X45155000Y-71002000D02*
X45155000Y-68952000D01*
G75*
G02*
X45930000Y-68177000I775000J0D01*
G01*
X47480000Y-68177000D01*
G75*
G02*
X48255000Y-68952000I0J-775000D01*
G01*
X48255000Y-71002000D01*
G75*
G02*
X47480000Y-71777000I-775000J0D01*
G01*
X45930000Y-71777000D01*
G75*
G02*
X45155000Y-71002000I0J775000D01*
G01*
G37*
D26*
X52705000Y-69977000D03*
%TD*%
D27*
G36*
X59563000Y-93218000D02*
G01*
X49657000Y-93218000D01*
X49657000Y-84582000D01*
X59563000Y-84582000D01*
X59563000Y-93218000D01*
G37*
X59563000Y-93218000D02*
X49657000Y-93218000D01*
X49657000Y-84582000D01*
X59563000Y-84582000D01*
X59563000Y-93218000D01*
M02*
