%TF.GenerationSoftware,KiCad,Pcbnew,(5.1.6-0-10_14)*%
%TF.CreationDate,2020-09-25T11:35:30+01:00*%
%TF.ProjectId,DigitalMixerPedal,44696769-7461-46c4-9d69-786572506564,rev?*%
%TF.SameCoordinates,Original*%
%TF.FileFunction,Copper,L1,Top*%
%TF.FilePolarity,Positive*%
%FSLAX46Y46*%
G04 Gerber Fmt 4.6, Leading zero omitted, Abs format (unit mm)*
G04 Created by KiCad (PCBNEW (5.1.6-0-10_14)) date 2020-09-25 11:35:30*
%MOMM*%
%LPD*%
G01*
G04 APERTURE LIST*
%TA.AperFunction,Profile*%
%ADD10C,0.050000*%
%TD*%
%TA.AperFunction,SMDPad,CuDef*%
%ADD11C,1.000000*%
%TD*%
%TA.AperFunction,SMDPad,CuDef*%
%ADD12R,0.650000X1.060000*%
%TD*%
%TA.AperFunction,SMDPad,CuDef*%
%ADD13R,0.650000X1.560000*%
%TD*%
%TA.AperFunction,SMDPad,CuDef*%
%ADD14R,2.000000X1.500000*%
%TD*%
%TA.AperFunction,SMDPad,CuDef*%
%ADD15R,2.000000X3.800000*%
%TD*%
%TA.AperFunction,SMDPad,CuDef*%
%ADD16R,1.500000X1.000000*%
%TD*%
%TA.AperFunction,ComponentPad*%
%ADD17O,1.700000X1.700000*%
%TD*%
%TA.AperFunction,ComponentPad*%
%ADD18R,1.700000X1.700000*%
%TD*%
%TA.AperFunction,ComponentPad*%
%ADD19C,1.800000*%
%TD*%
%TA.AperFunction,ComponentPad*%
%ADD20R,1.800000X1.800000*%
%TD*%
%TA.AperFunction,ComponentPad*%
%ADD21C,2.500000*%
%TD*%
%TA.AperFunction,ComponentPad*%
%ADD22C,3.500000*%
%TD*%
%TA.AperFunction,SMDPad,CuDef*%
%ADD23R,1.100000X1.100000*%
%TD*%
%TA.AperFunction,ComponentPad*%
%ADD24C,3.000000*%
%TD*%
%TA.AperFunction,ComponentPad*%
%ADD25R,3.500000X3.500000*%
%TD*%
%TA.AperFunction,ViaPad*%
%ADD26C,0.450000*%
%TD*%
%TA.AperFunction,Conductor*%
%ADD27C,1.000000*%
%TD*%
%TA.AperFunction,Conductor*%
%ADD28C,0.400000*%
%TD*%
%TA.AperFunction,Conductor*%
%ADD29C,0.254000*%
%TD*%
G04 APERTURE END LIST*
D10*
X148590000Y-140335000D02*
X147955000Y-140970000D01*
X148590000Y-135255000D02*
X148590000Y-140335000D01*
X154051000Y-135255000D02*
X148590000Y-135255000D01*
X154686000Y-134620000D02*
X154051000Y-135255000D01*
X154686000Y-60960000D02*
X154686000Y-134620000D01*
X154051000Y-60325000D02*
X154686000Y-60960000D01*
X148590000Y-60325000D02*
X154051000Y-60325000D01*
X148590000Y-55181500D02*
X148590000Y-60325000D01*
X147955000Y-54546500D02*
X148590000Y-55181500D01*
X48895000Y-54546500D02*
X147955000Y-54546500D01*
X48260000Y-55181500D02*
X48895000Y-54546500D01*
X48260000Y-60325000D02*
X48260000Y-55181500D01*
X42799000Y-60325000D02*
X48260000Y-60325000D01*
X42164000Y-60960000D02*
X42799000Y-60325000D01*
X42164000Y-134683500D02*
X42164000Y-60960000D01*
X42799000Y-135318500D02*
X42164000Y-134683500D01*
X48260000Y-135318500D02*
X42799000Y-135318500D01*
X48260000Y-140335000D02*
X48260000Y-135318500D01*
X48895000Y-140970000D02*
X48260000Y-140335000D01*
X147955000Y-140970000D02*
X48895000Y-140970000D01*
D11*
%TO.P,TP15,1*%
%TO.N,GNDS*%
X56388000Y-100330000D03*
%TD*%
%TO.P,TP14,1*%
%TO.N,/PeakDetectorMCU/PEAK_OUT_PWM2*%
X117348000Y-78232000D03*
%TD*%
%TO.P,TP13,1*%
%TO.N,/PeakDetectorMCU/PEAK_OUT_PWM1*%
X139700000Y-78232000D03*
%TD*%
%TO.P,TP12,1*%
%TO.N,/PeakDetectorMCU/PEAK_OUT_PWM4*%
X61976000Y-78232000D03*
%TD*%
%TO.P,TP11,1*%
%TO.N,/PeakDetectorMCU/PEAK_OUT_PWM3*%
X76200000Y-78232000D03*
%TD*%
%TO.P,TP9,1*%
%TO.N,/PeakDetectorMCU/PEAK_IN_ADC4*%
X75184000Y-110744000D03*
%TD*%
%TO.P,TP7,1*%
%TO.N,/PeakDetectorMCU/PEAK_IN_ADC3*%
X93980000Y-110744000D03*
%TD*%
%TO.P,TP5,1*%
%TO.N,/PeakDetectorMCU/PEAK_IN_ADC2*%
X115316000Y-110744000D03*
%TD*%
%TO.P,TP3,1*%
%TO.N,/PeakDetectorMCU/PEAK_IN_ADC1*%
X135636000Y-111252000D03*
%TD*%
%TO.P,TP1,1*%
%TO.N,+3V3*%
X45720000Y-101600000D03*
%TD*%
%TO.P,TP10,1*%
%TO.N,/OutputStage/NEG3VIN*%
X56388000Y-103378000D03*
%TD*%
%TO.P,TP8,1*%
%TO.N,/InputBuffer4/NEG3VIN*%
X62230000Y-99568000D03*
%TD*%
%TO.P,TP6,1*%
%TO.N,/InputBuffer3/NEG3VIN*%
X82550000Y-99695000D03*
%TD*%
%TO.P,TP4,1*%
%TO.N,/InputBuffer2/NEG3VIN*%
X103505000Y-99695000D03*
%TD*%
%TO.P,TP2,1*%
%TO.N,/InputBuffer1/NEG3VIN*%
X123825000Y-99695000D03*
%TD*%
D12*
%TO.P,U14,5*%
%TO.N,+3V3*%
X72964000Y-102119000D03*
%TO.P,U14,4*%
%TO.N,Net-(R17-Pad2)*%
X74864000Y-102119000D03*
%TO.P,U14,3*%
%TO.N,/PEAK_IN_BUF4*%
X74864000Y-104319000D03*
%TO.P,U14,2*%
%TO.N,GNDS*%
X73914000Y-104319000D03*
%TO.P,U14,1*%
%TO.N,Net-(R17-Pad2)*%
X72964000Y-104319000D03*
%TD*%
D13*
%TO.P,U10,5*%
%TO.N,Net-(C15-Pad2)*%
X68514000Y-90631000D03*
%TO.P,U10,4*%
%TO.N,GNDS*%
X66614000Y-90631000D03*
%TO.P,U10,3*%
%TO.N,Net-(C15-Pad1)*%
X66614000Y-87931000D03*
%TO.P,U10,2*%
%TO.N,+3V3*%
X67564000Y-87931000D03*
%TO.P,U10,1*%
%TO.N,/InputBuffer4/NEG3VIN*%
X68514000Y-87931000D03*
%TD*%
%TO.P,C19,2*%
%TO.N,GNDS*%
%TA.AperFunction,SMDPad,CuDef*%
G36*
G01*
X70923999Y-89731000D02*
X71824001Y-89731000D01*
G75*
G02*
X72074000Y-89980999I0J-249999D01*
G01*
X72074000Y-90631001D01*
G75*
G02*
X71824001Y-90881000I-249999J0D01*
G01*
X70923999Y-90881000D01*
G75*
G02*
X70674000Y-90631001I0J249999D01*
G01*
X70674000Y-89980999D01*
G75*
G02*
X70923999Y-89731000I249999J0D01*
G01*
G37*
%TD.AperFunction*%
%TO.P,C19,1*%
%TO.N,/InputBuffer4/NEG3VIN*%
%TA.AperFunction,SMDPad,CuDef*%
G36*
G01*
X70923999Y-87681000D02*
X71824001Y-87681000D01*
G75*
G02*
X72074000Y-87930999I0J-249999D01*
G01*
X72074000Y-88581001D01*
G75*
G02*
X71824001Y-88831000I-249999J0D01*
G01*
X70923999Y-88831000D01*
G75*
G02*
X70674000Y-88581001I0J249999D01*
G01*
X70674000Y-87930999D01*
G75*
G02*
X70923999Y-87681000I249999J0D01*
G01*
G37*
%TD.AperFunction*%
%TD*%
%TO.P,C15,2*%
%TO.N,Net-(C15-Pad2)*%
%TA.AperFunction,SMDPad,CuDef*%
G36*
G01*
X68014000Y-85921001D02*
X68014000Y-85020999D01*
G75*
G02*
X68263999Y-84771000I249999J0D01*
G01*
X68914001Y-84771000D01*
G75*
G02*
X69164000Y-85020999I0J-249999D01*
G01*
X69164000Y-85921001D01*
G75*
G02*
X68914001Y-86171000I-249999J0D01*
G01*
X68263999Y-86171000D01*
G75*
G02*
X68014000Y-85921001I0J249999D01*
G01*
G37*
%TD.AperFunction*%
%TO.P,C15,1*%
%TO.N,Net-(C15-Pad1)*%
%TA.AperFunction,SMDPad,CuDef*%
G36*
G01*
X65964000Y-85921001D02*
X65964000Y-85020999D01*
G75*
G02*
X66213999Y-84771000I249999J0D01*
G01*
X66864001Y-84771000D01*
G75*
G02*
X67114000Y-85020999I0J-249999D01*
G01*
X67114000Y-85921001D01*
G75*
G02*
X66864001Y-86171000I-249999J0D01*
G01*
X66213999Y-86171000D01*
G75*
G02*
X65964000Y-85921001I0J249999D01*
G01*
G37*
%TD.AperFunction*%
%TD*%
%TO.P,C44,2*%
%TO.N,GNDS*%
%TA.AperFunction,SMDPad,CuDef*%
G36*
G01*
X63303999Y-89731000D02*
X64204001Y-89731000D01*
G75*
G02*
X64454000Y-89980999I0J-249999D01*
G01*
X64454000Y-90631001D01*
G75*
G02*
X64204001Y-90881000I-249999J0D01*
G01*
X63303999Y-90881000D01*
G75*
G02*
X63054000Y-90631001I0J249999D01*
G01*
X63054000Y-89980999D01*
G75*
G02*
X63303999Y-89731000I249999J0D01*
G01*
G37*
%TD.AperFunction*%
%TO.P,C44,1*%
%TO.N,+3V3*%
%TA.AperFunction,SMDPad,CuDef*%
G36*
G01*
X63303999Y-87681000D02*
X64204001Y-87681000D01*
G75*
G02*
X64454000Y-87930999I0J-249999D01*
G01*
X64454000Y-88581001D01*
G75*
G02*
X64204001Y-88831000I-249999J0D01*
G01*
X63303999Y-88831000D01*
G75*
G02*
X63054000Y-88581001I0J249999D01*
G01*
X63054000Y-87930999D01*
G75*
G02*
X63303999Y-87681000I249999J0D01*
G01*
G37*
%TD.AperFunction*%
%TD*%
%TO.P,C45,2*%
%TO.N,GNDS*%
%TA.AperFunction,SMDPad,CuDef*%
G36*
G01*
X47682999Y-107257000D02*
X48583001Y-107257000D01*
G75*
G02*
X48833000Y-107506999I0J-249999D01*
G01*
X48833000Y-108157001D01*
G75*
G02*
X48583001Y-108407000I-249999J0D01*
G01*
X47682999Y-108407000D01*
G75*
G02*
X47433000Y-108157001I0J249999D01*
G01*
X47433000Y-107506999D01*
G75*
G02*
X47682999Y-107257000I249999J0D01*
G01*
G37*
%TD.AperFunction*%
%TO.P,C45,1*%
%TO.N,+3V3*%
%TA.AperFunction,SMDPad,CuDef*%
G36*
G01*
X47682999Y-105207000D02*
X48583001Y-105207000D01*
G75*
G02*
X48833000Y-105456999I0J-249999D01*
G01*
X48833000Y-106107001D01*
G75*
G02*
X48583001Y-106357000I-249999J0D01*
G01*
X47682999Y-106357000D01*
G75*
G02*
X47433000Y-106107001I0J249999D01*
G01*
X47433000Y-105456999D01*
G75*
G02*
X47682999Y-105207000I249999J0D01*
G01*
G37*
%TD.AperFunction*%
%TD*%
%TO.P,C43,2*%
%TO.N,GNDS*%
%TA.AperFunction,SMDPad,CuDef*%
G36*
G01*
X83750999Y-89858000D02*
X84651001Y-89858000D01*
G75*
G02*
X84901000Y-90107999I0J-249999D01*
G01*
X84901000Y-90758001D01*
G75*
G02*
X84651001Y-91008000I-249999J0D01*
G01*
X83750999Y-91008000D01*
G75*
G02*
X83501000Y-90758001I0J249999D01*
G01*
X83501000Y-90107999D01*
G75*
G02*
X83750999Y-89858000I249999J0D01*
G01*
G37*
%TD.AperFunction*%
%TO.P,C43,1*%
%TO.N,+3V3*%
%TA.AperFunction,SMDPad,CuDef*%
G36*
G01*
X83750999Y-87808000D02*
X84651001Y-87808000D01*
G75*
G02*
X84901000Y-88057999I0J-249999D01*
G01*
X84901000Y-88708001D01*
G75*
G02*
X84651001Y-88958000I-249999J0D01*
G01*
X83750999Y-88958000D01*
G75*
G02*
X83501000Y-88708001I0J249999D01*
G01*
X83501000Y-88057999D01*
G75*
G02*
X83750999Y-87808000I249999J0D01*
G01*
G37*
%TD.AperFunction*%
%TD*%
%TO.P,C42,2*%
%TO.N,GNDS*%
%TA.AperFunction,SMDPad,CuDef*%
G36*
G01*
X104451999Y-89858000D02*
X105352001Y-89858000D01*
G75*
G02*
X105602000Y-90107999I0J-249999D01*
G01*
X105602000Y-90758001D01*
G75*
G02*
X105352001Y-91008000I-249999J0D01*
G01*
X104451999Y-91008000D01*
G75*
G02*
X104202000Y-90758001I0J249999D01*
G01*
X104202000Y-90107999D01*
G75*
G02*
X104451999Y-89858000I249999J0D01*
G01*
G37*
%TD.AperFunction*%
%TO.P,C42,1*%
%TO.N,+3V3*%
%TA.AperFunction,SMDPad,CuDef*%
G36*
G01*
X104451999Y-87808000D02*
X105352001Y-87808000D01*
G75*
G02*
X105602000Y-88057999I0J-249999D01*
G01*
X105602000Y-88708001D01*
G75*
G02*
X105352001Y-88958000I-249999J0D01*
G01*
X104451999Y-88958000D01*
G75*
G02*
X104202000Y-88708001I0J249999D01*
G01*
X104202000Y-88057999D01*
G75*
G02*
X104451999Y-87808000I249999J0D01*
G01*
G37*
%TD.AperFunction*%
%TD*%
%TO.P,C41,2*%
%TO.N,GNDS*%
%TA.AperFunction,SMDPad,CuDef*%
G36*
G01*
X124771999Y-89858000D02*
X125672001Y-89858000D01*
G75*
G02*
X125922000Y-90107999I0J-249999D01*
G01*
X125922000Y-90758001D01*
G75*
G02*
X125672001Y-91008000I-249999J0D01*
G01*
X124771999Y-91008000D01*
G75*
G02*
X124522000Y-90758001I0J249999D01*
G01*
X124522000Y-90107999D01*
G75*
G02*
X124771999Y-89858000I249999J0D01*
G01*
G37*
%TD.AperFunction*%
%TO.P,C41,1*%
%TO.N,+3V3*%
%TA.AperFunction,SMDPad,CuDef*%
G36*
G01*
X124771999Y-87808000D02*
X125672001Y-87808000D01*
G75*
G02*
X125922000Y-88057999I0J-249999D01*
G01*
X125922000Y-88708001D01*
G75*
G02*
X125672001Y-88958000I-249999J0D01*
G01*
X124771999Y-88958000D01*
G75*
G02*
X124522000Y-88708001I0J249999D01*
G01*
X124522000Y-88057999D01*
G75*
G02*
X124771999Y-87808000I249999J0D01*
G01*
G37*
%TD.AperFunction*%
%TD*%
%TO.P,U16,5*%
%TO.N,Net-(C39-Pad2)*%
X52893000Y-108157000D03*
%TO.P,U16,4*%
%TO.N,GNDS*%
X50993000Y-108157000D03*
%TO.P,U16,3*%
%TO.N,Net-(C39-Pad1)*%
X50993000Y-105457000D03*
%TO.P,U16,2*%
%TO.N,+3V3*%
X51943000Y-105457000D03*
%TO.P,U16,1*%
%TO.N,/OutputStage/NEG3VIN*%
X52893000Y-105457000D03*
%TD*%
D12*
%TO.P,U15,5*%
%TO.N,+3V3*%
X134559000Y-102151000D03*
%TO.P,U15,4*%
%TO.N,Net-(R18-Pad2)*%
X136459000Y-102151000D03*
%TO.P,U15,3*%
%TO.N,/PEAK_IN_BUF1*%
X136459000Y-104351000D03*
%TO.P,U15,2*%
%TO.N,GNDS*%
X135509000Y-104351000D03*
%TO.P,U15,1*%
%TO.N,Net-(R18-Pad2)*%
X134559000Y-104351000D03*
%TD*%
%TO.P,U13,5*%
%TO.N,+3V3*%
X93411000Y-102278000D03*
%TO.P,U13,4*%
%TO.N,Net-(R14-Pad2)*%
X95311000Y-102278000D03*
%TO.P,U13,3*%
%TO.N,/PEAK_IN_BUF3*%
X95311000Y-104478000D03*
%TO.P,U13,2*%
%TO.N,GNDS*%
X94361000Y-104478000D03*
%TO.P,U13,1*%
%TO.N,Net-(R14-Pad2)*%
X93411000Y-104478000D03*
%TD*%
%TO.P,U12,5*%
%TO.N,+3V3*%
X114366000Y-102151000D03*
%TO.P,U12,4*%
%TO.N,Net-(R13-Pad2)*%
X116266000Y-102151000D03*
%TO.P,U12,3*%
%TO.N,/PEAK_IN_BUF2*%
X116266000Y-104351000D03*
%TO.P,U12,2*%
%TO.N,GNDS*%
X115316000Y-104351000D03*
%TO.P,U12,1*%
%TO.N,Net-(R13-Pad2)*%
X114366000Y-104351000D03*
%TD*%
%TO.P,U11,32*%
%TO.N,GNDS*%
%TA.AperFunction,SMDPad,CuDef*%
G36*
G01*
X101975000Y-117092000D02*
X103225000Y-117092000D01*
G75*
G02*
X103350000Y-117217000I0J-125000D01*
G01*
X103350000Y-117467000D01*
G75*
G02*
X103225000Y-117592000I-125000J0D01*
G01*
X101975000Y-117592000D01*
G75*
G02*
X101850000Y-117467000I0J125000D01*
G01*
X101850000Y-117217000D01*
G75*
G02*
X101975000Y-117092000I125000J0D01*
G01*
G37*
%TD.AperFunction*%
%TO.P,U11,31*%
%TA.AperFunction,SMDPad,CuDef*%
G36*
G01*
X101975000Y-117892000D02*
X103225000Y-117892000D01*
G75*
G02*
X103350000Y-118017000I0J-125000D01*
G01*
X103350000Y-118267000D01*
G75*
G02*
X103225000Y-118392000I-125000J0D01*
G01*
X101975000Y-118392000D01*
G75*
G02*
X101850000Y-118267000I0J125000D01*
G01*
X101850000Y-118017000D01*
G75*
G02*
X101975000Y-117892000I125000J0D01*
G01*
G37*
%TD.AperFunction*%
%TO.P,U11,30*%
%TO.N,Net-(U11-Pad30)*%
%TA.AperFunction,SMDPad,CuDef*%
G36*
G01*
X101975000Y-118692000D02*
X103225000Y-118692000D01*
G75*
G02*
X103350000Y-118817000I0J-125000D01*
G01*
X103350000Y-119067000D01*
G75*
G02*
X103225000Y-119192000I-125000J0D01*
G01*
X101975000Y-119192000D01*
G75*
G02*
X101850000Y-119067000I0J125000D01*
G01*
X101850000Y-118817000D01*
G75*
G02*
X101975000Y-118692000I125000J0D01*
G01*
G37*
%TD.AperFunction*%
%TO.P,U11,29*%
%TO.N,Net-(U11-Pad29)*%
%TA.AperFunction,SMDPad,CuDef*%
G36*
G01*
X101975000Y-119492000D02*
X103225000Y-119492000D01*
G75*
G02*
X103350000Y-119617000I0J-125000D01*
G01*
X103350000Y-119867000D01*
G75*
G02*
X103225000Y-119992000I-125000J0D01*
G01*
X101975000Y-119992000D01*
G75*
G02*
X101850000Y-119867000I0J125000D01*
G01*
X101850000Y-119617000D01*
G75*
G02*
X101975000Y-119492000I125000J0D01*
G01*
G37*
%TD.AperFunction*%
%TO.P,U11,28*%
%TO.N,/PeakDetectorMCU/PEAK_OUT_PWM2*%
%TA.AperFunction,SMDPad,CuDef*%
G36*
G01*
X101975000Y-120292000D02*
X103225000Y-120292000D01*
G75*
G02*
X103350000Y-120417000I0J-125000D01*
G01*
X103350000Y-120667000D01*
G75*
G02*
X103225000Y-120792000I-125000J0D01*
G01*
X101975000Y-120792000D01*
G75*
G02*
X101850000Y-120667000I0J125000D01*
G01*
X101850000Y-120417000D01*
G75*
G02*
X101975000Y-120292000I125000J0D01*
G01*
G37*
%TD.AperFunction*%
%TO.P,U11,27*%
%TO.N,/PeakDetectorMCU/PEAK_OUT_PWM1*%
%TA.AperFunction,SMDPad,CuDef*%
G36*
G01*
X101975000Y-121092000D02*
X103225000Y-121092000D01*
G75*
G02*
X103350000Y-121217000I0J-125000D01*
G01*
X103350000Y-121467000D01*
G75*
G02*
X103225000Y-121592000I-125000J0D01*
G01*
X101975000Y-121592000D01*
G75*
G02*
X101850000Y-121467000I0J125000D01*
G01*
X101850000Y-121217000D01*
G75*
G02*
X101975000Y-121092000I125000J0D01*
G01*
G37*
%TD.AperFunction*%
%TO.P,U11,26*%
%TO.N,Net-(U11-Pad26)*%
%TA.AperFunction,SMDPad,CuDef*%
G36*
G01*
X101975000Y-121892000D02*
X103225000Y-121892000D01*
G75*
G02*
X103350000Y-122017000I0J-125000D01*
G01*
X103350000Y-122267000D01*
G75*
G02*
X103225000Y-122392000I-125000J0D01*
G01*
X101975000Y-122392000D01*
G75*
G02*
X101850000Y-122267000I0J125000D01*
G01*
X101850000Y-122017000D01*
G75*
G02*
X101975000Y-121892000I125000J0D01*
G01*
G37*
%TD.AperFunction*%
%TO.P,U11,25*%
%TO.N,Net-(U11-Pad25)*%
%TA.AperFunction,SMDPad,CuDef*%
G36*
G01*
X101975000Y-122692000D02*
X103225000Y-122692000D01*
G75*
G02*
X103350000Y-122817000I0J-125000D01*
G01*
X103350000Y-123067000D01*
G75*
G02*
X103225000Y-123192000I-125000J0D01*
G01*
X101975000Y-123192000D01*
G75*
G02*
X101850000Y-123067000I0J125000D01*
G01*
X101850000Y-122817000D01*
G75*
G02*
X101975000Y-122692000I125000J0D01*
G01*
G37*
%TD.AperFunction*%
%TO.P,U11,24*%
%TO.N,/PeakDetectorMCU/SYS_SWCLK*%
%TA.AperFunction,SMDPad,CuDef*%
G36*
G01*
X101100000Y-123567000D02*
X101350000Y-123567000D01*
G75*
G02*
X101475000Y-123692000I0J-125000D01*
G01*
X101475000Y-124942000D01*
G75*
G02*
X101350000Y-125067000I-125000J0D01*
G01*
X101100000Y-125067000D01*
G75*
G02*
X100975000Y-124942000I0J125000D01*
G01*
X100975000Y-123692000D01*
G75*
G02*
X101100000Y-123567000I125000J0D01*
G01*
G37*
%TD.AperFunction*%
%TO.P,U11,23*%
%TO.N,/PeakDetectorMCU/SYS_SWDIO*%
%TA.AperFunction,SMDPad,CuDef*%
G36*
G01*
X100300000Y-123567000D02*
X100550000Y-123567000D01*
G75*
G02*
X100675000Y-123692000I0J-125000D01*
G01*
X100675000Y-124942000D01*
G75*
G02*
X100550000Y-125067000I-125000J0D01*
G01*
X100300000Y-125067000D01*
G75*
G02*
X100175000Y-124942000I0J125000D01*
G01*
X100175000Y-123692000D01*
G75*
G02*
X100300000Y-123567000I125000J0D01*
G01*
G37*
%TD.AperFunction*%
%TO.P,U11,22*%
%TO.N,Net-(U11-Pad22)*%
%TA.AperFunction,SMDPad,CuDef*%
G36*
G01*
X99500000Y-123567000D02*
X99750000Y-123567000D01*
G75*
G02*
X99875000Y-123692000I0J-125000D01*
G01*
X99875000Y-124942000D01*
G75*
G02*
X99750000Y-125067000I-125000J0D01*
G01*
X99500000Y-125067000D01*
G75*
G02*
X99375000Y-124942000I0J125000D01*
G01*
X99375000Y-123692000D01*
G75*
G02*
X99500000Y-123567000I125000J0D01*
G01*
G37*
%TD.AperFunction*%
%TO.P,U11,21*%
%TO.N,Net-(U11-Pad21)*%
%TA.AperFunction,SMDPad,CuDef*%
G36*
G01*
X98700000Y-123567000D02*
X98950000Y-123567000D01*
G75*
G02*
X99075000Y-123692000I0J-125000D01*
G01*
X99075000Y-124942000D01*
G75*
G02*
X98950000Y-125067000I-125000J0D01*
G01*
X98700000Y-125067000D01*
G75*
G02*
X98575000Y-124942000I0J125000D01*
G01*
X98575000Y-123692000D01*
G75*
G02*
X98700000Y-123567000I125000J0D01*
G01*
G37*
%TD.AperFunction*%
%TO.P,U11,20*%
%TO.N,Net-(U11-Pad20)*%
%TA.AperFunction,SMDPad,CuDef*%
G36*
G01*
X97900000Y-123567000D02*
X98150000Y-123567000D01*
G75*
G02*
X98275000Y-123692000I0J-125000D01*
G01*
X98275000Y-124942000D01*
G75*
G02*
X98150000Y-125067000I-125000J0D01*
G01*
X97900000Y-125067000D01*
G75*
G02*
X97775000Y-124942000I0J125000D01*
G01*
X97775000Y-123692000D01*
G75*
G02*
X97900000Y-123567000I125000J0D01*
G01*
G37*
%TD.AperFunction*%
%TO.P,U11,19*%
%TO.N,Net-(U11-Pad19)*%
%TA.AperFunction,SMDPad,CuDef*%
G36*
G01*
X97100000Y-123567000D02*
X97350000Y-123567000D01*
G75*
G02*
X97475000Y-123692000I0J-125000D01*
G01*
X97475000Y-124942000D01*
G75*
G02*
X97350000Y-125067000I-125000J0D01*
G01*
X97100000Y-125067000D01*
G75*
G02*
X96975000Y-124942000I0J125000D01*
G01*
X96975000Y-123692000D01*
G75*
G02*
X97100000Y-123567000I125000J0D01*
G01*
G37*
%TD.AperFunction*%
%TO.P,U11,18*%
%TO.N,Net-(U11-Pad18)*%
%TA.AperFunction,SMDPad,CuDef*%
G36*
G01*
X96300000Y-123567000D02*
X96550000Y-123567000D01*
G75*
G02*
X96675000Y-123692000I0J-125000D01*
G01*
X96675000Y-124942000D01*
G75*
G02*
X96550000Y-125067000I-125000J0D01*
G01*
X96300000Y-125067000D01*
G75*
G02*
X96175000Y-124942000I0J125000D01*
G01*
X96175000Y-123692000D01*
G75*
G02*
X96300000Y-123567000I125000J0D01*
G01*
G37*
%TD.AperFunction*%
%TO.P,U11,17*%
%TO.N,+3V3*%
%TA.AperFunction,SMDPad,CuDef*%
G36*
G01*
X95500000Y-123567000D02*
X95750000Y-123567000D01*
G75*
G02*
X95875000Y-123692000I0J-125000D01*
G01*
X95875000Y-124942000D01*
G75*
G02*
X95750000Y-125067000I-125000J0D01*
G01*
X95500000Y-125067000D01*
G75*
G02*
X95375000Y-124942000I0J125000D01*
G01*
X95375000Y-123692000D01*
G75*
G02*
X95500000Y-123567000I125000J0D01*
G01*
G37*
%TD.AperFunction*%
%TO.P,U11,16*%
%TO.N,GNDS*%
%TA.AperFunction,SMDPad,CuDef*%
G36*
G01*
X93625000Y-122692000D02*
X94875000Y-122692000D01*
G75*
G02*
X95000000Y-122817000I0J-125000D01*
G01*
X95000000Y-123067000D01*
G75*
G02*
X94875000Y-123192000I-125000J0D01*
G01*
X93625000Y-123192000D01*
G75*
G02*
X93500000Y-123067000I0J125000D01*
G01*
X93500000Y-122817000D01*
G75*
G02*
X93625000Y-122692000I125000J0D01*
G01*
G37*
%TD.AperFunction*%
%TO.P,U11,15*%
%TO.N,/PeakDetectorMCU/PEAK_OUT_PWM4*%
%TA.AperFunction,SMDPad,CuDef*%
G36*
G01*
X93625000Y-121892000D02*
X94875000Y-121892000D01*
G75*
G02*
X95000000Y-122017000I0J-125000D01*
G01*
X95000000Y-122267000D01*
G75*
G02*
X94875000Y-122392000I-125000J0D01*
G01*
X93625000Y-122392000D01*
G75*
G02*
X93500000Y-122267000I0J125000D01*
G01*
X93500000Y-122017000D01*
G75*
G02*
X93625000Y-121892000I125000J0D01*
G01*
G37*
%TD.AperFunction*%
%TO.P,U11,14*%
%TO.N,/PeakDetectorMCU/PEAK_OUT_PWM3*%
%TA.AperFunction,SMDPad,CuDef*%
G36*
G01*
X93625000Y-121092000D02*
X94875000Y-121092000D01*
G75*
G02*
X95000000Y-121217000I0J-125000D01*
G01*
X95000000Y-121467000D01*
G75*
G02*
X94875000Y-121592000I-125000J0D01*
G01*
X93625000Y-121592000D01*
G75*
G02*
X93500000Y-121467000I0J125000D01*
G01*
X93500000Y-121217000D01*
G75*
G02*
X93625000Y-121092000I125000J0D01*
G01*
G37*
%TD.AperFunction*%
%TO.P,U11,13*%
%TO.N,Net-(U11-Pad13)*%
%TA.AperFunction,SMDPad,CuDef*%
G36*
G01*
X93625000Y-120292000D02*
X94875000Y-120292000D01*
G75*
G02*
X95000000Y-120417000I0J-125000D01*
G01*
X95000000Y-120667000D01*
G75*
G02*
X94875000Y-120792000I-125000J0D01*
G01*
X93625000Y-120792000D01*
G75*
G02*
X93500000Y-120667000I0J125000D01*
G01*
X93500000Y-120417000D01*
G75*
G02*
X93625000Y-120292000I125000J0D01*
G01*
G37*
%TD.AperFunction*%
%TO.P,U11,12*%
%TO.N,Net-(U11-Pad12)*%
%TA.AperFunction,SMDPad,CuDef*%
G36*
G01*
X93625000Y-119492000D02*
X94875000Y-119492000D01*
G75*
G02*
X95000000Y-119617000I0J-125000D01*
G01*
X95000000Y-119867000D01*
G75*
G02*
X94875000Y-119992000I-125000J0D01*
G01*
X93625000Y-119992000D01*
G75*
G02*
X93500000Y-119867000I0J125000D01*
G01*
X93500000Y-119617000D01*
G75*
G02*
X93625000Y-119492000I125000J0D01*
G01*
G37*
%TD.AperFunction*%
%TO.P,U11,11*%
%TO.N,Net-(U11-Pad11)*%
%TA.AperFunction,SMDPad,CuDef*%
G36*
G01*
X93625000Y-118692000D02*
X94875000Y-118692000D01*
G75*
G02*
X95000000Y-118817000I0J-125000D01*
G01*
X95000000Y-119067000D01*
G75*
G02*
X94875000Y-119192000I-125000J0D01*
G01*
X93625000Y-119192000D01*
G75*
G02*
X93500000Y-119067000I0J125000D01*
G01*
X93500000Y-118817000D01*
G75*
G02*
X93625000Y-118692000I125000J0D01*
G01*
G37*
%TD.AperFunction*%
%TO.P,U11,10*%
%TO.N,Net-(U11-Pad10)*%
%TA.AperFunction,SMDPad,CuDef*%
G36*
G01*
X93625000Y-117892000D02*
X94875000Y-117892000D01*
G75*
G02*
X95000000Y-118017000I0J-125000D01*
G01*
X95000000Y-118267000D01*
G75*
G02*
X94875000Y-118392000I-125000J0D01*
G01*
X93625000Y-118392000D01*
G75*
G02*
X93500000Y-118267000I0J125000D01*
G01*
X93500000Y-118017000D01*
G75*
G02*
X93625000Y-117892000I125000J0D01*
G01*
G37*
%TD.AperFunction*%
%TO.P,U11,9*%
%TO.N,/PeakDetectorMCU/PEAK_IN_ADC4*%
%TA.AperFunction,SMDPad,CuDef*%
G36*
G01*
X93625000Y-117092000D02*
X94875000Y-117092000D01*
G75*
G02*
X95000000Y-117217000I0J-125000D01*
G01*
X95000000Y-117467000D01*
G75*
G02*
X94875000Y-117592000I-125000J0D01*
G01*
X93625000Y-117592000D01*
G75*
G02*
X93500000Y-117467000I0J125000D01*
G01*
X93500000Y-117217000D01*
G75*
G02*
X93625000Y-117092000I125000J0D01*
G01*
G37*
%TD.AperFunction*%
%TO.P,U11,8*%
%TO.N,/PeakDetectorMCU/PEAK_IN_ADC3*%
%TA.AperFunction,SMDPad,CuDef*%
G36*
G01*
X95500000Y-115217000D02*
X95750000Y-115217000D01*
G75*
G02*
X95875000Y-115342000I0J-125000D01*
G01*
X95875000Y-116592000D01*
G75*
G02*
X95750000Y-116717000I-125000J0D01*
G01*
X95500000Y-116717000D01*
G75*
G02*
X95375000Y-116592000I0J125000D01*
G01*
X95375000Y-115342000D01*
G75*
G02*
X95500000Y-115217000I125000J0D01*
G01*
G37*
%TD.AperFunction*%
%TO.P,U11,7*%
%TO.N,/PeakDetectorMCU/PEAK_IN_ADC2*%
%TA.AperFunction,SMDPad,CuDef*%
G36*
G01*
X96300000Y-115217000D02*
X96550000Y-115217000D01*
G75*
G02*
X96675000Y-115342000I0J-125000D01*
G01*
X96675000Y-116592000D01*
G75*
G02*
X96550000Y-116717000I-125000J0D01*
G01*
X96300000Y-116717000D01*
G75*
G02*
X96175000Y-116592000I0J125000D01*
G01*
X96175000Y-115342000D01*
G75*
G02*
X96300000Y-115217000I125000J0D01*
G01*
G37*
%TD.AperFunction*%
%TO.P,U11,6*%
%TO.N,/PeakDetectorMCU/PEAK_IN_ADC1*%
%TA.AperFunction,SMDPad,CuDef*%
G36*
G01*
X97100000Y-115217000D02*
X97350000Y-115217000D01*
G75*
G02*
X97475000Y-115342000I0J-125000D01*
G01*
X97475000Y-116592000D01*
G75*
G02*
X97350000Y-116717000I-125000J0D01*
G01*
X97100000Y-116717000D01*
G75*
G02*
X96975000Y-116592000I0J125000D01*
G01*
X96975000Y-115342000D01*
G75*
G02*
X97100000Y-115217000I125000J0D01*
G01*
G37*
%TD.AperFunction*%
%TO.P,U11,5*%
%TO.N,+3V3*%
%TA.AperFunction,SMDPad,CuDef*%
G36*
G01*
X97900000Y-115217000D02*
X98150000Y-115217000D01*
G75*
G02*
X98275000Y-115342000I0J-125000D01*
G01*
X98275000Y-116592000D01*
G75*
G02*
X98150000Y-116717000I-125000J0D01*
G01*
X97900000Y-116717000D01*
G75*
G02*
X97775000Y-116592000I0J125000D01*
G01*
X97775000Y-115342000D01*
G75*
G02*
X97900000Y-115217000I125000J0D01*
G01*
G37*
%TD.AperFunction*%
%TO.P,U11,4*%
%TO.N,/PeakDetectorMCU/NRST*%
%TA.AperFunction,SMDPad,CuDef*%
G36*
G01*
X98700000Y-115217000D02*
X98950000Y-115217000D01*
G75*
G02*
X99075000Y-115342000I0J-125000D01*
G01*
X99075000Y-116592000D01*
G75*
G02*
X98950000Y-116717000I-125000J0D01*
G01*
X98700000Y-116717000D01*
G75*
G02*
X98575000Y-116592000I0J125000D01*
G01*
X98575000Y-115342000D01*
G75*
G02*
X98700000Y-115217000I125000J0D01*
G01*
G37*
%TD.AperFunction*%
%TO.P,U11,3*%
%TO.N,Net-(U11-Pad3)*%
%TA.AperFunction,SMDPad,CuDef*%
G36*
G01*
X99500000Y-115217000D02*
X99750000Y-115217000D01*
G75*
G02*
X99875000Y-115342000I0J-125000D01*
G01*
X99875000Y-116592000D01*
G75*
G02*
X99750000Y-116717000I-125000J0D01*
G01*
X99500000Y-116717000D01*
G75*
G02*
X99375000Y-116592000I0J125000D01*
G01*
X99375000Y-115342000D01*
G75*
G02*
X99500000Y-115217000I125000J0D01*
G01*
G37*
%TD.AperFunction*%
%TO.P,U11,2*%
%TO.N,Net-(U11-Pad2)*%
%TA.AperFunction,SMDPad,CuDef*%
G36*
G01*
X100300000Y-115217000D02*
X100550000Y-115217000D01*
G75*
G02*
X100675000Y-115342000I0J-125000D01*
G01*
X100675000Y-116592000D01*
G75*
G02*
X100550000Y-116717000I-125000J0D01*
G01*
X100300000Y-116717000D01*
G75*
G02*
X100175000Y-116592000I0J125000D01*
G01*
X100175000Y-115342000D01*
G75*
G02*
X100300000Y-115217000I125000J0D01*
G01*
G37*
%TD.AperFunction*%
%TO.P,U11,1*%
%TO.N,+3V3*%
%TA.AperFunction,SMDPad,CuDef*%
G36*
G01*
X101100000Y-115217000D02*
X101350000Y-115217000D01*
G75*
G02*
X101475000Y-115342000I0J-125000D01*
G01*
X101475000Y-116592000D01*
G75*
G02*
X101350000Y-116717000I-125000J0D01*
G01*
X101100000Y-116717000D01*
G75*
G02*
X100975000Y-116592000I0J125000D01*
G01*
X100975000Y-115342000D01*
G75*
G02*
X101100000Y-115217000I125000J0D01*
G01*
G37*
%TD.AperFunction*%
%TD*%
D13*
%TO.P,U8,5*%
%TO.N,Net-(C13-Pad2)*%
X88897000Y-90812000D03*
%TO.P,U8,4*%
%TO.N,GNDS*%
X86997000Y-90812000D03*
%TO.P,U8,3*%
%TO.N,Net-(C13-Pad1)*%
X86997000Y-88112000D03*
%TO.P,U8,2*%
%TO.N,+3V3*%
X87947000Y-88112000D03*
%TO.P,U8,1*%
%TO.N,/InputBuffer3/NEG3VIN*%
X88897000Y-88112000D03*
%TD*%
%TO.P,U6,5*%
%TO.N,Net-(C8-Pad2)*%
X109662000Y-90758000D03*
%TO.P,U6,4*%
%TO.N,GNDS*%
X107762000Y-90758000D03*
%TO.P,U6,3*%
%TO.N,Net-(C8-Pad1)*%
X107762000Y-88058000D03*
%TO.P,U6,2*%
%TO.N,+3V3*%
X108712000Y-88058000D03*
%TO.P,U6,1*%
%TO.N,/InputBuffer2/NEG3VIN*%
X109662000Y-88058000D03*
%TD*%
%TO.P,U4,5*%
%TO.N,Net-(C3-Pad2)*%
X129982000Y-90758000D03*
%TO.P,U4,4*%
%TO.N,GNDS*%
X128082000Y-90758000D03*
%TO.P,U4,3*%
%TO.N,Net-(C3-Pad1)*%
X128082000Y-88058000D03*
%TO.P,U4,2*%
%TO.N,+3V3*%
X129032000Y-88058000D03*
%TO.P,U4,1*%
%TO.N,/InputBuffer1/NEG3VIN*%
X129982000Y-88058000D03*
%TD*%
D14*
%TO.P,U2,1*%
%TO.N,Net-(C1-Pad1)*%
X47650000Y-86600000D03*
%TO.P,U2,3*%
%TO.N,Net-(C2-Pad1)*%
X47650000Y-91200000D03*
%TO.P,U2,2*%
%TO.N,GNDS*%
X47650000Y-88900000D03*
D15*
X53950000Y-88900000D03*
%TD*%
%TO.P,R18,2*%
%TO.N,Net-(R18-Pad2)*%
%TA.AperFunction,SMDPad,CuDef*%
G36*
G01*
X134042999Y-95573000D02*
X134943001Y-95573000D01*
G75*
G02*
X135193000Y-95822999I0J-249999D01*
G01*
X135193000Y-96473001D01*
G75*
G02*
X134943001Y-96723000I-249999J0D01*
G01*
X134042999Y-96723000D01*
G75*
G02*
X133793000Y-96473001I0J249999D01*
G01*
X133793000Y-95822999D01*
G75*
G02*
X134042999Y-95573000I249999J0D01*
G01*
G37*
%TD.AperFunction*%
%TO.P,R18,1*%
%TO.N,/PeakDetectorMCU/PEAK_IN_ADC1*%
%TA.AperFunction,SMDPad,CuDef*%
G36*
G01*
X134042999Y-93523000D02*
X134943001Y-93523000D01*
G75*
G02*
X135193000Y-93772999I0J-249999D01*
G01*
X135193000Y-94423001D01*
G75*
G02*
X134943001Y-94673000I-249999J0D01*
G01*
X134042999Y-94673000D01*
G75*
G02*
X133793000Y-94423001I0J249999D01*
G01*
X133793000Y-93772999D01*
G75*
G02*
X134042999Y-93523000I249999J0D01*
G01*
G37*
%TD.AperFunction*%
%TD*%
%TO.P,R17,2*%
%TO.N,Net-(R17-Pad2)*%
%TA.AperFunction,SMDPad,CuDef*%
G36*
G01*
X72574999Y-95446000D02*
X73475001Y-95446000D01*
G75*
G02*
X73725000Y-95695999I0J-249999D01*
G01*
X73725000Y-96346001D01*
G75*
G02*
X73475001Y-96596000I-249999J0D01*
G01*
X72574999Y-96596000D01*
G75*
G02*
X72325000Y-96346001I0J249999D01*
G01*
X72325000Y-95695999D01*
G75*
G02*
X72574999Y-95446000I249999J0D01*
G01*
G37*
%TD.AperFunction*%
%TO.P,R17,1*%
%TO.N,/PeakDetectorMCU/PEAK_IN_ADC4*%
%TA.AperFunction,SMDPad,CuDef*%
G36*
G01*
X72574999Y-93396000D02*
X73475001Y-93396000D01*
G75*
G02*
X73725000Y-93645999I0J-249999D01*
G01*
X73725000Y-94296001D01*
G75*
G02*
X73475001Y-94546000I-249999J0D01*
G01*
X72574999Y-94546000D01*
G75*
G02*
X72325000Y-94296001I0J249999D01*
G01*
X72325000Y-93645999D01*
G75*
G02*
X72574999Y-93396000I249999J0D01*
G01*
G37*
%TD.AperFunction*%
%TD*%
%TO.P,R14,2*%
%TO.N,Net-(R14-Pad2)*%
%TA.AperFunction,SMDPad,CuDef*%
G36*
G01*
X93021999Y-95573000D02*
X93922001Y-95573000D01*
G75*
G02*
X94172000Y-95822999I0J-249999D01*
G01*
X94172000Y-96473001D01*
G75*
G02*
X93922001Y-96723000I-249999J0D01*
G01*
X93021999Y-96723000D01*
G75*
G02*
X92772000Y-96473001I0J249999D01*
G01*
X92772000Y-95822999D01*
G75*
G02*
X93021999Y-95573000I249999J0D01*
G01*
G37*
%TD.AperFunction*%
%TO.P,R14,1*%
%TO.N,/PeakDetectorMCU/PEAK_IN_ADC3*%
%TA.AperFunction,SMDPad,CuDef*%
G36*
G01*
X93021999Y-93523000D02*
X93922001Y-93523000D01*
G75*
G02*
X94172000Y-93772999I0J-249999D01*
G01*
X94172000Y-94423001D01*
G75*
G02*
X93922001Y-94673000I-249999J0D01*
G01*
X93021999Y-94673000D01*
G75*
G02*
X92772000Y-94423001I0J249999D01*
G01*
X92772000Y-93772999D01*
G75*
G02*
X93021999Y-93523000I249999J0D01*
G01*
G37*
%TD.AperFunction*%
%TD*%
%TO.P,R13,2*%
%TO.N,Net-(R13-Pad2)*%
%TA.AperFunction,SMDPad,CuDef*%
G36*
G01*
X114103999Y-95573000D02*
X115004001Y-95573000D01*
G75*
G02*
X115254000Y-95822999I0J-249999D01*
G01*
X115254000Y-96473001D01*
G75*
G02*
X115004001Y-96723000I-249999J0D01*
G01*
X114103999Y-96723000D01*
G75*
G02*
X113854000Y-96473001I0J249999D01*
G01*
X113854000Y-95822999D01*
G75*
G02*
X114103999Y-95573000I249999J0D01*
G01*
G37*
%TD.AperFunction*%
%TO.P,R13,1*%
%TO.N,/PeakDetectorMCU/PEAK_IN_ADC2*%
%TA.AperFunction,SMDPad,CuDef*%
G36*
G01*
X114103999Y-93523000D02*
X115004001Y-93523000D01*
G75*
G02*
X115254000Y-93772999I0J-249999D01*
G01*
X115254000Y-94423001D01*
G75*
G02*
X115004001Y-94673000I-249999J0D01*
G01*
X114103999Y-94673000D01*
G75*
G02*
X113854000Y-94423001I0J249999D01*
G01*
X113854000Y-93772999D01*
G75*
G02*
X114103999Y-93523000I249999J0D01*
G01*
G37*
%TD.AperFunction*%
%TD*%
D16*
%TO.P,JP1,1*%
%TO.N,Net-(C2-Pad1)*%
X54864000Y-95108000D03*
%TO.P,JP1,2*%
%TO.N,+3V3*%
X54864000Y-96408000D03*
%TD*%
D17*
%TO.P,J7,5*%
%TO.N,/PeakDetectorMCU/NRST*%
X93599000Y-127762000D03*
%TO.P,J7,4*%
%TO.N,/PeakDetectorMCU/SYS_SWDIO*%
X96139000Y-127762000D03*
%TO.P,J7,3*%
%TO.N,GNDS*%
X98679000Y-127762000D03*
%TO.P,J7,2*%
%TO.N,/PeakDetectorMCU/SYS_SWCLK*%
X101219000Y-127762000D03*
D18*
%TO.P,J7,1*%
%TO.N,+3V3*%
X103759000Y-127762000D03*
%TD*%
D19*
%TO.P,D5,2*%
%TO.N,/PeakDetectorMCU/PEAK_OUT_PWM1*%
X129286000Y-65278000D03*
D20*
%TO.P,D5,1*%
%TO.N,Net-(D5-Pad1)*%
X129286000Y-62738000D03*
%TD*%
D19*
%TO.P,D4,2*%
%TO.N,/PeakDetectorMCU/PEAK_OUT_PWM2*%
X108712000Y-65278000D03*
D20*
%TO.P,D4,1*%
%TO.N,Net-(D4-Pad1)*%
X108712000Y-62738000D03*
%TD*%
D19*
%TO.P,D3,2*%
%TO.N,/PeakDetectorMCU/PEAK_OUT_PWM3*%
X88138000Y-65278000D03*
D20*
%TO.P,D3,1*%
%TO.N,Net-(D3-Pad1)*%
X88138000Y-62738000D03*
%TD*%
D19*
%TO.P,D2,2*%
%TO.N,/PeakDetectorMCU/PEAK_OUT_PWM4*%
X67564000Y-65278000D03*
D20*
%TO.P,D2,1*%
%TO.N,Net-(D2-Pad1)*%
X67564000Y-62738000D03*
%TD*%
%TO.P,C40,2*%
%TO.N,GNDS*%
%TA.AperFunction,SMDPad,CuDef*%
G36*
G01*
X55937999Y-107257000D02*
X56838001Y-107257000D01*
G75*
G02*
X57088000Y-107506999I0J-249999D01*
G01*
X57088000Y-108157001D01*
G75*
G02*
X56838001Y-108407000I-249999J0D01*
G01*
X55937999Y-108407000D01*
G75*
G02*
X55688000Y-108157001I0J249999D01*
G01*
X55688000Y-107506999D01*
G75*
G02*
X55937999Y-107257000I249999J0D01*
G01*
G37*
%TD.AperFunction*%
%TO.P,C40,1*%
%TO.N,/OutputStage/NEG3VIN*%
%TA.AperFunction,SMDPad,CuDef*%
G36*
G01*
X55937999Y-105207000D02*
X56838001Y-105207000D01*
G75*
G02*
X57088000Y-105456999I0J-249999D01*
G01*
X57088000Y-106107001D01*
G75*
G02*
X56838001Y-106357000I-249999J0D01*
G01*
X55937999Y-106357000D01*
G75*
G02*
X55688000Y-106107001I0J249999D01*
G01*
X55688000Y-105456999D01*
G75*
G02*
X55937999Y-105207000I249999J0D01*
G01*
G37*
%TD.AperFunction*%
%TD*%
%TO.P,C39,2*%
%TO.N,Net-(C39-Pad2)*%
%TA.AperFunction,SMDPad,CuDef*%
G36*
G01*
X52393000Y-102177001D02*
X52393000Y-101276999D01*
G75*
G02*
X52642999Y-101027000I249999J0D01*
G01*
X53293001Y-101027000D01*
G75*
G02*
X53543000Y-101276999I0J-249999D01*
G01*
X53543000Y-102177001D01*
G75*
G02*
X53293001Y-102427000I-249999J0D01*
G01*
X52642999Y-102427000D01*
G75*
G02*
X52393000Y-102177001I0J249999D01*
G01*
G37*
%TD.AperFunction*%
%TO.P,C39,1*%
%TO.N,Net-(C39-Pad1)*%
%TA.AperFunction,SMDPad,CuDef*%
G36*
G01*
X50343000Y-102177001D02*
X50343000Y-101276999D01*
G75*
G02*
X50592999Y-101027000I249999J0D01*
G01*
X51243001Y-101027000D01*
G75*
G02*
X51493000Y-101276999I0J-249999D01*
G01*
X51493000Y-102177001D01*
G75*
G02*
X51243001Y-102427000I-249999J0D01*
G01*
X50592999Y-102427000D01*
G75*
G02*
X50343000Y-102177001I0J249999D01*
G01*
G37*
%TD.AperFunction*%
%TD*%
%TO.P,C38,2*%
%TO.N,GNDS*%
%TA.AperFunction,SMDPad,CuDef*%
G36*
G01*
X136582999Y-95573000D02*
X137483001Y-95573000D01*
G75*
G02*
X137733000Y-95822999I0J-249999D01*
G01*
X137733000Y-96473001D01*
G75*
G02*
X137483001Y-96723000I-249999J0D01*
G01*
X136582999Y-96723000D01*
G75*
G02*
X136333000Y-96473001I0J249999D01*
G01*
X136333000Y-95822999D01*
G75*
G02*
X136582999Y-95573000I249999J0D01*
G01*
G37*
%TD.AperFunction*%
%TO.P,C38,1*%
%TO.N,/PeakDetectorMCU/PEAK_IN_ADC1*%
%TA.AperFunction,SMDPad,CuDef*%
G36*
G01*
X136582999Y-93523000D02*
X137483001Y-93523000D01*
G75*
G02*
X137733000Y-93772999I0J-249999D01*
G01*
X137733000Y-94423001D01*
G75*
G02*
X137483001Y-94673000I-249999J0D01*
G01*
X136582999Y-94673000D01*
G75*
G02*
X136333000Y-94423001I0J249999D01*
G01*
X136333000Y-93772999D01*
G75*
G02*
X136582999Y-93523000I249999J0D01*
G01*
G37*
%TD.AperFunction*%
%TD*%
%TO.P,C37,2*%
%TO.N,GNDS*%
%TA.AperFunction,SMDPad,CuDef*%
G36*
G01*
X135959000Y-99891001D02*
X135959000Y-98990999D01*
G75*
G02*
X136208999Y-98741000I249999J0D01*
G01*
X136859001Y-98741000D01*
G75*
G02*
X137109000Y-98990999I0J-249999D01*
G01*
X137109000Y-99891001D01*
G75*
G02*
X136859001Y-100141000I-249999J0D01*
G01*
X136208999Y-100141000D01*
G75*
G02*
X135959000Y-99891001I0J249999D01*
G01*
G37*
%TD.AperFunction*%
%TO.P,C37,1*%
%TO.N,+3V3*%
%TA.AperFunction,SMDPad,CuDef*%
G36*
G01*
X133909000Y-99891001D02*
X133909000Y-98990999D01*
G75*
G02*
X134158999Y-98741000I249999J0D01*
G01*
X134809001Y-98741000D01*
G75*
G02*
X135059000Y-98990999I0J-249999D01*
G01*
X135059000Y-99891001D01*
G75*
G02*
X134809001Y-100141000I-249999J0D01*
G01*
X134158999Y-100141000D01*
G75*
G02*
X133909000Y-99891001I0J249999D01*
G01*
G37*
%TD.AperFunction*%
%TD*%
%TO.P,C36,2*%
%TO.N,GNDS*%
%TA.AperFunction,SMDPad,CuDef*%
G36*
G01*
X75114999Y-95446000D02*
X76015001Y-95446000D01*
G75*
G02*
X76265000Y-95695999I0J-249999D01*
G01*
X76265000Y-96346001D01*
G75*
G02*
X76015001Y-96596000I-249999J0D01*
G01*
X75114999Y-96596000D01*
G75*
G02*
X74865000Y-96346001I0J249999D01*
G01*
X74865000Y-95695999D01*
G75*
G02*
X75114999Y-95446000I249999J0D01*
G01*
G37*
%TD.AperFunction*%
%TO.P,C36,1*%
%TO.N,/PeakDetectorMCU/PEAK_IN_ADC4*%
%TA.AperFunction,SMDPad,CuDef*%
G36*
G01*
X75114999Y-93396000D02*
X76015001Y-93396000D01*
G75*
G02*
X76265000Y-93645999I0J-249999D01*
G01*
X76265000Y-94296001D01*
G75*
G02*
X76015001Y-94546000I-249999J0D01*
G01*
X75114999Y-94546000D01*
G75*
G02*
X74865000Y-94296001I0J249999D01*
G01*
X74865000Y-93645999D01*
G75*
G02*
X75114999Y-93396000I249999J0D01*
G01*
G37*
%TD.AperFunction*%
%TD*%
%TO.P,C35,2*%
%TO.N,GNDS*%
%TA.AperFunction,SMDPad,CuDef*%
G36*
G01*
X74364000Y-99891001D02*
X74364000Y-98990999D01*
G75*
G02*
X74613999Y-98741000I249999J0D01*
G01*
X75264001Y-98741000D01*
G75*
G02*
X75514000Y-98990999I0J-249999D01*
G01*
X75514000Y-99891001D01*
G75*
G02*
X75264001Y-100141000I-249999J0D01*
G01*
X74613999Y-100141000D01*
G75*
G02*
X74364000Y-99891001I0J249999D01*
G01*
G37*
%TD.AperFunction*%
%TO.P,C35,1*%
%TO.N,+3V3*%
%TA.AperFunction,SMDPad,CuDef*%
G36*
G01*
X72314000Y-99891001D02*
X72314000Y-98990999D01*
G75*
G02*
X72563999Y-98741000I249999J0D01*
G01*
X73214001Y-98741000D01*
G75*
G02*
X73464000Y-98990999I0J-249999D01*
G01*
X73464000Y-99891001D01*
G75*
G02*
X73214001Y-100141000I-249999J0D01*
G01*
X72563999Y-100141000D01*
G75*
G02*
X72314000Y-99891001I0J249999D01*
G01*
G37*
%TD.AperFunction*%
%TD*%
%TO.P,C34,2*%
%TO.N,GNDS*%
%TA.AperFunction,SMDPad,CuDef*%
G36*
G01*
X95561999Y-95573000D02*
X96462001Y-95573000D01*
G75*
G02*
X96712000Y-95822999I0J-249999D01*
G01*
X96712000Y-96473001D01*
G75*
G02*
X96462001Y-96723000I-249999J0D01*
G01*
X95561999Y-96723000D01*
G75*
G02*
X95312000Y-96473001I0J249999D01*
G01*
X95312000Y-95822999D01*
G75*
G02*
X95561999Y-95573000I249999J0D01*
G01*
G37*
%TD.AperFunction*%
%TO.P,C34,1*%
%TO.N,/PeakDetectorMCU/PEAK_IN_ADC3*%
%TA.AperFunction,SMDPad,CuDef*%
G36*
G01*
X95561999Y-93523000D02*
X96462001Y-93523000D01*
G75*
G02*
X96712000Y-93772999I0J-249999D01*
G01*
X96712000Y-94423001D01*
G75*
G02*
X96462001Y-94673000I-249999J0D01*
G01*
X95561999Y-94673000D01*
G75*
G02*
X95312000Y-94423001I0J249999D01*
G01*
X95312000Y-93772999D01*
G75*
G02*
X95561999Y-93523000I249999J0D01*
G01*
G37*
%TD.AperFunction*%
%TD*%
%TO.P,C33,2*%
%TO.N,GNDS*%
%TA.AperFunction,SMDPad,CuDef*%
G36*
G01*
X94811000Y-100018001D02*
X94811000Y-99117999D01*
G75*
G02*
X95060999Y-98868000I249999J0D01*
G01*
X95711001Y-98868000D01*
G75*
G02*
X95961000Y-99117999I0J-249999D01*
G01*
X95961000Y-100018001D01*
G75*
G02*
X95711001Y-100268000I-249999J0D01*
G01*
X95060999Y-100268000D01*
G75*
G02*
X94811000Y-100018001I0J249999D01*
G01*
G37*
%TD.AperFunction*%
%TO.P,C33,1*%
%TO.N,+3V3*%
%TA.AperFunction,SMDPad,CuDef*%
G36*
G01*
X92761000Y-100018001D02*
X92761000Y-99117999D01*
G75*
G02*
X93010999Y-98868000I249999J0D01*
G01*
X93661001Y-98868000D01*
G75*
G02*
X93911000Y-99117999I0J-249999D01*
G01*
X93911000Y-100018001D01*
G75*
G02*
X93661001Y-100268000I-249999J0D01*
G01*
X93010999Y-100268000D01*
G75*
G02*
X92761000Y-100018001I0J249999D01*
G01*
G37*
%TD.AperFunction*%
%TD*%
%TO.P,C32,2*%
%TO.N,GNDS*%
%TA.AperFunction,SMDPad,CuDef*%
G36*
G01*
X116516999Y-95573000D02*
X117417001Y-95573000D01*
G75*
G02*
X117667000Y-95822999I0J-249999D01*
G01*
X117667000Y-96473001D01*
G75*
G02*
X117417001Y-96723000I-249999J0D01*
G01*
X116516999Y-96723000D01*
G75*
G02*
X116267000Y-96473001I0J249999D01*
G01*
X116267000Y-95822999D01*
G75*
G02*
X116516999Y-95573000I249999J0D01*
G01*
G37*
%TD.AperFunction*%
%TO.P,C32,1*%
%TO.N,/PeakDetectorMCU/PEAK_IN_ADC2*%
%TA.AperFunction,SMDPad,CuDef*%
G36*
G01*
X116516999Y-93523000D02*
X117417001Y-93523000D01*
G75*
G02*
X117667000Y-93772999I0J-249999D01*
G01*
X117667000Y-94423001D01*
G75*
G02*
X117417001Y-94673000I-249999J0D01*
G01*
X116516999Y-94673000D01*
G75*
G02*
X116267000Y-94423001I0J249999D01*
G01*
X116267000Y-93772999D01*
G75*
G02*
X116516999Y-93523000I249999J0D01*
G01*
G37*
%TD.AperFunction*%
%TD*%
%TO.P,C31,2*%
%TO.N,GNDS*%
%TA.AperFunction,SMDPad,CuDef*%
G36*
G01*
X115766000Y-99891001D02*
X115766000Y-98990999D01*
G75*
G02*
X116015999Y-98741000I249999J0D01*
G01*
X116666001Y-98741000D01*
G75*
G02*
X116916000Y-98990999I0J-249999D01*
G01*
X116916000Y-99891001D01*
G75*
G02*
X116666001Y-100141000I-249999J0D01*
G01*
X116015999Y-100141000D01*
G75*
G02*
X115766000Y-99891001I0J249999D01*
G01*
G37*
%TD.AperFunction*%
%TO.P,C31,1*%
%TO.N,+3V3*%
%TA.AperFunction,SMDPad,CuDef*%
G36*
G01*
X113716000Y-99891001D02*
X113716000Y-98990999D01*
G75*
G02*
X113965999Y-98741000I249999J0D01*
G01*
X114616001Y-98741000D01*
G75*
G02*
X114866000Y-98990999I0J-249999D01*
G01*
X114866000Y-99891001D01*
G75*
G02*
X114616001Y-100141000I-249999J0D01*
G01*
X113965999Y-100141000D01*
G75*
G02*
X113716000Y-99891001I0J249999D01*
G01*
G37*
%TD.AperFunction*%
%TD*%
%TO.P,C21,2*%
%TO.N,GNDS*%
%TA.AperFunction,SMDPad,CuDef*%
G36*
G01*
X50175000Y-97295000D02*
X51425000Y-97295000D01*
G75*
G02*
X51675000Y-97545000I0J-250000D01*
G01*
X51675000Y-98470000D01*
G75*
G02*
X51425000Y-98720000I-250000J0D01*
G01*
X50175000Y-98720000D01*
G75*
G02*
X49925000Y-98470000I0J250000D01*
G01*
X49925000Y-97545000D01*
G75*
G02*
X50175000Y-97295000I250000J0D01*
G01*
G37*
%TD.AperFunction*%
%TO.P,C21,1*%
%TO.N,Net-(C2-Pad1)*%
%TA.AperFunction,SMDPad,CuDef*%
G36*
G01*
X50175000Y-94320000D02*
X51425000Y-94320000D01*
G75*
G02*
X51675000Y-94570000I0J-250000D01*
G01*
X51675000Y-95495000D01*
G75*
G02*
X51425000Y-95745000I-250000J0D01*
G01*
X50175000Y-95745000D01*
G75*
G02*
X49925000Y-95495000I0J250000D01*
G01*
X49925000Y-94570000D01*
G75*
G02*
X50175000Y-94320000I250000J0D01*
G01*
G37*
%TD.AperFunction*%
%TD*%
%TO.P,C20,2*%
%TO.N,GNDS*%
%TA.AperFunction,SMDPad,CuDef*%
G36*
G01*
X51425000Y-80505000D02*
X50175000Y-80505000D01*
G75*
G02*
X49925000Y-80255000I0J250000D01*
G01*
X49925000Y-79330000D01*
G75*
G02*
X50175000Y-79080000I250000J0D01*
G01*
X51425000Y-79080000D01*
G75*
G02*
X51675000Y-79330000I0J-250000D01*
G01*
X51675000Y-80255000D01*
G75*
G02*
X51425000Y-80505000I-250000J0D01*
G01*
G37*
%TD.AperFunction*%
%TO.P,C20,1*%
%TO.N,Net-(C1-Pad1)*%
%TA.AperFunction,SMDPad,CuDef*%
G36*
G01*
X51425000Y-83480000D02*
X50175000Y-83480000D01*
G75*
G02*
X49925000Y-83230000I0J250000D01*
G01*
X49925000Y-82305000D01*
G75*
G02*
X50175000Y-82055000I250000J0D01*
G01*
X51425000Y-82055000D01*
G75*
G02*
X51675000Y-82305000I0J-250000D01*
G01*
X51675000Y-83230000D01*
G75*
G02*
X51425000Y-83480000I-250000J0D01*
G01*
G37*
%TD.AperFunction*%
%TD*%
%TO.P,C14,2*%
%TO.N,GNDS*%
%TA.AperFunction,SMDPad,CuDef*%
G36*
G01*
X91370999Y-89858000D02*
X92271001Y-89858000D01*
G75*
G02*
X92521000Y-90107999I0J-249999D01*
G01*
X92521000Y-90758001D01*
G75*
G02*
X92271001Y-91008000I-249999J0D01*
G01*
X91370999Y-91008000D01*
G75*
G02*
X91121000Y-90758001I0J249999D01*
G01*
X91121000Y-90107999D01*
G75*
G02*
X91370999Y-89858000I249999J0D01*
G01*
G37*
%TD.AperFunction*%
%TO.P,C14,1*%
%TO.N,/InputBuffer3/NEG3VIN*%
%TA.AperFunction,SMDPad,CuDef*%
G36*
G01*
X91370999Y-87808000D02*
X92271001Y-87808000D01*
G75*
G02*
X92521000Y-88057999I0J-249999D01*
G01*
X92521000Y-88708001D01*
G75*
G02*
X92271001Y-88958000I-249999J0D01*
G01*
X91370999Y-88958000D01*
G75*
G02*
X91121000Y-88708001I0J249999D01*
G01*
X91121000Y-88057999D01*
G75*
G02*
X91370999Y-87808000I249999J0D01*
G01*
G37*
%TD.AperFunction*%
%TD*%
%TO.P,C13,2*%
%TO.N,Net-(C13-Pad2)*%
%TA.AperFunction,SMDPad,CuDef*%
G36*
G01*
X88461000Y-86048001D02*
X88461000Y-85147999D01*
G75*
G02*
X88710999Y-84898000I249999J0D01*
G01*
X89361001Y-84898000D01*
G75*
G02*
X89611000Y-85147999I0J-249999D01*
G01*
X89611000Y-86048001D01*
G75*
G02*
X89361001Y-86298000I-249999J0D01*
G01*
X88710999Y-86298000D01*
G75*
G02*
X88461000Y-86048001I0J249999D01*
G01*
G37*
%TD.AperFunction*%
%TO.P,C13,1*%
%TO.N,Net-(C13-Pad1)*%
%TA.AperFunction,SMDPad,CuDef*%
G36*
G01*
X86411000Y-86048001D02*
X86411000Y-85147999D01*
G75*
G02*
X86660999Y-84898000I249999J0D01*
G01*
X87311001Y-84898000D01*
G75*
G02*
X87561000Y-85147999I0J-249999D01*
G01*
X87561000Y-86048001D01*
G75*
G02*
X87311001Y-86298000I-249999J0D01*
G01*
X86660999Y-86298000D01*
G75*
G02*
X86411000Y-86048001I0J249999D01*
G01*
G37*
%TD.AperFunction*%
%TD*%
%TO.P,C9,2*%
%TO.N,GNDS*%
%TA.AperFunction,SMDPad,CuDef*%
G36*
G01*
X112071999Y-89858000D02*
X112972001Y-89858000D01*
G75*
G02*
X113222000Y-90107999I0J-249999D01*
G01*
X113222000Y-90758001D01*
G75*
G02*
X112972001Y-91008000I-249999J0D01*
G01*
X112071999Y-91008000D01*
G75*
G02*
X111822000Y-90758001I0J249999D01*
G01*
X111822000Y-90107999D01*
G75*
G02*
X112071999Y-89858000I249999J0D01*
G01*
G37*
%TD.AperFunction*%
%TO.P,C9,1*%
%TO.N,/InputBuffer2/NEG3VIN*%
%TA.AperFunction,SMDPad,CuDef*%
G36*
G01*
X112071999Y-87808000D02*
X112972001Y-87808000D01*
G75*
G02*
X113222000Y-88057999I0J-249999D01*
G01*
X113222000Y-88708001D01*
G75*
G02*
X112972001Y-88958000I-249999J0D01*
G01*
X112071999Y-88958000D01*
G75*
G02*
X111822000Y-88708001I0J249999D01*
G01*
X111822000Y-88057999D01*
G75*
G02*
X112071999Y-87808000I249999J0D01*
G01*
G37*
%TD.AperFunction*%
%TD*%
%TO.P,C8,2*%
%TO.N,Net-(C8-Pad2)*%
%TA.AperFunction,SMDPad,CuDef*%
G36*
G01*
X109162000Y-86048001D02*
X109162000Y-85147999D01*
G75*
G02*
X109411999Y-84898000I249999J0D01*
G01*
X110062001Y-84898000D01*
G75*
G02*
X110312000Y-85147999I0J-249999D01*
G01*
X110312000Y-86048001D01*
G75*
G02*
X110062001Y-86298000I-249999J0D01*
G01*
X109411999Y-86298000D01*
G75*
G02*
X109162000Y-86048001I0J249999D01*
G01*
G37*
%TD.AperFunction*%
%TO.P,C8,1*%
%TO.N,Net-(C8-Pad1)*%
%TA.AperFunction,SMDPad,CuDef*%
G36*
G01*
X107112000Y-86048001D02*
X107112000Y-85147999D01*
G75*
G02*
X107361999Y-84898000I249999J0D01*
G01*
X108012001Y-84898000D01*
G75*
G02*
X108262000Y-85147999I0J-249999D01*
G01*
X108262000Y-86048001D01*
G75*
G02*
X108012001Y-86298000I-249999J0D01*
G01*
X107361999Y-86298000D01*
G75*
G02*
X107112000Y-86048001I0J249999D01*
G01*
G37*
%TD.AperFunction*%
%TD*%
%TO.P,C7,2*%
%TO.N,GNDS*%
%TA.AperFunction,SMDPad,CuDef*%
G36*
G01*
X132391999Y-89858000D02*
X133292001Y-89858000D01*
G75*
G02*
X133542000Y-90107999I0J-249999D01*
G01*
X133542000Y-90758001D01*
G75*
G02*
X133292001Y-91008000I-249999J0D01*
G01*
X132391999Y-91008000D01*
G75*
G02*
X132142000Y-90758001I0J249999D01*
G01*
X132142000Y-90107999D01*
G75*
G02*
X132391999Y-89858000I249999J0D01*
G01*
G37*
%TD.AperFunction*%
%TO.P,C7,1*%
%TO.N,/InputBuffer1/NEG3VIN*%
%TA.AperFunction,SMDPad,CuDef*%
G36*
G01*
X132391999Y-87808000D02*
X133292001Y-87808000D01*
G75*
G02*
X133542000Y-88057999I0J-249999D01*
G01*
X133542000Y-88708001D01*
G75*
G02*
X133292001Y-88958000I-249999J0D01*
G01*
X132391999Y-88958000D01*
G75*
G02*
X132142000Y-88708001I0J249999D01*
G01*
X132142000Y-88057999D01*
G75*
G02*
X132391999Y-87808000I249999J0D01*
G01*
G37*
%TD.AperFunction*%
%TD*%
%TO.P,C3,2*%
%TO.N,Net-(C3-Pad2)*%
%TA.AperFunction,SMDPad,CuDef*%
G36*
G01*
X129609000Y-86048001D02*
X129609000Y-85147999D01*
G75*
G02*
X129858999Y-84898000I249999J0D01*
G01*
X130509001Y-84898000D01*
G75*
G02*
X130759000Y-85147999I0J-249999D01*
G01*
X130759000Y-86048001D01*
G75*
G02*
X130509001Y-86298000I-249999J0D01*
G01*
X129858999Y-86298000D01*
G75*
G02*
X129609000Y-86048001I0J249999D01*
G01*
G37*
%TD.AperFunction*%
%TO.P,C3,1*%
%TO.N,Net-(C3-Pad1)*%
%TA.AperFunction,SMDPad,CuDef*%
G36*
G01*
X127559000Y-86048001D02*
X127559000Y-85147999D01*
G75*
G02*
X127808999Y-84898000I249999J0D01*
G01*
X128459001Y-84898000D01*
G75*
G02*
X128709000Y-85147999I0J-249999D01*
G01*
X128709000Y-86048001D01*
G75*
G02*
X128459001Y-86298000I-249999J0D01*
G01*
X127808999Y-86298000D01*
G75*
G02*
X127559000Y-86048001I0J249999D01*
G01*
G37*
%TD.AperFunction*%
%TD*%
%TO.P,R1,2*%
%TO.N,/PEAK_IN_BUF1*%
%TA.AperFunction,SMDPad,CuDef*%
G36*
G01*
X132657001Y-108643000D02*
X131756999Y-108643000D01*
G75*
G02*
X131507000Y-108393001I0J249999D01*
G01*
X131507000Y-107742999D01*
G75*
G02*
X131756999Y-107493000I249999J0D01*
G01*
X132657001Y-107493000D01*
G75*
G02*
X132907000Y-107742999I0J-249999D01*
G01*
X132907000Y-108393001D01*
G75*
G02*
X132657001Y-108643000I-249999J0D01*
G01*
G37*
%TD.AperFunction*%
%TO.P,R1,1*%
%TO.N,/OutputStage/SIGNAL_INPUT*%
%TA.AperFunction,SMDPad,CuDef*%
G36*
G01*
X132657001Y-110693000D02*
X131756999Y-110693000D01*
G75*
G02*
X131507000Y-110443001I0J249999D01*
G01*
X131507000Y-109792999D01*
G75*
G02*
X131756999Y-109543000I249999J0D01*
G01*
X132657001Y-109543000D01*
G75*
G02*
X132907000Y-109792999I0J-249999D01*
G01*
X132907000Y-110443001D01*
G75*
G02*
X132657001Y-110693000I-249999J0D01*
G01*
G37*
%TD.AperFunction*%
%TD*%
D21*
%TO.P,RV3,1*%
%TO.N,Net-(R16-Pad2)*%
X86360000Y-79425800D03*
%TO.P,RV3,2*%
X89865200Y-79425800D03*
%TO.P,RV3,3*%
%TO.N,Net-(C18-Pad2)*%
X86360000Y-137922000D03*
D22*
%TO.P,RV3,*%
%TO.N,*%
X83921600Y-84759800D03*
X92278200Y-83566000D03*
X83921600Y-132562600D03*
X92303600Y-133781800D03*
%TD*%
D21*
%TO.P,RV4,1*%
%TO.N,Net-(R21-Pad2)*%
X65811400Y-79425800D03*
%TO.P,RV4,2*%
X69316600Y-79425800D03*
%TO.P,RV4,3*%
%TO.N,Net-(C24-Pad2)*%
X65811400Y-137922000D03*
D22*
%TO.P,RV4,*%
%TO.N,*%
X63373000Y-84759800D03*
X71729600Y-83566000D03*
X63373000Y-132562600D03*
X71755000Y-133781800D03*
%TD*%
D21*
%TO.P,RV2,1*%
%TO.N,Net-(R11-Pad2)*%
X106934000Y-79425800D03*
%TO.P,RV2,2*%
X110439200Y-79425800D03*
%TO.P,RV2,3*%
%TO.N,Net-(C12-Pad2)*%
X106934000Y-137922000D03*
D22*
%TO.P,RV2,*%
%TO.N,*%
X104495600Y-84759800D03*
X112852200Y-83566000D03*
X104495600Y-132562600D03*
X112877600Y-133781800D03*
%TD*%
D21*
%TO.P,RV1,1*%
%TO.N,Net-(R6-Pad2)*%
X127533400Y-79425800D03*
%TO.P,RV1,2*%
X131038600Y-79425800D03*
%TO.P,RV1,3*%
%TO.N,Net-(C6-Pad2)*%
X127533400Y-137922000D03*
D22*
%TO.P,RV1,*%
%TO.N,*%
X125095000Y-84759800D03*
X133451600Y-83566000D03*
X125095000Y-132562600D03*
X133477000Y-133781800D03*
%TD*%
%TO.P,C29,2*%
%TO.N,GNDS*%
%TA.AperFunction,SMDPad,CuDef*%
G36*
G01*
X47186001Y-113342000D02*
X46285999Y-113342000D01*
G75*
G02*
X46036000Y-113092001I0J249999D01*
G01*
X46036000Y-112441999D01*
G75*
G02*
X46285999Y-112192000I249999J0D01*
G01*
X47186001Y-112192000D01*
G75*
G02*
X47436000Y-112441999I0J-249999D01*
G01*
X47436000Y-113092001D01*
G75*
G02*
X47186001Y-113342000I-249999J0D01*
G01*
G37*
%TD.AperFunction*%
%TO.P,C29,1*%
%TO.N,+3V3*%
%TA.AperFunction,SMDPad,CuDef*%
G36*
G01*
X47186001Y-115392000D02*
X46285999Y-115392000D01*
G75*
G02*
X46036000Y-115142001I0J249999D01*
G01*
X46036000Y-114491999D01*
G75*
G02*
X46285999Y-114242000I249999J0D01*
G01*
X47186001Y-114242000D01*
G75*
G02*
X47436000Y-114491999I0J-249999D01*
G01*
X47436000Y-115142001D01*
G75*
G02*
X47186001Y-115392000I-249999J0D01*
G01*
G37*
%TD.AperFunction*%
%TD*%
%TO.P,C28,2*%
%TO.N,GNDS*%
%TA.AperFunction,SMDPad,CuDef*%
G36*
G01*
X58743000Y-111448001D02*
X58743000Y-110547999D01*
G75*
G02*
X58992999Y-110298000I249999J0D01*
G01*
X59643001Y-110298000D01*
G75*
G02*
X59893000Y-110547999I0J-249999D01*
G01*
X59893000Y-111448001D01*
G75*
G02*
X59643001Y-111698000I-249999J0D01*
G01*
X58992999Y-111698000D01*
G75*
G02*
X58743000Y-111448001I0J249999D01*
G01*
G37*
%TD.AperFunction*%
%TO.P,C28,1*%
%TO.N,/OutputStage/NEG3VIN*%
%TA.AperFunction,SMDPad,CuDef*%
G36*
G01*
X56693000Y-111448001D02*
X56693000Y-110547999D01*
G75*
G02*
X56942999Y-110298000I249999J0D01*
G01*
X57593001Y-110298000D01*
G75*
G02*
X57843000Y-110547999I0J-249999D01*
G01*
X57843000Y-111448001D01*
G75*
G02*
X57593001Y-111698000I-249999J0D01*
G01*
X56942999Y-111698000D01*
G75*
G02*
X56693000Y-111448001I0J249999D01*
G01*
G37*
%TD.AperFunction*%
%TD*%
%TO.P,U9,8*%
%TO.N,+3V3*%
%TA.AperFunction,SMDPad,CuDef*%
G36*
G01*
X50443000Y-114658000D02*
X50443000Y-114958000D01*
G75*
G02*
X50293000Y-115108000I-150000J0D01*
G01*
X48643000Y-115108000D01*
G75*
G02*
X48493000Y-114958000I0J150000D01*
G01*
X48493000Y-114658000D01*
G75*
G02*
X48643000Y-114508000I150000J0D01*
G01*
X50293000Y-114508000D01*
G75*
G02*
X50443000Y-114658000I0J-150000D01*
G01*
G37*
%TD.AperFunction*%
%TO.P,U9,7*%
%TO.N,Net-(U9-Pad7)*%
%TA.AperFunction,SMDPad,CuDef*%
G36*
G01*
X50443000Y-113388000D02*
X50443000Y-113688000D01*
G75*
G02*
X50293000Y-113838000I-150000J0D01*
G01*
X48643000Y-113838000D01*
G75*
G02*
X48493000Y-113688000I0J150000D01*
G01*
X48493000Y-113388000D01*
G75*
G02*
X48643000Y-113238000I150000J0D01*
G01*
X50293000Y-113238000D01*
G75*
G02*
X50443000Y-113388000I0J-150000D01*
G01*
G37*
%TD.AperFunction*%
%TO.P,U9,6*%
%TO.N,Net-(U9-Pad6)*%
%TA.AperFunction,SMDPad,CuDef*%
G36*
G01*
X50443000Y-112118000D02*
X50443000Y-112418000D01*
G75*
G02*
X50293000Y-112568000I-150000J0D01*
G01*
X48643000Y-112568000D01*
G75*
G02*
X48493000Y-112418000I0J150000D01*
G01*
X48493000Y-112118000D01*
G75*
G02*
X48643000Y-111968000I150000J0D01*
G01*
X50293000Y-111968000D01*
G75*
G02*
X50443000Y-112118000I0J-150000D01*
G01*
G37*
%TD.AperFunction*%
%TO.P,U9,5*%
%TO.N,Net-(U9-Pad5)*%
%TA.AperFunction,SMDPad,CuDef*%
G36*
G01*
X50443000Y-110848000D02*
X50443000Y-111148000D01*
G75*
G02*
X50293000Y-111298000I-150000J0D01*
G01*
X48643000Y-111298000D01*
G75*
G02*
X48493000Y-111148000I0J150000D01*
G01*
X48493000Y-110848000D01*
G75*
G02*
X48643000Y-110698000I150000J0D01*
G01*
X50293000Y-110698000D01*
G75*
G02*
X50443000Y-110848000I0J-150000D01*
G01*
G37*
%TD.AperFunction*%
%TO.P,U9,4*%
%TO.N,/OutputStage/NEG3VIN*%
%TA.AperFunction,SMDPad,CuDef*%
G36*
G01*
X55393000Y-110848000D02*
X55393000Y-111148000D01*
G75*
G02*
X55243000Y-111298000I-150000J0D01*
G01*
X53593000Y-111298000D01*
G75*
G02*
X53443000Y-111148000I0J150000D01*
G01*
X53443000Y-110848000D01*
G75*
G02*
X53593000Y-110698000I150000J0D01*
G01*
X55243000Y-110698000D01*
G75*
G02*
X55393000Y-110848000I0J-150000D01*
G01*
G37*
%TD.AperFunction*%
%TO.P,U9,3*%
%TO.N,GNDS*%
%TA.AperFunction,SMDPad,CuDef*%
G36*
G01*
X55393000Y-112118000D02*
X55393000Y-112418000D01*
G75*
G02*
X55243000Y-112568000I-150000J0D01*
G01*
X53593000Y-112568000D01*
G75*
G02*
X53443000Y-112418000I0J150000D01*
G01*
X53443000Y-112118000D01*
G75*
G02*
X53593000Y-111968000I150000J0D01*
G01*
X55243000Y-111968000D01*
G75*
G02*
X55393000Y-112118000I0J-150000D01*
G01*
G37*
%TD.AperFunction*%
%TO.P,U9,2*%
%TO.N,/OutputStage/SIGNAL_INPUT*%
%TA.AperFunction,SMDPad,CuDef*%
G36*
G01*
X55393000Y-113388000D02*
X55393000Y-113688000D01*
G75*
G02*
X55243000Y-113838000I-150000J0D01*
G01*
X53593000Y-113838000D01*
G75*
G02*
X53443000Y-113688000I0J150000D01*
G01*
X53443000Y-113388000D01*
G75*
G02*
X53593000Y-113238000I150000J0D01*
G01*
X55243000Y-113238000D01*
G75*
G02*
X55393000Y-113388000I0J-150000D01*
G01*
G37*
%TD.AperFunction*%
%TO.P,U9,1*%
%TO.N,/OutputStage/SIGNAL_OUTPUT*%
%TA.AperFunction,SMDPad,CuDef*%
G36*
G01*
X55393000Y-114658000D02*
X55393000Y-114958000D01*
G75*
G02*
X55243000Y-115108000I-150000J0D01*
G01*
X53593000Y-115108000D01*
G75*
G02*
X53443000Y-114958000I0J150000D01*
G01*
X53443000Y-114658000D01*
G75*
G02*
X53593000Y-114508000I150000J0D01*
G01*
X55243000Y-114508000D01*
G75*
G02*
X55393000Y-114658000I0J-150000D01*
G01*
G37*
%TD.AperFunction*%
%TD*%
%TO.P,U7,8*%
%TO.N,+3V3*%
%TA.AperFunction,SMDPad,CuDef*%
G36*
G01*
X68049000Y-103481000D02*
X68349000Y-103481000D01*
G75*
G02*
X68499000Y-103631000I0J-150000D01*
G01*
X68499000Y-105281000D01*
G75*
G02*
X68349000Y-105431000I-150000J0D01*
G01*
X68049000Y-105431000D01*
G75*
G02*
X67899000Y-105281000I0J150000D01*
G01*
X67899000Y-103631000D01*
G75*
G02*
X68049000Y-103481000I150000J0D01*
G01*
G37*
%TD.AperFunction*%
%TO.P,U7,7*%
%TO.N,/PEAK_IN_BUF4*%
%TA.AperFunction,SMDPad,CuDef*%
G36*
G01*
X66779000Y-103481000D02*
X67079000Y-103481000D01*
G75*
G02*
X67229000Y-103631000I0J-150000D01*
G01*
X67229000Y-105281000D01*
G75*
G02*
X67079000Y-105431000I-150000J0D01*
G01*
X66779000Y-105431000D01*
G75*
G02*
X66629000Y-105281000I0J150000D01*
G01*
X66629000Y-103631000D01*
G75*
G02*
X66779000Y-103481000I150000J0D01*
G01*
G37*
%TD.AperFunction*%
%TO.P,U7,6*%
%TO.N,Net-(C24-Pad2)*%
%TA.AperFunction,SMDPad,CuDef*%
G36*
G01*
X65509000Y-103481000D02*
X65809000Y-103481000D01*
G75*
G02*
X65959000Y-103631000I0J-150000D01*
G01*
X65959000Y-105281000D01*
G75*
G02*
X65809000Y-105431000I-150000J0D01*
G01*
X65509000Y-105431000D01*
G75*
G02*
X65359000Y-105281000I0J150000D01*
G01*
X65359000Y-103631000D01*
G75*
G02*
X65509000Y-103481000I150000J0D01*
G01*
G37*
%TD.AperFunction*%
%TO.P,U7,5*%
%TO.N,GNDS*%
%TA.AperFunction,SMDPad,CuDef*%
G36*
G01*
X64239000Y-103481000D02*
X64539000Y-103481000D01*
G75*
G02*
X64689000Y-103631000I0J-150000D01*
G01*
X64689000Y-105281000D01*
G75*
G02*
X64539000Y-105431000I-150000J0D01*
G01*
X64239000Y-105431000D01*
G75*
G02*
X64089000Y-105281000I0J150000D01*
G01*
X64089000Y-103631000D01*
G75*
G02*
X64239000Y-103481000I150000J0D01*
G01*
G37*
%TD.AperFunction*%
%TO.P,U7,4*%
%TO.N,/InputBuffer4/NEG3VIN*%
%TA.AperFunction,SMDPad,CuDef*%
G36*
G01*
X64239000Y-98531000D02*
X64539000Y-98531000D01*
G75*
G02*
X64689000Y-98681000I0J-150000D01*
G01*
X64689000Y-100331000D01*
G75*
G02*
X64539000Y-100481000I-150000J0D01*
G01*
X64239000Y-100481000D01*
G75*
G02*
X64089000Y-100331000I0J150000D01*
G01*
X64089000Y-98681000D01*
G75*
G02*
X64239000Y-98531000I150000J0D01*
G01*
G37*
%TD.AperFunction*%
%TO.P,U7,3*%
%TO.N,/InputBuffer4/SIGNAL_INPUT*%
%TA.AperFunction,SMDPad,CuDef*%
G36*
G01*
X65509000Y-98531000D02*
X65809000Y-98531000D01*
G75*
G02*
X65959000Y-98681000I0J-150000D01*
G01*
X65959000Y-100331000D01*
G75*
G02*
X65809000Y-100481000I-150000J0D01*
G01*
X65509000Y-100481000D01*
G75*
G02*
X65359000Y-100331000I0J150000D01*
G01*
X65359000Y-98681000D01*
G75*
G02*
X65509000Y-98531000I150000J0D01*
G01*
G37*
%TD.AperFunction*%
%TO.P,U7,2*%
%TO.N,Net-(R20-Pad2)*%
%TA.AperFunction,SMDPad,CuDef*%
G36*
G01*
X66779000Y-98531000D02*
X67079000Y-98531000D01*
G75*
G02*
X67229000Y-98681000I0J-150000D01*
G01*
X67229000Y-100331000D01*
G75*
G02*
X67079000Y-100481000I-150000J0D01*
G01*
X66779000Y-100481000D01*
G75*
G02*
X66629000Y-100331000I0J150000D01*
G01*
X66629000Y-98681000D01*
G75*
G02*
X66779000Y-98531000I150000J0D01*
G01*
G37*
%TD.AperFunction*%
%TO.P,U7,1*%
%TA.AperFunction,SMDPad,CuDef*%
G36*
G01*
X68049000Y-98531000D02*
X68349000Y-98531000D01*
G75*
G02*
X68499000Y-98681000I0J-150000D01*
G01*
X68499000Y-100331000D01*
G75*
G02*
X68349000Y-100481000I-150000J0D01*
G01*
X68049000Y-100481000D01*
G75*
G02*
X67899000Y-100331000I0J150000D01*
G01*
X67899000Y-98681000D01*
G75*
G02*
X68049000Y-98531000I150000J0D01*
G01*
G37*
%TD.AperFunction*%
%TD*%
%TO.P,U5,8*%
%TO.N,+3V3*%
%TA.AperFunction,SMDPad,CuDef*%
G36*
G01*
X88496000Y-103608000D02*
X88796000Y-103608000D01*
G75*
G02*
X88946000Y-103758000I0J-150000D01*
G01*
X88946000Y-105408000D01*
G75*
G02*
X88796000Y-105558000I-150000J0D01*
G01*
X88496000Y-105558000D01*
G75*
G02*
X88346000Y-105408000I0J150000D01*
G01*
X88346000Y-103758000D01*
G75*
G02*
X88496000Y-103608000I150000J0D01*
G01*
G37*
%TD.AperFunction*%
%TO.P,U5,7*%
%TO.N,/PEAK_IN_BUF3*%
%TA.AperFunction,SMDPad,CuDef*%
G36*
G01*
X87226000Y-103608000D02*
X87526000Y-103608000D01*
G75*
G02*
X87676000Y-103758000I0J-150000D01*
G01*
X87676000Y-105408000D01*
G75*
G02*
X87526000Y-105558000I-150000J0D01*
G01*
X87226000Y-105558000D01*
G75*
G02*
X87076000Y-105408000I0J150000D01*
G01*
X87076000Y-103758000D01*
G75*
G02*
X87226000Y-103608000I150000J0D01*
G01*
G37*
%TD.AperFunction*%
%TO.P,U5,6*%
%TO.N,Net-(C18-Pad2)*%
%TA.AperFunction,SMDPad,CuDef*%
G36*
G01*
X85956000Y-103608000D02*
X86256000Y-103608000D01*
G75*
G02*
X86406000Y-103758000I0J-150000D01*
G01*
X86406000Y-105408000D01*
G75*
G02*
X86256000Y-105558000I-150000J0D01*
G01*
X85956000Y-105558000D01*
G75*
G02*
X85806000Y-105408000I0J150000D01*
G01*
X85806000Y-103758000D01*
G75*
G02*
X85956000Y-103608000I150000J0D01*
G01*
G37*
%TD.AperFunction*%
%TO.P,U5,5*%
%TO.N,GNDS*%
%TA.AperFunction,SMDPad,CuDef*%
G36*
G01*
X84686000Y-103608000D02*
X84986000Y-103608000D01*
G75*
G02*
X85136000Y-103758000I0J-150000D01*
G01*
X85136000Y-105408000D01*
G75*
G02*
X84986000Y-105558000I-150000J0D01*
G01*
X84686000Y-105558000D01*
G75*
G02*
X84536000Y-105408000I0J150000D01*
G01*
X84536000Y-103758000D01*
G75*
G02*
X84686000Y-103608000I150000J0D01*
G01*
G37*
%TD.AperFunction*%
%TO.P,U5,4*%
%TO.N,/InputBuffer3/NEG3VIN*%
%TA.AperFunction,SMDPad,CuDef*%
G36*
G01*
X84686000Y-98658000D02*
X84986000Y-98658000D01*
G75*
G02*
X85136000Y-98808000I0J-150000D01*
G01*
X85136000Y-100458000D01*
G75*
G02*
X84986000Y-100608000I-150000J0D01*
G01*
X84686000Y-100608000D01*
G75*
G02*
X84536000Y-100458000I0J150000D01*
G01*
X84536000Y-98808000D01*
G75*
G02*
X84686000Y-98658000I150000J0D01*
G01*
G37*
%TD.AperFunction*%
%TO.P,U5,3*%
%TO.N,/InputBuffer3/SIGNAL_INPUT*%
%TA.AperFunction,SMDPad,CuDef*%
G36*
G01*
X85956000Y-98658000D02*
X86256000Y-98658000D01*
G75*
G02*
X86406000Y-98808000I0J-150000D01*
G01*
X86406000Y-100458000D01*
G75*
G02*
X86256000Y-100608000I-150000J0D01*
G01*
X85956000Y-100608000D01*
G75*
G02*
X85806000Y-100458000I0J150000D01*
G01*
X85806000Y-98808000D01*
G75*
G02*
X85956000Y-98658000I150000J0D01*
G01*
G37*
%TD.AperFunction*%
%TO.P,U5,2*%
%TO.N,Net-(R15-Pad2)*%
%TA.AperFunction,SMDPad,CuDef*%
G36*
G01*
X87226000Y-98658000D02*
X87526000Y-98658000D01*
G75*
G02*
X87676000Y-98808000I0J-150000D01*
G01*
X87676000Y-100458000D01*
G75*
G02*
X87526000Y-100608000I-150000J0D01*
G01*
X87226000Y-100608000D01*
G75*
G02*
X87076000Y-100458000I0J150000D01*
G01*
X87076000Y-98808000D01*
G75*
G02*
X87226000Y-98658000I150000J0D01*
G01*
G37*
%TD.AperFunction*%
%TO.P,U5,1*%
%TA.AperFunction,SMDPad,CuDef*%
G36*
G01*
X88496000Y-98658000D02*
X88796000Y-98658000D01*
G75*
G02*
X88946000Y-98808000I0J-150000D01*
G01*
X88946000Y-100458000D01*
G75*
G02*
X88796000Y-100608000I-150000J0D01*
G01*
X88496000Y-100608000D01*
G75*
G02*
X88346000Y-100458000I0J150000D01*
G01*
X88346000Y-98808000D01*
G75*
G02*
X88496000Y-98658000I150000J0D01*
G01*
G37*
%TD.AperFunction*%
%TD*%
%TO.P,U3,8*%
%TO.N,+3V3*%
%TA.AperFunction,SMDPad,CuDef*%
G36*
G01*
X109197000Y-103608000D02*
X109497000Y-103608000D01*
G75*
G02*
X109647000Y-103758000I0J-150000D01*
G01*
X109647000Y-105408000D01*
G75*
G02*
X109497000Y-105558000I-150000J0D01*
G01*
X109197000Y-105558000D01*
G75*
G02*
X109047000Y-105408000I0J150000D01*
G01*
X109047000Y-103758000D01*
G75*
G02*
X109197000Y-103608000I150000J0D01*
G01*
G37*
%TD.AperFunction*%
%TO.P,U3,7*%
%TO.N,/PEAK_IN_BUF2*%
%TA.AperFunction,SMDPad,CuDef*%
G36*
G01*
X107927000Y-103608000D02*
X108227000Y-103608000D01*
G75*
G02*
X108377000Y-103758000I0J-150000D01*
G01*
X108377000Y-105408000D01*
G75*
G02*
X108227000Y-105558000I-150000J0D01*
G01*
X107927000Y-105558000D01*
G75*
G02*
X107777000Y-105408000I0J150000D01*
G01*
X107777000Y-103758000D01*
G75*
G02*
X107927000Y-103608000I150000J0D01*
G01*
G37*
%TD.AperFunction*%
%TO.P,U3,6*%
%TO.N,Net-(C12-Pad2)*%
%TA.AperFunction,SMDPad,CuDef*%
G36*
G01*
X106657000Y-103608000D02*
X106957000Y-103608000D01*
G75*
G02*
X107107000Y-103758000I0J-150000D01*
G01*
X107107000Y-105408000D01*
G75*
G02*
X106957000Y-105558000I-150000J0D01*
G01*
X106657000Y-105558000D01*
G75*
G02*
X106507000Y-105408000I0J150000D01*
G01*
X106507000Y-103758000D01*
G75*
G02*
X106657000Y-103608000I150000J0D01*
G01*
G37*
%TD.AperFunction*%
%TO.P,U3,5*%
%TO.N,GNDS*%
%TA.AperFunction,SMDPad,CuDef*%
G36*
G01*
X105387000Y-103608000D02*
X105687000Y-103608000D01*
G75*
G02*
X105837000Y-103758000I0J-150000D01*
G01*
X105837000Y-105408000D01*
G75*
G02*
X105687000Y-105558000I-150000J0D01*
G01*
X105387000Y-105558000D01*
G75*
G02*
X105237000Y-105408000I0J150000D01*
G01*
X105237000Y-103758000D01*
G75*
G02*
X105387000Y-103608000I150000J0D01*
G01*
G37*
%TD.AperFunction*%
%TO.P,U3,4*%
%TO.N,/InputBuffer2/NEG3VIN*%
%TA.AperFunction,SMDPad,CuDef*%
G36*
G01*
X105387000Y-98658000D02*
X105687000Y-98658000D01*
G75*
G02*
X105837000Y-98808000I0J-150000D01*
G01*
X105837000Y-100458000D01*
G75*
G02*
X105687000Y-100608000I-150000J0D01*
G01*
X105387000Y-100608000D01*
G75*
G02*
X105237000Y-100458000I0J150000D01*
G01*
X105237000Y-98808000D01*
G75*
G02*
X105387000Y-98658000I150000J0D01*
G01*
G37*
%TD.AperFunction*%
%TO.P,U3,3*%
%TO.N,/InputBuffer2/SIGNAL_INPUT*%
%TA.AperFunction,SMDPad,CuDef*%
G36*
G01*
X106657000Y-98658000D02*
X106957000Y-98658000D01*
G75*
G02*
X107107000Y-98808000I0J-150000D01*
G01*
X107107000Y-100458000D01*
G75*
G02*
X106957000Y-100608000I-150000J0D01*
G01*
X106657000Y-100608000D01*
G75*
G02*
X106507000Y-100458000I0J150000D01*
G01*
X106507000Y-98808000D01*
G75*
G02*
X106657000Y-98658000I150000J0D01*
G01*
G37*
%TD.AperFunction*%
%TO.P,U3,2*%
%TO.N,Net-(R10-Pad2)*%
%TA.AperFunction,SMDPad,CuDef*%
G36*
G01*
X107927000Y-98658000D02*
X108227000Y-98658000D01*
G75*
G02*
X108377000Y-98808000I0J-150000D01*
G01*
X108377000Y-100458000D01*
G75*
G02*
X108227000Y-100608000I-150000J0D01*
G01*
X107927000Y-100608000D01*
G75*
G02*
X107777000Y-100458000I0J150000D01*
G01*
X107777000Y-98808000D01*
G75*
G02*
X107927000Y-98658000I150000J0D01*
G01*
G37*
%TD.AperFunction*%
%TO.P,U3,1*%
%TA.AperFunction,SMDPad,CuDef*%
G36*
G01*
X109197000Y-98658000D02*
X109497000Y-98658000D01*
G75*
G02*
X109647000Y-98808000I0J-150000D01*
G01*
X109647000Y-100458000D01*
G75*
G02*
X109497000Y-100608000I-150000J0D01*
G01*
X109197000Y-100608000D01*
G75*
G02*
X109047000Y-100458000I0J150000D01*
G01*
X109047000Y-98808000D01*
G75*
G02*
X109197000Y-98658000I150000J0D01*
G01*
G37*
%TD.AperFunction*%
%TD*%
%TO.P,U1,8*%
%TO.N,+3V3*%
%TA.AperFunction,SMDPad,CuDef*%
G36*
G01*
X129517000Y-103608000D02*
X129817000Y-103608000D01*
G75*
G02*
X129967000Y-103758000I0J-150000D01*
G01*
X129967000Y-105408000D01*
G75*
G02*
X129817000Y-105558000I-150000J0D01*
G01*
X129517000Y-105558000D01*
G75*
G02*
X129367000Y-105408000I0J150000D01*
G01*
X129367000Y-103758000D01*
G75*
G02*
X129517000Y-103608000I150000J0D01*
G01*
G37*
%TD.AperFunction*%
%TO.P,U1,7*%
%TO.N,/PEAK_IN_BUF1*%
%TA.AperFunction,SMDPad,CuDef*%
G36*
G01*
X128247000Y-103608000D02*
X128547000Y-103608000D01*
G75*
G02*
X128697000Y-103758000I0J-150000D01*
G01*
X128697000Y-105408000D01*
G75*
G02*
X128547000Y-105558000I-150000J0D01*
G01*
X128247000Y-105558000D01*
G75*
G02*
X128097000Y-105408000I0J150000D01*
G01*
X128097000Y-103758000D01*
G75*
G02*
X128247000Y-103608000I150000J0D01*
G01*
G37*
%TD.AperFunction*%
%TO.P,U1,6*%
%TO.N,Net-(C6-Pad2)*%
%TA.AperFunction,SMDPad,CuDef*%
G36*
G01*
X126977000Y-103608000D02*
X127277000Y-103608000D01*
G75*
G02*
X127427000Y-103758000I0J-150000D01*
G01*
X127427000Y-105408000D01*
G75*
G02*
X127277000Y-105558000I-150000J0D01*
G01*
X126977000Y-105558000D01*
G75*
G02*
X126827000Y-105408000I0J150000D01*
G01*
X126827000Y-103758000D01*
G75*
G02*
X126977000Y-103608000I150000J0D01*
G01*
G37*
%TD.AperFunction*%
%TO.P,U1,5*%
%TO.N,GNDS*%
%TA.AperFunction,SMDPad,CuDef*%
G36*
G01*
X125707000Y-103608000D02*
X126007000Y-103608000D01*
G75*
G02*
X126157000Y-103758000I0J-150000D01*
G01*
X126157000Y-105408000D01*
G75*
G02*
X126007000Y-105558000I-150000J0D01*
G01*
X125707000Y-105558000D01*
G75*
G02*
X125557000Y-105408000I0J150000D01*
G01*
X125557000Y-103758000D01*
G75*
G02*
X125707000Y-103608000I150000J0D01*
G01*
G37*
%TD.AperFunction*%
%TO.P,U1,4*%
%TO.N,/InputBuffer1/NEG3VIN*%
%TA.AperFunction,SMDPad,CuDef*%
G36*
G01*
X125707000Y-98658000D02*
X126007000Y-98658000D01*
G75*
G02*
X126157000Y-98808000I0J-150000D01*
G01*
X126157000Y-100458000D01*
G75*
G02*
X126007000Y-100608000I-150000J0D01*
G01*
X125707000Y-100608000D01*
G75*
G02*
X125557000Y-100458000I0J150000D01*
G01*
X125557000Y-98808000D01*
G75*
G02*
X125707000Y-98658000I150000J0D01*
G01*
G37*
%TD.AperFunction*%
%TO.P,U1,3*%
%TO.N,/InputBuffer1/SIGNAL_INPUT*%
%TA.AperFunction,SMDPad,CuDef*%
G36*
G01*
X126977000Y-98658000D02*
X127277000Y-98658000D01*
G75*
G02*
X127427000Y-98808000I0J-150000D01*
G01*
X127427000Y-100458000D01*
G75*
G02*
X127277000Y-100608000I-150000J0D01*
G01*
X126977000Y-100608000D01*
G75*
G02*
X126827000Y-100458000I0J150000D01*
G01*
X126827000Y-98808000D01*
G75*
G02*
X126977000Y-98658000I150000J0D01*
G01*
G37*
%TD.AperFunction*%
%TO.P,U1,2*%
%TO.N,Net-(R5-Pad2)*%
%TA.AperFunction,SMDPad,CuDef*%
G36*
G01*
X128247000Y-98658000D02*
X128547000Y-98658000D01*
G75*
G02*
X128697000Y-98808000I0J-150000D01*
G01*
X128697000Y-100458000D01*
G75*
G02*
X128547000Y-100608000I-150000J0D01*
G01*
X128247000Y-100608000D01*
G75*
G02*
X128097000Y-100458000I0J150000D01*
G01*
X128097000Y-98808000D01*
G75*
G02*
X128247000Y-98658000I150000J0D01*
G01*
G37*
%TD.AperFunction*%
%TO.P,U1,1*%
%TA.AperFunction,SMDPad,CuDef*%
G36*
G01*
X129517000Y-98658000D02*
X129817000Y-98658000D01*
G75*
G02*
X129967000Y-98808000I0J-150000D01*
G01*
X129967000Y-100458000D01*
G75*
G02*
X129817000Y-100608000I-150000J0D01*
G01*
X129517000Y-100608000D01*
G75*
G02*
X129367000Y-100458000I0J150000D01*
G01*
X129367000Y-98808000D01*
G75*
G02*
X129517000Y-98658000I150000J0D01*
G01*
G37*
%TD.AperFunction*%
%TD*%
%TO.P,R30,2*%
%TO.N,/OutputStage/SIGNAL_OUTPUT*%
%TA.AperFunction,SMDPad,CuDef*%
G36*
G01*
X58743000Y-113988001D02*
X58743000Y-113087999D01*
G75*
G02*
X58992999Y-112838000I249999J0D01*
G01*
X59643001Y-112838000D01*
G75*
G02*
X59893000Y-113087999I0J-249999D01*
G01*
X59893000Y-113988001D01*
G75*
G02*
X59643001Y-114238000I-249999J0D01*
G01*
X58992999Y-114238000D01*
G75*
G02*
X58743000Y-113988001I0J249999D01*
G01*
G37*
%TD.AperFunction*%
%TO.P,R30,1*%
%TO.N,/OutputStage/SIGNAL_INPUT*%
%TA.AperFunction,SMDPad,CuDef*%
G36*
G01*
X56693000Y-113988001D02*
X56693000Y-113087999D01*
G75*
G02*
X56942999Y-112838000I249999J0D01*
G01*
X57593001Y-112838000D01*
G75*
G02*
X57843000Y-113087999I0J-249999D01*
G01*
X57843000Y-113988001D01*
G75*
G02*
X57593001Y-114238000I-249999J0D01*
G01*
X56942999Y-114238000D01*
G75*
G02*
X56693000Y-113988001I0J249999D01*
G01*
G37*
%TD.AperFunction*%
%TD*%
%TO.P,R21,2*%
%TO.N,Net-(R21-Pad2)*%
%TA.AperFunction,SMDPad,CuDef*%
G36*
G01*
X71189001Y-94546000D02*
X70288999Y-94546000D01*
G75*
G02*
X70039000Y-94296001I0J249999D01*
G01*
X70039000Y-93645999D01*
G75*
G02*
X70288999Y-93396000I249999J0D01*
G01*
X71189001Y-93396000D01*
G75*
G02*
X71439000Y-93645999I0J-249999D01*
G01*
X71439000Y-94296001D01*
G75*
G02*
X71189001Y-94546000I-249999J0D01*
G01*
G37*
%TD.AperFunction*%
%TO.P,R21,1*%
%TO.N,/PEAK_IN_BUF4*%
%TA.AperFunction,SMDPad,CuDef*%
G36*
G01*
X71189001Y-96596000D02*
X70288999Y-96596000D01*
G75*
G02*
X70039000Y-96346001I0J249999D01*
G01*
X70039000Y-95695999D01*
G75*
G02*
X70288999Y-95446000I249999J0D01*
G01*
X71189001Y-95446000D01*
G75*
G02*
X71439000Y-95695999I0J-249999D01*
G01*
X71439000Y-96346001D01*
G75*
G02*
X71189001Y-96596000I-249999J0D01*
G01*
G37*
%TD.AperFunction*%
%TD*%
%TO.P,R20,2*%
%TO.N,Net-(R20-Pad2)*%
%TA.AperFunction,SMDPad,CuDef*%
G36*
G01*
X67748999Y-95446000D02*
X68649001Y-95446000D01*
G75*
G02*
X68899000Y-95695999I0J-249999D01*
G01*
X68899000Y-96346001D01*
G75*
G02*
X68649001Y-96596000I-249999J0D01*
G01*
X67748999Y-96596000D01*
G75*
G02*
X67499000Y-96346001I0J249999D01*
G01*
X67499000Y-95695999D01*
G75*
G02*
X67748999Y-95446000I249999J0D01*
G01*
G37*
%TD.AperFunction*%
%TO.P,R20,1*%
%TO.N,Net-(C24-Pad2)*%
%TA.AperFunction,SMDPad,CuDef*%
G36*
G01*
X67748999Y-93396000D02*
X68649001Y-93396000D01*
G75*
G02*
X68899000Y-93645999I0J-249999D01*
G01*
X68899000Y-94296001D01*
G75*
G02*
X68649001Y-94546000I-249999J0D01*
G01*
X67748999Y-94546000D01*
G75*
G02*
X67499000Y-94296001I0J249999D01*
G01*
X67499000Y-93645999D01*
G75*
G02*
X67748999Y-93396000I249999J0D01*
G01*
G37*
%TD.AperFunction*%
%TD*%
%TO.P,R16,2*%
%TO.N,Net-(R16-Pad2)*%
%TA.AperFunction,SMDPad,CuDef*%
G36*
G01*
X91636001Y-94673000D02*
X90735999Y-94673000D01*
G75*
G02*
X90486000Y-94423001I0J249999D01*
G01*
X90486000Y-93772999D01*
G75*
G02*
X90735999Y-93523000I249999J0D01*
G01*
X91636001Y-93523000D01*
G75*
G02*
X91886000Y-93772999I0J-249999D01*
G01*
X91886000Y-94423001D01*
G75*
G02*
X91636001Y-94673000I-249999J0D01*
G01*
G37*
%TD.AperFunction*%
%TO.P,R16,1*%
%TO.N,/PEAK_IN_BUF3*%
%TA.AperFunction,SMDPad,CuDef*%
G36*
G01*
X91636001Y-96723000D02*
X90735999Y-96723000D01*
G75*
G02*
X90486000Y-96473001I0J249999D01*
G01*
X90486000Y-95822999D01*
G75*
G02*
X90735999Y-95573000I249999J0D01*
G01*
X91636001Y-95573000D01*
G75*
G02*
X91886000Y-95822999I0J-249999D01*
G01*
X91886000Y-96473001D01*
G75*
G02*
X91636001Y-96723000I-249999J0D01*
G01*
G37*
%TD.AperFunction*%
%TD*%
%TO.P,R15,2*%
%TO.N,Net-(R15-Pad2)*%
%TA.AperFunction,SMDPad,CuDef*%
G36*
G01*
X88195999Y-95573000D02*
X89096001Y-95573000D01*
G75*
G02*
X89346000Y-95822999I0J-249999D01*
G01*
X89346000Y-96473001D01*
G75*
G02*
X89096001Y-96723000I-249999J0D01*
G01*
X88195999Y-96723000D01*
G75*
G02*
X87946000Y-96473001I0J249999D01*
G01*
X87946000Y-95822999D01*
G75*
G02*
X88195999Y-95573000I249999J0D01*
G01*
G37*
%TD.AperFunction*%
%TO.P,R15,1*%
%TO.N,Net-(C18-Pad2)*%
%TA.AperFunction,SMDPad,CuDef*%
G36*
G01*
X88195999Y-93523000D02*
X89096001Y-93523000D01*
G75*
G02*
X89346000Y-93772999I0J-249999D01*
G01*
X89346000Y-94423001D01*
G75*
G02*
X89096001Y-94673000I-249999J0D01*
G01*
X88195999Y-94673000D01*
G75*
G02*
X87946000Y-94423001I0J249999D01*
G01*
X87946000Y-93772999D01*
G75*
G02*
X88195999Y-93523000I249999J0D01*
G01*
G37*
%TD.AperFunction*%
%TD*%
%TO.P,R11,2*%
%TO.N,Net-(R11-Pad2)*%
%TA.AperFunction,SMDPad,CuDef*%
G36*
G01*
X112337001Y-94673000D02*
X111436999Y-94673000D01*
G75*
G02*
X111187000Y-94423001I0J249999D01*
G01*
X111187000Y-93772999D01*
G75*
G02*
X111436999Y-93523000I249999J0D01*
G01*
X112337001Y-93523000D01*
G75*
G02*
X112587000Y-93772999I0J-249999D01*
G01*
X112587000Y-94423001D01*
G75*
G02*
X112337001Y-94673000I-249999J0D01*
G01*
G37*
%TD.AperFunction*%
%TO.P,R11,1*%
%TO.N,/PEAK_IN_BUF2*%
%TA.AperFunction,SMDPad,CuDef*%
G36*
G01*
X112337001Y-96723000D02*
X111436999Y-96723000D01*
G75*
G02*
X111187000Y-96473001I0J249999D01*
G01*
X111187000Y-95822999D01*
G75*
G02*
X111436999Y-95573000I249999J0D01*
G01*
X112337001Y-95573000D01*
G75*
G02*
X112587000Y-95822999I0J-249999D01*
G01*
X112587000Y-96473001D01*
G75*
G02*
X112337001Y-96723000I-249999J0D01*
G01*
G37*
%TD.AperFunction*%
%TD*%
%TO.P,R10,2*%
%TO.N,Net-(R10-Pad2)*%
%TA.AperFunction,SMDPad,CuDef*%
G36*
G01*
X108896999Y-95573000D02*
X109797001Y-95573000D01*
G75*
G02*
X110047000Y-95822999I0J-249999D01*
G01*
X110047000Y-96473001D01*
G75*
G02*
X109797001Y-96723000I-249999J0D01*
G01*
X108896999Y-96723000D01*
G75*
G02*
X108647000Y-96473001I0J249999D01*
G01*
X108647000Y-95822999D01*
G75*
G02*
X108896999Y-95573000I249999J0D01*
G01*
G37*
%TD.AperFunction*%
%TO.P,R10,1*%
%TO.N,Net-(C12-Pad2)*%
%TA.AperFunction,SMDPad,CuDef*%
G36*
G01*
X108896999Y-93523000D02*
X109797001Y-93523000D01*
G75*
G02*
X110047000Y-93772999I0J-249999D01*
G01*
X110047000Y-94423001D01*
G75*
G02*
X109797001Y-94673000I-249999J0D01*
G01*
X108896999Y-94673000D01*
G75*
G02*
X108647000Y-94423001I0J249999D01*
G01*
X108647000Y-93772999D01*
G75*
G02*
X108896999Y-93523000I249999J0D01*
G01*
G37*
%TD.AperFunction*%
%TD*%
%TO.P,R6,2*%
%TO.N,Net-(R6-Pad2)*%
%TA.AperFunction,SMDPad,CuDef*%
G36*
G01*
X132657001Y-94673000D02*
X131756999Y-94673000D01*
G75*
G02*
X131507000Y-94423001I0J249999D01*
G01*
X131507000Y-93772999D01*
G75*
G02*
X131756999Y-93523000I249999J0D01*
G01*
X132657001Y-93523000D01*
G75*
G02*
X132907000Y-93772999I0J-249999D01*
G01*
X132907000Y-94423001D01*
G75*
G02*
X132657001Y-94673000I-249999J0D01*
G01*
G37*
%TD.AperFunction*%
%TO.P,R6,1*%
%TO.N,/PEAK_IN_BUF1*%
%TA.AperFunction,SMDPad,CuDef*%
G36*
G01*
X132657001Y-96723000D02*
X131756999Y-96723000D01*
G75*
G02*
X131507000Y-96473001I0J249999D01*
G01*
X131507000Y-95822999D01*
G75*
G02*
X131756999Y-95573000I249999J0D01*
G01*
X132657001Y-95573000D01*
G75*
G02*
X132907000Y-95822999I0J-249999D01*
G01*
X132907000Y-96473001D01*
G75*
G02*
X132657001Y-96723000I-249999J0D01*
G01*
G37*
%TD.AperFunction*%
%TD*%
%TO.P,R5,2*%
%TO.N,Net-(R5-Pad2)*%
%TA.AperFunction,SMDPad,CuDef*%
G36*
G01*
X129216999Y-95573000D02*
X130117001Y-95573000D01*
G75*
G02*
X130367000Y-95822999I0J-249999D01*
G01*
X130367000Y-96473001D01*
G75*
G02*
X130117001Y-96723000I-249999J0D01*
G01*
X129216999Y-96723000D01*
G75*
G02*
X128967000Y-96473001I0J249999D01*
G01*
X128967000Y-95822999D01*
G75*
G02*
X129216999Y-95573000I249999J0D01*
G01*
G37*
%TD.AperFunction*%
%TO.P,R5,1*%
%TO.N,Net-(C6-Pad2)*%
%TA.AperFunction,SMDPad,CuDef*%
G36*
G01*
X129216999Y-93523000D02*
X130117001Y-93523000D01*
G75*
G02*
X130367000Y-93772999I0J-249999D01*
G01*
X130367000Y-94423001D01*
G75*
G02*
X130117001Y-94673000I-249999J0D01*
G01*
X129216999Y-94673000D01*
G75*
G02*
X128967000Y-94423001I0J249999D01*
G01*
X128967000Y-93772999D01*
G75*
G02*
X129216999Y-93523000I249999J0D01*
G01*
G37*
%TD.AperFunction*%
%TD*%
%TO.P,R4,2*%
%TO.N,/PEAK_IN_BUF4*%
%TA.AperFunction,SMDPad,CuDef*%
G36*
G01*
X71189001Y-108516000D02*
X70288999Y-108516000D01*
G75*
G02*
X70039000Y-108266001I0J249999D01*
G01*
X70039000Y-107615999D01*
G75*
G02*
X70288999Y-107366000I249999J0D01*
G01*
X71189001Y-107366000D01*
G75*
G02*
X71439000Y-107615999I0J-249999D01*
G01*
X71439000Y-108266001D01*
G75*
G02*
X71189001Y-108516000I-249999J0D01*
G01*
G37*
%TD.AperFunction*%
%TO.P,R4,1*%
%TO.N,/OutputStage/SIGNAL_INPUT*%
%TA.AperFunction,SMDPad,CuDef*%
G36*
G01*
X71189001Y-110566000D02*
X70288999Y-110566000D01*
G75*
G02*
X70039000Y-110316001I0J249999D01*
G01*
X70039000Y-109665999D01*
G75*
G02*
X70288999Y-109416000I249999J0D01*
G01*
X71189001Y-109416000D01*
G75*
G02*
X71439000Y-109665999I0J-249999D01*
G01*
X71439000Y-110316001D01*
G75*
G02*
X71189001Y-110566000I-249999J0D01*
G01*
G37*
%TD.AperFunction*%
%TD*%
%TO.P,R3,2*%
%TO.N,/PEAK_IN_BUF3*%
%TA.AperFunction,SMDPad,CuDef*%
G36*
G01*
X91636001Y-108643000D02*
X90735999Y-108643000D01*
G75*
G02*
X90486000Y-108393001I0J249999D01*
G01*
X90486000Y-107742999D01*
G75*
G02*
X90735999Y-107493000I249999J0D01*
G01*
X91636001Y-107493000D01*
G75*
G02*
X91886000Y-107742999I0J-249999D01*
G01*
X91886000Y-108393001D01*
G75*
G02*
X91636001Y-108643000I-249999J0D01*
G01*
G37*
%TD.AperFunction*%
%TO.P,R3,1*%
%TO.N,/OutputStage/SIGNAL_INPUT*%
%TA.AperFunction,SMDPad,CuDef*%
G36*
G01*
X91636001Y-110693000D02*
X90735999Y-110693000D01*
G75*
G02*
X90486000Y-110443001I0J249999D01*
G01*
X90486000Y-109792999D01*
G75*
G02*
X90735999Y-109543000I249999J0D01*
G01*
X91636001Y-109543000D01*
G75*
G02*
X91886000Y-109792999I0J-249999D01*
G01*
X91886000Y-110443001D01*
G75*
G02*
X91636001Y-110693000I-249999J0D01*
G01*
G37*
%TD.AperFunction*%
%TD*%
%TO.P,R2,2*%
%TO.N,/PEAK_IN_BUF2*%
%TA.AperFunction,SMDPad,CuDef*%
G36*
G01*
X112337001Y-108643000D02*
X111436999Y-108643000D01*
G75*
G02*
X111187000Y-108393001I0J249999D01*
G01*
X111187000Y-107742999D01*
G75*
G02*
X111436999Y-107493000I249999J0D01*
G01*
X112337001Y-107493000D01*
G75*
G02*
X112587000Y-107742999I0J-249999D01*
G01*
X112587000Y-108393001D01*
G75*
G02*
X112337001Y-108643000I-249999J0D01*
G01*
G37*
%TD.AperFunction*%
%TO.P,R2,1*%
%TO.N,/OutputStage/SIGNAL_INPUT*%
%TA.AperFunction,SMDPad,CuDef*%
G36*
G01*
X112337001Y-110693000D02*
X111436999Y-110693000D01*
G75*
G02*
X111187000Y-110443001I0J249999D01*
G01*
X111187000Y-109792999D01*
G75*
G02*
X111436999Y-109543000I249999J0D01*
G01*
X112337001Y-109543000D01*
G75*
G02*
X112587000Y-109792999I0J-249999D01*
G01*
X112587000Y-110443001D01*
G75*
G02*
X112337001Y-110693000I-249999J0D01*
G01*
G37*
%TD.AperFunction*%
%TD*%
D23*
%TO.P,D1,2*%
%TO.N,/PowerSupply/+9V_IN*%
X53975000Y-79880000D03*
%TO.P,D1,1*%
%TO.N,Net-(C1-Pad1)*%
X53975000Y-82680000D03*
%TD*%
%TO.P,C24,2*%
%TO.N,Net-(C24-Pad2)*%
%TA.AperFunction,SMDPad,CuDef*%
G36*
G01*
X66109001Y-108516000D02*
X65208999Y-108516000D01*
G75*
G02*
X64959000Y-108266001I0J249999D01*
G01*
X64959000Y-107615999D01*
G75*
G02*
X65208999Y-107366000I249999J0D01*
G01*
X66109001Y-107366000D01*
G75*
G02*
X66359000Y-107615999I0J-249999D01*
G01*
X66359000Y-108266001D01*
G75*
G02*
X66109001Y-108516000I-249999J0D01*
G01*
G37*
%TD.AperFunction*%
%TO.P,C24,1*%
%TO.N,/PEAK_IN_BUF4*%
%TA.AperFunction,SMDPad,CuDef*%
G36*
G01*
X66109001Y-110566000D02*
X65208999Y-110566000D01*
G75*
G02*
X64959000Y-110316001I0J249999D01*
G01*
X64959000Y-109665999D01*
G75*
G02*
X65208999Y-109416000I249999J0D01*
G01*
X66109001Y-109416000D01*
G75*
G02*
X66359000Y-109665999I0J-249999D01*
G01*
X66359000Y-110316001D01*
G75*
G02*
X66109001Y-110566000I-249999J0D01*
G01*
G37*
%TD.AperFunction*%
%TD*%
%TO.P,C23,2*%
%TO.N,GNDS*%
%TA.AperFunction,SMDPad,CuDef*%
G36*
G01*
X67748999Y-109416000D02*
X68649001Y-109416000D01*
G75*
G02*
X68899000Y-109665999I0J-249999D01*
G01*
X68899000Y-110316001D01*
G75*
G02*
X68649001Y-110566000I-249999J0D01*
G01*
X67748999Y-110566000D01*
G75*
G02*
X67499000Y-110316001I0J249999D01*
G01*
X67499000Y-109665999D01*
G75*
G02*
X67748999Y-109416000I249999J0D01*
G01*
G37*
%TD.AperFunction*%
%TO.P,C23,1*%
%TO.N,+3V3*%
%TA.AperFunction,SMDPad,CuDef*%
G36*
G01*
X67748999Y-107366000D02*
X68649001Y-107366000D01*
G75*
G02*
X68899000Y-107615999I0J-249999D01*
G01*
X68899000Y-108266001D01*
G75*
G02*
X68649001Y-108516000I-249999J0D01*
G01*
X67748999Y-108516000D01*
G75*
G02*
X67499000Y-108266001I0J249999D01*
G01*
X67499000Y-107615999D01*
G75*
G02*
X67748999Y-107366000I249999J0D01*
G01*
G37*
%TD.AperFunction*%
%TD*%
%TO.P,C22,2*%
%TO.N,GNDS*%
%TA.AperFunction,SMDPad,CuDef*%
G36*
G01*
X64839001Y-94546000D02*
X63938999Y-94546000D01*
G75*
G02*
X63689000Y-94296001I0J249999D01*
G01*
X63689000Y-93645999D01*
G75*
G02*
X63938999Y-93396000I249999J0D01*
G01*
X64839001Y-93396000D01*
G75*
G02*
X65089000Y-93645999I0J-249999D01*
G01*
X65089000Y-94296001D01*
G75*
G02*
X64839001Y-94546000I-249999J0D01*
G01*
G37*
%TD.AperFunction*%
%TO.P,C22,1*%
%TO.N,/InputBuffer4/NEG3VIN*%
%TA.AperFunction,SMDPad,CuDef*%
G36*
G01*
X64839001Y-96596000D02*
X63938999Y-96596000D01*
G75*
G02*
X63689000Y-96346001I0J249999D01*
G01*
X63689000Y-95695999D01*
G75*
G02*
X63938999Y-95446000I249999J0D01*
G01*
X64839001Y-95446000D01*
G75*
G02*
X65089000Y-95695999I0J-249999D01*
G01*
X65089000Y-96346001D01*
G75*
G02*
X64839001Y-96596000I-249999J0D01*
G01*
G37*
%TD.AperFunction*%
%TD*%
%TO.P,C18,2*%
%TO.N,Net-(C18-Pad2)*%
%TA.AperFunction,SMDPad,CuDef*%
G36*
G01*
X86556001Y-108643000D02*
X85655999Y-108643000D01*
G75*
G02*
X85406000Y-108393001I0J249999D01*
G01*
X85406000Y-107742999D01*
G75*
G02*
X85655999Y-107493000I249999J0D01*
G01*
X86556001Y-107493000D01*
G75*
G02*
X86806000Y-107742999I0J-249999D01*
G01*
X86806000Y-108393001D01*
G75*
G02*
X86556001Y-108643000I-249999J0D01*
G01*
G37*
%TD.AperFunction*%
%TO.P,C18,1*%
%TO.N,/PEAK_IN_BUF3*%
%TA.AperFunction,SMDPad,CuDef*%
G36*
G01*
X86556001Y-110693000D02*
X85655999Y-110693000D01*
G75*
G02*
X85406000Y-110443001I0J249999D01*
G01*
X85406000Y-109792999D01*
G75*
G02*
X85655999Y-109543000I249999J0D01*
G01*
X86556001Y-109543000D01*
G75*
G02*
X86806000Y-109792999I0J-249999D01*
G01*
X86806000Y-110443001D01*
G75*
G02*
X86556001Y-110693000I-249999J0D01*
G01*
G37*
%TD.AperFunction*%
%TD*%
%TO.P,C17,2*%
%TO.N,GNDS*%
%TA.AperFunction,SMDPad,CuDef*%
G36*
G01*
X88195999Y-109543000D02*
X89096001Y-109543000D01*
G75*
G02*
X89346000Y-109792999I0J-249999D01*
G01*
X89346000Y-110443001D01*
G75*
G02*
X89096001Y-110693000I-249999J0D01*
G01*
X88195999Y-110693000D01*
G75*
G02*
X87946000Y-110443001I0J249999D01*
G01*
X87946000Y-109792999D01*
G75*
G02*
X88195999Y-109543000I249999J0D01*
G01*
G37*
%TD.AperFunction*%
%TO.P,C17,1*%
%TO.N,+3V3*%
%TA.AperFunction,SMDPad,CuDef*%
G36*
G01*
X88195999Y-107493000D02*
X89096001Y-107493000D01*
G75*
G02*
X89346000Y-107742999I0J-249999D01*
G01*
X89346000Y-108393001D01*
G75*
G02*
X89096001Y-108643000I-249999J0D01*
G01*
X88195999Y-108643000D01*
G75*
G02*
X87946000Y-108393001I0J249999D01*
G01*
X87946000Y-107742999D01*
G75*
G02*
X88195999Y-107493000I249999J0D01*
G01*
G37*
%TD.AperFunction*%
%TD*%
%TO.P,C16,2*%
%TO.N,GNDS*%
%TA.AperFunction,SMDPad,CuDef*%
G36*
G01*
X85286001Y-94673000D02*
X84385999Y-94673000D01*
G75*
G02*
X84136000Y-94423001I0J249999D01*
G01*
X84136000Y-93772999D01*
G75*
G02*
X84385999Y-93523000I249999J0D01*
G01*
X85286001Y-93523000D01*
G75*
G02*
X85536000Y-93772999I0J-249999D01*
G01*
X85536000Y-94423001D01*
G75*
G02*
X85286001Y-94673000I-249999J0D01*
G01*
G37*
%TD.AperFunction*%
%TO.P,C16,1*%
%TO.N,/InputBuffer3/NEG3VIN*%
%TA.AperFunction,SMDPad,CuDef*%
G36*
G01*
X85286001Y-96723000D02*
X84385999Y-96723000D01*
G75*
G02*
X84136000Y-96473001I0J249999D01*
G01*
X84136000Y-95822999D01*
G75*
G02*
X84385999Y-95573000I249999J0D01*
G01*
X85286001Y-95573000D01*
G75*
G02*
X85536000Y-95822999I0J-249999D01*
G01*
X85536000Y-96473001D01*
G75*
G02*
X85286001Y-96723000I-249999J0D01*
G01*
G37*
%TD.AperFunction*%
%TD*%
%TO.P,C12,2*%
%TO.N,Net-(C12-Pad2)*%
%TA.AperFunction,SMDPad,CuDef*%
G36*
G01*
X107257001Y-108643000D02*
X106356999Y-108643000D01*
G75*
G02*
X106107000Y-108393001I0J249999D01*
G01*
X106107000Y-107742999D01*
G75*
G02*
X106356999Y-107493000I249999J0D01*
G01*
X107257001Y-107493000D01*
G75*
G02*
X107507000Y-107742999I0J-249999D01*
G01*
X107507000Y-108393001D01*
G75*
G02*
X107257001Y-108643000I-249999J0D01*
G01*
G37*
%TD.AperFunction*%
%TO.P,C12,1*%
%TO.N,/PEAK_IN_BUF2*%
%TA.AperFunction,SMDPad,CuDef*%
G36*
G01*
X107257001Y-110693000D02*
X106356999Y-110693000D01*
G75*
G02*
X106107000Y-110443001I0J249999D01*
G01*
X106107000Y-109792999D01*
G75*
G02*
X106356999Y-109543000I249999J0D01*
G01*
X107257001Y-109543000D01*
G75*
G02*
X107507000Y-109792999I0J-249999D01*
G01*
X107507000Y-110443001D01*
G75*
G02*
X107257001Y-110693000I-249999J0D01*
G01*
G37*
%TD.AperFunction*%
%TD*%
%TO.P,C11,2*%
%TO.N,GNDS*%
%TA.AperFunction,SMDPad,CuDef*%
G36*
G01*
X108896999Y-109543000D02*
X109797001Y-109543000D01*
G75*
G02*
X110047000Y-109792999I0J-249999D01*
G01*
X110047000Y-110443001D01*
G75*
G02*
X109797001Y-110693000I-249999J0D01*
G01*
X108896999Y-110693000D01*
G75*
G02*
X108647000Y-110443001I0J249999D01*
G01*
X108647000Y-109792999D01*
G75*
G02*
X108896999Y-109543000I249999J0D01*
G01*
G37*
%TD.AperFunction*%
%TO.P,C11,1*%
%TO.N,+3V3*%
%TA.AperFunction,SMDPad,CuDef*%
G36*
G01*
X108896999Y-107493000D02*
X109797001Y-107493000D01*
G75*
G02*
X110047000Y-107742999I0J-249999D01*
G01*
X110047000Y-108393001D01*
G75*
G02*
X109797001Y-108643000I-249999J0D01*
G01*
X108896999Y-108643000D01*
G75*
G02*
X108647000Y-108393001I0J249999D01*
G01*
X108647000Y-107742999D01*
G75*
G02*
X108896999Y-107493000I249999J0D01*
G01*
G37*
%TD.AperFunction*%
%TD*%
%TO.P,C10,2*%
%TO.N,GNDS*%
%TA.AperFunction,SMDPad,CuDef*%
G36*
G01*
X105987001Y-94673000D02*
X105086999Y-94673000D01*
G75*
G02*
X104837000Y-94423001I0J249999D01*
G01*
X104837000Y-93772999D01*
G75*
G02*
X105086999Y-93523000I249999J0D01*
G01*
X105987001Y-93523000D01*
G75*
G02*
X106237000Y-93772999I0J-249999D01*
G01*
X106237000Y-94423001D01*
G75*
G02*
X105987001Y-94673000I-249999J0D01*
G01*
G37*
%TD.AperFunction*%
%TO.P,C10,1*%
%TO.N,/InputBuffer2/NEG3VIN*%
%TA.AperFunction,SMDPad,CuDef*%
G36*
G01*
X105987001Y-96723000D02*
X105086999Y-96723000D01*
G75*
G02*
X104837000Y-96473001I0J249999D01*
G01*
X104837000Y-95822999D01*
G75*
G02*
X105086999Y-95573000I249999J0D01*
G01*
X105987001Y-95573000D01*
G75*
G02*
X106237000Y-95822999I0J-249999D01*
G01*
X106237000Y-96473001D01*
G75*
G02*
X105987001Y-96723000I-249999J0D01*
G01*
G37*
%TD.AperFunction*%
%TD*%
%TO.P,C6,2*%
%TO.N,Net-(C6-Pad2)*%
%TA.AperFunction,SMDPad,CuDef*%
G36*
G01*
X127577001Y-108643000D02*
X126676999Y-108643000D01*
G75*
G02*
X126427000Y-108393001I0J249999D01*
G01*
X126427000Y-107742999D01*
G75*
G02*
X126676999Y-107493000I249999J0D01*
G01*
X127577001Y-107493000D01*
G75*
G02*
X127827000Y-107742999I0J-249999D01*
G01*
X127827000Y-108393001D01*
G75*
G02*
X127577001Y-108643000I-249999J0D01*
G01*
G37*
%TD.AperFunction*%
%TO.P,C6,1*%
%TO.N,/PEAK_IN_BUF1*%
%TA.AperFunction,SMDPad,CuDef*%
G36*
G01*
X127577001Y-110693000D02*
X126676999Y-110693000D01*
G75*
G02*
X126427000Y-110443001I0J249999D01*
G01*
X126427000Y-109792999D01*
G75*
G02*
X126676999Y-109543000I249999J0D01*
G01*
X127577001Y-109543000D01*
G75*
G02*
X127827000Y-109792999I0J-249999D01*
G01*
X127827000Y-110443001D01*
G75*
G02*
X127577001Y-110693000I-249999J0D01*
G01*
G37*
%TD.AperFunction*%
%TD*%
%TO.P,C5,2*%
%TO.N,GNDS*%
%TA.AperFunction,SMDPad,CuDef*%
G36*
G01*
X129216999Y-109543000D02*
X130117001Y-109543000D01*
G75*
G02*
X130367000Y-109792999I0J-249999D01*
G01*
X130367000Y-110443001D01*
G75*
G02*
X130117001Y-110693000I-249999J0D01*
G01*
X129216999Y-110693000D01*
G75*
G02*
X128967000Y-110443001I0J249999D01*
G01*
X128967000Y-109792999D01*
G75*
G02*
X129216999Y-109543000I249999J0D01*
G01*
G37*
%TD.AperFunction*%
%TO.P,C5,1*%
%TO.N,+3V3*%
%TA.AperFunction,SMDPad,CuDef*%
G36*
G01*
X129216999Y-107493000D02*
X130117001Y-107493000D01*
G75*
G02*
X130367000Y-107742999I0J-249999D01*
G01*
X130367000Y-108393001D01*
G75*
G02*
X130117001Y-108643000I-249999J0D01*
G01*
X129216999Y-108643000D01*
G75*
G02*
X128967000Y-108393001I0J249999D01*
G01*
X128967000Y-107742999D01*
G75*
G02*
X129216999Y-107493000I249999J0D01*
G01*
G37*
%TD.AperFunction*%
%TD*%
%TO.P,C4,2*%
%TO.N,GNDS*%
%TA.AperFunction,SMDPad,CuDef*%
G36*
G01*
X126307001Y-94673000D02*
X125406999Y-94673000D01*
G75*
G02*
X125157000Y-94423001I0J249999D01*
G01*
X125157000Y-93772999D01*
G75*
G02*
X125406999Y-93523000I249999J0D01*
G01*
X126307001Y-93523000D01*
G75*
G02*
X126557000Y-93772999I0J-249999D01*
G01*
X126557000Y-94423001D01*
G75*
G02*
X126307001Y-94673000I-249999J0D01*
G01*
G37*
%TD.AperFunction*%
%TO.P,C4,1*%
%TO.N,/InputBuffer1/NEG3VIN*%
%TA.AperFunction,SMDPad,CuDef*%
G36*
G01*
X126307001Y-96723000D02*
X125406999Y-96723000D01*
G75*
G02*
X125157000Y-96473001I0J249999D01*
G01*
X125157000Y-95822999D01*
G75*
G02*
X125406999Y-95573000I249999J0D01*
G01*
X126307001Y-95573000D01*
G75*
G02*
X126557000Y-95822999I0J-249999D01*
G01*
X126557000Y-96473001D01*
G75*
G02*
X126307001Y-96723000I-249999J0D01*
G01*
G37*
%TD.AperFunction*%
%TD*%
%TO.P,C2,2*%
%TO.N,GNDS*%
%TA.AperFunction,SMDPad,CuDef*%
G36*
G01*
X47000000Y-97295000D02*
X48250000Y-97295000D01*
G75*
G02*
X48500000Y-97545000I0J-250000D01*
G01*
X48500000Y-98470000D01*
G75*
G02*
X48250000Y-98720000I-250000J0D01*
G01*
X47000000Y-98720000D01*
G75*
G02*
X46750000Y-98470000I0J250000D01*
G01*
X46750000Y-97545000D01*
G75*
G02*
X47000000Y-97295000I250000J0D01*
G01*
G37*
%TD.AperFunction*%
%TO.P,C2,1*%
%TO.N,Net-(C2-Pad1)*%
%TA.AperFunction,SMDPad,CuDef*%
G36*
G01*
X47000000Y-94320000D02*
X48250000Y-94320000D01*
G75*
G02*
X48500000Y-94570000I0J-250000D01*
G01*
X48500000Y-95495000D01*
G75*
G02*
X48250000Y-95745000I-250000J0D01*
G01*
X47000000Y-95745000D01*
G75*
G02*
X46750000Y-95495000I0J250000D01*
G01*
X46750000Y-94570000D01*
G75*
G02*
X47000000Y-94320000I250000J0D01*
G01*
G37*
%TD.AperFunction*%
%TD*%
%TO.P,C1,2*%
%TO.N,GNDS*%
%TA.AperFunction,SMDPad,CuDef*%
G36*
G01*
X48250000Y-80505000D02*
X47000000Y-80505000D01*
G75*
G02*
X46750000Y-80255000I0J250000D01*
G01*
X46750000Y-79330000D01*
G75*
G02*
X47000000Y-79080000I250000J0D01*
G01*
X48250000Y-79080000D01*
G75*
G02*
X48500000Y-79330000I0J-250000D01*
G01*
X48500000Y-80255000D01*
G75*
G02*
X48250000Y-80505000I-250000J0D01*
G01*
G37*
%TD.AperFunction*%
%TO.P,C1,1*%
%TO.N,Net-(C1-Pad1)*%
%TA.AperFunction,SMDPad,CuDef*%
G36*
G01*
X48250000Y-83480000D02*
X47000000Y-83480000D01*
G75*
G02*
X46750000Y-83230000I0J250000D01*
G01*
X46750000Y-82305000D01*
G75*
G02*
X47000000Y-82055000I250000J0D01*
G01*
X48250000Y-82055000D01*
G75*
G02*
X48500000Y-82305000I0J-250000D01*
G01*
X48500000Y-83230000D01*
G75*
G02*
X48250000Y-83480000I-250000J0D01*
G01*
G37*
%TD.AperFunction*%
%TD*%
D24*
%TO.P,J4,1*%
%TO.N,/InputBuffer4/SIGNAL_INPUT*%
X60325000Y-71691500D03*
%TO.P,J4,2*%
%TO.N,GNDS*%
X71755000Y-71691500D03*
%TO.P,J4,3*%
X71755000Y-58991500D03*
%TO.P,J4,4*%
X60325000Y-58991500D03*
%TD*%
%TO.P,J3,1*%
%TO.N,/InputBuffer3/SIGNAL_INPUT*%
X80899000Y-71691500D03*
%TO.P,J3,2*%
%TO.N,GNDS*%
X92329000Y-71691500D03*
%TO.P,J3,3*%
X92329000Y-58991500D03*
%TO.P,J3,4*%
X80899000Y-58991500D03*
%TD*%
%TO.P,J2,1*%
%TO.N,/InputBuffer2/SIGNAL_INPUT*%
X101473000Y-71691500D03*
%TO.P,J2,2*%
%TO.N,GNDS*%
X112903000Y-71691500D03*
%TO.P,J2,3*%
X112903000Y-58991500D03*
%TO.P,J2,4*%
X101473000Y-58991500D03*
%TD*%
%TO.P,J1,1*%
%TO.N,/InputBuffer1/SIGNAL_INPUT*%
X122047000Y-71691500D03*
%TO.P,J1,2*%
%TO.N,GNDS*%
X133477000Y-71691500D03*
%TO.P,J1,3*%
X133477000Y-58991500D03*
%TO.P,J1,4*%
X122047000Y-58991500D03*
%TD*%
%TO.P,J6,1*%
%TO.N,/OutputStage/SIGNAL_OUTPUT*%
X59499500Y-129540000D03*
%TO.P,J6,2*%
%TO.N,GNDS*%
X59499500Y-118110000D03*
%TO.P,J6,3*%
X46799500Y-118110000D03*
%TO.P,J6,4*%
X46799500Y-129540000D03*
%TD*%
%TO.P,J5,3*%
%TO.N,N/C*%
%TA.AperFunction,ComponentPad*%
G36*
G01*
X47955000Y-75552000D02*
X47955000Y-73802000D01*
G75*
G02*
X48830000Y-72927000I875000J0D01*
G01*
X50580000Y-72927000D01*
G75*
G02*
X51455000Y-73802000I0J-875000D01*
G01*
X51455000Y-75552000D01*
G75*
G02*
X50580000Y-76427000I-875000J0D01*
G01*
X48830000Y-76427000D01*
G75*
G02*
X47955000Y-75552000I0J875000D01*
G01*
G37*
%TD.AperFunction*%
%TO.P,J5,2*%
%TO.N,/PowerSupply/+9V_IN*%
%TA.AperFunction,ComponentPad*%
G36*
G01*
X45205000Y-70977000D02*
X45205000Y-68977000D01*
G75*
G02*
X45955000Y-68227000I750000J0D01*
G01*
X47455000Y-68227000D01*
G75*
G02*
X48205000Y-68977000I0J-750000D01*
G01*
X48205000Y-70977000D01*
G75*
G02*
X47455000Y-71727000I-750000J0D01*
G01*
X45955000Y-71727000D01*
G75*
G02*
X45205000Y-70977000I0J750000D01*
G01*
G37*
%TD.AperFunction*%
D25*
%TO.P,J5,1*%
%TO.N,GNDS*%
X52705000Y-69977000D03*
%TD*%
D26*
%TO.N,GNDS*%
X53340000Y-90170000D03*
X53340000Y-87630000D03*
X45085000Y-88900000D03*
X50800000Y-85725000D03*
X58420000Y-85725000D03*
X53340000Y-85725000D03*
X55880000Y-85725000D03*
X50800000Y-92075000D03*
X53340000Y-92075000D03*
X55880000Y-92075000D03*
X58420000Y-92075000D03*
X50800000Y-87630000D03*
X55880000Y-87630000D03*
X58420000Y-87630000D03*
X58420000Y-90170000D03*
X55880000Y-90170000D03*
X50800000Y-90170000D03*
X125222000Y-91948000D03*
X132842000Y-91948000D03*
X64389000Y-106426000D03*
X64389000Y-92456000D03*
X63754000Y-91821000D03*
X125857000Y-106553000D03*
X125857000Y-92583000D03*
X73914000Y-105791000D03*
X71374000Y-91186000D03*
X84201000Y-91567000D03*
X84836000Y-93091000D03*
X91821000Y-91567000D03*
X94361000Y-105537000D03*
X95386000Y-100720000D03*
X84836000Y-106045000D03*
X88646000Y-111125000D03*
X116341000Y-100584000D03*
X115316000Y-105410000D03*
X112522000Y-91440000D03*
X105537000Y-93091000D03*
X104902000Y-91440000D03*
X105537000Y-106044996D03*
X109347000Y-111125000D03*
X135509000Y-105283000D03*
X137033000Y-97135990D03*
X116967000Y-97281998D03*
X96012000Y-97282000D03*
X75565000Y-97155000D03*
X136534000Y-100720000D03*
X74939000Y-100593000D03*
X104007000Y-117342000D03*
X92716000Y-122942000D03*
X56388000Y-109347000D03*
X48133000Y-109347000D03*
X55880000Y-112268000D03*
X46736000Y-111252000D03*
X59318000Y-109483000D03*
X58420000Y-100330000D03*
X129667000Y-111125000D03*
X68199000Y-111048800D03*
%TO.N,/OutputStage/SIGNAL_INPUT*%
X62484000Y-113538000D03*
X76200000Y-113538000D03*
X82550000Y-113538000D03*
X106171996Y-115570000D03*
X132080028Y-114046000D03*
X111887004Y-111379008D03*
X111887000Y-114046000D03*
X94615000Y-115570000D03*
X64516000Y-113538000D03*
X132207000Y-111125000D03*
%TO.N,+3V3*%
X94123000Y-124317000D03*
X62239000Y-88256000D03*
X82559000Y-88383000D03*
X103260000Y-88383000D03*
X123707000Y-88383000D03*
X133223000Y-99441000D03*
X130872000Y-104583000D03*
X110428000Y-104583000D03*
X113030000Y-99441000D03*
X92202000Y-99568000D03*
X89854000Y-104583000D03*
X69280000Y-104456000D03*
X71755000Y-99441000D03*
X101225000Y-113792000D03*
X58928000Y-96012008D03*
%TO.N,Net-(C6-Pad2)*%
X125603000Y-120396000D03*
X125594000Y-112150000D03*
X125603000Y-114808000D03*
X125603000Y-122174000D03*
%TO.N,Net-(C12-Pad2)*%
X105283000Y-111506000D03*
X105283000Y-113792000D03*
X106934000Y-122174000D03*
X106934000Y-119634000D03*
%TO.N,Net-(C18-Pad2)*%
X81026000Y-116332000D03*
X81026000Y-120142000D03*
%TO.N,/PeakDetectorMCU/PEAK_OUT_PWM4*%
X78486000Y-116332000D03*
X78486000Y-118363996D03*
%TO.N,/PeakDetectorMCU/PEAK_OUT_PWM3*%
X79756000Y-116332002D03*
X79755996Y-118364000D03*
%TO.N,/PeakDetectorMCU/PEAK_OUT_PWM2*%
X119380000Y-112267998D03*
X119380000Y-114808000D03*
%TO.N,/PeakDetectorMCU/NRST*%
X101092000Y-122682000D03*
X104267000Y-122682004D03*
%TD*%
D27*
%TO.N,GNDS*%
X50800000Y-98007500D02*
X47625000Y-98007500D01*
X47650000Y-88900000D02*
X45085000Y-88900000D01*
X45085000Y-79792500D02*
X50800000Y-79792500D01*
X45085000Y-88900000D02*
X45085000Y-79792500D01*
X45085000Y-98007500D02*
X47625000Y-98007500D01*
X45085000Y-88900000D02*
X45085000Y-98007500D01*
X47650000Y-88900000D02*
X53950000Y-88900000D01*
D28*
X86997000Y-90812000D02*
X85605000Y-90812000D01*
X85226000Y-90433000D02*
X84201000Y-90433000D01*
X85605000Y-90812000D02*
X85226000Y-90433000D01*
X107762000Y-90758000D02*
X106252000Y-90758000D01*
X105927000Y-90433000D02*
X104902000Y-90433000D01*
X106252000Y-90758000D02*
X105927000Y-90433000D01*
X128082000Y-90758000D02*
X126572000Y-90758000D01*
X126247000Y-90433000D02*
X125222000Y-90433000D01*
X126572000Y-90758000D02*
X126247000Y-90433000D01*
X125222000Y-90433000D02*
X125222000Y-91948000D01*
X132842000Y-90433000D02*
X132842000Y-91948000D01*
X64389000Y-104456000D02*
X64389000Y-106426000D01*
X64389000Y-93971000D02*
X64389000Y-92456000D01*
X63754000Y-90306000D02*
X63754000Y-91821000D01*
X66614000Y-90631000D02*
X65104000Y-90631000D01*
X64779000Y-90306000D02*
X63754000Y-90306000D01*
X65104000Y-90631000D02*
X64779000Y-90306000D01*
X125857000Y-104583000D02*
X125857000Y-106553000D01*
X125857000Y-94098000D02*
X125857000Y-92583000D01*
X73914000Y-104319000D02*
X73914000Y-105791000D01*
X71374000Y-90306000D02*
X71374000Y-91186000D01*
X84201000Y-90433000D02*
X84201000Y-91567000D01*
X84836000Y-94098000D02*
X84836000Y-93091000D01*
X91821000Y-90433000D02*
X91821000Y-91567000D01*
X94361000Y-104478000D02*
X94361000Y-105537000D01*
X95386000Y-99568000D02*
X95386000Y-100720000D01*
X84836000Y-104583000D02*
X84836000Y-106045000D01*
X88646000Y-110118000D02*
X88646000Y-111125000D01*
X116341000Y-99441000D02*
X116341000Y-100584000D01*
X115316000Y-104351000D02*
X115316000Y-105410000D01*
X112522000Y-90433000D02*
X112522000Y-91440000D01*
X105537000Y-94098000D02*
X105537000Y-93091000D01*
X104902000Y-90433000D02*
X104902000Y-91440000D01*
X105537000Y-104583000D02*
X105537000Y-106044996D01*
X109347000Y-110118000D02*
X109347000Y-111125000D01*
X135509000Y-104351000D02*
X135509000Y-105283000D01*
X137033000Y-96148000D02*
X137033000Y-97135990D01*
X116967000Y-96148000D02*
X116967000Y-97281998D01*
X96012000Y-96148000D02*
X96012000Y-97282000D01*
X75565000Y-96021000D02*
X75565000Y-97155000D01*
X136534000Y-99441000D02*
X136534000Y-100720000D01*
X74939000Y-99441000D02*
X74939000Y-100593000D01*
X102600000Y-117342000D02*
X102600000Y-118142000D01*
X102600000Y-117342000D02*
X104007000Y-117342000D01*
X94250000Y-122942000D02*
X92716000Y-122942000D01*
X50993000Y-108157000D02*
X50118000Y-108157000D01*
X49793000Y-107832000D02*
X48133000Y-107832000D01*
X50118000Y-108157000D02*
X49793000Y-107832000D01*
X56388000Y-107832000D02*
X56388000Y-109347000D01*
X48133000Y-107832000D02*
X48133000Y-109347000D01*
X54418000Y-112268000D02*
X55880000Y-112268000D01*
X46736000Y-112767000D02*
X46736000Y-111252000D01*
X59318000Y-110998000D02*
X59318000Y-109483000D01*
X56388000Y-100330000D02*
X58420000Y-100330000D01*
X129667000Y-110118000D02*
X129667000Y-111125000D01*
X68199000Y-109991000D02*
X68199000Y-111048800D01*
D27*
%TO.N,/PowerSupply/+9V_IN*%
X46736000Y-70389000D02*
X46705000Y-70358000D01*
X56515000Y-79880000D02*
X53975000Y-79880000D01*
X56515000Y-66040000D02*
X56515000Y-79880000D01*
X46990000Y-66040000D02*
X56515000Y-66040000D01*
X46705000Y-66325000D02*
X46990000Y-66040000D01*
X46705000Y-69977000D02*
X46705000Y-66325000D01*
D28*
%TO.N,/OutputStage/SIGNAL_OUTPUT*%
X59318000Y-113538000D02*
X59318000Y-114672000D01*
X59182000Y-114808000D02*
X54418000Y-114808000D01*
X59318000Y-114672000D02*
X59182000Y-114808000D01*
X59499500Y-125539500D02*
X59499500Y-129540000D01*
X54418000Y-120458000D02*
X59499500Y-125539500D01*
X54418000Y-114808000D02*
X54418000Y-120458000D01*
%TO.N,/OutputStage/SIGNAL_INPUT*%
X54418000Y-113538000D02*
X57268000Y-113538000D01*
X73660000Y-113538000D02*
X76200000Y-113538000D01*
X91186000Y-113538000D02*
X91186000Y-110118000D01*
X82550000Y-113538000D02*
X91186000Y-113538000D01*
X114300000Y-114046000D02*
X132080028Y-114046000D01*
X112776000Y-115570000D02*
X114300000Y-114046000D01*
X106171996Y-115570000D02*
X112014000Y-115570000D01*
X112014000Y-115570000D02*
X112776000Y-115570000D01*
X111887000Y-111379004D02*
X111887004Y-111379008D01*
X111887000Y-110118000D02*
X111887000Y-111379004D01*
X111887000Y-115443000D02*
X112014000Y-115570000D01*
X111887000Y-114046000D02*
X111887000Y-115443000D01*
X92583000Y-113538000D02*
X94615000Y-115570000D01*
X91186000Y-113538000D02*
X92583000Y-113538000D01*
X70739000Y-113411000D02*
X70866000Y-113538000D01*
X70739000Y-109991000D02*
X70739000Y-113411000D01*
X70866000Y-113538000D02*
X73660000Y-113538000D01*
X70866000Y-113538000D02*
X64516000Y-113538000D01*
X132207000Y-110118000D02*
X132207000Y-111125000D01*
X60198000Y-112268000D02*
X61468000Y-113538000D01*
X57513000Y-112268000D02*
X60198000Y-112268000D01*
X57268000Y-112513000D02*
X57513000Y-112268000D01*
X61468000Y-113538000D02*
X62484000Y-113538000D01*
X57268000Y-113538000D02*
X57268000Y-112513000D01*
%TO.N,Net-(R6-Pad2)*%
X134797800Y-79425800D02*
X127533400Y-79425800D01*
X134874000Y-92710000D02*
X136144000Y-91440000D01*
X136144000Y-91440000D02*
X136144000Y-80772000D01*
X132207000Y-92710000D02*
X134874000Y-92710000D01*
X136144000Y-80772000D02*
X134797800Y-79425800D01*
X132207000Y-94098000D02*
X132207000Y-92710000D01*
%TO.N,Net-(R10-Pad2)*%
X109347000Y-96148000D02*
X109347000Y-99633000D01*
X108077000Y-99633000D02*
X109347000Y-99633000D01*
%TO.N,Net-(R13-Pad2)*%
X114352000Y-96200000D02*
X114427000Y-96275000D01*
X114366000Y-104351000D02*
X114366000Y-103566000D01*
X114366000Y-103566000D02*
X114681000Y-103251000D01*
X116266000Y-102151000D02*
X116266000Y-102936000D01*
X115951000Y-103251000D02*
X114681000Y-103251000D01*
X116266000Y-102936000D02*
X115951000Y-103251000D01*
X117391000Y-102151000D02*
X116266000Y-102151000D01*
X117602000Y-101940000D02*
X117391000Y-102151000D01*
X117602000Y-98204040D02*
X117602000Y-101940000D01*
X117441960Y-98044000D02*
X117602000Y-98204040D01*
X114808000Y-98044000D02*
X117441960Y-98044000D01*
X114554000Y-97790000D02*
X114808000Y-98044000D01*
X114554000Y-96148000D02*
X114554000Y-97790000D01*
%TO.N,Net-(R14-Pad2)*%
X93397000Y-96073000D02*
X93472000Y-96148000D01*
X95311000Y-102903000D02*
X95311000Y-102278000D01*
X94836000Y-103378000D02*
X95311000Y-102903000D01*
X93726000Y-103378000D02*
X94836000Y-103378000D01*
X93411000Y-103693000D02*
X93726000Y-103378000D01*
X93411000Y-104478000D02*
X93411000Y-103693000D01*
X96774000Y-98044000D02*
X96774000Y-102278000D01*
X93472000Y-98044000D02*
X96774000Y-98044000D01*
X96774000Y-102278000D02*
X95311000Y-102278000D01*
X93472000Y-96148000D02*
X93472000Y-98044000D01*
%TO.N,Net-(R16-Pad2)*%
X93853000Y-92583000D02*
X95504000Y-90932000D01*
X91186000Y-92583000D02*
X93853000Y-92583000D01*
X91186000Y-94098000D02*
X91186000Y-92583000D01*
X95504000Y-90932000D02*
X95504000Y-82550000D01*
X92379800Y-79425800D02*
X86360000Y-79425800D01*
X95504000Y-82550000D02*
X92379800Y-79425800D01*
%TO.N,Net-(R18-Pad2)*%
X134559000Y-103566000D02*
X134559000Y-104351000D01*
X134874000Y-103251000D02*
X134559000Y-103566000D01*
X136459000Y-102936000D02*
X136144000Y-103251000D01*
X136144000Y-103251000D02*
X134874000Y-103251000D01*
X136459000Y-102151000D02*
X136459000Y-102936000D01*
X134418000Y-96073000D02*
X134493000Y-96148000D01*
X136459000Y-102151000D02*
X137879000Y-102151000D01*
X134493000Y-96148000D02*
X134493000Y-97663000D01*
X134493000Y-97663000D02*
X134620000Y-97790000D01*
X134620000Y-97790000D02*
X137922000Y-97790000D01*
X137922000Y-102108000D02*
X137879000Y-102151000D01*
X137922000Y-97790000D02*
X137922000Y-102108000D01*
%TO.N,Net-(R20-Pad2)*%
X68199000Y-99506000D02*
X66929000Y-99506000D01*
X68199000Y-96021000D02*
X68199000Y-99506000D01*
%TO.N,Net-(C3-Pad1)*%
X128082000Y-85038000D02*
X128007000Y-84963000D01*
X128082000Y-88058000D02*
X128082000Y-85038000D01*
%TO.N,+3V3*%
X87947000Y-88112000D02*
X87947000Y-88837000D01*
X87947000Y-88837000D02*
X87376000Y-89408000D01*
X85226000Y-89408000D02*
X84201000Y-88383000D01*
X87376000Y-89408000D02*
X85226000Y-89408000D01*
X105782000Y-88383000D02*
X104902000Y-88383000D01*
X106807000Y-89408000D02*
X105782000Y-88383000D01*
X108712000Y-88773000D02*
X108077000Y-89408000D01*
X108077000Y-89408000D02*
X106807000Y-89408000D01*
X108712000Y-88058000D02*
X108712000Y-88773000D01*
X127127000Y-89408000D02*
X126102000Y-88383000D01*
X128397000Y-89408000D02*
X127127000Y-89408000D01*
X126102000Y-88383000D02*
X125222000Y-88383000D01*
X129032000Y-88773000D02*
X128397000Y-89408000D01*
X129032000Y-88058000D02*
X129032000Y-88773000D01*
X68199000Y-104456000D02*
X68199000Y-107941000D01*
X88646000Y-108068000D02*
X88646000Y-104583000D01*
X64779000Y-89281000D02*
X63754000Y-88256000D01*
X67056000Y-89281000D02*
X64779000Y-89281000D01*
X67564000Y-88773000D02*
X67056000Y-89281000D01*
X67564000Y-87931000D02*
X67564000Y-88773000D01*
X109347000Y-108068000D02*
X109347000Y-104583000D01*
X129667000Y-104583000D02*
X129667000Y-108068000D01*
X72964000Y-99516000D02*
X72889000Y-99441000D01*
X72964000Y-102119000D02*
X72964000Y-99516000D01*
X93411000Y-99643000D02*
X93336000Y-99568000D01*
X93411000Y-102278000D02*
X93411000Y-99643000D01*
X114366000Y-99516000D02*
X114291000Y-99441000D01*
X114366000Y-102151000D02*
X114366000Y-99516000D01*
X134559000Y-99516000D02*
X134484000Y-99441000D01*
X134559000Y-102151000D02*
X134559000Y-99516000D01*
X95625000Y-124317000D02*
X95625000Y-121545000D01*
X98025000Y-119145000D02*
X98025000Y-115967000D01*
X95625000Y-121545000D02*
X98025000Y-119145000D01*
X95625000Y-124317000D02*
X94123000Y-124317000D01*
X63754000Y-88256000D02*
X62239000Y-88256000D01*
X84201000Y-88383000D02*
X82559000Y-88383000D01*
X104902000Y-88383000D02*
X103260000Y-88383000D01*
X125222000Y-88383000D02*
X123707000Y-88383000D01*
X134484000Y-99441000D02*
X133223000Y-99441000D01*
X129667000Y-104583000D02*
X130872000Y-104583000D01*
X109347000Y-104583000D02*
X110428000Y-104583000D01*
X114291000Y-99441000D02*
X113030000Y-99441000D01*
X93336000Y-99568000D02*
X92202000Y-99568000D01*
X88646000Y-104583000D02*
X89854000Y-104583000D01*
X68199000Y-104456000D02*
X69280000Y-104456000D01*
X72889000Y-99441000D02*
X71755000Y-99441000D01*
X49468000Y-114808000D02*
X46618000Y-114808000D01*
X49013000Y-105782000D02*
X48133000Y-105782000D01*
X51308000Y-106807000D02*
X50038000Y-106807000D01*
X50038000Y-106807000D02*
X49013000Y-105782000D01*
X51943000Y-106172000D02*
X51308000Y-106807000D01*
X51943000Y-105457000D02*
X51943000Y-106172000D01*
X46618000Y-105782000D02*
X48133000Y-105782000D01*
X45212000Y-107188000D02*
X46618000Y-105782000D01*
X45212000Y-114808000D02*
X45212000Y-107188000D01*
X45221000Y-114817000D02*
X45212000Y-114808000D01*
X46736000Y-114817000D02*
X45221000Y-114817000D01*
X53340000Y-99568000D02*
X49022000Y-99568000D01*
X49022000Y-99568000D02*
X48133000Y-100457000D01*
X98025000Y-114319000D02*
X98552000Y-113792000D01*
X101225000Y-115967000D02*
X101225000Y-113792000D01*
X98025000Y-115967000D02*
X98025000Y-114319000D01*
X98552000Y-113792000D02*
X101225000Y-113792000D01*
X48006000Y-101600000D02*
X48133000Y-101727000D01*
X45720000Y-101600000D02*
X48006000Y-101600000D01*
X48133000Y-101727000D02*
X48133000Y-105782000D01*
X48133000Y-100457000D02*
X48133000Y-101727000D01*
X54864000Y-98044000D02*
X53340000Y-99568000D01*
X54864000Y-96408000D02*
X54864000Y-98044000D01*
X56896000Y-98044000D02*
X58927992Y-96012008D01*
X54864000Y-98044000D02*
X56896000Y-98044000D01*
X58927992Y-96012008D02*
X58928000Y-96012008D01*
%TO.N,Net-(C6-Pad2)*%
X130937000Y-94098000D02*
X129667000Y-94098000D01*
X128397000Y-101473000D02*
X130937000Y-101473000D01*
X130937000Y-101473000D02*
X130937000Y-94098000D01*
X127127000Y-102743000D02*
X128397000Y-101473000D01*
X127127000Y-104583000D02*
X127127000Y-102743000D01*
X127127000Y-104583000D02*
X127127000Y-108068000D01*
X127508000Y-137896600D02*
X127533400Y-137922000D01*
X127127000Y-108068000D02*
X125594000Y-108068000D01*
X125594000Y-108068000D02*
X125476000Y-108186000D01*
X125594000Y-108068000D02*
X125594000Y-112150000D01*
X125603000Y-120396000D02*
X125603000Y-114808000D01*
X127533400Y-124104400D02*
X125603000Y-122174000D01*
X127533400Y-137922000D02*
X127533400Y-124104400D01*
%TO.N,Net-(C12-Pad2)*%
X106807000Y-104583000D02*
X106807000Y-108068000D01*
X110617000Y-94098000D02*
X109347000Y-94098000D01*
X110617000Y-101473000D02*
X110617000Y-94098000D01*
X108077000Y-101473000D02*
X110617000Y-101473000D01*
X106807000Y-102743000D02*
X108077000Y-101473000D01*
X106807000Y-104583000D02*
X106807000Y-102743000D01*
X105274000Y-108068000D02*
X105274000Y-111506000D01*
X106807000Y-108068000D02*
X105274000Y-108068000D01*
X105274000Y-111506000D02*
X105283000Y-111506000D01*
X105283000Y-117983000D02*
X106934000Y-119634000D01*
X105283000Y-113792000D02*
X105283000Y-117983000D01*
X108966000Y-124206000D02*
X106934000Y-122174000D01*
X108966000Y-135890000D02*
X108966000Y-124206000D01*
X106934000Y-137922000D02*
X108966000Y-135890000D01*
%TO.N,Net-(C15-Pad1)*%
X66614000Y-85546000D02*
X66539000Y-85471000D01*
X66614000Y-87931000D02*
X66614000Y-85546000D01*
%TO.N,Net-(C18-Pad2)*%
X86106000Y-104583000D02*
X86106000Y-108068000D01*
X86106000Y-102743000D02*
X86106000Y-104583000D01*
X88646000Y-94098000D02*
X89671000Y-94098000D01*
X87376000Y-101473000D02*
X86106000Y-102743000D01*
X89916000Y-101473000D02*
X87376000Y-101473000D01*
X89916000Y-94343000D02*
X89916000Y-101473000D01*
X89671000Y-94098000D02*
X89916000Y-94343000D01*
X81026000Y-108204000D02*
X81026000Y-116332000D01*
X81162000Y-108068000D02*
X81026000Y-108204000D01*
X86106000Y-108068000D02*
X81162000Y-108068000D01*
X87122000Y-126238000D02*
X81026000Y-120142000D01*
X87122000Y-137160000D02*
X87122000Y-126238000D01*
X86360000Y-137922000D02*
X87122000Y-137160000D01*
%TO.N,Net-(C24-Pad2)*%
X65659000Y-107941000D02*
X65659000Y-104456000D01*
X69469000Y-93971000D02*
X68199000Y-93971000D01*
X66929000Y-101346000D02*
X69469000Y-101346000D01*
X69469000Y-101346000D02*
X69469000Y-93971000D01*
X65659000Y-102616000D02*
X66929000Y-101346000D01*
X65659000Y-104456000D02*
X65659000Y-102616000D01*
X63500000Y-107950000D02*
X63500000Y-115824000D01*
X66929000Y-136804400D02*
X65811400Y-137922000D01*
X66929000Y-119253000D02*
X66929000Y-136804400D01*
X63500000Y-115824000D02*
X66929000Y-119253000D01*
X65650000Y-107950000D02*
X63500000Y-107950000D01*
X65659000Y-107941000D02*
X65650000Y-107950000D01*
%TO.N,/InputBuffer1/SIGNAL_INPUT*%
X127127000Y-99633000D02*
X127127000Y-100838000D01*
X127127000Y-100838000D02*
X125857000Y-102108000D01*
X125857000Y-102108000D02*
X123952000Y-102108000D01*
X123952000Y-102108000D02*
X124587000Y-102108000D01*
X122047000Y-100203000D02*
X123952000Y-102108000D01*
X122047000Y-71691500D02*
X122047000Y-100203000D01*
%TO.N,Net-(R5-Pad2)*%
X128397000Y-99633000D02*
X129667000Y-99633000D01*
X129667000Y-96148000D02*
X129667000Y-99633000D01*
%TO.N,Net-(R11-Pad2)*%
X111887000Y-92837000D02*
X111887000Y-94098000D01*
X112014000Y-92710000D02*
X111887000Y-92837000D01*
X106934000Y-79425800D02*
X113461800Y-79425800D01*
X115570000Y-81534000D02*
X115570000Y-91694000D01*
X114554000Y-92710000D02*
X112014000Y-92710000D01*
X115570000Y-91694000D02*
X114554000Y-92710000D01*
X113461800Y-79425800D02*
X115570000Y-81534000D01*
%TO.N,Net-(R15-Pad2)*%
X87376000Y-99633000D02*
X88646000Y-99633000D01*
X88646000Y-99633000D02*
X88646000Y-96148000D01*
%TO.N,Net-(R17-Pad2)*%
X72950000Y-95946000D02*
X73025000Y-96021000D01*
X74549000Y-103251000D02*
X74864000Y-102936000D01*
X73909000Y-103256000D02*
X73914000Y-103251000D01*
X73914000Y-103251000D02*
X74549000Y-103251000D01*
X73279000Y-103256000D02*
X73909000Y-103256000D01*
X72964000Y-103571000D02*
X73279000Y-103256000D01*
X74864000Y-102936000D02*
X74864000Y-102119000D01*
X72964000Y-104319000D02*
X72964000Y-103571000D01*
X76189000Y-102119000D02*
X74864000Y-102119000D01*
X76200000Y-102108000D02*
X76189000Y-102119000D01*
X73025000Y-96021000D02*
X73025000Y-97917000D01*
X76200000Y-98044000D02*
X76200000Y-102108000D01*
X73152000Y-98044000D02*
X76200000Y-98044000D01*
X73025000Y-97917000D02*
X73152000Y-98044000D01*
%TO.N,Net-(R21-Pad2)*%
X73406000Y-92456000D02*
X74676000Y-91186000D01*
X70739000Y-92456000D02*
X73406000Y-92456000D01*
X70739000Y-93971000D02*
X70739000Y-92456000D01*
X74676000Y-91186000D02*
X74676000Y-81280000D01*
X72821800Y-79425800D02*
X65811400Y-79425800D01*
X74676000Y-81280000D02*
X72821800Y-79425800D01*
%TO.N,/InputBuffer2/SIGNAL_INPUT*%
X106807000Y-99633000D02*
X106807000Y-100838000D01*
X106807000Y-100838000D02*
X105537000Y-102108000D01*
X105537000Y-102108000D02*
X103632000Y-102108000D01*
X101473000Y-99949000D02*
X103632000Y-102108000D01*
X101473000Y-71691500D02*
X101473000Y-99949000D01*
%TO.N,/InputBuffer3/SIGNAL_INPUT*%
X86106000Y-100838000D02*
X86106000Y-99633000D01*
X84836000Y-102108000D02*
X86106000Y-100838000D01*
X82804000Y-102108000D02*
X84836000Y-102108000D01*
X80899000Y-100203000D02*
X82804000Y-102108000D01*
X80899000Y-71691500D02*
X80899000Y-100203000D01*
%TO.N,/InputBuffer4/SIGNAL_INPUT*%
X60325000Y-100457000D02*
X61849000Y-101981000D01*
X65659000Y-100711000D02*
X65659000Y-99506000D01*
X64389000Y-101981000D02*
X65659000Y-100711000D01*
X61849000Y-101981000D02*
X64389000Y-101981000D01*
X60325000Y-71691500D02*
X60325000Y-100457000D01*
D27*
%TO.N,Net-(C1-Pad1)*%
X47712500Y-82680000D02*
X47625000Y-82767500D01*
X53975000Y-82680000D02*
X47712500Y-82680000D01*
X47625000Y-86575000D02*
X47650000Y-86600000D01*
X47625000Y-82767500D02*
X47625000Y-86575000D01*
%TO.N,Net-(C2-Pad1)*%
X47625000Y-95032500D02*
X50800000Y-95032500D01*
X47625000Y-91225000D02*
X47650000Y-91200000D01*
X47625000Y-95032500D02*
X47625000Y-91225000D01*
X50875500Y-95108000D02*
X54864000Y-95108000D01*
X50800000Y-95032500D02*
X50875500Y-95108000D01*
D28*
%TO.N,Net-(C3-Pad2)*%
X130857000Y-86271000D02*
X130184000Y-85598000D01*
X130857000Y-90758000D02*
X130857000Y-86271000D01*
X129982000Y-90758000D02*
X130857000Y-90758000D01*
%TO.N,/InputBuffer1/NEG3VIN*%
X129032000Y-90043000D02*
X129032000Y-92583000D01*
X129982000Y-89093000D02*
X129032000Y-90043000D01*
X129982000Y-88058000D02*
X129982000Y-89093000D01*
X125857000Y-99633000D02*
X125857000Y-96148000D01*
X125857000Y-96148000D02*
X127372000Y-96148000D01*
X127372000Y-96148000D02*
X127762000Y-95758000D01*
X127762000Y-95758000D02*
X127762000Y-92583000D01*
X127762000Y-92583000D02*
X129032000Y-92583000D01*
X131572000Y-88383000D02*
X132842000Y-88383000D01*
X131572000Y-91821000D02*
X131572000Y-88383000D01*
X130810000Y-92583000D02*
X131572000Y-91821000D01*
X129032000Y-92583000D02*
X130810000Y-92583000D01*
X125795000Y-99695000D02*
X125857000Y-99633000D01*
X123825000Y-99695000D02*
X125795000Y-99695000D01*
%TO.N,/PEAK_IN_BUF1*%
X136459000Y-104351000D02*
X136459000Y-106111000D01*
X132207000Y-101473000D02*
X132207000Y-108068000D01*
X132207000Y-96148000D02*
X132207000Y-101473000D01*
X128397000Y-102743000D02*
X132207000Y-102743000D01*
X128397000Y-104583000D02*
X128397000Y-102743000D01*
X128007000Y-110118000D02*
X127127000Y-110118000D01*
X128397000Y-109728000D02*
X128007000Y-110118000D01*
X128397000Y-104583000D02*
X128397000Y-109728000D01*
X132207000Y-108068000D02*
X135010000Y-108068000D01*
X136459000Y-106619000D02*
X136459000Y-106111000D01*
X135010000Y-108068000D02*
X136459000Y-106619000D01*
%TO.N,Net-(C8-Pad2)*%
X110617000Y-86478000D02*
X109737000Y-85598000D01*
X110617000Y-90678000D02*
X110617000Y-86478000D01*
X110537000Y-90758000D02*
X110617000Y-90678000D01*
X109662000Y-90758000D02*
X110537000Y-90758000D01*
%TO.N,Net-(C8-Pad1)*%
X107762000Y-85038000D02*
X107687000Y-84963000D01*
X107762000Y-88058000D02*
X107762000Y-85038000D01*
%TO.N,/InputBuffer2/NEG3VIN*%
X108712000Y-90043000D02*
X108712000Y-92583000D01*
X109662000Y-89093000D02*
X108712000Y-90043000D01*
X109662000Y-88058000D02*
X109662000Y-89093000D01*
X105537000Y-99633000D02*
X105537000Y-96148000D01*
X105537000Y-96148000D02*
X107197000Y-96148000D01*
X107197000Y-96148000D02*
X107442000Y-95903000D01*
X107442000Y-95903000D02*
X107442000Y-92583000D01*
X107442000Y-92583000D02*
X108712000Y-92583000D01*
X111252000Y-91948000D02*
X111252000Y-88383000D01*
X111252000Y-88383000D02*
X112522000Y-88383000D01*
X110617000Y-92583000D02*
X111252000Y-91948000D01*
X108712000Y-92583000D02*
X110617000Y-92583000D01*
X105475000Y-99695000D02*
X105537000Y-99633000D01*
X103505000Y-99695000D02*
X105475000Y-99695000D01*
%TO.N,/PEAK_IN_BUF2*%
X111887000Y-108068000D02*
X111887000Y-102743000D01*
X111887000Y-102743000D02*
X108077000Y-102743000D01*
X108077000Y-102743000D02*
X108077000Y-104583000D01*
X111887000Y-102743000D02*
X111887000Y-96148000D01*
X108077000Y-110118000D02*
X106807000Y-110118000D01*
X108077000Y-104583000D02*
X108077000Y-110118000D01*
X111887000Y-108068000D02*
X114817000Y-108068000D01*
X116266000Y-106619000D02*
X116266000Y-104351000D01*
X114817000Y-108068000D02*
X116266000Y-106619000D01*
%TO.N,Net-(C13-Pad2)*%
X89782000Y-86344000D02*
X89036000Y-85598000D01*
X89782000Y-90812000D02*
X89782000Y-86344000D01*
X88897000Y-90812000D02*
X89782000Y-90812000D01*
%TO.N,Net-(C13-Pad1)*%
X86997000Y-84974000D02*
X86986000Y-84963000D01*
X86997000Y-88112000D02*
X86997000Y-84974000D01*
%TO.N,/InputBuffer3/NEG3VIN*%
X88011000Y-90043000D02*
X88011000Y-92583000D01*
X88897000Y-89157000D02*
X88011000Y-90043000D01*
X88897000Y-88112000D02*
X88897000Y-89157000D01*
X84836000Y-96148000D02*
X84836000Y-99633000D01*
X86741000Y-96148000D02*
X84836000Y-96148000D01*
X86741000Y-92583000D02*
X86741000Y-96148000D01*
X88011000Y-92583000D02*
X86741000Y-92583000D01*
X90551000Y-91948000D02*
X90551000Y-88383000D01*
X89916000Y-92583000D02*
X90551000Y-91948000D01*
X90551000Y-88383000D02*
X91821000Y-88383000D01*
X88011000Y-92583000D02*
X89916000Y-92583000D01*
X84774000Y-99695000D02*
X84836000Y-99633000D01*
X82550000Y-99695000D02*
X84774000Y-99695000D01*
%TO.N,Net-(C15-Pad2)*%
X69422000Y-86304000D02*
X68589000Y-85471000D01*
X69422000Y-90631000D02*
X69422000Y-86304000D01*
X68589000Y-85471000D02*
X68589000Y-85861000D01*
X68514000Y-90631000D02*
X69422000Y-90631000D01*
%TO.N,/PEAK_IN_BUF3*%
X87376000Y-110118000D02*
X86106000Y-110118000D01*
X87376000Y-104583000D02*
X87376000Y-110118000D01*
X87376000Y-104583000D02*
X87376000Y-102743000D01*
X87376000Y-102743000D02*
X91186000Y-102743000D01*
X91186000Y-102743000D02*
X91186000Y-108068000D01*
X91186000Y-102743000D02*
X91186000Y-96148000D01*
X91186000Y-108068000D02*
X94116000Y-108068000D01*
X95311000Y-106873000D02*
X95311000Y-104478000D01*
X94116000Y-108068000D02*
X95311000Y-106873000D01*
%TO.N,/InputBuffer4/NEG3VIN*%
X64389000Y-99506000D02*
X64389000Y-96021000D01*
X68514000Y-88839000D02*
X67564000Y-89789000D01*
X68514000Y-87931000D02*
X68514000Y-88839000D01*
X67564000Y-89789000D02*
X67564000Y-92456000D01*
X66294000Y-96021000D02*
X64389000Y-96021000D01*
X67564000Y-92456000D02*
X66294000Y-92456000D01*
X66294000Y-92456000D02*
X66294000Y-96021000D01*
X70104000Y-91821000D02*
X69469000Y-92456000D01*
X70104000Y-88501000D02*
X70104000Y-91821000D01*
X69469000Y-92456000D02*
X67564000Y-92456000D01*
X70349000Y-88256000D02*
X70104000Y-88501000D01*
X71374000Y-88256000D02*
X70349000Y-88256000D01*
X64253000Y-95885000D02*
X64389000Y-96021000D01*
X64327000Y-99568000D02*
X64389000Y-99506000D01*
X62230000Y-99568000D02*
X64327000Y-99568000D01*
%TO.N,/PEAK_IN_BUF4*%
X66929000Y-109991000D02*
X65659000Y-109991000D01*
X66929000Y-104456000D02*
X66929000Y-109991000D01*
X66929000Y-102616000D02*
X66929000Y-104456000D01*
X70739000Y-102616000D02*
X66929000Y-102616000D01*
X70739000Y-96021000D02*
X70739000Y-102616000D01*
X70739000Y-107941000D02*
X70739000Y-102616000D01*
X74864000Y-107236000D02*
X74159000Y-107941000D01*
X74864000Y-104319000D02*
X74864000Y-107236000D01*
X70739000Y-107941000D02*
X74159000Y-107941000D01*
%TO.N,/OutputStage/NEG3VIN*%
X54418000Y-110998000D02*
X57268000Y-110998000D01*
X51943000Y-107442000D02*
X52893000Y-106492000D01*
X52893000Y-106492000D02*
X52893000Y-105457000D01*
X54864000Y-109601000D02*
X51943000Y-109601000D01*
X55363000Y-105782000D02*
X54864000Y-106281000D01*
X54864000Y-106281000D02*
X54864000Y-109601000D01*
X56388000Y-105782000D02*
X55363000Y-105782000D01*
X51943000Y-109474000D02*
X51943000Y-107442000D01*
X51943000Y-109601000D02*
X51943000Y-109474000D01*
X51943000Y-110744000D02*
X51943000Y-108585000D01*
X52197000Y-110998000D02*
X51943000Y-110744000D01*
X54418000Y-110998000D02*
X52197000Y-110998000D01*
X56388000Y-103378000D02*
X56388000Y-105782000D01*
%TO.N,/PeakDetectorMCU/PEAK_IN_ADC2*%
X114554000Y-94098000D02*
X116967000Y-94098000D01*
X97155000Y-112395000D02*
X96425000Y-113125000D01*
X118364000Y-110236000D02*
X116205000Y-112395000D01*
X118364000Y-94216000D02*
X118364000Y-110236000D01*
X96425000Y-113125000D02*
X96425000Y-115967000D01*
X116967000Y-94098000D02*
X118246000Y-94098000D01*
X118246000Y-94098000D02*
X118364000Y-94216000D01*
X115316000Y-112268000D02*
X115443000Y-112395000D01*
X115443000Y-112395000D02*
X97155000Y-112395000D01*
X115316000Y-110744000D02*
X115316000Y-112268000D01*
X116205000Y-112395000D02*
X115443000Y-112395000D01*
%TO.N,/PeakDetectorMCU/PEAK_IN_ADC3*%
X93472000Y-94098000D02*
X96012000Y-94098000D01*
X97790000Y-94470000D02*
X97418000Y-94098000D01*
X97790000Y-108585000D02*
X97790000Y-94470000D01*
X95625000Y-110750000D02*
X97790000Y-108585000D01*
X97418000Y-94098000D02*
X96012000Y-94098000D01*
X95625000Y-115967000D02*
X95625000Y-110750000D01*
X95619000Y-110744000D02*
X95625000Y-110750000D01*
X93980000Y-110744000D02*
X95619000Y-110744000D01*
%TO.N,/PeakDetectorMCU/PEAK_IN_ADC4*%
X73025000Y-93971000D02*
X75565000Y-93971000D01*
X76962000Y-93980000D02*
X76953000Y-93971000D01*
X76953000Y-93971000D02*
X75565000Y-93971000D01*
X77216000Y-93980000D02*
X76962000Y-93980000D01*
X77724000Y-117348000D02*
X77216000Y-116840000D01*
X94244000Y-117348000D02*
X77724000Y-117348000D01*
X94250000Y-117342000D02*
X94244000Y-117348000D01*
X75184000Y-110744000D02*
X77216000Y-110744000D01*
X77216000Y-110744000D02*
X77216000Y-93980000D01*
X77216000Y-116840000D02*
X77216000Y-110744000D01*
%TO.N,/PeakDetectorMCU/PEAK_IN_ADC1*%
X134493000Y-94098000D02*
X137033000Y-94098000D01*
X138566000Y-94098000D02*
X137033000Y-94098000D01*
X138938000Y-94470000D02*
X138566000Y-94098000D01*
X138938000Y-111887000D02*
X138938000Y-94470000D01*
X97225000Y-115967000D02*
X97225000Y-113722000D01*
X137668000Y-113157000D02*
X138938000Y-111887000D01*
X97225000Y-113722000D02*
X97790000Y-113157000D01*
X136017000Y-113157000D02*
X137668000Y-113157000D01*
X97790000Y-113157000D02*
X136017000Y-113157000D01*
X135636000Y-113030000D02*
X135509000Y-113157000D01*
X135509000Y-113157000D02*
X136017000Y-113157000D01*
X135636000Y-111252000D02*
X135636000Y-113030000D01*
%TO.N,Net-(C39-Pad2)*%
X52973000Y-108077000D02*
X52893000Y-108157000D01*
X54102000Y-108077000D02*
X52973000Y-108077000D01*
X54102000Y-101727000D02*
X54102000Y-108077000D01*
X52968000Y-101727000D02*
X54102000Y-101727000D01*
%TO.N,Net-(C39-Pad1)*%
X50993000Y-101802000D02*
X50918000Y-101727000D01*
X50993000Y-105457000D02*
X50993000Y-101802000D01*
%TO.N,/PeakDetectorMCU/PEAK_OUT_PWM4*%
X78486000Y-82804000D02*
X78486000Y-116332000D01*
X67564000Y-71882000D02*
X78486000Y-82804000D01*
X67564000Y-65278000D02*
X67564000Y-71882000D01*
X79248004Y-119126000D02*
X78486000Y-118363996D01*
X89916000Y-119126000D02*
X79248004Y-119126000D01*
X92932000Y-122142000D02*
X89916000Y-119126000D01*
X94250000Y-122142000D02*
X92932000Y-122142000D01*
X61976000Y-77470000D02*
X67564000Y-71882000D01*
X61976000Y-78232000D02*
X61976000Y-77470000D01*
%TO.N,/PeakDetectorMCU/PEAK_OUT_PWM3*%
X90170000Y-118364000D02*
X79755996Y-118364000D01*
X93148000Y-121342000D02*
X90170000Y-118364000D01*
X94250000Y-121342000D02*
X93148000Y-121342000D01*
X77216000Y-75184000D02*
X79756000Y-77724000D01*
X77216000Y-67310000D02*
X77216000Y-75184000D01*
X79248000Y-65278000D02*
X77216000Y-67310000D01*
X88138000Y-65278000D02*
X79248000Y-65278000D01*
X76200000Y-78232000D02*
X79756000Y-78232000D01*
X79756000Y-78232000D02*
X79756000Y-116332002D01*
X79756000Y-77724000D02*
X79756000Y-78232000D01*
%TO.N,/PeakDetectorMCU/PEAK_OUT_PWM2*%
X109984792Y-65278000D02*
X119380000Y-74673208D01*
X108712000Y-65278000D02*
X109984792Y-65278000D01*
X113646000Y-120542000D02*
X119380000Y-114808000D01*
X102600000Y-120542000D02*
X113646000Y-120542000D01*
X119380000Y-78232000D02*
X119380000Y-112267998D01*
X119380000Y-74673208D02*
X119380000Y-78232000D01*
X117348000Y-78232000D02*
X119380000Y-78232000D01*
%TO.N,/PeakDetectorMCU/PEAK_OUT_PWM1*%
X139954000Y-114554000D02*
X139954000Y-83058000D01*
X129286000Y-72390000D02*
X129286000Y-65278000D01*
X133166000Y-121342000D02*
X133223000Y-121285000D01*
X102600000Y-121342000D02*
X133166000Y-121342000D01*
X133223000Y-121285000D02*
X139954000Y-114554000D01*
X139700000Y-78232000D02*
X135128000Y-78232000D01*
X135128000Y-78232000D02*
X129286000Y-72390000D01*
X139954000Y-83058000D02*
X135128000Y-78232000D01*
%TO.N,/PeakDetectorMCU/NRST*%
X98825000Y-115967000D02*
X98825000Y-116058990D01*
X98825000Y-120415000D02*
X101092000Y-122682000D01*
X98825000Y-115967000D02*
X98825000Y-120415000D01*
X95504000Y-129667000D02*
X105791000Y-129667000D01*
X105791000Y-129667000D02*
X105791000Y-124206004D01*
X105791000Y-124206004D02*
X104267000Y-122682004D01*
X93599000Y-127762000D02*
X95504000Y-129667000D01*
%TO.N,/PeakDetectorMCU/SYS_SWDIO*%
X100425000Y-124317000D02*
X100425000Y-125762000D01*
X100425000Y-125762000D02*
X100203000Y-125984000D01*
X100203000Y-125984000D02*
X96139000Y-125984000D01*
X96139000Y-125984000D02*
X96139000Y-127762000D01*
%TO.N,/PeakDetectorMCU/SYS_SWCLK*%
X101225000Y-127756000D02*
X101219000Y-127762000D01*
X101225000Y-124317000D02*
X101225000Y-127756000D01*
%TD*%
D29*
%TO.N,GNDS*%
G36*
X59490001Y-93218000D02*
G01*
X49657000Y-93218000D01*
X49657000Y-84582000D01*
X59490000Y-84582000D01*
X59490001Y-93218000D01*
G37*
X59490001Y-93218000D02*
X49657000Y-93218000D01*
X49657000Y-84582000D01*
X59490000Y-84582000D01*
X59490001Y-93218000D01*
%TD*%
M02*
