<?xml version="1.0" encoding="UTF-8" standalone="no"?>
<svg
   xmlns:dc="http://purl.org/dc/elements/1.1/"
   xmlns:cc="http://creativecommons.org/ns#"
   xmlns:rdf="http://www.w3.org/1999/02/22-rdf-syntax-ns#"
   xmlns:svg="http://www.w3.org/2000/svg"
   xmlns="http://www.w3.org/2000/svg"
   xmlns:sodipodi="http://sodipodi.sourceforge.net/DTD/sodipodi-0.dtd"
   xmlns:inkscape="http://www.inkscape.org/namespaces/inkscape"
   version="1.1"
   width="148mm"
   height="210mm"
   viewBox="0 0 58267.719 82677.165"
   id="svg2564"
   sodipodi:docname="ActiveMixerPedal_SOIC-brd.svg"
   inkscape:version="1.0.1 (1.0.1+r73)">
  <metadata
     id="metadata2570">
    <rdf:RDF>
      <cc:Work
         rdf:about="">
        <dc:format>image/svg+xml</dc:format>
        <dc:type
           rdf:resource="http://purl.org/dc/dcmitype/StillImage" />
        <dc:title>SVG Picture created as ActiveMixerPedal_SOIC-brd.svg date 2020/09/21 19:43:49 </dc:title>
      </cc:Work>
    </rdf:RDF>
  </metadata>
  <defs
     id="defs2568" />
  <sodipodi:namedview
     pagecolor="#ffffff"
     bordercolor="#666666"
     borderopacity="1"
     objecttolerance="10"
     gridtolerance="10"
     guidetolerance="10"
     inkscape:pageopacity="0"
     inkscape:pageshadow="2"
     inkscape:window-width="1920"
     inkscape:window-height="1052"
     id="namedview2566"
     showgrid="false"
     units="mm"
     inkscape:zoom="0.39108156"
     inkscape:cx="154.39788"
     inkscape:cy="619.35549"
     inkscape:window-x="1920"
     inkscape:window-y="0"
     inkscape:window-maximized="1"
     inkscape:current-layer="svg2564" />
  <title
     id="title2">SVG Picture created as ActiveMixerPedal_SOIC-brd.svg date 2020/09/21 19:43:49 </title>
  <desc
     id="desc4">Picture generated by PCBNEW </desc>
  <g
     style="fill:#000000;fill-opacity:1;stroke:#000000;stroke-linecap:round;stroke-linejoin:round;stroke-opacity:1"
     id="g6" />
  <g
     style="fill:#000000;fill-opacity:0;stroke:#000000;stroke-width:-0.000393701;stroke-linecap:round;stroke-linejoin:round;stroke-opacity:1"
     id="g8" />
  <g
     style="fill:#000000;fill-opacity:0;stroke:#000000;stroke-width:393.701;stroke-linecap:round;stroke-linejoin:round;stroke-opacity:1"
     id="g110" />
  <g
     style="fill:#000000;fill-opacity:0;stroke:#000000;stroke-width:393.701;stroke-linecap:round;stroke-linejoin:round;stroke-opacity:1"
     id="g116" />
  <g
     style="fill:#000000;fill-opacity:0;stroke:#000000;stroke-width:393.701;stroke-linecap:round;stroke-linejoin:round;stroke-opacity:1"
     id="g122" />
  <g
     style="fill:#000000;fill-opacity:0;stroke:#000000;stroke-width:393.701;stroke-linecap:round;stroke-linejoin:round;stroke-opacity:1"
     id="g128" />
  <g
     style="fill:#000000;fill-opacity:0;stroke:#000000;stroke-width:393.701;stroke-linecap:round;stroke-linejoin:round;stroke-opacity:1"
     id="g134" />
  <g
     style="fill:#000000;fill-opacity:0;stroke:#000000;stroke-width:393.701;stroke-linecap:round;stroke-linejoin:round;stroke-opacity:1"
     id="g140" />
  <g
     style="fill:#000000;fill-opacity:0;stroke:#000000;stroke-width:393.701;stroke-linecap:round;stroke-linejoin:round;stroke-opacity:1"
     id="g146" />
  <g
     style="fill:#000000;fill-opacity:0;stroke:#000000;stroke-width:393.701;stroke-linecap:round;stroke-linejoin:round;stroke-opacity:1"
     id="g152" />
  <g
     style="fill:#000000;fill-opacity:0;stroke:#000000;stroke-width:393.701;stroke-linecap:round;stroke-linejoin:round;stroke-opacity:1"
     id="g158" />
  <g
     style="fill:#000000;fill-opacity:1;stroke:#000000;stroke-width:47.2441;stroke-linecap:round;stroke-linejoin:round;stroke-opacity:1"
     id="g164" />
  <g
     style="fill:#000000;fill-opacity:0;stroke:#000000;stroke-width:59.0551;stroke-linecap:round;stroke-linejoin:round;stroke-opacity:1"
     id="g1560" />
  <g
     style="fill:#000000;fill-opacity:0;stroke:#000000;stroke-width:59.0551;stroke-linecap:round;stroke-linejoin:round;stroke-opacity:1"
     id="g2006" />
  <g
     style="fill:#000000;fill-opacity:0;stroke:#000000;stroke-width:59.0551;stroke-linecap:round;stroke-linejoin:round;stroke-opacity:1"
     id="g2306" />
  <g
     id="g3807"
     transform="translate(-7999.3746,-13141.721)">
    <g
       style="fill:#000000;fill-opacity:0;stroke:#000000;stroke-width:59.0551;stroke-linecap:round;stroke-linejoin:round;stroke-opacity:1"
       id="g642">
      <path
         d="M 24200,30050 V 21550"
         id="path602" />
      <path
         d="M 30200,30050 H 24200"
         id="path604" />
      <path
         d="m 30200,21550 v 8500"
         id="path606" />
      <path
         d="m 24200,21550 h 6000"
         id="path608" />
      <path
         d="M 32300,30050 V 21550"
         id="path610" />
      <path
         d="M 38300,30050 H 32300"
         id="path612" />
      <path
         d="m 38300,21550 v 8500"
         id="path614" />
      <path
         d="m 32300,21550 h 6000"
         id="path616" />
      <path
         d="M 40400,30050 V 21550"
         id="path618" />
      <path
         d="M 46400,30050 H 40400"
         id="path620" />
      <path
         d="m 46400,21550 v 8500"
         id="path622" />
      <path
         d="m 40400,21550 h 6000"
         id="path624" />
      <path
         d="M 48500,30050 V 21550"
         id="path626" />
      <path
         d="M 54500,30050 H 48500"
         id="path628" />
      <path
         d="m 54500,21550 v 8500"
         id="path630" />
      <path
         d="m 48500,21550 h 6000"
         id="path632" />
      <path
         d="M 25250,52500 H 16750"
         id="path634" />
      <path
         d="m 25250,46500 v 6000"
         id="path636" />
      <path
         d="m 16750,46500 h 8500"
         id="path638" />
      <path
         d="M 16750,52500 V 46500"
         id="path640" />
    </g>
    <g
       style="fill:#000000;fill-opacity:0;stroke:#000000;stroke-width:47.2441;stroke-linecap:round;stroke-linejoin:round;stroke-opacity:1"
       id="g660">
      <path
         d="m 21183,29026 v 413"
         id="path644" />
      <path
         d="m 20769,29439 h 414"
         id="path646" />
      <path
         d="M 18781,25738 H 15316"
         id="path648" />
      <path
         d="m 15316,25738 v 3623"
         id="path650" />
      <path
         d="M 21104,26801 V 25738"
         id="path652" />
      <path
         d="m 21104,25738 h -748"
         id="path654" />
      <path
         d="m 15316,29361 h 5788"
         id="path656" />
      <path
         d="M 21104,29361 V 28337"
         id="path658" />
    </g>
    <g
       style="fill:#000000;fill-opacity:0;stroke:#000000;stroke-width:49.2126;stroke-linecap:round;stroke-linejoin:round;stroke-opacity:1"
       id="g1548">
      <text
         x="23200"
         y="22448.4"
         textLength="260.686"
         font-size="262.467px"
         lengthAdjust="spacingAndGlyphs"
         text-anchor="middle"
         opacity="0"
         id="text1514">J4</text>
      <path
         d="m 23265,22242 v 140 l 9,28 19,19 28,10 h 19"
         id="path1516" />
      <path
         d="m 23087,22307 v 132"
         id="path1518" />
      <path
         d="m 23134,22232 47,141 h -122"
         id="path1520" />
      <text
         x="31850"
         y="22498.4"
         textLength="273.48099"
         font-size="262.467px"
         lengthAdjust="spacingAndGlyphs"
         text-anchor="middle"
         opacity="0"
         id="text1522">J3</text>
      <path
         d="m 31915,22292 v 140 l 9,28 19,19 28,10 h 19"
         id="path1524" />
      <path
         d="m 31840,22292 h -122 l 66,75 h -28 l -19,9 -9,9 -10,19 v 47 l 10,19 9,9 19,10 h 56 l 19,-10 9,-9"
         id="path1526" />
      <text
         x="39900"
         y="22548.4"
         textLength="273.48099"
         font-size="262.467px"
         lengthAdjust="spacingAndGlyphs"
         text-anchor="middle"
         opacity="0"
         id="text1528">J2</text>
      <path
         d="m 39965,22342 v 140 l 9,28 19,19 28,10 h 19"
         id="path1530" />
      <path
         d="m 39881,22360 -10,-9 -18,-9 h -47 l -19,9 -9,9 -10,19 v 19 l 10,28 112,113 h -122"
         id="path1532" />
      <text
         x="47950"
         y="22448.4"
         textLength="273.48099"
         font-size="262.467px"
         lengthAdjust="spacingAndGlyphs"
         text-anchor="middle"
         opacity="0"
         id="text1534">J1</text>
      <path
         d="m 48015,22242 v 140 l 9,28 19,19 28,10 h 19"
         id="path1536" />
      <path
         d="m 47818,22439 h 113"
         id="path1538" />
      <path
         d="m 47875,22439 v -197 l 18,28 19,19 19,9"
         id="path1540" />
      <text
         x="20975"
         y="53448.398"
         textLength="273.48099"
         font-size="262.467px"
         lengthAdjust="spacingAndGlyphs"
         text-anchor="middle"
         opacity="0"
         id="text1542">J6</text>
      <path
         d="m 21040,53242 v 140 l 9,28 19,19 28,10 h 19"
         id="path1544" />
      <path
         d="m 20862,53242 h 38 l 18,9 10,9 18,29 10,37 v 75 l -10,19 -9,9 -19,10 h -37 l -19,-10 -9,-9 -10,-19 v -47 l 10,-19 9,-9 19,-9 h 37 l 19,9 9,9 10,19"
         id="path1546" />
    </g>
    <g
       style="fill:#000000;fill-opacity:0;stroke:#000000;stroke-width:59.0551;stroke-linecap:round;stroke-linejoin:round;stroke-opacity:1"
       id="g1558">
      <text
         x="17423.199"
         y="25483.1"
         textLength="610.93903"
         font-size="524.934px"
         lengthAdjust="spacingAndGlyphs"
         text-anchor="middle"
         opacity="0"
         id="text1550">J5</text>
      <path
         d="m 17554,25070 v 281 l 19,57 37,37 56,19 h 38"
         id="path1552" />
      <path
         d="m 17179,25070 h 187 l 19,188 -19,-19 -37,-19 h -94 l -37,19 -19,19 -19,37 v 94 l 19,37 19,19 37,19 h 94 l 37,-19 19,-19"
         id="path1554" />
      <g
         id="g1556" />
    </g>
    <g
       style="fill:#000000;fill-opacity:0;stroke:#000000;stroke-width:118.11;stroke-linecap:round;stroke-linejoin:round;stroke-opacity:1"
       id="g1660">
      <path
         d="m 18350,50050 h 2000"
         id="path1636" />
      <path
         d="m 18350,50050 400,-400"
         id="path1638" />
      <path
         d="m 18350,50050 400,400"
         id="path1640" />
      <path
         d="M 26600,29000 V 27000"
         id="path1642" />
      <path
         d="m 26600,29000 -400,-400"
         id="path1644" />
      <path
         d="m 26600,29000 400,-400"
         id="path1646" />
      <path
         d="M 34700,29000 V 27000"
         id="path1648" />
      <path
         d="m 34700,29000 -400,-400"
         id="path1650" />
      <path
         d="m 34700,29000 400,-400"
         id="path1652" />
      <path
         d="M 42800,29000 V 27000"
         id="path1654" />
      <path
         d="m 42800,29000 -400,-400"
         id="path1656" />
      <path
         d="m 42800,29000 400,-400"
         id="path1658" />
    </g>
    <g
       style="fill:#000000;fill-opacity:0;stroke:#000000;stroke-width:118.11;stroke-linecap:round;stroke-linejoin:round;stroke-opacity:1"
       id="g1750">
      <path
         d="m 50900,29000 -400,-400"
         id="path1744" />
      <path
         d="M 50900,29000 V 27000"
         id="path1746" />
      <path
         d="m 50900,29000 400,-400"
         id="path1748" />
    </g>
    <g
       style="fill:#000000;fill-opacity:0;stroke:#000000;stroke-width:47.2441;stroke-linecap:round;stroke-linejoin:round;stroke-opacity:1"
       id="g1880">
      <path
         d="m 31729,30302 v -205"
         id="path1752" />
      <path
         d="m 31170,30302 v -205"
         id="path1754" />
      <path
         d="m 39729,30302 v -205"
         id="path1756" />
      <path
         d="m 39170,30302 v -205"
         id="path1758" />
      <path
         d="m 47729,30302 v -205"
         id="path1760" />
      <path
         d="m 47170,30302 v -205"
         id="path1762" />
      <path
         d="m 23629,30302 v -205"
         id="path1764" />
      <path
         d="m 23070,30302 v -205"
         id="path1766" />
      <path
         d="m 34210,32870 h 980"
         id="path1768" />
      <path
         d="m 35190,52640 h -980"
         id="path1770" />
      <path
         d="M 35190,32870 V 52640"
         id="path1772" />
      <path
         d="M 34210,52640 V 32870"
         id="path1774" />
      <path
         d="M 36440,54630 V 30930"
         id="path1776" />
      <path
         d="m 32940,54630 h 3500"
         id="path1778" />
      <path
         d="M 32940,30930 V 54630"
         id="path1780" />
      <path
         d="M 36440,30930 H 32940"
         id="path1782" />
      <circle
         cx="34690"
         cy="53810"
         r="430.116"
         id="circle1784" />
      <circle
         cx="34700"
         cy="31750"
         r="430.116"
         id="circle1786" />
      <path
         d="m 26120,32870 h 980"
         id="path1788" />
      <path
         d="m 27100,52640 h -980"
         id="path1790" />
      <path
         d="M 27100,32870 V 52640"
         id="path1792" />
      <path
         d="M 26120,52640 V 32870"
         id="path1794" />
      <path
         d="M 28350,54630 V 30930"
         id="path1796" />
      <path
         d="m 24850,54630 h 3500"
         id="path1798" />
      <path
         d="M 24850,30930 V 54630"
         id="path1800" />
      <path
         d="M 28350,30930 H 24850"
         id="path1802" />
      <circle
         cx="26600"
         cy="53810"
         r="430.116"
         id="circle1804" />
      <circle
         cx="26610"
         cy="31750"
         r="430.116"
         id="circle1806" />
      <path
         d="m 42310,32870 h 980"
         id="path1808" />
      <path
         d="m 43290,52640 h -980"
         id="path1810" />
      <path
         d="M 43290,32870 V 52640"
         id="path1812" />
      <path
         d="M 42310,52640 V 32870"
         id="path1814" />
      <path
         d="M 44540,54630 V 30930"
         id="path1816" />
      <path
         d="m 41040,54630 h 3500"
         id="path1818" />
      <path
         d="M 41040,30930 V 54630"
         id="path1820" />
      <path
         d="M 44540,30930 H 41040"
         id="path1822" />
      <circle
         cx="42790"
         cy="53810"
         r="430.116"
         id="circle1824" />
      <circle
         cx="42800"
         cy="31750"
         r="430.116"
         id="circle1826" />
      <path
         d="m 50420,32870 h 980"
         id="path1828" />
      <path
         d="m 51400,52640 h -980"
         id="path1830" />
      <path
         d="M 51400,32870 V 52640"
         id="path1832" />
      <path
         d="M 50420,52640 V 32870"
         id="path1834" />
      <path
         d="M 52650,54630 V 30930"
         id="path1836" />
      <path
         d="m 49150,54630 h 3500"
         id="path1838" />
      <path
         d="M 49150,30930 V 54630"
         id="path1840" />
      <path
         d="M 52650,30930 H 49150"
         id="path1842" />
      <circle
         cx="50900"
         cy="53810"
         r="430.116"
         id="circle1844" />
      <circle
         cx="50910"
         cy="31750"
         r="430.116"
         id="circle1846" />
      <circle
         cx="26600"
         cy="25200"
         r="984.25201"
         id="circle1848" />
      <path
         d="m 25991,26207 h 1217"
         id="path1850" />
      <path
         d="m 27208.2,26207.9 a 1177.17,1177.17 0 0 0 -608.4,-2185.1"
         id="path1852" />
      <path
         d="m 26600.2,24022.8 a 1177.17,1177.17 0 0 0 -608.4,2185.1"
         id="path1854" />
      <circle
         cx="34700"
         cy="25200"
         r="984.25201"
         id="circle1856" />
      <path
         d="m 34091,26207 h 1217"
         id="path1858" />
      <path
         d="m 35308.2,26207.9 a 1177.17,1177.17 0 0 0 -608.4,-2185.1"
         id="path1860" />
      <path
         d="m 34700.2,24022.8 a 1177.17,1177.17 0 0 0 -608.4,2185.1"
         id="path1862" />
      <circle
         cx="42800"
         cy="25200"
         r="984.25201"
         id="circle1864" />
      <path
         d="m 42191,26207 h 1217"
         id="path1866" />
      <path
         d="m 43408.2,26207.9 a 1177.17,1177.17 0 0 0 -608.4,-2185.1"
         id="path1868" />
      <path
         d="m 42800.2,24022.8 a 1177.17,1177.17 0 0 0 -608.4,2185.1"
         id="path1870" />
      <circle
         cx="50900"
         cy="25200"
         r="984.25201"
         id="circle1872" />
      <path
         d="m 50291,26207 h 1217"
         id="path1874" />
      <path
         d="m 51508.2,26207.9 a 1177.17,1177.17 0 0 0 -608.4,-2185.1"
         id="path1876" />
      <path
         d="m 50900.2,24022.8 a 1177.17,1177.17 0 0 0 -608.4,2185.1"
         id="path1878" />
    </g>
    <g
       style="fill:#000000;fill-opacity:0;stroke:#000000;stroke-width:47.2441;stroke-linecap:round;stroke-linejoin:round;stroke-opacity:1"
       id="g2048">
      <path
         d="m 58250,55525 250,-250"
         id="path2008" />
      <path
         d="m 60900,53000 -250,250"
         id="path2010" />
      <path
         d="m 60650,23725 250,250"
         id="path2012" />
      <path
         d="m 58500,21750 -250,-250"
         id="path2014" />
      <path
         d="m 16600,24000 250,-250"
         id="path2016" />
      <path
         d="m 19000,21750 250,-250"
         id="path2018" />
      <path
         d="m 19000,55275 250,250"
         id="path2020" />
      <path
         d="m 16600,53000 250,250"
         id="path2022" />
      <path
         d="M 58500,23725 V 21750"
         id="path2024" />
      <path
         d="M 60650,23725 H 58500"
         id="path2026" />
      <path
         d="m 58500,53250 h 2150"
         id="path2028" />
      <path
         d="M 58500,55275 V 53250"
         id="path2030" />
      <path
         d="m 19000,53250 v 2025"
         id="path2032" />
      <path
         d="m 16850,53250 h 2150"
         id="path2034" />
      <path
         d="M 19000,23750 V 21750"
         id="path2036" />
      <path
         d="m 16850,23750 h 2150"
         id="path2038" />
      <path
         d="M 19250,55525 H 58250"
         id="path2040" />
      <path
         d="M 60900,23975 V 53000"
         id="path2042" />
      <path
         d="M 16600,24000 V 53000"
         id="path2044" />
      <path
         d="M 19250,21500 H 58250"
         id="path2046" />
    </g>
    <g
       style="fill:#000000;fill-opacity:0;stroke:#000000;stroke-width:59.0551;stroke-linecap:round;stroke-linejoin:round;stroke-opacity:1"
       id="g2304">
      <path
         d="M 28800,18050 H 24400"
         id="path2050" />
      <path
         d="M 28800,18050 V 30050"
         id="path2052" />
      <path
         d="M 24400,18050 V 30050"
         id="path2054" />
      <path
         d="m 26600,21550 v 8500"
         id="path2056" />
      <path
         d="M 36900,18050 H 32500"
         id="path2058" />
      <path
         d="M 36900,18050 V 30050"
         id="path2060" />
      <path
         d="M 32500,18050 V 30050"
         id="path2062" />
      <path
         d="m 34700,21550 v 8500"
         id="path2064" />
      <path
         d="M 45000,18050 H 40600"
         id="path2066" />
      <path
         d="M 45000,18050 V 30050"
         id="path2068" />
      <path
         d="M 40600,18050 V 30050"
         id="path2070" />
      <path
         d="m 42800,21550 v 8500"
         id="path2072" />
      <path
         d="M 53100,18050 H 48700"
         id="path2074" />
      <path
         d="M 53100,18050 V 30050"
         id="path2076" />
      <path
         d="M 48700,18050 V 30050"
         id="path2078" />
      <path
         d="m 50900,21550 v 8500"
         id="path2080" />
      <path
         d="m 13250,47900 v 4400"
         id="path2082" />
      <path
         d="M 13250,47900 H 25250"
         id="path2084" />
      <path
         d="M 13250,52300 H 25250"
         id="path2086" />
      <path
         d="m 16750,50100 h 8500"
         id="path2088" />
      <g
         id="g2090" />
      <g
         id="g2092" />
      <g
         id="g2094" />
      <g
         id="g2096" />
      <g
         id="g2098" />
      <g
         id="g2100" />
      <g
         id="g2102" />
      <g
         id="g2104" />
      <g
         id="g2106" />
      <g
         id="g2108" />
      <g
         id="g2110" />
      <g
         id="g2112" />
      <g
         id="g2114" />
      <g
         id="g2116" />
      <g
         id="g2118" />
      <g
         id="g2120" />
      <g
         id="g2122" />
      <g
         id="g2124" />
      <g
         id="g2126" />
      <g
         id="g2128" />
      <g
         id="g2130" />
      <g
         id="g2132" />
      <g
         id="g2134" />
      <g
         id="g2136" />
      <g
         id="g2138" />
      <g
         id="g2140" />
      <g
         id="g2142" />
      <g
         id="g2144" />
      <g
         id="g2146" />
      <g
         id="g2148" />
      <g
         id="g2150" />
      <g
         id="g2152" />
      <g
         id="g2154" />
      <g
         id="g2156" />
      <g
         id="g2158" />
      <g
         id="g2160" />
      <g
         id="g2162" />
      <g
         id="g2164" />
      <g
         id="g2166" />
      <g
         id="g2168" />
      <g
         id="g2170" />
      <g
         id="g2172" />
      <g
         id="g2174" />
      <g
         id="g2176" />
      <g
         id="g2178" />
      <g
         id="g2180" />
      <g
         id="g2182" />
      <g
         id="g2184" />
      <g
         id="g2186" />
      <g
         id="g2188" />
      <g
         id="g2190" />
      <g
         id="g2192" />
      <g
         id="g2194" />
      <g
         id="g2196" />
      <g
         id="g2198" />
      <g
         id="g2200" />
      <g
         id="g2202" />
      <g
         id="g2204" />
      <g
         id="g2206" />
      <g
         id="g2208" />
      <g
         id="g2210" />
      <g
         id="g2212" />
      <g
         id="g2214" />
      <g
         id="g2216" />
      <g
         id="g2218" />
      <g
         id="g2220" />
      <g
         id="g2222" />
      <g
         id="g2224" />
      <g
         id="g2226" />
      <g
         id="g2228" />
      <g
         id="g2230" />
      <g
         id="g2232" />
      <g
         id="g2234" />
      <g
         id="g2236" />
      <g
         id="g2238" />
      <g
         id="g2240" />
      <g
         id="g2242" />
      <g
         id="g2244" />
      <g
         id="g2246" />
      <g
         id="g2248" />
      <g
         id="g2250" />
      <g
         id="g2252" />
      <g
         id="g2254" />
      <g
         id="g2256" />
      <g
         id="g2258" />
      <g
         id="g2260" />
      <g
         id="g2262" />
      <g
         id="g2264" />
      <g
         id="g2266" />
      <g
         id="g2268" />
      <g
         id="g2270" />
      <g
         id="g2272" />
      <g
         id="g2274" />
      <g
         id="g2276" />
      <g
         id="g2278" />
      <g
         id="g2280" />
      <g
         id="g2282" />
      <g
         id="g2284" />
      <g
         id="g2286" />
      <g
         id="g2288" />
      <g
         id="g2290" />
      <g
         id="g2292" />
      <g
         id="g2294" />
      <g
         id="g2296" />
      <g
         id="g2298" />
      <g
         id="g2300" />
      <g
         id="g2302" />
    </g>
    <g
       style="fill:#000000;fill-opacity:0;stroke:#000000;stroke-width:19.685;stroke-linecap:round;stroke-linejoin:round;stroke-opacity:1"
       id="g2562">
      <path
         d="m 58500,55250 -250,250"
         id="path2308" />
      <path
         d="m 58500,53250 v 2000"
         id="path2310" />
      <path
         d="M 60650,53250 H 58500"
         id="path2312" />
      <path
         d="m 60900,53000 -250,250"
         id="path2314" />
      <path
         d="M 60900,24000 V 53000"
         id="path2316" />
      <path
         d="m 60650,23750 250,250"
         id="path2318" />
      <path
         d="m 58500,23750 h 2150"
         id="path2320" />
      <path
         d="m 58500,21725 v 2025"
         id="path2322" />
      <path
         d="m 58250,21475 250,250"
         id="path2324" />
      <path
         d="M 19250,21475 H 58250"
         id="path2326" />
      <path
         d="m 19000,21725 250,-250"
         id="path2328" />
      <path
         d="M 19000,23750 V 21725"
         id="path2330" />
      <path
         d="m 16850,23750 h 2150"
         id="path2332" />
      <path
         d="m 16600,24000 250,-250"
         id="path2334" />
      <path
         d="M 16600,53025 V 24000"
         id="path2336" />
      <path
         d="m 16850,53275 -250,-250"
         id="path2338" />
      <path
         d="M 19000,53275 H 16850"
         id="path2340" />
      <path
         d="M 19000,55250 V 53275"
         id="path2342" />
      <path
         d="m 19250,55500 -250,-250"
         id="path2344" />
      <path
         d="M 58250,55500 H 19250"
         id="path2346" />
      <g
         id="g2348" />
      <g
         id="g2350" />
      <g
         id="g2352" />
      <g
         id="g2354" />
      <g
         id="g2356" />
      <g
         id="g2358" />
      <g
         id="g2360" />
      <g
         id="g2362" />
      <g
         id="g2364" />
      <g
         id="g2366" />
      <g
         id="g2368" />
      <g
         id="g2370" />
      <g
         id="g2372" />
      <g
         id="g2374" />
      <g
         id="g2376" />
      <g
         id="g2378" />
      <g
         id="g2380" />
      <g
         id="g2382" />
      <g
         id="g2384" />
      <g
         id="g2386" />
      <g
         id="g2388" />
      <g
         id="g2390" />
      <g
         id="g2392" />
      <g
         id="g2394" />
      <g
         id="g2396" />
      <g
         id="g2398" />
      <g
         id="g2400" />
      <g
         id="g2402" />
      <g
         id="g2404" />
      <g
         id="g2406" />
      <g
         id="g2408" />
      <g
         id="g2410" />
      <g
         id="g2412" />
      <g
         id="g2414" />
      <g
         id="g2416" />
      <g
         id="g2418" />
      <g
         id="g2420" />
      <g
         id="g2422" />
      <g
         id="g2424" />
      <g
         id="g2426" />
      <g
         id="g2428" />
      <g
         id="g2430" />
      <g
         id="g2432" />
      <g
         id="g2434" />
      <g
         id="g2436" />
      <g
         id="g2438" />
      <g
         id="g2440" />
      <g
         id="g2442" />
      <g
         id="g2444" />
      <g
         id="g2446" />
      <g
         id="g2448" />
      <g
         id="g2450" />
      <g
         id="g2452" />
      <g
         id="g2454" />
      <g
         id="g2456" />
      <g
         id="g2458" />
      <g
         id="g2460" />
      <g
         id="g2462" />
      <g
         id="g2464" />
      <g
         id="g2466" />
      <g
         id="g2468" />
      <g
         id="g2470" />
      <g
         id="g2472" />
      <g
         id="g2474" />
      <g
         id="g2476" />
      <g
         id="g2478" />
      <g
         id="g2480" />
      <g
         id="g2482" />
      <g
         id="g2484" />
      <g
         id="g2486" />
      <g
         id="g2488" />
      <g
         id="g2490" />
      <g
         id="g2492" />
      <g
         id="g2494" />
      <g
         id="g2496" />
      <g
         id="g2498" />
      <g
         id="g2500" />
      <g
         id="g2502" />
      <g
         id="g2504" />
      <g
         id="g2506" />
      <g
         id="g2508" />
      <g
         id="g2510" />
      <g
         id="g2512" />
      <g
         id="g2514" />
      <g
         id="g2516" />
      <g
         id="g2518" />
      <g
         id="g2520" />
      <g
         id="g2522" />
      <g
         id="g2524" />
      <g
         id="g2526" />
      <g
         id="g2528" />
      <g
         id="g2530" />
      <g
         id="g2532" />
      <g
         id="g2534" />
      <g
         id="g2536" />
      <g
         id="g2538" />
      <g
         id="g2540" />
      <g
         id="g2542" />
      <g
         id="g2544" />
      <g
         id="g2546" />
      <g
         id="g2548" />
      <g
         id="g2550" />
      <g
         id="g2552" />
      <g
         id="g2554" />
      <g
         id="g2556" />
      <g
         id="g2558" />
      <g
         id="g2560" />
    </g>
  </g>
</svg>
